<svg width="250" height="250" viewBox="0 0 250 250" fill="none" xmlns="http://www.w3.org/2000/svg">
<path d="M189.508 204.511H143.444C142.778 204.511 142.239 203.971 142.239 203.306C142.239 202.64 142.778 202.101 143.444 202.101H188.303V155.221L144.012 137.828L123.016 156.596C122.546 157.015 121.832 157.003 121.378 156.566L101.903 137.84L57.6539 155.221V202.101H123.363C124.028 202.101 124.568 202.64 124.568 203.306C124.568 203.971 124.028 204.511 123.363 204.511H56.449C55.7835 204.511 55.2441 203.971 55.2441 203.306V154.4C55.2441 153.904 55.5474 153.459 56.0084 153.278L101.74 135.314C102.178 135.142 102.677 135.24 103.016 135.567L122.243 154.055L142.96 135.538C143.299 135.234 143.78 135.148 144.203 135.314L189.948 153.278C190.409 153.459 190.712 153.904 190.712 154.4V203.305C190.713 203.971 190.174 204.511 189.508 204.511Z" fill="#141517"/>
<path d="M167.07 204.434H78.8826C78.2171 204.434 77.6777 203.894 77.6777 203.229V172.531C77.6777 171.866 78.2171 171.326 78.8826 171.326C79.5481 171.326 80.0874 171.866 80.0874 172.531V202.024H165.865V172.531C165.865 171.866 166.405 171.326 167.07 171.326C167.735 171.326 168.275 171.866 168.275 172.531V203.229C168.275 203.895 167.736 204.434 167.07 204.434Z" fill="#141517"/>
<path d="M144.983 161.104H100.972C100.642 161.104 100.326 160.969 100.099 160.729C99.8716 160.489 99.7523 160.167 99.7692 159.837L100.977 136.374C101.011 135.71 101.576 135.196 102.242 135.232C102.907 135.267 103.418 135.833 103.384 136.498L102.241 158.694H143.714L142.558 136.498C142.524 135.834 143.035 135.267 143.699 135.232C144.364 135.194 144.93 135.708 144.965 136.373L146.186 159.836C146.203 160.167 146.084 160.489 145.857 160.729C145.63 160.969 145.314 161.104 144.983 161.104Z" fill="#FF4D40"/>
<path d="M129.589 176.434H116.367C115.701 176.434 115.162 175.894 115.162 175.229V159.899C115.162 159.234 115.701 158.694 116.367 158.694H129.589C130.255 158.694 130.794 159.234 130.794 159.899V175.229C130.794 175.894 130.255 176.434 129.589 176.434ZM117.572 174.024H128.385V161.104H117.572V174.024Z" fill="#FF4D40"/>
<path d="M134.985 204.511H109.607C109.238 204.511 108.889 204.342 108.661 204.052C108.433 203.762 108.349 203.383 108.436 203.024L115.195 174.947C115.325 174.406 115.809 174.024 116.367 174.024H129.589C130.167 174.024 130.663 174.434 130.772 175.002L136.168 203.079C136.236 203.432 136.143 203.796 135.914 204.074C135.685 204.351 135.344 204.511 134.985 204.511ZM111.136 202.102H133.526L128.593 176.435H117.315L111.136 202.102Z" fill="#FF4D40"/>
<path d="M123.575 126.206C104.729 126.206 89.3965 110.874 89.3965 92.0289C89.3965 73.1833 104.729 57.8516 123.575 57.8516C124.24 57.8516 124.779 58.3909 124.779 59.0564C124.779 59.7219 124.24 60.2613 123.575 60.2613C106.057 60.2613 91.8062 74.5119 91.8062 92.0289C91.8062 109.546 106.057 123.797 123.575 123.797C141.091 123.797 155.343 109.546 155.343 92.0289C155.343 76.8867 144.576 63.7782 129.742 60.8597C129.089 60.7312 128.664 60.0978 128.793 59.4452C128.921 58.7926 129.554 58.3656 130.207 58.4958C146.168 61.636 157.752 75.7392 157.752 92.0293C157.752 110.874 142.42 126.206 123.575 126.206Z" fill="#FF4D40"/>
<path d="M148.581 85.6656C140.021 85.6656 132.084 83.1804 126.231 78.6682C125.704 78.2617 125.606 77.5051 126.013 76.9782C126.419 76.4509 127.175 76.3533 127.703 76.7597C133.058 80.8879 140.668 83.2559 148.581 83.2559C150.863 83.2559 153.133 83.0631 155.327 82.682C155.978 82.5711 156.606 83.0073 156.72 83.6631C156.834 84.319 156.394 84.9427 155.739 85.0563C153.409 85.4608 151.001 85.6656 148.581 85.6656Z" fill="#FF4D40"/>
<path d="M106.19 85.033C101.225 85.033 96.296 84.157 91.9352 82.4999C91.3135 82.2638 91.0006 81.5678 91.2372 80.9457C91.4733 80.3236 92.1693 80.0115 92.7914 80.2477C96.8815 81.8019 101.515 82.6236 106.19 82.6236C121.766 82.6236 134.437 73.7282 134.437 62.7937C134.437 62.1282 134.977 61.5889 135.642 61.5889C136.308 61.5889 136.847 62.1282 136.847 62.7937C136.847 75.0559 123.094 85.033 106.19 85.033Z" fill="#FF4D40"/>
<path d="M191.409 112.933H171.119C170.454 112.933 169.914 112.394 169.914 111.728V67.2905H158.23C157.714 67.2905 157.254 66.9608 157.089 66.4708C156.924 65.9809 157.089 65.4403 157.5 65.127L180.297 47.7671C180.724 47.441 181.316 47.4381 181.747 47.7598L204.935 65.0583C205.28 65.27 205.51 65.6511 205.51 66.0857C205.51 66.7524 204.977 67.3078 204.301 67.2905C204.3 67.2905 204.298 67.2905 204.297 67.2905H192.613V111.728C192.614 112.394 192.074 112.933 191.409 112.933ZM172.324 110.523H190.204V66.0857C190.204 65.4202 190.743 64.8808 191.409 64.8808H200.667L181.035 50.2346L161.802 64.8808H171.119C171.785 64.8808 172.324 65.4202 172.324 66.0857V110.523Z" fill="#141517"/>
<path d="M54.5778 131.95C53.9123 131.95 53.3729 131.411 53.3729 130.745V84.02H44.5935C44.0766 84.02 43.6172 83.6903 43.4521 83.2003C43.2867 82.7103 43.4521 82.1697 43.8634 81.8565L61.494 68.4279C61.9214 68.1022 62.5133 68.0994 62.9443 68.4203L80.9585 81.8488C81.3749 82.1593 81.5452 82.7015 81.3822 83.1943C81.2187 83.6874 80.7577 84.02 80.2384 84.02H71.4718V118.127C71.4718 118.792 70.9325 119.331 70.267 119.331C69.6015 119.331 69.0621 118.792 69.0621 118.127V82.8151C69.0621 82.1496 69.6015 81.6103 70.267 81.6103H76.6061L62.2322 70.8955L48.1639 81.6103H54.5778C55.2432 81.6103 55.7826 82.1496 55.7826 82.8151V130.745C55.7826 131.411 55.2432 131.95 54.5778 131.95Z" fill="#141517"/>
</svg>
