<svg width="250" height="250" viewBox="0 0 250 250" fill="none" xmlns="http://www.w3.org/2000/svg">
<path d="M122.077 211.524C122.059 211.524 122.041 211.523 122.023 211.523C101.949 210.721 83.2019 202.341 69.2371 187.924C55.2329 173.468 47.5205 154.45 47.5205 134.374C47.5205 116.539 53.7814 99.1428 65.1499 85.3887C76.3638 71.8217 92.006 62.3794 109.195 58.8016C109.912 58.6549 110.615 59.1092 110.764 59.8217C110.914 60.5343 110.455 61.2324 109.738 61.3817C75.2239 68.5659 50.1729 99.2636 50.1729 134.374C50.1729 174.548 81.78 207.278 122.13 208.889C122.861 208.918 123.431 209.531 123.401 210.258C123.373 210.968 122.785 211.524 122.077 211.524ZM143.975 209.273C143.382 209.273 142.842 208.875 142.691 208.278C142.511 207.572 142.941 206.856 143.651 206.677C176.96 198.303 200.224 168.572 200.224 134.374C200.224 93.2524 166.565 59.798 125.193 59.798C124.46 59.798 123.867 59.208 123.867 58.4801C123.867 57.7521 124.46 57.1621 125.193 57.1621C168.028 57.1621 202.876 91.7992 202.876 134.374C202.876 169.78 178.789 200.563 144.301 209.232C144.192 209.26 144.082 209.273 143.975 209.273Z" fill="#141517"/>
<path d="M125.193 193.972C112.479 193.972 100.332 190.066 90.065 182.677C89.4718 182.25 89.3392 181.426 89.7688 180.837C90.198 180.247 91.0272 180.115 91.6204 180.542C101.432 187.603 113.041 191.336 125.193 191.336C156.794 191.336 182.503 165.783 182.503 134.374C182.503 102.965 156.794 77.4109 125.193 77.4109C93.5921 77.4109 67.8834 102.965 67.8834 134.374C67.8834 145.28 70.9942 155.879 76.8798 165.024C77.2745 165.638 77.0942 166.452 76.4771 166.845C75.8601 167.237 75.0398 167.057 74.6455 166.445C68.4863 156.875 65.231 145.786 65.2314 134.374C65.2314 101.511 92.13 74.7754 125.193 74.7754C158.256 74.7754 185.155 101.511 185.155 134.374C185.154 167.237 158.256 193.972 125.193 193.972Z" fill="#141517"/>
<path d="M105.617 62.3217C105.227 62.3217 104.849 62.1495 104.593 61.8406C100.703 57.1377 98.5605 51.1806 98.5605 45.0653C98.5605 30.4695 110.508 18.5947 125.193 18.5947C139.885 18.5947 151.837 30.4695 151.837 45.0653C151.837 51.1797 149.694 57.1373 145.804 61.8406C145.475 62.2387 144.943 62.4087 144.441 62.2778C131.926 58.9886 118.487 58.9846 105.957 62.2778C105.844 62.3072 105.73 62.3217 105.617 62.3217ZM125.193 21.2306C111.97 21.2306 101.212 31.9227 101.212 45.0653C101.212 50.2914 102.95 55.3893 106.12 59.5131C118.568 56.3905 131.844 56.3944 144.276 59.5131C147.447 55.3888 149.184 50.291 149.184 45.0653C149.184 31.9232 138.421 21.2306 125.193 21.2306Z" fill="#141517"/>
<path d="M128.981 59.8984C128.957 59.8984 128.933 59.8979 128.909 59.8966C126.511 59.7675 123.921 59.7661 121.478 59.8966C121.114 59.9133 120.759 59.7863 120.494 59.5373C120.23 59.2882 120.08 58.9424 120.08 58.5804V49.9918C120.08 49.2638 120.674 48.6738 121.406 48.6738H128.98C129.713 48.6738 130.306 49.2638 130.306 49.9918V58.5804C130.306 58.9424 130.156 59.2882 129.892 59.5373C129.645 59.7696 129.319 59.8984 128.981 59.8984ZM122.732 51.3097V57.2036C124.366 57.1487 126.038 57.1487 127.654 57.2036V51.3097H122.732Z" fill="#FF4D40"/>
<path d="M136.261 51.3094H114.135C113.402 51.3094 112.809 50.7194 112.809 49.9915V39.6148C112.809 38.8869 113.402 38.2969 114.135 38.2969H136.261C136.993 38.2969 137.587 38.8869 137.587 39.6148V49.9915C137.587 50.7194 136.993 51.3094 136.261 51.3094ZM115.461 48.6735H134.935V40.9328H115.461V48.6735Z" fill="#FF4D40"/>
<path d="M126.833 141.343C122.062 141.343 118.181 137.485 118.181 132.742C118.181 128 122.062 124.142 126.833 124.142C131.604 124.142 135.486 128 135.486 132.742C135.485 137.485 131.604 141.343 126.833 141.343ZM126.833 126.778C123.524 126.778 120.833 129.453 120.833 132.742C120.833 136.031 123.524 138.707 126.833 138.707C130.142 138.707 132.834 136.031 132.834 132.742C132.833 129.453 130.141 126.778 126.833 126.778Z" fill="#FF4D40"/>
<path d="M133.486 130.991C132.972 130.991 132.505 130.696 132.286 130.234C131.755 129.113 130.907 128.193 129.832 127.575C128.768 126.967 127.498 126.698 126.307 126.809C125.79 126.858 125.288 126.6 125.029 126.149C124.771 125.699 124.803 125.139 125.11 124.72L151.046 89.3803C151.448 88.8316 152.204 88.6769 152.792 89.0227C153.38 89.3684 153.607 90.1016 153.317 90.7162L134.686 130.232C134.468 130.695 134 130.991 133.486 130.991C133.487 130.991 133.486 130.991 133.486 130.991ZM128.671 124.341C129.54 124.528 130.38 124.848 131.157 125.292C131.959 125.753 132.673 126.33 133.28 127.003L145.072 101.993L128.671 124.341Z" fill="#FF4D40"/>
<path d="M125.245 178.475C122.042 178.475 118.817 178.125 115.661 177.434C105.731 175.266 96.786 169.721 90.473 161.822C84.251 154.037 80.8242 144.306 80.8242 134.421C80.8242 131.24 81.1765 128.036 81.8717 124.899C85.7927 107.204 99.9419 93.8459 117.918 90.8695C118.643 90.7505 119.324 91.2351 119.444 91.9529C119.564 92.6707 119.076 93.3499 118.354 93.4694C101.452 96.2683 88.1481 108.828 84.4614 125.467C83.8077 128.417 83.4762 131.43 83.4762 134.421C83.4762 153.708 97.2514 170.715 116.23 174.86C119.2 175.51 122.233 175.84 125.245 175.84C144.643 175.84 161.757 162.153 165.938 143.295C166.588 140.348 166.918 137.338 166.918 134.349C166.918 126.19 164.508 118.271 159.948 111.448C159.542 110.842 159.708 110.024 160.318 109.621C160.929 109.219 161.751 109.384 162.157 109.99C167.006 117.247 169.569 125.67 169.569 134.35C169.569 137.529 169.219 140.729 168.528 143.861C166.34 153.729 160.76 162.616 152.814 168.888C144.981 175.07 135.19 178.475 125.245 178.475Z" fill="#FF4D40"/>
</svg>
