<svg width="250" height="250" viewBox="0 0 250 250" fill="none" xmlns="http://www.w3.org/2000/svg">
<path d="M161.811 189.696H68.3199C68.0106 189.696 67.7092 189.571 67.49 189.352C67.2708 189.132 67.1455 188.831 67.1455 188.522C67.1455 185.766 66.0612 183.163 64.0961 181.198C62.1271 179.232 59.5239 178.148 56.7642 178.148C56.455 178.148 56.1496 178.023 55.9343 177.804C55.7151 177.588 55.5898 177.283 55.5898 176.974V160.873C55.5898 160.227 56.1144 159.699 56.7642 159.699C57.4101 159.699 57.9386 160.227 57.9386 160.873V175.854C60.8745 176.128 63.6538 177.432 65.7559 179.534C67.858 181.636 69.1654 184.411 69.4394 187.347H160.691C160.969 184.329 162.335 181.495 164.535 179.373C164.985 178.939 165.76 178.955 166.194 179.405C166.402 179.624 166.519 179.91 166.523 180.211C166.523 180.536 166.398 180.838 166.167 181.061C166.167 181.065 166.167 181.065 166.163 181.065C166.155 181.073 166.147 181.081 166.14 181.088C164.104 183.065 162.984 185.708 162.984 188.522C162.984 188.835 162.863 189.133 162.64 189.352C162.417 189.574 162.123 189.696 161.811 189.696ZM172.329 178.195C171.714 178.195 171.213 177.733 171.158 177.127C171.131 176.813 171.225 176.508 171.425 176.265C171.629 176.027 171.91 175.878 172.224 175.85C172.869 175.796 173.441 176.269 173.5 176.915C173.555 177.561 173.077 178.133 172.431 178.191C172.395 178.191 172.36 178.195 172.329 178.195ZM173.358 171.353C172.709 171.353 172.184 170.824 172.184 170.178V145.916C169.244 145.642 166.473 144.335 164.371 142.236C162.269 140.134 160.961 137.359 160.691 134.423H69.4394C69.1615 137.398 67.8267 140.201 65.6737 142.315C63.5207 144.432 60.6826 145.716 57.6919 145.936C57.4649 146.225 57.1283 146.39 56.7642 146.39C56.1144 146.39 55.5898 145.865 55.5898 145.215V144.796C55.5898 144.487 55.7151 144.182 55.9304 143.967C56.1496 143.747 56.455 143.622 56.7642 143.622C59.52 143.622 62.1271 142.538 64.0961 140.573C66.0612 138.608 67.1455 136.004 67.1455 133.249C67.1455 132.939 67.2708 132.634 67.49 132.419C67.7092 132.199 68.0106 132.074 68.3199 132.074H161.811C162.12 132.074 162.422 132.199 162.64 132.419C162.86 132.638 162.985 132.939 162.985 133.249C162.985 136.008 164.065 138.608 166.03 140.577C167.999 142.538 170.599 143.622 173.358 143.622C173.668 143.622 173.969 143.747 174.188 143.967C174.408 144.182 174.533 144.487 174.533 144.796V170.178C174.533 170.824 174.004 171.353 173.358 171.353ZM56.7642 154.219C56.1144 154.219 55.5898 153.69 55.5898 153.044C55.5898 152.398 56.1144 151.87 56.7642 151.87C57.4101 151.87 57.9386 152.398 57.9386 153.044C57.9386 153.69 57.4101 154.219 56.7642 154.219Z" fill="#141517"/>
<path d="M115.062 175.58C111.14 175.58 107.449 174.053 104.673 171.278C101.902 168.502 100.375 164.815 100.375 160.889C100.375 156.963 101.902 153.271 104.673 150.495C107.449 147.72 111.136 146.189 115.062 146.189C118.989 146.189 122.676 147.72 125.451 150.495C128.227 153.271 129.754 156.963 129.754 160.889C129.754 164.811 128.227 168.502 125.451 171.278C122.676 174.05 118.989 175.58 115.062 175.58ZM115.062 148.538C108.271 148.55 102.735 154.093 102.72 160.889C102.735 167.684 108.271 173.22 115.062 173.231C121.858 173.22 127.393 167.684 127.405 160.889C127.393 154.093 121.858 148.55 115.062 148.538Z" fill="#FF4D40"/>
<path d="M115.712 165.183C116.152 165.089 116.518 164.874 116.799 164.545C117.08 164.227 117.211 163.842 117.211 163.393C117.211 163.009 117.099 162.661 116.865 162.38C116.63 162.09 116.246 161.874 115.712 161.724V165.183ZM114.428 155.772C114.08 155.903 113.809 156.1 113.613 156.39C113.406 156.672 113.312 156.981 113.312 157.318C113.312 157.627 113.397 157.918 113.584 158.19C113.762 158.453 114.053 158.668 114.427 158.837V155.772H114.428ZM114.428 165.032V161.349C113.284 161.012 112.441 160.514 111.906 159.849C111.372 159.183 111.1 158.377 111.1 157.421C111.1 156.456 111.409 155.651 112.009 154.994C112.619 154.338 113.425 153.963 114.428 153.86V152.988H115.712V153.86C116.658 153.972 117.399 154.291 117.961 154.816C118.514 155.341 118.87 156.053 119.021 156.934L116.78 157.225C116.64 156.531 116.283 156.062 115.711 155.809V159.259C117.136 159.643 118.101 160.131 118.607 160.739C119.133 161.35 119.386 162.127 119.386 163.083C119.386 164.152 119.058 165.042 118.41 165.773C117.764 166.504 116.864 166.955 115.711 167.132V168.783H114.427V167.152C113.414 167.029 112.59 166.654 111.962 166.027C111.324 165.399 110.921 164.508 110.743 163.355L113.04 163.084C113.133 163.552 113.311 163.956 113.564 164.302C113.828 164.639 114.108 164.882 114.428 165.032Z" fill="#FF4D40"/>
<path d="M93.0085 199.988C92.3626 199.988 91.8341 199.463 91.8341 198.813C91.8341 198.167 92.3626 197.639 93.0085 197.639H181.265V151.236C181.265 150.59 181.794 150.062 182.44 150.062C183.09 150.062 183.614 150.59 183.614 151.236V198.813C183.614 199.126 183.493 199.424 183.27 199.643C183.05 199.866 182.753 199.988 182.44 199.988H93.0085ZM85.1794 199.988C84.5335 199.988 84.0051 199.463 84.0051 198.813C84.0051 198.167 84.5335 197.639 85.1794 197.639C85.8292 197.639 86.3538 198.167 86.3538 198.813C86.3538 199.463 85.8292 199.988 85.1794 199.988ZM77.3504 199.988H47.69C47.3807 199.988 47.0754 199.862 46.8601 199.643C46.6409 199.424 46.5156 199.123 46.5156 198.813V122.958C46.5156 122.648 46.6409 122.343 46.8601 122.124C47.0793 121.908 47.3807 121.783 47.69 121.783H160.374C160.882 121.783 161.329 122.104 161.49 122.582C163.995 130.082 169.651 136.056 177.007 138.976C177.61 139.215 177.903 139.896 177.664 140.499C177.488 140.949 177.058 141.242 176.572 141.242C176.424 141.242 176.279 141.211 176.142 141.156C168.446 138.103 162.398 131.898 159.544 124.132H48.8643V197.639H77.3504C78.0002 197.639 78.5247 198.167 78.5247 198.813C78.5247 199.463 78.0002 199.988 77.3504 199.988ZM182.44 144.581C181.794 144.581 181.265 144.057 181.265 143.407C181.265 142.761 181.794 142.233 182.44 142.233C183.09 142.233 183.614 142.761 183.614 143.407C183.614 144.057 183.09 144.581 182.44 144.581Z" fill="#141517"/>
<path d="M47.6895 193.728H41.438C41.1288 193.728 40.8234 193.603 40.6081 193.383C40.3889 193.164 40.2637 192.863 40.2637 192.553V116.706C40.2637 116.396 40.3889 116.091 40.6081 115.876C40.8234 115.657 41.1288 115.531 41.438 115.531H159.054C159.661 115.531 160.166 115.985 160.224 116.592C160.416 118.643 160.843 120.659 161.489 122.581C161.606 122.941 161.547 123.337 161.328 123.642C161.109 123.947 160.752 124.131 160.377 124.131H147.388C146.738 124.131 146.214 123.603 146.214 122.957C146.214 122.307 146.738 121.783 147.388 121.783H158.791C158.443 120.507 158.177 119.195 158.004 117.88H42.6124V191.379H46.5308C46.6287 190.815 47.1141 190.409 47.6895 190.409C48.3354 190.409 48.8639 190.933 48.8639 191.583V192.553C48.8639 192.867 48.7386 193.16 48.5194 193.383C48.2963 193.607 48.0027 193.728 47.6895 193.728ZM47.6895 184.928C47.0397 184.928 46.5152 184.399 46.5152 183.754C46.5152 183.104 47.0397 182.579 47.6895 182.579C48.3354 182.579 48.8639 183.104 48.8639 183.754C48.8639 184.4 48.3354 184.928 47.6895 184.928ZM47.6895 177.099C47.0397 177.099 46.5152 176.57 46.5152 175.925V122.957C46.5152 122.648 46.6404 122.343 46.8597 122.127C47.0749 121.908 47.3803 121.783 47.6895 121.783H131.731C132.376 121.783 132.901 122.307 132.901 122.957C132.901 123.603 132.376 124.131 131.731 124.131H48.8639V175.925C48.8639 176.57 48.3354 177.099 47.6895 177.099ZM139.56 124.131C138.91 124.131 138.385 123.603 138.385 122.957C138.385 122.307 138.91 121.783 139.56 121.783C140.205 121.783 140.73 122.307 140.73 122.957C140.73 123.603 140.205 124.131 139.56 124.131Z" fill="#141517"/>
<path d="M41.4376 188.083H35.1744C34.8651 188.083 34.5637 187.958 34.3445 187.739C34.1253 187.519 34 187.218 34 186.909V111.061C34 110.752 34.1253 110.45 34.3445 110.231C34.5637 110.012 34.8651 109.887 35.1744 109.887H159.1C159.434 109.887 159.754 110.032 159.977 110.278C160.197 110.529 160.302 110.861 160.267 111.194C160.161 112.141 160.107 113.116 160.107 114.091C160.107 114.878 160.146 115.7 160.224 116.6C160.251 116.933 160.146 117.254 159.919 117.497C159.696 117.743 159.387 117.88 159.053 117.88H151.624C150.974 117.88 150.449 117.352 150.449 116.706C150.449 116.056 150.974 115.531 151.624 115.531H157.793C157.77 115.038 157.758 114.553 157.758 114.091C157.758 113.472 157.777 112.85 157.816 112.235H36.3487V185.735H40.2632V174.84C40.2632 174.195 40.7878 173.666 41.4376 173.666C42.0835 173.666 42.612 174.195 42.612 174.84V186.909C42.612 187.222 42.4867 187.52 42.2675 187.739C42.0444 187.962 41.7508 188.083 41.4376 188.083ZM41.4376 168.186C40.7878 168.186 40.2632 167.661 40.2632 167.011C40.2632 166.366 40.7878 165.841 41.4376 165.841C42.0835 165.841 42.612 166.366 42.612 167.011C42.612 167.661 42.0835 168.186 41.4376 168.186ZM41.4376 160.357C40.7878 160.357 40.2632 159.832 40.2632 159.186V116.706C40.2632 116.397 40.3885 116.091 40.6038 115.872C40.823 115.657 41.1284 115.531 41.4376 115.531H135.966C136.611 115.531 137.14 116.056 137.14 116.706C137.14 117.352 136.611 117.88 135.966 117.88H42.612V159.186C42.612 159.832 42.0835 160.357 41.4376 160.357ZM143.795 117.88C143.145 117.88 142.62 117.352 142.62 116.706C142.62 116.056 143.145 115.531 143.795 115.531C144.44 115.531 144.969 116.056 144.969 116.706C144.969 117.352 144.44 117.88 143.795 117.88Z" fill="#141517"/>
<path d="M186.876 143.204C182.946 143.204 179.133 142.437 175.543 140.918C172.076 139.45 168.963 137.352 166.29 134.678C163.612 132 161.514 128.888 160.046 125.421C158.531 121.831 157.76 118.018 157.76 114.092C157.76 112.256 157.928 110.424 158.265 108.643C158.386 108.017 159.008 107.586 159.639 107.707C159.948 107.766 160.214 107.938 160.39 108.201C160.566 108.459 160.633 108.772 160.574 109.081C160.265 110.721 160.109 112.409 160.109 114.092C160.109 121.236 162.892 127.957 167.95 133.015C173.007 138.072 179.728 140.855 186.876 140.859C194.028 140.855 200.75 138.072 205.811 133.015C210.865 127.957 213.652 121.236 213.652 114.092C213.652 106.936 210.865 100.215 205.811 95.1573C200.75 90.0997 194.028 87.3126 186.876 87.3126C179.462 87.3126 172.31 90.4325 167.257 95.8737C166.834 96.3277 166.055 96.3591 165.597 95.9363C165.354 95.7092 165.217 95.3922 165.221 95.0594C165.226 94.7698 165.335 94.4879 165.534 94.2765C168.232 91.368 171.43 89.082 175.039 87.4731C178.773 85.8094 182.754 84.9639 186.873 84.9639C190.807 84.9639 194.623 85.735 198.213 87.2539C201.681 88.7218 204.797 90.82 207.471 93.4936C210.144 96.1712 212.246 99.2832 213.71 102.751C215.229 106.345 216.001 110.158 216.001 114.092C216.001 118.018 215.229 121.831 213.71 125.421C212.246 128.889 210.144 132.001 207.471 134.678C204.797 137.352 201.681 139.45 198.213 140.918C194.623 142.437 190.806 143.204 186.876 143.204ZM161.933 102.65C161.748 102.65 161.568 102.607 161.404 102.521C161.122 102.38 160.914 102.137 160.817 101.839C160.719 101.542 160.746 101.225 160.887 100.943C161.087 100.548 161.49 100.301 161.937 100.301C162.121 100.301 162.297 100.344 162.465 100.426C163.041 100.72 163.275 101.428 162.982 102.004C162.782 102.403 162.379 102.65 161.933 102.65Z" fill="#FF4D40"/>
<path d="M187.017 98.4985C187.335 98.5025 187.644 98.6316 187.863 98.8626L200.683 112.286C201.008 112.626 201.102 113.123 200.914 113.558C200.73 113.992 200.307 114.27 199.833 114.27L193.754 114.27L193.754 128.496C193.754 128.805 193.629 129.106 193.41 129.325C193.19 129.545 192.889 129.67 192.58 129.67L181.173 129.67C180.864 129.67 180.562 129.545 180.343 129.325C180.124 129.106 179.999 128.805 179.999 128.496L179.999 114.27L173.919 114.27C173.446 114.27 173.019 113.988 172.835 113.554C172.651 113.115 172.749 112.614 173.078 112.274L186.172 98.8548C186.391 98.6277 186.7 98.4985 187.017 98.4985ZM197.089 111.921L187.006 101.364L176.702 111.921L181.173 111.921C181.482 111.921 181.787 112.047 182.003 112.266C182.222 112.485 182.347 112.787 182.347 113.096L182.347 127.321L191.405 127.321L191.405 113.096C191.405 112.783 191.527 112.489 191.75 112.266C191.973 112.043 192.267 111.921 192.58 111.921L197.089 111.921Z" fill="#FF4D40"/>
<path d="M96.6001 54.1988C97.246 54.1988 97.7744 54.7273 97.7744 55.3732L97.7744 80.935C97.7744 81.5809 97.246 82.1094 96.6001 82.1094C95.9502 82.1094 95.4257 81.5809 95.4257 80.935L95.4257 55.3732C95.4257 54.7273 95.9502 54.1988 96.6001 54.1988Z" fill="#FF4D40"/>
<path d="M96.601 54.1993C96.9102 54.1993 97.2038 54.3207 97.423 54.536L102.015 59.0455C102.242 59.2647 102.367 59.5583 102.367 59.8715C102.371 60.1846 102.254 60.4821 102.03 60.7053C101.592 61.1515 100.821 61.1594 100.371 60.7209L95.7789 56.2114C95.317 55.7573 95.3092 55.0136 95.7633 54.5516C95.9864 54.3246 96.2839 54.1993 96.601 54.1993Z" fill="#FF4D40"/>
<path d="M96.6 54.1993C96.917 54.1993 97.2145 54.3246 97.4377 54.5516C97.6569 54.7748 97.7782 55.0723 97.7743 55.3854C97.7704 55.6986 97.6451 55.9922 97.422 56.2114L92.8303 60.7209C92.3801 61.1594 91.6089 61.1515 91.1705 60.7053C90.9474 60.4821 90.83 60.1846 90.8339 59.8715C90.8339 59.5583 90.9591 59.2647 91.1823 59.0455L95.7779 54.536C95.9971 54.3207 96.2907 54.1993 96.6 54.1993Z" fill="#FF4D40"/>
<path d="M76.8979 49.3447C77.5438 49.3447 78.0723 49.8692 78.0723 50.519L78.0723 92.9995C78.0723 93.6454 77.5438 94.1738 76.8979 94.1738C76.2481 94.1738 75.7235 93.6454 75.7235 92.9995L75.7236 50.519C75.7236 49.8692 76.2481 49.3447 76.8979 49.3447Z" fill="#FF4D40"/>
<path d="M76.8999 49.3444C77.2091 49.3444 77.4988 49.4618 77.7219 49.681L82.3137 54.1788C82.7756 54.629 82.7834 55.3766 82.3293 55.8386C81.8909 56.2848 81.1197 56.2966 80.6696 55.8542L76.0778 51.3564C75.8547 51.1372 75.7294 50.8436 75.7255 50.5305C75.7216 50.2173 75.839 49.9198 76.0582 49.6967C76.2814 49.4696 76.5789 49.3444 76.8999 49.3444Z" fill="#FF4D40"/>
<path d="M76.8988 49.3449C77.2159 49.3449 77.5134 49.4701 77.7365 49.6972C78.1906 50.1591 78.1828 50.9028 77.7209 51.3569L73.1252 55.8547C72.679 56.2971 71.9039 56.2892 71.4655 55.8391C71.2463 55.6159 71.1288 55.3184 71.1288 55.0053C71.1327 54.6921 71.258 54.3985 71.485 54.1793L76.0768 49.6815C76.296 49.4623 76.5896 49.3449 76.8988 49.3449Z" fill="#FF4D40"/>
<path d="M56.4965 57.5331C57.1464 57.5331 57.6709 58.0616 57.6709 58.7075L57.6709 101.18C57.6709 101.826 57.1464 102.354 56.4965 102.354C55.8506 102.354 55.3222 101.826 55.3222 101.18L55.3222 58.7075C55.3222 58.0616 55.8506 57.5331 56.4965 57.5331Z" fill="#FF4D40"/>
<path d="M56.4946 57.5343C56.8038 57.5343 57.0974 57.6557 57.3166 57.871L61.9123 62.3688C62.3742 62.8228 62.382 63.5705 61.9279 64.0324C61.4895 64.4787 60.7144 64.4865 60.2682 64.0481L55.6725 59.5503C55.2106 59.0962 55.2028 58.3525 55.6569 57.8866C55.88 57.6596 56.1775 57.5343 56.4946 57.5343Z" fill="#FF4D40"/>
<path d="M56.496 57.5382C56.817 57.5382 57.1145 57.6596 57.3337 57.8866C57.7878 58.3485 57.7839 59.0962 57.3181 59.5503L52.7381 64.0481C52.2879 64.4865 51.5128 64.4787 51.0744 64.0324C50.8552 63.8093 50.7377 63.5118 50.7377 63.1986C50.7417 62.8855 50.8669 62.5919 51.0901 62.3727L55.674 57.871C55.8971 57.6557 56.1868 57.5382 56.496 57.5382Z" fill="#FF4D40"/>
</svg>
