<svg width="250" height="250" viewBox="0 0 250 250" fill="none" xmlns="http://www.w3.org/2000/svg">
<path d="M176.548 196.368C172.226 196.368 168.168 194.684 165.115 191.632C162.066 188.579 160.386 184.519 160.386 180.206C160.386 178.024 160.813 175.904 161.655 173.912C162.469 171.985 163.632 170.255 165.115 168.772C166.598 167.289 168.324 166.126 170.25 165.312C172.247 164.47 174.363 164.043 176.544 164.043C176.544 164.043 176.544 164.043 176.548 164.043C180.862 164.043 184.921 165.723 187.974 168.772C191.027 171.825 192.711 175.888 192.711 180.206C192.711 184.519 191.027 188.579 187.974 191.632C184.921 194.684 180.862 196.368 176.548 196.368ZM176.548 166.508C168.993 166.508 162.851 172.651 162.851 180.206C162.863 187.745 169.009 193.892 176.548 193.904C180.201 193.904 183.64 192.478 186.232 189.89C188.82 187.297 190.246 183.858 190.246 180.206C190.246 176.545 188.82 173.107 186.232 170.518C183.644 167.93 180.205 166.508 176.548 166.508Z" fill="#141517"/>
<path d="M184.56 178.821C183.935 178.821 183.409 178.352 183.336 177.732C183.019 175.176 182.033 174.207 181.207 173.648C180.168 172.962 178.931 172.86 178.29 172.86H178.265C177.879 172.86 177.595 172.892 177.493 172.909H177.472C177.468 172.913 177.468 172.913 177.468 172.913C176.806 173.032 176.153 172.577 176.034 171.919C175.911 171.249 176.359 170.609 177.028 170.485C177.147 170.464 177.6 170.395 178.265 170.395C179.9 170.399 181.346 170.801 182.554 171.586C184.35 172.74 185.496 174.823 185.783 177.449C185.861 178.123 185.377 178.735 184.698 178.813C184.65 178.821 184.605 178.821 184.56 178.821Z" fill="#FF4D40"/>
<path d="M176.6 104.852H87.2169C86.539 104.852 85.9844 104.301 85.9844 103.619C85.9844 102.941 86.539 102.387 87.2169 102.387H176.6C177.282 102.387 177.833 102.941 177.833 103.619C177.833 104.301 177.282 104.852 176.6 104.852Z" fill="#FF4D40"/>
<path d="M176.6 113.792H87.2169C86.539 113.792 85.9844 113.238 85.9844 112.56C85.9844 111.878 86.539 111.327 87.2169 111.327H176.6C177.282 111.327 177.833 111.878 177.833 112.56C177.833 113.238 177.282 113.792 176.6 113.792Z" fill="#FF4D40"/>
<path d="M176.6 122.728H87.2169C86.539 122.728 85.9844 122.177 85.9844 121.495C85.9844 120.817 86.539 120.263 87.2169 120.263H176.6C177.282 120.263 177.833 120.817 177.833 121.495C177.833 122.177 177.282 122.728 176.6 122.728Z" fill="#141517"/>
<path d="M176.6 131.668H87.2169C86.539 131.668 85.9844 131.114 85.9844 130.436C85.9844 129.754 86.539 129.203 87.2169 129.203H176.6C177.282 129.203 177.833 129.754 177.833 130.436C177.833 131.114 177.282 131.668 176.6 131.668Z" fill="#141517"/>
<path d="M176.6 140.605H87.2169C86.539 140.605 85.9844 140.054 85.9844 139.372C85.9844 138.694 86.539 138.14 87.2169 138.14H176.6C177.282 138.14 177.833 138.694 177.833 139.372C177.833 140.054 177.282 140.605 176.6 140.605Z" fill="#FF4D40"/>
<path d="M176.6 149.544H87.2169C86.539 149.544 85.9844 148.99 85.9844 148.312C85.9844 147.634 86.539 147.079 87.2169 147.079H176.6C177.282 147.079 177.833 147.634 177.833 148.312C177.833 148.99 177.282 149.544 176.6 149.544Z" fill="#141517"/>
<path d="M176.6 158.485H87.2169C86.539 158.485 85.9844 157.93 85.9844 157.252C85.9844 156.57 86.539 156.02 87.2169 156.02H176.6C177.282 156.02 177.833 156.57 177.833 157.252C177.833 157.93 177.282 158.485 176.6 158.485Z" fill="#141517"/>
<path d="M43.7169 156.832C43.039 156.832 42.4844 156.277 42.4844 155.6V91.9025C42.4844 91.2205 43.039 90.6699 43.7169 90.6699C44.3948 90.6699 44.9494 91.2205 44.9494 91.9025V155.6C44.9494 156.277 44.3948 156.832 43.7169 156.832Z" fill="#FF4D40"/>
<path d="M43.7184 180.995C43.2459 180.995 42.8063 180.716 42.605 180.288L35.4316 165.169C35.3536 165.005 35.3125 164.82 35.3125 164.639V149.29C35.3125 148.613 35.8671 148.058 36.545 148.058C37.2229 148.058 37.7776 148.613 37.7776 149.29V164.36L43.7184 176.887L49.6716 164.364V85.2639H37.7776V132.856C37.7776 133.534 37.227 134.089 36.545 134.089C35.8671 134.089 35.3125 133.534 35.3125 132.856V84.0314C35.3125 83.7068 35.444 83.3904 35.674 83.1604C35.9041 82.9303 36.2205 82.7988 36.545 82.7988H50.9041C51.2287 82.7988 51.5491 82.9303 51.7751 83.1604C52.0052 83.3904 52.1366 83.7068 52.1366 84.0314V164.639C52.1366 164.82 52.0955 165.009 52.0175 165.169L44.8318 180.292C44.6264 180.716 44.1909 180.995 43.7184 180.995ZM36.545 142.306C35.8671 142.306 35.3125 141.751 35.3125 141.073C35.3125 140.396 35.8671 139.841 36.545 139.841C37.2229 139.841 37.7776 140.396 37.7776 141.073C37.7776 141.751 37.2229 142.306 36.545 142.306Z" fill="#FF4D40"/>
<path d="M50.9041 85.2635H36.545C36.2205 85.2635 35.9041 85.132 35.674 84.902C35.444 84.6719 35.3125 84.3555 35.3125 84.031V78.0861C35.3125 77.7656 35.444 77.4451 35.674 77.2151C35.9041 76.985 36.2205 76.8535 36.545 76.8535H50.9041C51.2287 76.8535 51.5491 76.985 51.7751 77.2151C52.0052 77.4451 52.1366 77.7656 52.1366 78.0861V84.031C52.1366 84.3555 52.0052 84.6719 51.7751 84.902C51.5491 85.132 51.2287 85.2635 50.9041 85.2635ZM37.7776 82.7984H49.6716V79.3227H37.7776V82.7984Z" fill="#FF4D40"/>
<path d="M50.9041 79.3188H36.545C36.2205 79.3188 35.9041 79.1873 35.674 78.9613C35.444 78.7313 35.3125 78.4149 35.3125 78.0862V65.2268C35.3166 64.4462 35.6206 63.7108 36.1712 63.1643C36.7217 62.6138 37.453 62.3098 38.2336 62.3057H48.3034C50.4111 62.3139 52.1325 64.0353 52.1366 66.143V78.0862C52.1366 78.4108 52.0052 78.7313 51.7792 78.9613C51.5491 79.1873 51.2287 79.3188 50.9041 79.3188ZM37.7776 76.8578H49.6716V66.143C49.6716 65.3993 49.043 64.7707 48.3034 64.7707H38.2336C37.9953 64.7707 37.7776 64.9885 37.7776 65.2268V76.8578Z" fill="#FF4D40"/>
<path d="M43.7184 180.995C43.2459 180.995 42.8063 180.715 42.605 180.288L35.4316 165.169C35.3536 165.005 35.3125 164.819 35.3125 164.639V156.401C35.3125 156.077 35.444 155.756 35.674 155.526C35.9041 155.3 36.2205 155.169 36.545 155.169H50.9041C51.2328 155.169 51.5491 155.3 51.7751 155.53C52.0052 155.756 52.1366 156.077 52.1366 156.401V164.639C52.1366 164.819 52.0955 165.008 52.0175 165.169L44.8318 180.292C44.6264 180.715 44.1909 180.995 43.7184 180.995ZM37.7776 164.364L43.7184 176.886L49.6716 164.36V157.634H37.7776V164.364Z" fill="#FF4D40"/>
<path d="M140.417 204.951C139.739 204.951 139.184 204.4 139.184 203.718C139.184 203.041 139.739 202.486 140.417 202.486H166.683V192.999C164.772 191.524 163.186 189.61 162.102 187.453C160.964 185.193 160.388 182.753 160.388 180.205C160.388 178.024 160.816 175.904 161.658 173.912C162.471 171.985 163.635 170.255 165.117 168.772C166.6 167.289 168.33 166.126 170.257 165.312C172.25 164.47 174.365 164.043 176.547 164.043C180.865 164.043 184.925 165.723 187.977 168.772C191.03 171.825 192.714 175.887 192.714 180.205C192.714 182.753 192.135 185.193 190.996 187.457C189.912 189.61 188.33 191.532 186.416 193.011V202.486H202.159V169.219C202.159 168.542 202.71 167.987 203.392 167.987C204.07 167.987 204.624 168.542 204.624 169.219V203.718C204.624 204.047 204.493 204.359 204.263 204.589C204.029 204.823 203.72 204.951 203.392 204.951H185.183C184.858 204.951 184.542 204.82 184.312 204.589C184.082 204.359 183.95 204.043 183.95 203.718V192.396C183.95 191.997 184.144 191.623 184.469 191.389C188.088 188.805 190.249 184.626 190.249 180.206C190.249 176.545 188.823 173.106 186.235 170.518C183.646 167.934 180.208 166.508 176.551 166.508C168.996 166.508 162.854 172.65 162.854 180.206C162.854 184.631 165.015 188.805 168.63 191.377C168.955 191.607 169.148 191.981 169.148 192.379V203.718C169.148 204.047 169.02 204.359 168.791 204.589C168.557 204.823 168.248 204.951 167.916 204.951H140.417ZM132.2 204.951C131.522 204.951 130.967 204.396 130.967 203.718C130.967 203.041 131.522 202.486 132.2 202.486C132.878 202.486 133.433 203.041 133.433 203.718C133.433 204.396 132.878 204.951 132.2 204.951ZM123.983 204.951H60.4298C60.1052 204.951 59.7889 204.82 59.5588 204.589C59.3287 204.363 59.1973 204.043 59.1973 203.718V123.476C59.1973 122.798 59.7519 122.244 60.4298 122.244C61.1077 122.244 61.6623 122.798 61.6623 123.476V202.486H123.983C124.665 202.486 125.216 203.041 125.216 203.718C125.216 204.396 124.665 204.951 123.983 204.951ZM203.392 162.235C202.71 162.235 202.159 161.684 202.159 161.002C202.159 160.325 202.71 159.77 203.392 159.77C204.07 159.77 204.624 160.325 204.624 161.002C204.624 161.685 204.07 162.235 203.392 162.235ZM203.392 154.018C202.71 154.018 202.159 153.468 202.159 152.786V76.3522L165.462 39.6555H152.04C151.358 39.6555 150.807 39.105 150.807 38.423C150.807 37.7451 151.358 37.1904 152.04 37.1904H165.976C166.3 37.1904 166.617 37.3219 166.847 37.552L204.262 74.9718C204.492 75.2019 204.624 75.5141 204.624 75.8428V152.786C204.624 153.468 204.07 154.018 203.392 154.018ZM60.4298 116.492C59.7519 116.492 59.1973 115.941 59.1973 115.259C59.1973 114.581 59.7519 114.027 60.4298 114.027C61.1077 114.027 61.6623 114.581 61.6623 115.259C61.6623 115.941 61.1077 116.492 60.4298 116.492ZM60.4298 108.275C59.7519 108.275 59.1973 107.724 59.1973 107.042V38.423C59.1973 38.0984 59.3287 37.782 59.5588 37.552C59.7889 37.3219 60.1052 37.1904 60.4298 37.1904H135.606C136.284 37.1904 136.839 37.7451 136.839 38.423C136.839 39.105 136.284 39.6555 135.606 39.6555H61.6623V107.042C61.6623 107.724 61.1077 108.275 60.4298 108.275ZM143.823 39.6555C143.141 39.6555 142.591 39.105 142.591 38.423C142.591 37.7451 143.141 37.1904 143.823 37.1904C144.501 37.1904 145.056 37.7451 145.056 38.423C145.056 39.105 144.501 39.6555 143.823 39.6555Z" fill="#141517"/>
<path d="M203.388 77.0752H165.973C165.648 77.0752 165.328 76.9437 165.098 76.7137C164.872 76.4836 164.74 76.1672 164.74 75.8427V38.4229C164.74 37.9258 165.036 37.4779 165.501 37.2848C165.953 37.0959 166.495 37.2068 166.844 37.5519L204.26 74.9676C204.613 75.325 204.72 75.8509 204.527 76.311C204.333 76.7753 203.889 77.0752 203.388 77.0752ZM167.201 74.6101H200.414L167.201 41.4015V74.6101Z" fill="#141517"/>
<path d="M144.021 64.4288H82.8786C82.1966 64.4288 81.646 63.8741 81.646 63.1963C81.646 62.5142 82.1966 61.9637 82.8786 61.9637H142.784V51.0188H76.0051V54.8643C76.0051 55.5463 75.4505 56.0968 74.7726 56.0968C74.0947 56.0968 73.54 55.5463 73.54 54.8643V49.7862C73.54 49.4617 73.6715 49.1453 73.9016 48.9153C74.1317 48.6852 74.448 48.5537 74.7726 48.5537H144.021C144.341 48.5537 144.662 48.6852 144.892 48.9153C145.122 49.1453 145.249 49.4617 145.249 49.7862V63.1963C145.249 63.5249 145.121 63.8331 144.892 64.0672C144.657 64.2973 144.349 64.4288 144.021 64.4288ZM74.7726 64.3137C74.0947 64.3137 73.54 63.7632 73.54 63.0812C73.54 62.4033 74.0947 61.8487 74.7726 61.8487C75.4505 61.8487 76.0051 62.4033 76.0051 63.0812C76.0051 63.7632 75.4505 64.3137 74.7726 64.3137Z" fill="#FF4D40"/>
<path d="M214.105 148.924C213.427 148.924 212.873 148.369 212.873 147.691V46.8039H173.123C172.441 46.8039 171.887 46.2534 171.887 45.5714C171.887 44.8935 172.441 44.3389 173.123 44.3389H214.105C214.43 44.3389 214.746 44.4703 214.976 44.7004C215.206 44.9305 215.338 45.2468 215.338 45.5714V147.683C215.338 147.687 215.338 147.687 215.338 147.692C215.338 148.369 214.783 148.924 214.105 148.924Z" fill="#141517"/>
<path d="M137.949 211.808H53.4181C53.0935 211.808 52.7772 211.677 52.5471 211.447C52.317 211.217 52.1855 210.9 52.1855 210.576V176.118C52.1855 175.437 52.7402 174.886 53.4181 174.886C54.1001 174.886 54.6506 175.437 54.6506 176.118V209.343H137.95C138.632 209.343 139.182 209.898 139.182 210.576C139.182 211.254 138.632 211.808 137.949 211.808Z" fill="#141517"/>
<path d="M210.384 211.808H198.893C198.211 211.808 197.66 211.254 197.66 210.576C197.66 209.898 198.211 209.343 198.893 209.343H209.152V176.118C209.152 175.437 209.702 174.886 210.384 174.886C211.062 174.886 211.617 175.437 211.617 176.118V210.576C211.617 210.905 211.489 211.213 211.255 211.447C211.021 211.681 210.713 211.808 210.384 211.808Z" fill="#141517"/>
<path d="M185.18 211.91C184.909 211.91 184.642 211.816 184.424 211.647L177.107 205.961L168.602 211.697C168.233 211.947 167.731 211.976 167.333 211.762C166.93 211.548 166.68 211.134 166.68 210.677V192.378C166.68 191.923 166.943 191.495 167.349 191.286C167.752 191.076 168.261 191.113 168.631 191.376C170.944 193.028 173.685 193.903 176.548 193.903C179.408 193.903 182.144 193.032 184.469 191.388C184.835 191.125 185.344 191.089 185.747 191.298C186.157 191.512 186.412 191.931 186.412 192.395V210.677C186.412 211.15 186.149 211.574 185.722 211.783C185.554 211.865 185.369 211.91 185.18 211.91ZM169.145 194.572V208.357L176.466 203.418C176.898 203.13 177.502 203.151 177.913 203.467L183.948 208.155V194.581C181.676 195.751 179.12 196.368 176.552 196.368H176.544C173.973 196.368 171.417 195.748 169.145 194.572Z" fill="#FF4D40"/>
</svg>
