<svg width="250" height="250" viewBox="0 0 250 250" fill="none" xmlns="http://www.w3.org/2000/svg">
<path d="M124.368 119.9C118.151 119.9 113.093 114.82 113.093 108.577C113.093 102.335 118.151 97.2578 124.368 97.2578C130.58 97.2578 135.634 102.335 135.634 108.577C135.634 114.82 130.58 119.9 124.368 119.9ZM124.368 99.5621C119.416 99.5621 115.388 103.606 115.388 108.577C115.388 113.55 119.416 117.595 124.368 117.595C129.315 117.595 133.339 113.549 133.339 108.577C133.339 103.606 129.315 99.5621 124.368 99.5621Z" fill="#FF4D40"/>
<path d="M160.476 175.405H146.575C146.22 175.405 145.885 175.24 145.668 174.959C145.451 174.677 145.375 174.31 145.464 173.965C145.652 173.233 145.747 172.464 145.747 171.678C145.747 167.242 146.089 163.164 146.792 159.213C146.889 158.663 147.365 158.263 147.921 158.263H160.476C161.11 158.263 161.623 158.779 161.623 159.415V174.253C161.624 174.889 161.11 175.405 160.476 175.405ZM147.957 173.101H159.329V160.567H148.89C148.32 164.089 148.042 167.735 148.042 171.678C148.042 172.157 148.014 172.632 147.957 173.101ZM102.16 175.405C102.158 175.405 102.155 175.405 102.153 175.405H82.8402C82.7342 175.405 82.6291 175.391 82.5273 175.362L56.483 167.945C55.9892 167.804 55.6484 167.352 55.6484 166.836C55.6484 166.321 55.9892 165.868 56.4826 165.728L82.5266 158.306C82.6287 158.277 82.7339 158.263 82.8398 158.263H100.806C101.363 158.263 101.84 158.664 101.937 159.215C102.639 163.221 102.98 167.298 102.98 171.678C102.98 172.419 103.066 173.147 103.234 173.845C103.282 173.972 103.308 174.11 103.308 174.253C103.308 174.889 102.794 175.405 102.16 175.405ZM82.9997 173.101H100.771C100.714 172.632 100.685 172.157 100.685 171.678C100.685 167.781 100.407 164.135 99.8356 160.567H82.9989L61.0002 166.836L82.9997 173.101Z" fill="#FF4D40"/>
<path d="M166.191 175.405H160.478C159.844 175.405 159.33 174.889 159.33 174.253V159.415C159.33 158.779 159.844 158.263 160.478 158.263H166.191C166.825 158.263 167.339 158.779 167.339 159.415V174.253C167.339 174.889 166.825 175.405 166.191 175.405ZM161.624 173.101H165.043V160.567H161.624V173.101Z" fill="#FF4D40"/>
<path d="M173.197 175.405H166.191C165.558 175.405 165.044 174.889 165.044 174.253V159.415C165.044 158.779 165.558 158.263 166.191 158.263H173.197C177.698 158.263 181.359 161.936 181.359 166.45V167.218C181.359 171.732 177.698 175.405 173.197 175.405ZM167.339 173.101H173.197C176.432 173.101 179.064 170.462 179.064 167.219V166.451C179.064 163.207 176.432 160.568 173.197 160.568H167.339V173.101Z" fill="#FF4D40"/>
<path d="M82.9775 175.409C82.3438 175.409 81.8301 174.894 81.8301 174.257V159.414C81.8301 158.778 82.3438 158.262 82.9775 158.262C83.6113 158.262 84.125 158.778 84.125 159.414V174.257C84.125 174.894 83.6113 175.409 82.9775 175.409Z" fill="#FF4D40"/>
<path d="M160.477 170.127H146.942C146.309 170.127 145.795 169.612 145.795 168.975C145.795 168.339 146.309 167.823 146.942 167.823H160.477C161.11 167.823 161.624 168.339 161.624 168.975C161.624 169.612 161.11 170.127 160.477 170.127ZM101.787 170.127H82.9775C82.3438 170.127 81.8301 169.612 81.8301 168.975C81.8301 168.339 82.3438 167.823 82.9775 167.823H101.787C102.421 167.823 102.935 168.339 102.935 168.975C102.935 169.612 102.421 170.127 101.787 170.127Z" fill="#FF4D40"/>
<path d="M160.477 165.57H147.243C146.61 165.57 146.096 165.054 146.096 164.418C146.096 163.781 146.61 163.266 147.243 163.266H160.477C161.11 163.266 161.624 163.781 161.624 164.418C161.624 165.054 161.11 165.57 160.477 165.57ZM101.485 165.57H82.9775C82.3438 165.57 81.8301 165.054 81.8301 164.418C81.8301 163.781 82.3438 163.266 82.9775 163.266H101.485C102.119 163.266 102.632 163.781 102.632 164.418C102.632 165.054 102.119 165.57 101.485 165.57Z" fill="#FF4D40"/>
<path d="M83.7738 133.103H51.1465C50.5127 133.103 49.999 132.587 49.999 131.95C49.999 131.314 50.5127 130.798 51.1465 130.798H83.7738C84.4075 130.798 84.9212 131.314 84.9212 131.95C84.9212 132.587 84.4075 133.103 83.7738 133.103Z" fill="#141517"/>
<path d="M197.582 133.103H163.947C163.313 133.103 162.8 132.587 162.8 131.95C162.8 131.314 163.313 130.798 163.947 130.798H197.582C198.216 130.798 198.73 131.314 198.73 131.95C198.73 132.587 198.216 133.103 197.582 133.103Z" fill="#141517"/>
<path d="M197.582 153.44H149.634C149.27 153.44 148.929 153.267 148.712 152.974C148.496 152.681 148.431 152.302 148.536 151.953C150.274 146.202 152.629 141.346 154.906 136.649C156.616 133.124 158.23 129.794 159.604 126.115C159.771 125.665 160.2 125.367 160.678 125.367H197.582C198.215 125.367 198.729 125.883 198.729 126.52V152.288C198.729 152.924 198.216 153.44 197.582 153.44ZM151.202 151.136H196.435V127.672H161.468C160.115 131.172 158.517 134.466 156.97 137.658C154.933 141.858 152.834 146.188 151.202 151.136ZM99.1039 153.44H51.1465C50.5127 153.44 49.999 152.924 49.999 152.288V126.52C49.999 125.883 50.5127 125.367 51.1465 125.367H88.0507C88.5292 125.367 88.9576 125.665 89.1251 126.115C90.5021 129.806 92.1212 133.144 93.8359 136.679C96.1097 141.366 98.4609 146.212 100.201 151.952C100.307 152.301 100.242 152.68 100.026 152.974C99.8092 153.267 99.4676 153.44 99.1039 153.44ZM52.2939 151.136H97.5345C95.9017 146.199 93.806 141.878 91.7731 137.688C90.2202 134.487 88.618 131.184 87.2605 127.672H52.2939V151.136Z" fill="#141517"/>
<path d="M61.1465 153.44C60.5127 153.44 59.999 152.924 59.999 152.287V141.293C59.999 140.656 60.5127 140.141 61.1465 140.141C61.7803 140.141 62.2939 140.656 62.2939 141.293V152.287C62.2939 152.924 61.7799 153.44 61.1465 153.44Z" fill="#141517"/>
<path d="M69.7617 153.439C69.1279 153.439 68.6143 152.923 68.6143 152.287V136.492C68.6143 135.856 69.1279 135.34 69.7617 135.34C70.3955 135.34 70.9092 135.856 70.9092 136.492V152.287C70.9092 152.923 70.3955 153.439 69.7617 153.439Z" fill="#141517"/>
<path d="M78.0703 153.44C77.4365 153.44 76.9229 152.924 76.9229 152.287V141.293C76.9229 140.656 77.4365 140.141 78.0703 140.141C78.7041 140.141 79.2178 140.656 79.2178 141.293V152.287C79.2178 152.924 78.7041 153.44 78.0703 153.44Z" fill="#141517"/>
<path d="M86.6865 153.439C86.0527 153.439 85.5391 152.923 85.5391 152.287V136.492C85.5391 135.856 86.0527 135.34 86.6865 135.34C87.3203 135.34 87.834 135.856 87.834 136.492V152.287C87.834 152.923 87.3203 153.439 86.6865 153.439Z" fill="#141517"/>
<path d="M162.676 153.44C162.042 153.44 161.528 152.924 161.528 152.287V141.293C161.528 140.656 162.042 140.141 162.676 140.141C163.31 140.141 163.823 140.656 163.823 141.293V152.287C163.823 152.924 163.31 153.44 162.676 153.44Z" fill="#141517"/>
<path d="M171.291 153.439C170.658 153.439 170.144 152.923 170.144 152.287V136.492C170.144 135.856 170.658 135.34 171.291 135.34C171.925 135.34 172.438 135.856 172.438 136.492V152.287C172.438 152.923 171.925 153.439 171.291 153.439Z" fill="#141517"/>
<path d="M179.597 153.44C178.963 153.44 178.449 152.924 178.449 152.287V141.293C178.449 140.656 178.963 140.141 179.597 140.141C180.23 140.141 180.744 140.656 180.744 141.293V152.287C180.744 152.924 180.231 153.44 179.597 153.44Z" fill="#141517"/>
<path d="M188.216 153.439C187.582 153.439 187.068 152.923 187.068 152.287V136.492C187.068 135.856 187.582 135.34 188.216 135.34C188.85 135.34 189.363 135.856 189.363 136.492V152.287C189.363 152.923 188.85 153.439 188.216 153.439Z" fill="#141517"/>
<path d="M136.293 183.485H112.447C105.962 183.485 100.687 178.189 100.687 171.679C100.687 170.506 100.661 169.338 100.61 168.206C100.581 167.571 101.071 167.031 101.704 167.003C102.335 166.974 102.873 167.466 102.902 168.101C102.955 169.268 102.982 170.471 102.982 171.679C102.982 176.918 107.228 181.18 112.447 181.18H136.293C141.507 181.18 145.749 176.918 145.749 171.679C145.749 155.54 150.398 145.952 154.895 136.681C159.111 127.988 163.094 119.777 163.094 106.587C163.094 85.1416 145.723 67.6943 124.371 67.6943C103.013 67.6943 85.6377 85.1416 85.6377 106.587C85.6377 119.78 89.6202 127.991 93.8367 136.684C95.7063 140.539 97.6394 144.525 99.2297 149.008C99.4424 149.608 99.1307 150.267 98.534 150.481C97.9362 150.693 97.2806 150.381 97.0679 149.782C95.5204 145.42 93.6156 141.492 91.7735 137.693C87.6289 129.148 83.3428 120.311 83.3428 106.587C83.3428 83.8709 101.748 65.3896 124.371 65.3896C146.988 65.3896 165.389 83.8709 165.389 106.587C165.389 120.308 161.104 129.145 156.959 137.69C152.576 146.727 148.044 156.071 148.044 171.679C148.043 178.189 142.772 183.485 136.293 183.485Z" fill="#141517"/>
<path d="M149.476 64.1344C149.281 64.1344 149.084 64.0845 148.903 63.9796C148.354 63.6612 148.166 62.9563 148.483 62.4051L154.693 51.6134C155.01 51.0622 155.713 50.8744 156.261 51.192C156.81 51.5105 156.998 52.2153 156.681 52.7665L150.471 63.5582C150.258 63.9277 149.872 64.1344 149.476 64.1344Z" fill="#141517"/>
<path d="M167.868 82.6011C167.471 82.6011 167.086 82.3944 166.872 82.0245C166.556 81.4733 166.744 80.7685 167.294 80.4504L178.045 74.2197C178.593 73.902 179.296 74.0906 179.612 74.6418C179.929 75.193 179.741 75.8979 179.191 76.2159L168.44 82.4467C168.26 82.5511 168.063 82.6011 167.868 82.6011Z" fill="#141517"/>
<path d="M187.005 107.826H174.598C173.964 107.826 173.45 107.31 173.45 106.674C173.45 106.037 173.964 105.521 174.598 105.521H187.005C187.639 105.521 188.153 106.037 188.153 106.674C188.153 107.31 187.639 107.826 187.005 107.826Z" fill="#141517"/>
<path d="M101.138 64.1342C100.741 64.1342 100.355 63.9276 100.142 63.5577L93.9419 52.766C93.6252 52.2148 93.8133 51.5099 94.3622 51.1919C94.9111 50.8742 95.6129 51.0628 95.9296 51.614L102.131 62.4057C102.447 62.9569 102.259 63.6618 101.71 63.9798C101.53 64.0843 101.332 64.1342 101.138 64.1342Z" fill="#141517"/>
<path d="M82.7469 82.6001C82.5522 82.6001 82.3548 82.5502 82.1739 82.4453L71.4321 76.2146C70.8833 75.8962 70.6955 75.1914 71.0125 74.6405C71.3296 74.0897 72.0315 73.9007 72.58 74.2192L83.3217 80.4499C83.8706 80.7683 84.0584 81.4732 83.7413 82.024C83.529 82.3935 83.1435 82.6001 82.7469 82.6001Z" fill="#141517"/>
<path d="M124.296 54.5927C124.291 54.5927 124.286 54.5927 124.281 54.5927C123.647 54.5847 123.14 54.0619 123.149 53.4254L123.287 42.8039C123.295 42.1724 123.807 41.6665 124.434 41.6665C124.439 41.6665 124.444 41.6665 124.449 41.6665C125.083 41.6746 125.59 42.1974 125.582 42.8338L125.443 53.4554C125.435 54.0868 124.923 54.5927 124.296 54.5927Z" fill="#141517"/>
<path d="M140.759 191.941H107.957C107.323 191.941 106.81 191.425 106.81 190.789V182.332C106.81 181.696 107.323 181.18 107.957 181.18H140.759C141.393 181.18 141.907 181.696 141.907 182.332V190.789C141.907 191.425 141.393 191.941 140.759 191.941ZM109.104 189.636H139.612V183.484H109.104V189.636Z" fill="#141517"/>
<path d="M136.054 200.392H112.675C112.041 200.392 111.527 199.876 111.527 199.24V190.788C111.527 190.151 112.041 189.636 112.675 189.636H136.054C136.688 189.636 137.202 190.151 137.202 190.788V199.24C137.202 199.876 136.688 200.392 136.054 200.392ZM113.822 198.087H134.907V191.94H113.822V198.087Z" fill="#141517"/>
<path d="M131.347 208.848H117.383C116.749 208.848 116.235 208.332 116.235 207.696V199.239C116.235 198.603 116.749 198.087 117.383 198.087H131.347C131.98 198.087 132.494 198.603 132.494 199.239V207.696C132.494 208.332 131.98 208.848 131.347 208.848ZM118.53 206.544H130.199V200.392H118.53V206.544Z" fill="#141517"/>
<path d="M73.2723 107.826H60.8633C60.2295 107.826 59.7158 107.31 59.7158 106.674C59.7158 106.037 60.2295 105.521 60.8633 105.521H73.2723C73.9061 105.521 74.4198 106.037 74.4198 106.674C74.4198 107.31 73.9061 107.826 73.2723 107.826Z" fill="#141517"/>
<path d="M126.392 138.045H122.345C121.778 138.045 121.295 137.628 121.21 137.064L120.16 130.058C119.195 129.868 118.243 129.612 117.315 129.293L112.913 134.834C112.559 135.28 111.933 135.398 111.442 135.114L107.944 133.087C107.452 132.802 107.241 132.198 107.45 131.667L110.032 125.068C109.291 124.42 108.594 123.719 107.948 122.976L101.373 125.569C100.845 125.777 100.243 125.567 99.9597 125.073L97.9367 121.555C97.6525 121.061 97.7711 120.433 98.2156 120.078L103.734 115.664C103.421 114.736 103.169 113.779 102.98 112.804L95.9952 111.754C95.4333 111.67 95.0176 111.186 95.0176 110.615V106.545C95.0176 105.975 95.433 105.49 95.9948 105.405L102.98 104.352C103.169 103.376 103.421 102.42 103.734 101.495L98.2156 97.0816C97.7715 96.7263 97.6529 96.0983 97.9367 95.6043L99.9597 92.0824C100.243 91.588 100.845 91.3775 101.374 91.5857L107.949 94.1831C108.594 93.4398 109.292 92.74 110.033 92.0912L107.45 85.4921C107.243 84.9616 107.452 84.3586 107.944 84.0732L111.442 82.0408C111.934 81.7551 112.56 81.8734 112.914 82.3197L117.317 87.8609C118.244 87.5417 119.196 87.2855 120.162 87.0958L121.211 80.0899C121.296 79.526 121.778 79.1089 122.346 79.1089H126.394C126.961 79.1089 127.444 79.5264 127.529 80.0911L128.342 85.5643C128.435 86.1939 128.004 86.7804 127.377 86.8741C126.75 86.9686 126.166 86.5338 126.073 85.9046L125.406 81.4136H123.335L122.309 88.2585C122.234 88.7567 121.846 89.1485 121.35 89.2257C119.981 89.4393 118.635 89.8015 117.35 90.302C116.882 90.4844 116.351 90.34 116.038 89.9463L111.737 84.533L109.948 85.5724L112.472 92.0209C112.655 92.4899 112.514 93.0246 112.123 93.3403C111.044 94.2115 110.058 95.201 109.193 96.2815C108.879 96.6744 108.347 96.8166 107.879 96.6318L101.454 94.094L100.419 95.8966L105.809 100.208C106.201 100.521 106.345 101.055 106.165 101.524C105.675 102.799 105.318 104.151 105.102 105.544C105.025 106.042 104.635 106.432 104.139 106.507L97.3133 107.536V109.621L104.138 110.647C104.634 110.721 105.025 111.111 105.102 111.609C105.317 112.999 105.675 114.354 106.165 115.635C106.345 116.104 106.201 116.636 105.809 116.95L100.419 121.261L101.454 123.06L107.879 120.526C108.347 120.342 108.879 120.484 109.193 120.876C110.06 121.958 111.045 122.948 112.123 123.818C112.514 124.134 112.656 124.669 112.472 125.138L109.949 131.586L111.737 132.621L116.039 127.207C116.352 126.814 116.883 126.669 117.351 126.851C118.635 127.351 119.981 127.714 121.351 127.927C121.846 128.004 122.235 128.396 122.309 128.894L123.335 135.74H125.406L126.423 128.896C126.497 128.397 126.885 128.004 127.382 127.927C128.749 127.714 130.099 127.351 131.393 126.85C131.861 126.67 132.391 126.814 132.704 127.208L136.996 132.621L138.784 131.585L136.26 125.137C136.077 124.668 136.219 124.134 136.609 123.818C137.682 122.952 138.671 121.961 139.55 120.872C139.865 120.482 140.396 120.343 140.861 120.526L147.278 123.06L148.313 121.26L142.922 116.945C142.53 116.631 142.386 116.098 142.567 115.628C143.066 114.334 143.426 112.982 143.639 111.609C143.716 111.111 144.106 110.721 144.602 110.646L151.418 109.616V107.536L144.602 106.507C144.106 106.432 143.717 106.042 143.639 105.544C143.426 104.17 143.065 102.818 142.567 101.525C142.386 101.055 142.529 100.521 142.922 100.207L148.313 95.8962L147.278 94.097L140.861 96.6307C140.394 96.8154 139.863 96.6733 139.549 96.2823C138.681 95.2037 137.692 94.2134 136.609 93.3388C136.218 93.0231 136.076 92.4884 136.26 92.0194L138.988 85.0496C139.219 84.4573 139.886 84.1654 140.475 84.3985C141.065 84.6313 141.355 85.3 141.123 85.8923L138.698 92.0897C139.442 92.7396 140.141 93.4402 140.789 94.1823L147.357 91.5888C147.885 91.3798 148.487 91.5911 148.77 92.085L150.794 95.6024C151.078 96.0964 150.96 96.7248 150.515 97.0801L144.998 101.493C145.315 102.425 145.57 103.381 145.759 104.35L152.735 105.403C153.297 105.488 153.712 105.972 153.712 106.543V110.607C153.712 111.177 153.297 111.662 152.735 111.747L145.759 112.801C145.57 113.769 145.315 114.726 144.998 115.658L150.515 120.075C150.959 120.431 151.078 121.059 150.794 121.553L148.77 125.071C148.487 125.564 147.886 125.776 147.357 125.567L140.787 122.972C140.136 123.719 139.437 124.419 138.698 125.066L141.28 131.665C141.488 132.196 141.278 132.799 140.786 133.084L137.288 135.112C136.794 135.397 136.17 135.278 135.816 134.832L131.422 129.29C130.49 129.61 129.535 129.866 128.57 130.056L127.529 137.061C127.443 137.627 126.96 138.045 126.392 138.045Z" fill="#FF4D40"/>
</svg>
