<svg width="250" height="250" viewBox="0 0 250 250" fill="none" xmlns="http://www.w3.org/2000/svg">
<path d="M188.804 210.041H173.485C172.846 210.041 172.328 209.52 172.328 208.877C172.328 208.234 172.846 207.713 173.485 207.713H188.804C192.747 207.713 195.953 204.483 195.953 200.512V193.313H42.1221V200.512C42.1221 204.483 45.3338 207.713 49.2813 207.713H154.202C154.841 207.713 155.359 208.234 155.359 208.877C155.359 209.52 154.841 210.041 154.202 210.041H49.2817C44.0581 210.041 39.8086 205.766 39.8086 200.512V192.148C39.8086 191.505 40.3265 190.984 40.9655 190.984H197.11C197.749 190.984 198.267 191.505 198.267 192.148V200.512C198.267 205.766 194.022 210.041 188.804 210.041Z" fill="#141517"/>
<path d="M185.769 193.313H52.3171C51.6781 193.313 51.1602 192.792 51.1602 192.149V191.961C51.1602 191.318 51.6781 190.796 52.3171 190.796C52.55 190.796 52.7668 190.866 52.9484 190.985H184.613V173.513L167.399 173.514L155.266 181.091C154.91 181.314 154.462 181.324 154.094 181.119C153.727 180.913 153.499 180.524 153.499 180.101V173.869C153.499 173.225 154.017 172.704 154.656 172.704C155.295 172.704 155.813 173.225 155.813 173.869V178.008L166.459 171.36C166.642 171.245 166.853 171.185 167.069 171.185H185.406L185.736 171.174C186.047 171.165 186.351 171.284 186.576 171.504C186.8 171.723 186.927 172.024 186.927 172.339V192.149C186.926 192.792 186.409 193.313 185.769 193.313ZM52.3171 173.718C51.6781 173.718 51.1602 173.197 51.1602 172.554V112.799C51.1602 112.156 51.6781 111.634 52.3171 111.634H185.769C186.408 111.634 186.926 112.156 186.926 112.799V135.428C186.926 136.071 186.408 136.592 185.769 136.592H171.018C168.357 136.592 166.068 138.51 165.575 141.152C165.473 141.702 164.995 142.101 164.438 142.101H152.983C149.929 142.101 147.446 144.599 147.446 147.669V159.99C147.446 160.633 146.928 161.154 146.289 161.154C145.65 161.154 145.132 160.633 145.132 159.99V147.669C145.132 143.314 148.654 139.772 152.983 139.772H163.539C164.566 136.529 167.572 134.263 171.019 134.263H184.613V113.963H53.474V172.554C53.474 173.197 52.9561 173.718 52.3171 173.718Z" fill="#141517"/>
<path d="M178.742 193.313H80.6483C80.0092 193.313 79.4913 192.792 79.4913 192.149C79.4913 191.506 80.0092 190.984 80.6483 190.984H177.585V173.514H167.398L155.266 181.09C154.91 181.314 154.461 181.324 154.093 181.118C153.726 180.913 153.499 180.524 153.499 180.101V173.513H152.982C148.653 173.513 145.131 169.971 145.131 165.616V147.668C145.131 143.314 148.653 139.772 152.982 139.772H153.534C154.173 139.772 154.691 140.293 154.691 140.936C154.691 141.579 154.173 142.1 153.534 142.1H152.982C149.929 142.1 147.445 144.598 147.445 147.668V165.616C147.445 168.686 149.929 171.184 152.982 171.184H154.656C155.295 171.184 155.813 171.706 155.813 172.349V178.008L166.458 171.359C166.642 171.245 166.853 171.184 167.068 171.184H178.742C179.381 171.184 179.899 171.706 179.899 172.349V192.148C179.898 192.792 179.381 193.313 178.742 193.313ZM61.3658 193.313H59.3435C58.7044 193.313 58.1865 192.792 58.1865 192.149V120.284C58.1865 119.641 58.7044 119.12 59.3435 119.12H178.742C179.381 119.12 179.898 119.641 179.898 120.284V135.428C179.898 136.071 179.381 136.592 178.742 136.592H171.018C170.769 136.592 170.518 136.609 170.273 136.643C169.641 136.729 169.057 136.283 168.971 135.646C168.885 135.008 169.329 134.422 169.962 134.335C170.309 134.288 170.663 134.264 171.016 134.263H177.584V121.448H60.5004V190.984H61.3658C62.0048 190.984 62.5228 191.506 62.5228 192.149C62.5228 192.792 62.0048 193.313 61.3658 193.313Z" fill="#141517"/>
<path d="M121.267 150.873H71.2556C70.6166 150.873 70.0986 150.352 70.0986 149.708C70.0986 149.065 70.6166 148.544 71.2556 148.544H121.267C121.906 148.544 122.423 149.065 122.423 149.708C122.423 150.352 121.906 150.873 121.267 150.873Z" fill="#141517"/>
<path d="M121.268 156.491H96.2575C95.6185 156.491 95.1006 155.97 95.1006 155.327C95.1006 154.683 95.6185 154.162 96.2575 154.162H121.268C121.907 154.162 122.425 154.683 122.425 155.327C122.425 155.97 121.907 156.491 121.268 156.491Z" fill="#141517"/>
<path d="M104.114 162.104H71.2556C70.6166 162.104 70.0986 161.583 70.0986 160.94C70.0986 160.297 70.6166 159.775 71.2556 159.775H104.114C104.753 159.775 105.271 160.297 105.271 160.94C105.271 161.583 104.753 162.104 104.114 162.104Z" fill="#141517"/>
<path d="M121.267 167.717H71.2556C70.6166 167.717 70.0986 167.196 70.0986 166.553C70.0986 165.909 70.6166 165.388 71.2556 165.388H121.267C121.906 165.388 122.423 165.909 122.423 166.553C122.423 167.196 121.906 167.717 121.267 167.717Z" fill="#141517"/>
<path d="M121.267 173.336H78.0749C77.4359 173.336 76.918 172.814 76.918 172.171C76.918 171.528 77.4359 171.007 78.0749 171.007H121.267C121.906 171.007 122.424 171.528 122.424 172.171C122.424 172.814 121.906 173.336 121.267 173.336Z" fill="#141517"/>
<path d="M104.114 178.948H71.2556C70.6166 178.948 70.0986 178.427 70.0986 177.784C70.0986 177.14 70.6166 176.619 71.2556 176.619H104.114C104.753 176.619 105.271 177.14 105.271 177.784C105.271 178.427 104.753 178.948 104.114 178.948Z" fill="#141517"/>
<path d="M121.267 184.566H71.2556C70.6166 184.566 70.0986 184.045 70.0986 183.402C70.0986 182.759 70.6166 182.237 71.2556 182.237H121.267C121.906 182.237 122.423 182.759 122.423 183.402C122.423 184.045 121.906 184.566 121.267 184.566Z" fill="#141517"/>
<path d="M117.848 89.8685C106.898 89.8685 97.9902 80.9006 97.9902 69.8771C97.9902 58.8536 106.898 49.8857 117.848 49.8857C128.803 49.8857 137.716 58.8536 137.716 69.8771C137.716 80.9006 128.803 89.8685 117.848 89.8685ZM117.848 52.215C108.174 52.215 100.304 60.1384 100.304 69.8775C100.304 79.6166 108.174 87.5401 117.848 87.5401C127.527 87.5401 135.402 79.6166 135.402 69.8775C135.402 60.1384 127.527 52.215 117.848 52.215Z" fill="#FF4D40"/>
<path d="M135.343 66.287C129.897 66.287 124.816 64.1091 121.037 60.1548C120.612 59.71 120.606 59.0086 121.022 58.5561C122.658 56.7804 123.891 54.7221 124.688 52.4387C124.796 52.1281 125.03 51.8782 125.331 51.7509C125.633 51.6236 125.974 51.6306 126.27 51.7699C131.634 54.2994 135.572 59.0529 137.076 64.8113C137.165 65.1509 137.096 65.5126 136.89 65.7956C136.684 66.0786 136.362 66.2532 136.014 66.2703C135.785 66.2812 135.57 66.287 135.343 66.287ZM123.461 59.2869C126.474 62.0901 130.29 63.7132 134.386 63.9325C132.953 59.899 130.123 56.5374 126.393 54.4477C125.651 56.1981 124.669 57.8186 123.461 59.2869Z" fill="#FF4D40"/>
<path d="M108.129 66.5747C105.187 66.5747 102.354 65.9428 99.7071 64.6969C99.1687 64.4434 98.9088 63.8208 99.1055 63.2569C101.894 55.2597 109.426 49.8867 117.848 49.8867C120.782 49.8867 123.615 50.5202 126.269 51.77C126.807 52.0234 127.067 52.646 126.871 53.2103C124.082 61.2036 116.55 66.5747 108.129 66.5747ZM101.676 63.0166C103.726 63.8329 105.892 64.2458 108.129 64.2458C115.208 64.2458 121.576 59.9496 124.3 53.4494C122.244 52.6301 120.079 52.2152 117.848 52.2152C110.768 52.2152 104.399 56.5126 101.676 63.0166Z" fill="#FF4D40"/>
<path d="M155.156 113.963H79.8747C79.2357 113.963 78.7178 113.442 78.7178 112.798V105.391C78.7178 104.913 79.0089 104.483 79.4517 104.308L105.325 94.0805C105.746 93.9144 106.224 94.0098 106.549 94.3246L117.117 104.546L128.501 94.2963C128.826 94.0036 129.287 93.919 129.695 94.0801L155.579 104.307C156.021 104.482 156.313 104.912 156.313 105.391V112.798C156.313 113.441 155.795 113.963 155.156 113.963ZM81.0317 111.634H153.999V106.185L129.513 96.5102L117.861 107.002C117.41 107.408 116.724 107.396 116.288 106.974L105.481 96.5207L81.032 106.185V111.634H81.0317Z" fill="#FF4D40"/>
<path d="M129.959 109.694H105.063C104.746 109.694 104.443 109.562 104.224 109.331C104.006 109.1 103.892 108.788 103.908 108.469L104.593 95.1035C104.627 94.4611 105.172 93.9709 105.809 94.0008C106.447 94.0338 106.937 94.5815 106.904 95.2238L106.281 107.365H128.762L128.356 95.2976C128.334 94.6548 128.834 94.1165 129.472 94.0944C130.099 94.0621 130.646 94.5756 130.668 95.2184L131.115 108.489C131.126 108.805 131.009 109.111 130.791 109.338C130.573 109.565 130.273 109.694 129.959 109.694Z" fill="#FF4D40"/>
<path d="M121.257 113.963H113.772C113.133 113.963 112.615 113.442 112.615 112.799V108.53C112.615 107.887 113.133 107.366 113.772 107.366H121.256C121.895 107.366 122.413 107.887 122.413 108.53V112.799C122.414 113.442 121.895 113.963 121.257 113.963ZM114.929 111.634H120.1V109.695H114.929V111.634Z" fill="#FF4D40"/>
<path d="M117.38 107.022H116.808C116.509 107.022 116.222 106.905 116.006 106.697L108.054 99.0023C107.828 98.783 107.699 98.4794 107.699 98.1627V86.3769C107.699 85.9651 107.916 85.584 108.268 85.3744C108.62 85.1648 109.056 85.1582 109.415 85.3569C111.979 86.7787 114.895 87.5301 117.848 87.5301C120.632 87.5301 123.297 86.8943 125.768 85.6407C126.127 85.4586 126.553 85.4772 126.896 85.6888C127.238 85.9007 127.446 86.276 127.446 86.6805V97.8441C127.446 98.1755 127.306 98.4911 127.06 98.7123L118.151 106.726C117.939 106.916 117.664 107.022 117.38 107.022ZM110.013 97.6667L117.112 104.536L125.131 97.3224V88.4768C122.819 89.3943 120.377 89.8585 117.848 89.8585C115.147 89.8585 112.473 89.3027 110.013 88.24V97.6667H110.013Z" fill="#FF4D40"/>
<path d="M144.833 76.2101H135.842C135.479 76.2101 135.136 76.0385 134.918 75.7467C134.699 75.4548 134.629 75.0764 134.729 74.7251C135.175 73.1586 135.402 71.528 135.402 69.8777C135.402 68.2537 135.178 66.6317 134.738 65.0566C134.639 64.7057 134.71 64.3289 134.929 64.0382C135.148 63.7474 135.489 63.5767 135.851 63.5767H144.833C145.472 63.5767 145.99 64.0979 145.99 64.7411V75.0461C145.99 75.6888 145.472 76.2101 144.833 76.2101ZM137.315 73.8813H143.677V65.9051H137.32C137.583 67.215 137.716 68.5456 137.716 69.8773C137.716 71.2292 137.581 72.5705 137.315 73.8813Z" fill="#FF4D40"/>
<path d="M99.8821 76.2095C99.8794 76.2095 99.877 76.2095 99.8743 76.2095H90.8825C90.2435 76.2095 89.7256 75.6883 89.7256 75.0451V64.7401C89.7256 64.097 90.2435 63.5757 90.8825 63.5757H99.8639C100.226 63.5757 100.567 63.7465 100.786 64.0368C101.005 64.3275 101.076 64.7044 100.978 65.0553C100.537 66.6326 100.314 68.2551 100.314 69.8771C100.314 71.4832 100.529 73.0718 100.952 74.6011C101.008 74.7381 101.039 74.8879 101.039 75.0451C101.039 75.6883 100.521 76.2095 99.8821 76.2095ZM92.0395 73.8807H98.4008C98.1347 72.5696 98.0001 71.2282 98.0001 69.8771C98.0001 68.5462 98.1327 67.2156 98.3958 65.9049H92.0395V73.8807Z" fill="#FF4D40"/>
<path d="M94.2305 65.9052C94.1422 65.9052 94.0528 65.8951 93.9629 65.8734C93.3412 65.7251 92.9564 65.0975 93.1037 64.4722C94.5954 58.1351 97.738 52.3682 101.952 48.233C106.507 43.764 112.003 41.4014 117.847 41.4014C123.779 41.4014 129.312 43.7356 133.846 48.1515C138.081 52.2754 141.195 58.0769 142.614 64.487C142.754 65.1146 142.361 65.7372 141.737 65.8769C141.114 66.0166 140.495 65.6215 140.357 64.9939C137.539 52.2754 128.494 43.7302 117.847 43.7302C107.554 43.7302 98.3045 52.4803 95.3551 65.0086C95.2294 65.5443 94.7546 65.9052 94.2305 65.9052Z" fill="#FF4D40"/>
<path d="M154.656 181.266C154.463 181.266 154.269 181.217 154.094 181.119C153.727 180.913 153.499 180.524 153.499 180.101V173.513H152.982C148.653 173.513 145.132 169.971 145.132 165.616V147.668C145.132 143.314 148.654 139.772 152.982 139.772H164.438C164.782 139.772 165.108 139.926 165.328 140.192C165.547 140.458 165.639 140.808 165.576 141.148C165.52 141.458 165.491 141.789 165.491 142.16V160.108C165.491 163.178 167.971 165.675 171.019 165.675H189.355C189.571 165.675 189.783 165.736 189.966 165.851L192.181 167.238C192.664 167.54 192.857 168.153 192.635 168.681C191.398 171.616 188.561 173.513 185.406 173.513H167.399L155.267 181.09C155.08 181.207 154.868 181.266 154.656 181.266ZM152.982 142.101C149.929 142.101 147.446 144.599 147.446 147.669V165.617C147.446 168.687 149.929 171.185 152.982 171.185H154.656C155.295 171.185 155.813 171.706 155.813 172.349V178.008L166.459 171.36C166.642 171.246 166.853 171.185 167.069 171.185H185.406C187.3 171.185 189.033 170.213 190.044 168.643L189.024 168.005H171.018C166.695 168.005 163.177 164.462 163.177 160.108V142.16C163.177 142.14 163.177 142.121 163.177 142.101H152.982Z" fill="#141517"/>
<path d="M201.768 175.757C201.556 175.757 201.344 175.699 201.158 175.582L189.025 168.004H171.019C166.695 168.004 163.178 164.462 163.178 160.108V142.16C163.178 137.805 166.695 134.263 171.019 134.263H203.441C207.771 134.263 211.292 137.805 211.292 142.16V160.108C211.292 164.462 207.77 168.004 203.441 168.004H202.924V174.593C202.924 175.016 202.697 175.405 202.33 175.611C202.155 175.708 201.961 175.757 201.768 175.757ZM171.019 136.592C167.971 136.592 165.492 139.09 165.492 142.16V160.108C165.492 163.178 167.971 165.675 171.019 165.675H189.355C189.571 165.675 189.782 165.736 189.965 165.85L200.611 172.5V166.84C200.611 166.197 201.129 165.675 201.768 165.675H203.441C206.495 165.675 208.979 163.178 208.979 160.108V142.16C208.979 139.09 206.495 136.592 203.441 136.592H171.019Z" fill="#FF4D40"/>
<path d="M198.482 145.522H175.986C175.347 145.522 174.829 145 174.829 144.357C174.829 143.714 175.347 143.193 175.986 143.193H198.482C199.121 143.193 199.639 143.714 199.639 144.357C199.639 145 199.121 145.522 198.482 145.522Z" fill="#FF4D40"/>
<path d="M198.482 154.697H175.986C175.347 154.697 174.829 154.176 174.829 153.533C174.829 152.889 175.347 152.368 175.986 152.368H198.482C199.121 152.368 199.639 152.889 199.639 153.533C199.639 154.176 199.121 154.697 198.482 154.697Z" fill="#FF4D40"/>
<path d="M119.043 205.129C116.513 205.129 114.455 203.058 114.455 200.512C114.455 197.967 116.513 195.896 119.043 195.896C121.573 195.896 123.63 197.967 123.63 200.512C123.63 203.058 121.573 205.129 119.043 205.129ZM119.043 198.225C117.789 198.225 116.769 199.251 116.769 200.512C116.769 201.774 117.789 202.801 119.043 202.801C120.297 202.801 121.317 201.774 121.317 200.512C121.317 199.251 120.297 198.225 119.043 198.225Z" fill="#141517"/>
</svg>
