<svg width="251" height="250" viewBox="0 0 251 250" fill="none" xmlns="http://www.w3.org/2000/svg">
<path d="M149.807 160.804C142.12 160.804 132.46 158.199 128.335 157.086C127.92 156.974 127.564 156.878 127.276 156.802C126.633 156.634 126.248 155.978 126.417 155.336C126.586 154.694 127.243 154.31 127.886 154.479C128.179 154.555 128.541 154.653 128.963 154.767C132.996 155.855 142.44 158.401 149.807 158.401C158.825 158.401 158.825 154.605 158.825 153.357C158.825 152.987 158.791 152.588 158.725 152.17C157.29 143.069 133.826 138.221 117.439 138.221C114.35 138.221 111.775 138.408 109.993 138.762C101.12 140.516 86.3706 149.004 81.5236 151.793C80.9472 152.125 80.2116 151.928 79.8799 151.353C79.5478 150.778 79.7455 150.043 80.3215 149.712C85.2535 146.874 100.262 138.236 109.524 136.405C111.458 136.022 114.195 135.819 117.439 135.819C117.439 135.819 117.439 135.819 117.439 135.819C130.863 135.819 159.199 139.724 161.103 151.797C161.188 152.338 161.23 152.862 161.23 153.356C161.232 156.754 159.25 160.804 149.807 160.804Z" fill="#141517"/>
<path d="M146.843 182.605C139.899 182.605 134.832 180.979 129.931 179.405C125.455 177.967 121.227 176.61 115.851 176.61C110.866 176.61 105.35 177.813 98.9881 180.288C98.3696 180.529 97.6716 180.224 97.4302 179.606C97.1887 178.987 97.4952 178.291 98.1145 178.05C104.76 175.464 110.562 174.207 115.852 174.207C121.605 174.207 126.213 175.687 130.668 177.118C135.392 178.635 140.277 180.204 146.843 180.204C147.913 180.204 149.014 180.162 150.113 180.079C155.698 179.663 168.549 174.059 180.669 166.755C193.603 158.959 201.96 151.542 201.96 147.857C201.96 147.81 201.959 147.762 201.955 147.716C201.724 144.605 199.218 143.03 194.507 143.03C193.551 143.03 192.554 143.102 191.543 143.242C182.446 144.499 167.288 150.991 160.354 156.6C159.837 157.018 159.079 156.938 158.661 156.423C158.242 155.908 158.322 155.151 158.838 154.733C166.171 148.802 181.602 142.19 191.211 140.862C192.331 140.706 193.44 140.627 194.506 140.627C200.526 140.627 204.024 143.081 204.355 147.535C204.363 147.639 204.366 147.747 204.366 147.857C204.366 154.554 188.664 164.742 181.913 168.811C169.307 176.408 156.305 182.027 150.293 182.475C149.134 182.561 147.973 182.605 146.843 182.605Z" fill="#141517"/>
<path d="M67.0192 204.552C65.1596 204.552 64.5299 202.696 64.3229 202.086C62.5853 197 62.5613 190.521 62.5364 183.661C62.5139 177.573 62.4911 171.277 61.1794 166.037C61.007 165.352 60.814 164.67 60.6275 164.009C60.1053 162.163 59.6123 160.418 59.6123 158.816C59.6123 157.871 59.7816 157.055 60.1297 156.322C61.2175 154.035 66.0044 151.625 71.2372 149.149C71.8698 148.85 72.4289 148.586 72.8738 148.367C73.8485 147.882 75.0109 147.365 76.4372 147.365C78.2406 147.365 79.9798 148.19 81.7551 149.885C86.633 154.565 97.0141 172.524 99.657 178.693C100.629 180.962 101.101 182.827 101.101 184.393C101.101 185.333 100.929 186.189 100.59 186.94C99.4729 189.404 91.6926 193.141 79.9505 198.561C75.7525 200.499 72.1273 202.173 70.4198 203.169C69.0997 203.942 68.0569 204.552 67.0192 204.552ZM76.4368 149.768C75.5319 149.768 74.7084 150.139 73.9423 150.52C73.4847 150.745 72.9139 151.015 72.2673 151.321C69.5281 152.616 63.1132 155.65 62.3033 157.352C62.1116 157.756 62.0186 158.235 62.0186 158.817C62.0186 160.086 62.4678 161.675 62.9435 163.358C63.1348 164.033 63.3326 164.733 63.5139 165.452C64.8965 170.977 64.9202 177.421 64.943 183.652C64.9675 190.309 64.9904 196.596 66.6016 201.312C66.8082 201.92 66.9759 202.106 67.022 202.149C67.4083 202.146 68.3621 201.589 69.2036 201.096C71.0114 200.041 74.6856 198.345 78.9397 196.381C85.4469 193.378 97.5592 187.786 98.3959 185.951C98.5965 185.508 98.6944 184.998 98.6944 184.393C98.6944 183.158 98.2852 181.601 97.4441 179.637C94.5698 172.927 84.3627 155.718 80.0889 151.619C78.7849 150.374 77.59 149.768 76.4368 149.768Z" fill="#FF4D40"/>
<path d="M83.3908 184.9C81.0138 184.9 79.0288 183.127 78.7728 180.776C78.7536 180.608 78.7432 180.429 78.7432 180.252C78.7432 177.889 80.5173 175.914 82.8706 175.659C83.0398 175.639 83.2195 175.629 83.3968 175.629C85.7525 175.629 87.732 177.394 88.002 179.735C88.022 179.913 88.0324 180.092 88.0324 180.267C88.0324 182.622 86.2591 184.601 83.9074 184.871C83.7281 184.89 83.5573 184.9 83.3908 184.9ZM83.3964 178.032C83.3106 178.032 83.2244 178.037 83.1373 178.047C82.001 178.171 81.1498 179.118 81.1498 180.252C81.1498 180.337 81.1546 180.424 81.1647 180.51C81.297 181.729 82.3945 182.62 83.6411 182.485C84.769 182.355 85.6258 181.402 85.6258 180.268C85.6258 180.183 85.621 180.096 85.611 180.009C85.481 178.883 84.5292 178.032 83.3964 178.032Z" fill="#FF4D40"/>
<path d="M174.918 206.061H39.5266C38.8619 206.061 38.3232 205.523 38.3232 204.86C38.3232 204.197 38.8619 203.659 39.5266 203.659H174.918C175.582 203.659 176.121 204.197 176.121 204.86C176.121 205.523 175.583 206.061 174.918 206.061Z" fill="#141517"/>
<path d="M82.7851 141.693C82.3639 141.693 81.9556 141.472 81.7346 141.08C81.4089 140.502 81.615 139.769 82.1946 139.444C83.0502 138.965 103.257 127.673 112.8 125.291C113.83 125.034 115.09 124.904 116.545 124.904C128.137 124.904 150.194 133.005 151.128 133.35C151.751 133.58 152.069 134.271 151.838 134.893C151.607 135.516 150.913 135.832 150.292 135.602C150.067 135.519 127.706 127.306 116.545 127.306C115.287 127.306 114.223 127.412 113.384 127.622C104.153 129.925 83.5797 141.422 83.3731 141.539C83.1866 141.644 82.9844 141.693 82.7851 141.693Z" fill="#141517"/>
<path d="M127.757 119.864H122.404C121.808 119.864 121.302 119.43 121.214 118.841L119.796 109.411C118.37 109.141 116.981 108.769 115.646 108.3L109.689 115.766C109.317 116.231 108.66 116.354 108.144 116.057L103.517 113.38C103.002 113.082 102.783 112.453 103 111.901L106.495 103.023C105.409 102.088 104.391 101.072 103.456 99.9899L94.5558 103.479C94.0014 103.696 93.3717 103.476 93.0737 102.961L90.3975 98.3359C90.0999 97.8211 90.2238 97.1664 90.6899 96.7957L98.1613 90.8522C97.6876 89.4941 97.317 88.1064 97.0539 86.7067L87.6038 85.2978C87.0145 85.2097 86.5781 84.7048 86.5781 84.1099V78.7545C86.5781 78.1595 87.0141 77.6543 87.6038 77.5666L97.0539 76.1573C97.317 74.7584 97.6876 73.3703 98.1613 72.0122L90.6899 66.0687C90.2242 65.6983 90.0999 65.0433 90.3975 64.5285L93.0737 59.9029C93.3717 59.3885 94.0018 59.1691 94.5558 59.3857L103.456 62.8745C104.391 61.7923 105.409 60.7766 106.495 59.8413L103 50.9634C102.783 50.4109 103.002 49.7827 103.517 49.4852L108.144 46.8075C108.659 46.5081 109.317 46.6322 109.689 47.0982L115.646 54.564C116.981 54.0947 118.37 53.7228 119.796 53.4537L121.214 44.023C121.302 43.4352 121.808 43 122.404 43H127.757C128.352 43 128.859 43.4344 128.947 44.0222L130.37 53.4537C131.794 53.7228 133.186 54.0947 134.525 54.5648L140.477 47.0986C140.848 46.633 141.505 46.5089 142.021 46.8071L146.656 49.4848C147.171 49.7827 147.391 50.4113 147.173 50.9642L143.672 59.8421C144.76 60.779 145.777 61.7943 146.706 62.8745L155.61 59.3861C156.163 59.1691 156.793 59.3885 157.091 59.9033L159.769 64.5289C160.067 65.0441 159.943 65.6991 159.476 66.0695L158.76 66.6392C158.24 67.0524 157.483 66.9667 157.069 66.4474C156.68 65.9606 156.732 65.2651 157.17 64.8395L155.526 61.9997L146.777 65.4273C146.288 65.6191 145.731 65.4717 145.401 65.0634C144.244 63.6316 142.923 62.312 141.476 61.1405C141.069 60.8106 140.922 60.2553 141.114 59.7676L144.554 51.0459L141.713 49.4048L135.866 56.74C135.538 57.1516 134.98 57.3025 134.488 57.1119C132.788 56.4525 130.982 55.9689 129.121 55.6746C128.602 55.5929 128.197 55.1849 128.119 54.6673L126.721 45.4018H123.44L122.046 54.6665C121.968 55.1845 121.563 55.5925 121.044 55.6746C119.18 55.9693 117.376 56.4529 115.684 57.1111C115.192 57.3029 114.634 57.152 114.306 56.7404L108.452 49.4048L105.618 51.0451L109.051 59.768C109.244 60.2553 109.097 60.8106 108.689 61.1405C107.246 62.3084 105.923 63.6284 104.758 65.065C104.427 65.4721 103.872 65.6187 103.383 65.4269L94.6392 61.9993L92.9991 64.8343L100.338 70.6722C100.748 70.9985 100.899 71.5518 100.712 72.0406C100.044 73.7823 99.5628 75.5855 99.2812 77.4004C99.2006 77.9197 98.7907 78.3265 98.27 78.4046L88.9844 79.7891V83.0749L98.27 84.4594C98.7907 84.5371 99.2006 84.9439 99.2812 85.4635C99.5628 87.2788 100.044 89.0821 100.712 90.8237C100.899 91.3126 100.748 91.8659 100.338 92.1922L92.9991 98.0301L94.6392 100.865L103.383 97.4375C103.871 97.2457 104.427 97.3927 104.758 97.7994C105.924 99.236 107.246 100.556 108.689 101.723C109.097 102.053 109.244 102.608 109.051 103.096L105.618 111.819L108.452 113.459L114.306 106.124C114.634 105.712 115.192 105.561 115.684 105.753C117.376 106.411 119.179 106.895 121.044 107.19C121.562 107.272 121.968 107.68 122.046 108.198L123.44 117.463H126.721L128.119 108.197C128.197 107.679 128.602 107.271 129.121 107.19C130.981 106.896 132.787 106.412 134.489 105.753C134.98 105.561 135.537 105.713 135.866 106.124L141.713 113.459L144.554 111.818L141.114 103.096C140.922 102.609 141.069 102.053 141.477 101.723C142.922 100.554 144.243 99.234 145.401 97.8014C145.73 97.3931 146.288 97.2453 146.777 97.4375L155.526 100.865L157.166 98.0301L149.823 92.1922C149.413 91.8663 149.261 91.3126 149.448 90.8241C150.121 89.0669 150.604 87.2632 150.883 85.4635C150.963 84.9443 151.373 84.5375 151.894 84.4594L161.18 83.0749V79.7891L156.566 79.1012C155.909 79.0031 155.455 78.3918 155.554 77.7356C155.652 77.0793 156.264 76.6269 156.922 76.725L162.562 77.5662C163.151 77.6543 163.587 78.1591 163.587 78.7541V84.1095C163.587 84.7044 163.151 85.2097 162.562 85.2974L153.11 86.7063C152.848 88.098 152.476 89.4857 151.999 90.8514L159.476 96.7949C159.942 97.1652 160.066 97.8207 159.768 98.3355L157.091 102.961C156.793 103.476 156.163 103.695 155.61 103.478L146.706 99.9899C145.775 101.07 144.759 102.086 143.672 103.022L147.173 111.9C147.391 112.453 147.171 113.082 146.656 113.38L142.021 116.057C141.505 116.355 140.848 116.231 140.476 115.765L134.525 108.3C133.185 108.769 131.794 109.142 130.37 109.41L128.947 118.842C128.859 119.43 128.352 119.864 127.757 119.864ZM125.087 96.304C116.871 96.304 110.187 89.6322 110.187 81.4318C110.187 73.2314 116.871 66.5595 125.087 66.5595C133.299 66.5595 139.98 73.2314 139.98 81.4318C139.98 89.6322 133.299 96.304 125.087 96.304ZM125.087 68.9618C118.198 68.9618 112.594 74.5558 112.594 81.4318C112.594 88.3078 118.198 93.9018 125.087 93.9018C131.972 93.9018 137.573 88.3078 137.573 81.4318C137.573 74.5558 131.972 68.9618 125.087 68.9618Z" fill="#141517"/>
<path d="M188.186 93.7291C187.643 93.7291 187.159 93.3628 187.021 92.8279L185.592 87.2895C184.872 87.2163 184.163 87.103 183.467 86.9504L180.377 91.7633C180.056 92.2634 179.416 92.4535 178.873 92.2117L175.785 90.834C175.242 90.5914 174.958 89.9885 175.117 89.4155L176.655 83.8992C176.074 83.482 175.517 83.0288 174.989 82.5431L169.903 85.176C169.374 85.4502 168.724 85.2961 168.374 84.8148L166.389 82.0803C166.039 81.5986 166.095 80.934 166.52 80.5176L170.61 76.5147C170.317 75.8597 170.062 75.1875 169.847 74.5036L164.122 74.2362C163.527 74.2085 163.042 73.7501 162.982 73.1584L162.639 69.7964C162.579 69.2051 162.961 68.659 163.538 68.512L169.082 67.0955C169.153 66.3833 169.266 65.6734 169.42 64.9715L164.603 61.8911C164.101 61.5708 163.91 60.9326 164.153 60.3901L165.534 57.3028C165.776 56.7595 166.381 56.4768 166.956 56.6354L167.237 56.7138C167.878 56.892 168.252 57.5546 168.073 58.1932C167.976 58.5423 167.734 58.8118 167.43 58.9559L166.772 60.4257L171.441 63.4117C171.883 63.6943 172.091 64.2296 171.954 64.7357C171.656 65.8395 171.476 66.9738 171.418 68.1065C171.392 68.6321 171.025 69.079 170.514 69.2091L165.137 70.582L165.27 71.884L170.82 72.143C171.346 72.1674 171.795 72.5302 171.928 73.0387C172.217 74.1397 172.624 75.2139 173.139 76.2304C173.376 76.6977 173.282 77.2634 172.908 77.6297L168.945 81.5078L169.714 82.5667L174.65 80.012C175.118 79.7685 175.693 79.8602 176.063 80.2374C176.86 81.0485 177.746 81.77 178.697 82.3814C179.139 82.6664 179.345 83.2061 179.204 83.713L177.713 89.0624L178.909 89.5961L181.905 84.9301C182.189 84.4881 182.729 84.2815 183.235 84.4197C184.315 84.7139 185.45 84.8957 186.609 84.9598C187.132 84.9886 187.577 85.3525 187.708 85.8594L189.092 91.2244L190.394 91.0875L190.653 85.5559C190.678 85.0326 191.04 84.5858 191.547 84.4513C192.641 84.161 193.715 83.7506 194.741 83.231C195.209 82.9935 195.777 83.0872 196.144 83.4608L200.032 87.4185L201.094 86.6561L198.537 81.7336C198.294 81.2671 198.384 80.6978 198.757 80.3279C199.577 79.5163 200.302 78.6259 200.911 77.6818C201.196 77.2394 201.738 77.0344 202.245 77.1753L207.599 78.6639L208.133 77.4744L203.463 74.4788C203.022 74.1957 202.815 73.6612 202.952 73.156C203.251 72.0445 203.432 70.9139 203.489 69.7956C203.515 69.2707 203.881 68.8243 204.39 68.6934L209.768 67.3105L209.633 66.0065L204.086 65.7471C203.56 65.7222 203.111 65.3595 202.978 64.851C202.692 63.7608 202.284 62.6922 201.764 61.6757C201.524 61.208 201.617 60.6395 201.993 60.272L205.956 56.3935L205.19 55.335L200.261 57.8789C199.795 58.1188 199.228 58.0311 198.857 57.6611C198.056 56.8616 197.16 56.1357 196.195 55.5043C195.757 55.2177 195.555 54.6807 195.696 54.1771L197.187 48.8385L195.996 48.306L192.999 52.972C192.716 53.414 192.176 53.6206 191.67 53.4824C190.541 53.1749 189.411 52.9936 188.308 52.9431C187.781 52.9187 187.33 52.5536 187.198 52.0427L185.812 46.6741L184.505 46.807L184.246 52.3462C184.221 52.8727 183.855 53.3219 183.344 53.4532C182.258 53.7323 181.189 54.1378 180.167 54.6587C179.699 54.897 179.129 54.8045 178.761 54.4301L174.229 49.8166C173.763 49.343 173.771 48.5823 174.245 48.1178C174.72 47.6538 175.482 47.661 175.947 48.1346L179.876 52.1344C180.532 51.8393 181.203 51.5847 181.882 51.3725L182.15 45.6611C182.178 45.067 182.637 44.5825 183.23 44.5225L186.597 44.1806C187.191 44.1177 187.736 44.5009 187.884 45.0758L189.313 50.609C190.018 50.679 190.728 50.7935 191.439 50.9517L194.529 46.1392C194.85 45.6387 195.491 45.4485 196.034 45.6912L199.116 47.0697C199.659 47.3127 199.943 47.9156 199.783 48.4882L198.245 53.9973C198.829 54.4193 199.389 54.8721 199.917 55.3526L205.005 52.7265C205.535 52.4535 206.185 52.6084 206.534 53.0901L208.514 55.8246C208.863 56.3063 208.807 56.9697 208.381 57.3857L204.294 61.3858C204.589 62.0392 204.845 62.709 205.06 63.3885L210.779 63.6559C211.373 63.6835 211.857 64.14 211.919 64.7305L212.268 68.0944C212.329 68.6854 211.947 69.2315 211.371 69.3796L205.826 70.8058C205.755 71.512 205.642 72.2191 205.487 72.9217L210.306 76.013C210.807 76.3341 210.998 76.9727 210.754 77.5148L209.373 80.5905C209.129 81.133 208.523 81.4157 207.952 81.2563L202.432 79.7217C202.015 80.301 201.56 80.8595 201.071 81.3924L203.711 86.4728C203.986 87.0021 203.83 87.6527 203.345 88.001L200.6 89.972C200.117 90.3184 199.454 90.2611 199.038 89.8379L195.029 85.7573C194.372 86.0524 193.7 86.3094 193.018 86.526L192.75 92.2317C192.722 92.8243 192.265 93.3079 191.674 93.37L188.312 93.7235C188.27 93.7271 188.227 93.7291 188.186 93.7291ZM187.438 78.7832C182.377 78.7832 178.168 74.9893 177.647 69.9582C177.612 69.6179 177.595 69.2747 177.595 68.9376C177.595 63.8841 181.398 59.681 186.442 59.1609H186.442C186.782 59.1261 187.126 59.1085 187.465 59.1085C192.532 59.1085 196.74 62.9084 197.253 67.9479C197.288 68.2838 197.306 68.6277 197.306 68.9669C197.306 74.0136 193.505 78.2115 188.464 78.7312C188.125 78.7656 187.779 78.7832 187.438 78.7832ZM186.689 61.5504C182.876 61.9435 180.001 65.1197 180.001 68.9376C180.001 69.1935 180.014 69.4541 180.041 69.7124C180.434 73.5139 183.614 76.381 187.438 76.381C187.697 76.381 187.959 76.3674 188.216 76.3409C192.026 75.9482 194.899 72.778 194.899 68.9665C194.899 68.7094 194.885 68.4492 194.858 68.1925C194.47 64.3818 191.291 61.5103 187.464 61.5103C187.208 61.5103 186.947 61.5239 186.689 61.5504Z" fill="#FF4D40"/>
</svg>
