<svg width="250" height="250" viewBox="0 0 250 250" fill="none" xmlns="http://www.w3.org/2000/svg">
<path d="M141.193 128.788C140.581 128.788 140.08 128.287 140.08 127.675C140.08 121.081 137.512 114.881 132.848 110.213C128.184 105.549 121.983 102.977 115.386 102.977C114.774 102.977 114.273 102.48 114.273 101.864C114.273 101.252 114.774 100.751 115.386 100.751C119.022 100.751 122.547 101.463 125.868 102.87C129.075 104.224 131.95 106.165 134.425 108.64C136.897 111.111 138.837 113.99 140.192 117.196C141.594 120.517 142.307 124.039 142.307 127.675C142.306 128.287 141.809 128.788 141.193 128.788ZM134.622 128.788C134.006 128.788 133.509 128.287 133.509 127.675C133.504 122.833 131.624 118.283 128.202 114.862C124.777 111.445 120.228 109.564 115.386 109.564C114.773 109.564 114.272 109.063 114.272 108.45C114.272 107.834 114.773 107.337 115.386 107.337C118.131 107.337 120.799 107.872 123.308 108.933C125.731 109.957 127.905 111.423 129.775 113.289C131.642 115.155 133.111 117.33 134.135 119.753C135.196 122.261 135.735 124.925 135.735 127.675C135.735 128.287 135.234 128.788 134.622 128.788Z" fill="#141517"/>
<path d="M115.312 117.846C115.023 117.846 114.748 117.734 114.54 117.534L103.201 106.603C102.986 106.395 102.859 106.102 102.859 105.801C102.859 105.501 102.986 105.207 103.201 105L114.54 94.0794C114.859 93.7751 115.345 93.6861 115.75 93.8568C116.162 94.0349 116.425 94.4356 116.425 94.8846V116.733C116.425 117.182 116.162 117.582 115.75 117.757C115.609 117.816 115.464 117.846 115.312 117.846ZM105.579 105.801L114.199 114.113V97.5006L105.579 105.801Z" fill="#141517"/>
<path d="M120.207 144.284C116.57 144.284 113.049 143.571 109.732 142.169C106.526 140.815 103.646 138.874 101.175 136.403C98.704 133.931 96.7671 131.056 95.409 127.85C94.0064 124.532 93.2939 121.007 93.2939 117.375C93.2939 116.759 93.7949 116.262 94.4071 116.262C95.0231 116.262 95.5203 116.759 95.5203 117.375C95.5203 123.965 98.088 130.165 102.752 134.829C107.416 139.49 113.613 142.057 120.207 142.057C120.819 142.057 121.32 142.559 121.32 143.17C121.32 143.787 120.819 144.284 120.207 144.284ZM120.207 137.712C117.461 137.712 114.797 137.174 112.288 136.113C109.869 135.089 107.695 133.623 105.825 131.753C103.958 129.886 102.492 127.712 101.468 125.289C100.407 122.781 99.8691 120.12 99.8691 117.374C99.8691 116.758 100.366 116.261 100.982 116.261C101.595 116.261 102.095 116.758 102.095 117.374C102.095 122.209 103.98 126.755 107.402 130.18C110.823 133.601 115.372 135.486 120.207 135.486C120.819 135.486 121.32 135.983 121.32 136.599C121.32 137.212 120.819 137.712 120.207 137.712Z" fill="#141517"/>
<path d="M120.288 151.278C120.14 151.278 119.991 151.249 119.854 151.189C119.442 151.015 119.175 150.61 119.175 150.165V128.306C119.175 127.857 119.442 127.456 119.854 127.278C120.258 127.107 120.744 127.197 121.063 127.501L132.403 138.432C132.618 138.64 132.744 138.933 132.744 139.234C132.744 139.534 132.618 139.827 132.403 140.035L121.063 150.967C120.852 151.167 120.577 151.278 120.288 151.278ZM121.401 130.922V147.545L130.025 139.234L121.401 130.922Z" fill="#141517"/>
<path d="M142.822 184.236C142.21 184.236 141.709 183.738 141.709 183.123C141.709 182.511 142.21 182.01 142.822 182.01H180.095C183.753 182.002 186.733 179.022 186.741 175.364V152.841L146.462 112.562H146.458C146.247 112.351 146.132 112.073 146.132 111.772C146.132 111.475 146.247 111.197 146.455 110.985C146.599 110.841 146.781 110.74 146.978 110.692C147.353 110.599 147.757 110.711 148.032 110.985L149.468 112.418L188.64 151.594C188.851 151.802 188.967 152.084 188.967 152.381V175.364C188.963 180.251 184.982 184.232 180.095 184.236H142.822ZM135.401 184.236C134.789 184.236 134.288 183.738 134.288 183.123C134.288 182.511 134.789 182.01 135.401 182.01C136.013 182.01 136.514 182.511 136.514 183.123C136.514 183.738 136.013 184.236 135.401 184.236ZM127.98 184.236H55.8017C50.9111 184.232 46.9334 180.251 46.9297 175.364V129.857C46.9297 129.245 47.4269 128.744 48.0429 128.744C48.6551 128.744 49.156 129.245 49.156 129.857V175.364C49.1597 179.022 52.1431 182.002 55.8017 182.01H127.98C128.592 182.01 129.093 182.511 129.093 183.123C129.093 183.141 129.093 183.163 129.093 183.182C129.06 183.772 128.573 184.236 127.98 184.236ZM187.854 136.703C187.557 136.703 187.278 136.588 187.067 136.377L151.65 100.959L141.056 97.1894L141.535 98.5437C141.635 98.822 141.62 99.1263 141.494 99.3935C141.364 99.6643 141.141 99.8647 140.859 99.9649C140.741 100.009 140.615 100.028 140.488 100.028C140.017 100.028 139.598 99.7311 139.438 99.2896L138.173 95.7274C138.028 95.3267 138.133 94.8703 138.433 94.5697C138.734 94.2692 139.193 94.1653 139.594 94.3063L152.633 98.9482C152.785 99.0039 152.934 99.0966 153.049 99.2079L186.741 132.904V85.8647C186.733 82.206 183.754 79.2264 180.096 79.219H111.397L111.312 79.3675V79.3712C111.049 79.8239 110.47 80.0391 109.976 79.8647C109.973 79.8647 109.969 79.861 109.969 79.861C109.961 79.861 109.958 79.8572 109.95 79.8535C109.939 79.8498 109.924 79.8461 109.913 79.8387C109.909 79.8387 109.906 79.8387 109.906 79.8387C109.869 79.8201 109.839 79.8053 109.806 79.7867L109.791 79.7793C109.531 79.6309 109.349 79.3897 109.271 79.1003C109.193 78.8146 109.234 78.514 109.383 78.258L109.791 77.5493C109.991 77.2042 110.358 76.9927 110.755 76.9927H180.095C184.986 76.9964 188.963 80.9778 188.967 85.8647V135.59C188.967 136.043 188.7 136.448 188.28 136.618C188.143 136.677 188.002 136.703 187.854 136.703ZM48.0429 123.549C47.4269 123.549 46.9297 123.052 46.9297 122.436C46.9297 121.824 47.4269 121.323 48.0429 121.323C48.6551 121.323 49.156 121.824 49.156 122.436C49.156 123.052 48.6551 123.549 48.0429 123.549ZM48.0429 116.128C47.4269 116.128 46.9297 115.631 46.9297 115.015V85.8647C46.9297 80.9741 50.9111 76.9964 55.8017 76.9927H102.83C103.227 76.9927 103.594 77.2042 103.794 77.5493C103.991 77.8906 103.991 78.3174 103.794 78.6624L92.7665 97.7608L96.7851 100.084L101.961 91.1114C102.158 90.7701 102.529 90.5549 102.926 90.5549C103.123 90.5549 103.312 90.6068 103.483 90.7033C103.739 90.8517 103.924 91.0929 104.002 91.3786C104.076 91.668 104.039 91.9686 103.891 92.2246L98.1543 102.158C98.0059 102.418 97.7647 102.603 97.479 102.677C97.1933 102.755 96.889 102.714 96.633 102.566L90.6923 99.1337C90.158 98.8258 89.9762 98.143 90.2842 97.6124L100.9 79.219H55.8017C52.1431 79.2264 49.1597 82.206 49.156 85.8647V115.015C49.156 115.631 48.6551 116.128 48.0429 116.128ZM142.974 107.022C142.507 107.022 142.084 106.726 141.928 106.28C141.828 106.002 141.843 105.698 141.969 105.431C142.099 105.163 142.321 104.959 142.603 104.859C142.722 104.815 142.848 104.796 142.974 104.796C143.446 104.796 143.865 105.093 144.025 105.534C144.229 106.113 143.924 106.752 143.349 106.956C143.227 107 143.101 107.022 142.974 107.022ZM106.637 86.3545C106.44 86.3545 106.247 86.3025 106.08 86.2061C105.549 85.8981 105.364 85.2153 105.672 84.6847C105.872 84.3433 106.24 84.1281 106.637 84.1281C106.83 84.1281 107.023 84.1801 107.193 84.2766C107.724 84.5845 107.906 85.2673 107.601 85.7979C107.401 86.143 107.034 86.3545 106.637 86.3545Z" fill="#141517"/>
<path d="M79.3094 160.173C78.6934 160.173 78.1962 159.672 78.1962 159.059C78.1962 158.443 78.6934 157.946 79.3094 157.946H178.783V144.892L168.749 134.851C168.538 134.643 168.423 134.365 168.423 134.065C168.423 133.768 168.538 133.489 168.749 133.278C169.169 132.859 169.903 132.859 170.323 133.278L180.683 143.645C180.894 143.853 181.009 144.135 181.009 144.432V159.059C181.009 159.356 180.894 159.634 180.683 159.846C180.474 160.053 180.196 160.169 179.896 160.169L79.3094 160.173ZM71.8882 160.169C71.2722 160.169 70.775 159.672 70.775 159.059C70.775 158.443 71.2722 157.946 71.8882 157.946C72.5004 157.946 73.0014 158.443 73.0014 159.059C73.0014 159.672 72.5004 160.169 71.8882 160.169ZM64.467 160.169H55.6952C55.4021 160.169 55.1164 160.05 54.9086 159.846C54.7008 159.638 54.582 159.349 54.582 159.059V85.9906C54.582 85.6975 54.7008 85.4081 54.9086 85.204C55.1164 84.9962 55.4058 84.8774 55.6952 84.8774H98.2853C98.6786 84.8774 99.0497 85.0889 99.2463 85.434C99.4467 85.7754 99.4467 86.2021 99.2463 86.5472L96.5228 91.2634C96.3261 91.6047 95.955 91.8199 95.558 91.8199C95.3651 91.8199 95.1721 91.768 95.0051 91.6678C94.4708 91.3598 94.289 90.6808 94.597 90.1502L96.3558 87.1038H56.8084V157.946H64.467C65.0793 157.946 65.5802 158.443 65.5802 159.059C65.5802 159.664 65.1015 160.154 64.4967 160.169H64.467ZM164.289 129.931C163.992 129.931 163.71 129.816 163.503 129.605C163.068 129.171 163.068 128.466 163.503 128.032C163.922 127.609 164.656 127.612 165.075 128.032C165.51 128.466 165.51 129.171 165.075 129.605C164.864 129.816 164.586 129.931 164.289 129.931ZM179.896 128.744C179.599 128.744 179.321 128.629 179.109 128.417L151.651 100.959L141.057 97.1892L144.827 107.787L149.469 112.417L159.829 122.781C160.263 123.215 160.263 123.924 159.829 124.358C159.41 124.777 158.675 124.777 158.256 124.358L143.076 109.185C142.961 109.07 142.868 108.922 142.812 108.77L138.174 95.7309C138.029 95.3264 138.134 94.87 138.434 94.5695C138.735 94.2689 139.194 94.165 139.595 94.306L152.635 98.948C152.786 98.9999 152.931 99.0927 153.05 99.2077L178.783 124.944V87.1038H106.842L98.1554 102.161C98.007 102.417 97.7658 102.603 97.4801 102.677C97.1944 102.755 96.8901 102.714 96.6341 102.566L96.0812 102.247C95.7361 102.046 95.5209 101.675 95.5246 101.278C95.5246 101.085 95.5766 100.892 95.673 100.725C95.8883 100.354 96.3075 100.139 96.7306 100.172L105.235 85.434C105.436 85.0889 105.803 84.8774 106.2 84.8774H179.896C180.189 84.8774 180.475 84.9962 180.683 85.204C180.89 85.4118 181.009 85.6975 181.009 85.9906V127.631C181.009 128.083 180.742 128.488 180.322 128.659C180.185 128.718 180.044 128.744 179.896 128.744ZM91.8474 98.243C91.6545 98.243 91.4615 98.1947 91.2908 98.0945C91.0348 97.9461 90.8493 97.7049 90.7714 97.4192C90.6971 97.1335 90.7343 96.8329 90.8864 96.5732C91.083 96.2318 91.4541 96.0166 91.8511 96.0166C92.0441 96.0166 92.237 96.0686 92.404 96.1687C92.6638 96.3172 92.8456 96.5546 92.9235 96.8441C93.0014 97.1298 92.9606 97.4303 92.8122 97.6864C92.6155 98.0315 92.2445 98.243 91.8474 98.243Z" fill="#141517"/>
<path d="M140.499 196.848H95.3927C94.9994 196.848 94.6432 196.644 94.4428 196.31C94.2424 195.976 94.2276 195.557 94.4094 195.216L101.044 182.603C101.237 182.24 101.615 182.01 102.031 182.01H133.853C134.269 182.01 134.647 182.239 134.84 182.603L141.486 195.216C141.663 195.557 141.652 195.976 141.452 196.31C141.251 196.64 140.888 196.848 140.499 196.848ZM97.2369 194.622H138.654L133.181 184.236H102.703L97.2369 194.622Z" fill="#141517"/>
<path d="M121.721 203C121.105 203 120.608 202.499 120.608 201.887C120.608 201.271 121.105 200.774 121.721 200.774H159.328V196.848H76.5594V200.774H106.879C107.491 200.774 107.992 201.271 107.992 201.887C107.992 202.496 107.513 202.985 106.905 203C106.897 203 106.886 203 106.879 203H75.4462C75.153 203 74.8636 202.882 74.6595 202.674C74.4517 202.466 74.333 202.18 74.333 201.887V195.735C74.333 195.442 74.4517 195.153 74.6595 194.948C74.8636 194.74 75.153 194.622 75.4462 194.622H160.441C160.734 194.622 161.02 194.74 161.227 194.948C161.435 195.153 161.554 195.442 161.554 195.735V201.887C161.554 202.184 161.439 202.462 161.227 202.674C161.019 202.885 160.738 203 160.441 203H121.721ZM114.296 203C113.684 203 113.187 202.499 113.187 201.887C113.187 201.271 113.684 200.774 114.296 200.774C114.912 200.774 115.409 201.271 115.409 201.887C115.409 202.499 114.912 203 114.296 203Z" fill="#141517"/>
<path d="M117.946 179.07C116.87 179.066 115.857 178.647 115.096 177.89C114.335 177.129 113.916 176.116 113.916 175.037C113.916 173.961 114.335 172.947 115.096 172.187C115.857 171.426 116.87 171.007 117.946 171.007C119.025 171.007 120.038 171.426 120.799 172.187C121.556 172.947 121.979 173.96 121.979 175.037C121.979 176.116 121.556 177.13 120.799 177.89C120.038 178.651 119.025 179.067 117.946 179.07ZM117.946 173.234C116.936 173.234 116.142 174.028 116.142 175.037C116.142 176.05 116.936 176.844 117.946 176.844C118.959 176.84 119.753 176.05 119.753 175.037C119.753 174.028 118.959 173.234 117.946 173.234Z" fill="#FF4D40"/>
<path d="M40.1132 118.707C39.5009 118.707 39 118.21 39 117.594V79.2376C39.0037 73.8721 43.3748 69.4974 48.744 69.4937C56.7143 69.4937 64.0019 69.4937 70.7849 69.4937C71.3971 69.4937 71.898 69.9946 71.898 70.6068C71.898 71.2228 71.3971 71.72 70.7849 71.72H48.744C44.6067 71.7274 41.2338 75.1003 41.2264 79.2376V117.594C41.2264 118.21 40.7291 118.707 40.1132 118.707Z" fill="#141517"/>
<path d="M195.782 96.5624C195.166 96.5624 194.669 96.0652 194.669 95.4492V79.2376C194.661 75.1003 191.289 71.7274 187.151 71.72C186.535 71.72 186.038 71.2228 186.038 70.6068C186.038 69.9946 186.535 69.4937 187.151 69.4937C192.517 69.4974 196.888 73.8684 196.896 79.2376V95.4492C196.896 96.0652 196.395 96.5624 195.782 96.5624Z" fill="#141517"/>
<path d="M190.597 147.842C190.3 147.842 190.018 147.727 189.811 147.519L152.556 110.265C152.122 109.831 152.122 109.126 152.556 108.692C152.976 108.269 153.71 108.269 154.129 108.692L191.384 145.942C191.818 146.376 191.818 147.085 191.384 147.519C191.172 147.727 190.894 147.842 190.597 147.842Z" fill="#FF4D40"/>
<path d="M191.005 156.644C190.708 156.644 190.43 156.529 190.218 156.318L143.075 109.186C142.96 109.071 142.867 108.922 142.812 108.77L138.174 95.7274C138.029 95.3266 138.133 94.8702 138.434 94.5697C138.734 94.2691 139.194 94.1652 139.595 94.3062L152.634 98.9482C152.79 99.0038 152.935 99.0929 153.05 99.2079L153.421 99.5827C153.421 99.5864 153.425 99.5864 153.428 99.5901C153.428 99.5938 153.432 99.5975 153.436 99.6012L153.48 99.6569C153.484 99.6606 153.491 99.6643 153.495 99.6717L153.543 99.7422L153.548 99.7459L153.558 99.7645C153.558 99.7645 153.558 99.7719 153.562 99.7719L153.585 99.8127C153.585 99.8127 153.585 99.8164 153.588 99.8202L153.599 99.8424C153.603 99.8536 153.607 99.8573 153.611 99.8647C153.807 100.291 153.718 100.796 153.388 101.123C152.968 101.546 152.234 101.546 151.815 101.123L151.651 100.959L141.054 97.1894L144.828 107.787L191.005 153.954L197.822 147.13L162.308 111.619C162.1 111.408 161.981 111.13 161.981 110.829C161.981 110.532 162.1 110.254 162.308 110.042C162.727 109.623 163.462 109.623 163.885 110.042L200.182 146.343C200.616 146.778 200.616 147.482 200.182 147.916L191.792 156.318C191.584 156.525 191.302 156.644 191.005 156.644ZM157.847 106.696C157.55 106.696 157.272 106.581 157.061 106.369C156.627 105.935 156.627 105.23 157.061 104.796C157.48 104.377 158.215 104.377 158.634 104.796C158.845 105.008 158.961 105.286 158.961 105.583C158.961 105.88 158.845 106.162 158.634 106.369C158.426 106.581 158.144 106.696 157.847 106.696Z" fill="#FF4D40"/>
<path d="M194.474 160.117H194.47C194.173 160.117 193.891 160.002 193.679 159.79L190.217 156.314C189.783 155.883 189.783 155.175 190.217 154.744L198.607 146.343C199.026 145.924 199.761 145.92 200.18 146.343L203.657 149.816C204.091 150.25 204.091 150.959 203.657 151.393L195.256 159.79C195.045 160.002 194.767 160.117 194.474 160.117ZM192.577 155.531L194.47 157.431L201.294 150.606L199.394 148.703L192.577 155.531Z" fill="#FF4D40"/>
<path d="M202.984 167.731H202.981H202.973C202.112 167.731 201.274 167.382 200.673 166.774L193.682 159.794C193.474 159.586 193.355 159.296 193.355 159.004C193.355 158.711 193.474 158.424 193.682 158.217L202.079 149.82C202.502 149.397 203.233 149.397 203.652 149.816L211.185 157.345C211.652 157.816 211.912 158.443 211.912 159.115C211.912 159.775 211.649 160.421 211.185 160.885L205.292 166.774C204.684 167.382 203.846 167.731 202.984 167.731ZM196.042 159.004L202.253 165.204C202.443 165.397 202.699 165.501 202.981 165.505C203.263 165.505 203.522 165.397 203.719 165.2L209.608 159.312C209.656 159.263 209.686 159.193 209.686 159.115C209.686 159.037 209.656 158.97 209.608 158.922L202.866 152.18L196.042 159.004Z" fill="#FF4D40"/>
<path d="M148.682 114.317C148.385 114.317 148.107 114.202 147.896 113.995L143.076 109.186C142.96 109.071 142.868 108.922 142.812 108.77L138.174 95.7274C138.029 95.3266 138.133 94.8702 138.434 94.5697C138.734 94.2691 139.194 94.1652 139.595 94.3062L152.634 98.9482C152.786 99.0038 152.935 99.0966 153.05 99.2079L157.87 104.028C158.078 104.239 158.196 104.518 158.196 104.815C158.196 105.111 158.078 105.393 157.87 105.605L149.469 113.995C149.257 114.202 148.979 114.317 148.682 114.317ZM144.827 107.787L148.682 111.631L155.506 104.815L151.651 100.959L141.057 97.1894L144.827 107.787Z" fill="#FF4D40"/>
<path d="M79.1126 160.329H65.1571C64.864 160.329 64.5783 160.21 64.3705 160.002C64.1627 159.794 64.0439 159.509 64.0439 159.216V115.379C64.0439 114.766 64.5412 114.269 65.1571 114.269C65.7694 114.269 66.2703 114.766 66.2703 115.379V158.102H77.9994V102.202H65.1571C64.5412 102.202 64.0439 101.701 64.0439 101.089C64.0439 100.477 64.5412 99.9761 65.1571 99.9761H79.1126C79.4021 99.9761 79.6915 100.095 79.8993 100.303C80.1033 100.507 80.2221 100.796 80.2221 101.089V159.216C80.2221 159.512 80.1071 159.795 79.8993 160.002C79.6878 160.214 79.4095 160.329 79.1126 160.329ZM65.1571 109.071C64.5412 109.071 64.0439 108.573 64.0439 107.961C64.0439 107.345 64.5412 106.844 65.1571 106.844C65.7694 106.844 66.2703 107.345 66.2703 107.961C66.2703 108.573 65.7694 109.071 65.1571 109.071Z" fill="#FF4D40"/>
<path d="M68.8009 110.076H65.1571C64.5412 110.076 64.0439 109.579 64.0439 108.963C64.0439 108.351 64.5412 107.85 65.1571 107.85H68.8009C69.4132 107.85 69.9141 108.351 69.9141 108.963C69.9141 109.579 69.4132 110.076 68.8009 110.076Z" fill="#FF4D40"/>
<path d="M71.2351 117.311H65.1571C64.5412 117.311 64.0439 116.81 64.0439 116.198C64.0439 115.582 64.5412 115.085 65.1571 115.085H71.2351C71.851 115.085 72.3482 115.582 72.3482 116.198C72.3482 116.81 71.851 117.311 71.2351 117.311Z" fill="#FF4D40"/>
<path d="M68.8009 124.544H65.1571C64.5412 124.544 64.0439 124.047 64.0439 123.431C64.0439 122.818 64.5412 122.317 65.1571 122.317H68.8009C69.4132 122.317 69.9141 122.818 69.9141 123.431C69.9141 124.047 69.4132 124.544 68.8009 124.544Z" fill="#FF4D40"/>
<path d="M71.2351 131.779H65.1571C64.5412 131.779 64.0439 131.278 64.0439 130.666C64.0439 130.054 64.5412 129.553 65.1571 129.553H71.2351C71.851 129.553 72.3482 130.054 72.3482 130.666C72.3482 131.278 71.851 131.779 71.2351 131.779Z" fill="#FF4D40"/>
<path d="M68.8009 139.014H65.1571C64.5412 139.014 64.0439 138.513 64.0439 137.901C64.0439 137.285 64.5412 136.788 65.1571 136.788H68.8009C69.4132 136.788 69.9141 137.285 69.9141 137.901C69.9141 138.514 69.4132 139.014 68.8009 139.014Z" fill="#FF4D40"/>
<path d="M71.2351 146.246H65.1571C64.5412 146.246 64.0439 145.749 64.0439 145.133C64.0439 144.521 64.5412 144.02 65.1571 144.02H71.2351C71.851 144.02 72.3482 144.521 72.3482 145.133C72.3482 145.749 71.851 146.246 71.2351 146.246Z" fill="#FF4D40"/>
<path d="M68.8009 153.482H65.1571C64.5412 153.482 64.0439 152.981 64.0439 152.369C64.0439 151.757 64.5412 151.255 65.1571 151.255H68.8009C69.4132 151.255 69.9141 151.757 69.9141 152.369C69.9141 152.981 69.4132 153.482 68.8009 153.482Z" fill="#FF4D40"/>
<path d="M97.1912 102.718C96.9983 102.718 96.8053 102.666 96.6346 102.566L90.694 99.134C90.4342 98.9856 90.2524 98.7444 90.1745 98.4587C90.0966 98.1693 90.1374 97.8724 90.2858 97.6127L109.625 64.1284C109.826 63.787 110.193 63.5718 110.59 63.5718C110.783 63.5718 110.976 63.6237 111.147 63.7239L117.087 67.1451C117.347 67.2935 117.529 67.5347 117.607 67.8204C117.685 68.1098 117.644 68.4104 117.496 68.6664L98.156 102.162C98.0075 102.418 97.7664 102.603 97.4806 102.678C97.3842 102.704 97.2877 102.718 97.1912 102.718ZM92.7682 97.7648L96.783 100.084L115.009 68.518L110.998 66.2063L92.7682 97.7648Z" fill="#FF4D40"/>
<path d="M123.375 73.1817C123.182 73.1817 122.989 73.1297 122.818 73.0295L103.175 61.69C102.644 61.3857 102.462 60.703 102.767 60.1724L109.464 48.5582C109.613 48.3022 109.854 48.1167 110.143 48.0388C110.425 47.9608 110.733 48.0016 110.985 48.1501L130.64 59.5007C130.9 59.6492 131.082 59.8904 131.16 60.1761C131.238 60.4655 131.197 60.7623 131.048 61.0221L124.339 72.6251C124.143 72.9665 123.772 73.1817 123.375 73.1817ZM105.253 60.3208L122.971 70.5472L128.562 60.8737L110.837 50.6362L105.253 60.3208Z" fill="#FF4D40"/>
<path d="M123.376 73.1817C123.183 73.1817 122.99 73.1298 122.82 73.0296L103.176 61.69C102.92 61.5416 102.734 61.3041 102.656 61.0147C102.582 60.729 102.619 60.4284 102.768 60.1724L106.118 54.3653C106.263 54.1093 106.512 53.9201 106.794 53.8459C107.076 53.7717 107.387 53.8125 107.64 53.9572L127.295 65.2967C127.55 65.4451 127.736 65.6863 127.814 65.972C127.888 66.2615 127.851 66.562 127.702 66.8181L124.341 72.6251C124.141 72.9665 123.773 73.1817 123.376 73.1817ZM105.254 60.3208L122.972 70.5472L125.217 66.6696L107.491 56.4433L105.254 60.3208Z" fill="#FF4D40"/>
</svg>
