<svg width="251" height="251" viewBox="0 0 251 251" fill="none" xmlns="http://www.w3.org/2000/svg">
<path d="M140.234 205.339H110.625C110.267 205.339 109.922 205.193 109.674 204.941C106.01 201.198 102.589 197.759 99.5747 194.727C88.5249 183.615 81.2275 176.274 76.202 168.68C72.9534 163.77 70.7566 158.793 69.2848 153.016C67.8572 147.389 67.0262 140.786 66.5975 131.61C66.5975 131.584 66.5975 131.562 66.5975 131.54C66.6019 130.832 67.1544 130.253 67.8616 130.222C68.5953 130.183 69.2141 130.753 69.2494 131.482C70.0892 149.082 72.4009 158.099 78.412 167.217C83.2253 174.515 90.558 181.892 101.661 193.061C104.507 195.929 107.734 199.178 111.182 202.688H139.668C144.053 198.122 148.013 194.082 151.505 190.515C157.145 184.765 161.596 180.221 165.291 176.084C165.759 175.558 166.639 175.509 167.16 175.978C167.425 176.217 167.584 176.54 167.602 176.893C167.624 177.246 167.505 177.587 167.266 177.852C163.509 182.056 159.045 186.612 153.396 192.376C149.798 196.049 145.719 200.208 141.193 204.928C140.941 205.189 140.592 205.339 140.234 205.339ZM171.894 171.499C171.607 171.499 171.332 171.407 171.102 171.239C170.515 170.802 170.395 169.966 170.833 169.382C170.833 169.378 170.833 169.378 170.833 169.378C171.258 168.817 172.124 168.688 172.685 169.113C173.273 169.545 173.392 170.381 172.959 170.964C172.954 170.969 172.954 170.969 172.954 170.969C172.707 171.301 172.31 171.499 171.894 171.499ZM176.597 164.066C176.389 164.066 176.181 164.017 175.991 163.92C175.545 163.689 175.271 163.235 175.271 162.735C175.271 162.527 175.319 162.324 175.417 162.134C181.114 151.102 181.702 137.864 181.693 110.284C181.693 106.376 181.684 102.138 181.671 97.6513C181.653 92.6877 181.64 87.5561 181.635 81.8985C176 82.6544 170.599 83.0389 165.582 83.0389H165.551C157.494 83.0389 150.095 82.04 143.553 80.0687C136.68 78.0001 130.541 74.7913 125.303 70.5348C118.885 74.7161 112.1 77.8985 105.139 80.0024C98.1378 82.1151 90.7786 83.1848 83.2735 83.1848H83.247C78.5663 83.1848 73.7132 82.7693 68.8247 81.9516C68.8247 85.5583 68.8203 88.9749 68.8158 92.2766C68.8114 95.6755 68.807 98.8889 68.807 101.952C68.807 106.814 68.8203 110.606 68.8424 113.89C68.8512 114.619 68.2589 115.221 67.5296 115.225H67.5164C66.7915 115.225 66.1992 114.637 66.1904 113.912C66.1683 110.615 66.155 106.818 66.155 101.952C66.155 98.8889 66.1594 95.68 66.1639 92.281C66.1683 88.4843 66.1771 84.5594 66.1771 80.3737C66.1771 79.9759 66.3495 79.6046 66.6545 79.3527C66.9506 79.1051 67.3573 78.9991 67.7418 79.0698C73.0148 80.0422 78.2303 80.5372 83.247 80.5372C98.0406 80.5328 111.972 76.241 124.658 67.7856C125.139 67.463 125.811 67.5027 126.253 67.874C136.198 76.2896 149.065 80.3825 165.582 80.3869C170.916 80.3869 176.698 79.9405 182.771 79.0609C183.151 79.0035 183.54 79.1184 183.832 79.3703C184.123 79.6223 184.287 79.9891 184.287 80.3737C184.287 86.6146 184.304 92.4755 184.322 97.6468C184.335 102.133 184.344 106.372 184.344 110.284C184.34 124.918 184.168 134.973 183.288 143.08C182.833 147.292 182.183 150.912 181.312 154.143C180.419 157.436 179.266 160.446 177.776 163.345C177.547 163.791 177.096 164.066 176.597 164.066ZM67.6362 124.052C66.9201 124.052 66.3278 123.468 66.3102 122.752C66.3057 122.399 66.4339 122.063 66.6814 121.806C66.9245 121.55 67.256 121.409 67.6096 121.4C68.3389 121.386 68.9489 121.97 68.9621 122.699C68.971 123.053 68.8384 123.389 68.5953 123.641C68.3478 123.897 68.0163 124.043 67.6627 124.052C67.6538 124.052 67.645 124.052 67.6362 124.052Z" fill="#141517"/>
<path d="M58.0142 95.2584H36.2105C35.4768 95.2584 34.8845 94.6617 34.8845 93.9324C34.8845 93.2031 35.4768 92.6064 36.2105 92.6064H58.0142C58.7434 92.6064 59.3401 93.2031 59.3401 93.9324C59.3401 94.6617 58.7434 95.2584 58.0142 95.2584Z" fill="#141517"/>
<path d="M58.0134 109.449H25.0494C24.3201 109.449 23.7234 108.857 23.7234 108.123C23.7234 107.394 24.3201 106.797 25.0494 106.797H58.0134C58.7427 106.797 59.3394 107.394 59.3394 108.123C59.3394 108.857 58.7427 109.449 58.0134 109.449Z" fill="#141517"/>
<path d="M58.0142 123.643H36.2105C35.4768 123.643 34.8845 123.051 34.8845 122.317C34.8845 121.588 35.4768 120.991 36.2105 120.991H58.0142C58.7434 120.991 59.3401 121.588 59.3401 122.317C59.3401 123.051 58.7434 123.643 58.0142 123.643Z" fill="#141517"/>
<path d="M58.0134 137.836H25.0494C24.3201 137.836 23.7234 137.243 23.7234 136.51C23.7234 135.781 24.3201 135.188 25.0494 135.188H58.0134C58.7427 135.188 59.3394 135.781 59.3394 136.51C59.3394 137.243 58.7427 137.836 58.0134 137.836Z" fill="#141517"/>
<path d="M58.0142 152.032H36.2105C35.4768 152.032 34.8845 151.435 34.8845 150.706C34.8845 149.973 35.4768 149.38 36.2105 149.38H58.0142C58.7434 149.38 59.3401 149.973 59.3401 150.706C59.3401 151.436 58.7434 152.032 58.0142 152.032Z" fill="#141517"/>
<path d="M217.207 95.2584H195.407C194.678 95.2584 194.081 94.6617 194.081 93.9324C194.081 93.2031 194.678 92.6064 195.407 92.6064H217.207C217.94 92.6064 218.533 93.2031 218.533 93.9324C218.533 94.6617 217.94 95.2584 217.207 95.2584Z" fill="#141517"/>
<path d="M228.367 109.449H195.407C194.678 109.449 194.081 108.857 194.081 108.123C194.081 107.394 194.678 106.797 195.407 106.797H228.367C229.096 106.797 229.693 107.394 229.693 108.123C229.693 108.857 229.096 109.449 228.367 109.449Z" fill="#141517"/>
<path d="M217.207 123.643H195.407C194.678 123.643 194.081 123.051 194.081 122.317C194.081 121.588 194.678 120.991 195.407 120.991H217.207C217.94 120.991 218.533 121.588 218.533 122.317C218.533 123.051 217.94 123.643 217.207 123.643Z" fill="#141517"/>
<path d="M228.367 137.834H195.407C194.678 137.834 194.081 137.241 194.081 136.512C194.081 135.778 194.678 135.182 195.407 135.182H228.367C229.096 135.182 229.693 135.778 229.693 136.512C229.693 137.241 229.096 137.834 228.367 137.834Z" fill="#141517"/>
<path d="M217.207 152.032H195.407C194.678 152.032 194.081 151.435 194.081 150.706C194.081 149.973 194.678 149.38 195.407 149.38H217.207C217.94 149.38 218.533 149.973 218.533 150.706C218.533 151.436 217.94 152.032 217.207 152.032Z" fill="#141517"/>
<path d="M133.705 125.127C130.911 125.127 128.286 124.04 126.315 122.064C124.343 120.093 123.256 117.467 123.256 114.674C123.256 111.386 123.985 108.986 125.479 107.333C126.832 105.834 128.847 105.043 131.309 105.043H131.357C136.365 105.074 142.443 107.858 148.264 110.86C150.217 111.881 152.091 112.902 153.899 113.892C157.241 115.722 160.123 117.3 161.732 117.825C162.342 118.029 162.721 118.661 162.62 119.293C162.519 119.929 161.953 120.407 161.312 120.407C152.286 120.407 144.657 122.493 139.61 123.872C138.991 124.04 138.407 124.199 137.859 124.345C136.074 124.809 134.823 125.114 133.705 125.127ZM131.433 107.695C131.41 107.695 131.384 107.695 131.357 107.695C129.563 107.704 128.317 108.155 127.442 109.114C126.425 110.223 125.908 112.093 125.908 114.674C125.917 118.966 129.413 122.466 133.705 122.475C133.718 122.475 133.727 122.475 133.74 122.475C134.306 122.475 135.495 122.237 137.183 121.781C137.723 121.64 138.31 121.476 138.934 121.308C140.224 120.955 141.683 120.557 143.301 120.155C147.879 119.019 151.88 118.329 155.88 117.989C154.863 117.445 153.78 116.853 152.636 116.225C150.841 115.24 148.989 114.223 147.044 113.215C140.052 109.551 134.801 107.695 131.433 107.695Z" fill="#FF4D40"/>
<path d="M115.257 125.127C114.143 125.114 112.888 124.809 111.102 124.345C110.541 124.195 109.94 124.031 109.308 123.859C108.035 123.514 106.594 123.116 105.02 122.727C101.011 121.733 94.8456 120.407 87.6499 120.407C86.9957 120.407 86.4477 119.938 86.3416 119.293C86.2355 118.648 86.6112 118.033 87.23 117.825C88.8344 117.3 91.7207 115.722 95.0577 113.896C96.8699 112.906 98.7396 111.881 100.698 110.86C106.519 107.858 112.601 105.074 117.604 105.043H117.657C120.114 105.043 122.134 105.834 123.487 107.328C124.985 108.986 125.71 111.386 125.71 114.674C125.71 117.467 124.623 120.093 122.647 122.064C120.676 124.04 118.05 125.127 115.257 125.127ZM93.082 117.989C100.052 118.581 105.789 120.15 109.984 121.295C110.62 121.472 111.226 121.635 111.778 121.781C113.502 122.245 114.713 122.484 115.257 122.475C119.553 122.466 123.054 118.966 123.058 114.674C123.058 112.093 122.541 110.223 121.524 109.114C120.649 108.155 119.403 107.704 117.604 107.695C117.582 107.695 117.555 107.695 117.533 107.695C114.161 107.695 108.91 109.551 101.918 113.215C99.9683 114.223 98.1119 115.244 96.3174 116.23C95.1771 116.858 94.0942 117.45 93.082 117.989Z" fill="#FF4D40"/>
<path d="M142.351 182.016C141.972 182.016 141.609 181.853 141.357 181.57C141.123 181.3 141.003 180.96 141.025 180.606C141.047 180.252 141.207 179.93 141.472 179.696C153.291 169.264 160.756 162.431 164.743 155.483C168.783 148.46 169.547 140.782 169.552 129.069C169.552 124.504 169.424 119.195 169.278 113.051C169.158 107.933 169.017 102.139 168.924 95.6014C167.779 95.6324 166.63 95.6501 165.516 95.6501C157.958 95.6501 150.824 94.881 144.309 93.3605C137.105 91.6809 130.453 89.0378 124.543 85.5018C121.688 87.009 118.744 88.3704 115.796 89.5461C115.637 89.6124 115.469 89.6433 115.301 89.6433C114.758 89.6433 114.271 89.3163 114.072 88.808C113.798 88.1273 114.134 87.3538 114.811 87.0842C117.905 85.851 120.981 84.4145 123.956 82.8101C124.367 82.5891 124.884 82.6068 125.277 82.8499C136.23 89.5815 149.768 92.9981 165.516 92.9981C167.046 92.9981 168.615 92.9671 170.179 92.9008C170.542 92.8876 170.882 93.0202 171.143 93.2633C171.409 93.5152 171.554 93.8511 171.558 94.2091C171.651 101.29 171.797 107.5 171.93 112.981C172.076 119.138 172.204 124.455 172.204 129.069C172.204 141.237 171.382 149.26 167.041 156.805C162.745 164.243 155.196 171.103 143.231 181.68C143.231 181.68 143.231 181.684 143.227 181.684C142.983 181.897 142.674 182.016 142.351 182.016ZM79.8178 133.985C79.0974 133.985 78.5139 133.419 78.4918 132.694C78.3592 128.159 78.2974 123.24 78.2974 117.649C78.2974 111.359 78.3769 104.959 78.4565 98.7666C78.4786 97.3124 78.4963 95.8582 78.5139 94.4041C78.5184 94.0505 78.6686 93.7057 78.9206 93.4626C79.1769 93.2195 79.5305 93.0869 79.8841 93.0958C80.9184 93.1267 81.9394 93.1444 82.9118 93.1444C88.0478 93.1444 93.1573 92.7068 98.0988 91.8361C98.8148 91.7079 99.5087 92.1985 99.6325 92.9101C99.6458 92.9897 99.6546 93.0692 99.6546 93.1444C99.6502 93.7897 99.1905 94.3378 98.5584 94.4483C93.4711 95.3411 88.2069 95.7964 82.9118 95.7964C82.3372 95.7964 81.7449 95.7919 81.1482 95.7787C81.135 96.7555 81.1261 97.7367 81.1129 98.7135C81.0333 104.928 80.9493 111.355 80.9493 117.649C80.9493 123.191 81.0112 128.089 81.1438 132.619C81.1659 133.348 80.5869 133.963 79.8576 133.985C79.8443 133.985 79.8311 133.985 79.8178 133.985ZM106.939 92.4902C106.351 92.4902 105.825 92.0969 105.666 91.5267C105.462 90.8239 105.873 90.0902 106.576 89.8913C107.27 89.6924 108.022 90.1167 108.216 90.8018C108.415 91.5046 108.004 92.2427 107.301 92.4416C107.182 92.477 107.058 92.4902 106.939 92.4902Z" fill="#141517"/>
<path d="M124.327 192.266C123.598 192.266 123.001 191.67 123.001 190.936V96.3314C123.001 95.5977 123.598 95.001 124.327 95.001C125.056 95.001 125.653 95.5977 125.653 96.3314V190.936C125.653 191.67 125.056 192.266 124.327 192.266Z" fill="#FF4D40"/>
<path d="M124.327 172.204C123.054 172.204 121.834 171.824 120.698 171.082C119.655 170.401 118.7 169.406 117.931 168.204C116.393 165.804 115.54 162.635 115.54 159.289C115.54 156.748 116.035 154.281 116.976 152.159C116.035 150.042 115.54 147.571 115.54 145.022C115.54 141.676 116.393 138.515 117.931 136.115C118.7 134.917 119.655 133.923 120.698 133.242C121.834 132.5 123.054 132.12 124.327 132.115C125.6 132.12 126.82 132.5 127.955 133.242C128.994 133.923 129.953 134.917 130.722 136.115C132.264 138.516 133.114 141.68 133.118 145.022C133.114 147.581 132.618 150.051 131.686 152.159C132.618 154.272 133.114 156.738 133.118 159.289C133.114 162.635 132.264 165.804 130.722 168.204C129.953 169.406 128.999 170.401 127.955 171.082C126.82 171.824 125.6 172.204 124.327 172.204ZM124.327 169.552H124.34C125.852 169.552 127.328 168.567 128.491 166.768C129.75 164.827 130.466 162.1 130.466 159.289C130.466 156.92 129.958 154.6 129.034 152.752C128.849 152.38 128.849 151.938 129.034 151.567C129.958 149.724 130.466 147.395 130.466 145.021C130.466 142.214 129.75 139.492 128.491 137.551C127.323 135.757 125.852 134.767 124.34 134.767H124.327H124.313C122.802 134.767 121.326 135.757 120.163 137.551C118.903 139.492 118.187 142.214 118.187 145.021C118.187 147.386 118.7 149.71 119.628 151.567C119.814 151.938 119.814 152.38 119.628 152.752C118.7 154.613 118.187 156.933 118.187 159.289C118.187 162.1 118.903 164.823 120.163 166.768C121.326 168.566 122.802 169.552 124.313 169.552H124.327Z" fill="#FF4D40"/>
<path d="M163.035 82.9965C163.026 82.9965 163.013 82.9965 163.005 82.9965C155.504 82.7976 148.595 81.697 142.461 79.7213C136.034 77.6484 130.262 74.5588 125.303 70.5322C120.016 73.9754 114.478 76.7511 108.843 78.7799C108.498 78.9036 108.127 78.8815 107.804 78.7224C107.477 78.5589 107.234 78.276 107.128 77.9268C106.845 77.0296 106.703 76.1058 106.703 75.1865C106.703 73.003 107.495 70.8947 108.927 69.246C110.341 67.6239 112.286 66.5499 114.407 66.2316C114.407 66.2095 114.407 66.1963 114.407 66.1786C114.407 64.0261 115.172 61.9443 116.56 60.3133C117.011 59.7785 117.89 59.7033 118.425 60.1586C118.982 60.6315 119.053 61.4713 118.58 62.0282C117.585 63.204 117.059 64.636 117.059 66.1786C117.059 66.5233 117.086 66.8725 117.148 67.2438C117.21 67.6283 117.099 68.0173 116.847 68.3134C116.591 68.6096 116.224 68.7775 115.839 68.7775H115.778C112.242 68.7864 109.364 71.6593 109.355 75.1865C109.355 75.3721 109.364 75.5621 109.382 75.7522C114.606 73.7411 119.747 71.0582 124.657 67.783C125.139 67.4604 125.811 67.5001 126.253 67.8714C135.597 75.7743 147.5 79.8495 162.638 80.3313C164.273 79.1114 165.21 77.2373 165.215 75.1865C165.21 73.4538 164.525 71.8273 163.279 70.6074C162.952 70.2847 162.81 69.825 162.907 69.3786C163.022 68.8438 163.08 68.3046 163.08 67.7388C163.071 63.478 159.606 60.0083 155.354 59.9995C154.35 59.9995 153.36 60.1984 152.415 60.5829C151.982 60.7641 151.456 60.689 151.084 60.3929C150.713 60.0967 150.527 59.6149 150.602 59.142C150.673 58.7133 150.708 58.2934 150.708 57.9C150.704 53.648 147.234 50.1828 142.978 50.1783C140.304 50.1783 137.855 51.5308 136.423 53.7983C136.18 54.1872 135.76 54.4171 135.3 54.4171C135.057 54.4171 134.819 54.3508 134.607 54.2226C133.612 53.6082 132.454 53.2856 131.261 53.2856H131.252C128.149 53.2856 125.431 55.5928 124.927 58.6558C124.821 59.3011 124.268 59.7696 123.619 59.7696H123.473C122.743 59.7696 122.147 59.173 122.147 58.4437C122.147 58.1431 122.244 57.8602 122.43 57.626C122.889 55.6679 124.012 53.8955 125.59 52.627C127.19 51.3452 129.205 50.6336 131.261 50.6336C132.529 50.6336 133.749 50.8855 134.894 51.385C136.874 48.9319 139.818 47.5264 142.978 47.5264C145.696 47.5264 148.264 48.5651 150.209 50.4524C152.149 52.3353 153.263 54.8502 153.356 57.542C154.01 57.4138 154.682 57.3475 155.349 57.3475H155.354C158.13 57.3475 160.733 58.4304 162.695 60.3929C164.653 62.3553 165.732 64.9631 165.732 67.7388C165.732 68.2427 165.697 68.7466 165.626 69.2328C167.071 70.8858 167.867 72.9986 167.862 75.1865C167.867 78.2627 166.333 81.1003 163.765 82.7799C163.548 82.9214 163.296 82.9965 163.035 82.9965Z" fill="#FF4D40"/>
</svg>
