<svg width="250" height="250" viewBox="0 0 250 250" fill="none" xmlns="http://www.w3.org/2000/svg">
<path d="M94.2184 198.575C93.4078 198.575 92.7535 197.916 92.7535 197.11C92.7535 196.3 93.4078 195.645 94.2184 195.645H168.769C168.725 195.06 168.7 194.469 168.7 193.902C168.7 189.342 169.985 184.903 172.412 181.065C174.77 177.331 178.1 174.322 182.041 172.35V107.75C182.041 106.944 182.7 106.285 183.505 106.285C184.316 106.285 184.97 106.944 184.97 107.75V173.277C184.97 173.854 184.634 174.376 184.106 174.61C176.527 178.033 171.63 185.601 171.63 193.902C171.63 194.869 171.703 195.85 171.855 196.9C171.913 197.32 171.786 197.745 171.508 198.067C171.235 198.39 170.829 198.57 170.404 198.57L94.2184 198.575ZM84.4528 198.57C83.6422 198.57 82.9879 197.916 82.9879 197.11C82.9879 196.3 83.6422 195.645 84.4528 195.645C85.2584 195.645 85.9176 196.3 85.9176 197.11C85.9176 197.916 85.2584 198.57 84.4528 198.57ZM74.6871 198.57H57.1188C56.733 198.57 56.3571 198.414 56.0836 198.145C55.8102 197.872 55.6539 197.496 55.6539 197.11V43.7754C55.6539 43.7656 55.6539 43.7559 55.6539 43.7412C55.6539 43.7314 55.6539 43.7217 55.6539 43.707C55.6539 42.9014 56.3131 42.2422 57.1188 42.2422H183.505C183.891 42.2422 184.272 42.3984 184.541 42.6719C184.814 42.9453 184.97 43.3213 184.97 43.707V88.2188C184.97 89.0244 184.316 89.6836 183.505 89.6836C182.7 89.6836 182.041 89.0244 182.041 88.2188V45.1719H58.5836V195.645H74.6871C75.4928 195.645 76.152 196.3 76.152 197.11C76.152 197.916 75.4928 198.57 74.6871 198.57ZM183.505 99.4492C182.7 99.4492 182.041 98.79 182.041 97.9844C182.041 97.1787 182.7 96.5195 183.505 96.5195C184.316 96.5195 184.97 97.1787 184.97 97.9844C184.97 98.79 184.316 99.4492 183.505 99.4492Z" fill="#141517"/>
<path d="M149.809 108.37C149.003 108.37 148.344 107.716 148.344 106.905C148.344 106.1 149.003 105.44 149.809 105.44H168.539V57.0566H72.084V105.44H130.277C131.083 105.44 131.742 106.1 131.742 106.905C131.742 107.716 131.083 108.37 130.277 108.37H70.6191C70.2334 108.37 69.8525 108.214 69.584 107.94C69.3105 107.672 69.1543 107.291 69.1543 106.905V55.5918C69.1543 55.2061 69.3105 54.8301 69.584 54.5566C69.8574 54.2832 70.2334 54.127 70.6191 54.127H170.004C170.389 54.127 170.77 54.2832 171.039 54.5566C171.313 54.8301 171.469 55.2061 171.469 55.5918V106.905C171.469 107.296 171.317 107.667 171.039 107.94C170.765 108.219 170.395 108.37 170.004 108.37H149.809ZM140.043 108.37C139.232 108.37 138.578 107.716 138.578 106.905C138.578 106.1 139.232 105.44 140.043 105.44C140.848 105.44 141.508 106.1 141.508 106.905C141.508 107.716 140.848 108.37 140.043 108.37Z" fill="#141517"/>
<path d="M88.857 134.775H72.0358C71.65 134.775 71.274 134.62 71.0006 134.346C70.7272 134.072 70.5709 133.696 70.5709 133.311V116.489C70.5709 116.104 70.7272 115.728 71.0006 115.454C71.274 115.181 71.65 115.024 72.0358 115.024H88.857C89.2428 115.024 89.6188 115.181 89.8922 115.454C90.1656 115.728 90.3219 116.104 90.3219 116.489V133.311C90.3219 133.701 90.1656 134.067 89.8922 134.346C89.6139 134.624 89.2477 134.775 88.857 134.775ZM73.5006 131.846H87.3922V117.954H73.5006V131.846Z" fill="#141517"/>
<path d="M115.434 134.775H98.6124C98.2267 134.775 97.8507 134.62 97.5773 134.346C97.3038 134.072 97.1476 133.696 97.1476 133.311V116.489C97.1476 116.104 97.3038 115.728 97.5773 115.454C97.8507 115.181 98.2267 115.024 98.6124 115.024H115.434C115.819 115.024 116.196 115.181 116.469 115.454C116.743 115.728 116.899 116.104 116.899 116.489V133.311C116.899 133.701 116.747 134.067 116.469 134.346C116.191 134.624 115.824 134.775 115.434 134.775ZM100.077 131.846H113.969V117.954H100.077V131.846Z" fill="#141517"/>
<path d="M142.011 134.775H125.19C124.804 134.775 124.427 134.62 124.155 134.346C123.881 134.072 123.725 133.696 123.725 133.311V116.489C123.725 116.104 123.881 115.728 124.155 115.454C124.428 115.181 124.804 115.024 125.19 115.024H142.011C142.397 115.024 142.773 115.181 143.046 115.454C143.32 115.728 143.476 116.104 143.476 116.489V133.311C143.476 133.701 143.324 134.067 143.046 134.346C142.768 134.624 142.402 134.775 142.011 134.775ZM126.655 131.846H140.541V117.954H126.655V131.846Z" fill="#141517"/>
<path d="M168.588 134.775H151.772C151.386 134.775 151.006 134.62 150.732 134.346C150.458 134.072 150.302 133.696 150.302 133.311V116.489C150.302 116.104 150.458 115.728 150.732 115.454C151.006 115.181 151.386 115.024 151.772 115.024H168.588C168.974 115.024 169.35 115.181 169.624 115.454C169.897 115.728 170.053 116.104 170.053 116.489V133.311C170.053 133.701 169.901 134.067 169.624 134.346C169.35 134.624 168.979 134.775 168.588 134.775ZM153.232 131.846H167.124V117.954H153.232V131.846Z" fill="#141517"/>
<path d="M88.857 158.781H72.0358C71.65 158.781 71.274 158.625 71.0006 158.351C70.7272 158.078 70.5709 157.702 70.5709 157.316V140.5C70.5709 140.108 70.7272 139.733 71.0006 139.459C71.274 139.186 71.65 139.029 72.0358 139.029H88.857C89.2428 139.029 89.6188 139.19 89.8922 139.464C90.1656 139.733 90.3219 140.114 90.3219 140.5V157.315C90.3219 157.706 90.1656 158.078 89.8922 158.351C89.6139 158.629 89.2477 158.781 88.857 158.781ZM73.5006 155.851H87.3922V141.959H73.5006V155.851Z" fill="#141517"/>
<path d="M115.434 158.781H98.6124C98.2267 158.781 97.8507 158.625 97.5773 158.351C97.3038 158.078 97.1476 157.702 97.1476 157.316V140.5C97.1476 140.114 97.3038 139.733 97.5773 139.459C97.8507 139.186 98.2267 139.029 98.6124 139.029H115.434C115.819 139.029 116.196 139.19 116.469 139.464C116.743 139.733 116.899 140.114 116.899 140.5V157.315C116.899 157.706 116.747 158.078 116.469 158.351C116.19 158.629 115.824 158.781 115.434 158.781ZM100.077 155.851H113.969V141.959H100.077V155.851Z" fill="#141517"/>
<path d="M142.011 158.781H125.19C124.804 158.781 124.427 158.625 124.155 158.351C123.881 158.078 123.725 157.702 123.725 157.316V140.5C123.725 140.114 123.881 139.733 124.155 139.459C124.428 139.186 124.804 139.029 125.19 139.029H142.011C142.397 139.029 142.773 139.19 143.046 139.464C143.32 139.733 143.476 140.114 143.476 140.5V157.315C143.476 157.706 143.324 158.078 143.046 158.351C142.768 158.629 142.402 158.781 142.011 158.781ZM126.655 155.851H140.546V141.959H126.655V155.851Z" fill="#141517"/>
<path d="M168.588 158.78H151.772C151.386 158.78 151.006 158.624 150.732 158.351C150.458 158.077 150.302 157.701 150.302 157.315V140.494C150.302 140.108 150.458 139.732 150.732 139.459C151.006 139.186 151.386 139.029 151.772 139.029H168.588C168.974 139.029 169.35 139.19 169.624 139.459C169.897 139.733 170.053 140.108 170.053 140.494V157.315C170.053 157.706 169.901 158.078 169.624 158.351C169.35 158.629 168.979 158.78 168.588 158.78ZM153.232 155.851H167.124V141.959H153.232V155.851Z" fill="#141517"/>
<path d="M88.857 182.769H72.0358C71.65 182.769 71.274 182.617 71.0006 182.344C70.7272 182.07 70.5709 181.694 70.5709 181.309V164.502C70.5709 164.116 70.7272 163.736 71.0006 163.462C71.274 163.193 71.65 163.037 72.0358 163.037H88.857C89.2428 163.037 89.6188 163.193 89.8922 163.462C90.1656 163.736 90.3219 164.116 90.3219 164.502V181.309C90.3219 181.7 90.1656 182.066 89.8922 182.344C89.6139 182.617 89.2477 182.769 88.857 182.769ZM73.5006 179.839H87.3922V165.962H73.5006V179.839Z" fill="#141517"/>
<path d="M115.434 182.769H98.6124C98.2267 182.769 97.8507 182.617 97.5773 182.344C97.3038 182.07 97.1476 181.694 97.1476 181.309V164.502C97.1476 164.116 97.3038 163.736 97.5773 163.462C97.8507 163.193 98.2267 163.037 98.6124 163.037H115.434C115.819 163.037 116.196 163.193 116.469 163.462C116.743 163.736 116.899 164.116 116.899 164.502V181.309C116.899 181.7 116.747 182.066 116.469 182.344C116.19 182.617 115.824 182.769 115.434 182.769ZM100.077 179.839H113.969V165.962H100.077V179.839Z" fill="#141517"/>
<path d="M142.011 182.769H125.19C124.804 182.769 124.427 182.617 124.155 182.344C123.881 182.07 123.725 181.694 123.725 181.309V164.502C123.725 164.116 123.881 163.736 124.155 163.462C124.428 163.193 124.804 163.037 125.19 163.037H142.011C142.397 163.037 142.773 163.193 143.046 163.462C143.32 163.736 143.476 164.116 143.476 164.502V181.309C143.476 181.7 143.32 182.066 143.046 182.344C142.768 182.617 142.402 182.769 142.011 182.769ZM126.655 179.839H140.546V165.962H126.655V179.839Z" fill="#141517"/>
<path d="M168.588 182.773H151.772C151.386 182.773 151.006 182.618 150.732 182.344C150.458 182.07 150.302 181.694 150.302 181.309V164.502C150.302 164.116 150.458 163.736 150.732 163.462C151.006 163.193 151.386 163.037 151.772 163.037H168.588C168.974 163.037 169.35 163.193 169.624 163.462C169.897 163.736 170.053 164.111 170.053 164.502V181.309C170.053 181.7 169.901 182.066 169.624 182.344C169.35 182.623 168.979 182.773 168.588 182.773ZM153.232 179.844H167.124V165.967H153.232V179.844Z" fill="#141517"/>
<path d="M85.3859 100.954H78.589C78.2032 100.954 77.8224 100.798 77.5489 100.524C77.2804 100.251 77.1241 99.875 77.1241 99.4893V90.4365C77.1241 90.0508 77.2804 89.6748 77.5538 89.4014C77.8224 89.1279 78.2032 88.9717 78.589 88.9717H85.3859C85.7716 88.9717 86.1525 89.1279 86.421 89.4014C86.6945 89.6748 86.8507 90.0508 86.8507 90.4365V99.4893C86.8507 99.875 86.6945 100.251 86.421 100.524C86.1525 100.798 85.7716 100.954 85.3859 100.954ZM80.0538 98.0244H83.921V91.9014H80.0538V98.0244Z" fill="#FF4D40"/>
<path d="M100.664 100.953H93.8671C93.4813 100.953 93.1005 100.797 92.8319 100.523C92.5585 100.25 92.4022 99.874 92.4022 99.4883V73.0234C92.4022 72.6328 92.5585 72.2568 92.8319 71.9834C93.1005 71.71 93.4813 71.5537 93.8671 71.5537H100.664C101.05 71.5537 101.431 71.71 101.699 71.9834C101.973 72.2568 102.129 72.6328 102.129 73.0234V99.4883C102.129 99.874 101.973 100.25 101.699 100.523C101.431 100.797 101.05 100.953 100.664 100.953ZM95.3319 98.0234H99.1991V74.4834H95.3319V98.0234Z" fill="#FF4D40"/>
<path d="M115.942 100.953H109.145C108.759 100.953 108.379 100.797 108.105 100.523C107.837 100.25 107.68 99.874 107.68 99.4883V82.3301C107.68 81.9443 107.837 81.5684 108.105 81.2949C108.379 81.0215 108.759 80.8652 109.145 80.8652H115.942C116.328 80.8652 116.704 81.0264 116.977 81.2949C117.251 81.5684 117.407 81.9443 117.407 82.3301V99.4883C117.407 99.8789 117.255 100.245 116.977 100.523C116.698 100.797 116.332 100.953 115.942 100.953ZM110.605 98.0234H114.477V83.7949H110.61L110.605 98.0234Z" fill="#FF4D40"/>
<path d="M131.22 100.954H124.419C124.033 100.954 123.656 100.798 123.384 100.524C123.111 100.251 122.954 99.875 122.954 99.4893V76.667C122.954 76.2764 123.11 75.9004 123.384 75.627C123.657 75.3535 124.033 75.1973 124.419 75.1973H131.22C131.606 75.1973 131.983 75.3535 132.256 75.627C132.53 75.9004 132.685 76.2813 132.685 76.667V99.4893C132.685 99.8799 132.534 100.246 132.256 100.524C131.982 100.798 131.611 100.954 131.22 100.954ZM125.884 98.0244H129.756V78.127H125.884V98.0244Z" fill="#FF4D40"/>
<path d="M146.497 100.953H139.695C139.309 100.953 138.933 100.797 138.66 100.523C138.387 100.25 138.23 99.874 138.23 99.4883V69.2295C138.23 68.8437 138.386 68.4678 138.66 68.1943C138.933 67.9209 139.309 67.7646 139.695 67.7646H146.497C146.882 67.7646 147.259 67.9209 147.532 68.1943C147.805 68.4678 147.962 68.8437 147.962 69.2295V99.4883C147.962 99.8789 147.81 100.245 147.532 100.523C147.253 100.797 146.887 100.953 146.497 100.953ZM141.16 98.0234H145.032V70.6943H141.16V98.0234Z" fill="#FF4D40"/>
<path d="M161.778 100.954H154.991C154.605 100.954 154.229 100.798 153.956 100.524C153.682 100.251 153.526 99.875 153.526 99.4893V80.5781C153.526 80.1924 153.682 79.8164 153.956 79.543C154.229 79.2695 154.605 79.1133 154.991 79.1133H161.777C162.163 79.1133 162.54 79.2695 162.813 79.543C163.085 79.8164 163.242 80.1973 163.242 80.5781V99.4893C163.242 99.8799 163.091 100.246 162.813 100.524C162.534 100.798 162.168 100.954 161.778 100.954ZM156.456 98.0244H160.312V82.043H156.456V98.0244Z" fill="#FF4D40"/>
<path d="M38.3483 171.808C37.5377 171.808 36.8834 171.154 36.8834 170.343V99.7725C36.8834 98.9668 37.5377 98.3076 38.3483 98.3076C39.1539 98.3076 39.8131 98.9668 39.8131 99.7725V170.344C39.8131 171.154 39.1539 171.808 38.3483 171.808Z" fill="#FF4D40"/>
<path d="M38.3495 198.57C37.7831 198.57 37.2655 198.243 37.0262 197.735L29.0721 180.978C28.9794 180.787 28.9257 180.563 28.9257 180.353V176.261C28.9257 175.45 29.5848 174.796 30.3905 174.796C31.201 174.796 31.8553 175.45 31.8553 176.261V180.021L38.3495 193.692L44.8387 180.021V92.5107H31.8553V156.73C31.8553 157.535 31.201 158.194 30.3905 158.194C29.5848 158.194 28.9257 157.535 28.9257 156.73V91.0459C28.9257 90.6602 29.0819 90.2842 29.3553 90.0107C29.6288 89.7373 30.0048 89.5811 30.3905 89.5811H46.3036C46.6893 89.5811 47.0653 89.7373 47.3387 90.0107C47.6122 90.2842 47.7684 90.6602 47.7684 91.0459V180.352C47.7684 180.563 47.7196 180.787 47.6268 180.977L39.6727 197.735C39.4286 198.243 38.911 198.57 38.3495 198.57ZM30.3905 167.96C29.5848 167.96 28.9257 167.301 28.9257 166.495C28.9257 165.685 29.5848 165.03 30.3905 165.03C31.201 165.03 31.8553 165.685 31.8553 166.495C31.8553 167.301 31.201 167.96 30.3905 167.96Z" fill="#FF4D40"/>
<path d="M46.3036 92.5117H30.3905C30.0096 92.5117 29.6288 92.3555 29.3553 92.082C29.0819 91.8086 28.9257 91.4326 28.9257 91.0469V84.4844C28.9257 84.0986 29.0819 83.7178 29.3553 83.4443C29.6288 83.1758 30.0048 83.0195 30.3905 83.0195H46.3036C46.6893 83.0195 47.0653 83.1758 47.3387 83.4443C47.6122 83.7178 47.7684 84.0986 47.7684 84.4844V91.0469C47.7684 91.4326 47.6122 91.8086 47.3387 92.082C47.0653 92.3555 46.6893 92.5117 46.3036 92.5117ZM31.8553 89.582H44.8387V85.9492H31.8553V89.582Z" fill="#FF4D40"/>
<path d="M46.3036 85.9492H30.3905C30.0048 85.9492 29.6288 85.793 29.3553 85.5195C29.0819 85.2461 28.9257 84.8701 28.9257 84.4844V70.2217C28.9305 68.3906 30.4296 66.8965 32.2704 66.8965H43.4227C45.8153 66.8965 47.7684 68.8496 47.7684 71.2422V84.4844C47.7684 84.8701 47.6122 85.2461 47.3387 85.5195C47.0653 85.793 46.6893 85.9492 46.3036 85.9492ZM31.8553 83.0195H44.8387V71.2422C44.8387 70.4609 44.1991 69.8262 43.4227 69.8262H32.2704C32.0409 69.8262 31.8602 70.002 31.8553 70.2217V83.0195Z" fill="#FF4D40"/>
<path d="M38.3495 198.57C37.7831 198.57 37.2655 198.243 37.0262 197.735L29.0721 180.978C28.9794 180.787 28.9257 180.563 28.9257 180.353V171.241C28.9257 170.855 29.0819 170.475 29.3553 170.201C29.6288 169.932 30.0048 169.776 30.3905 169.776H46.3036C46.6893 169.776 47.0653 169.932 47.3387 170.201C47.6122 170.475 47.7684 170.85 47.7684 171.241V180.352C47.7684 180.562 47.7196 180.787 47.6268 180.977L39.6727 197.735C39.4286 198.243 38.911 198.57 38.3495 198.57ZM31.8553 180.021L38.3495 193.692L44.8387 180.021V172.701H31.8553V180.021Z" fill="#FF4D40"/>
<path d="M192.791 217.988C189.539 217.988 186.385 217.354 183.416 216.094C180.55 214.883 177.976 213.149 175.764 210.938C173.552 208.726 171.814 206.147 170.603 203.281C169.348 200.313 168.714 197.153 168.714 193.901C168.714 190.649 169.348 187.5 170.603 184.531C171.814 181.665 173.552 179.087 175.764 176.88C177.976 174.668 180.55 172.93 183.416 171.719C186.385 170.459 189.539 169.824 192.791 169.824C196.042 169.824 199.197 170.459 202.165 171.714C205.037 172.93 207.61 174.668 209.822 176.875C212.033 179.086 213.772 181.665 214.983 184.531C216.242 187.5 216.878 190.649 216.878 193.901C216.878 197.153 216.242 200.313 214.988 203.281C213.772 206.147 212.033 208.725 209.822 210.938C207.61 213.149 205.037 214.883 202.165 216.098C199.197 217.354 196.042 217.988 192.791 217.988ZM192.791 172.754C187.141 172.754 181.829 174.957 177.834 178.951C173.84 182.945 171.643 188.257 171.643 193.901C171.643 199.556 173.84 204.868 177.834 208.867C181.829 212.856 187.141 215.059 192.791 215.059C198.44 215.059 203.752 212.856 207.752 208.867C211.746 204.868 213.948 199.556 213.948 193.901C213.948 188.257 211.745 182.945 207.752 178.951C203.752 174.957 198.44 172.754 192.791 172.754Z" fill="#FF4D40"/>
<path d="M193.886 201.097C194.63 200.936 195.227 200.576 195.687 200.041C196.16 199.494 196.396 198.848 196.396 198.114C196.396 197.455 196.198 196.883 195.799 196.411C195.414 195.927 194.779 195.566 193.885 195.305V201.097H193.886ZM191.735 185.359C191.15 185.559 190.702 185.907 190.367 186.379C190.019 186.852 189.856 187.373 189.856 187.945C189.856 188.454 190.006 188.939 190.318 189.388C190.629 189.834 191.1 190.195 191.735 190.469V185.359H191.735ZM191.735 200.849V194.67C189.807 194.124 188.402 193.291 187.509 192.172C186.613 191.053 186.166 189.698 186.166 188.107C186.166 186.491 186.675 185.136 187.694 184.043C188.701 182.948 190.044 182.315 191.735 182.153V180.698H193.886V182.153C195.451 182.34 196.707 182.874 197.638 183.756C198.572 184.639 199.169 185.82 199.417 187.299L195.663 187.772C195.441 186.616 194.843 185.833 193.886 185.423V191.19C196.26 191.825 197.875 192.645 198.734 193.665C199.603 194.684 200.027 195.99 200.027 197.581C200.027 199.37 199.491 200.862 198.397 202.08C197.316 203.311 195.812 204.057 193.886 204.367V207.116H191.736V204.392C190.044 204.181 188.665 203.56 187.595 202.503C186.538 201.458 185.855 199.955 185.557 198.041L189.41 197.581C189.559 198.376 189.857 199.047 190.293 199.619C190.729 200.191 191.2 200.588 191.735 200.849Z" fill="#FF4D40"/>
<path d="M197.302 164.947C196.497 164.947 195.837 164.288 195.837 163.482V137.809C195.837 137.003 196.497 136.344 197.302 136.344C198.113 136.344 198.767 137.003 198.767 137.809V163.482C198.767 164.288 198.113 164.947 197.302 164.947Z" fill="#141517"/>
<path d="M191.226 146.051C190.864 146.051 190.518 145.919 190.249 145.675C189.648 145.138 189.6 144.21 190.137 143.609L196.216 136.832C196.733 136.256 197.705 136.202 198.286 136.72C198.574 136.984 198.75 137.34 198.769 137.73C198.789 138.121 198.657 138.497 198.398 138.79L192.319 145.562C192.041 145.875 191.646 146.051 191.226 146.051Z" fill="#141517"/>
<path d="M203.383 146.05C202.968 146.05 202.573 145.875 202.295 145.562L196.216 138.79C195.674 138.19 195.728 137.261 196.328 136.72C196.909 136.202 197.876 136.256 198.398 136.832L204.472 143.609C205.014 144.21 204.965 145.138 204.364 145.675C204.091 145.919 203.745 146.05 203.383 146.05Z" fill="#141517"/>
<path d="M211.488 160.357C210.683 160.357 210.023 159.703 210.023 158.893V123.902C210.023 123.092 210.683 122.438 211.488 122.438C212.293 122.438 212.953 123.092 212.953 123.902V158.893C212.953 159.703 212.294 160.357 211.488 160.357Z" fill="#FF4D40"/>
<path d="M205.411 132.14C205.05 132.14 204.703 132.007 204.434 131.768C204.141 131.504 203.97 131.143 203.946 130.752C203.926 130.362 204.058 129.991 204.322 129.698L210.401 122.921C210.919 122.345 211.89 122.291 212.466 122.809C212.759 123.072 212.93 123.429 212.955 123.819C212.974 124.21 212.842 124.586 212.578 124.879L206.499 131.656C206.226 131.964 205.826 132.14 205.411 132.14Z" fill="#FF4D40"/>
<path d="M217.565 132.14C217.15 132.14 216.75 131.964 216.477 131.651L210.398 124.879C209.856 124.278 209.905 123.351 210.51 122.809C211.086 122.291 212.058 122.345 212.575 122.921L218.654 129.698C218.918 129.991 219.05 130.362 219.03 130.758C219.006 131.148 218.836 131.504 218.542 131.764C218.274 132.008 217.927 132.14 217.565 132.14Z" fill="#FF4D40"/>
<path d="M48.0941 58.6728C47.2836 58.6728 46.6293 58.0186 46.6293 57.208V34.5225C46.6293 34.1367 46.7855 33.7559 47.059 33.4873C47.3275 33.2139 47.7084 33.0576 48.0941 33.0576H114.535C115.345 33.0576 115.999 33.7119 115.999 34.5225C115.999 35.3281 115.345 35.9873 114.535 35.9873H49.559V57.208C49.559 58.0186 48.8998 58.6728 48.0941 58.6728Z" fill="#141517"/>
</svg>
