<svg width="250" height="250" viewBox="0 0 250 250" fill="none" xmlns="http://www.w3.org/2000/svg">
<path d="M206.023 170.577C205.279 170.577 204.677 169.974 204.677 169.231V91.3113C204.677 90.5682 205.279 89.9658 206.023 89.9658C206.766 89.9658 207.368 90.5682 207.368 91.3113V169.231C207.368 169.976 206.766 170.577 206.023 170.577Z" fill="#141517"/>
<path d="M217.511 170.577C216.768 170.577 216.166 169.974 216.166 169.231V91.3113C216.166 90.5682 216.768 89.9658 217.511 89.9658C218.254 89.9658 218.857 90.5682 218.857 91.3113V169.231C218.857 169.976 218.254 170.577 217.511 170.577Z" fill="#141517"/>
<path d="M206.023 98.3109C202.166 98.3109 199.029 95.1704 199.029 91.3106C199.029 87.4584 202.166 84.3242 206.023 84.3242C209.875 84.3242 213.009 87.4584 213.009 91.3106C213.009 95.1709 209.875 98.3109 206.023 98.3109ZM206.023 87.0153C203.651 87.0153 201.72 88.942 201.72 91.3106C201.72 93.6868 203.651 95.6198 206.023 95.6198C208.39 95.6198 210.318 93.6863 210.318 91.3106C210.318 88.942 208.391 87.0153 206.023 87.0153Z" fill="#FF4D40"/>
<path d="M206.023 176.219C202.166 176.219 199.029 173.084 199.029 169.232C199.029 165.372 202.166 162.231 206.023 162.231C209.875 162.231 213.009 165.372 213.009 169.232C213.009 173.083 209.875 176.219 206.023 176.219ZM206.023 164.922C203.651 164.922 201.72 166.855 201.72 169.231C201.72 171.6 203.651 173.526 206.023 173.526C208.39 173.526 210.318 171.6 210.318 169.231C210.318 166.855 208.391 164.922 206.023 164.922Z" fill="#FF4D40"/>
<path d="M217.51 92.6568C217.139 92.6568 216.77 92.5043 216.504 92.2052C216.01 91.6499 216.06 90.7995 216.616 90.3057L228.118 80.0803C228.673 79.5869 229.524 79.6358 230.017 80.1919C230.511 80.7472 230.46 81.5976 229.906 82.0914L218.403 92.3168C218.147 92.5447 217.828 92.6568 217.51 92.6568Z" fill="#141517"/>
<path d="M229.012 88.0789C225.156 88.0789 222.019 84.9416 222.019 81.0853C222.019 77.2291 225.156 74.0918 229.012 74.0918C232.865 74.0918 236 77.2291 236 81.0853C236 84.9416 232.865 88.0789 229.012 88.0789ZM229.012 76.7828C226.64 76.7828 224.71 78.7127 224.71 81.0853C224.71 83.4579 226.64 85.3879 229.012 85.3879C231.381 85.3879 233.309 83.4579 233.309 81.0853C233.309 78.7127 231.381 76.7828 229.012 76.7828Z" fill="#FF4D40"/>
<path d="M229.013 180.802C228.695 180.802 228.376 180.689 228.12 180.462L216.617 170.236C216.062 169.742 216.011 168.892 216.506 168.336C216.999 167.781 217.85 167.731 218.405 168.225L229.907 178.451C230.462 178.945 230.512 179.795 230.019 180.349C229.753 180.649 229.384 180.802 229.013 180.802Z" fill="#141517"/>
<path d="M229.012 186.444C225.156 186.444 222.019 183.31 222.019 179.457C222.019 175.6 225.156 172.463 229.012 172.463C232.865 172.463 236 175.6 236 179.457C236 183.31 232.865 186.444 229.012 186.444ZM229.012 175.154C226.64 175.154 224.71 177.085 224.71 179.457C224.71 181.826 226.64 183.753 229.012 183.753C231.381 183.753 233.309 181.826 233.309 179.457C233.309 177.084 231.381 175.154 229.012 175.154Z" fill="#FF4D40"/>
<path d="M56.9827 170.577C56.2395 170.577 55.6372 169.974 55.6372 169.231V91.3113C55.6372 90.5682 56.2395 89.9658 56.9827 89.9658C57.7259 89.9658 58.3282 90.5682 58.3282 91.3113V169.231C58.3282 169.976 57.7259 170.577 56.9827 170.577Z" fill="#141517"/>
<path d="M45.4942 170.577C44.751 170.577 44.1487 169.974 44.1487 169.231V91.3113C44.1487 90.5682 44.751 89.9658 45.4942 89.9658C46.2374 89.9658 46.8397 90.5682 46.8397 91.3113V169.231C46.8397 169.976 46.2374 170.577 45.4942 170.577Z" fill="#141517"/>
<path d="M56.9835 98.3109C53.1268 98.3109 49.9895 95.1704 49.9895 91.3106C49.9895 87.4584 53.1268 84.3242 56.9835 84.3242C60.8397 84.3242 63.977 87.4584 63.977 91.3106C63.977 95.1709 60.8397 98.3109 56.9835 98.3109ZM56.9835 87.0153C54.6109 87.0153 52.6805 88.942 52.6805 91.3106C52.6805 93.6868 54.6109 95.6198 56.9835 95.6198C59.3561 95.6198 61.286 93.6863 61.286 91.3106C61.286 88.942 59.3561 87.0153 56.9835 87.0153Z" fill="#FF4D40"/>
<path d="M56.9835 176.219C53.1268 176.219 49.9895 173.084 49.9895 169.232C49.9895 165.372 53.1268 162.231 56.9835 162.231C60.8397 162.231 63.977 165.372 63.977 169.232C63.977 173.083 60.8397 176.219 56.9835 176.219ZM56.9835 164.922C54.6109 164.922 52.6805 166.855 52.6805 169.231C52.6805 171.6 54.6109 173.526 56.9835 173.526C59.3561 173.526 61.286 171.6 61.286 169.231C61.286 166.855 59.3561 164.922 56.9835 164.922Z" fill="#FF4D40"/>
<path d="M45.4947 92.6567C45.1767 92.6567 44.8574 92.5446 44.6009 92.3167L33.1061 82.0913C32.5509 81.597 32.5011 80.7466 32.9949 80.1914C33.4887 79.6361 34.3391 79.5868 34.8947 80.0801L46.3895 90.3056C46.9447 90.7999 46.9945 91.6502 46.5007 92.2055C46.2348 92.5042 45.8656 92.6567 45.4947 92.6567Z" fill="#141517"/>
<path d="M33.9998 88.0789C30.14 88.0789 27 84.9416 27 81.0853C27 77.2291 30.14 74.0918 33.9998 74.0918C37.8516 74.0918 40.9853 77.2291 40.9853 81.0853C40.9853 84.9416 37.852 88.0789 33.9998 88.0789ZM33.9998 76.7828C31.6241 76.7828 29.691 78.7127 29.691 81.0853C29.691 83.4579 31.6241 85.3879 33.9998 85.3879C36.3679 85.3879 38.2943 83.4579 38.2943 81.0853C38.2943 78.7127 36.3679 76.7828 33.9998 76.7828Z" fill="#FF4D40"/>
<path d="M34.0009 180.802C33.63 180.802 33.2608 180.649 32.9949 180.351C32.5011 179.795 32.5509 178.944 33.1061 178.451L44.6009 168.225C45.1561 167.731 46.0065 167.781 46.5007 168.336C46.9945 168.892 46.9447 169.743 46.3895 170.235L34.8947 180.461C34.6387 180.69 34.3193 180.802 34.0009 180.802Z" fill="#141517"/>
<path d="M33.9998 186.444C30.14 186.444 27 183.31 27 179.457C27 175.6 30.14 172.463 33.9998 172.463C37.8516 172.463 40.9853 175.6 40.9853 179.457C40.9857 183.31 37.852 186.444 33.9998 186.444ZM33.9998 175.154C31.6241 175.154 29.691 177.085 29.691 179.457C29.691 181.826 31.6241 183.753 33.9998 183.753C36.3679 183.753 38.2943 181.826 38.2943 179.457C38.2947 177.084 36.3679 175.154 33.9998 175.154Z" fill="#FF4D40"/>
<path d="M160.145 97.0485C158.521 97.0485 156.88 96.8538 155.268 96.4694C154.81 96.3604 154.444 96.0205 154.3 95.5729C152.114 88.7847 147.059 83.3637 140.434 80.7004C139.998 80.5251 139.685 80.1344 139.608 79.6707C139.419 78.5198 139.322 77.3609 139.322 76.2266C139.322 64.7453 148.663 55.4043 160.145 55.4043C171.629 55.4043 180.973 64.7453 180.973 76.2266C180.974 87.7079 171.63 97.0485 160.145 97.0485ZM156.611 94.0085C157.785 94.2404 158.971 94.3574 160.145 94.3574C170.146 94.3574 178.282 86.2242 178.282 76.2266C178.282 66.229 170.145 58.0953 160.145 58.0953C150.147 58.0953 142.013 66.229 142.013 76.2266C142.013 76.9765 142.062 77.7403 142.158 78.5055C148.935 81.4598 154.144 87.0481 156.611 94.0085Z" fill="#141517"/>
<path d="M198.996 143.139H159.383C158.64 143.139 158.038 142.537 158.038 141.794C158.038 141.051 158.64 140.448 159.383 140.448H197.65V113.887L172.324 103.943L160.246 114.742C159.721 115.211 158.924 115.197 158.416 114.709L154.793 111.223C154.258 110.707 154.241 109.856 154.756 109.32C155.271 108.785 156.123 108.769 156.658 109.283L159.382 111.904L171.146 101.385C171.526 101.046 172.063 100.949 172.536 101.135L199.487 111.718C200.002 111.921 200.34 112.418 200.34 112.971V141.795C200.341 142.537 199.739 143.139 198.996 143.139Z" fill="#141517"/>
<path d="M185.776 143.084H159.253C158.51 143.084 157.908 142.482 157.908 141.738C157.908 140.996 158.51 140.393 159.253 140.393H184.431V123.662C184.431 122.919 185.034 122.316 185.776 122.316C186.52 122.316 187.122 122.919 187.122 123.662V141.738C187.122 142.482 186.52 143.084 185.776 143.084Z" fill="#141517"/>
<path d="M172.758 117.555H153.04C152.297 117.555 151.695 116.952 151.695 116.209C151.695 115.466 152.297 114.864 153.04 114.864H171.412V102.388C171.412 101.644 172.015 101.042 172.758 101.042C173.501 101.042 174.103 101.644 174.103 102.388V116.209C174.103 116.952 173.501 117.555 172.758 117.555Z" fill="#FF4D40"/>
<path d="M131.505 129.578C116.815 129.578 104.864 117.627 104.864 102.937C104.864 88.2462 116.815 76.2949 131.505 76.2949C146.196 76.2949 158.148 88.2462 158.148 102.937C158.148 117.627 146.196 129.578 131.505 129.578ZM131.505 78.986C118.299 78.986 107.555 89.7303 107.555 102.937C107.555 116.143 118.299 126.887 131.505 126.887C144.712 126.887 155.457 116.143 155.457 102.937C155.457 89.7303 144.712 78.986 131.505 78.986Z" fill="#141517"/>
<path d="M155.161 97.8856C147.849 97.8856 141.034 94.9851 135.971 89.7179C135.477 89.2048 135.469 88.3957 135.952 87.8727C138.18 85.4593 139.864 82.6651 140.955 79.5673C141.081 79.209 141.354 78.921 141.704 78.7739C142.055 78.6264 142.451 78.6349 142.796 78.7963C149.99 82.1659 155.27 88.5047 157.281 96.1858C157.384 96.5831 157.302 97.0065 157.055 97.3348C156.808 97.6631 156.425 97.8609 156.014 97.8717C155.735 97.8789 155.448 97.8856 155.161 97.8856ZM138.788 88.7218C142.995 92.6798 148.384 94.9421 154.167 95.1748C152.225 89.4882 148.236 84.7606 142.945 81.8861C141.91 84.3686 140.517 86.6586 138.788 88.7218Z" fill="#141517"/>
<path d="M118.35 98.2775C114.413 98.2775 110.614 97.4334 107.059 95.7686C106.434 95.4757 106.132 94.7563 106.361 94.1042C110.102 83.4522 120.206 76.2949 131.505 76.2949C135.445 76.2949 139.243 77.1363 142.794 78.7958C143.421 79.0887 143.723 79.8085 143.494 80.4606C139.748 91.1176 129.643 98.2775 118.35 98.2775ZM109.343 93.8315C112.204 94.9967 115.228 95.5865 118.35 95.5865C128.086 95.5865 136.839 89.668 140.511 80.7347C137.652 79.5739 134.629 78.9864 131.505 78.9864C121.764 78.9864 113.011 84.9017 109.343 93.8315Z" fill="#141517"/>
<path d="M181.963 189.435H80.1323C79.3892 189.435 78.7868 188.832 78.7868 188.089V184.092C78.7868 183.349 79.3892 182.747 80.1323 182.747C80.8755 182.747 81.4779 183.349 81.4779 184.092V186.744H180.617V151.577L147.234 138.462L131.359 152.651C130.835 153.121 130.037 153.106 129.53 152.618L114.826 138.476L81.4774 151.578V161.668C81.4774 162.411 80.8751 163.013 80.1319 163.013C79.3887 163.013 78.7864 162.411 78.7864 161.668V150.661C78.7864 150.108 79.125 149.611 79.6399 149.409L114.646 135.656C115.135 135.464 115.692 135.573 116.071 135.938L130.496 149.814L146.059 135.904C146.437 135.565 146.974 135.469 147.447 135.655L182.455 149.408C182.97 149.61 183.308 150.107 183.308 150.66V188.089C183.308 188.833 182.706 189.435 181.963 189.435Z" fill="#141517"/>
<path d="M164.792 189.367H97.3018C96.5586 189.367 95.9563 188.764 95.9563 188.021V164.537C95.9563 163.794 96.5586 163.191 97.3018 163.191C98.045 163.191 98.6473 163.794 98.6473 164.537V186.676H163.446V164.537C163.446 163.794 164.049 163.191 164.792 163.191C165.535 163.191 166.137 163.794 166.137 164.537V188.021C166.137 188.764 165.535 189.367 164.792 189.367Z" fill="#141517"/>
<path d="M147.881 156.219H114.211C113.468 156.219 112.866 155.617 112.866 154.874V136.907C112.866 136.164 113.468 135.562 114.211 135.562C114.954 135.562 115.557 136.164 115.557 136.907V153.528H146.535V136.907C146.535 136.164 147.137 135.562 147.881 135.562C148.623 135.562 149.226 136.164 149.226 136.907V154.874C149.226 155.617 148.625 156.219 147.881 156.219Z" fill="#FF4D40"/>
<path d="M102.573 96.6504C91.0915 96.6504 81.75 87.3067 81.75 75.8219C81.75 64.3406 91.0915 55 102.573 55C114.054 55 123.395 64.3406 123.395 75.8219C123.395 76.9561 123.299 78.1173 123.109 79.2718C123.034 79.736 122.72 80.1266 122.284 80.3024C115.665 82.9656 110.61 88.3872 108.416 95.1767C108.272 95.6229 107.906 95.962 107.45 96.0714C105.847 96.4558 104.207 96.6504 102.573 96.6504ZM102.573 57.691C92.5751 57.691 84.441 65.8242 84.441 75.8219C84.441 85.8231 92.5751 93.9594 102.573 93.9594C103.753 93.9594 104.938 93.8423 106.106 93.6109C108.579 86.6501 113.789 81.0622 120.559 78.1079C120.655 77.3396 120.704 76.5736 120.704 75.8219C120.704 65.8242 112.57 57.691 102.573 57.691Z" fill="#141517"/>
<path d="M103.334 142.741H63.7288C62.9856 142.741 62.3833 142.139 62.3833 141.396V112.571C62.3833 112.018 62.7219 111.521 63.2368 111.319L90.1875 100.73C90.6602 100.544 91.198 100.64 91.5765 100.98L103.336 111.499L106.061 108.884C106.596 108.369 107.448 108.386 107.963 108.922C108.478 109.458 108.46 110.31 107.925 110.825L104.301 114.304C103.793 114.791 102.996 114.806 102.472 114.336L90.4005 103.538L65.0748 113.488V140.05H103.334C104.077 140.05 104.679 140.653 104.679 141.396C104.679 142.139 104.077 142.741 103.334 142.741Z" fill="#141517"/>
<path d="M103.465 142.686H76.9483C76.2051 142.686 75.6028 142.084 75.6028 141.341V123.258C75.6028 122.514 76.2051 121.912 76.9483 121.912C77.6915 121.912 78.2938 122.514 78.2938 123.258V139.995H103.465C104.208 139.995 104.811 140.598 104.811 141.341C104.811 142.084 104.208 142.686 103.465 142.686Z" fill="#141517"/>
<path d="M109.682 117.156H89.9586C89.2154 117.156 88.613 116.554 88.613 115.811V101.982C88.613 101.239 89.2154 100.637 89.9586 100.637C90.7017 100.637 91.3041 101.239 91.3041 101.982V114.465H109.682C110.426 114.465 111.028 115.067 111.028 115.811C111.028 116.554 110.425 117.156 109.682 117.156Z" fill="#FF4D40"/>
<path d="M119.467 142.131C118.727 142.131 118.125 141.532 118.122 140.79L118.06 125.7C118.057 124.957 118.657 124.352 119.4 124.349C119.402 124.349 119.404 124.349 119.406 124.349C120.147 124.349 120.748 124.948 120.752 125.689L120.813 140.78C120.816 141.523 120.216 142.128 119.473 142.131C119.471 142.131 119.469 142.131 119.467 142.131ZM142.622 142.131C141.882 142.131 141.28 141.532 141.276 140.791L141.21 125.7C141.206 124.957 141.806 124.352 142.549 124.349C142.551 124.349 142.553 124.349 142.555 124.349C143.296 124.349 143.897 124.947 143.901 125.688L143.968 140.779C143.971 141.522 143.371 142.127 142.628 142.131C142.626 142.131 142.624 142.131 142.622 142.131Z" fill="#141517"/>
</svg>
