<svg width="250" height="250" viewBox="0 0 250 250" fill="none" xmlns="http://www.w3.org/2000/svg">
<path d="M171.285 215.608C170.593 215.608 170.035 215.05 170.035 214.358C170.035 213.671 170.593 213.108 171.285 213.108H183.235V81.7291C183.235 81.0374 183.797 80.4791 184.485 80.4791C185.172 80.4791 185.735 81.0374 185.735 81.7291V214.358C185.735 214.692 185.605 215.008 185.368 215.242C185.131 215.479 184.818 215.608 184.485 215.608H171.285ZM162.951 215.608C162.26 215.608 161.701 215.05 161.701 214.358C161.701 213.671 162.26 213.108 162.951 213.108C163.638 213.108 164.197 213.671 164.197 214.358C164.197 215.05 163.639 215.608 162.951 215.608ZM154.618 215.608H47.25C46.9208 215.608 46.6 215.475 46.3667 215.242C46.1333 215.008 46 214.687 46 214.358V175.892C46 175.2 46.5625 174.642 47.25 174.642C47.9417 174.642 48.5 175.2 48.5 175.892V213.108H154.618C155.305 213.108 155.868 213.671 155.868 214.358V214.392C155.847 215.075 155.301 215.608 154.618 215.608ZM47.25 168.808C46.5625 168.808 46 168.246 46 167.558C46 166.867 46.5625 166.308 47.25 166.308C47.9417 166.308 48.5 166.867 48.5 167.558C48.5 168.246 47.9417 168.808 47.25 168.808ZM47.25 160.475C46.5625 160.475 46 159.912 46 159.225V56.4583C46 56.1291 46.1333 55.8083 46.3667 55.5749C46.6 55.3416 46.9208 55.2083 47.25 55.2083H184.485C184.814 55.2083 185.135 55.3416 185.368 55.5749C185.602 55.8083 185.735 56.1291 185.735 56.4583V65.0624C185.735 65.7499 185.172 66.3124 184.485 66.3124C183.797 66.3124 183.235 65.7499 183.235 65.0624V57.7083H48.5V159.225C48.5 159.912 47.9417 160.475 47.25 160.475ZM184.485 74.6458C183.797 74.6458 183.235 74.0833 183.235 73.3958C183.235 72.7041 183.797 72.1458 184.485 72.1458C185.172 72.1458 185.735 72.7041 185.735 73.3958C185.735 74.0833 185.172 74.6458 184.485 74.6458Z" fill="#141517"/>
<path d="M193.872 205.274H184.484C184.155 205.274 183.834 205.141 183.601 204.908C183.368 204.674 183.234 204.353 183.234 204.024V200.212C183.234 199.52 183.797 198.962 184.484 198.962C185.171 198.962 185.734 199.52 185.734 200.212V202.774H192.622V71.3957C192.622 70.7041 193.184 70.1458 193.872 70.1458C194.563 70.1458 195.122 70.7041 195.122 71.3957V204.024C195.122 204.358 194.992 204.674 194.755 204.908C194.522 205.145 194.205 205.274 193.872 205.274ZM184.484 193.128C183.797 193.128 183.234 192.566 183.234 191.878C183.234 191.187 183.797 190.628 184.484 190.628C185.171 190.628 185.734 191.187 185.734 191.878C185.734 192.566 185.171 193.128 184.484 193.128ZM184.484 184.795C183.797 184.795 183.234 184.233 183.234 183.545V57.7083H165.734C165.047 57.7083 164.484 57.15 164.484 56.4583C164.484 55.7708 165.047 55.2083 165.734 55.2083H184.484C184.813 55.2083 185.134 55.3417 185.368 55.575C185.601 55.8083 185.734 56.1292 185.734 56.4583V183.545C185.734 184.233 185.171 184.795 184.484 184.795ZM193.872 64.3125C193.184 64.3125 192.622 63.75 192.622 63.0625C192.622 62.3708 193.184 61.8125 193.872 61.8125C194.563 61.8125 195.122 62.3708 195.122 63.0625C195.122 63.75 194.563 64.3125 193.872 64.3125ZM157.401 57.7083C156.713 57.7083 156.151 57.15 156.151 56.4583C156.151 55.7708 156.713 55.2083 157.401 55.2083C158.092 55.2083 158.651 55.7708 158.651 56.4583C158.651 57.15 158.092 57.7083 157.401 57.7083ZM149.067 57.7083H56.6543C56.3251 57.7083 56.0043 57.575 55.771 57.3458C55.5376 57.1125 55.4043 56.7875 55.4043 56.4583V46.1125C55.4043 45.7834 55.5376 45.4625 55.771 45.2292C56.0001 44.9959 56.3251 44.8625 56.6543 44.8625H193.872C194.201 44.8625 194.526 44.9959 194.755 45.2292C194.988 45.4625 195.122 45.7834 195.122 46.1125V54.7292C195.122 55.4167 194.563 55.9792 193.872 55.9792C193.184 55.9792 192.622 55.4167 192.622 54.7292V47.3625H57.9043V55.2083H149.067C149.759 55.2083 150.317 55.7708 150.317 56.4583C150.317 57.15 149.759 57.7083 149.067 57.7083Z" fill="#141517"/>
<path d="M203.273 195.4H193.869C193.544 195.4 193.219 195.267 192.986 195.033C192.752 194.804 192.619 194.479 192.619 194.15V190.337C192.619 189.646 193.182 189.087 193.869 189.087C194.561 189.087 195.119 189.646 195.119 190.337V192.9H202.023V61.5333C202.023 60.8417 202.581 60.2833 203.273 60.2833C203.961 60.2833 204.519 60.8417 204.519 61.5333V194.15C204.519 194.487 204.39 194.8 204.156 195.033C203.919 195.27 203.606 195.4 203.273 195.4ZM193.869 183.254C193.182 183.254 192.619 182.692 192.619 182.004C192.619 181.312 193.182 180.754 193.869 180.754C194.561 180.754 195.119 181.312 195.119 182.004C195.119 182.692 194.561 183.254 193.869 183.254ZM193.869 174.921C193.182 174.921 192.619 174.358 192.619 173.671V47.3625H175.595C174.907 47.3625 174.345 46.8042 174.345 46.1125C174.345 45.425 174.907 44.8625 175.595 44.8625H193.869C194.199 44.8625 194.519 44.9958 194.752 45.2292C194.986 45.4625 195.119 45.7833 195.119 46.1125V173.671C195.119 174.358 194.561 174.921 193.869 174.921ZM203.273 54.45C202.582 54.45 202.023 53.8875 202.023 53.2C202.023 52.5083 202.582 51.95 203.273 51.95C203.961 51.95 204.519 52.5083 204.519 53.2C204.519 53.8875 203.961 54.45 203.273 54.45ZM167.261 47.3625C166.574 47.3625 166.011 46.8042 166.011 46.1125C166.011 45.425 166.574 44.8625 167.261 44.8625C167.949 44.8625 168.511 45.425 168.511 46.1125C168.511 46.8042 167.949 47.3625 167.261 47.3625ZM158.928 47.3625H66.0542C65.725 47.3625 65.4042 47.2292 65.1709 46.9958C64.9375 46.7625 64.8042 46.4417 64.8042 46.1125V36.25C64.8042 35.925 64.9375 35.6 65.1709 35.3667C65.4042 35.1333 65.725 35 66.0542 35H203.273C203.603 35 203.924 35.1333 204.157 35.3667C204.386 35.6 204.519 35.9208 204.519 36.25L204.523 44.8667C204.523 45.5542 203.961 46.1167 203.273 46.1167C202.582 46.1167 202.023 45.5542 202.023 44.8667V37.5H67.3042V44.8625H158.928C159.616 44.8625 160.178 45.425 160.178 46.1125C160.178 46.8042 159.616 47.3625 158.928 47.3625Z" fill="#141517"/>
<path d="M182.485 80.9791H47.25C46.9208 80.9791 46.6 80.8458 46.3667 80.6124C46.1333 80.3791 46 80.0583 46 79.7291V69.1249C46 68.4374 46.5625 67.8749 47.25 67.8749C47.9417 67.8749 48.5 68.4374 48.5 69.1249V78.4791H182.485C183.172 78.4791 183.735 79.0374 183.735 79.7291C183.735 80.4166 183.172 80.9791 182.485 80.9791ZM184.485 74.6458C183.797 74.6458 183.235 74.0833 183.235 73.3958C183.235 72.7041 183.797 72.1458 184.485 72.1458C185.172 72.1458 185.735 72.7041 185.735 73.3958C185.735 74.0833 185.172 74.6458 184.485 74.6458ZM184.485 66.3124C183.797 66.3124 183.235 65.7499 183.235 65.0624V57.7083H47.2583C47.2542 57.7083 47.2542 57.7083 47.25 57.7083C46.5625 57.7083 46 57.1499 46 56.4583C46 55.7708 46.5625 55.2083 47.25 55.2083H184.485C184.814 55.2083 185.135 55.3416 185.368 55.5749C185.602 55.8083 185.735 56.1291 185.735 56.4583V65.0624C185.735 65.7499 185.172 66.3124 184.485 66.3124ZM47.25 62.0416C46.5625 62.0416 46 61.4833 46 60.7916C46 60.1041 46.5625 59.5416 47.25 59.5416C47.9417 59.5416 48.5 60.1041 48.5 60.7916C48.5 61.4833 47.9417 62.0416 47.25 62.0416Z" fill="#141517"/>
<path d="M115.862 173.825C115.746 173.825 115.629 173.808 115.517 173.775L85.4874 165.208C84.9499 165.054 84.5791 164.563 84.5791 164.008V124.013C84.5791 123.625 84.7624 123.25 85.0749 123.013C85.3833 122.783 85.7999 122.704 86.1708 122.808L116.204 131.379C116.737 131.529 117.112 132.025 117.112 132.579V172.575C117.112 172.962 116.925 173.337 116.612 173.57C116.396 173.733 116.129 173.825 115.862 173.825ZM87.0791 163.063L114.612 170.917V133.525L87.0791 125.667V163.063Z" fill="#FF4D40"/>
<path d="M115.863 173.825C115.592 173.825 115.325 173.733 115.108 173.571C114.796 173.338 114.613 172.963 114.613 172.575V132.579C114.613 132.025 114.983 131.529 115.517 131.38L145.55 122.809C145.925 122.705 146.333 122.78 146.646 123.013C146.958 123.251 147.142 123.621 147.142 124.013V164.009C147.142 164.563 146.771 165.055 146.238 165.209L116.204 173.776C116.092 173.808 115.979 173.825 115.863 173.825ZM117.113 133.525V170.917L144.642 163.062V125.667L117.113 133.525Z" fill="#FF4D40"/>
<path d="M115.862 133.829C115.742 133.829 115.629 133.812 115.517 133.783L85.4874 125.213C84.9499 125.063 84.5791 124.567 84.5791 124.013C84.5791 123.458 84.9499 122.963 85.4874 122.808L115.517 114.242C115.737 114.179 115.983 114.179 116.204 114.242L146.237 122.813C146.237 122.808 146.237 122.808 146.237 122.808C146.771 122.963 147.142 123.458 147.142 124.013C147.142 124.567 146.771 125.063 146.237 125.213L116.204 133.783C116.092 133.812 115.979 133.829 115.862 133.829ZM90.3833 124.013L115.862 131.279L141.337 124.013L115.862 116.742L90.3833 124.013Z" fill="#FF4D40"/>
<path d="M172.483 183.004H59.2375C58.55 183.004 57.9875 182.441 57.9875 181.754C57.9875 181.062 58.55 180.504 59.2375 180.504H172.483C173.17 180.504 173.733 181.062 173.733 181.754C173.733 182.441 173.171 183.004 172.483 183.004Z" fill="#141517"/>
<path d="M172.484 190.95H59.2417C58.55 190.95 57.9917 190.387 57.9917 189.7C57.9917 189.008 58.55 188.45 59.2417 188.45H172.484C173.171 188.45 173.734 189.008 173.734 189.7C173.734 190.387 173.172 190.95 172.484 190.95Z" fill="#141517"/>
<path d="M168.267 73.3293C165.375 73.3251 163.025 70.9709 163.025 68.0876C163.025 65.2001 165.379 62.8459 168.267 62.8459C171.15 62.8459 173.504 65.1959 173.508 68.0876C173.504 69.4918 172.958 70.8084 171.971 71.7959C170.983 72.7834 169.671 73.3251 168.267 73.3293ZM168.267 65.3459C166.758 65.3501 165.525 66.5793 165.525 68.0876C165.525 69.6001 166.758 70.8293 168.267 70.8293C169.8 70.8251 171.004 69.6209 171.008 68.0876C171.008 66.5793 169.779 65.3501 168.267 65.3459Z" fill="#FF4D40"/>
<path d="M151.7 73.3293C150.3 73.3293 148.979 72.7834 147.987 71.7959C146.996 70.8084 146.45 69.4918 146.446 68.0876C146.45 65.2001 148.804 62.8459 151.7 62.8459C154.587 62.8459 156.941 65.2001 156.941 68.0876C156.941 69.4918 156.392 70.8084 155.404 71.7959C154.417 72.7834 153.1 73.3293 151.7 73.3293ZM151.7 65.3459C150.183 65.3459 148.95 66.5793 148.946 68.0876C148.946 69.6001 150.183 70.8293 151.7 70.8293C153.212 70.8293 154.441 69.6001 154.441 68.0876C154.441 66.5793 153.208 65.3459 151.7 65.3459Z" fill="#FF4D40"/>
<path d="M133.483 149.375H98.2375C97.55 149.375 96.9875 148.817 96.9875 148.125C96.9875 147.438 97.55 146.875 98.2375 146.875H133.483C134.171 146.875 134.733 147.438 134.733 148.125C134.733 148.817 134.171 149.375 133.483 149.375Z" fill="#FF4D40"/>
</svg>
