<svg width="250" height="250" viewBox="0 0 250 250" fill="none" xmlns="http://www.w3.org/2000/svg">
<path d="M95.0155 217.628C94.8524 217.628 94.6885 217.595 94.5333 217.53L61.579 203.56C61.1131 203.362 60.8098 202.9 60.8098 202.388V77.931C60.8098 77.5051 61.0201 77.1076 61.37 76.8727C61.7196 76.6373 62.1626 76.5954 62.5489 76.7618L73.3946 81.4183C73.702 81.5504 73.9448 81.8014 74.0691 82.116C78.087 92.3096 87.0573 101.924 95.9003 110.899C96.1351 111.137 96.267 111.46 96.267 111.797V216.358C96.267 216.783 96.0575 217.179 95.7092 217.415C95.5007 217.556 95.2587 217.628 95.0155 217.628ZM63.3127 201.542L93.7641 214.45V112.323C84.9962 103.41 76.164 93.8598 71.9434 83.5531L63.3127 79.8478V201.542Z" fill="#141517"/>
<path d="M95.0168 217.629C94.7728 217.629 94.53 217.556 94.321 217.415C93.974 217.179 93.7654 216.783 93.7654 216.359V111.799C93.7654 111.285 94.0703 110.822 94.5379 110.626C95.0051 110.428 95.5437 110.538 95.9016 110.901C99.227 114.275 102.653 117.753 105.452 120.901C108.257 117.782 111.35 114.689 114.604 111.434C118.91 107.128 123.363 102.674 127.438 97.8497C127.778 97.4463 128.331 97.3002 128.822 97.4852C129.313 97.6698 129.639 98.1448 129.639 98.676V202.39C129.639 202.904 129.334 203.368 128.865 203.564L95.494 217.534C95.3405 217.598 95.1787 217.629 95.0168 217.629ZM96.2682 114.868V214.462L127.137 201.54V102.038C123.63 105.974 119.945 109.659 116.362 113.243C112.769 116.837 109.375 120.231 106.381 123.65C106.144 123.921 105.803 124.076 105.446 124.076C105.444 124.076 105.442 124.076 105.441 124.076C105.082 124.075 104.74 123.917 104.504 123.642C102.17 120.934 99.2433 117.899 96.2682 114.868Z" fill="#141517"/>
<path d="M161.341 217.628C161.178 217.628 161.014 217.595 160.859 217.53L127.905 203.56C127.439 203.362 127.135 202.9 127.135 202.388V98.6738C127.135 98.3767 127.238 98.0892 127.425 97.8611C132.344 91.871 135.457 86.7476 137.219 81.7375C137.336 81.4061 137.583 81.1385 137.901 80.9989C138.22 80.8587 138.581 80.8596 138.899 81.0005L161.842 91.1603C162.298 91.3622 162.593 91.8194 162.593 92.3244V216.358C162.593 216.783 162.383 217.179 162.035 217.415C161.826 217.556 161.584 217.628 161.341 217.628ZM129.638 201.542L160.09 214.45V93.1554L139.103 83.8622C137.22 88.6525 134.182 93.5504 129.638 99.1323V201.542Z" fill="#141517"/>
<path d="M161.342 217.628C161.099 217.628 160.857 217.556 160.649 217.415C160.3 217.179 160.091 216.783 160.091 216.358V92.324C160.091 91.8169 160.388 91.358 160.848 91.1574L193.802 76.7644C194.188 76.5959 194.633 76.6353 194.985 76.8702C195.336 77.1052 195.548 77.5039 195.548 77.9311V202.388C195.548 202.9 195.245 203.362 194.779 203.56L161.825 217.53C161.67 217.595 161.506 217.628 161.342 217.628ZM162.594 93.1601V214.451L193.045 201.542V79.8602L162.594 93.1601Z" fill="#141517"/>
<path d="M105.444 124.073C105.093 124.073 104.757 123.923 104.52 123.66C101.869 120.717 98.8948 117.698 95.7454 114.503C83.0846 101.654 68.7354 87.092 68.7354 70.3103C68.7354 49.7694 85.2029 33.0579 105.444 33.0579C125.685 33.0579 142.152 49.7694 142.152 70.3103C142.152 87.092 127.803 101.654 115.142 114.503C111.993 117.699 109.019 120.717 106.368 123.66C106.131 123.923 105.796 124.073 105.444 124.073ZM105.444 35.5982C86.5828 35.5982 71.2382 51.1701 71.2382 70.3107C71.2382 86.0401 85.1983 100.207 97.5153 112.707C100.326 115.56 102.999 118.272 105.444 120.931C107.888 118.272 110.561 115.56 113.372 112.707C125.689 100.207 139.649 86.0405 139.649 70.3107C139.65 51.1701 124.305 35.5982 105.444 35.5982Z" fill="#FF4D40"/>
<path d="M105.446 89.3607C94.818 89.3607 85.8398 80.2495 85.8398 69.4645C85.8398 58.2604 94.6349 49.145 105.446 49.145C110.824 49.145 115.86 51.2502 119.627 55.0732C123.394 58.8958 125.468 64.007 125.468 69.4645C125.469 80.4353 116.486 89.3607 105.446 89.3607ZM105.446 51.685C96.0152 51.685 88.3427 59.6608 88.3427 69.4645C88.3427 78.8724 96.175 86.8207 105.446 86.8207C115.106 86.8207 122.966 79.0346 122.966 69.4645C122.966 59.6608 115.106 51.685 105.446 51.685Z" fill="#FF4D40"/>
<path d="M164.679 78.777C164.459 78.777 164.24 78.7186 164.044 78.6018L149.862 70.1353C149.266 69.7797 149.067 69.0012 149.418 68.3967C149.768 67.7926 150.534 67.5907 151.131 67.9459L164.686 76.0381L183.661 64.9763C184.261 64.6266 185.026 64.8366 185.37 65.4449C185.714 66.0532 185.507 66.8292 184.908 67.1784L165.302 78.6081C165.109 78.7207 164.894 78.777 164.679 78.777Z" fill="#141517"/>
<path d="M69.5696 214.239C69.386 214.239 69.1996 214.197 69.0235 214.11L54.4235 206.914C53.9922 206.701 53.719 206.258 53.719 205.772V131.267C53.719 130.566 54.2792 129.997 54.9704 129.997C55.6616 129.997 56.2219 130.566 56.2219 131.267V204.977L70.1173 211.826C70.7393 212.133 70.9983 212.893 70.6963 213.523C70.4798 213.975 70.0339 214.239 69.5696 214.239Z" fill="#141517"/>
<path d="M82.5714 134.202C84.0077 133.906 83.6777 131.428 81.9353 131.776C81.1344 131.983 80.3205 132.215 79.5326 132.46C77.7514 133.183 78.9857 135.363 80.2188 134.86C80.9951 134.627 81.783 134.408 82.5714 134.202ZM92.0819 132.305C93.9002 131.944 93.1631 129.544 91.7774 129.827C90.9635 129.918 90.1113 130.047 89.2975 130.189C87.5938 130.537 88.2041 132.963 89.6917 132.666C90.4792 132.525 91.2939 132.396 92.0819 132.305ZM111.091 133.608C112.452 134.163 113.507 131.905 111.854 131.234C111.027 130.963 110.213 130.718 109.387 130.511C107.683 130.163 107.327 132.64 108.815 132.951C109.578 133.131 110.341 133.376 111.091 133.608ZM119.394 138.073C120.742 139.092 122.154 137.054 120.907 136.098C120.234 135.557 119.534 135.054 118.809 134.576C117.334 133.673 116.165 135.879 117.474 136.679C118.135 137.118 118.771 137.57 119.394 138.073ZM125.586 145.234C126.4 146.615 128.523 145.35 127.672 143.905C127.214 143.17 126.756 142.447 126.248 141.75C125.255 140.408 123.298 141.931 124.264 143.234C124.722 143.892 125.166 144.551 125.586 145.234ZM130.176 153.931C130.71 155.299 133.075 154.551 132.401 152.86L131.333 150.59C131.117 150.047 130.405 149.751 129.82 149.957C129.095 150.241 128.816 150.912 129.121 151.699L130.176 153.931ZM134.016 163.079C134.245 163.673 134.944 164.047 135.618 163.776C136.203 163.531 136.572 162.822 136.292 162.137L135.363 159.816C134.791 158.37 132.465 159.209 133.075 160.77L134.016 163.079ZM138.059 172.332C138.885 173.725 140.883 172.796 140.259 171.183L139.191 168.989C139.025 168.602 138.555 168.266 138.11 168.266C137.156 168.266 136.596 169.144 136.953 170.047C137.309 170.809 137.678 171.57 138.059 172.332ZM143.87 180.822C145.065 182.048 146.757 180.215 145.651 179.106C145.104 178.525 144.608 177.932 144.099 177.312C143.158 176.048 141.137 177.48 142.154 178.86C142.701 179.545 143.26 180.189 143.87 180.822ZM152.287 186.796C153.94 187.467 154.691 185.08 153.318 184.525C152.606 184.19 151.906 183.829 151.207 183.441C149.859 182.616 148.562 184.745 149.999 185.622C150.749 186.048 151.511 186.435 152.287 186.796ZM172.034 190.667C173.751 190.667 173.636 188.164 172.111 188.164C171.297 188.151 170.483 188.112 169.682 188.061C167.864 188.061 168.079 190.564 169.53 190.564L172.034 190.667ZM182.003 190.499C183.478 190.499 183.643 188.009 181.863 188.009L179.422 188.125C177.844 188.125 177.909 190.628 179.51 190.628L182.003 190.499ZM70.0718 135.892C68.6606 136.46 69.5128 138.795 71.0892 138.176L71.0516 138.189C71.8012 137.866 72.5508 137.545 73.3142 137.234C74.8401 136.615 73.9116 134.293 72.4123 134.912C71.6619 135.209 70.8097 135.531 70.0847 135.879L70.136 135.866L70.0718 135.892Z" fill="#FF4D40"/>
</svg>
