<svg width="250" height="250" viewBox="0 0 250 250" fill="none" xmlns="http://www.w3.org/2000/svg">
<path d="M161.811 189.696H68.3199C68.0106 189.696 67.7092 189.571 67.49 189.352C67.2708 189.132 67.1455 188.831 67.1455 188.522C67.1455 185.766 66.0612 183.163 64.0961 181.198C62.1271 179.233 59.5239 178.149 56.7642 178.149C56.455 178.149 56.1496 178.023 55.9343 177.804C55.7151 177.589 55.5898 177.283 55.5898 176.974V160.874C55.5898 160.228 56.1144 159.699 56.7642 159.699C57.4101 159.699 57.9386 160.228 57.9386 160.874V175.855C60.8745 176.129 63.6538 177.432 65.7559 179.534C67.858 181.636 69.1654 184.412 69.4394 187.348H160.691C160.969 184.33 162.335 181.495 164.535 179.374C164.985 178.939 165.76 178.955 166.194 179.405C166.402 179.624 166.519 179.91 166.523 180.212C166.523 180.536 166.398 180.838 166.167 181.061C166.167 181.065 166.167 181.065 166.163 181.065C166.155 181.073 166.147 181.081 166.14 181.089C164.104 183.066 162.984 185.708 162.984 188.522C162.984 188.836 162.863 189.133 162.64 189.352C162.417 189.575 162.123 189.696 161.811 189.696ZM172.329 178.196C171.714 178.196 171.213 177.733 171.158 177.127C171.131 176.814 171.225 176.508 171.425 176.266C171.629 176.027 171.91 175.879 172.224 175.851C172.869 175.796 173.441 176.27 173.5 176.915C173.555 177.561 173.077 178.133 172.431 178.192C172.395 178.191 172.36 178.196 172.329 178.196ZM173.358 171.353C172.709 171.353 172.184 170.824 172.184 170.179V145.916C169.244 145.642 166.473 144.335 164.371 142.237C162.269 140.135 160.961 137.359 160.691 134.423H69.4394C69.1615 137.398 67.8267 140.201 65.6737 142.315C63.5207 144.433 60.6826 145.716 57.6919 145.936C57.4649 146.226 57.1283 146.39 56.7642 146.39C56.1144 146.39 55.5898 145.865 55.5898 145.216V144.797C55.5898 144.488 55.7151 144.182 55.9304 143.967C56.1496 143.748 56.455 143.622 56.7642 143.622C59.52 143.622 62.1271 142.538 64.0961 140.573C66.0612 138.608 67.1455 136.005 67.1455 133.249C67.1455 132.94 67.2708 132.634 67.49 132.419C67.7092 132.2 68.0106 132.075 68.3199 132.075H161.811C162.12 132.075 162.422 132.2 162.64 132.419C162.86 132.639 162.985 132.94 162.985 133.249C162.985 136.009 164.065 138.608 166.03 140.577C167.999 142.539 170.599 143.622 173.358 143.622C173.668 143.622 173.969 143.748 174.188 143.967C174.408 144.182 174.533 144.488 174.533 144.797V170.179C174.533 170.824 174.004 171.353 173.358 171.353ZM56.7642 154.219C56.1144 154.219 55.5898 153.69 55.5898 153.045C55.5898 152.399 56.1144 151.87 56.7642 151.87C57.4101 151.87 57.9386 152.399 57.9386 153.045C57.9386 153.69 57.4101 154.219 56.7642 154.219Z" fill="#141517"/>
<path d="M115.062 175.58C111.14 175.58 107.448 174.053 104.673 171.278C101.901 168.502 100.375 164.815 100.375 160.889C100.375 156.963 101.901 153.271 104.673 150.495C107.448 147.72 111.136 146.189 115.062 146.189C118.988 146.189 122.676 147.72 125.451 150.495C128.227 153.271 129.753 156.963 129.753 160.889C129.753 164.811 128.227 168.502 125.451 171.278C122.676 174.05 118.988 175.58 115.062 175.58ZM115.062 148.538C108.27 148.55 102.735 154.093 102.72 160.889C102.735 167.684 108.27 173.22 115.062 173.231C121.858 173.22 127.393 167.684 127.405 160.889C127.393 154.093 121.858 148.55 115.062 148.538Z" fill="#FF4D40"/>
<path d="M115.712 165.183C116.152 165.089 116.518 164.874 116.799 164.545C117.08 164.227 117.211 163.842 117.211 163.393C117.211 163.009 117.099 162.661 116.865 162.38C116.63 162.09 116.246 161.874 115.712 161.724V165.183ZM114.428 155.772C114.08 155.903 113.809 156.1 113.613 156.39C113.406 156.672 113.312 156.981 113.312 157.318C113.312 157.627 113.397 157.918 113.584 158.19C113.762 158.453 114.053 158.668 114.427 158.837V155.772H114.428ZM114.428 165.032V161.349C113.284 161.012 112.441 160.514 111.906 159.849C111.372 159.183 111.1 158.377 111.1 157.421C111.1 156.456 111.409 155.651 112.009 154.994C112.619 154.338 113.425 153.963 114.428 153.86V152.988H115.712V153.86C116.658 153.972 117.399 154.291 117.961 154.816C118.514 155.341 118.87 156.053 119.021 156.934L116.78 157.225C116.64 156.531 116.283 156.062 115.711 155.809V159.259C117.136 159.643 118.101 160.131 118.607 160.739C119.133 161.35 119.386 162.127 119.386 163.083C119.386 164.152 119.058 165.042 118.41 165.773C117.764 166.504 116.864 166.955 115.711 167.132V168.783H114.427V167.152C113.414 167.029 112.59 166.654 111.962 166.027C111.324 165.399 110.921 164.508 110.743 163.355L113.04 163.084C113.133 163.552 113.311 163.956 113.564 164.302C113.828 164.639 114.108 164.882 114.428 165.032Z" fill="#FF4D40"/>
<path d="M93.0082 199.987C92.3623 199.987 91.8339 199.463 91.8339 198.813C91.8339 198.167 92.3623 197.639 93.0082 197.639H181.265V151.236C181.265 150.59 181.794 150.062 182.44 150.062C183.089 150.062 183.614 150.59 183.614 151.236V198.813C183.614 199.126 183.493 199.424 183.269 199.643C183.05 199.866 182.753 199.987 182.44 199.987H93.0082ZM85.1792 199.987C84.5333 199.987 84.0048 199.463 84.0048 198.813C84.0048 198.167 84.5333 197.639 85.1792 197.639C85.829 197.639 86.3535 198.167 86.3535 198.813C86.3535 199.463 85.829 199.987 85.1792 199.987ZM77.3501 199.987H47.6897C47.3805 199.987 47.0752 199.862 46.8599 199.643C46.6406 199.423 46.5154 199.122 46.5154 198.813V122.957C46.5154 122.648 46.6406 122.343 46.8599 122.124C47.0791 121.908 47.3805 121.783 47.6897 121.783H160.373C160.882 121.783 161.328 122.104 161.489 122.582C163.994 130.082 169.651 136.055 177.007 138.976C177.609 139.214 177.903 139.896 177.664 140.499C177.488 140.948 177.057 141.242 176.572 141.242C176.423 141.242 176.278 141.211 176.141 141.156C168.445 138.103 162.398 131.898 159.544 124.132H48.8641V197.639H77.3501C77.9999 197.639 78.5245 198.167 78.5245 198.813C78.5245 199.463 77.9999 199.987 77.3501 199.987ZM182.44 144.581C181.794 144.581 181.265 144.057 181.265 143.407C181.265 142.761 181.794 142.232 182.44 142.232C183.089 142.232 183.614 142.761 183.614 143.407C183.614 144.057 183.089 144.581 182.44 144.581Z" fill="#141517"/>
<path d="M47.69 193.728H41.4385C41.1293 193.728 40.8239 193.603 40.6086 193.384C40.3894 193.164 40.2642 192.863 40.2642 192.554V116.706C40.2642 116.397 40.3894 116.092 40.6086 115.876C40.8239 115.657 41.1293 115.532 41.4385 115.532H159.054C159.661 115.532 160.166 115.986 160.225 116.593C160.417 118.644 160.843 120.66 161.489 122.582C161.607 122.942 161.548 123.337 161.329 123.643C161.109 123.948 160.753 124.132 160.377 124.132H147.389C146.739 124.132 146.214 123.604 146.214 122.958C146.214 122.308 146.739 121.783 147.389 121.783H158.792C158.443 120.507 158.178 119.196 158.005 117.881H42.6129V191.38H46.5313C46.6292 190.816 47.1146 190.409 47.69 190.409C48.3359 190.409 48.8644 190.934 48.8644 191.584V192.554C48.8644 192.867 48.7391 193.161 48.5199 193.384C48.2968 193.607 48.0032 193.728 47.69 193.728ZM47.69 184.929C47.0402 184.929 46.5157 184.4 46.5157 183.754C46.5157 183.104 47.0402 182.58 47.69 182.58C48.3359 182.58 48.8644 183.104 48.8644 183.754C48.8644 184.4 48.3359 184.929 47.69 184.929ZM47.69 177.1C47.0402 177.1 46.5157 176.571 46.5157 175.925V122.958C46.5157 122.648 46.6409 122.343 46.8601 122.128C47.0754 121.909 47.3808 121.783 47.69 121.783H131.731C132.377 121.783 132.901 122.308 132.901 122.958C132.901 123.604 132.377 124.132 131.731 124.132H48.8644V175.925C48.8644 176.571 48.3359 177.1 47.69 177.1ZM139.56 124.132C138.91 124.132 138.386 123.604 138.386 122.958C138.386 122.308 138.91 121.783 139.56 121.783C140.206 121.783 140.731 122.308 140.731 122.958C140.731 123.604 140.206 124.132 139.56 124.132Z" fill="#141517"/>
<path d="M41.4378 188.083H35.1746C34.8654 188.083 34.5639 187.958 34.3447 187.739C34.1255 187.519 34.0002 187.218 34.0002 186.909V111.061C34.0002 110.752 34.1255 110.451 34.3447 110.231C34.5639 110.012 34.8654 109.887 35.1746 109.887H159.101C159.434 109.887 159.754 110.032 159.978 110.278C160.197 110.529 160.302 110.862 160.267 111.194C160.161 112.142 160.107 113.116 160.107 114.091C160.107 114.878 160.146 115.7 160.224 116.6C160.252 116.933 160.146 117.254 159.919 117.497C159.696 117.743 159.387 117.88 159.054 117.88H151.624C150.974 117.88 150.45 117.352 150.45 116.706C150.45 116.056 150.974 115.532 151.624 115.532H157.793C157.77 115.038 157.758 114.553 157.758 114.091C157.758 113.473 157.778 112.85 157.816 112.236H36.349V185.735H40.2635V174.841C40.2635 174.195 40.788 173.666 41.4378 173.666C42.0837 173.666 42.6122 174.195 42.6122 174.841V186.909C42.6122 187.222 42.4869 187.52 42.2677 187.739C42.0446 187.962 41.751 188.083 41.4378 188.083ZM41.4378 168.186C40.788 168.186 40.2635 167.661 40.2635 167.012C40.2635 166.366 40.788 165.841 41.4378 165.841C42.0837 165.841 42.6122 166.366 42.6122 167.012C42.6122 167.661 42.0837 168.186 41.4378 168.186ZM41.4378 160.357C40.788 160.357 40.2635 159.832 40.2635 159.186V116.706C40.2635 116.397 40.3888 116.091 40.6041 115.872C40.8233 115.657 41.1286 115.532 41.4378 115.532H135.966C136.611 115.532 137.14 116.056 137.14 116.706C137.14 117.352 136.611 117.88 135.966 117.88H42.6122V159.186C42.6122 159.832 42.0837 160.357 41.4378 160.357ZM143.795 117.88C143.145 117.88 142.621 117.352 142.621 116.706C142.621 116.056 143.145 115.532 143.795 115.532C144.44 115.532 144.969 116.056 144.969 116.706C144.969 117.352 144.44 117.88 143.795 117.88Z" fill="#141517"/>
<path d="M186.876 143.204C182.946 143.204 179.133 142.437 175.544 140.918C172.076 139.45 168.963 137.352 166.29 134.678C163.612 132 161.514 128.888 160.046 125.421C158.531 121.831 157.76 118.018 157.76 114.092C157.76 112.256 157.928 110.424 158.265 108.643C158.386 108.017 159.008 107.586 159.639 107.707C159.948 107.766 160.214 107.938 160.391 108.201C160.567 108.459 160.633 108.772 160.575 109.081C160.265 110.721 160.109 112.409 160.109 114.092C160.109 121.236 162.892 127.957 167.95 133.015C173.007 138.072 179.729 140.855 186.877 140.859C194.029 140.855 200.75 138.072 205.811 133.015C210.865 127.957 213.652 121.236 213.652 114.092C213.652 106.936 210.865 100.215 205.811 95.1573C200.75 90.0997 194.028 87.3126 186.877 87.3126C179.463 87.3126 172.311 90.4325 167.257 95.8737C166.834 96.3277 166.055 96.3591 165.597 95.9363C165.355 95.7092 165.218 95.3922 165.221 95.0594C165.226 94.7698 165.335 94.4879 165.535 94.2765C168.232 91.368 171.43 89.082 175.039 87.4731C178.774 85.8094 182.755 84.9639 186.873 84.9639C190.807 84.9639 194.624 85.735 198.213 87.2539C201.681 88.7218 204.797 90.82 207.471 93.4936C210.145 96.1712 212.246 99.2832 213.71 102.751C215.229 106.345 216.001 110.158 216.001 114.092C216.001 118.018 215.229 121.831 213.71 125.421C212.246 128.889 210.145 132.001 207.471 134.678C204.797 137.352 201.681 139.45 198.213 140.918C194.623 142.437 190.806 143.204 186.876 143.204ZM161.933 102.65C161.749 102.65 161.568 102.607 161.404 102.521C161.122 102.38 160.915 102.137 160.817 101.839C160.719 101.542 160.746 101.225 160.888 100.943C161.087 100.548 161.491 100.301 161.937 100.301C162.121 100.301 162.297 100.344 162.465 100.426C163.041 100.72 163.276 101.428 162.982 102.004C162.782 102.403 162.379 102.65 161.933 102.65Z" fill="#FF4D40"/>
<path d="M187.018 98.4988C187.335 98.5027 187.644 98.6319 187.863 98.8628L200.683 112.286C201.008 112.626 201.102 113.123 200.914 113.558C200.73 113.992 200.307 114.27 199.834 114.27L193.754 114.27L193.754 128.496C193.754 128.805 193.63 129.106 193.41 129.326C193.191 129.545 192.889 129.67 192.58 129.67L181.173 129.67C180.864 129.67 180.562 129.545 180.343 129.326C180.124 129.106 179.999 128.805 179.999 128.496L179.999 114.27L173.919 114.27C173.446 114.27 173.019 113.989 172.835 113.554C172.651 113.116 172.749 112.615 173.078 112.274L186.172 98.855C186.391 98.628 186.7 98.4988 187.018 98.4988ZM197.09 111.922L187.006 101.364L176.703 111.922L181.173 111.922C181.482 111.922 181.788 112.047 182.003 112.266C182.222 112.485 182.347 112.787 182.347 113.096L182.347 127.321L191.406 127.321L191.406 113.096C191.406 112.783 191.527 112.489 191.751 112.266C191.973 112.043 192.267 111.922 192.58 111.922L197.09 111.922Z" fill="#FF4D40"/>
<path d="M96.6003 54.1988C97.2462 54.1988 97.7747 54.7273 97.7747 55.3732L97.7747 80.935C97.7747 81.5809 97.2462 82.1094 96.6003 82.1094C95.9505 82.1094 95.4259 81.5809 95.4259 80.935L95.4259 55.3732C95.4259 54.7273 95.9505 54.1988 96.6003 54.1988Z" fill="#FF4D40"/>
<path d="M96.6017 54.1993C96.911 54.1993 97.2046 54.3207 97.4238 54.536L102.016 59.0455C102.243 59.2647 102.368 59.5583 102.368 59.8715C102.372 60.1846 102.254 60.4821 102.031 60.7053C101.593 61.1515 100.822 61.1594 100.371 60.7209L95.7797 56.2114C95.3178 55.7573 95.3099 55.0136 95.764 54.5516C95.9871 54.3246 96.2846 54.1993 96.6017 54.1993Z" fill="#FF4D40"/>
<path d="M96.6002 54.1993C96.9173 54.1993 97.2148 54.3246 97.4379 54.5516C97.6571 54.7748 97.7785 55.0723 97.7746 55.3854C97.7707 55.6986 97.6454 55.9922 97.4223 56.2114L92.8305 60.7209C92.3803 61.1594 91.6092 61.1515 91.1708 60.7053C90.9476 60.4821 90.8302 60.1846 90.8341 59.8715C90.8341 59.5583 90.9594 59.2647 91.1825 59.0455L95.7782 54.536C95.9974 54.3207 96.291 54.1993 96.6002 54.1993Z" fill="#FF4D40"/>
<path d="M76.8979 49.3451C77.5438 49.3451 78.0723 49.8697 78.0723 50.5195L78.0723 93C78.0723 93.6459 77.5438 94.1743 76.8979 94.1743C76.2481 94.1743 75.7235 93.6459 75.7235 93L75.7236 50.5195C75.7236 49.8697 76.2481 49.3451 76.8979 49.3451Z" fill="#FF4D40"/>
<path d="M76.9001 49.3451C77.2094 49.3451 77.499 49.4625 77.7222 49.6817L82.3139 54.1795C82.7758 54.6297 82.7836 55.3774 82.3296 55.8393C81.8911 56.2855 81.12 56.2973 80.6698 55.8549L76.0781 51.3572C75.8549 51.1379 75.7297 50.8443 75.7257 50.5312C75.7218 50.218 75.8393 49.9205 76.0585 49.6974C76.2816 49.4703 76.5791 49.3451 76.9001 49.3451Z" fill="#FF4D40"/>
<path d="M76.8988 49.3456C77.2159 49.3456 77.5134 49.4709 77.7365 49.6979C78.1906 50.1598 78.1828 50.9036 77.7209 51.3577L73.1252 55.8555C72.679 56.2978 71.9039 56.29 71.4655 55.8398C71.2463 55.6167 71.1288 55.3192 71.1288 55.006C71.1327 54.6928 71.258 54.3992 71.485 54.18L76.0768 49.6823C76.296 49.463 76.5896 49.3456 76.8988 49.3456Z" fill="#FF4D40"/>
<path d="M56.4965 57.5338C57.1464 57.5338 57.6709 58.0622 57.6709 58.7081L57.6709 101.181C57.6709 101.827 57.1464 102.355 56.4965 102.355C55.8506 102.355 55.3222 101.827 55.3222 101.181L55.3222 58.7081C55.3222 58.0622 55.8506 57.5338 56.4965 57.5338Z" fill="#FF4D40"/>
<path d="M56.4948 57.5343C56.8041 57.5343 57.0977 57.6557 57.3169 57.871L61.9125 62.3688C62.3744 62.8228 62.3823 63.5705 61.9282 64.0324C61.4898 64.4787 60.7147 64.4865 60.2684 64.0481L55.6728 59.5503C55.2109 59.0962 55.203 58.3525 55.6571 57.8866C55.8802 57.6596 56.1777 57.5343 56.4948 57.5343Z" fill="#FF4D40"/>
<path d="M56.496 57.5382C56.817 57.5382 57.1145 57.6596 57.3337 57.8866C57.7878 58.3485 57.7839 59.0962 57.3181 59.5503L52.7381 64.0481C52.2879 64.4865 51.5128 64.4787 51.0744 64.0324C50.8552 63.8093 50.7377 63.5118 50.7377 63.1986C50.7417 62.8855 50.8669 62.5919 51.0901 62.3727L55.674 57.871C55.8971 57.6557 56.1868 57.5382 56.496 57.5382Z" fill="#FF4D40"/>
</svg>
