<svg width="159" height="181" viewBox="0 0 159 181" fill="none" xmlns="http://www.w3.org/2000/svg">
<path d="M125.285 180.608C124.593 180.608 124.035 180.05 124.035 179.358C124.035 178.671 124.593 178.108 125.285 178.108H137.235V46.7288C137.235 46.0372 137.797 45.4788 138.485 45.4788C139.172 45.4788 139.735 46.0372 139.735 46.7288V179.358C139.735 179.691 139.605 180.008 139.368 180.241C139.131 180.478 138.818 180.608 138.485 180.608H125.285ZM116.951 180.608C116.26 180.608 115.701 180.05 115.701 179.358C115.701 178.671 116.26 178.108 116.951 178.108C117.638 178.108 118.197 178.671 118.197 179.358C118.197 180.05 117.639 180.608 116.951 180.608ZM108.618 180.608H1.25001C0.920844 180.608 0.600009 180.475 0.366673 180.241C0.133337 180.008 0 179.687 0 179.358V140.891C0 140.2 0.562506 139.641 1.25001 139.641C1.94169 139.641 2.50003 140.2 2.50003 140.891V178.108H108.618C109.305 178.108 109.868 178.671 109.868 179.358V179.391C109.847 180.075 109.301 180.608 108.618 180.608ZM1.25001 133.808C0.562506 133.808 0 133.246 0 132.558C0 131.866 0.562506 131.308 1.25001 131.308C1.94169 131.308 2.50003 131.866 2.50003 132.558C2.50003 133.246 1.94169 133.808 1.25001 133.808ZM1.25001 125.475C0.562506 125.475 0 124.912 0 124.225V21.458C0 21.1288 0.133337 20.808 0.366673 20.5747C0.600009 20.3413 0.920844 20.208 1.25001 20.208H138.485C138.814 20.208 139.135 20.3413 139.368 20.5747C139.602 20.808 139.735 21.1288 139.735 21.458V30.0622C139.735 30.7497 139.172 31.3122 138.485 31.3122C137.797 31.3122 137.235 30.7497 137.235 30.0622V22.708H2.50003V124.225C2.50003 124.912 1.94169 125.475 1.25001 125.475ZM138.485 39.6455C137.797 39.6455 137.235 39.083 137.235 38.3955C137.235 37.7038 137.797 37.1455 138.485 37.1455C139.172 37.1455 139.735 37.7038 139.735 38.3955C139.735 39.083 139.172 39.6455 138.485 39.6455Z" fill="white"/>
<path d="M147.872 170.274H138.484C138.155 170.274 137.834 170.141 137.601 169.907C137.368 169.674 137.234 169.353 137.234 169.024V165.212C137.234 164.52 137.797 163.962 138.484 163.962C139.171 163.962 139.734 164.52 139.734 165.212V167.774H146.622V36.3955C146.622 35.7038 147.184 35.1455 147.872 35.1455C148.563 35.1455 149.122 35.7038 149.122 36.3955V169.024C149.122 169.357 148.992 169.674 148.755 169.907C148.522 170.145 148.205 170.274 147.872 170.274ZM138.484 158.128C137.797 158.128 137.234 157.566 137.234 156.878C137.234 156.187 137.797 155.628 138.484 155.628C139.171 155.628 139.734 156.187 139.734 156.878C139.734 157.566 139.171 158.128 138.484 158.128ZM138.484 149.795C137.797 149.795 137.234 149.232 137.234 148.545V22.7081H119.734C119.047 22.7081 118.484 22.1497 118.484 21.4581C118.484 20.7706 119.047 20.2081 119.734 20.2081H138.484C138.813 20.2081 139.134 20.3414 139.368 20.5747C139.601 20.8081 139.734 21.1289 139.734 21.4581V148.545C139.734 149.232 139.171 149.795 138.484 149.795ZM147.872 29.3122C147.184 29.3122 146.622 28.7497 146.622 28.0622C146.622 27.3705 147.184 26.8122 147.872 26.8122C148.563 26.8122 149.122 27.3705 149.122 28.0622C149.122 28.7497 148.563 29.3122 147.872 29.3122ZM111.401 22.7081C110.713 22.7081 110.151 22.1497 110.151 21.4581C110.151 20.7706 110.713 20.2081 111.401 20.2081C112.092 20.2081 112.651 20.7706 112.651 21.4581C112.651 22.1497 112.092 22.7081 111.401 22.7081ZM103.067 22.7081H10.6543C10.3251 22.7081 10.0043 22.5747 9.77097 22.3456C9.53763 22.1122 9.4043 21.7872 9.4043 21.4581V11.1123C9.4043 10.7831 9.53763 10.4623 9.77097 10.229C10.0001 9.99564 10.3251 9.8623 10.6543 9.8623H147.872C148.201 9.8623 148.526 9.99564 148.755 10.229C148.988 10.4623 149.122 10.7831 149.122 11.1123V19.7289C149.122 20.4164 148.563 20.9789 147.872 20.9789C147.184 20.9789 146.622 20.4164 146.622 19.7289V12.3623H11.9043V20.2081H103.067C103.759 20.2081 104.317 20.7706 104.317 21.4581C104.317 22.1497 103.759 22.7081 103.067 22.7081Z" fill="white"/>
<path d="M157.273 160.4H147.869C147.544 160.4 147.218 160.267 146.986 160.033C146.752 159.804 146.619 159.479 146.619 159.15V155.337C146.619 154.646 147.181 154.087 147.869 154.087C148.56 154.087 149.119 154.646 149.119 155.337V157.9H156.023V26.5333C156.023 25.8417 156.581 25.2833 157.273 25.2833C157.96 25.2833 158.518 25.8417 158.518 26.5333V159.15C158.518 159.487 158.389 159.8 158.156 160.033C157.918 160.27 157.606 160.4 157.273 160.4ZM147.869 148.254C147.181 148.254 146.619 147.692 146.619 147.004C146.619 146.312 147.181 145.754 147.869 145.754C148.56 145.754 149.119 146.312 149.119 147.004C149.119 147.692 148.56 148.254 147.869 148.254ZM147.869 139.921C147.181 139.921 146.619 139.358 146.619 138.671V12.3625H129.594C128.907 12.3625 128.344 11.8042 128.344 11.1125C128.344 10.425 128.907 9.8625 129.594 9.8625H147.869C148.198 9.8625 148.519 9.99583 148.752 10.2292C148.986 10.4625 149.119 10.7833 149.119 11.1125V138.671C149.119 139.358 148.56 139.921 147.869 139.921ZM157.273 19.45C156.581 19.45 156.023 18.8875 156.023 18.2C156.023 17.5083 156.581 16.95 157.273 16.95C157.96 16.95 158.519 17.5083 158.519 18.2C158.519 18.8875 157.96 19.45 157.273 19.45ZM121.261 12.3625C120.573 12.3625 120.011 11.8042 120.011 11.1125C120.011 10.425 120.573 9.8625 121.261 9.8625C121.948 9.8625 122.511 10.425 122.511 11.1125C122.511 11.8042 121.948 12.3625 121.261 12.3625ZM112.928 12.3625H20.0537C19.7245 12.3625 19.4037 12.2292 19.1704 11.9958C18.937 11.7625 18.8037 11.4417 18.8037 11.1125V1.25C18.8037 0.925 18.937 0.6 19.1704 0.366666C19.4037 0.133333 19.7245 0 20.0537 0H157.273C157.602 0 157.923 0.133333 158.156 0.366666C158.385 0.6 158.519 0.920833 158.519 1.25L158.523 9.86667C158.523 10.5542 157.96 11.1167 157.273 11.1167C156.581 11.1167 156.023 10.5542 156.023 9.86667V2.5H21.3037V9.8625H112.928C113.615 9.8625 114.178 10.425 114.178 11.1125C114.178 11.8042 113.615 12.3625 112.928 12.3625Z" fill="white"/>
<path d="M136.485 45.9788H1.25001C0.920844 45.9788 0.600009 45.8455 0.366673 45.6122C0.133337 45.3788 0 45.058 0 44.7288V34.1247C0 33.4372 0.562506 32.8747 1.25001 32.8747C1.94169 32.8747 2.50003 33.4372 2.50003 34.1247V43.4788H136.485C137.172 43.4788 137.735 44.0372 137.735 44.7288C137.735 45.4163 137.172 45.9788 136.485 45.9788ZM138.485 39.6455C137.797 39.6455 137.235 39.083 137.235 38.3955C137.235 37.7038 137.797 37.1455 138.485 37.1455C139.172 37.1455 139.735 37.7038 139.735 38.3955C139.735 39.083 139.172 39.6455 138.485 39.6455ZM138.485 31.3122C137.797 31.3122 137.235 30.7497 137.235 30.0622V22.708H1.25835C1.25418 22.708 1.25418 22.708 1.25001 22.708C0.562506 22.708 0 22.1497 0 21.458C0 20.7705 0.562506 20.208 1.25001 20.208H138.485C138.814 20.208 139.135 20.3413 139.368 20.5747C139.602 20.808 139.735 21.1288 139.735 21.458V30.0622C139.735 30.7497 139.172 31.3122 138.485 31.3122ZM1.25001 27.0413C0.562506 27.0413 0 26.483 0 25.7913C0 25.1038 0.562506 24.5413 1.25001 24.5413C1.94169 24.5413 2.50003 25.1038 2.50003 25.7913C2.50003 26.483 1.94169 27.0413 1.25001 27.0413Z" fill="white"/>
<path d="M69.8624 138.825C69.7458 138.825 69.6291 138.808 69.5166 138.775L39.4874 130.208C38.9499 130.054 38.5791 129.563 38.5791 129.008V89.0125C38.5791 88.625 38.7624 88.25 39.0749 88.0125C39.3833 87.7834 39.7999 87.7042 40.1708 87.8084L70.2041 96.3792C70.7374 96.5292 71.1124 97.025 71.1124 97.5788V137.575C71.1124 137.962 70.9249 138.337 70.6124 138.57C70.3958 138.733 70.1291 138.825 69.8624 138.825ZM41.0791 128.063L68.6124 135.917V98.5254L41.0791 90.6671V128.063Z" fill="#FF4D40"/>
<path d="M69.8623 138.825C69.5915 138.825 69.3248 138.733 69.1081 138.571C68.7956 138.337 68.6123 137.962 68.6123 137.575V97.5791C68.6123 97.0249 68.9831 96.5291 69.5165 96.3795L99.5498 87.8086C99.9248 87.7045 100.333 87.7795 100.646 88.0128C100.958 88.2503 101.141 88.6211 101.141 89.0128V129.009C101.141 129.563 100.771 130.054 100.237 130.209L70.204 138.775C70.0915 138.808 69.979 138.825 69.8623 138.825ZM71.1123 98.5249V135.917L98.6415 128.062V90.6666L71.1123 98.5249Z" fill="#FF4D40"/>
<path d="M69.8624 98.8288C69.7416 98.8288 69.6291 98.8121 69.5166 98.7834L39.4874 90.2125C38.9499 90.0625 38.5791 89.5667 38.5791 89.0125C38.5791 88.4584 38.9499 87.9625 39.4874 87.8084L69.5166 79.2417C69.7374 79.1792 69.9833 79.1792 70.2041 79.2417L100.237 87.8125C100.237 87.8084 100.237 87.8084 100.237 87.8084C100.771 87.9625 101.142 88.4584 101.142 89.0125C101.142 89.5667 100.771 90.0625 100.237 90.2125L70.2041 98.7834C70.0916 98.8121 69.9791 98.8288 69.8624 98.8288ZM44.3833 89.0125L69.8624 96.2792L95.3374 89.0125L69.8624 81.7417L44.3833 89.0125Z" fill="#FF4D40"/>
<path d="M126.483 148.004H13.2373C12.5498 148.004 11.9873 147.441 11.9873 146.754C11.9873 146.062 12.5498 145.504 13.2373 145.504H126.483C127.17 145.504 127.733 146.062 127.733 146.754C127.733 147.441 127.171 148.004 126.483 148.004Z" fill="white"/>
<path d="M126.484 155.95H13.2412C12.5495 155.95 11.9912 155.387 11.9912 154.7C11.9912 154.008 12.5495 153.45 13.2412 153.45H126.484C127.171 153.45 127.734 154.008 127.734 154.7C127.734 155.387 127.171 155.95 126.484 155.95Z" fill="white"/>
<path d="M122.267 38.329C119.375 38.3249 117.025 35.9707 117.025 33.0874C117.025 30.1999 119.379 27.8457 122.267 27.8457C125.15 27.8457 127.504 30.1957 127.509 33.0874C127.504 34.4915 126.959 35.8082 125.971 36.7957C124.984 37.7832 123.671 38.3249 122.267 38.329ZM122.267 30.3457C120.759 30.3499 119.525 31.579 119.525 33.0874C119.525 34.5999 120.759 35.829 122.267 35.829C123.8 35.8249 125.004 34.6207 125.009 33.0874C125.009 31.579 123.78 30.3499 122.267 30.3457Z" fill="#FF4D40"/>
<path d="M105.7 38.329C104.3 38.329 102.98 37.7832 101.988 36.7957C100.996 35.8082 100.45 34.4915 100.446 33.0874C100.45 30.1999 102.805 27.8457 105.7 27.8457C108.588 27.8457 110.942 30.1999 110.942 33.0874C110.942 34.4915 110.392 35.8082 109.405 36.7957C108.417 37.7832 107.1 38.329 105.7 38.329ZM105.7 30.3457C104.183 30.3457 102.95 31.579 102.946 33.0874C102.946 34.5999 104.184 35.829 105.7 35.829C107.213 35.829 108.442 34.5999 108.442 33.0874C108.442 31.579 107.208 30.3457 105.7 30.3457Z" fill="#FF4D40"/>
<path d="M87.4831 114.375H52.2373C51.5498 114.375 50.9873 113.817 50.9873 113.125C50.9873 112.438 51.5498 111.875 52.2373 111.875H87.4831C88.1706 111.875 88.7331 112.438 88.7331 113.125C88.7331 113.817 88.1706 114.375 87.4831 114.375Z" fill="#FF4D40"/>
</svg>
