<svg width="133" height="196" viewBox="0 0 133 196" fill="none" xmlns="http://www.w3.org/2000/svg">
<path d="M119.43 156.896H19.8573C13.1294 156.896 7.50896 151.261 6.78438 143.788C6.75021 143.437 6.86605 143.088 7.10313 142.827C7.3398 142.566 7.67605 142.417 8.02855 142.417H19.1248C19.8152 142.417 20.3748 142.977 20.3748 143.667C20.3748 144.358 19.8152 144.917 19.1248 144.917H9.47396C10.5627 150.409 14.8323 154.396 19.8573 154.396H119.43C125.298 154.396 130.072 148.926 130.072 142.201V82.9015C130.072 82.2111 130.632 81.6515 131.322 81.6515C132.013 81.6515 132.572 82.2111 132.572 82.9015V142.201C132.572 150.304 126.677 156.896 119.43 156.896ZM21.8131 133.264C21.1227 133.264 20.5631 132.704 20.5631 132.014V86.6348H7.97854C7.28854 86.6348 6.72938 86.0761 6.72854 85.3861L6.70313 61.4773C6.70271 61.1457 6.83438 60.8273 7.06855 60.5927C7.30313 60.3582 7.62104 60.2261 7.95313 60.2261H131.322C132.013 60.2261 132.572 60.7857 132.572 61.4761V62.0682C132.572 62.7586 132.013 63.3182 131.322 63.3182C130.874 63.3182 130.48 63.0815 130.259 62.7261H9.2048L9.2273 84.1348H21.8131C22.5035 84.1348 23.0631 84.6944 23.0631 85.3848V132.014C23.0631 132.704 22.5035 133.264 21.8131 133.264Z" fill="white"/>
<path d="M108.779 62.7261H30.5098C29.8193 62.7261 29.2598 62.1665 29.2598 61.4761V41.3004C29.2598 31.4971 32.8506 22.0285 39.3714 14.6381C39.8277 14.1202 40.6181 14.071 41.1356 14.5277C41.6531 14.9843 41.7027 15.7743 41.246 16.2918C35.1289 23.2251 31.7598 32.1067 31.7598 41.3004V60.2261H107.529V41.3004C107.529 20.4114 90.5339 3.41649 69.6439 3.41649C69.6435 3.41649 69.6427 3.41649 69.6418 3.41649C65.6239 3.41649 61.6631 4.05023 57.8689 5.30023C57.2135 5.51731 56.5068 5.16023 56.2906 4.50398C56.0748 3.84857 56.431 3.14149 57.0868 2.92566C61.1335 1.59233 65.3581 0.916504 69.6418 0.916504C69.6427 0.916504 69.6431 0.916504 69.6439 0.916504C91.9123 0.916504 110.029 19.0326 110.029 41.3004V61.4761C110.029 62.1661 109.47 62.7261 108.779 62.7261Z" fill="white"/>
<path d="M97.0003 51.8491H42.2891C41.5986 51.8491 41.0391 51.2895 41.0391 50.5991V40.4112C41.0391 24.6382 53.8711 11.8062 69.6441 11.8062C85.4174 11.8062 98.2499 24.6382 98.2499 40.4112V50.5991C98.2503 51.2895 97.6908 51.8491 97.0003 51.8491ZM43.5391 49.3491H95.7503V40.4112C95.7503 26.017 84.0395 14.3062 69.6445 14.3062C55.2503 14.3062 43.5395 26.017 43.5395 40.4112V49.3491H43.5391Z" fill="white"/>
<path d="M90.4831 76.3345H7.95312C7.26271 76.3345 6.70312 75.7749 6.70312 75.0845C6.70312 74.3941 7.26271 73.8345 7.95312 73.8345H90.4831C91.1735 73.8345 91.7331 74.3941 91.7331 75.0845C91.7331 75.7749 91.174 76.3345 90.4831 76.3345Z" fill="white"/>
<path d="M21.8133 98.3015H1.5C0.809583 98.3015 0.25 97.7419 0.25 97.0515V85.3848C0.25 84.6943 0.809583 84.1348 1.5 84.1348H21.8133C22.5038 84.1348 23.0633 84.6943 23.0633 85.3848V97.0515C23.0633 97.7415 22.5038 98.3015 21.8133 98.3015ZM2.75 95.8014H20.5633V86.6348H2.75V95.8014Z" fill="#FF4D40"/>
<path d="M21.8133 109.956H1.5C0.809583 109.956 0.25 109.396 0.25 108.706V97.0513C0.25 96.3609 0.809583 95.8013 1.5 95.8013H21.8133C22.5038 95.8013 23.0633 96.3609 23.0633 97.0513V108.706C23.0633 109.396 22.5038 109.956 21.8133 109.956ZM2.75 107.456H20.5633V98.3013H2.75V107.456Z" fill="#FF4D40"/>
<path d="M21.8133 121.609H1.5C0.809583 121.609 0.25 121.05 0.25 120.359V108.706C0.25 108.015 0.809583 107.456 1.5 107.456H21.8133C22.5038 107.456 23.0633 108.015 23.0633 108.706V120.359C23.0633 121.05 22.5038 121.609 21.8133 121.609ZM2.75 119.109H20.5633V109.956H2.75V119.109Z" fill="#FF4D40"/>
<path d="M21.8133 133.264H1.5C0.809583 133.264 0.25 132.704 0.25 132.014V120.359C0.25 119.669 0.809583 119.109 1.5 119.109H21.8133C22.5038 119.109 23.0633 119.669 23.0633 120.359V132.014C23.0633 132.704 22.5038 133.264 21.8133 133.264ZM2.75 130.764H20.5633V121.609H2.75V130.764Z" fill="#FF4D40"/>
<path d="M21.8133 144.917H1.5C0.809583 144.917 0.25 144.358 0.25 143.667V132.013C0.25 131.323 0.809583 130.763 1.5 130.763H21.8133C22.5038 130.763 23.0633 131.323 23.0633 132.013V143.667C23.0633 144.358 22.5038 144.917 21.8133 144.917ZM2.75 142.417H20.5633V133.263H2.75V142.417Z" fill="#FF4D40"/>
<path d="M74.1924 129.379H65.0949C64.4045 129.379 63.8449 128.819 63.8449 128.129V113.871C60.8432 111.914 59.0078 108.564 59.0078 104.958C59.0078 99.0936 63.7791 94.3228 69.6432 94.3228C75.5082 94.3228 80.2795 99.0936 80.2795 104.958C80.2795 108.564 78.4441 111.914 75.4424 113.871V128.129C75.4424 128.819 74.8828 129.379 74.1924 129.379ZM66.3449 126.879H72.9424V113.166C72.9424 112.712 73.1882 112.294 73.5849 112.074C76.1724 110.634 77.7795 107.908 77.7795 104.959C77.7795 100.472 74.1295 96.8232 69.6432 96.8232C65.1574 96.8232 61.5078 100.473 61.5078 104.959C61.5078 107.908 63.1153 110.634 65.7028 112.074C66.0995 112.294 66.3453 112.712 66.3453 113.166V126.879H66.3449Z" fill="#FF4D40"/>
<path d="M121.511 62.7257H17.1016C16.4111 62.7257 15.8516 62.1661 15.8516 61.4757V60.0695C15.8516 59.3791 16.4111 58.8195 17.1016 58.8195C17.792 58.8195 18.3516 59.3791 18.3516 60.0695V60.2257H120.261V51.8486H28.4641C27.7736 51.8486 27.2141 51.289 27.2141 50.5986C27.2141 49.9082 27.7736 49.3486 28.4641 49.3486H121.511C122.202 49.3486 122.761 49.9082 122.761 50.5986V61.4757C122.761 62.1657 122.202 62.7257 121.511 62.7257Z" fill="white"/>
<path d="M33.1797 188.5C32.4893 188.5 31.9297 187.941 31.9297 187.25V166.361C31.9297 166.03 32.0609 165.712 32.2951 165.478L42.9972 154.763C43.4851 154.274 44.2768 154.274 44.7647 154.763C45.253 155.251 45.253 156.042 44.7647 156.53L34.4293 166.878V187.25C34.4297 187.941 33.8701 188.5 33.1797 188.5Z" fill="white"/>
<path d="M43.2422 174.24C42.5518 174.24 41.9922 173.68 41.9922 172.99V169.005C41.9922 168.674 42.1239 168.356 42.358 168.121L55.7159 154.763C56.2043 154.274 56.9959 154.274 57.4838 154.763C57.9722 155.251 57.9722 156.042 57.4838 156.53L44.4922 169.523V172.99C44.4922 173.681 43.9322 174.24 43.2422 174.24Z" fill="white"/>
<path d="M54.7074 182.486C54.017 182.486 53.4574 181.926 53.4574 181.236V172.606L46.5557 165.704C46.0674 165.216 46.0674 164.424 46.5557 163.937C47.0436 163.448 47.8353 163.448 48.3232 163.937L55.5911 171.204C55.8257 171.439 55.9574 171.757 55.9574 172.088V181.236C55.9574 181.926 55.3978 182.486 54.7074 182.486Z" fill="white"/>
<path d="M69.5195 187.097C68.8291 187.097 68.2695 186.538 68.2695 185.847V155.647C68.2695 154.957 68.8291 154.397 69.5195 154.397C70.2099 154.397 70.7695 154.957 70.7695 155.647V185.847C70.7695 186.538 70.2099 187.097 69.5195 187.097Z" fill="white"/>
<path d="M62.25 180.606C61.5596 180.606 61 180.046 61 179.356V164.682C61 164.35 61.1312 164.033 61.3654 163.799L68.7712 156.38C69.2583 155.892 70.0504 155.89 70.5387 156.379C71.0275 156.867 71.0283 157.658 70.5404 158.146L63.5 165.199V179.356C63.5 180.046 62.94 180.606 62.25 180.606Z" fill="white"/>
<path d="M33.1787 195.08C30.672 195.08 28.6328 193.04 28.6328 190.534C28.6328 188.034 30.672 186 33.1787 186C35.6782 186 37.7116 188.034 37.7116 190.534C37.7116 193.041 35.6782 195.08 33.1787 195.08ZM33.1787 188.5C32.0503 188.5 31.1328 189.413 31.1328 190.534C31.1328 191.662 32.0507 192.58 33.1787 192.58C34.2995 192.58 35.2116 191.662 35.2116 190.534C35.2116 189.413 34.2999 188.5 33.1787 188.5Z" fill="#FF4D40"/>
<path d="M43.2408 180.819C40.7408 180.819 38.707 178.786 38.707 176.286C38.707 173.779 40.7408 171.74 43.2408 171.74C45.7404 171.74 47.7737 173.78 47.7737 176.286C47.7733 178.786 45.74 180.819 43.2408 180.819ZM43.2408 174.24C42.1195 174.24 41.207 175.158 41.207 176.286C41.207 177.406 42.1191 178.319 43.2408 178.319C44.3616 178.319 45.2737 177.407 45.2737 176.286C45.2733 175.158 44.3616 174.24 43.2408 174.24Z" fill="#FF4D40"/>
<path d="M69.5193 193.676C67.0197 193.676 64.9863 191.642 64.9863 189.143C64.9863 186.636 67.0197 184.597 69.5193 184.597C72.0259 184.597 74.0651 186.636 74.0651 189.143C74.0651 191.642 72.0259 193.676 69.5193 193.676ZM69.5193 187.097C68.3984 187.097 67.4863 188.015 67.4863 189.143C67.4863 190.263 68.398 191.176 69.5193 191.176C70.6472 191.176 71.5651 190.264 71.5651 189.143C71.5651 188.015 70.6472 187.097 69.5193 187.097Z" fill="#FF4D40"/>
<path d="M106.11 188.5C105.419 188.5 104.86 187.941 104.86 187.25V166.878L94.5077 156.513C94.029 156.016 94.0439 155.225 94.541 154.746C95.0381 154.267 95.8298 154.282 96.3085 154.779L96.6469 155.131L106.994 165.477C107.228 165.712 107.36 166.029 107.36 166.361V187.25C107.36 187.941 106.801 188.5 106.11 188.5Z" fill="white"/>
<path d="M96.048 174.24C95.3576 174.24 94.798 173.68 94.798 172.99V169.523L81.7942 156.531C81.3059 156.043 81.3055 155.251 81.7934 154.763C82.2813 154.274 83.0722 154.274 83.5609 154.762L96.9313 168.121C97.1659 168.356 97.298 168.674 97.298 169.005V172.99C97.298 173.681 96.7384 174.24 96.048 174.24Z" fill="white"/>
<path d="M84.5801 182.486C83.8897 182.486 83.3301 181.926 83.3301 181.236V172.088C83.3301 171.757 83.4617 171.439 83.6963 171.204L90.9642 163.937C91.4526 163.448 92.2434 163.448 92.7317 163.937C93.2201 164.424 93.2201 165.216 92.7317 165.704L85.8301 172.606V181.236C85.8301 181.926 85.2709 182.486 84.5801 182.486Z" fill="white"/>
<path d="M106.11 195.08C103.61 195.08 101.576 193.04 101.576 190.534C101.576 188.034 103.61 186 106.11 186C108.609 186 110.643 188.034 110.643 190.534C110.643 193.041 108.609 195.08 106.11 195.08ZM106.11 188.5C104.989 188.5 104.076 189.413 104.076 190.534C104.076 191.662 104.988 192.58 106.11 192.58C107.231 192.58 108.143 191.662 108.143 190.534C108.143 189.413 107.231 188.5 106.11 188.5Z" fill="#FF4D40"/>
<path d="M96.0474 180.819C93.5407 180.819 91.502 178.786 91.502 176.286C91.502 173.779 93.5411 171.74 96.0474 171.74C98.547 171.74 100.581 173.78 100.581 176.286C100.581 178.786 98.547 180.819 96.0474 180.819ZM96.0474 174.24C94.9195 174.24 94.002 175.158 94.002 176.286C94.002 177.406 94.9195 178.319 96.0474 178.319C97.1682 178.319 98.0807 177.407 98.0807 176.286C98.0807 175.158 97.1682 174.24 96.0474 174.24Z" fill="#FF4D40"/>
<path d="M131.323 142.775H40.334C39.6436 142.775 39.084 142.215 39.084 141.525C39.084 140.834 39.6436 140.275 40.334 140.275H131.323C132.013 140.275 132.573 140.834 132.573 141.525C132.573 142.215 132.013 142.775 131.323 142.775Z" fill="white"/>
</svg>
