<svg width="196" height="169" viewBox="0 0 196 169" fill="none" xmlns="http://www.w3.org/2000/svg">
<path d="M163.706 75.3237H145.397C144.707 75.3237 144.147 74.7641 144.147 74.0737C144.147 73.3833 144.707 72.8237 145.397 72.8237H163.706C164.397 72.8237 164.956 73.3833 164.956 74.0737C164.956 74.7641 164.397 75.3237 163.706 75.3237Z" fill="#FF4D40"/>
<path d="M163.706 86.9009H145.397C144.707 86.9009 144.147 86.3413 144.147 85.6509C144.147 84.9605 144.707 84.4009 145.397 84.4009H163.706C164.397 84.4009 164.956 84.9605 164.956 85.6509C164.956 86.3413 164.397 86.9009 163.706 86.9009Z" fill="#FF4D40"/>
<path d="M185.428 98.4917H145.397C144.707 98.4917 144.147 97.9321 144.147 97.2417C144.147 96.5513 144.707 95.9917 145.397 95.9917H185.428C186.119 95.9917 186.678 96.5513 186.678 97.2417C186.678 97.9321 186.119 98.4917 185.428 98.4917Z" fill="#FF4D40"/>
<path d="M185.428 110.069H145.397C144.707 110.069 144.147 109.509 144.147 108.819C144.147 108.128 144.707 107.569 145.397 107.569H185.428C186.119 107.569 186.678 108.128 186.678 108.819C186.678 109.509 186.119 110.069 185.428 110.069Z" fill="#FF4D40"/>
<path d="M41.6252 153.259C41.3523 153.259 41.0794 153.17 40.8527 152.991C40.4019 152.637 40.2502 152.022 40.484 151.499L46.2573 138.574C46.539 137.944 47.2786 137.661 47.9086 137.942C48.539 138.224 48.8215 138.963 48.5402 139.594L44.7961 147.975L80.7848 120.137C81.0036 119.968 81.2727 119.876 81.5494 119.876H144.147V41.2704C144.147 40.58 144.706 40.0204 145.397 40.0204C146.087 40.0204 146.647 40.58 146.647 41.2704V121.127C146.647 121.817 146.087 122.377 145.397 122.377H81.9761L42.3898 152.997C42.1648 153.172 41.8952 153.259 41.6252 153.259ZM54.2552 122.377H39.834C39.1436 122.377 38.584 121.817 38.584 121.127V76.8221C38.584 76.1317 39.1436 75.5721 39.834 75.5721H41.4648L42.8602 66.2283C42.9411 65.6875 43.364 65.2617 43.9048 65.1779C45.7311 64.8942 47.5523 64.4075 49.3186 63.7321C49.8273 63.5371 50.4036 63.6946 50.7427 64.1204L56.6298 71.5092L59.4411 69.88L55.9831 61.0817C55.7836 60.5737 55.9365 59.995 56.3611 59.6521C57.8056 58.485 59.1427 57.1525 60.3352 55.6917C60.679 55.2708 61.2548 55.1196 61.7606 55.3187L70.5561 58.775L72.1761 55.9654L64.7844 50.0637C64.3556 49.7217 64.2002 49.1404 64.4007 48.63C65.0844 46.89 65.5694 45.0787 65.8427 43.2471C65.9236 42.7037 66.3498 42.2771 66.8932 42.1954L76.2373 40.7887V39.1562C76.2373 38.4658 76.7969 37.9062 77.4873 37.9062H109.564C110.07 37.9062 110.526 38.2108 110.719 38.6779C110.913 39.145 110.806 39.6825 110.448 40.04L64.3898 86.0979L59.5936 99.5633L73.0715 94.765L126.895 40.9279C127.383 40.4396 128.174 40.44 128.663 40.9279C129.151 41.4158 129.151 42.2075 128.663 42.6958L74.6394 96.7312C74.5082 96.8625 74.3494 96.9629 74.1748 97.025L57.9515 102.8C57.4969 102.963 56.989 102.847 56.6482 102.507C56.3069 102.165 56.1927 101.658 56.3544 101.203L62.1281 84.9925C62.1902 84.8179 62.2906 84.6592 62.4219 84.5279L106.545 40.405H78.7361V41.8633C78.7361 42.4817 78.284 43.0075 77.6723 43.0996L68.1615 44.5317C67.9019 45.9346 67.5302 47.3221 67.0511 48.675L74.5748 54.6817C75.0577 55.0671 75.1865 55.7475 74.8782 56.2829L72.1836 60.9562C71.8744 61.4925 71.2194 61.7225 70.6436 61.495L61.6811 57.9733C60.7377 59.06 59.719 60.0754 58.6394 61.0058L62.1607 69.965C62.3865 70.54 62.1586 71.1937 61.624 71.5037L56.9507 74.2125C56.4144 74.5225 55.7323 74.3946 55.3461 73.91L49.3477 66.3817C47.9848 66.8554 46.5961 67.2267 45.199 67.4908L43.7782 77.0062C43.6865 77.6187 43.1611 78.0717 42.5419 78.0717H41.084V119.877H54.2552C54.9457 119.877 55.5052 120.436 55.5052 121.127C55.5052 121.817 54.9452 122.377 54.2552 122.377Z" fill="white"/>
<path d="M192.025 168.155C191.756 168.155 191.486 168.068 191.26 167.894L151.675 137.273H129.911C129.221 137.273 128.661 136.714 128.661 136.023C128.661 135.333 129.221 134.773 129.911 134.773H152.102C152.378 134.773 152.648 134.865 152.867 135.035L188.858 162.875L177.103 136.532C176.93 136.146 176.965 135.698 177.195 135.343C177.426 134.987 177.82 134.773 178.244 134.773H192.582V55.3149H146.647V121.127C146.647 121.817 146.087 122.377 145.397 122.377H89.5176V134.773H109.078C109.769 134.773 110.328 135.333 110.328 136.023C110.328 136.714 109.769 137.273 109.078 137.273H88.2676C87.5772 137.273 87.0176 136.714 87.0176 136.023V121.127C87.0176 120.436 87.5772 119.877 88.2676 119.877H144.147V54.0649C144.147 53.3745 144.706 52.8149 145.397 52.8149H193.832C194.522 52.8149 195.082 53.3745 195.082 54.0649V136.023C195.082 136.714 194.522 137.273 193.832 137.273H180.17L193.167 166.396C193.4 166.92 193.248 167.534 192.798 167.888C192.571 168.067 192.298 168.155 192.025 168.155Z" fill="white"/>
<path d="M75.0958 85.3076C74.7758 85.3076 74.4558 85.1856 74.2116 84.941C73.7237 84.4531 73.7237 83.6614 74.2116 83.1735L120.535 36.8635C121.023 36.3756 121.814 36.3756 122.302 36.8635C122.79 37.3518 122.79 38.1431 122.302 38.6314L75.9796 84.9414C75.7354 85.1856 75.4158 85.3076 75.0958 85.3076Z" fill="#FF4D40"/>
<path d="M57.5325 102.874C57.2062 102.874 56.8871 102.746 56.6483 102.508C56.3071 102.167 56.1929 101.659 56.3546 101.204L62.1283 84.9934C62.1904 84.8189 62.2908 84.6601 62.4221 84.5288L121.04 25.924C121.529 25.4361 122.32 25.4361 122.808 25.924L133.243 36.3596C133.478 36.5942 133.61 36.9121 133.61 37.2433C133.61 37.5746 133.478 37.8929 133.243 38.1271L74.6392 96.7319C74.1512 97.2202 73.3596 97.2202 72.8717 96.7319C72.3833 96.244 72.3833 95.4523 72.8717 94.9644L130.592 37.2433L121.924 28.5753L64.3892 86.0976L59.5929 99.5632L67.0983 96.8911C67.7487 96.6594 68.4633 96.999 68.6954 97.6494C68.9271 98.2998 68.5875 99.0144 67.9371 99.2461L57.9516 102.801C57.815 102.85 57.6729 102.874 57.5325 102.874Z" fill="#FF4D40"/>
<path d="M132.36 38.4931C132.04 38.4931 131.721 38.371 131.477 38.1268L121.041 27.6914C120.553 27.2039 120.553 26.4135 121.039 25.9252L125.341 21.6102C125.575 21.3752 125.893 21.2431 126.225 21.2427C126.225 21.2427 126.226 21.2427 126.226 21.2427C126.557 21.2427 126.875 21.3739 127.109 21.6081L137.558 32.0439C137.793 32.2785 137.925 32.5964 137.925 32.9281C137.925 33.2598 137.794 33.5781 137.559 33.8123L133.244 38.1268C133 38.371 132.68 38.4931 132.36 38.4931ZM123.691 26.8064L132.36 35.4756L134.907 32.9293L126.228 24.2614L123.691 26.8064Z" fill="#FF4D40"/>
<path d="M136.674 34.1788C136.354 34.1788 136.035 34.0571 135.791 33.8133L125.342 23.3775C125.108 23.1429 124.976 22.825 124.976 22.4933C124.976 22.1617 125.107 21.8433 125.342 21.6092L134.702 12.2492C135.265 11.6854 136.015 11.375 136.814 11.375C137.612 11.375 138.362 11.6854 138.926 12.2496L146.241 19.5783C146.982 20.3096 147.394 21.2958 147.394 22.3488C147.394 23.3987 146.985 24.3867 146.24 25.13L137.558 33.8129C137.314 34.0567 136.994 34.1788 136.674 34.1788ZM127.994 22.4925L136.674 31.1617L144.473 23.3617C144.745 23.09 144.894 22.7304 144.894 22.3483C144.894 21.9696 144.747 21.615 144.479 21.3508L137.157 14.0163C137.034 13.8933 136.889 13.875 136.814 13.875C136.739 13.875 136.594 13.8933 136.47 14.0167L127.994 22.4925Z" fill="#FF4D40"/>
<path d="M57.5325 102.873C57.2062 102.873 56.8871 102.745 56.6483 102.507C56.3071 102.166 56.1929 101.659 56.3546 101.204L62.1283 84.993C62.1904 84.8184 62.2908 84.6596 62.4221 84.5288L68.41 78.5405C68.8979 78.0521 69.6887 78.0525 70.1775 78.54L80.6266 88.9755C80.8612 89.21 80.9929 89.528 80.9933 89.8596C80.9937 90.1913 80.8617 90.5096 80.6271 90.7438L74.6392 96.7317C74.5083 96.863 74.3496 96.9634 74.1746 97.0255L57.9512 102.801C57.815 102.85 57.6729 102.873 57.5325 102.873ZM64.3892 86.0971L59.5929 99.5625L73.0708 94.7642L77.975 89.8596L69.2946 81.1909L64.3892 86.0971Z" fill="#FF4D40"/>
<path d="M42.5282 78.0721H37.1245C36.5062 78.0721 35.9803 77.6196 35.8882 77.0079L34.4566 67.4908C33.0682 67.2279 31.6828 66.8567 30.3195 66.3817L24.3216 73.9096C23.9362 74.3938 23.2541 74.5225 22.7187 74.2129L18.032 71.5042C17.4962 71.1946 17.2674 70.5396 17.4945 69.9638L21.0262 61.005C19.9466 60.0737 18.9287 59.0588 17.9866 57.9738L9.02449 61.4954C8.44949 61.7221 7.79574 61.4938 7.48616 60.9588L4.77699 56.2854C4.46616 55.7496 4.59491 55.0671 5.07949 54.6808L12.6074 48.6825C12.1345 47.3208 11.7628 45.9312 11.4978 44.5321L1.98074 43.0996C1.36908 43.0075 0.916992 42.4821 0.916992 41.8633V36.4596C0.916992 35.8413 1.36908 35.3154 1.98074 35.2233L11.4978 33.7908C11.7628 32.3917 12.1341 31.0021 12.6074 29.6404L5.07949 23.6425C4.59491 23.2567 4.46657 22.5742 4.77699 22.0379L7.48616 17.3642C7.79658 16.8296 8.44991 16.6012 9.02491 16.8275L17.9837 20.3479C18.9262 19.2554 19.9449 18.2396 21.0253 17.3137L17.4945 8.34458C17.2674 7.76792 17.4974 7.11208 18.0345 6.80333L22.7212 4.10792C23.2566 3.8 23.9366 3.92917 24.322 4.4125L30.3199 11.9404C31.6832 11.4658 33.0691 11.0946 34.457 10.8312L35.8887 1.31417C35.9807 0.702499 36.5062 0.25 37.1249 0.25H42.5287C43.147 0.25 43.6728 0.702082 43.7649 1.31375L45.1982 10.8308C46.5957 11.095 47.9849 11.4667 49.3482 11.9404L55.3466 4.41208C55.732 3.92875 56.4137 3.79917 56.9487 4.10833L61.622 6.80375C62.1578 7.11292 62.387 7.7675 62.1607 8.34333L58.6407 17.3121C59.7216 18.2371 60.7407 19.2538 61.6845 20.3475L70.5124 16.8787C71.1557 16.6258 71.8803 16.9425 72.1328 17.585C72.3853 18.2275 72.0691 18.9529 71.4266 19.2054L61.7603 23.0038C61.2528 23.2033 60.6745 23.0504 60.3316 22.6267C59.1424 21.1567 57.8078 19.8271 56.3657 18.6746C55.9378 18.3325 55.7824 17.7517 55.9828 17.2417L59.4403 8.43167L56.6312 6.81167L50.7424 14.2025C50.4032 14.6288 49.8262 14.785 49.3182 14.5908C47.552 13.915 45.7307 13.4288 43.9045 13.145C43.3645 13.0612 42.9416 12.6363 42.8603 12.0958L41.4528 2.75042H38.2012L36.7953 12.0958C36.7141 12.6363 36.2912 13.0612 35.7507 13.145C33.9387 13.4262 32.1216 13.9129 30.3499 14.5908C29.8412 14.7858 29.2649 14.6283 28.9257 14.2021L23.0366 6.81041L20.2162 8.4325L23.6832 17.2404C23.8841 17.7504 23.7291 18.3317 23.3012 18.6742C21.8582 19.8287 20.5245 21.1587 19.3366 22.6267C18.9932 23.0504 18.4149 23.2033 17.9078 23.0038L9.11032 19.5467L7.48074 22.3583L14.8691 28.245C15.2949 28.5842 15.452 29.1604 15.2574 29.6692C14.5828 31.4317 14.0966 33.2537 13.8116 35.0838C13.7274 35.6233 13.3028 36.0463 12.7624 36.1275L3.41699 37.5342V40.7863L12.7624 42.1929C13.3024 42.2742 13.7274 42.6967 13.8116 43.2367C14.0966 45.0671 14.5832 46.8887 15.2574 48.6512C15.452 49.16 15.2949 49.7362 14.8691 50.0754L7.48074 55.9625L9.11032 58.7738L17.9078 55.3167C18.4141 55.1175 18.9899 55.2683 19.3332 55.6896C20.5237 57.1483 21.8603 58.4808 23.3062 59.6504C23.7307 59.9938 23.8832 60.5729 23.6828 61.0808L20.2153 69.8771L23.0374 71.5083L28.9249 64.1188C29.2641 63.6929 29.8403 63.535 30.3491 63.73C32.1207 64.4079 33.9378 64.8946 35.7499 65.1758C36.2899 65.2596 36.7132 65.6846 36.7945 66.225L38.2003 75.5704H41.452L42.8595 66.225C42.9407 65.6846 43.3637 65.26 43.9037 65.1758C45.7299 64.8921 47.5512 64.4054 49.3174 63.73C49.8249 63.535 50.402 63.6921 50.7416 64.1183L56.6287 71.5071L59.4399 69.8779L55.982 61.0796C55.7824 60.5717 55.9353 59.9929 56.3599 59.65C57.8341 58.4592 59.1699 57.1283 60.3307 55.6938C60.6737 55.27 61.252 55.1167 61.7595 55.3167L70.5549 58.7729L72.1749 55.9633L64.7832 50.0617C64.3545 49.7196 64.1991 49.1383 64.3995 48.6279C65.0632 46.9392 65.5487 45.1254 65.8428 43.2367C65.927 42.6971 66.3516 42.2742 66.892 42.1929L76.2362 40.7863V37.5342L66.892 36.1275C66.352 36.0463 65.927 35.6233 65.8428 35.0838C65.7887 34.7342 65.7274 34.3867 65.6599 34.0421C65.527 33.3646 65.9687 32.7075 66.6457 32.575C67.3228 32.4425 67.9803 32.8838 68.1128 33.5608C68.1278 33.6371 68.1424 33.7138 68.1566 33.79L77.672 35.2225C78.2837 35.3146 78.7357 35.84 78.7357 36.4588V41.8625C78.7357 42.4808 78.2837 43.0067 77.672 43.0988L68.1566 44.5312C67.8882 45.96 67.5178 47.3467 67.0499 48.6733L74.5741 54.6804C75.057 55.0658 75.1857 55.7463 74.8774 56.2817L72.1828 60.955C71.8736 61.4913 71.2187 61.7213 70.6428 61.4938L61.6828 57.9729C60.7537 59.0475 59.7341 60.0625 58.6387 61.0046L62.1595 69.9633C62.3853 70.5383 62.1574 71.1921 61.6228 71.5021L56.9495 74.2108C56.4132 74.5208 55.7312 74.3929 55.3449 73.9083L49.3466 66.38C47.9837 66.8538 46.5941 67.225 45.1966 67.4896L43.7632 77.0067C43.6724 77.6196 43.147 78.0721 42.5282 78.0721Z" fill="white"/>
<path d="M39.8341 54.0808C31.612 54.0808 24.9229 47.3854 24.9229 39.1558C24.9229 30.9337 31.612 24.2441 39.8341 24.2441C48.0566 24.2441 54.7462 30.9337 54.7462 39.1558C54.7462 47.3854 48.057 54.0808 39.8341 54.0808ZM39.8341 26.7437C32.9904 26.7437 27.4229 32.3116 27.4229 39.1554C27.4229 46.0066 32.9904 51.5804 39.8341 51.5804C46.6783 51.5804 52.2462 46.0066 52.2462 39.1554C52.2462 32.3116 46.6783 26.7437 39.8341 26.7437Z" fill="white"/>
</svg>
