<svg width="195" height="136" viewBox="0 0 195 136" fill="none" xmlns="http://www.w3.org/2000/svg">
<path d="M132.629 129.454H10.35C4.65 129.45 0.00416667 124.804 0 119.1V110C0 109.671 0.133333 109.35 0.366666 109.117C0.6 108.883 0.920833 108.75 1.25 108.75H140.1C140.7 108.75 141.217 109.179 141.329 109.766C141.437 110.358 141.116 110.945 140.558 111.162L134.725 113.454C134.487 113.745 134.133 113.912 133.758 113.912C133.066 113.912 132.508 113.35 132.508 112.662V112.492C132.508 111.983 132.825 111.517 133.3 111.329L133.499 111.25H2.5V119.1C2.50833 123.425 6.03333 126.946 10.35 126.955H132.629C133.321 126.955 133.879 127.513 133.879 128.205C133.879 128.225 133.879 128.246 133.879 128.267C133.845 128.933 133.296 129.454 132.629 129.454ZM133.758 122.246C133.067 122.246 132.508 121.683 132.508 120.996C132.508 120.308 133.067 119.746 133.758 119.746C134.446 119.746 135.008 120.308 135.008 120.996C135.008 121.683 134.446 122.246 133.758 122.246ZM163 114.32C162.687 114.32 162.387 114.204 162.158 113.996L161.933 113.792C161.55 113.442 161.421 112.9 161.608 112.417C161.795 111.929 162.254 111.617 162.775 111.617H163.237C163.754 111.617 164.225 111.941 164.408 112.429C164.587 112.916 164.446 113.47 164.05 113.812L163.817 114.016C163.587 114.212 163.3 114.32 163 114.32Z" fill="white"/>
<path d="M140.101 111.25H13.6797C13.3505 111.25 13.0297 111.117 12.7964 110.883C12.563 110.65 12.4297 110.329 12.4297 110V99.4414C12.4297 98.7497 12.9922 98.1914 13.6797 98.1914C14.3672 98.1914 14.9297 98.7497 14.9297 99.4414V108.75H139.864L147.885 105.6C148.168 105.487 148.484 105.483 148.772 105.587L148.785 105.596C148.785 105.596 148.789 105.596 148.793 105.596C149.101 105.717 149.343 105.946 149.48 106.25C149.489 106.266 149.497 106.288 149.505 106.304C149.56 106.454 149.589 106.608 149.589 106.763C149.589 107.279 149.276 107.738 148.797 107.925L140.559 111.163C140.414 111.221 140.259 111.25 140.101 111.25ZM155.639 107.25C155.317 107.25 155.009 107.125 154.772 106.9C154.276 106.421 154.263 105.625 154.743 105.129C155.205 104.65 156.026 104.633 156.51 105.096C157.005 105.575 157.018 106.371 156.543 106.867C156.301 107.113 155.984 107.25 155.639 107.25ZM156.53 101.004C155.843 101.004 155.28 100.446 155.28 99.7539V98.3747C152.997 96.9747 151.085 95.0081 149.755 92.6831C148.38 90.2872 147.655 87.5497 147.655 84.7706C147.651 80.3372 149.417 76.2497 152.626 73.2581C154.126 71.8585 155.855 70.7622 157.768 69.9997C159.697 69.2331 161.714 68.8414 163.764 68.8414H163.773C166.098 68.8414 168.343 69.3497 170.435 70.3539V24.9043H124.13C123.439 24.9043 122.88 24.346 122.88 23.6543C122.88 22.9668 123.439 22.4043 124.13 22.4043H171.685C172.014 22.4043 172.338 22.5376 172.572 22.771C172.805 23.0043 172.939 23.3251 172.939 23.6543V72.4997C172.939 72.9622 172.685 73.3876 172.276 73.6039C171.876 73.8164 171.368 73.7914 170.993 73.5414C168.839 72.1043 166.339 71.3418 163.764 71.3418H163.755C160.309 71.3418 156.876 72.7043 154.334 75.0831C151.601 77.6456 150.155 80.9956 150.155 84.7706C150.155 89.671 152.826 94.1914 157.135 96.5622C157.53 96.7831 157.78 97.1997 157.78 97.6585V99.7539C157.78 100.446 157.217 101.004 156.53 101.004ZM13.6797 92.3543C12.9922 92.3543 12.4297 91.796 12.4297 91.1085C12.4297 90.4168 12.9922 89.8585 13.6797 89.8585C14.3672 89.8585 14.9297 90.4168 14.9297 91.1085C14.9297 91.796 14.3672 92.3543 13.6797 92.3543ZM13.6797 84.0247C12.9922 84.0247 12.4297 83.4622 12.4297 82.7747V23.6543C12.4297 23.3251 12.563 23.0043 12.7964 22.771C13.0297 22.5376 13.3505 22.4043 13.6797 22.4043H43.9798C44.309 22.4043 44.6298 22.5376 44.8632 22.771C45.0965 23.0043 45.2299 23.3251 45.2299 23.6543V34.096C45.2382 37.4376 47.9632 40.1668 51.309 40.171H53.1341C53.4632 40.171 53.7882 40.3043 54.0174 40.5376C54.2507 40.771 54.3841 41.0918 54.3841 41.421V47.6126L66.08 40.3585C66.2758 40.2376 66.5091 40.171 66.7425 40.171H86.8384C88.8592 40.171 90.8092 39.1043 91.9259 37.3876L90.4884 36.4918C90.2467 36.346 90.0717 36.1251 89.9759 35.8626C89.9717 35.8543 89.9676 35.846 89.9676 35.8376C89.9342 35.7501 89.9176 35.6585 89.9051 35.5668V35.5376C89.8801 35.3043 89.9301 35.0668 90.0384 34.8585L90.0509 34.8293L90.0551 34.8251C90.0592 34.821 90.0634 34.8126 90.0676 34.8043L90.1009 34.746C90.1051 34.746 90.1051 34.7418 90.1051 34.7418C90.1384 34.6918 90.1759 34.646 90.2134 34.6001C90.2301 34.5835 90.2426 34.571 90.2551 34.5585L90.2884 34.5251C90.2884 34.521 90.2926 34.521 90.2967 34.5168C90.3009 34.5126 90.3051 34.5085 90.3092 34.5043C90.4009 34.421 90.5051 34.3501 90.6176 34.3001L90.6551 34.2835C90.6592 34.2835 90.6592 34.2793 90.6634 34.2793L90.6842 34.271C90.7801 34.2335 90.8759 34.2085 90.9717 34.196L90.9801 34.2126L90.9759 34.1918C91.2634 34.1543 91.5592 34.2168 91.8092 34.371L103.501 41.6251V35.4335C103.501 35.1001 103.634 34.7793 103.868 34.546C104.101 34.3168 104.426 34.1835 104.751 34.1835H106.593C109.297 34.1835 111.701 32.3543 112.435 29.7376C112.614 29.0918 113.322 28.6876 113.976 28.871C114.639 29.0585 115.026 29.7501 114.839 30.4126C114.343 32.1793 113.264 33.7751 111.806 34.9001C110.293 36.0626 108.489 36.6793 106.581 36.6835H106.001V43.871C106.001 44.3251 105.755 44.7418 105.359 44.9626C104.972 45.1793 104.472 45.1668 104.093 44.9335L94.0509 38.7043C92.4593 41.1835 89.7592 42.6668 86.8259 42.671H67.0966L53.7924 50.921C53.4132 51.1585 52.9174 51.171 52.5299 50.9501C52.1299 50.7293 51.8841 50.3126 51.8841 49.8585V42.671H51.309C46.584 42.6668 42.734 38.821 42.7298 34.096V24.9043H14.9297V82.7751C14.9297 83.4626 14.3672 84.0247 13.6797 84.0247ZM115.797 24.9043C115.105 24.9043 114.547 24.346 114.547 23.6543C114.547 22.9668 115.105 22.4043 115.797 22.4043C116.484 22.4043 117.047 22.9668 117.047 23.6543C117.047 24.346 116.484 24.9043 115.797 24.9043Z" fill="white"/>
<path d="M116.092 111.249C115.404 111.249 114.842 110.691 114.842 109.999C114.842 109.312 115.404 108.749 116.092 108.749H139.863L153.634 103.337C154.084 103.162 154.609 103.267 154.959 103.604L155.28 103.912V98.3749C152.996 96.9749 151.084 95.0082 149.755 92.6832C148.379 90.2874 147.655 87.5499 147.655 84.7707C147.655 82.867 147.988 80.992 148.651 79.2045L148.751 78.9374C148.763 78.8957 148.784 78.8541 148.805 78.8082L148.884 78.6166C148.959 78.4332 149.038 78.2541 149.117 78.087L149.271 77.7537L149.35 77.5953C149.367 77.5578 149.384 77.5245 149.4 77.4953L150.113 76.2495C150.138 76.212 150.163 76.1707 150.188 76.137C150.213 76.0995 150.246 76.0537 150.284 75.9953C150.334 75.9162 150.396 75.8203 150.479 75.712L150.584 75.5532C150.613 75.4991 150.65 75.4491 150.688 75.3995L151.026 74.9662C151.121 74.8366 151.205 74.7366 151.267 74.662C151.305 74.6162 151.334 74.5828 151.355 74.5537L151.363 74.5449C151.384 74.5199 151.405 74.4907 151.43 74.4662L151.838 74.0037C151.838 73.9995 151.842 73.9995 151.842 73.9953L152.017 73.812C152.221 73.5953 152.43 73.387 152.655 73.1787L153.109 72.7662C153.109 72.7662 153.113 72.7662 153.113 72.762L153.405 72.5037C153.459 72.4616 153.517 72.4116 153.584 72.362C153.651 72.3074 153.726 72.2491 153.805 72.1866L154.059 71.9949C154.059 71.9907 154.059 71.9907 154.063 71.9907L154.734 71.5158C154.734 71.5116 154.738 71.5074 154.742 71.5074L156.08 70.7074H156.084L156.405 70.5282L158.909 69.5199L159.189 69.4324C159.239 69.4199 159.284 69.4074 159.334 69.3991L160.443 69.1324L161.989 68.9032C162.251 68.8699 162.484 68.8574 162.693 68.8491L162.747 68.8449V33.0449H147.28C146.589 33.0449 146.03 32.4824 146.03 31.7949C146.03 31.1033 146.589 30.5449 147.28 30.5449H163.997C164.326 30.5449 164.647 30.6783 164.88 30.9116C165.114 31.1408 165.247 31.4658 165.247 31.7949V70.0741C165.247 70.4074 165.118 70.7199 164.88 70.9574C164.643 71.1949 164.33 71.3241 163.997 71.3241L162.864 71.3449C162.618 71.3532 162.442 71.3657 162.28 71.3866L161.193 71.5366L160.147 71.7658L159.93 71.8283C159.893 71.8366 159.859 71.8491 159.826 71.8532L158.664 72.2532L157.476 72.7907L156.988 73.0578C156.988 73.062 156.984 73.062 156.98 73.062L155.755 73.8453L155.334 74.1662C155.271 74.212 155.209 74.262 155.138 74.3203C155.092 74.3582 155.046 74.3957 154.992 74.437L154.371 74.9912C154.192 75.1578 154.017 75.337 153.834 75.5287L153.484 75.9078C153.484 75.912 153.484 75.912 153.484 75.912L153.301 76.1245C153.242 76.1953 153.192 76.2578 153.151 76.3078C153.096 76.3745 153.059 76.4203 153.034 76.4574C153.022 76.4741 153.009 76.4907 152.997 76.5074L152.734 76.8412C152.722 76.862 152.709 76.8787 152.697 76.8953L152.592 77.0449C152.567 77.0907 152.538 77.1324 152.505 77.1745C152.48 77.2078 152.442 77.262 152.396 77.3328C152.354 77.3949 152.305 77.4662 152.25 77.5495L151.663 78.5624C151.651 78.5957 151.634 78.6291 151.617 78.662L151.442 79.0166C151.421 79.062 151.4 79.112 151.38 79.1582L151.359 79.1999C151.338 79.242 151.317 79.292 151.292 79.3541C151.264 79.4166 151.23 79.4957 151.188 79.5832C151.188 79.5832 151.188 79.5878 151.188 79.592L151.093 79.8295C151.076 79.867 151.064 79.8958 151.047 79.9249L150.993 80.0791C150.993 80.0791 150.993 80.0791 150.989 80.0791C150.434 81.5916 150.155 83.1666 150.155 84.7707C150.151 89.6712 152.826 94.1916 157.13 96.5624C157.53 96.7832 157.78 97.1999 157.78 97.6587V106.854C157.78 107.358 157.48 107.808 157.018 108.004C156.559 108.2 156.018 108.096 155.659 107.754L153.801 105.958L140.559 111.162C140.414 111.221 140.259 111.249 140.101 111.249H116.092ZM107.759 111.249C107.071 111.249 106.509 110.687 106.509 109.999C106.509 109.312 107.071 108.749 107.759 108.749C108.45 108.749 109.009 109.312 109.009 109.999C109.009 110.687 108.45 111.249 107.759 111.249ZM99.4252 111.249H21.3711C21.0419 111.249 20.7169 111.117 20.4878 110.883C20.2544 110.649 20.1211 110.329 20.1211 109.999V42.2249C20.1211 41.5333 20.6794 40.9749 21.3711 40.9749C22.0586 40.9749 22.6211 41.5333 22.6211 42.2249V108.75H99.4252C100.117 108.75 100.675 109.313 100.675 110C100.675 110.687 100.117 111.249 99.4252 111.249ZM53.1336 51.1082C52.9211 51.1082 52.7128 51.0541 52.5253 50.9499C52.1294 50.7291 51.8836 50.3124 51.8836 49.8582V42.6707H51.3086C46.5794 42.6666 42.7336 38.8207 42.7294 34.0957V33.0458H22.2919C22.5044 33.2749 22.6211 33.5749 22.6211 33.8916C22.6211 34.5791 22.0586 35.1416 21.3711 35.1416C20.6794 35.1416 20.1211 34.5791 20.1211 33.8916C20.1211 33.4624 20.3294 33.0749 20.6878 32.8416C20.3294 32.6083 20.1211 32.2208 20.1211 31.7958C20.1211 31.1041 20.6794 30.5458 21.3711 30.5458H43.9794C44.3086 30.5458 44.6294 30.6791 44.8628 30.9124C45.0961 31.1416 45.2294 31.4666 45.2294 31.7958V34.0957C45.2336 37.4374 47.9628 40.1624 51.3086 40.1707H53.1336C53.4628 40.1707 53.7878 40.3041 54.0169 40.5374C54.2503 40.7708 54.3836 41.0916 54.3836 41.4207V47.6124L66.0794 40.3582C66.2753 40.2374 66.5086 40.1707 66.7378 40.1707H86.8378C88.8586 40.1707 90.8044 39.1041 91.9252 37.3874L90.4878 36.4916C90.2044 36.3166 90.0086 36.0416 89.9294 35.7166C89.8836 35.5166 89.8878 35.3124 89.9378 35.1208L89.9461 35.0916C89.9461 35.0916 89.9461 35.0874 89.9461 35.0833C89.9502 35.0791 89.9502 35.0708 89.9502 35.0666L89.9586 35.0416C89.9627 35.0333 89.9628 35.0291 89.9669 35.0249L89.9753 34.9958C89.9794 34.9833 89.9836 34.9749 89.9877 34.9666C89.9877 34.9666 89.9877 34.9666 89.9877 34.9624C90.0169 34.8958 90.0461 34.8333 90.0878 34.7708L90.1794 34.6374C90.1836 34.6374 90.1836 34.6333 90.1878 34.6333C90.2669 34.5333 90.3669 34.4458 90.4794 34.3749L90.4961 34.3874L90.4836 34.3708L90.5169 34.3499L90.5253 34.3458C90.7336 34.2291 90.9753 34.1666 91.2128 34.1833C91.4211 34.1916 91.6253 34.2583 91.8086 34.3708L103.5 41.6249V35.4333C103.5 35.0999 103.634 34.7791 103.867 34.5458C104.101 34.3124 104.421 34.1791 104.755 34.1791H106.58C108.713 34.1791 110.721 33.0208 111.826 31.1583C112.051 30.7791 112.463 30.5458 112.901 30.5458H130.613C131.301 30.5458 131.863 31.1041 131.863 31.7958C131.863 32.4833 131.301 33.0458 130.613 33.0458H113.58C111.963 35.3208 109.346 36.6791 106.58 36.6791H106V43.8708C106 44.3249 105.754 44.7416 105.359 44.9624C104.971 45.1791 104.471 45.1666 104.092 44.9333L94.0502 38.7041C92.4586 41.1833 89.7586 42.6666 86.8252 42.6707H67.0961L53.7961 50.9207C53.5961 51.0457 53.3669 51.1082 53.1336 51.1082ZM138.946 33.0458C138.254 33.0458 137.696 32.4833 137.696 31.7958C137.696 31.1041 138.254 30.5458 138.946 30.5458C139.634 30.5458 140.192 31.1041 140.192 31.7958C140.192 32.4833 139.634 33.0458 138.946 33.0458Z" fill="white"/>
<path d="M92.6794 124.479C89.7211 124.479 87.3128 122.067 87.3086 119.1C87.3086 117.667 87.8711 116.321 88.8836 115.308C89.8961 114.295 91.2419 113.737 92.6794 113.733C95.6419 113.738 98.0544 116.145 98.0544 119.1C98.0544 122.067 95.6419 124.479 92.6794 124.479ZM92.6794 116.233C91.0961 116.233 89.8086 117.521 89.8086 119.1C89.8086 120.688 91.0961 121.979 92.6794 121.979C94.2628 121.979 95.5503 120.687 95.5544 119.1C95.5503 117.521 94.2628 116.233 92.6794 116.233Z" fill="white"/>
<path d="M53.1327 51.1081C52.9244 51.1081 52.7118 51.054 52.5243 50.9498C52.1285 50.729 51.8827 50.3123 51.8827 49.8581V42.6706H51.3077C46.5827 42.6665 42.7327 38.8206 42.7285 34.0956V22.5915C42.7285 21.8998 43.291 21.3415 43.9785 21.3415C44.6702 21.3415 45.2285 21.8998 45.2285 22.5915V34.0956C45.2368 37.4373 47.9618 40.1665 51.3077 40.1706H53.1327C53.4619 40.1706 53.7868 40.304 54.0202 40.5373C54.2493 40.7706 54.3827 41.0915 54.3827 41.4206V47.6123L66.0785 40.3581C66.2785 40.2373 66.5035 40.1706 66.7369 40.1706H86.8369C88.8577 40.1706 90.8035 39.104 91.9244 37.3873L90.791 36.6831H71.0619C66.3369 36.679 62.4869 32.829 62.4827 28.104V8.5748C62.4827 8.54564 62.4827 8.51647 62.4827 8.4873H51.3077C50.5035 8.4873 49.7243 8.64147 48.991 8.9498C48.8368 9.0123 48.6785 9.04564 48.5118 9.04564C48.0077 9.04564 47.5535 8.74147 47.3577 8.2748C47.2952 8.11647 47.2618 7.95397 47.2618 7.7873C47.266 7.28314 47.5702 6.83314 48.0327 6.64147C49.0743 6.20814 50.1702 5.9873 51.2993 5.9873H63.8619C64.2369 5.9873 64.5869 6.15397 64.8244 6.44564C65.066 6.73314 65.1619 7.10814 65.0869 7.47897C65.0202 7.8373 64.9827 8.19564 64.9827 8.5748V28.104C64.991 31.4498 67.716 34.1748 71.0619 34.1831H91.1452C91.3785 34.1831 91.6119 34.2498 91.8077 34.3706L94.2327 35.879C94.7535 36.1998 94.9619 36.8665 94.7244 37.429C94.0744 38.9581 92.9994 40.2623 91.6119 41.1998C90.1952 42.1581 88.5369 42.6706 86.8244 42.6706H67.0952L53.791 50.9206C53.5952 51.0456 53.366 51.1081 53.1327 51.1081ZM43.9869 15.5081C43.9702 15.5081 43.9493 15.5081 43.9327 15.5081C43.2452 15.479 42.7077 14.8956 42.7368 14.2081C42.766 13.5165 43.3452 12.979 44.0368 13.0081C44.3702 13.0248 44.6785 13.1665 44.9035 13.4123C45.1285 13.654 45.2452 13.9706 45.2327 14.304C45.2368 14.304 45.2369 14.3081 45.2369 14.3081C45.2077 14.9831 44.6577 15.5081 43.9869 15.5081Z" fill="#FF4D40"/>
<path d="M104.749 45.1208C104.52 45.1208 104.29 45.0542 104.09 44.9333L90.7908 36.6792H71.0574C66.3324 36.675 62.4866 32.8292 62.4824 28.1042V8.575C62.4866 3.85 66.3324 0.00416667 71.0574 0H106.578C108.345 0 110.044 0.533334 111.491 1.55C111.495 1.55417 111.495 1.55417 111.495 1.55417C111.824 1.7875 112.02 2.16667 112.024 2.56667C112.024 2.82917 111.945 3.07917 111.795 3.29167C111.416 3.8375 110.599 3.98333 110.057 3.6C109.032 2.87917 107.828 2.5 106.578 2.5H71.0574C67.7157 2.50417 64.9908 5.22917 64.9824 8.575V28.1042C64.9908 31.45 67.7157 34.175 71.0574 34.1833H91.1449C91.3783 34.1833 91.6074 34.2458 91.8074 34.3708L103.499 41.625V35.4333C103.499 35.1042 103.632 34.7792 103.866 34.5458C104.1 34.3167 104.42 34.1833 104.749 34.1833H106.579C109.924 34.175 112.649 31.45 112.658 28.1042V18.2042C112.658 17.5167 113.216 16.9542 113.908 16.9542C114.595 16.9542 115.158 17.5167 115.158 18.2042V28.1042C115.154 32.8292 111.304 36.675 106.579 36.6792H105.999V43.8708C105.999 44.325 105.753 44.7417 105.357 44.9625C105.174 45.0667 104.962 45.1208 104.749 45.1208ZM113.907 11.1208C113.216 11.1208 112.657 10.5625 112.657 9.87083C112.657 9.18333 113.216 8.62083 113.907 8.62083C114.595 8.62083 115.157 9.18333 115.157 9.87083C115.157 10.5625 114.595 11.1208 113.907 11.1208Z" fill="#FF4D40"/>
<path d="M101.146 12.208H76.5039C75.8164 12.208 75.2539 11.6497 75.2539 10.958C75.2539 10.2705 75.8164 9.70801 76.5039 9.70801H101.146C101.837 9.70801 102.396 10.2705 102.396 10.958C102.396 11.6497 101.837 12.208 101.146 12.208Z" fill="#FF4D40"/>
<path d="M101.146 22.1997H76.5039C75.8164 22.1997 75.2539 21.6372 75.2539 20.9497C75.2539 20.258 75.8164 19.6997 76.5039 19.6997H101.146C101.837 19.6997 102.396 20.258 102.396 20.9497C102.396 21.6372 101.837 22.1997 101.146 22.1997Z" fill="#FF4D40"/>
<path d="M89.188 65.0669H34.4297C33.738 65.0669 33.1797 64.5086 33.1797 63.8169C33.1797 63.1294 33.738 62.5669 34.4297 62.5669H89.188C89.8797 62.5669 90.438 63.1294 90.438 63.8169C90.438 64.5086 89.8797 65.0669 89.188 65.0669Z" fill="#FF4D40"/>
<path d="M89.1878 71.1831H61.8086C61.1211 71.1831 60.5586 70.6248 60.5586 69.9331C60.5586 69.2456 61.1211 68.6831 61.8086 68.6831H89.1878C89.8794 68.6831 90.4378 69.2456 90.4378 69.9331C90.4378 70.6248 89.8794 71.1831 89.1878 71.1831Z" fill="#FF4D40"/>
<path d="M70.4089 77.291H34.4297C33.738 77.291 33.1797 76.7285 33.1797 76.041C33.1797 75.3539 33.738 74.791 34.4297 74.791H70.4089C71.1005 74.791 71.6589 75.3539 71.6589 76.041C71.6589 76.7289 71.1005 77.291 70.4089 77.291Z" fill="#FF4D40"/>
<path d="M89.188 83.3994H34.4297C33.738 83.3994 33.1797 82.8369 33.1797 82.1494C33.1797 81.4577 33.738 80.8994 34.4297 80.8994H89.188C89.8797 80.8994 90.438 81.4577 90.438 82.1494C90.438 82.8373 89.8797 83.3994 89.188 83.3994Z" fill="#FF4D40"/>
<path d="M89.1882 89.5166H41.8965C41.2048 89.5166 40.6465 88.9537 40.6465 88.2666C40.6465 87.5791 41.2048 87.0166 41.8965 87.0166H89.1882C89.8798 87.0166 90.4382 87.5791 90.4382 88.2666C90.4382 88.9541 89.8798 89.5166 89.1882 89.5166Z" fill="#FF4D40"/>
<path d="M70.4089 95.6245H34.4297C33.738 95.6245 33.1797 95.062 33.1797 94.3745C33.1797 93.6833 33.738 93.1245 34.4297 93.1245H70.4089C71.1005 93.1245 71.6589 93.6833 71.6589 94.3745C71.6589 95.0624 71.1005 95.6245 70.4089 95.6245Z" fill="#FF4D40"/>
<path d="M89.188 101.729H34.4297C33.738 101.729 33.1797 101.171 33.1797 100.483C33.1797 99.7915 33.738 99.229 34.4297 99.229H89.188C89.8797 99.229 90.438 99.7915 90.438 100.483C90.438 101.171 89.8797 101.729 89.188 101.729Z" fill="#FF4D40"/>
<path d="M163.6 100.713C159.338 100.713 155.333 99.0544 152.321 96.046C149.312 93.0335 147.654 89.0294 147.654 84.7706C147.654 80.5085 149.312 76.5039 152.321 73.4919C155.333 70.4835 159.338 68.8252 163.6 68.8252C167.858 68.8252 171.862 70.4835 174.875 73.4919C177.887 76.5039 179.546 80.5085 179.546 84.7706C179.546 89.0294 177.888 93.0331 174.875 96.046C171.862 99.0544 167.858 100.713 163.6 100.713ZM163.6 71.3252C156.2 71.3377 150.166 77.371 150.15 84.771C150.166 92.1714 156.2 98.2002 163.6 98.2131C171 98.2006 177.033 92.1714 177.046 84.771C177.033 77.371 170.999 71.3377 163.6 71.3252Z" fill="white"/>
<path d="M177.342 82.308H177.338C175.134 82.308 173.001 81.8626 170.992 80.9872C169.051 80.1455 167.321 78.9418 165.855 77.408C165.397 76.933 165.388 76.1789 165.838 75.6959C167.088 74.3459 168.034 72.7793 168.647 71.0376C168.759 70.7085 169.013 70.4376 169.338 70.3001C169.663 70.1668 170.034 70.1751 170.354 70.321C172.447 71.3001 174.342 72.7543 175.83 74.5335C177.35 76.3497 178.429 78.433 179.034 80.7289C179.134 81.108 179.054 81.5001 178.813 81.8084C178.576 82.1209 178.217 82.2959 177.826 82.2959H177.813C177.767 82.2959 177.713 82.3001 177.647 82.3001C177.563 82.3043 177.459 82.308 177.342 82.308ZM168.472 76.458C170.617 78.3497 173.251 79.4876 176.08 79.7497C174.98 77.0247 172.988 74.7039 170.463 73.2039C169.934 74.3668 169.263 75.4626 168.472 76.458Z" fill="white"/>
<path d="M155.95 82.533C153.616 82.533 151.345 82.0289 149.2 81.0372C148.612 80.7668 148.333 80.0997 148.545 79.4872C150.787 73.1122 156.833 68.8247 163.6 68.8247C165.962 68.8247 168.237 69.3289 170.354 70.3205C170.937 70.5955 171.216 71.258 171 71.8664C169.916 74.958 167.937 77.6039 165.27 79.5289C162.545 81.4914 159.325 82.533 155.95 82.533ZM151.345 79.221C152.833 79.7585 154.383 80.033 155.95 80.033C161.22 80.033 166.025 76.9335 168.203 72.133C166.733 71.5955 165.187 71.3251 163.599 71.3251C158.333 71.3251 153.525 74.421 151.345 79.221Z" fill="white"/>
<path d="M192.916 135.496H133.758C133.429 135.496 133.104 135.362 132.874 135.129C132.641 134.895 132.508 134.575 132.508 134.246V116.387C132.508 115.7 133.066 115.137 133.758 115.137C134.445 115.137 135.008 115.7 135.008 116.387V132.996H191.666V113.342L172.833 105.946L163.833 114C163.362 114.421 162.587 114.408 162.133 113.971L153.799 105.959L146.099 108.988C145.954 109.042 145.799 109.071 145.641 109.071C145.124 109.071 144.666 108.763 144.479 108.279C144.42 108.134 144.391 107.979 144.391 107.821C144.391 107.304 144.704 106.846 145.187 106.659L153.633 103.338C154.083 103.163 154.608 103.267 154.958 103.6L163.029 111.363L171.737 103.571C172.083 103.263 172.595 103.171 173.029 103.338L193.37 111.329C193.845 111.513 194.166 111.984 194.166 112.492V134.246C194.166 134.584 194.033 134.896 193.799 135.129C193.562 135.367 193.249 135.496 192.916 135.496ZM137.887 112.121C137.37 112.121 136.912 111.808 136.72 111.325C136.599 111.017 136.607 110.674 136.741 110.371C136.874 110.062 137.116 109.829 137.429 109.704C137.574 109.649 137.729 109.621 137.887 109.621C138.404 109.621 138.862 109.929 139.049 110.412C139.299 111.054 138.983 111.779 138.341 112.033C138.195 112.092 138.041 112.121 137.887 112.121Z" fill="white"/>
<path d="M182.937 135.454H143.725C143.395 135.454 143.075 135.321 142.841 135.087C142.608 134.854 142.475 134.533 142.475 134.204V120.558C142.475 119.866 143.038 119.308 143.725 119.308C144.416 119.308 144.975 119.866 144.975 120.558V132.954H181.687V120.558C181.687 119.866 182.245 119.308 182.937 119.308C183.625 119.308 184.187 119.866 184.187 120.558V134.204C184.187 134.537 184.054 134.85 183.82 135.087C183.583 135.325 183.27 135.454 182.937 135.454Z" fill="white"/>
<path d="M173.115 116.192H153.544C153.203 116.192 152.869 116.05 152.636 115.8C152.399 115.554 152.278 115.217 152.294 114.875L152.84 104.438C152.878 103.75 153.457 103.213 154.153 103.254C154.84 103.292 155.374 103.879 155.336 104.567L154.861 113.691H171.824L171.515 104.62C171.515 104.616 171.515 104.616 171.515 104.612C171.503 104.283 171.624 103.966 171.849 103.724C172.078 103.478 172.386 103.337 172.72 103.328C172.736 103.328 172.749 103.328 172.765 103.328C173.44 103.328 173.99 103.858 174.015 104.533L174.365 114.9C174.378 115.237 174.249 115.566 174.015 115.808C173.782 116.054 173.453 116.192 173.115 116.192Z" fill="white"/>
<path d="M166.276 123.004H160.393C160.063 123.004 159.739 122.871 159.505 122.637C159.276 122.403 159.143 122.083 159.143 121.754V114.941C159.143 114.612 159.276 114.291 159.505 114.058C159.739 113.825 160.063 113.691 160.393 113.691H166.276C166.601 113.691 166.926 113.825 167.159 114.058C167.388 114.292 167.522 114.612 167.522 114.941V121.754C167.522 122.088 167.393 122.4 167.159 122.637C166.921 122.875 166.605 123.004 166.276 123.004ZM161.638 120.504H165.026V116.191H161.638V120.504Z" fill="white"/>
<path d="M168.667 135.496H157.384C157 135.496 156.642 135.325 156.405 135.021C156.163 134.716 156.08 134.329 156.171 133.953L159.175 121.462C159.308 120.899 159.809 120.504 160.392 120.504H166.271C166.871 120.504 167.387 120.933 167.5 121.52L169.896 134.012C169.967 134.374 169.867 134.758 169.633 135.041C169.396 135.325 169.037 135.496 168.667 135.496ZM158.971 132.996H167.158L165.242 123.004H161.375L158.971 132.996Z" fill="white"/>
<path d="M163.233 114.104H162.775C162.45 114.104 162.141 113.983 161.908 113.758L155.663 107.746C155.417 107.512 155.279 107.183 155.279 106.846V97.646C155.279 97.2039 155.513 96.7918 155.892 96.571C156.267 96.3501 156.754 96.3418 157.133 96.5501C159.091 97.6335 161.329 98.2043 163.6 98.2043C165.726 98.2043 167.767 97.7209 169.671 96.7626C170.05 96.5751 170.525 96.5959 170.888 96.8168C171.258 97.0459 171.479 97.446 171.479 97.8839V106.601C171.479 106.955 171.329 107.292 171.063 107.529L164.071 113.788C163.838 113.991 163.542 114.104 163.233 114.104ZM157.779 106.313L163.029 111.363L168.979 106.038V99.7751C167.254 100.391 165.446 100.704 163.604 100.704H163.592C161.588 100.704 159.629 100.337 157.78 99.6122V106.313H157.779Z" fill="white"/>
</svg>
