<svg width="79" height="81" viewBox="0 0 79 81" fill="none" xmlns="http://www.w3.org/2000/svg">
<path d="M38.8477 64.487C37.9049 64.487 37.1406 63.7225 37.1406 62.7799C37.1406 61.8374 37.9049 61.0728 38.8477 61.0728C39.7904 61.0728 40.5548 61.8374 40.5548 62.7799C40.5548 63.7225 39.7904 64.487 38.8477 64.487Z" fill="white"/>
<path d="M72.0227 68.4137H5.67306C2.97464 68.4137 0.779297 66.2185 0.779297 63.5201V17.6557C0.779297 14.9573 2.97464 12.762 5.67306 12.762H15.8018C16.0847 12.762 16.314 12.9912 16.314 13.2741C16.314 13.557 16.0847 13.7862 15.8018 13.7862H5.67306C3.53935 13.7862 1.80356 15.522 1.80356 17.6557V63.5201C1.80356 65.6536 3.53935 67.3894 5.67306 67.3894H72.0227C74.1563 67.3894 75.892 65.6536 75.892 63.5199V17.6557C75.892 15.522 74.1563 13.7862 72.0225 13.7862H61.8938C61.6109 13.7862 61.3816 13.557 61.3816 13.2741C61.3816 12.9912 61.6109 12.762 61.8938 12.762H72.0225C74.721 12.762 76.9163 14.9573 76.9163 17.6557V63.5199C76.9163 66.2183 74.7211 68.4137 72.0227 68.4137Z" fill="white"/>
<path d="M73.4171 78.1439C74.1242 78.1439 74.6974 77.5707 74.6974 76.8636C74.6974 76.1565 74.1242 75.5833 73.4171 75.5833C72.7099 75.5833 72.1367 76.1565 72.1367 76.8636C72.1367 77.5707 72.7099 78.1439 73.4171 78.1439Z" fill="white"/>
<path d="M59.7608 73.0226C60.4679 73.0226 61.0411 72.4493 61.0411 71.7422C61.0411 71.0351 60.4679 70.4619 59.7608 70.4619C59.0537 70.4619 58.4805 71.0351 58.4805 71.7422C58.4805 72.4493 59.0537 73.0226 59.7608 73.0226Z" fill="white"/>
<path d="M11.96 3.88488C12.6671 3.88488 13.2403 3.31166 13.2403 2.60455C13.2403 1.89744 12.6671 1.32422 11.96 1.32422C11.2529 1.32422 10.6797 1.89744 10.6797 2.60455C10.6797 3.31166 11.2529 3.88488 11.96 3.88488Z" fill="white"/>
<path d="M3.42486 9.00622C4.13197 9.00622 4.70519 8.43299 4.70519 7.72589C4.70519 7.01878 4.13197 6.44556 3.42486 6.44556C2.71775 6.44556 2.14453 7.01878 2.14453 7.72589C2.14453 8.43299 2.71775 9.00622 3.42486 9.00622Z" fill="white"/>
<path d="M76.8311 12.4203C77.5382 12.4203 78.1114 11.8471 78.1114 11.14C78.1114 10.4328 77.5382 9.85962 76.8311 9.85962C76.124 9.85962 75.5508 10.4328 75.5508 11.14C75.5508 11.8471 76.124 12.4203 76.8311 12.4203Z" fill="white"/>
<path d="M57.1983 8.1527C57.9054 8.1527 58.4786 7.57948 58.4786 6.87237C58.4786 6.16526 57.9054 5.59204 57.1983 5.59204C56.4912 5.59204 55.918 6.16526 55.918 6.87237C55.918 7.57948 56.4912 8.1527 57.1983 8.1527Z" fill="white"/>
<path d="M52.0772 8.1527C52.7843 8.1527 53.3575 7.57948 53.3575 6.87237C53.3575 6.16526 52.7843 5.59204 52.0772 5.59204C51.3701 5.59204 50.7969 6.16526 50.7969 6.87237C50.7969 7.57948 51.3701 8.1527 52.0772 8.1527Z" fill="white"/>
<path d="M46.9561 8.1527C47.6632 8.1527 48.2364 7.57948 48.2364 6.87237C48.2364 6.16526 47.6632 5.59204 46.9561 5.59204C46.249 5.59204 45.6758 6.16526 45.6758 6.87237C45.6758 7.57948 46.249 8.1527 46.9561 8.1527Z" fill="white"/>
<path d="M20.4971 73.8763C21.2042 73.8763 21.7775 73.3031 21.7775 72.596C21.7775 71.8889 21.2042 71.3157 20.4971 71.3157C19.79 71.3157 19.2168 71.8889 19.2168 72.596C19.2168 73.3031 19.79 73.8763 20.4971 73.8763Z" fill="white"/>
<path d="M50.7985 80.3632H26.899C24.734 80.3632 22.9727 78.6019 22.9727 76.4368C22.9727 74.2717 24.734 72.5105 26.899 72.5105C29.4405 72.5105 31.5082 70.4428 31.5082 67.9013C31.5082 67.6184 31.7375 67.3892 32.0203 67.3892H45.6772C45.9601 67.3892 46.1893 67.6184 46.1893 67.9013C46.1893 70.4428 48.257 72.5105 50.7985 72.5105C52.9636 72.5105 54.7249 74.2717 54.7249 76.4368C54.7249 78.6019 52.9636 80.3632 50.7985 80.3632ZM32.5094 68.4134C32.2499 71.2808 29.8328 73.5347 26.899 73.5347C25.2988 73.5347 23.9969 74.8366 23.9969 76.4368C23.9969 78.0371 25.2988 79.3389 26.899 79.3389H50.7985C52.3988 79.3389 53.7006 78.0371 53.7006 76.4368C53.7006 74.8366 52.3988 73.5347 50.7985 73.5347C47.8647 73.5347 45.4476 71.2808 45.1881 68.4134H32.5094Z" fill="white"/>
<path d="M71.2826 58.1708H6.41252C6.12966 58.1708 5.90039 57.9415 5.90039 57.6587V18.3952C5.90039 18.1123 6.12966 17.8831 6.41252 17.8831H15.8016C16.0845 17.8831 16.3138 18.1123 16.3138 18.3952C16.3138 18.6781 16.0845 18.9073 15.8016 18.9073H6.92466V57.1465H70.7705V18.9073H61.8935C61.6107 18.9073 61.3814 18.6781 61.3814 18.3952C61.3814 18.1123 61.6107 17.8831 61.8935 17.8831H71.2826C71.5655 17.8831 71.7948 18.1123 71.7948 18.3952V57.6587C71.7948 57.9415 71.5655 58.1708 71.2826 58.1708Z" fill="white"/>
<path d="M11.5338 80.3632C9.36882 80.3632 7.60742 78.602 7.60742 76.4368C7.60742 74.2717 9.36882 72.5105 11.5338 72.5105C13.6987 72.5105 15.4601 74.2717 15.4601 76.4368C15.4601 78.602 13.6987 80.3632 11.5338 80.3632ZM11.5338 73.5348C9.93353 73.5348 8.63169 74.8366 8.63169 76.4368C8.63169 78.0371 9.93353 79.3389 11.5338 79.3389C13.134 79.3389 14.4359 78.0371 14.4359 76.4368C14.4359 74.8366 13.134 73.5348 11.5338 73.5348Z" fill="white"/>
<path d="M69.5748 10.3718C66.9392 10.3718 64.7949 8.22751 64.7949 5.59191C64.7949 2.95631 66.9392 0.812012 69.5748 0.812012C72.2104 0.812012 74.3547 2.95631 74.3547 5.59191C74.3547 8.22751 72.2104 10.3718 69.5748 10.3718ZM69.5748 1.83628C67.5039 1.83628 65.8192 3.52102 65.8192 5.59191C65.8192 7.6628 67.5039 9.34755 69.5748 9.34755C71.6457 9.34755 73.3305 7.6628 73.3305 5.59191C73.3305 3.52102 71.6457 1.83628 69.5748 1.83628Z" fill="#141517"/>
<path d="M58.4504 47.9282H19.2439C17.0633 47.9282 15.2891 46.154 15.2891 43.9733V5.62039C15.2891 3.43972 17.0633 1.66553 19.2439 1.66553H58.4506C60.6311 1.66553 62.4052 3.43972 62.4052 5.62039V43.9735C62.4052 46.154 60.6311 47.9282 58.4504 47.9282ZM19.2439 2.68979C17.628 2.68979 16.3133 4.00444 16.3133 5.62039V43.9735C16.3133 45.5894 17.628 46.9041 19.2439 46.9041H58.4506C60.0665 46.9041 61.3812 45.5894 61.3812 43.9735V5.62039C61.381 4.00444 60.0663 2.68979 58.4504 2.68979H19.2439Z" fill="white"/>
<path d="M61.8931 11.2254H15.8012C15.5183 11.2254 15.2891 10.9962 15.2891 10.7133C15.2891 10.4304 15.5183 10.2012 15.8012 10.2012H61.8931C62.176 10.2012 62.4052 10.4304 62.4052 10.7133C62.4052 10.9962 62.176 11.2254 61.8931 11.2254Z" fill="white"/>
<path d="M41.4086 11.2253C41.1257 11.2253 40.8965 10.9961 40.8965 10.7132V2.17766C40.8965 1.89479 41.1257 1.66553 41.4086 1.66553C41.6915 1.66553 41.9207 1.89479 41.9207 2.17766V10.7132C41.9207 10.9961 41.6915 11.2253 41.4086 11.2253Z" fill="white"/>
<path d="M41.4078 6.95762H15.8012C15.5183 6.95762 15.2891 6.72835 15.2891 6.44548C15.2891 6.16262 15.5183 5.93335 15.8012 5.93335H41.4078C41.6907 5.93335 41.9199 6.16262 41.9199 6.44548C41.9199 6.72835 41.6907 6.95762 41.4078 6.95762Z" fill="white"/>
<path d="M26.8974 41.9532H15.8012C15.5183 41.9532 15.2891 41.724 15.2891 41.4411C15.2891 41.1582 15.5183 40.929 15.8012 40.929H26.8974C27.1803 40.929 27.4095 41.1582 27.4095 41.4411C27.4095 41.724 27.1803 41.9532 26.8974 41.9532Z" fill="white"/>
<path d="M61.8935 41.9532H50.7973C50.5144 41.9532 50.2852 41.724 50.2852 41.4411C50.2852 41.1582 50.5144 40.929 50.7973 40.929H61.8935C62.1764 40.929 62.4056 41.1582 62.4056 41.4411C62.4056 41.724 62.1764 41.9532 61.8935 41.9532Z" fill="#141517"/>
<path d="M45.7024 21.1266H22.8012C22.5183 21.1266 22.2891 20.8973 22.2891 20.6144C22.2891 20.3316 22.5183 20.1023 22.8012 20.1023H45.7024C45.9853 20.1023 46.2145 20.3316 46.2145 20.6144C46.2145 20.8973 45.9853 21.1266 45.7024 21.1266Z" fill="#141517"/>
<path d="M45.7024 28.6378H22.8012C22.5183 28.6378 22.2891 28.4085 22.2891 28.1257C22.2891 27.8428 22.5183 27.6135 22.8012 27.6135H45.7024C45.9853 27.6135 46.2145 27.8428 46.2145 28.1257C46.2145 28.4085 45.9853 28.6378 45.7024 28.6378Z" fill="#141517"/>
<path d="M54.8184 23.4139H30.1918C29.909 23.4139 29.6797 23.1847 29.6797 22.9018C29.6797 22.6189 29.909 22.3896 30.1918 22.3896H54.8184C55.1013 22.3896 55.3305 22.6189 55.3305 22.9018C55.3305 23.1847 55.1013 23.4139 54.8184 23.4139Z" fill="#141517"/>
<path d="M54.8184 30.9252H30.1918C29.909 30.9252 29.6797 30.6959 29.6797 30.413C29.6797 30.1301 29.909 29.9009 30.1918 29.9009H54.8184C55.1013 29.9009 55.3305 30.1301 55.3305 30.413C55.3305 30.6959 55.1013 30.9252 54.8184 30.9252Z" fill="#141517"/>
<path d="M71.2826 53.9032H6.41252C6.12966 53.9032 5.90039 53.6739 5.90039 53.391C5.90039 53.1082 6.12966 52.8789 6.41252 52.8789H71.2826C71.5655 52.8789 71.7948 53.1082 71.7948 53.391C71.7948 53.6739 71.5655 53.9032 71.2826 53.9032Z" fill="white"/>
</svg>
