<svg width="66" height="79" viewBox="0 0 66 79" fill="none" xmlns="http://www.w3.org/2000/svg">
<path d="M65.3412 78.3385H14.3096C14.0124 78.3385 13.7715 78.0976 13.7715 77.8004V61.0624C13.7715 60.7651 14.0124 60.5243 14.3096 60.5243C14.6068 60.5243 14.8477 60.7651 14.8477 61.0624V77.2623H64.8031V55.8863C64.8031 55.5891 65.044 55.3482 65.3412 55.3482C65.6384 55.3482 65.8793 55.5891 65.8793 55.8863V77.8006C65.8793 78.0978 65.6384 78.3385 65.3412 78.3385ZM14.3096 52.6321C14.0124 52.6321 13.7715 52.3912 13.7715 52.094V8.2654C13.7715 7.96819 14.0124 7.72729 14.3096 7.72729H65.3412C65.6384 7.72729 65.8793 7.96819 65.8793 8.2654V46.9178C65.8793 47.215 65.6384 47.4559 65.3412 47.4559C65.044 47.4559 64.8031 47.215 64.8031 46.9178V8.8035H14.8477V52.094C14.8477 52.3912 14.6068 52.6321 14.3096 52.6321Z" fill="white"/>
<path d="M36.2973 38.9861H19.416C19.1188 38.9861 18.8779 38.7452 18.8779 38.448V28.8003C18.8779 28.5031 19.1188 28.2622 19.416 28.2622H36.2973C36.5945 28.2622 36.8354 28.5031 36.8354 28.8003V38.448C36.8354 38.7452 36.5945 38.9861 36.2973 38.9861ZM19.9541 37.9099H35.7591V29.3384H19.9541V37.9099Z" fill="#141517"/>
<path d="M14.3103 62.4774H5.00392C4.70671 62.4774 4.46582 62.2365 4.46582 61.9393V33.9502C4.46582 33.653 4.70671 33.4121 5.00392 33.4121C5.30114 33.4121 5.54203 33.653 5.54203 33.9502V61.4012H13.7722V9.55061C13.7722 9.2534 14.013 9.01251 14.3103 9.01251C14.6075 9.01251 14.8484 9.2534 14.8484 9.55061V61.9392C14.8484 62.2365 14.6075 62.4774 14.3103 62.4774ZM5.00392 25.5199C4.70671 25.5199 4.46582 25.279 4.46582 24.9818V1.41896C4.46582 1.12175 4.70671 0.880859 5.00392 0.880859H54.9174C55.2146 0.880859 55.4555 1.12175 55.4555 1.41896V8.26544C55.4555 8.56265 55.2146 8.80354 54.9174 8.80354H21.9935C21.6963 8.80354 21.4554 8.56265 21.4554 8.26544C21.4554 7.96823 21.6963 7.72734 21.9935 7.72734H54.3795V1.95707H5.54203V24.9816C5.54203 25.2789 5.30114 25.5199 5.00392 25.5199Z" fill="white"/>
<path d="M62.8228 20.2374H24.8901C24.5929 20.2374 24.352 19.9965 24.352 19.6993C24.352 19.4021 24.5929 19.1612 24.8901 19.1612H62.2845V14.4795H17.3672V18.7917C17.3672 19.0889 17.1263 19.3298 16.8291 19.3298C16.5319 19.3298 16.291 19.0889 16.291 18.7917V13.9414C16.291 13.6442 16.5319 13.4033 16.8291 13.4033H62.8227C63.1199 13.4033 63.3608 13.6442 63.3608 13.9414V19.6993C63.3609 19.9964 63.12 20.2374 62.8228 20.2374Z" fill="white"/>
<path d="M11.3443 66.3492H0.762713C0.465501 66.3492 0.224609 66.1083 0.224609 65.8111V50.9431C0.224609 50.6459 0.465501 50.405 0.762713 50.405C1.05993 50.405 1.30082 50.6459 1.30082 50.9431V65.273H11.3442C11.6414 65.273 11.8823 65.5139 11.8823 65.8111C11.8823 66.1083 11.6414 66.3492 11.3443 66.3492Z" fill="white"/>
<path d="M62.8228 74.3391H21.9974C21.7002 74.3391 21.4593 74.0983 21.4593 73.801C21.4593 73.5038 21.7002 73.2629 21.9974 73.2629H62.2845V71.4739H16.8291C16.5319 71.4739 16.291 71.233 16.291 70.9358C16.291 70.6386 16.5319 70.3977 16.8291 70.3977H62.8227C63.1199 70.3977 63.3608 70.6386 63.3608 70.9358V73.801C63.3609 74.0983 63.12 74.3391 62.8228 74.3391Z" fill="white"/>
<path d="M60.9139 62.8874H39.5C39.2028 62.8874 38.9619 62.6465 38.9619 62.3493V50.114C38.9619 49.8168 39.2028 49.5759 39.5 49.5759H60.9139C61.2111 49.5759 61.452 49.8168 61.452 50.114V62.3493C61.452 62.6465 61.2111 62.8874 60.9139 62.8874ZM40.0381 61.8112H60.3758V50.6521H40.0381V61.8112Z" fill="white"/>
<path d="M60.1261 28.3999H40.7393C40.4421 28.3999 40.2012 28.159 40.2012 27.8618C40.2012 27.5646 40.4421 27.3237 40.7393 27.3237H60.1261C60.4233 27.3237 60.6642 27.5646 60.6642 27.8618C60.6642 28.159 60.4233 28.3999 60.1261 28.3999Z" fill="#141517"/>
<path d="M60.1261 31.2425H40.7393C40.4421 31.2425 40.2012 31.0016 40.2012 30.7044C40.2012 30.4072 40.4421 30.1663 40.7393 30.1663H60.1261C60.4233 30.1663 60.6642 30.4072 60.6642 30.7044C60.6642 31.0016 60.4233 31.2425 60.1261 31.2425Z" fill="#141517"/>
<path d="M60.1261 34.085H40.7393C40.4421 34.085 40.2012 33.8441 40.2012 33.5469C40.2012 33.2497 40.4421 33.0088 40.7393 33.0088H60.1261C60.4233 33.0088 60.6642 33.2497 60.6642 33.5469C60.6642 33.8441 60.4233 34.085 60.1261 34.085Z" fill="#141517"/>
<path d="M60.1261 36.9273H40.7393C40.4421 36.9273 40.2012 36.6864 40.2012 36.3892C40.2012 36.092 40.4421 35.8511 40.7393 35.8511H60.1261C60.4233 35.8511 60.6642 36.092 60.6642 36.3892C60.6642 36.6864 60.4233 36.9273 60.1261 36.9273Z" fill="#141517"/>
<path d="M60.1261 39.7698H40.7393C40.4421 39.7698 40.2012 39.5289 40.2012 39.2317C40.2012 38.9345 40.4421 38.6936 40.7393 38.6936H60.1261C60.4233 38.6936 60.6642 38.9345 60.6642 39.2317C60.6642 39.5289 60.4233 39.7698 60.1261 39.7698Z" fill="#141517"/>
<path d="M60.1261 42.6123H40.7393C40.4421 42.6123 40.2012 42.3714 40.2012 42.0742C40.2012 41.777 40.4421 41.5361 40.7393 41.5361H60.1261C60.4233 41.5361 60.6642 41.777 60.6642 42.0742C60.6642 42.3714 60.4233 42.6123 60.1261 42.6123Z" fill="#141517"/>
<path d="M60.1261 45.4544H40.7393C40.4421 45.4544 40.2012 45.2135 40.2012 44.9163C40.2012 44.6191 40.4421 44.3782 40.7393 44.3782H60.1261C60.4233 44.3782 60.6642 44.6191 60.6642 44.9163C60.6642 45.2135 60.4233 45.4544 60.1261 45.4544Z" fill="#141517"/>
<path d="M28.7428 50.6521H19.416C19.1188 50.6521 18.8779 50.4112 18.8779 50.114C18.8779 49.8168 19.1188 49.5759 19.416 49.5759H28.7428C29.04 49.5759 29.2809 49.8168 29.2809 50.114C29.2809 50.4112 29.0398 50.6521 28.7428 50.6521Z" fill="white"/>
<path d="M28.7428 53.253H19.416C19.1188 53.253 18.8779 53.0121 18.8779 52.7149C18.8779 52.4176 19.1188 52.1768 19.416 52.1768H28.7428C29.04 52.1768 29.2809 52.4176 29.2809 52.7149C29.2809 53.0121 29.0398 53.253 28.7428 53.253Z" fill="white"/>
<path d="M35.6372 55.8494H19.416C19.1188 55.8494 18.8779 55.6085 18.8779 55.3113C18.8779 55.0141 19.1188 54.7732 19.416 54.7732H35.6372C35.9344 54.7732 36.1753 55.0141 36.1753 55.3113C36.1753 55.6085 35.9344 55.8494 35.6372 55.8494Z" fill="white"/>
<path d="M35.6372 58.4505H19.416C19.1188 58.4505 18.8779 58.2096 18.8779 57.9124C18.8779 57.6152 19.1188 57.3743 19.416 57.3743H35.6372C35.9344 57.3743 36.1753 57.6152 36.1753 57.9124C36.1753 58.2096 35.9344 58.4505 35.6372 58.4505Z" fill="white"/>
<path d="M35.6372 61.0515H19.416C19.1188 61.0515 18.8779 60.8107 18.8779 60.5134C18.8779 60.2162 19.1188 59.9753 19.416 59.9753H35.6372C35.9344 59.9753 36.1753 60.2162 36.1753 60.5134C36.1753 60.8107 35.9344 61.0515 35.6372 61.0515Z" fill="white"/>
<path d="M35.6372 63.648H19.416C19.1188 63.648 18.8779 63.4071 18.8779 63.1099C18.8779 62.8127 19.1188 62.5718 19.416 62.5718H35.6372C35.9344 62.5718 36.1753 62.8127 36.1753 63.1099C36.1753 63.4071 35.9344 63.648 35.6372 63.648Z" fill="white"/>
<path d="M35.6372 66.2491H19.416C19.1188 66.2491 18.8779 66.0082 18.8779 65.711C18.8779 65.4137 19.1188 65.1729 19.416 65.1729H35.6372C35.9344 65.1729 36.1753 65.4137 36.1753 65.711C36.1753 66.0082 35.9344 66.2491 35.6372 66.2491Z" fill="white"/>
<path d="M63.9157 5.76972H57.6455C57.3483 5.76972 57.1074 5.52883 57.1074 5.23161V0.713153C57.1074 0.41594 57.3483 0.175049 57.6455 0.175049C57.9427 0.175049 58.1836 0.41594 58.1836 0.713153V4.69351H63.9157C64.2129 4.69351 64.4538 4.9344 64.4538 5.23161C64.4538 5.52883 64.2131 5.76972 63.9157 5.76972Z" fill="white"/>
</svg>
