<svg width="121" height="121" viewBox="0 0 121 121" fill="none" xmlns="http://www.w3.org/2000/svg">
<path d="M62.0655 82.6853C61.7668 82.6853 61.5191 82.4527 61.5002 82.1538C61.4813 81.842 61.7195 81.5715 62.0314 81.5526C73.8327 80.8323 83.076 70.9991 83.0741 59.1638C83.076 48.7276 75.9975 39.7565 65.8581 37.3441V47.2321C65.8581 47.234 65.8581 47.234 65.8581 47.234C65.8581 47.5478 65.6047 47.8012 65.2909 47.8012C64.9789 47.8012 64.7237 47.5478 64.7237 47.234V36.637C64.7237 36.4669 64.7993 36.3062 64.9317 36.1984C65.0621 36.0906 65.2398 36.0471 65.4043 36.0812C68.0474 36.6238 70.5603 37.6107 72.8704 39.0154C75.1352 40.3937 77.1413 42.1312 78.8315 44.1787C80.535 46.2452 81.862 48.5612 82.7792 51.0644C83.7264 53.6545 84.2085 56.3808 84.2085 59.1638C84.2085 65.2062 81.9246 70.9519 77.7804 75.34C75.765 77.4766 73.4017 79.1969 70.7605 80.4543C68.0361 81.7494 65.1245 82.4998 62.1014 82.6853C62.0901 82.6853 62.0768 82.6853 62.0655 82.6853ZM58.2918 82.6096C58.2729 82.6096 58.2521 82.6096 58.2332 82.6077C57.9231 82.5756 57.6962 82.2958 57.7265 81.9857C57.7586 81.6757 58.0384 81.4488 58.3485 81.479C58.6586 81.5112 58.8873 81.7891 58.8552 82.1011C58.8268 82.3901 58.5829 82.6096 58.2918 82.6096ZM54.5786 81.9215C54.5294 81.9215 54.4784 81.9158 54.4292 81.9024C51.9601 81.2293 49.6289 80.1611 47.4982 78.728C45.3996 77.3157 43.5506 75.586 42.0022 73.5857C40.4367 71.5663 39.2173 69.3221 38.3797 66.9192C37.5138 64.4332 37.0752 61.8239 37.0752 59.1638C37.0752 56.3808 37.5554 53.6545 38.5045 51.0644C39.4215 48.5612 40.7487 46.2452 42.4521 44.1787C44.1424 42.1312 46.1483 40.3937 48.4133 39.0154C50.7236 37.6107 53.2363 36.6238 55.8794 36.0812C56.0438 36.0471 56.2216 36.0906 56.352 36.1984C56.4844 36.3062 56.56 36.4669 56.56 36.637V41.3485C56.56 41.6604 56.3047 41.9156 55.9928 41.9156C55.6808 41.9156 55.4256 41.6604 55.4256 41.3485V37.3441C45.2862 39.7565 38.2077 48.7276 38.2096 59.1638C38.2077 69.2579 45.0007 78.157 54.728 80.8075C54.9719 80.8739 55.1439 81.0951 55.1458 81.3482C55.1477 81.3995 55.1401 81.4522 55.1269 81.5032C55.0588 81.7494 54.8338 81.9215 54.5786 81.9215ZM60.7931 74.8392H60.7893C60.6399 74.8392 60.4982 74.7825 60.3904 74.6766L49.4134 63.8509C49.2527 63.6902 49.2017 63.4425 49.2886 63.2307C49.3756 63.0171 49.5817 62.8791 49.8123 62.8791H55.4256V48.9111C55.4256 48.5992 55.6808 48.344 55.9928 48.344C56.3047 48.344 56.56 48.5992 56.56 48.9111V63.4463C56.56 63.5956 56.4995 63.7431 56.3936 63.8471C56.2877 63.953 56.1421 64.0135 55.9928 64.0135H51.1944L60.7836 73.4704L70.1158 64.0135H65.2909C65.1415 64.0135 64.996 63.953 64.8901 63.8471C64.7842 63.7431 64.7237 63.5956 64.7237 63.4463V54.7985C64.7237 54.4847 64.9789 54.2314 65.2909 54.2314C65.6028 54.2314 65.8581 54.4847 65.8581 54.7985V62.8791H71.4713C71.7001 62.8791 71.9062 63.0171 71.9952 63.227C72.0822 63.4387 72.0368 63.6826 71.874 63.8452L61.192 74.6709C61.0861 74.7787 60.9443 74.8392 60.7931 74.8392ZM65.2909 51.5826C64.9789 51.5826 64.7237 51.3293 64.7237 51.0173C64.7237 50.7035 64.9789 50.4501 65.2909 50.4501C65.6028 50.4501 65.8581 50.7035 65.8581 51.0173C65.8581 51.3293 65.6028 51.5826 65.2909 51.5826ZM55.9928 45.6971C55.6808 45.6971 55.4256 45.4418 55.4256 45.1299C55.4256 44.8179 55.6808 44.5627 55.9928 44.5627C56.3047 44.5627 56.56 44.8179 56.56 45.1299C56.56 45.4418 56.3047 45.6971 55.9928 45.6971Z" fill="white"/>
<path d="M60.5147 74.5684C60.3634 74.5684 60.2216 74.5116 60.1157 74.4059C59.8926 74.1866 59.8907 73.8255 60.1101 73.6043C60.3237 73.3888 60.6962 73.385 60.9117 73.5987C61.0213 73.7047 61.08 73.8465 61.0818 73.9976C61.0818 74.1488 61.0251 74.2925 60.9174 74.4003C60.8096 74.5099 60.6678 74.5684 60.5147 74.5684ZM63.1729 72.4227C63.0235 72.4227 62.8817 72.3641 62.7758 72.2582C62.6681 72.1523 62.6076 72.0105 62.6057 71.8595C62.6057 71.708 62.6624 71.5643 62.7702 71.4566L70.1133 64.0132H65.2904C65.141 64.0132 64.9954 63.9527 64.8896 63.8468C64.7837 63.7409 64.7232 63.5954 64.7232 63.446V25.1325H56.5595V63.446C56.5595 63.5954 56.499 63.7409 56.3931 63.8468C56.2872 63.9527 56.1416 64.0132 55.9923 64.0132H51.1958L58.2213 70.9423C58.3291 71.0501 58.3877 71.1919 58.3896 71.3431C58.3896 71.4944 58.3329 71.6362 58.2251 71.7458C58.0134 71.9616 57.639 71.9633 57.4235 71.7498L49.4129 63.8508C49.2522 63.6901 49.2012 63.4424 49.2881 63.2307C49.3732 63.0208 49.585 62.879 49.8118 62.879H55.4251V24.5672C55.4251 24.4178 55.4856 24.2704 55.5915 24.1645C55.6973 24.0605 55.8429 24 55.9923 24H65.2904C65.4397 24 65.5853 24.0605 65.6912 24.1664C65.7971 24.2704 65.8576 24.4178 65.8576 24.5672V62.8788H71.4708C71.6996 62.8788 71.9057 63.0168 71.9947 63.2267C72.0836 63.4384 72.0363 63.6804 71.8735 63.8449L63.5777 72.2544C63.4697 72.362 63.326 72.4227 63.1729 72.4227Z" fill="#FF4D40"/>
<path d="M35.0424 96.6189C34.7305 96.6189 34.4752 96.3635 34.4752 96.0496C34.4752 95.7379 34.7305 95.4845 35.0424 95.4845H91.1467V86.5513C91.1467 86.2375 91.402 85.9841 91.7158 85.9841C92.0278 85.9841 92.283 86.2375 92.283 86.5513V96.0496C92.283 96.203 92.2227 96.3448 92.1166 96.4523C92.0089 96.5584 91.8671 96.6168 91.7158 96.6168L35.0424 96.6189ZM31.2612 96.6168C30.9492 96.6168 30.694 96.3635 30.694 96.0496C30.694 95.7379 30.9492 95.4845 31.2612 95.4845C31.575 95.4845 31.8284 95.7379 31.8284 96.0496C31.8284 96.3637 31.575 96.6168 31.2612 96.6168ZM29.5691 94.5296C29.2552 94.5296 29 94.2762 29 93.9624V77.2098C29 77.0604 29.0624 76.9146 29.1664 76.809C29.2722 76.7029 29.4178 76.6426 29.5691 76.6426H46.3805C46.5091 76.6426 46.6301 76.6859 46.7322 76.7653C50.7195 79.9245 55.5311 81.5939 60.6434 81.5939C65.7537 81.5939 70.5635 79.9245 74.5508 76.7653C74.651 76.6859 74.7741 76.6426 74.9025 76.6426H91.7158C91.8652 76.6426 92.0109 76.7029 92.1166 76.809C92.2227 76.9148 92.283 77.0604 92.283 77.2098V78.9888C92.283 79.3006 92.0278 79.556 91.7158 79.556C91.402 79.556 91.1467 79.3006 91.1467 78.9888V77.777H75.0991C73.078 79.3498 70.832 80.5751 68.4195 81.4164C65.9277 82.2878 63.3111 82.7283 60.6453 82.7283H60.6434C57.9738 82.7283 55.3572 82.2878 52.8635 81.4164C50.451 80.5751 48.205 79.3498 46.1839 77.777H30.1344V93.9624C30.1344 94.2764 29.881 94.5296 29.5691 94.5296ZM91.7158 83.3352C91.402 83.3352 91.1467 83.0819 91.1467 82.7701C91.1467 82.4562 91.402 82.2029 91.7158 82.2029C92.0278 82.2029 92.283 82.4562 92.283 82.7701C92.283 83.082 92.0278 83.3352 91.7158 83.3352Z" fill="white"/>
<path d="M84.365 89.2887C83.6541 89.2868 82.9848 89.0108 82.4819 88.5098C81.9771 88.0069 81.6992 87.3397 81.6992 86.6286C81.7011 85.1615 82.896 83.9687 84.365 83.9668C85.8321 83.9687 87.0251 85.1615 87.0251 86.6286C87.0251 88.0919 85.8319 89.2849 84.365 89.2887ZM84.365 85.101C83.5218 85.1029 82.8355 85.7873 82.8336 86.6284C82.8355 87.4678 83.5218 88.1541 84.365 88.1541C85.2044 88.1541 85.8907 87.4697 85.8926 86.6284C85.8907 85.7873 85.2044 85.1029 84.365 85.101Z" fill="#FF4D40"/>
<path d="M77.1502 89.2887C76.4393 89.2868 75.7701 89.0108 75.2672 88.5098C74.7643 88.0089 74.4863 87.3397 74.4863 86.6286C74.4863 85.1615 75.6812 83.9687 77.1502 83.9668C78.6173 83.9687 79.8103 85.1615 79.8103 86.6286C79.8103 88.0919 78.6172 89.2849 77.1502 89.2887ZM77.1502 85.101C76.3089 85.1029 75.6226 85.7873 75.6207 86.6284C75.6207 87.4678 76.307 88.1541 77.1502 88.1541C77.9915 88.1541 78.676 87.4697 78.6778 86.6284C78.676 85.7873 77.9915 85.1029 77.1502 85.101Z" fill="#FF4D40"/>
<path d="M54.9035 91.4122H29.5672C29.2552 91.4122 29 91.1568 29 90.845C29 90.5331 29.2552 90.2778 29.5672 90.2778H54.9035C55.2154 90.2778 55.4706 90.5331 55.4706 90.845C55.4706 91.157 55.2154 91.4122 54.9035 91.4122Z" fill="white"/>
<path d="M33.7 56.7138C33.3862 56.7138 33.1328 56.4605 33.1328 56.1466C33.1328 53.3636 33.613 50.6392 34.5602 48.0491C35.4772 45.5459 36.8044 43.2299 38.5079 41.1634C40.1981 39.114 42.204 37.3765 44.469 36.0001C46.7793 34.5935 49.292 33.6066 51.937 33.064C52.2395 33.0016 52.5458 33.2058 52.6063 33.5064C52.6365 33.6538 52.6081 33.8051 52.525 33.9318C52.4418 34.0584 52.3132 34.1454 52.1657 34.1757C41.7919 36.3026 34.2653 45.5421 34.2672 56.1466C34.2672 56.4605 34.012 56.7138 33.7 56.7138Z" fill="white"/>
</svg>
