<svg width="121" height="121" viewBox="0 0 121 121" fill="none" xmlns="http://www.w3.org/2000/svg">
<path d="M93.7264 92.9203H36.5825C36.2686 92.9203 36.0117 92.665 36.0117 92.3531C36.0117 92.0392 36.2686 91.7859 36.5825 91.7859H93.7264C94.0403 91.7859 94.2972 92.0392 94.2972 92.3531C94.2972 92.665 94.0403 92.9203 93.7264 92.9203ZM32.7772 92.9203C32.4614 92.9203 32.2064 92.665 32.2064 92.3531C32.2064 92.0392 32.4614 91.7859 32.7772 91.7859C33.0911 91.7859 33.348 92.0392 33.348 92.3531C33.348 92.665 33.0911 92.9203 32.7772 92.9203ZM28.9719 92.9203H26.5708C26.4205 92.9203 26.274 92.8598 26.1674 92.7539C26.0609 92.648 26 92.5024 26 92.3531V28.5672C26 28.5653 26 28.5653 26 28.5634C26.0019 28.2515 26.2569 28 26.5708 28C26.8847 28 27.1416 28.2533 27.1416 28.5672V91.7859H28.9719C29.2859 91.7859 29.5427 92.0392 29.5427 92.3531C29.5427 92.665 29.2859 92.9203 28.9719 92.9203Z" fill="white"/>
<path d="M72.0385 81.3383H53.6304C53.4782 81.3383 53.3336 81.2795 53.227 81.1738L39.5033 67.5367H33.021C32.7071 67.5367 32.4502 67.2813 32.4502 66.9695C32.4502 66.6557 32.7071 66.4023 33.021 66.4023H39.7392C39.8895 66.4023 40.0379 66.4628 40.1426 66.5687L53.8663 80.2039H71.4677V67.6558C71.4677 67.4006 71.6427 67.1737 71.8901 67.1075C72.1355 67.0433 72.4059 67.1548 72.5333 67.3722L76.8426 74.791C77.0005 75.0631 76.9073 75.411 76.6352 75.5662C76.5477 75.6174 76.449 75.6418 76.3498 75.6418C76.1463 75.6418 75.956 75.5341 75.8552 75.3582L72.6092 69.7733V80.7711C72.6092 80.9242 72.5503 81.066 72.4418 81.1738C72.3332 81.2795 72.1905 81.3383 72.0385 81.3383ZM92.8724 81.1265H80.7735C80.4576 81.1265 80.2027 80.8732 80.2027 80.5593C80.2027 80.2474 80.4576 79.9921 80.7735 79.9921H92.8724C93.1863 79.9921 93.4432 80.2474 93.4432 80.5593C93.4432 80.8732 93.1863 81.1265 92.8724 81.1265ZM78.2525 78.9162C78.0489 78.9162 77.8586 78.8086 77.7578 78.6326C77.6817 78.5023 77.6606 78.349 77.7005 78.2034C77.7386 78.0559 77.8337 77.935 77.9669 77.8593C78.0525 77.8083 78.1515 77.7818 78.2504 77.7818C78.4538 77.7818 78.644 77.8915 78.7451 78.0654C78.8212 78.1977 78.8421 78.3511 78.8022 78.4965C78.7643 78.6439 78.6692 78.7649 78.5377 78.8406C78.4504 78.8916 78.3514 78.9162 78.2525 78.9162Z" fill="white"/>
<path d="M39.8355 82.3839H33.102C32.7862 82.3839 32.5312 82.1304 32.5312 81.8168C32.5312 81.5048 32.7862 81.2496 33.102 81.2496H39.5063L53.2168 57.6508C53.3176 57.475 53.5079 57.3672 53.7115 57.3672H79.8233C80.0269 57.3672 80.2172 57.475 80.3182 57.6508L83.3168 62.8065C83.3929 62.937 83.4138 63.0901 83.3738 63.2376C83.3339 63.3832 83.2388 63.506 83.1077 63.5817C83.0199 63.6308 82.9229 63.6573 82.8223 63.6573C82.6187 63.6573 82.4301 63.5495 82.3274 63.3737L79.4943 58.5016H54.0406L40.3302 82.1003C40.2274 82.2762 40.0391 82.3839 39.8355 82.3839ZM92.455 67.9244H87.9533C87.6394 67.9244 87.3825 67.6711 87.3825 67.3591C87.3825 67.0453 87.6394 66.792 87.9533 66.792H92.455C92.7687 66.792 93.0257 67.0453 93.0257 67.3591C93.0257 67.6711 92.7689 67.9244 92.455 67.9244ZM84.7264 66.9319C84.5228 66.9319 84.3326 66.8222 84.2315 66.6483C84.0736 66.3779 84.1669 66.03 84.4391 65.8731C84.5266 65.8238 84.6254 65.7975 84.7245 65.7975C84.9279 65.7975 85.1182 65.9053 85.2192 66.0811C85.2953 66.2115 85.3162 66.3647 85.2763 66.5104C85.2382 66.6577 85.1431 66.7789 85.0118 66.8543C84.9243 66.9054 84.8254 66.9319 84.7264 66.9319Z" fill="#FF4D40"/>
<path d="M92.4553 67.926C92.2953 67.926 92.149 67.8617 92.0403 67.7465L89.4586 65.0316C89.2415 64.8029 89.2531 64.4436 89.4814 64.2281C89.704 64.02 90.0789 64.0315 90.288 64.2527L92.8699 66.9695C93.0849 67.1964 93.0754 67.5556 92.847 67.7711C92.7407 67.8711 92.6018 67.926 92.4553 67.926Z" fill="#FF4D40"/>
<path d="M89.8737 70.6469C89.727 70.6469 89.5883 70.592 89.4818 70.4935C89.3714 70.3895 89.3066 70.2478 89.3029 70.0965C89.2989 69.9453 89.3543 69.8014 89.459 69.6917L92.0389 66.9694C92.2482 66.7482 92.625 66.7369 92.8476 66.9448C92.9579 67.0488 93.0207 67.1906 93.0264 67.3419C93.0302 67.4931 92.9748 67.637 92.8704 67.7466L90.2885 70.4689C90.182 70.5826 90.0297 70.6469 89.8737 70.6469Z" fill="#FF4D40"/>
<path d="M92.8713 81.1265C92.7155 81.1265 92.5631 81.0622 92.4566 80.9487L89.8785 78.2321C89.6635 78.0033 89.673 77.6441 89.9032 77.4305C90.1239 77.2223 90.5006 77.2338 90.7099 77.4532L93.2861 80.17C93.503 80.3988 93.4914 80.7578 93.2633 80.9735C93.1567 81.0716 93.0178 81.1265 92.8713 81.1265Z" fill="white"/>
<path d="M90.2958 83.8491C90.1493 83.8491 90.0104 83.7943 89.9038 83.6958C89.7935 83.5918 89.7288 83.45 89.725 83.2987C89.7195 83.1475 89.7745 83.0036 89.8793 82.8939L92.4555 80.1716C92.6648 79.9523 93.0434 79.9409 93.262 80.147C93.3744 80.251 93.437 80.3909 93.4427 80.5422C93.4467 80.6934 93.3914 80.8371 93.2869 80.9485L90.7107 83.671C90.6021 83.7846 90.4537 83.8491 90.2958 83.8491Z" fill="white"/>
<path d="M82.2799 48.8103H68.7255C68.5221 48.8103 68.3318 48.7006 68.2308 48.5267L63.4304 40.2741H55.2643L49.7485 45.755C49.6401 45.8628 49.4974 45.9214 49.3452 45.9214H32.9292C32.6134 45.9214 32.3584 45.6662 32.3584 45.3542C32.3584 45.0422 32.6134 44.787 32.9292 44.787H49.1093L54.6231 39.3061C54.7297 39.2002 54.8762 39.1416 55.0284 39.1416H63.7596C63.9613 39.1416 64.1515 39.2494 64.2543 39.4233L69.0546 47.6759H82.2799C82.5938 47.6759 82.8507 47.9292 82.8507 48.2431C82.8507 48.555 82.5938 48.8103 82.2799 48.8103Z" fill="#FF4D40"/>
<path d="M82.2796 48.8099C82.1198 48.8099 81.9733 48.7456 81.8631 48.6303L79.2867 45.9134C79.0716 45.6866 79.0813 45.3274 79.3115 45.1118C79.5322 44.9039 79.9089 44.9152 80.118 45.1364L82.6942 47.8532C82.9094 48.0801 82.8997 48.4412 82.6695 48.6549C82.565 48.7551 82.4261 48.8099 82.2796 48.8099Z" fill="#FF4D40"/>
<path d="M79.7015 51.5327C79.5569 51.5327 79.418 51.4779 79.3115 51.3777C79.0813 51.164 79.0716 50.8048 79.2867 50.576L81.8629 47.8535C82.0703 47.6361 82.4488 47.6229 82.6695 47.829C82.7817 47.933 82.8445 48.0748 82.8502 48.226C82.8542 48.3773 82.7988 48.5209 82.6942 48.6306L80.118 51.3531C80.0098 51.4684 79.8613 51.5327 79.7015 51.5327Z" fill="#FF4D40"/>
<path d="M31.6642 35.0333H26.5708C26.2569 35.0333 26 34.7781 26 34.4661C26 34.1523 26.2569 33.8989 26.5708 33.8989H31.6642C31.9781 33.8989 32.235 34.1523 32.235 34.4661C32.235 34.7781 31.9781 35.0333 31.6642 35.0333Z" fill="white"/>
<path d="M31.6642 39.8409H26.5708C26.2569 39.8409 26 39.5857 26 39.2737C26 38.9599 26.2569 38.7065 26.5708 38.7065H31.6642C31.9781 38.7065 32.235 38.9599 32.235 39.2737C32.235 39.5857 31.9781 39.8409 31.6642 39.8409Z" fill="white"/>
<path d="M31.6642 44.6524H26.5708C26.2569 44.6524 26 44.3991 26 44.0853C26 43.7733 26.2569 43.5181 26.5708 43.5181H31.6642C31.9781 43.5181 32.235 43.7733 32.235 44.0853C32.235 44.3991 31.9781 44.6524 31.6642 44.6524Z" fill="white"/>
<path d="M31.6642 49.4606H26.5708C26.2569 49.4606 26 49.2073 26 48.8934C26 48.5815 26.2569 48.3281 26.5708 48.3281H31.6642C31.9781 48.3281 32.235 48.5815 32.235 48.8934C32.235 49.2073 31.9781 49.4606 31.6642 49.4606Z" fill="white"/>
<path d="M31.6642 54.2682H26.5708C26.2569 54.2682 26 54.0148 26 53.701C26 53.389 26.2569 53.1338 26.5708 53.1338H31.6642C31.9781 53.1338 32.235 53.389 32.235 53.701C32.235 54.0148 31.9781 54.2682 31.6642 54.2682Z" fill="white"/>
<path d="M31.6642 59.0821H26.5708C26.2569 59.0821 26 58.8269 26 58.5149C26 58.203 26.2569 57.9478 26.5708 57.9478H31.6642C31.9781 57.9478 32.235 58.203 32.235 58.5149C32.235 58.8269 31.9781 59.0821 31.6642 59.0821Z" fill="white"/>
<path d="M31.6642 63.8897H26.5708C26.2569 63.8897 26 63.6364 26 63.3226C26 63.0106 26.2569 62.7554 26.5708 62.7554H31.6642C31.9781 62.7554 32.235 63.0106 32.235 63.3226C32.235 63.6364 31.9781 63.8897 31.6642 63.8897Z" fill="white"/>
<path d="M31.6642 68.7032H26.5708C26.2569 68.7032 26 68.448 26 68.136C26 67.8241 26.2569 67.5688 26.5708 67.5688H31.6642C31.9781 67.5688 32.235 67.8241 32.235 68.136C32.235 68.448 31.9781 68.7032 31.6642 68.7032Z" fill="white"/>
<path d="M31.6642 73.5108H26.5708C26.2569 73.5108 26 73.2556 26 72.9437C26 72.6319 26.2569 72.3765 26.5708 72.3765H31.6642C31.9781 72.3765 32.235 72.6319 32.235 72.9437C32.235 73.2556 31.9781 73.5108 31.6642 73.5108Z" fill="white"/>
<path d="M31.6642 78.3189H26.5708C26.2569 78.3189 26 78.0635 26 77.7518C26 77.4398 26.2569 77.1846 26.5708 77.1846H31.6642C31.9781 77.1846 32.235 77.4398 32.235 77.7518C32.235 78.0637 31.9781 78.3189 31.6642 78.3189Z" fill="white"/>
<path d="M31.6642 83.1324H26.5708C26.2569 83.1324 26 82.877 26 82.5652C26 82.2514 26.2569 81.998 26.5708 81.998H31.6642C31.9781 81.998 32.235 82.2514 32.235 82.5652C32.235 82.8772 31.9781 83.1324 31.6642 83.1324Z" fill="white"/>
<path d="M31.6642 87.9406H26.5708C26.2569 87.9406 26 87.6853 26 87.3734C26 87.0595 26.2569 86.8062 26.5708 86.8062H31.6642C31.9781 86.8062 32.235 87.0595 32.235 87.3734C32.235 87.6853 31.9781 87.9406 31.6642 87.9406Z" fill="white"/>
<path d="M88.6421 92.9202C88.3281 92.9202 88.0713 92.665 88.0713 92.353V87.2918C88.0713 86.9798 88.3281 86.7246 88.6421 86.7246C88.9579 86.7246 89.2129 86.9798 89.2129 87.2918V92.353C89.2129 92.665 88.9579 92.9202 88.6421 92.9202Z" fill="white"/>
<path d="M83.8003 92.9202C83.4844 92.9202 83.2295 92.665 83.2295 92.353V87.2918C83.2295 86.9798 83.4844 86.7246 83.8003 86.7246C84.114 86.7246 84.3711 86.9798 84.3711 87.2918V92.353C84.3711 92.665 84.114 92.9202 83.8003 92.9202Z" fill="white"/>
<path d="M78.9614 92.9202C78.6456 92.9202 78.3906 92.665 78.3906 92.353V87.2918C78.3906 86.9798 78.6456 86.7246 78.9614 86.7246C79.2752 86.7246 79.5301 86.9798 79.5301 87.2918V92.353C79.5301 92.665 79.2754 92.9202 78.9614 92.9202Z" fill="#FF4D40"/>
<path d="M74.1235 92.9202C73.8076 92.9202 73.5508 92.665 73.5508 92.353V87.2918C73.5508 86.9798 73.8076 86.7246 74.1235 86.7246C74.4374 86.7246 74.6924 86.9798 74.6924 87.2918V92.353C74.6924 92.665 74.4374 92.9202 74.1235 92.9202Z" fill="#FF4D40"/>
<path d="M69.2788 92.9202C68.963 92.9202 68.708 92.665 68.708 92.353V87.2918C68.708 86.9798 68.963 86.7246 69.2788 86.7246C69.5927 86.7246 69.8496 86.9798 69.8496 87.2918V92.353C69.8496 92.665 69.5927 92.9202 69.2788 92.9202Z" fill="white"/>
<path d="M64.4409 92.9202C64.1251 92.9202 63.8701 92.665 63.8701 92.353V87.2918C63.8701 86.9798 64.1251 86.7246 64.4409 86.7246C64.7547 86.7246 65.0117 86.9798 65.0117 87.2918V92.353C65.0117 92.665 64.7547 92.9202 64.4409 92.9202Z" fill="white"/>
<path d="M59.5962 92.9202C59.2822 92.9202 59.0254 92.665 59.0254 92.353V87.2918C59.0254 86.9798 59.2822 86.7246 59.5962 86.7246C59.9099 86.7246 60.167 86.9798 60.167 87.2918V92.353C60.167 92.665 59.9099 92.9202 59.5962 92.9202Z" fill="#FF4D40"/>
<path d="M54.7583 92.9202C54.4425 92.9202 54.1875 92.665 54.1875 92.353V87.2918C54.1875 86.9798 54.4425 86.7246 54.7583 86.7246C55.0722 86.7246 55.3291 86.9798 55.3291 87.2918V92.353C55.3291 92.665 55.0722 92.9202 54.7583 92.9202Z" fill="white"/>
<path d="M49.9204 92.9202C49.6065 92.9202 49.3496 92.665 49.3496 92.353V87.2918C49.3496 86.9798 49.6065 86.7246 49.9204 86.7246C50.2343 86.7246 50.4912 86.9798 50.4912 87.2918V92.353C50.4912 92.665 50.2343 92.9202 49.9204 92.9202Z" fill="#FF4D40"/>
<path d="M45.0757 92.9202C44.7617 92.9202 44.5049 92.665 44.5049 92.353V87.2918C44.5049 86.9798 44.7617 86.7246 45.0757 86.7246C45.3915 86.7246 45.6465 86.9798 45.6465 87.2918V92.353C45.6465 92.665 45.3915 92.9202 45.0757 92.9202Z" fill="white"/>
<path d="M40.2368 92.9202C39.9229 92.9202 39.666 92.665 39.666 92.353V87.2918C39.666 86.9798 39.9229 86.7246 40.2368 86.7246C40.5507 86.7246 40.8076 86.9798 40.8076 87.2918V92.353C40.8076 92.665 40.5507 92.9202 40.2368 92.9202Z" fill="white"/>
<path d="M35.395 92.9202C35.0791 92.9202 34.8223 92.665 34.8223 92.353V87.2918C34.8223 86.9798 35.0791 86.7246 35.395 86.7246C35.7089 86.7246 35.9639 86.9798 35.9639 87.2918V92.353C35.9639 92.665 35.7089 92.9202 35.395 92.9202Z" fill="white"/>
</svg>
