<svg width="121" height="121" viewBox="0 0 121 121" fill="none" xmlns="http://www.w3.org/2000/svg">
<path d="M60.4372 102.055V102.046V102.055C53.915 102.055 47.5963 100.189 42.1642 96.6595C39.5424 94.9579 37.1736 92.899 35.1245 90.5395C33.0639 88.1687 31.3534 85.5294 30.0406 82.6934C29.9093 82.4098 30.0349 82.0733 30.3222 81.9411C30.3964 81.9069 30.4763 81.8899 30.56 81.8899C30.7826 81.8899 30.9862 82.0204 31.0795 82.2208C36.3365 93.5815 47.8588 100.921 60.4353 100.921C70.1519 100.921 79.262 96.633 85.4282 89.1556C85.6206 88.9232 85.9971 88.8852 86.2313 89.0762C86.3643 89.1839 86.4406 89.3427 86.4406 89.5131C86.4425 89.6434 86.397 89.7721 86.3131 89.8742C84.7815 91.7306 83.0444 93.4267 81.1494 94.9146C79.241 96.412 77.169 97.7033 74.9865 98.7526C72.7642 99.8206 70.4202 100.645 68.0172 101.197C65.5456 101.766 62.9963 102.055 60.4372 102.055ZM88.1071 87.0267C87.9968 87.0267 87.8921 86.9946 87.7989 86.9362C87.6695 86.8547 87.582 86.728 87.5497 86.5787C87.5173 86.4314 87.544 86.282 87.6258 86.1533C87.6258 86.1533 87.6258 86.1533 87.6277 86.1533C87.7323 85.9888 87.9131 85.8924 88.1071 85.8924C88.2175 85.8924 88.3242 85.9226 88.4154 85.9814C88.5449 86.0644 88.6325 86.1894 88.6648 86.3387C88.6972 86.4862 88.6703 86.6375 88.5887 86.7641C88.5887 86.7641 88.5887 86.766 88.5868 86.766C88.4822 86.9284 88.3033 87.0267 88.1071 87.0267ZM89.9738 83.7333C89.8863 83.7333 89.8026 83.7144 89.7244 83.6765C89.5874 83.6085 89.4847 83.4932 89.4352 83.3495C89.3857 83.2077 89.3952 83.0528 89.4618 82.9165C91.6308 78.5114 92.7325 73.7697 92.7325 68.8276C92.7325 60.2536 89.3724 52.1939 83.2723 46.1325C77.1708 40.0712 69.0598 36.7323 60.4351 36.7323C51.8085 36.7323 43.6995 40.0712 37.5996 46.1325C31.4997 52.1958 28.1416 60.2555 28.1397 68.8276C28.1397 70.9621 28.3528 73.0966 28.7714 75.1725C28.779 75.2103 28.7828 75.2481 28.7828 75.2861C28.7809 75.5546 28.5887 75.787 28.3242 75.8401C28.0198 75.9006 27.7135 75.6964 27.6526 75.3958C27.2188 73.248 27 71.0379 27 68.8278C27 64.3413 27.8828 59.9891 29.6275 55.8921C30.4647 53.924 31.5017 52.0239 32.7098 50.2486C33.9066 48.4884 35.2803 46.8341 36.7929 45.3311C38.3055 43.8261 39.9703 42.4611 41.7417 41.2738C43.5282 40.0733 45.4385 39.0429 47.4211 38.2091C51.5422 36.4773 55.9202 35.5981 60.4351 35.5981C64.9482 35.5981 69.3281 36.4773 73.4511 38.2091C75.4316 39.0429 77.3439 40.0733 79.1305 41.2738C80.9018 42.4611 82.5667 43.8261 84.0793 45.3311C85.5938 46.8341 86.9677 48.4884 88.1623 50.2486C89.3707 52.0239 90.4074 53.924 91.2465 55.8921C92.9893 59.9891 93.8742 64.3411 93.8742 68.8278C93.8742 71.3952 93.5772 73.9533 92.9933 76.4319C92.4263 78.8405 91.5835 81.1906 90.4875 83.4158C90.3903 83.6123 90.1945 83.7333 89.9738 83.7333ZM29.1749 79.5058C28.9276 79.5058 28.7107 79.3489 28.6327 79.1162V79.1143C28.5851 78.9685 28.5965 78.8156 28.6669 78.6813C28.7354 78.5452 28.8534 78.445 28.998 78.3996C29.0569 78.3807 29.1159 78.3715 29.1749 78.3715C29.4242 78.3715 29.6411 78.5282 29.7172 78.7626C29.8161 79.0595 29.6506 79.381 29.3519 79.4773C29.2948 79.4962 29.2358 79.5058 29.1749 79.5058Z" fill="white"/>
<path d="M60.4333 94.4756C56.9496 94.4756 53.5705 93.7968 50.3893 92.4602C48.8595 91.8173 47.385 91.0214 46.0037 90.095C44.6376 89.1779 43.3514 88.1229 42.1851 86.9639C41.0168 85.8031 39.9552 84.5252 39.0324 83.1676C38.1001 81.7968 37.2991 80.3297 36.6522 78.8097C35.3051 75.6485 34.6221 72.2889 34.6221 68.8272C34.6221 66.912 34.8352 65.0024 35.2576 63.1515C35.6666 61.3497 36.2755 59.5896 37.067 57.9183C37.8451 56.2772 38.8022 54.7118 39.9152 53.2654C41.0188 51.8304 42.2783 50.507 43.6596 49.3329C43.8898 49.1363 44.2685 49.1666 44.4644 49.3953C44.6699 49.6335 44.6414 49.9909 44.4016 50.1951C38.9125 54.8649 35.7637 61.656 35.7637 68.8272C35.7637 75.3744 38.3303 81.5303 42.9918 86.1604C47.6514 90.7906 53.8464 93.341 60.4333 93.341C62.1095 93.341 63.782 93.1726 65.4087 92.8417C65.4106 92.8417 65.4106 92.8417 65.4127 92.8417C65.7171 92.7774 66.0235 92.9816 66.0862 93.2822C66.0939 93.32 66.0977 93.3578 66.0977 93.3975C66.0977 93.666 65.9055 93.8986 65.641 93.9534C63.938 94.2997 62.1875 94.4756 60.4333 94.4756ZM69.1817 92.929C68.9438 92.929 68.7269 92.7797 68.6451 92.5583C68.5368 92.2634 68.6872 91.9365 68.9838 91.8287C69.2732 91.7226 69.6097 91.8797 69.7163 92.1652C69.7696 92.307 69.7639 92.4602 69.6992 92.5982C69.6364 92.7343 69.5222 92.84 69.3814 92.8931C69.3795 92.8931 69.3795 92.8931 69.3795 92.8931C69.3148 92.9177 69.2481 92.929 69.1817 92.929ZM72.6328 91.356C72.4255 91.356 72.2352 91.2445 72.1345 91.063C72.0602 90.9306 72.0432 90.7773 72.0849 90.6319C72.1269 90.4862 72.2238 90.3654 72.3572 90.2935C80.2187 85.9715 85.1049 77.7454 85.1049 68.8274C85.1028 62.2801 82.5382 56.1224 77.8786 51.4922C73.2191 46.8621 67.0241 44.3135 60.4333 44.3116C57.0485 44.3135 53.7684 44.9809 50.6861 46.3006C50.6138 46.3308 50.5377 46.3478 50.4597 46.3478C50.2313 46.3478 50.0259 46.2136 49.9364 46.0037C49.906 45.9338 49.8889 45.86 49.8889 45.7844C49.887 45.5557 50.024 45.3496 50.2351 45.2588C53.4601 43.8787 56.8925 43.1772 60.4333 43.1772C63.9189 43.1772 67.2999 43.856 70.4812 45.1927C72.0109 45.8355 73.4854 46.6314 74.8667 47.5578C76.2328 48.4767 77.5171 49.5297 78.6853 50.6906C79.8536 51.8514 80.9133 53.1276 81.838 54.4851C82.7701 55.8577 83.5694 57.3229 84.2163 58.843C85.5632 62.0041 86.2443 65.3637 86.2443 68.8274C86.2443 71.1963 85.9211 73.5426 85.2799 75.8C84.6575 77.9893 83.7426 80.0898 82.5589 82.043C80.2168 85.9091 76.8795 89.1045 72.9106 91.2863C72.8252 91.3315 72.7301 91.356 72.6328 91.356ZM47.0958 48.0985C46.896 48.0985 46.7153 47.9983 46.6106 47.832C46.5307 47.7015 46.5041 47.5503 46.5383 47.4028C46.5726 47.2553 46.6639 47.1305 46.7933 47.0492C46.8846 46.9925 46.9873 46.9642 47.0939 46.9642C47.2937 46.9642 47.4744 47.0625 47.5791 47.2307C47.6609 47.3593 47.6856 47.5106 47.6514 47.658C47.6171 47.8055 47.5277 47.9303 47.3983 48.0116C47.3983 48.0116 47.3983 48.0116 47.3964 48.0116C47.307 48.0683 47.2023 48.0985 47.0958 48.0985Z" fill="white"/>
<path d="M68.8656 37.8193C68.8162 37.8193 68.7667 37.8117 68.7191 37.8004C63.3309 36.3843 57.5449 36.3824 52.1528 37.8004C51.9397 37.8552 51.7076 37.7815 51.5668 37.6113C50.743 36.6168 50.1018 35.5014 49.6585 34.2933C49.2018 33.0455 48.9697 31.7334 48.9697 30.3929C48.9697 28.8539 49.2722 27.3622 49.8697 25.9575C50.4481 24.6019 51.2738 23.3825 52.3279 22.337C53.38 21.2914 54.6053 20.469 55.9714 19.8962C57.3851 19.3025 58.8863 19 60.435 19C61.9819 19 63.4831 19.3025 64.8986 19.8962C66.2628 20.469 67.49 21.2914 68.5441 22.337C69.5961 23.3825 70.4239 24.6019 71.0023 25.9575C71.5997 27.3622 71.9021 28.8539 71.9021 30.3929C71.9021 31.7334 71.6718 33.0455 71.2133 34.2933C70.77 35.5014 70.129 36.6168 69.3051 37.6113C69.1967 37.7437 69.0369 37.8193 68.8656 37.8193ZM60.435 20.1344C57.6762 20.1363 55.0848 21.2026 53.1346 23.1386C51.1844 25.0765 50.1113 27.6515 50.1113 30.3929C50.1113 32.6654 50.8419 34.8151 52.2232 36.6093C57.5811 35.2669 63.2966 35.2669 68.6487 36.6093C70.0301 34.8151 70.7607 32.6654 70.7607 30.3929C70.7607 27.6534 69.6859 25.0765 67.7357 23.1386C65.7853 21.2026 63.192 20.1363 60.435 20.1344Z" fill="#FF4D40"/>
<path d="M62.0658 36.7754C62.0544 36.7754 62.0432 36.7754 62.0335 36.7735C61.0062 36.7186 59.8797 36.7186 58.8351 36.7735C58.6753 36.7829 58.525 36.7262 58.4108 36.6203C58.2986 36.5126 58.2339 36.3632 58.2339 36.2082V32.512C58.2339 32.3627 58.2948 32.2171 58.3994 32.1112C58.506 32.0053 58.6525 31.9448 58.8047 31.9448H62.0639C62.2142 31.9448 62.3609 32.0053 62.4673 32.1112C62.574 32.2171 62.6347 32.3627 62.6347 32.512V36.2082C62.6347 36.3632 62.57 36.5126 62.456 36.6203C62.3512 36.7205 62.2106 36.7754 62.0658 36.7754ZM59.3757 33.0792V35.6164C60.0682 35.5918 60.8007 35.5918 61.4933 35.6164V33.0792H59.3757Z" fill="#FF4D40"/>
<path d="M65.1994 33.0795H55.6748C55.5245 33.0795 55.378 33.019 55.2714 32.9131C55.1649 32.8073 55.104 32.6617 55.104 32.5123V28.0467C55.104 27.8973 55.1649 27.7517 55.2714 27.6459C55.3761 27.54 55.5245 27.4795 55.6748 27.4795H65.1994C65.3476 27.4795 65.4962 27.54 65.6028 27.6459C65.7093 27.7517 65.7702 27.8973 65.7702 28.0467V32.5123C65.7702 32.6636 65.7093 32.8073 65.6028 32.9131C65.4943 33.0209 65.3516 33.0795 65.1994 33.0795ZM56.2456 31.9451H64.6265V28.6139H56.2456V31.9451Z" fill="#FF4D40"/>
<path d="M61.1414 71.8261C59.0865 71.8261 57.416 70.1662 57.416 68.1243C57.416 66.0843 59.0865 64.4243 61.1414 64.4243C63.1943 64.4243 64.8647 66.0843 64.8647 68.1243C64.8647 70.1662 63.1943 71.8261 61.1414 71.8261ZM61.1414 65.5587C59.7182 65.5606 58.5614 66.712 58.5576 68.1243C58.5614 69.5383 59.7182 70.6897 61.1414 70.6917C62.5627 70.6897 63.7214 69.5383 63.7231 68.1243C63.7214 66.7118 62.5627 65.5606 61.1414 65.5587Z" fill="#FF4D40"/>
<path d="M64.0044 67.37H64.0025C63.7837 67.37 63.5799 67.2415 63.4869 67.0448C63.2586 66.5625 62.8933 66.1674 62.4328 65.9008C62.0407 65.6777 61.5974 65.5586 61.1486 65.5586C61.0686 65.5586 60.9887 65.5626 60.9145 65.57C60.6919 65.5908 60.4731 65.4794 60.3628 65.2864C60.2524 65.0935 60.2657 64.8515 60.3989 64.6719L71.5617 49.4618C71.7291 49.2349 72.0678 49.165 72.3152 49.3087C72.5682 49.458 72.6652 49.7719 72.5416 50.0385L64.52 67.0426C64.4268 67.2415 64.2251 67.37 64.0044 67.37ZM61.9304 64.5076C62.3071 64.5889 62.6688 64.7267 63.0036 64.9179C63.3442 65.1145 63.6524 65.3622 63.915 65.6533L68.9912 54.89L61.9304 64.5076Z" fill="#FF4D40"/>
<path d="M60.4583 87.8052V87.7958V87.8052C59.077 87.8052 57.69 87.654 56.3315 87.3572C52.433 86.5064 48.9607 84.5082 46.2913 81.5777C45.0051 80.1673 43.9415 78.5773 43.1291 76.853C42.309 75.1099 41.763 73.2646 41.5042 71.3663C41.4852 71.215 41.5251 71.0656 41.6165 70.9465C41.7097 70.8255 41.8429 70.748 41.9951 70.7272C42.3033 70.6875 42.5944 70.9087 42.6363 71.215C43.6409 78.6075 49.2442 84.65 56.575 86.2494C57.8555 86.5291 59.1607 86.6709 60.4564 86.6709C68.8071 86.6709 76.1741 80.7818 77.9721 72.6651C78.2535 71.3965 78.3945 70.0997 78.3945 68.8139C78.3945 65.3049 77.3576 61.8961 75.3941 58.96C75.3941 58.9581 75.3941 58.9581 75.3941 58.9562C75.3103 58.8314 75.2797 58.6821 75.3103 58.5346C75.3408 58.3852 75.4264 58.2567 75.5539 58.1735C75.649 58.1111 75.7573 58.0789 75.8697 58.0789C76.0619 58.0789 76.2386 58.1735 76.3454 58.3323C77.3709 59.8656 78.1643 61.5331 78.7045 63.2912C79.2562 65.0835 79.5359 66.9422 79.5359 68.8137C79.5359 70.1825 79.3856 71.5591 79.0869 72.9088C78.6074 75.0755 77.7627 77.1155 76.5811 78.9721C75.4376 80.7681 74.0049 82.3506 72.3251 83.6778C70.6582 84.9937 68.7955 86.0184 66.7922 86.7236C64.7507 87.4403 62.6197 87.8052 60.4583 87.8052ZM41.9551 68.0841C41.9399 68.0841 41.9266 68.0841 41.9114 68.0841C41.5974 68.0596 41.3615 67.789 41.3843 67.4772C41.4072 67.167 41.6811 66.9271 41.9951 66.9516C42.1473 66.963 42.2862 67.0329 42.3851 67.1464C42.486 67.2615 42.5335 67.4073 42.5221 67.5585C42.5012 67.8533 42.2519 68.0841 41.9551 68.0841ZM42.6134 64.3672C42.5621 64.3672 42.5088 64.3615 42.4574 64.3464C42.2139 64.2785 42.0427 64.0533 42.0427 63.8019C42.0427 63.7508 42.0503 63.6979 42.0636 63.6468L42.0655 63.6431C42.0655 63.6391 42.0674 63.6374 42.0674 63.6355C42.6458 61.6125 43.5476 59.7162 44.7482 57.9995C45.9126 56.3339 47.3358 54.8687 48.9759 53.6473C50.6083 52.4316 52.4121 51.4882 54.3394 50.8416C56.303 50.1818 58.3483 49.8472 60.4184 49.8472C61.7959 49.8472 63.185 49.9984 64.5433 50.2952C64.6917 50.3274 64.8192 50.4162 64.901 50.5448C64.9828 50.6715 65.0094 50.8246 64.9771 50.9721C64.9103 51.2689 64.6004 51.4693 64.2979 51.4032C63.0193 51.1233 61.7141 50.9815 60.4184 50.9815C52.433 50.9815 45.3361 56.3169 43.1633 63.9552L43.1614 63.9571C43.0929 64.1987 42.8665 64.3672 42.6134 64.3672Z" fill="#FF4D40"/>
</svg>
