<svg width="121" height="121" viewBox="0 0 121 121" fill="none" xmlns="http://www.w3.org/2000/svg">
<path d="M81.4672 91.3437H63.1644C63.0157 91.3437 62.8705 91.2834 62.7653 91.1773C62.6597 91.0715 62.5996 90.9259 62.5996 90.7765C62.5996 89.3682 61.8861 88.0845 60.6905 87.3433C60.5624 87.2637 60.4723 87.1391 60.4363 86.9917C60.4024 86.8442 60.4269 86.693 60.506 86.5623C60.6095 86.3941 60.7884 86.2938 60.9879 86.2938C61.0917 86.2938 61.1931 86.3222 61.2835 86.377C61.9386 86.7835 62.5053 87.3413 62.9195 87.9935C63.345 88.6592 63.6123 89.4247 63.6989 90.2093H80.9323C81.0585 89.0485 81.5818 87.9538 82.4083 87.1257C83.2329 86.2957 84.3229 85.7701 85.4788 85.6435V68.3367C84.2288 68.1987 83.0747 67.6069 82.2276 66.6654C81.3729 65.7161 80.9022 64.4872 80.9022 63.2055C80.9022 61.9256 81.3729 60.6986 82.2276 59.7495C83.0747 58.8098 84.2288 58.2162 85.4788 58.0801V55.5523C85.4788 55.2385 85.7313 54.9851 86.0436 54.9851C86.3543 54.9851 86.6065 55.2385 86.6065 55.5523V58.617C86.6065 58.7682 86.5482 58.91 86.4427 59.0178C86.3356 59.1237 86.1944 59.1842 86.0436 59.1842C83.8355 59.188 82.0357 60.9916 82.0318 63.2055C82.0357 65.4214 83.8353 67.2288 86.0436 67.2326C86.1905 67.2326 86.3375 67.2929 86.4427 67.3989C86.5465 67.5048 86.6065 67.6504 86.6065 67.7998V86.1804C86.6065 86.3317 86.5482 86.4754 86.4427 86.5812C86.3356 86.689 86.1944 86.7476 86.0436 86.7476C83.8355 86.7514 82.0357 88.5588 82.0318 90.7765C82.0318 90.928 81.9734 91.0698 81.8661 91.1773C81.759 91.2853 81.6178 91.3437 81.4672 91.3437ZM54.0149 91.3437H35.714C35.5653 91.3437 35.4203 91.2834 35.3149 91.1773C35.2095 91.0715 35.1492 90.9259 35.1492 90.7765C35.1455 88.559 33.3476 86.7514 31.1411 86.7476C30.9924 86.7476 30.8475 86.6871 30.742 86.5812C30.6366 86.4752 30.5764 86.3298 30.5764 86.1804V67.7998C30.5764 67.6504 30.6366 67.5046 30.742 67.3989C30.8475 67.2929 30.9924 67.2326 31.1411 67.2326C33.3476 67.2286 35.1455 65.4214 35.1492 63.2055C35.1455 60.9916 33.3476 59.188 31.1411 59.1842C30.9924 59.1842 30.8475 59.1237 30.742 59.0178C30.6366 58.9119 30.5764 58.7664 30.5764 58.617V53.0472C30.5764 52.7353 30.8305 52.48 31.1411 52.48C31.4518 52.48 31.7059 52.7353 31.7059 53.0472V58.0801C32.9541 58.2181 34.1081 58.8098 34.9534 59.7495C35.8081 60.6986 36.2788 61.9256 36.2788 63.2055C36.2788 64.4874 35.8081 65.7163 34.9534 66.6654C34.1081 67.605 32.9541 68.1985 31.7059 68.3367V85.6435C32.86 85.772 33.95 86.2976 34.7746 87.1257C35.5973 87.9538 36.1207 89.0485 36.2468 90.2093H53.4821C53.5499 89.5779 53.7325 88.971 54.0243 88.4057C54.1203 88.2166 54.3142 88.0996 54.5251 88.0996C54.6155 88.0996 54.7039 88.1202 54.7849 88.1639C54.9732 88.2622 55.0918 88.455 55.0899 88.6706C55.0899 88.7613 55.0692 88.8464 55.0259 88.9277C54.7303 89.5024 54.5816 90.1244 54.5797 90.7765C54.5797 90.928 54.5213 91.0698 54.4159 91.1773C54.3086 91.2853 54.1655 91.3437 54.0149 91.3437ZM57.3641 86.9142C57.1118 86.9142 56.8878 86.744 56.82 86.5003C56.7786 86.3545 56.7974 86.2016 56.8727 86.0692C56.9461 85.9388 57.0666 85.8443 57.2097 85.8027C57.2116 85.8027 57.2116 85.8008 57.2135 85.8008C57.5072 85.7193 57.8272 85.9029 57.9081 86.1959C57.9477 86.3415 57.9289 86.4946 57.8554 86.627C57.782 86.7591 57.6596 86.8537 57.5147 86.8934C57.4657 86.9083 57.4149 86.9142 57.3641 86.9142ZM58.5897 68.3671C55.7563 68.3671 53.452 66.0511 53.4501 63.2057C53.452 60.3622 55.7563 58.05 58.5897 58.05C59.9621 58.05 61.2536 58.5869 62.2231 59.5606C63.1945 60.5343 63.7292 61.8294 63.7292 63.2057C63.7292 64.5859 63.1945 65.881 62.225 66.8565C61.2536 67.8302 59.9621 68.3671 58.5897 68.3671ZM58.5897 59.1844C56.3832 59.1882 54.5853 60.9918 54.5797 63.2057C54.5853 65.4215 56.3832 67.229 58.5897 67.2328C60.7961 67.2288 62.5959 65.4215 62.5996 63.2057C62.5959 60.9918 60.7961 59.1882 58.5897 59.1844ZM86.0436 52.3384C85.7313 52.3384 85.4788 52.0832 85.4788 51.7712C85.4788 51.4574 85.7313 51.204 86.0436 51.204C86.3543 51.204 86.6065 51.4574 86.6065 51.7712C86.6067 52.0832 86.3544 52.3384 86.0436 52.3384ZM31.1411 49.8333C30.8305 49.8333 30.5764 49.58 30.5764 49.2662C30.5764 48.9542 30.8305 48.699 31.1411 48.699C31.4518 48.699 31.7059 48.9542 31.7059 49.2662C31.7059 49.58 31.4518 49.8333 31.1411 49.8333ZM86.0436 48.5572C85.7313 48.5572 85.4788 48.3019 85.4788 47.99V40.7716C84.3229 40.6449 83.2329 40.1193 82.4083 39.2893C81.5837 38.4612 81.0603 37.3666 80.9323 36.2076H63.6989C63.5615 37.4611 62.9703 38.6201 62.0347 39.4708C61.0877 40.3292 59.864 40.8018 58.5895 40.8037C57.3149 40.8018 56.0931 40.3292 55.1462 39.4708C54.2105 38.6201 53.6194 37.4611 53.4819 36.2076H36.2466C36.1205 37.3666 35.5971 38.4612 34.7725 39.2893C33.9479 40.1193 32.8598 40.6449 31.7057 40.7716V45.4849C31.7057 45.7988 31.4516 46.0521 31.141 46.0521C30.8303 46.0521 30.5762 45.7988 30.5762 45.4849V40.2365C30.5762 40.0872 30.6364 39.9397 30.7418 39.8338C30.8473 39.7298 30.9922 39.6694 31.141 39.6694C33.3474 39.6656 35.1453 37.8581 35.149 35.6404C35.149 35.4911 35.2093 35.3455 35.3128 35.2396C35.4183 35.1337 35.5651 35.0732 35.7138 35.0732H54.0147C54.1634 35.0732 54.3103 35.1337 54.4157 35.2396C54.5193 35.3455 54.5795 35.4911 54.5795 35.6404C54.5851 37.8581 56.383 39.6656 58.5895 39.6694C60.7959 39.6656 62.5957 37.8581 62.5994 35.6404C62.5994 35.4911 62.6595 35.3455 62.7651 35.2396C62.8705 35.1337 63.0155 35.0732 63.1642 35.0732H81.467C81.6157 35.0732 81.7607 35.1337 81.8661 35.2396C81.9715 35.3455 82.0318 35.4911 82.0318 35.6404C82.0357 37.8581 83.8353 39.6656 86.0436 39.6694C86.1905 39.6694 86.3375 39.7299 86.4427 39.8357C86.5465 39.9397 86.6065 40.0872 86.6065 40.2365L86.6084 47.99C86.6084 48.3019 86.3544 48.5572 86.0436 48.5572Z" fill="white"/>
<path d="M58.5898 68.3669C57.2174 68.3669 55.9278 67.83 54.9582 66.8563C53.9868 65.8808 53.4521 64.5838 53.4521 63.2055C53.4521 60.362 55.7565 58.0498 58.5898 58.0498C59.9622 58.0498 61.2537 58.5867 62.2251 59.5604C63.1947 60.5341 63.7293 61.8273 63.7293 63.2055C63.7293 64.5838 63.1947 65.8808 62.2251 66.8563C61.2537 67.83 59.9622 68.3669 58.5898 68.3669ZM58.5898 59.1823C56.3834 59.188 54.5855 60.9916 54.5817 63.2055C54.5855 65.4214 56.3834 67.2288 58.5898 67.2326C60.7962 67.2286 62.596 65.4214 62.5998 63.2055C62.596 60.9916 60.7962 59.188 58.5898 59.1823Z" fill="#141517"/>
<path d="M86.0438 40.8037C83.2085 40.8018 80.9023 38.4858 80.9023 35.6404C80.9023 34.2603 81.437 32.9652 82.4084 31.9896C83.378 31.0159 84.6695 30.479 86.0438 30.479C88.8752 30.479 91.1795 32.795 91.1795 35.6404C91.1797 38.4858 88.8752 40.8018 86.0438 40.8037ZM86.0438 31.6115C83.8356 31.6172 82.0359 33.4246 82.0319 35.6404C82.0359 37.8581 83.8355 39.6656 86.0438 39.6693C88.2485 39.6656 90.0464 37.8581 90.05 35.6404C90.0464 33.4246 88.2485 31.6172 86.0438 31.6115Z" fill="#141517"/>
<path d="M31.1415 40.8036C28.3082 40.8018 26.002 38.4857 26.002 35.6403C26.002 34.2621 26.5347 32.9651 27.5062 31.9896C28.4776 31.0159 29.7672 30.4789 31.1415 30.4771C32.5139 30.4789 33.8035 31.0159 34.7731 31.9896C35.7445 32.9651 36.2791 34.2621 36.2791 35.6403C36.2773 38.4857 33.9729 40.8018 31.1415 40.8036ZM31.1415 31.6133C28.9332 31.6171 27.1353 33.4226 27.1296 35.6403C27.1353 37.858 28.9332 39.6655 31.1415 39.6693C33.3479 39.6655 35.1458 37.858 35.1496 35.6403C35.1458 33.4226 33.3479 31.6171 31.1415 31.6133Z" fill="white"/>
<path d="M31.1414 95.9323C29.769 95.9323 28.4775 95.3954 27.5061 94.4217C26.5365 93.4482 26.0019 92.153 26 90.7766C26.0019 89.3964 26.5347 88.0996 27.5061 87.1258C28.4775 86.1502 29.7671 85.6133 31.1414 85.6133C32.5138 85.6133 33.8034 86.1502 34.773 87.1258C35.7444 88.0995 36.2791 89.3964 36.2791 90.7766C36.2772 93.6182 33.9729 95.9323 31.1414 95.9323ZM31.1414 86.7477C28.9331 86.7514 27.1352 88.5589 27.1296 90.7766C27.1352 92.9905 28.9331 94.7942 31.1414 94.7981C33.3478 94.7942 35.1457 92.9905 35.1495 90.7766C35.1457 88.5589 33.3478 86.7512 31.1414 86.7477Z" fill="#141517"/>
<path d="M86.0438 95.9323C84.6695 95.9323 83.3782 95.3954 82.4084 94.4217C81.437 93.4482 80.9023 92.153 80.9023 90.7766C80.9023 89.3964 81.437 88.0996 82.4084 87.1258C83.378 86.1502 84.6695 85.6133 86.0438 85.6133C88.8752 85.6133 91.1795 87.9293 91.1795 90.7766C91.1797 93.6182 88.8752 95.9323 86.0438 95.9323ZM86.0438 86.7477C83.8356 86.7514 82.0359 88.5589 82.0319 90.7766C82.0359 92.9905 83.8355 94.7942 86.0438 94.7981C88.2485 94.7942 90.0464 92.9905 90.05 90.7766C90.0464 88.5589 88.2485 86.7512 86.0438 86.7477Z" fill="white"/>
<path d="M86.0438 68.3669C84.6695 68.3669 83.3782 67.83 82.4084 66.8563C81.437 65.8808 80.9023 64.5838 80.9023 63.2055C80.9023 61.8273 81.437 60.5341 82.4084 59.5604C83.378 58.5848 84.6695 58.0498 86.0438 58.0498C88.8752 58.0498 91.1795 60.362 91.1795 63.2055C91.1797 66.0509 88.8752 68.3669 86.0438 68.3669ZM86.0438 59.1842C83.8356 59.188 82.0359 60.9916 82.0319 63.2055C82.0359 65.4214 83.8355 67.2288 86.0438 67.2326C88.2485 67.2286 90.0464 65.4214 90.05 63.2055C90.0464 60.9916 88.2485 59.188 86.0438 59.1842Z" fill="white"/>
<path d="M31.1415 68.3669C29.7672 68.3669 28.4776 67.83 27.5062 66.8563C26.5347 65.8808 26.002 64.5838 26.002 63.2055C26.002 61.8273 26.5366 60.5341 27.5062 59.5604C28.4776 58.5848 29.7691 58.0498 31.1415 58.0498C33.9729 58.0498 36.2773 60.362 36.2791 63.2055C36.2791 64.5838 35.7445 65.8808 34.7731 66.8563C33.8035 67.83 32.5139 68.3669 31.1415 68.3669ZM31.1415 59.1842C28.9332 59.188 27.1353 60.9916 27.1315 63.2055C27.1353 65.4214 28.9332 67.2288 31.1415 67.2326C33.3479 67.2286 35.1458 65.4214 35.1496 63.2055C35.1458 60.9916 33.3479 59.188 31.1415 59.1842Z" fill="white"/>
<path d="M58.5898 40.8037C55.7584 40.8018 53.4521 38.4858 53.4521 35.6404C53.4521 34.2621 53.9868 32.9652 54.9582 31.9896C55.9278 31.0159 57.2174 30.479 58.5898 30.479C59.9622 30.479 61.2537 31.0159 62.2251 31.9896C63.1947 32.9652 63.7293 34.2621 63.7293 35.6404C63.7293 38.4858 61.4231 40.8018 58.5898 40.8037ZM58.5898 31.6115C56.3834 31.6172 54.5855 33.4246 54.5817 35.6404C54.5855 37.8581 56.3834 39.6656 58.5898 39.6693C60.7962 39.6656 62.596 37.8581 62.5998 35.6404C62.596 33.4227 60.7962 31.6172 58.5898 31.6115Z" fill="white"/>
<path d="M58.5898 95.9325C55.7584 95.9325 53.4521 93.6184 53.4521 90.7766C53.4521 89.3964 53.9868 88.0996 54.9582 87.1258C55.9278 86.1502 57.2174 85.6133 58.5898 85.6133C59.9622 85.6133 61.2537 86.1502 62.2251 87.1258C63.1947 88.0994 63.7293 89.3964 63.7293 90.7766C63.7293 92.1529 63.1947 93.4482 62.2251 94.4217C61.2537 95.3955 59.9622 95.9325 58.5898 95.9325ZM58.5898 86.7478C56.3834 86.7516 54.5855 88.5591 54.5817 90.7768C54.5855 92.9907 56.3834 94.7943 58.5898 94.7983C60.7981 94.7943 62.596 92.9907 62.5998 90.7768C62.596 88.5591 60.7981 86.7514 58.5898 86.7478Z" fill="white"/>
<path d="M55.3576 60.5286C55.207 60.5286 55.0658 60.4681 54.9585 60.3623L46.1158 51.4801C46.0085 51.3742 45.9501 51.2305 45.9501 51.0793C45.9501 50.928 46.0085 50.7863 46.1158 50.6785C46.3286 50.4648 46.7013 50.4648 46.914 50.6785L55.7567 59.5588C55.9769 59.78 55.9769 60.1411 55.7567 60.3623C55.6494 60.4681 55.5082 60.5286 55.3576 60.5286ZM41.4375 46.5437C41.2869 46.5437 41.1438 46.4851 41.0384 46.3773L33.9767 39.2875C33.7565 39.0663 33.7565 38.7052 33.9767 38.484C34.1895 38.2703 34.5622 38.2703 34.775 38.484L41.8366 45.5757C41.9421 45.6835 42.0023 45.8253 42.0023 45.9765C42.0023 46.1278 41.9421 46.2696 41.8366 46.3773C41.7293 46.4851 41.5881 46.5437 41.4375 46.5437Z" fill="white"/>
<path d="M61.826 60.5267C61.6754 60.5267 61.5342 60.4681 61.4269 60.3623C61.2067 60.1411 61.2067 59.78 61.4269 59.5588L70.2697 50.6785C70.4844 50.4648 70.855 50.4648 71.0678 50.6785C71.288 50.8997 71.288 51.2589 71.0678 51.4801L62.2251 60.3623C62.1197 60.4681 61.9765 60.5267 61.826 60.5267ZM75.744 46.5437C75.5934 46.5437 75.4522 46.4851 75.3451 46.3773C75.1246 46.1561 75.1246 45.7969 75.3451 45.5757L82.4086 38.484C82.6233 38.2703 82.9941 38.2703 83.2087 38.484C83.429 38.7071 83.4271 39.0663 83.2069 39.2875L76.1452 46.3773C76.0379 46.4851 75.8967 46.5437 75.744 46.5437Z" fill="#141517"/>
<path d="M34.3758 88.0296C34.2252 88.0296 34.084 87.9708 33.9767 87.8632C33.7565 87.6418 33.7565 87.2828 33.9767 87.0616L41.1645 79.847C41.3773 79.6314 41.75 79.6314 41.9628 79.847C42.0701 79.9547 42.1284 80.0965 42.1284 80.2478C42.1284 80.399 42.0701 80.5427 41.9628 80.6486L34.775 87.8632C34.6695 87.971 34.5264 88.0296 34.3758 88.0296ZM46.6467 75.7063C46.4961 75.7063 46.3549 75.6477 46.2476 75.5399C46.0273 75.3187 46.0273 74.9576 46.2476 74.7383L54.9585 65.9942C55.1712 65.7786 55.544 65.7786 55.7567 65.9942C55.864 66.1 55.9224 66.2437 55.9224 66.395C55.9224 66.5464 55.864 66.6882 55.7567 66.7958L47.0458 75.5399C46.9404 75.6479 46.7973 75.7063 46.6467 75.7063Z" fill="#141517"/>
<path d="M82.8079 88.0296C82.6573 88.0296 82.5161 87.9708 82.4088 87.8633L74.6148 80.0361C74.3945 79.8149 74.3945 79.4557 74.6148 79.2345C74.8277 79.0189 75.2003 79.0189 75.413 79.2345L83.2089 87.0616C83.3144 87.1692 83.3727 87.311 83.3727 87.4625C83.3727 87.6137 83.3142 87.7574 83.2071 87.8633C83.1014 87.971 82.9602 88.0296 82.8079 88.0296ZM69.9476 75.111C69.797 75.111 69.6558 75.0522 69.5487 74.9465L61.4269 66.796C61.3198 66.6885 61.2612 66.5467 61.2612 66.3952C61.2612 66.244 61.3198 66.1003 61.4269 65.9944C61.6396 65.7789 62.0124 65.7789 62.2251 65.9925L70.3467 74.143C70.454 74.2508 70.5124 74.3926 70.5124 74.5438C70.5124 74.697 70.454 74.8387 70.3467 74.9446C70.2415 75.0522 70.0984 75.111 69.9476 75.111Z" fill="white"/>
<path d="M54.032 63.7726H35.7142C35.4017 63.7726 35.1494 63.5173 35.1494 63.2054C35.1494 62.8915 35.4017 62.6382 35.7142 62.6382H54.032C54.3445 62.6382 54.5968 62.8915 54.5968 63.2054C54.5968 63.5173 54.3445 63.7726 54.032 63.7726Z" fill="white"/>
<path d="M58.6009 59.1902C58.2903 59.1902 58.0361 58.9349 58.0361 58.623V40.2234C58.0361 39.9115 58.2903 39.6562 58.6009 39.6562C58.9134 39.6562 59.1657 39.9115 59.1657 40.2234V58.623C59.1657 58.9349 58.9134 59.1902 58.6009 59.1902Z" fill="white"/>
<path d="M81.4827 63.7726H63.1649C62.8543 63.7726 62.6001 63.5173 62.6001 63.2054C62.6001 62.8915 62.8543 62.6382 63.1649 62.6382H81.4827C81.7952 62.6382 82.0475 62.8915 82.0475 63.2054C82.0475 63.5173 81.7952 63.7726 81.4827 63.7726Z" fill="white"/>
<path d="M58.6009 86.7534C58.2903 86.7534 58.0361 86.5001 58.0361 86.1881V67.7942C58.0361 67.4823 58.2903 67.2271 58.6009 67.2271C58.9115 67.2271 59.1657 67.4823 59.1657 67.7942V86.1881C59.1657 86.5001 58.9115 86.7534 58.6009 86.7534Z" fill="white"/>
<path d="M73.3702 52.8735C71.077 52.8716 69.2115 50.9961 69.2095 48.6895C69.2115 46.3867 71.077 44.5112 73.3702 44.5112C75.665 44.5112 77.5325 46.3867 77.5325 48.6895C77.5325 50.9961 75.665 52.8716 73.3702 52.8735ZM73.3702 45.6456C71.7022 45.6494 70.343 47.0144 70.3411 48.6895C70.343 50.3684 71.7021 51.7353 73.3702 51.7391C75.0401 51.7353 76.4013 50.3684 76.4029 48.6895C76.4013 47.0144 75.0401 45.6494 73.3702 45.6456Z" fill="#141517"/>
<path d="M43.8133 52.8735C41.5184 52.8716 39.6509 50.9942 39.6509 48.6895C39.6509 46.3867 41.5184 44.5131 43.8133 44.5112C46.1082 44.5112 47.9739 46.3867 47.9739 48.6895C47.9739 50.9942 46.1082 52.8716 43.8133 52.8735ZM43.8133 45.6456C42.1435 45.6494 40.7842 47.0144 40.7804 48.6895C40.7842 50.3684 42.1435 51.7353 43.8133 51.7391C45.4813 51.7353 46.8406 50.3684 46.8444 48.6895C46.8406 47.0144 45.4813 45.6494 43.8133 45.6456Z" fill="#141517"/>
<path d="M44.1347 81.8981C41.8398 81.8981 39.9741 80.0247 39.9741 77.7217C39.9741 75.419 41.8398 73.5435 44.1347 73.5435C46.4277 73.5435 48.2934 75.419 48.2934 77.7217C48.2934 80.0247 46.4277 81.8981 44.1347 81.8981ZM44.1347 74.678C42.4667 74.6818 41.1075 76.0468 41.1037 77.7219C41.1075 79.397 42.4667 80.762 44.1347 80.766C45.8027 80.762 47.1619 79.3972 47.1638 77.7219C47.1619 76.0468 45.8027 74.6818 44.1347 74.678Z" fill="#141517"/>
<path d="M72.2577 81.4956C69.9628 81.4956 68.0952 79.6182 68.0952 77.3135C68.0952 75.0091 69.9628 73.1353 72.2577 73.1353C74.5526 73.1353 76.4201 75.0089 76.4201 77.3135C76.4201 79.6182 74.5526 81.4956 72.2577 81.4956ZM72.2577 74.2696C70.5878 74.2715 69.2267 75.6384 69.2248 77.3135C69.2269 78.9905 70.5878 80.3593 72.2577 80.3612C73.9275 80.3593 75.2887 78.9905 75.2906 77.3135C75.2885 75.6384 73.9275 74.2715 72.2577 74.2696Z" fill="#141517"/>
<path d="M95.2594 71.167C94.9469 71.167 94.6946 70.9118 94.6946 70.5998V43.252C94.6946 42.94 94.9469 42.6848 95.2594 42.6848C95.57 42.6848 95.8242 42.94 95.8242 43.252V70.5998C95.8242 70.9118 95.57 71.167 95.2594 71.167ZM95.2594 40.0379C94.9469 40.0379 94.6946 39.7845 94.6946 39.4707C94.6946 39.1587 94.9469 38.9035 95.2594 38.9035C95.57 38.9035 95.8242 39.1587 95.8242 39.4707C95.8242 39.7845 95.57 40.0379 95.2594 40.0379ZM95.2594 36.2566C94.9469 36.2566 94.6946 36.0033 94.6946 35.6895V27.1344H38.4515C38.1409 27.1344 37.8867 26.881 37.8867 26.5672C37.8867 26.2552 38.1409 26 38.4515 26H95.2594C95.4081 26 95.5533 26.0605 95.6585 26.1664C95.7641 26.2723 95.8242 26.4178 95.8242 26.5672V35.6895C95.8242 36.0033 95.57 36.2566 95.2594 36.2566Z" fill="white"/>
</svg>
