<svg width="121" height="121" viewBox="0 0 121 121" fill="none" xmlns="http://www.w3.org/2000/svg">
<path d="M35.1959 83.1676C35.1319 83.1676 35.0678 83.1563 35.0076 83.1355C34.7139 83.0296 34.5595 82.7063 34.6631 82.4114C34.6838 82.3546 34.7102 82.3038 34.7459 82.2565C34.7327 82.2565 34.7177 82.2584 34.7064 82.2584C34.3939 82.2584 34.1416 82.003 34.1416 81.6912V42.5438C34.1416 42.3944 34.2018 42.2469 34.3054 42.1429C34.4108 42.0371 34.5577 41.9766 34.7064 41.9766H91.2657C91.4145 41.9766 91.5594 42.0371 91.6649 42.1429C91.7703 42.2488 91.8305 42.3944 91.8305 42.5438V50.2197C91.8305 50.3709 91.772 50.5127 91.6649 50.6205C91.5592 50.7264 91.4163 50.7869 91.2657 50.7869H89.577C89.2664 50.7869 89.0123 50.5316 89.0123 50.2197C89.0123 49.9058 89.2664 49.6525 89.577 49.6525H90.701V43.1109H35.2712V81.691C35.2712 81.8137 35.2298 81.9349 35.1544 82.0332C35.2316 82.0278 35.3107 82.0389 35.3841 82.0654C35.6778 82.1696 35.8322 82.4947 35.7286 82.7895C35.6496 83.0145 35.435 83.1676 35.1959 83.1676ZM36.4497 79.6019C36.3857 79.6019 36.3236 79.5904 36.2614 79.5698C36.1202 79.5185 36.0054 79.4147 35.9395 79.2786C35.8755 79.1423 35.868 78.9874 35.9169 78.8456L46.0548 50.0306C46.1338 49.8037 46.3485 49.6525 46.5876 49.6525H82.0466C82.3589 49.6525 82.6114 49.9058 82.6114 50.2197C82.6114 50.5316 82.3589 50.7869 82.0466 50.7869L46.9867 50.785L36.9825 79.2238C36.9034 79.4505 36.6888 79.6019 36.4497 79.6019ZM85.8118 50.7869C85.5012 50.7869 85.247 50.5316 85.247 50.2197C85.247 49.9058 85.5012 49.6525 85.8118 49.6525C86.1241 49.6525 86.3766 49.9058 86.3766 50.2197C86.3766 50.5316 86.1241 50.7869 85.8118 50.7869Z" fill="white"/>
<path d="M91.2658 84.5608H44.1816C43.871 84.5608 43.6169 84.3056 43.6169 83.9936C43.6169 83.6798 43.871 83.4264 44.1816 83.4264H90.8667L96.9984 65.9949C97.0925 65.7304 97.3804 65.5695 97.6533 65.6319C97.6684 65.6337 97.6835 65.6375 97.7004 65.6434L97.7194 65.6489C97.9416 65.7283 98.0939 65.94 98.096 66.1784C98.096 66.2446 98.0845 66.3106 98.0639 66.373L91.7986 84.1827C91.7195 84.4077 91.5047 84.5608 91.2658 84.5608ZM40.4164 84.5608C40.1058 84.5608 39.8516 84.3056 39.8516 83.9936C39.8516 83.6798 40.1058 83.4264 40.4164 83.4264C40.7289 83.4264 40.9812 83.6798 40.9812 83.9936C40.9812 84.3056 40.7289 84.5608 40.4164 84.5608ZM36.6512 84.5608H34.7065C34.522 84.5608 34.3506 84.4702 34.2452 84.3207C34.1379 84.1713 34.1115 83.9783 34.1737 83.8045L46.0548 50.0304C46.1358 49.8035 46.3485 49.6504 46.5876 49.6504H103.149C103.331 49.6504 103.503 49.7411 103.61 49.8905C103.716 50.0418 103.742 50.2346 103.68 50.4066L100.571 59.2434C100.492 59.4703 100.278 59.6216 100.039 59.6216C99.9746 59.6216 99.9125 59.6102 99.8504 59.5894C99.5567 59.4854 99.4023 59.1602 99.5079 58.8653L102.349 50.7867H46.9867L35.5047 83.4264H36.6512C36.9637 83.4264 37.216 83.6798 37.216 83.9936C37.216 84.3037 36.975 84.5532 36.6663 84.5608H36.6512ZM98.7848 63.1873C98.7208 63.1873 98.6568 63.1759 98.5965 63.1551C98.3028 63.0493 98.1485 62.726 98.2522 62.431C98.3332 62.2041 98.5459 62.0529 98.7848 62.0529C98.849 62.0529 98.913 62.0624 98.9731 62.085C99.2669 62.189 99.4213 62.5142 99.3176 62.8091C99.2385 63.0341 99.0241 63.1873 98.7848 63.1873Z" fill="white"/>
<path d="M59.8075 43.1106H39.4828C39.334 43.1106 39.1891 43.0501 39.0836 42.9443C38.9782 42.8384 38.918 42.6928 38.918 42.5435V36.0208C38.918 35.8714 38.9782 35.7259 39.0836 35.62C39.1891 35.5141 39.334 35.4536 39.4828 35.4536H53.9375C54.0975 35.4536 54.25 35.5217 54.3573 35.6408L60.2273 42.1634C60.376 42.3298 60.4137 42.568 60.3233 42.7741C60.2329 42.9783 60.0315 43.1106 59.8075 43.1106ZM40.0475 41.9763H58.5367L53.6871 36.588H40.0475V41.9763Z" fill="white"/>
<path d="M56.9045 50.7867C56.5939 50.7867 56.3398 50.5315 56.3398 50.2196C56.3398 49.9057 56.5939 49.6524 56.9045 49.6524H85.2624V47.4347H52.759C52.7346 47.7258 52.4879 47.9527 52.1961 47.9527C51.8836 47.9527 51.6313 47.6975 51.6313 47.3855V46.8675C51.6313 46.7181 51.6916 46.5707 51.797 46.4667C51.9024 46.3608 52.0474 46.3003 52.1961 46.3003H85.8271C85.9759 46.3003 86.1225 46.3608 86.2261 46.4667C86.3317 46.5725 86.3919 46.7181 86.3919 46.8675V50.2196C86.3919 50.3708 86.3334 50.5126 86.2261 50.6204C86.1206 50.7262 85.9778 50.7849 85.8271 50.7849L56.9045 50.7867ZM53.1393 50.7849C52.8287 50.7849 52.5745 50.5315 52.5745 50.2196C52.5745 49.9057 52.8287 49.6524 53.1393 49.6524C53.4518 49.6524 53.7041 49.9057 53.7041 50.2196C53.7041 50.5315 53.4518 50.7849 53.1393 50.7849Z" fill="white"/>
<path d="M93.1827 57.0807H50.7655C50.4548 57.0807 50.2007 56.8273 50.2007 56.5135C50.2007 56.2015 50.4548 55.9463 50.7655 55.9463H93.1827C93.4952 55.9463 93.7474 56.2015 93.7474 56.5135C93.7474 56.8273 93.4952 57.0807 93.1827 57.0807Z" fill="#FF4D40"/>
<path d="M23.8945 86.6916H23.8888C20.6432 86.6895 18.0019 84.0351 18 80.7758V62.1097C18 61.9603 18.0602 61.8147 18.1638 61.7089C18.2692 61.603 18.4161 61.5425 18.5648 61.5425H29.2147C29.3653 61.5425 29.5103 61.603 29.6157 61.7089C29.7193 61.8147 29.7795 61.9603 29.7795 62.1097V80.7758C29.7776 84.0351 27.1382 86.6895 23.8945 86.6916ZM19.1296 62.6769V80.7758C19.1296 82.0463 19.6266 83.2467 20.5284 84.1523C21.432 85.0579 22.6256 85.5572 23.8888 85.5572H23.8945C25.1577 85.5572 26.3513 85.0579 27.253 84.1544C28.1548 83.2467 28.6499 82.048 28.6499 80.7758V62.6769H19.1296Z" fill="#FF4D40"/>
<path d="M25.6325 59.5157H22.1515C22.0028 59.5157 21.8578 59.4552 21.7524 59.3494C21.647 59.2454 21.5867 59.0979 21.5867 58.9486V42.4472H21.1368C20.9542 42.4472 20.7829 42.3564 20.6756 42.2071C20.5701 42.0558 20.5438 41.863 20.604 41.689L22.8293 35.3781C22.9083 35.1531 23.123 35 23.3621 35H24.4182C24.6573 35 24.87 35.1531 24.951 35.3781L27.18 41.689C27.2402 41.863 27.2139 42.0558 27.1085 42.2052C27.003 42.3564 26.8317 42.4472 26.6472 42.4472H26.1973V58.9486C26.1973 59.0979 26.137 59.2454 26.0316 59.3494C25.9262 59.4552 25.7812 59.5157 25.6325 59.5157ZM22.7163 58.3814H25.0677V41.88C25.0677 41.7306 25.1279 41.5832 25.2334 41.4773C25.3388 41.3733 25.4838 41.3128 25.6325 41.3128H25.849L24.0191 36.1344H23.7612L21.9369 41.3128H22.1515C22.3003 41.3128 22.4471 41.3733 22.5506 41.4773C22.6561 41.5832 22.7163 41.7306 22.7163 41.88V58.3814Z" fill="#FF4D40"/>
<path d="M23.8891 86.6916C22.4018 86.6895 21.1913 85.4721 21.1875 83.9783V62.1097C21.1875 61.9603 21.2477 61.8147 21.3532 61.7089C21.4586 61.603 21.6036 61.5425 21.7523 61.5425H26.0334C26.1821 61.5425 26.327 61.603 26.4325 61.7089C26.5379 61.8147 26.5981 61.9603 26.5981 62.1097V83.9785C26.5944 85.4721 25.3801 86.6895 23.8891 86.6916ZM22.3171 62.6769V83.9785C22.319 84.8484 23.0249 85.5553 23.8891 85.5574C24.7588 85.5553 25.4667 84.8484 25.4686 83.9785V62.6769H22.3171Z" fill="#FF4D40"/>
<path d="M27.1554 62.6768H20.6302C20.4815 62.6768 20.3346 62.6164 20.2311 62.5105C20.1257 62.4065 20.0654 62.259 20.0654 62.1097V58.9485C20.0654 58.7992 20.1257 58.6536 20.2311 58.5477C20.3346 58.4418 20.4815 58.3813 20.6302 58.3813H27.1554C27.3041 58.3813 27.449 58.4418 27.5545 58.5477C27.6599 58.6536 27.7201 58.7992 27.7201 58.9485V62.1097C27.7201 62.259 27.6599 62.4046 27.5545 62.5105C27.449 62.6164 27.3041 62.6768 27.1554 62.6768ZM21.195 59.5157V61.5425H26.5906V59.5157H21.195Z" fill="#FF4D40"/>
</svg>
