<svg width="121" height="121" viewBox="0 0 121 121" fill="none" xmlns="http://www.w3.org/2000/svg">
<path d="M71.0732 102.375H28.2847C28.0871 102.375 27.9013 102.276 27.7926 102.11C27.6819 101.944 27.6621 101.736 27.7372 101.553L34.1667 86.1501C34.2596 85.9287 34.475 85.7845 34.7141 85.7845C34.7932 85.7845 34.8703 85.8001 34.9434 85.8317C35.0897 85.891 35.2023 86.0056 35.2636 86.1519C35.3229 86.2981 35.3229 86.4604 35.2616 86.6065L29.1741 101.189H70.6779L74.2592 92.6033C74.3521 92.3819 74.5677 92.2394 74.8069 92.2394C74.8858 92.2394 74.963 92.2532 75.036 92.2849C75.3366 92.4113 75.4807 92.759 75.3542 93.0596L71.6189 102.009C71.5276 102.231 71.3121 102.375 71.0732 102.375ZM76.3284 89.7767C76.2513 89.7767 76.1744 89.7609 76.1013 89.7315C75.7989 89.6048 75.6566 89.2571 75.7831 88.9545C75.874 88.7333 76.0894 88.5908 76.3286 88.5908C76.4076 88.5908 76.4847 88.6067 76.5578 88.6363C76.8585 88.7628 77.0026 89.1105 76.8761 89.4131C76.7832 89.6346 76.5697 89.7767 76.3284 89.7767ZM77.8505 86.1284C77.7734 86.1284 77.6965 86.1126 77.6234 86.0831C77.4771 86.0216 77.3625 85.907 77.3032 85.7609C77.2439 85.6147 77.2439 85.4544 77.3051 85.3083L80.6651 77.2562C80.7561 77.0349 80.9715 76.8925 81.2106 76.8925H86.132L76.4847 53.7798H48.9625L38.3074 79.3098C38.3014 79.3256 38.2955 79.3376 38.2876 79.3513L38.2856 79.3572L38.2718 79.3809C38.2718 79.3829 38.2698 79.3829 38.2698 79.3849C38.2639 79.395 38.256 79.4086 38.2481 79.4206L38.2441 79.4226L38.2402 79.4286C38.2402 79.4305 38.2382 79.4325 38.2362 79.4343L38.2263 79.4323L38.2342 79.4382C38.2322 79.4402 38.2322 79.4422 38.2303 79.4442L38.2283 79.4461C38.2204 79.454 38.2145 79.4639 38.2066 79.4718C38.0425 79.6616 37.7638 79.7268 37.5306 79.63C37.3112 79.5371 37.1669 79.3236 37.1669 79.0845C37.1669 79.0054 37.1808 78.9283 37.2124 78.8532L48.0197 52.9596C48.1126 52.7382 48.328 52.5959 48.5672 52.5959H76.878C77.1192 52.5959 77.3348 52.7382 77.4257 52.9596L87.5709 77.2562C87.646 77.44 87.626 77.6474 87.5173 77.8136C87.4067 77.9796 87.2228 78.0784 87.0232 78.0784H81.6057L78.3981 85.7649C78.307 85.9861 78.0916 86.1284 77.8505 86.1284ZM36.236 83.3238C36.1589 83.3238 36.0819 83.308 36.0087 83.2763C35.7063 83.1518 35.564 82.804 35.6905 82.5016C35.7814 82.2802 35.9969 82.1357 36.238 82.1357C36.3151 82.1357 36.3922 82.1515 36.4653 82.1831C36.6115 82.2446 36.7262 82.3571 36.7855 82.5033C36.8448 82.6516 36.8448 82.8119 36.7835 82.9579C36.6926 83.1795 36.4771 83.3238 36.236 83.3238Z" fill="white"/>
<path d="M52.8372 64.2925C52.5486 64.2925 52.3035 64.087 52.2541 63.8024C52.2265 63.6462 52.262 63.4901 52.3529 63.3596C52.4439 63.2292 52.5802 63.1442 52.7364 63.1165C54.1555 62.8655 55.5133 62.2647 56.6577 61.3772C56.8711 61.2132 57.1973 61.2191 57.4028 61.3931C58.4721 62.2943 59.8358 62.7924 61.247 62.7924H61.251C64.0319 62.7924 66.4886 60.8179 67.0936 58.0983C67.1509 57.8453 67.3624 57.6595 67.6193 57.6378C68.6728 57.5429 69.6848 57.1694 70.5465 56.5547C70.6967 56.446 70.8924 56.4163 71.0685 56.4717C71.2481 56.527 71.3865 56.6614 71.4499 56.8373C72.2978 59.215 74.5648 60.812 77.0908 60.812C77.8398 60.812 78.5672 60.6756 79.251 60.4088L76.486 53.7797H48.9633L45.7634 61.4444C45.8939 61.5591 45.967 61.7231 45.965 61.897C45.963 62.0255 45.9215 62.1481 45.8445 62.2489C45.7298 62.3991 45.5579 62.4841 45.3721 62.4841C45.2416 62.4841 45.1171 62.4406 45.0124 62.3615C44.8958 62.2726 44.7791 62.1797 44.6645 62.0848C44.4629 61.9168 44.3957 61.6421 44.4965 61.401L48.0225 52.9595C48.1134 52.7381 48.3289 52.5938 48.568 52.5938H76.8789C77.12 52.5938 77.3335 52.7381 77.4266 52.9595L80.5689 60.4859C80.6877 60.7724 80.565 61.1065 80.2883 61.2448C79.3099 61.737 78.2051 61.9978 77.0923 61.9978C75.7088 61.9978 74.3668 61.6045 73.2106 60.8594C72.0877 60.136 71.1886 59.1181 70.6155 57.9165C69.8484 58.3513 69.0185 58.6379 68.1469 58.7683C67.7279 60.2388 66.8266 61.563 65.6069 62.4979C64.3481 63.4664 62.8399 63.9783 61.2468 63.9783C59.7052 63.9783 58.2406 63.5 57.0093 62.5928C55.7819 63.4565 54.4142 64.0257 52.9417 64.2846C52.9064 64.2905 52.8728 64.2925 52.8372 64.2925ZM48.9159 64.172C48.8684 64.172 48.823 64.166 48.7755 64.1542C48.6214 64.1166 48.4909 64.0217 48.4099 63.8873C48.3269 63.7529 48.3012 63.5929 48.3388 63.4387C48.4139 63.1264 48.74 62.9248 49.0542 63.0019C49.2084 63.0394 49.3388 63.1343 49.4219 63.2687C49.5029 63.4051 49.5286 63.5632 49.491 63.7174C49.4258 63.9842 49.1906 64.172 48.9159 64.172Z" fill="#141517"/>
<path d="M76.2599 47.7754C76.1571 47.7754 76.0563 47.7477 75.9676 47.6963C75.6847 47.5362 75.5841 47.1725 75.744 46.8899L82.3454 35.2643C82.4521 35.0805 82.6498 34.9639 82.8632 34.9639C82.964 34.9639 83.0648 34.9916 83.1538 35.043C83.2921 35.1201 83.391 35.2485 83.4344 35.4007C83.4759 35.5529 83.4562 35.713 83.3771 35.8513L76.7759 47.4749C76.671 47.6607 76.4733 47.7754 76.2599 47.7754Z" fill="white"/>
<path d="M72.3286 41.5782C72.2256 41.5782 72.125 41.5525 72.0361 41.5011C71.7517 41.3391 71.6529 40.9774 71.8128 40.6928L81.2326 24.1181C81.3373 23.9324 81.535 23.8177 81.7484 23.8177C81.8512 23.8177 81.9518 23.8454 82.0408 23.8948C82.1791 23.9739 82.2779 24.1004 82.3194 24.2525C82.3609 24.4067 82.3412 24.5668 82.2641 24.7032L72.8443 41.2778C72.7397 41.4636 72.5421 41.5782 72.3286 41.5782Z" fill="#141517"/>
<path d="M66.3162 43.6181C66.2668 43.6181 66.2152 43.6121 66.1658 43.5983C66.0136 43.5588 65.8852 43.4619 65.8041 43.3256C65.7253 43.1892 65.7033 43.0291 65.7429 42.8749L69.6147 28.0159C69.6958 27.7056 70.0258 27.5099 70.3381 27.5909C70.4923 27.6324 70.6208 27.7293 70.6998 27.8657C70.7808 28.002 70.8026 28.1621 70.7631 28.3143L66.8894 43.1753C66.8222 43.4362 66.5868 43.6181 66.3162 43.6181Z" fill="white"/>
<path d="M50.5946 47.7754C50.3811 47.7754 50.1835 47.6607 50.0787 47.4749L43.4773 35.8513C43.3983 35.713 43.3785 35.5529 43.422 35.4007C43.4635 35.2485 43.5623 35.1201 43.7007 35.043C43.7896 34.9916 43.8904 34.9639 43.9932 34.9639C44.2047 34.9639 44.4023 35.0805 44.5091 35.2643L51.1104 46.8879C51.1895 47.0263 51.2093 47.1864 51.1658 47.3386C51.1243 47.4927 51.0255 47.6192 50.8871 47.6963C50.7982 47.7477 50.6974 47.7754 50.5946 47.7754Z" fill="white"/>
<path d="M54.5278 41.5782C54.3144 41.5782 54.1167 41.4636 54.012 41.2778L44.5922 24.7032C44.4301 24.4186 44.5309 24.0569 44.8135 23.8948C44.9044 23.8434 45.0052 23.8177 45.106 23.8177C45.3195 23.8177 45.5171 23.9324 45.6219 24.1181L55.0417 40.6928C55.1208 40.8311 55.1405 40.9912 55.099 41.1434C55.0555 41.2956 54.9567 41.4221 54.8203 41.5011C54.7314 41.5525 54.6286 41.5782 54.5278 41.5782Z" fill="white"/>
<path d="M60.5386 43.6185C60.2698 43.6185 60.0346 43.4367 59.9654 43.1758L56.0935 28.3148C56.054 28.1626 56.0757 28.0025 56.1548 27.8661C56.2358 27.7297 56.3643 27.6329 56.5164 27.5914C56.5659 27.5795 56.6172 27.5736 56.6667 27.5736C56.9374 27.5736 57.1726 27.7554 57.2398 28.0163L61.1137 42.8774C61.1532 43.0296 61.1315 43.1897 61.0505 43.326C60.9716 43.4624 60.8429 43.5593 60.6888 43.5988C60.6392 43.6126 60.5897 43.6185 60.5386 43.6185Z" fill="#141517"/>
<path d="M75.2691 23.5416C73.7413 23.5416 72.4961 22.3004 72.4961 20.7746C72.4961 19.2468 73.7413 18.0016 75.2691 17.9996C76.7967 18.0016 78.042 19.2468 78.042 20.7746C78.042 22.3004 76.7989 23.5416 75.2691 23.5416ZM75.2691 19.1855C74.3955 19.1875 73.6838 19.901 73.682 20.7746C73.6839 21.6442 74.3955 22.3557 75.2691 22.3557C76.1427 22.3557 76.8562 21.6442 76.8562 20.7746C76.8562 19.901 76.1427 19.1875 75.2691 19.1855Z" fill="#141517"/>
<path d="M52.8882 26.7135C51.3604 26.7096 50.1152 25.4664 50.1152 23.9386C50.1152 22.4128 51.3604 21.1715 52.8882 21.1715C54.418 21.1715 55.6612 22.4128 55.6632 23.9386C55.6632 24.6817 55.3726 25.3775 54.8489 25.9012C54.3251 26.423 53.6294 26.7116 52.8882 26.7135ZM52.8882 22.3574C52.0146 22.3594 51.3031 23.0689 51.3011 23.9386C51.3031 24.8142 52.0146 25.5277 52.8882 25.5277C53.7638 25.5277 54.4753 24.8142 54.4773 23.9386C54.4753 23.0689 53.7638 22.3594 52.8882 22.3574Z" fill="#141517"/>
<path d="M68.0728 50.5504C66.545 50.5504 65.2998 49.3052 65.2979 47.7774C65.2998 46.2496 66.545 45.0044 68.0728 45.0024C69.6004 45.0044 70.8438 46.2496 70.8458 47.7774C70.8436 49.3052 69.6004 50.5504 68.0728 50.5504ZM68.0728 46.1883C67.1992 46.1903 66.4857 46.9038 66.4837 47.7774C66.4857 48.651 67.1992 49.3625 68.0728 49.3645C68.9464 49.3625 69.6579 48.651 69.6599 47.7774C69.6577 46.9038 68.9464 46.1903 68.0728 46.1883Z" fill="#141517"/>
<path d="M42.0552 51.2099C40.5293 51.2099 39.2861 49.9647 39.2861 48.4369C39.2861 46.9071 40.5293 45.6639 42.0552 45.6619C42.7963 45.6619 43.494 45.9525 44.0178 46.4762C44.5396 47 44.8281 47.6957 44.8281 48.4369C44.8262 49.9667 43.581 51.2099 42.0552 51.2099ZM42.0552 46.8478C41.1835 46.8498 40.474 47.5633 40.472 48.4369C40.474 49.3105 41.1835 50.024 42.0552 50.024C42.9307 50.024 43.6423 49.3105 43.6423 48.4369C43.6423 47.5633 42.9307 46.8498 42.0552 46.8478Z" fill="#141517"/>
<path d="M70.8472 75.3133C69.3194 75.3113 68.0742 74.0681 68.0742 72.5403C68.0742 71.0107 69.3194 69.7676 70.8472 69.7654C72.377 69.7654 73.6202 71.0107 73.6222 72.5403C73.6202 74.0681 72.377 75.3133 70.8472 75.3133ZM70.8472 70.9511C69.9736 70.9532 69.2619 71.6646 69.2601 72.5401C69.2621 73.4137 69.9736 74.1255 70.8472 74.1272C71.7228 74.1253 72.4343 73.4137 72.4363 72.5401C72.4343 71.6648 71.7228 70.9532 70.8472 70.9511Z" fill="#141517"/>
<path d="M53.9428 85.6103C53.2036 85.6084 52.5079 85.3218 51.9861 84.8C51.4643 84.2762 51.1758 83.5825 51.1758 82.8433C51.1758 82.1001 51.4643 81.4046 51.9861 80.8807C52.5079 80.3589 53.2036 80.0703 53.9428 80.0683C54.686 80.0705 55.3817 80.3591 55.9035 80.8807C56.4272 81.4044 56.7158 82.1001 56.7178 82.8433C56.7158 83.5825 56.4272 84.2784 55.9035 84.8C55.3817 85.3218 54.686 85.6085 53.9428 85.6103ZM53.9428 81.2542C53.0712 81.2542 52.3617 81.9677 52.3617 82.8433C52.3617 83.7149 53.0712 84.4244 53.9428 84.4244C54.8184 84.4244 55.5319 83.7149 55.5319 82.8433C55.5299 81.9539 54.8322 81.2564 53.9428 81.2542Z" fill="#141517"/>
<path d="M105.51 102.375H76.8172C76.4911 102.375 76.2243 102.108 76.2243 101.782C76.2243 101.454 76.4911 101.189 76.8172 101.189H104.618L94.975 78.076H81.6062L72.4532 100.013V100.015C72.4077 100.121 72.3344 100.213 72.2397 100.276C72.0757 100.388 71.8602 100.412 71.6762 100.335C71.3778 100.208 71.2357 99.8744 71.3521 99.5722C71.3541 99.5681 71.3562 99.5643 71.358 99.5584L80.6652 77.256C80.7561 77.0346 80.9715 76.8923 81.2107 76.8923H95.3703C95.6094 76.8923 95.8249 77.0346 95.9178 77.256L106.055 101.553C106.132 101.737 106.112 101.944 106.002 102.11C105.893 102.276 105.707 102.375 105.51 102.375ZM72.8643 102.375C72.5382 102.375 72.2713 102.108 72.2713 101.782C72.2713 101.454 72.5382 101.189 72.8643 101.189C73.1924 101.189 73.4572 101.454 73.4572 101.782C73.4572 102.108 73.1924 102.375 72.8643 102.375Z" fill="white"/>
<path d="M28.2849 102.375H14.592C14.3627 102.375 14.1532 102.24 14.0564 102.033C13.9576 101.825 13.9912 101.576 14.1374 101.403L30.5421 81.7447C30.7437 81.5036 31.135 81.468 31.3761 81.6696C31.6271 81.8791 31.6607 82.2527 31.4532 82.5055L15.8589 101.189H27.8897L37.5328 78.0782H34.8685C34.5424 78.0782 34.2756 77.8112 34.2756 77.4852C34.2756 77.1571 34.5424 76.8923 34.8685 76.8923H38.4242C38.6218 76.8923 38.8076 76.9911 38.9163 77.1552C39.027 77.3212 39.0468 77.5287 38.9697 77.7123L28.8324 102.009C28.7395 102.231 28.5261 102.375 28.2849 102.375ZM33.5285 79.6831C33.3902 79.6831 33.2558 79.6337 33.149 79.5447C32.898 79.335 32.8644 78.9617 33.0739 78.7087C33.2755 78.4675 33.6669 78.4322 33.91 78.6336C34.0305 78.7365 34.1056 78.8787 34.1195 79.0368C34.1353 79.1949 34.0859 79.3471 33.9851 79.4696C33.8724 79.606 33.7064 79.6831 33.5285 79.6831Z" fill="white"/>
</svg>
