<svg width="121" height="121" viewBox="0 0 121 121" fill="none" xmlns="http://www.w3.org/2000/svg">
<path d="M67.4003 89.9572H66.2378C66.0883 89.9572 65.9423 89.8966 65.8365 89.7906C65.7532 89.7073 65.6983 89.5994 65.6774 89.482H65.3045C65.0184 89.482 64.7818 89.2776 64.742 88.9955L63.6725 81.5703C63.6498 81.4207 63.6896 81.2693 63.7802 81.1481C65.0053 79.5183 65.5769 77.7839 65.5809 75.6862C65.5809 75.548 65.5788 75.4041 65.5733 75.2563C65.5618 74.9458 65.806 74.6807 66.1165 74.6694C69.8425 74.5122 72.8923 71.7198 73.3695 68.028C73.3695 68.0261 73.3714 68.0261 73.3714 68.0242C73.4112 67.7194 73.699 67.4996 74.0058 67.5377C74.2898 67.5755 74.5017 67.8177 74.5017 68.1016C74.5017 68.1264 74.4998 68.1511 74.4962 68.1738C74.3693 69.1581 74.0778 70.1067 73.6291 70.9928C73.1937 71.8561 72.62 72.6361 71.9252 73.3157C71.2304 73.9935 70.4334 74.5484 69.5587 74.9647C68.6632 75.3907 67.7071 75.6597 66.717 75.7638C66.713 76.8127 66.5635 77.8237 66.2738 78.7646C65.9597 79.7793 65.4749 80.7468 64.8293 81.6404L65.795 88.348H66.238C66.3876 88.348 66.5352 88.4067 66.6394 88.5127C66.7225 88.5958 66.7793 88.7058 66.7984 88.8213H66.9101L67.7677 83.1227C67.8056 82.8764 67.9968 82.6852 68.2429 82.6474C69.3391 82.4789 70.4315 82.1873 71.4898 81.7823C71.7168 81.6953 71.9856 81.7691 72.1372 81.9584L75.7247 86.4605L77.6558 85.3473L75.5505 79.9838C75.4598 79.7526 75.528 79.4914 75.7209 79.3342C76.5937 78.6264 77.3926 77.8254 78.095 76.9564C78.2483 76.7652 78.517 76.6932 78.7463 76.7841L84.1076 78.895L85.2208 76.9639L80.719 73.3763C80.5257 73.2211 80.4539 72.9619 80.5427 72.7288C80.946 71.6743 81.2396 70.58 81.4117 69.4801C81.4496 69.2378 81.6465 69.0428 81.889 69.0068L87.5819 68.1492V65.9192L81.889 65.0615C81.6466 65.0256 81.4515 64.8306 81.4117 64.5901C81.3494 64.185 81.2678 63.7779 81.1732 63.3766C81.1374 63.2289 81.1618 63.0757 81.2413 62.9468C81.3208 62.8179 81.4458 62.7272 81.5933 62.6931C81.8964 62.6193 82.2067 62.8143 82.2786 63.1134C82.3468 63.4031 82.4092 63.7003 82.4641 63.9994L88.2344 64.8686C88.509 64.9103 88.7174 65.1505 88.7174 65.4309V68.6399C88.7174 68.9182 88.509 69.1584 88.2344 69.2003L82.4641 70.0693C82.2994 70.9742 82.0571 71.8735 81.7485 72.7444L86.3113 76.3793C86.5328 76.5554 86.5913 76.8621 86.4493 77.1082L84.8477 79.8855C84.7097 80.1222 84.4028 80.232 84.1472 80.1317L78.7118 77.9923C78.1173 78.6928 77.4606 79.3519 76.7561 79.9499L78.8917 85.3874C78.9939 85.6468 78.8879 85.9478 78.6455 86.0858L75.8682 87.6894C75.6315 87.8259 75.3097 87.7651 75.1391 87.5513L71.5044 82.9887C70.6276 83.2992 69.7283 83.5394 68.8291 83.7006L67.9601 89.4729C67.919 89.7528 67.6823 89.9572 67.4003 89.9572ZM73.5589 64.9366C73.3165 64.9366 73.1007 64.7813 73.0212 64.5523C72.972 64.4084 72.9814 64.2552 73.0494 64.1187C73.1158 63.9824 73.2311 63.8802 73.3752 63.8309C73.4339 63.8101 73.4964 63.8007 73.5589 63.8007C73.8012 63.8007 74.017 63.9542 74.0965 64.1833C74.1969 64.4803 74.0397 64.8041 73.7425 64.9063C73.6838 64.9252 73.6213 64.9366 73.5589 64.9366ZM71.5594 61.7617C71.4101 61.7617 71.2681 61.703 71.1602 61.597C69.7232 60.1771 67.8168 59.3952 65.7967 59.3952C64.3919 59.3952 63.0175 59.7814 61.821 60.5121C61.6714 60.6049 61.484 60.622 61.3212 60.5595C61.1564 60.4951 61.0315 60.3626 60.9802 60.1941C60.4823 58.5546 60.1434 57.0817 59.9446 55.6939C59.9295 55.5841 59.9465 55.4743 59.9919 55.374V51.5876C59.9919 51.438 60.0525 51.2903 60.1585 51.1843C60.2647 51.0802 60.4103 51.0196 60.5599 51.0196H61.107C61.5406 51.0158 61.7697 50.8871 61.9364 50.7602C62.1161 50.6201 62.2259 50.4554 62.3151 50.3248L62.3189 50.321L62.5555 47.5115C62.5801 47.2199 62.8282 46.9909 63.1216 46.9909H67.8355C68.1176 46.9909 68.3542 47.1953 68.398 47.4755L68.8294 50.3683C69.7344 50.5312 70.6356 50.7716 71.5047 51.0859L75.1395 46.5175C75.3099 46.3055 75.6319 46.243 75.8686 46.3812L78.6478 47.9867C78.892 48.1287 78.9943 48.424 78.892 48.6872L76.7565 54.1226C77.4645 54.7246 78.1215 55.3834 78.7122 56.0783L84.1476 53.9427C84.4033 53.8424 84.7101 53.9503 84.8481 54.1869L86.4497 56.9605C86.5879 57.2028 86.5292 57.5152 86.3117 57.6894L85.6264 58.2365C85.6264 58.2365 85.6264 58.2365 85.6243 58.2365C85.4236 58.3974 85.1209 58.3974 84.92 58.2403C84.8859 58.2138 84.8537 58.1816 84.8272 58.1475C84.7458 58.0472 84.7044 57.926 84.7025 57.7973C84.7004 57.6231 84.7799 57.4584 84.9164 57.3486L85.221 57.1063L84.1078 55.179L78.7444 57.2842C78.5172 57.3751 78.2483 57.3032 78.095 57.1138C77.4021 56.2524 76.6012 55.4535 75.7209 54.7379C75.5278 54.5807 75.4596 54.3214 75.5505 54.0904L77.6558 48.7269L75.7247 47.6099L72.1372 52.1158C71.9856 52.307 71.7168 52.3789 71.4877 52.2899C70.437 51.8829 69.3448 51.5913 68.2427 51.4229C67.9947 51.3831 67.8035 51.1919 67.7675 50.9439L67.3453 48.1268H63.6441L63.4359 50.5936C63.4226 50.7375 63.3583 50.8681 63.2541 50.9647C63.2426 50.9817 63.2238 51.0082 63.2047 51.0366C63.1216 51.1578 63.004 51.3168 62.8393 51.4778C62.6349 51.6822 62.0612 52.1536 61.1279 52.1555V55.6144C61.1279 55.6693 61.1203 55.7223 61.1051 55.7753C61.2699 56.8469 61.5198 57.9639 61.8681 59.1888C63.0798 58.5811 64.4372 58.2592 65.7946 58.2592H65.7984C66.9722 58.2592 68.1119 58.4883 69.1855 58.9389C70.2228 59.3724 71.1562 59.9953 71.9589 60.7886C72.1823 61.0101 72.1842 61.3698 71.9646 61.5932C71.8569 61.7011 71.713 61.7617 71.5594 61.7617ZM82.311 60.7223C82.1368 60.7223 81.9742 60.6447 81.8661 60.5084C81.7714 60.391 81.7298 60.2414 81.7468 60.0919C81.7638 59.9404 81.8375 59.806 81.9569 59.7113C82.1936 59.5201 82.5647 59.5637 82.754 59.8003C82.8486 59.9196 82.892 60.0672 82.8751 60.2187C82.8581 60.3683 82.7824 60.5046 82.665 60.5992C82.5628 60.6788 82.4399 60.7223 82.311 60.7223Z" fill="#141517"/>
<path d="M44.0318 79.886C43.9333 79.886 43.8368 79.8594 43.7497 79.8104C42.7576 79.2519 42.0041 78.5098 41.5119 77.6029C41.0651 76.7813 40.8436 75.8498 40.8531 74.8387C40.8569 73.6726 41.1333 72.372 41.6728 70.9708C42.0988 69.8671 42.6781 68.716 43.4411 67.4514C44.6452 65.4692 45.8625 64.0114 45.9969 63.8524L46.0007 63.8467C46.0007 63.8467 46.0026 63.8467 46.0026 63.8448C46.1976 63.6176 46.5725 63.5873 46.8015 63.7823C47.0401 63.9868 47.0685 64.3463 46.8659 64.5829C46.864 64.585 46.7921 64.67 46.6595 64.8328C46.5384 64.9843 46.3434 65.2304 46.1029 65.5485C45.6826 66.1089 45.0465 66.9966 44.4123 68.0418C43.5036 69.5297 41.9776 72.3922 41.989 74.8383C42.0079 76.6711 42.7255 77.8996 44.3139 78.8237C44.4464 78.8992 44.541 79.0206 44.5808 79.1681C44.6206 79.314 44.6016 79.4672 44.5259 79.598C44.4237 79.7761 44.2362 79.886 44.0318 79.886Z" fill="#141517"/>
<path d="M42.5759 101.565C42.2616 101.565 42.0079 101.309 42.0079 100.997C42.0079 100.683 42.2616 100.429 42.5759 100.429H69.4859V96.9697C69.4821 95.0652 67.9297 93.5128 66.027 93.509H37.5948C35.6903 93.5129 34.1397 95.0654 34.1359 96.9697V100.429H35.003C35.3154 100.429 35.571 100.683 35.571 100.997C35.571 101.292 35.34 101.54 35.0466 101.563C35.0314 101.563 35.0182 101.565 35.003 101.565H33.568C33.4184 101.565 33.2707 101.504 33.1666 101.398C33.0606 101.292 33 101.146 33 100.997V96.9697C33.0019 94.4366 35.0636 92.3768 37.5948 92.373H66.027C68.5583 92.3749 70.62 94.4366 70.6218 96.9697V100.997C70.6218 101.148 70.5632 101.29 70.4552 101.398C70.3475 101.506 70.2055 101.565 70.0539 101.565H42.5759ZM38.7894 101.565C38.4752 101.565 38.2215 101.309 38.2215 100.997C38.2215 100.683 38.4752 100.429 38.7894 100.429C39.1018 100.429 39.3574 100.683 39.3574 100.997C39.3574 101.309 39.1018 101.565 38.7894 101.565Z" fill="white"/>
<path d="M66.2382 93.5095H37.3819C37.2324 93.5095 37.0847 93.4491 36.9787 93.3447C36.8745 93.2387 36.814 93.0911 36.814 92.9415V88.9146C36.814 88.767 36.8745 88.6191 36.9787 88.5133C37.0847 88.4071 37.2324 88.3467 37.3819 88.3467H66.2382C66.3878 88.3467 66.5355 88.4071 66.6396 88.5133C66.7456 88.6193 66.8062 88.7651 66.8062 88.9146V92.9415C66.8062 93.095 66.7473 93.237 66.6396 93.3447C66.5336 93.4508 66.3897 93.5095 66.2382 93.5095ZM37.9499 89.4826V92.3752L65.6703 92.3733V89.4824H37.9499V89.4826Z" fill="white"/>
<path d="M65.3074 89.4824H51.0989C50.7865 89.4824 50.531 89.2288 50.531 88.9145C50.531 88.6021 50.7865 88.3465 51.0989 88.3465H64.6505L63.6757 81.5707C63.6549 81.4193 63.6927 81.2697 63.7834 81.1485C65.0102 79.5147 65.584 77.7767 65.5876 75.6791C65.5933 72.8525 64.5085 69.7893 63.1984 66.3645C63.1077 66.124 63.0148 65.8836 62.9239 65.6413C61.7673 62.6199 60.5706 59.494 60.0237 56.183H43.6056C43.0585 59.4904 41.8639 62.6123 40.709 65.632C40.6162 65.8762 40.5216 66.1204 40.4307 66.3628C39.1206 69.7857 38.0377 72.8508 38.0415 75.6793C38.0452 77.7769 38.6189 79.5149 39.8457 81.1487C39.9366 81.2701 39.9763 81.4197 39.9536 81.5709L38.9786 88.3467H43.5261C43.8404 88.3467 44.094 88.6023 44.094 88.9147C44.094 89.2289 43.8404 89.4826 43.5261 89.4826H38.3235C38.1569 89.4826 38.0017 89.4126 37.8938 89.2876C37.7859 89.1627 37.7367 88.998 37.7613 88.8352L38.7969 81.641C38.1437 80.736 37.6534 79.7553 37.341 78.7271C37.0494 77.773 36.9036 76.7468 36.9055 75.6791C36.9093 72.6613 37.9752 69.6189 39.3686 65.9574C39.4462 65.753 39.5257 65.5485 39.6034 65.344C40.8188 62.1729 42.074 58.8939 42.5568 55.5334C42.5984 55.2513 42.8351 55.0469 43.119 55.0469H60.5101C60.7903 55.0469 61.0328 55.2551 61.0725 55.5334C61.5553 58.8958 62.8122 62.1748 64.0259 65.3478C64.1054 65.5523 64.1831 65.7568 64.2607 65.9593C65.6539 69.6208 66.72 72.6632 66.7238 75.6791C66.7256 76.7468 66.5799 77.773 66.2883 78.7271C65.9759 79.7553 65.4856 80.7358 64.8324 81.641L65.8699 88.8352C65.8926 88.9978 65.8432 89.1625 65.7355 89.2876C65.6291 89.4124 65.472 89.4824 65.3074 89.4824ZM47.3125 89.4824C47.0001 89.4824 46.7445 89.2288 46.7445 88.9145C46.7445 88.6021 47.0001 88.3465 47.3125 88.3465C47.6268 88.3465 47.8805 88.6021 47.8805 88.9145C47.8805 89.2288 47.6268 89.4824 47.3125 89.4824Z" fill="white"/>
<path d="M60.5615 56.1823H43.0606C42.9092 56.1823 42.7634 56.1217 42.6574 56.0157C42.5533 55.9097 42.4927 55.7639 42.4927 55.6143V51.5875C42.4927 51.4379 42.5514 51.2903 42.6574 51.1861C42.7634 51.0801 42.9092 51.0195 43.0606 51.0195H60.5615C60.711 51.0195 60.857 51.0801 60.9628 51.1861C61.0688 51.2903 61.1294 51.4379 61.1294 51.5875V55.6143C61.1294 55.7658 61.0707 55.9078 60.9628 56.0157C60.8568 56.1217 60.7148 56.1823 60.5615 56.1823ZM43.6267 52.1536V55.0464H59.9935V52.1536H43.6267Z" fill="white"/>
<path d="M61.1073 52.1559H42.516C41.0942 52.1541 39.9374 50.9954 39.9355 49.5736V47.5592C39.9355 47.4097 39.9961 47.2639 40.1003 47.1579C40.2063 47.0537 40.3539 46.9932 40.5035 46.9932H63.1218C63.2714 46.9932 63.4172 47.0537 63.5232 47.1579C63.6292 47.2639 63.6898 47.4097 63.6898 47.5592V49.5736C63.6858 50.9954 62.5293 52.1522 61.1073 52.1559ZM41.0717 48.1272V49.5736C41.0717 50.3688 41.721 51.0181 42.5162 51.02H61.1075C61.9026 51.0181 62.5522 50.3688 62.5541 49.5736V48.1272H41.0717Z" fill="#141517"/>
<path d="M68.1819 48.1268H35.4464C35.2968 48.1268 35.151 48.0662 35.045 47.9602C34.939 47.856 34.8784 47.7103 34.8784 47.5588V43.0189C34.8784 42.5039 34.9541 41.9966 35.1056 41.51C35.1794 41.2715 35.3991 41.1105 35.649 41.1105C35.7058 41.1105 35.7625 41.12 35.8175 41.137C36.056 41.2109 36.2169 41.4286 36.2169 41.6785C36.2169 41.7353 36.2075 41.7921 36.1904 41.847C36.073 42.2275 36.0143 42.6213 36.0143 43.0189V46.9908L67.612 46.9927V43.0189C67.608 40.8303 65.8248 39.0469 63.6363 39.0431H41.7867C41.4725 39.0431 41.2188 38.7876 41.2188 38.4752C41.2188 38.1609 41.4725 37.9072 41.7867 37.9072H63.6363C66.4533 37.9091 68.746 40.2018 68.7479 43.0189V47.5588C68.7479 47.7121 68.689 47.8541 68.5832 47.9621C68.4753 48.0681 68.3333 48.1268 68.1819 48.1268ZM38.0647 39.4729C37.8451 39.4729 37.6425 39.3442 37.5497 39.1473C37.4854 39.0091 37.4778 38.8557 37.5289 38.7118C37.58 38.5698 37.6842 38.4544 37.8205 38.39C37.8981 38.354 37.9795 38.337 38.0628 38.337C38.2824 38.337 38.485 38.4638 38.5777 38.6626C38.6421 38.7989 38.6497 38.9542 38.5986 39.0962C38.5475 39.2381 38.4433 39.3536 38.3051 39.418C38.2294 39.454 38.148 39.4729 38.0647 39.4729Z" fill="#141517"/>
<path d="M59.3222 39.0438H44.2977C44.114 39.0438 43.9398 38.9529 43.8338 38.8034L39.0383 32.037C38.9134 31.8629 38.8982 31.6376 38.9967 31.4482C39.0951 31.2589 39.2882 31.1396 39.5003 31.1396H49.7047C49.8542 31.1396 50 31.2002 50.106 31.3063C50.212 31.4123 50.2726 31.5599 50.2726 31.7076V33.5175H53.3529V31.7076C53.3529 31.558 53.4135 31.4123 53.5176 31.3063C53.6236 31.2002 53.7713 31.1396 53.9208 31.1396H64.1177C64.3316 31.1396 64.5247 31.2589 64.6231 31.4482C64.7197 31.6376 64.7045 31.8629 64.5815 32.037L59.786 38.8034C59.6781 38.9529 59.5056 39.0438 59.3222 39.0438ZM44.5911 37.9079H59.0287L63.0196 32.2756H54.4888V34.0855C54.4888 34.235 54.4282 34.3808 54.3222 34.4868C54.2162 34.5929 54.0704 34.6534 53.9208 34.6534H49.7047C49.5551 34.6534 49.4093 34.5929 49.3033 34.4868C49.1973 34.3808 49.1367 34.235 49.1367 34.0855V32.2756H40.6002L44.5911 37.9079Z" fill="white"/>
<path d="M53.9204 34.653H49.7042C49.5547 34.653 49.4089 34.5925 49.3029 34.4864C49.1968 34.3804 49.1363 34.2346 49.1363 34.0851V28.3127H45.7398C45.5903 28.3127 45.4445 28.2521 45.3385 28.1461C45.2325 28.0401 45.1719 27.8943 45.1719 27.7447V23.5286C45.1719 23.379 45.2325 23.2313 45.3385 23.1253C45.4426 23.0212 45.5903 22.9606 45.7398 22.9606H49.1363V19.568C49.1363 19.4203 49.1968 19.2726 49.3029 19.1666C49.407 19.0606 49.5547 19 49.7042 19H53.9204C54.07 19 54.2157 19.0606 54.3218 19.1666C54.4278 19.2726 54.4884 19.4203 54.4884 19.568V22.9606H57.8791C58.0287 22.9606 58.1746 23.0212 58.2805 23.1253C58.3867 23.2313 58.4471 23.379 58.4471 23.5286V27.7447C58.4471 27.8962 58.3884 28.0382 58.2805 28.1461C58.1725 28.2521 58.0305 28.3127 57.8791 28.3127H54.4884V34.0851C54.4884 34.2346 54.4278 34.3804 54.3218 34.4864C54.2157 34.5925 54.0681 34.653 53.9204 34.653ZM50.2722 33.5171H53.3524V27.7447C53.3524 27.5952 53.413 27.4475 53.5171 27.3415C53.6232 27.2374 53.7689 27.1768 53.9204 27.1768H57.3111V24.0965H53.9204C53.7708 24.0965 53.6232 24.0359 53.5171 23.9299C53.413 23.8239 53.3524 23.6781 53.3524 23.5286V20.1359H50.2722V23.5286C50.2722 23.6781 50.2116 23.8239 50.1056 23.9299C49.9996 24.0359 49.8538 24.0965 49.7042 24.0965H46.3078V27.1768H49.7042C49.8538 27.1768 49.9996 27.2374 50.1056 27.3415C50.2116 27.4475 50.2722 27.5952 50.2722 27.7447V33.5171Z" fill="white"/>
</svg>
