<svg width="121" height="121" viewBox="0 0 121 121" fill="none" xmlns="http://www.w3.org/2000/svg">
<path d="M60.3855 88.5344C58.0826 88.5344 55.793 88.2518 53.581 87.6942C53.2846 87.6195 53.1049 87.3186 53.1796 87.0221C53.2541 86.7256 53.555 86.5465 53.8515 86.6206C55.9753 87.1559 58.1737 87.4273 60.3856 87.4273C75.083 87.4273 87.0403 75.4712 87.0403 60.7752C87.0403 46.0778 75.083 34.1206 60.3856 34.1206C45.6881 34.1206 33.7309 46.0778 33.7309 60.7752C33.7309 69.7144 38.1799 78.0135 45.6319 82.9752C45.8863 83.1446 45.9553 83.4881 45.7857 83.7427C45.6164 83.9967 45.2728 84.0661 45.0182 83.8966C37.2572 78.729 32.6238 70.0856 32.6238 60.7752C32.6238 45.4675 45.0776 33.0137 60.3855 33.0137C75.6933 33.0137 88.1471 45.4673 88.1471 60.7752C88.1471 76.0817 75.6933 88.5344 60.3855 88.5344Z" fill="white"/>
<path d="M87.5936 61.3287H33.1773C32.8716 61.3287 32.6238 61.0809 32.6238 60.7752C32.6238 60.4695 32.8716 60.2217 33.1773 60.2217H87.5934C87.8992 60.2217 88.1469 60.4695 88.1469 60.7752C88.1469 61.0809 87.8993 61.3287 87.5936 61.3287Z" fill="white"/>
<path d="M60.3867 88.5343C60.081 88.5343 59.8333 88.2865 59.8333 87.9808V33.5672C59.8333 33.2615 60.081 33.0137 60.3867 33.0137C60.6924 33.0137 60.9402 33.2615 60.9402 33.5672V87.9808C60.9402 88.2865 60.6924 88.5343 60.3867 88.5343Z" fill="#FF4D40"/>
<path d="M64.7772 26.0808C64.6239 26.0808 64.4713 26.0173 64.3617 25.8934L60.3904 21.3876L56.4036 25.852C56.2 26.0801 55.8501 26.0998 55.6221 25.8963C55.3941 25.6926 55.3743 25.3428 55.5778 25.1148L59.9801 20.1849C60.0851 20.0672 60.2352 20 60.393 20C60.3935 20 60.3941 20 60.3948 20C60.5531 20.0006 60.7035 20.0688 60.8083 20.1874L65.1921 25.1611C65.3941 25.3904 65.3722 25.7402 65.1427 25.9422C65.0377 26.0352 64.9072 26.0808 64.7772 26.0808Z" fill="#FF4D40"/>
<path d="M93.1053 47.5057C93.0469 47.5057 92.9871 47.4963 92.9286 47.4766C92.6389 47.379 92.4832 47.065 92.5808 46.7753L94.4992 41.084L88.6391 39.8641C88.3398 39.8017 88.1478 39.5087 88.2099 39.2095C88.2723 38.9102 88.5643 38.7178 88.8647 38.7804L95.3359 40.1275C95.4909 40.1598 95.6246 40.2569 95.7034 40.3943C95.782 40.5318 95.7982 40.6962 95.7475 40.8463L93.6297 47.1292C93.552 47.3598 93.3365 47.5057 93.1053 47.5057Z" fill="#FF4D40"/>
<path d="M88.7162 82.7515C88.4581 82.7515 88.2271 82.57 88.1741 82.3073C88.1136 82.0076 88.3077 81.7158 88.6073 81.6554L94.4918 80.4695L92.6209 74.7874C92.5251 74.497 92.6832 74.1841 92.9734 74.0885C93.2631 73.9928 93.5767 74.1507 93.6723 74.4411L95.7383 80.7158C95.7879 80.8662 95.7706 81.0306 95.6909 81.1673C95.6114 81.304 95.477 81.4003 95.3219 81.4315L88.826 82.7405C88.7891 82.7478 88.7524 82.7515 88.7162 82.7515Z" fill="#FF4D40"/>
<path d="M60.3803 101.545C60.3797 101.545 60.3792 101.545 60.3786 101.545C60.2203 101.544 60.0698 101.476 59.9652 101.358L55.5817 96.3868C55.3795 96.1575 55.4015 95.8077 55.6308 95.6057C55.86 95.4035 56.21 95.4254 56.412 95.6547L60.3827 100.158L64.3673 95.6929C64.5709 95.4653 64.9206 95.445 65.1488 95.6487C65.3766 95.8523 65.3967 96.2021 65.1931 96.4302L60.7932 101.36C60.6882 101.478 60.5379 101.545 60.3803 101.545Z" fill="#FF4D40"/>
<path d="M32.0252 82.7768C31.9879 82.7768 31.9501 82.773 31.9121 82.7652L25.4409 81.4208C25.2859 81.3885 25.1522 81.2915 25.0734 81.1542C24.9946 81.0169 24.9784 80.8524 25.0289 80.7024L27.144 74.4194C27.2414 74.1295 27.5552 73.9731 27.8451 74.0714C28.1347 74.1688 28.2906 74.4826 28.193 74.7725L26.277 80.464L32.1372 81.6815C32.4364 81.7437 32.6287 82.0368 32.5665 82.3361C32.5123 82.597 32.282 82.7768 32.0252 82.7768Z" fill="#FF4D40"/>
<path d="M27.6297 47.4867C27.3974 47.4867 27.181 47.3393 27.104 47.1065L25.0325 40.8294C24.9829 40.679 25 40.5144 25.0798 40.3777C25.1595 40.2408 25.294 40.1445 25.4491 40.1133L31.948 38.8067C32.2489 38.7469 32.5395 38.9407 32.5996 39.2403C32.66 39.5401 32.4659 39.8318 32.1661 39.8919L26.2795 41.0753L28.1553 46.7596C28.2511 47.0498 28.0935 47.3629 27.8031 47.4587C27.7455 47.4777 27.687 47.4867 27.6297 47.4867Z" fill="#FF4D40"/>
<path d="M60.3867 34.1206C60.081 34.1206 59.8333 33.8728 59.8333 33.5671V20.5535C59.8333 20.2478 60.081 20 60.3867 20C60.6924 20 60.9402 20.2478 60.9402 20.5535V33.5671C60.9402 33.8728 60.6924 34.1206 60.3867 34.1206Z" fill="#FF4D40"/>
<path d="M83.948 47.7245C83.7567 47.7245 83.5707 47.6252 83.4681 47.4477C83.3152 47.183 83.4058 46.8444 83.6705 46.6915L94.9379 40.1817C95.2032 40.0288 95.5414 40.1196 95.6941 40.3841C95.8471 40.6489 95.7565 40.9874 95.4917 41.1404L84.2244 47.6501C84.1371 47.7005 84.0419 47.7245 83.948 47.7245Z" fill="#FF4D40"/>
<path d="M95.2143 81.4375C95.1204 81.4375 95.0253 81.4135 94.9381 81.3632L83.6707 74.8562C83.4058 74.7034 83.3152 74.3649 83.4681 74.1001C83.6211 73.8354 83.9593 73.7446 84.2242 73.8975L95.4916 80.4045C95.7565 80.5573 95.8471 80.8958 95.6941 81.1606C95.5916 81.3383 95.4056 81.4375 95.2143 81.4375Z" fill="#FF4D40"/>
<path d="M60.3867 101.545C60.081 101.545 59.8333 101.298 59.8333 100.992V87.9783C59.8333 87.6726 60.081 87.4248 60.3867 87.4248C60.6924 87.4248 60.9402 87.6726 60.9402 87.9783V100.992C60.9402 101.298 60.6924 101.545 60.3867 101.545Z" fill="#FF4D40"/>
<path d="M25.557 81.4375C25.3657 81.4375 25.1797 81.3383 25.0771 81.1606C24.9244 80.8958 25.015 80.5573 25.2797 80.4045L36.5475 73.8975C36.8128 73.7446 37.1508 73.8354 37.3037 74.1001C37.4565 74.3649 37.3659 74.7034 37.1011 74.8562L25.8334 81.3632C25.7461 81.4135 25.6509 81.4375 25.557 81.4375Z" fill="#FF4D40"/>
<path d="M36.8238 47.7244C36.7299 47.7244 36.6347 47.7005 36.5475 47.6503L25.2797 41.1433C25.015 40.9903 24.9244 40.6518 25.0771 40.387C25.2301 40.1225 25.5686 40.0319 25.8334 40.1844L37.1011 46.6914C37.3659 46.8444 37.4565 47.1829 37.3037 47.4477C37.2013 47.6252 37.0151 47.7244 36.8238 47.7244Z" fill="#FF4D40"/>
<path d="M60.4411 48.7329C53.1574 48.7329 45.7545 47.47 38.4377 44.9791C38.1484 44.8806 37.9937 44.5662 38.0922 44.2768C38.1907 43.9873 38.5053 43.8325 38.7946 43.9312C45.9962 46.3828 53.2792 47.6257 60.4411 47.6257C67.6027 47.6257 74.8491 46.383 81.9784 43.9318C82.2681 43.8319 82.5823 43.9862 82.6819 44.2751C82.7814 44.5642 82.6275 44.8791 82.3386 44.9786C75.0928 47.4698 67.7254 48.7329 60.4411 48.7329Z" fill="white"/>
<path d="M38.616 77.5404C38.3855 77.5404 38.1704 77.3954 38.0922 77.1651C37.9937 76.8758 38.1484 76.5615 38.4377 76.4627C45.7547 73.972 53.1578 72.709 60.4411 72.709C67.7254 72.709 75.0928 73.9722 82.3386 76.4633C82.6275 76.5627 82.7814 76.8775 82.6819 77.1668C82.5825 77.4555 82.2681 77.6096 81.9784 77.5101C74.8489 75.0589 67.6027 73.8161 60.4411 73.8161C53.2793 73.8161 45.9964 75.0591 38.7946 77.5107C38.7353 77.5308 38.6752 77.5404 38.616 77.5404Z" fill="white"/>
<path d="M60.3865 88.5343C57.0777 88.5343 53.9706 86.502 51.4008 82.6573C48.9711 79.0222 47.1823 73.8906 46.3636 68.2083C46.3201 67.9058 46.5301 67.6251 46.8326 67.5816C47.1345 67.5384 47.4156 67.7478 47.4594 68.0506C49.1027 79.4593 54.4186 87.4273 60.3865 87.4273C63.9063 87.4273 67.2455 84.7041 69.7884 79.7593C72.3914 74.6976 73.8252 67.9556 73.8252 60.7752C73.8252 53.5935 72.3914 46.8507 69.7884 41.7889C67.2455 36.844 63.9065 34.1206 60.3865 34.1206C53.3485 34.1206 47.4594 45.0253 46.9793 58.9466C46.9688 59.2521 46.7122 59.4913 46.407 59.4807C46.1015 59.4702 45.8624 59.2141 45.8729 58.9084C46.1127 51.9507 47.6941 45.4731 50.3253 40.6692C53.0293 35.7328 56.6026 33.0137 60.3861 33.0137C60.3863 33.0137 60.3859 33.0137 60.3861 33.0137C64.3415 33.0137 68.0303 35.9503 70.7725 41.2826C73.4547 46.4981 74.9318 53.4206 74.9318 60.7752C74.9318 68.1284 73.4547 75.0504 70.7725 80.2657C68.0307 85.5976 64.3419 88.5343 60.3865 88.5343Z" fill="white"/>
<path d="M78.5752 34.2468C76.1305 34.2468 74.1416 32.2564 74.1416 29.81C74.1416 27.3634 76.1305 25.373 78.5752 25.373C81.0218 25.373 83.0122 27.3634 83.0122 29.81C83.0122 32.2564 81.0218 34.2468 78.5752 34.2468ZM78.5752 26.48C76.741 26.48 75.2486 27.9739 75.2486 29.81C75.2486 31.6461 76.741 33.1398 78.5752 33.1398C80.4113 33.1398 81.9052 31.6461 81.9052 29.81C81.9052 27.9739 80.4113 26.48 78.5752 26.48Z" fill="#FF4D40"/>
<path d="M38.5948 93.953C36.1499 93.953 34.1606 91.9639 34.1606 89.5192C34.1606 87.0726 36.1499 85.082 38.5948 85.082C41.0398 85.082 43.0288 87.0726 43.0288 89.5192C43.0288 91.9637 41.0398 93.953 38.5948 93.953ZM38.5948 86.189C36.7602 86.189 35.2676 87.6829 35.2676 89.5192C35.2676 91.3536 36.7602 92.846 38.5948 92.846C40.4293 92.846 41.9218 91.3536 41.9218 89.5192C41.9218 87.6827 40.4293 86.189 38.5948 86.189Z" fill="#FF4D40"/>
</svg>
