<svg width="121" height="121" viewBox="0 0 121 121" fill="none" xmlns="http://www.w3.org/2000/svg">
<path d="M90.6814 100.879H30.9018C30.5675 100.879 30.2966 100.611 30.2966 100.279V59.5734C30.2966 59.2422 30.5675 58.9737 30.9018 58.9737C31.236 58.9737 31.5069 59.2422 31.5069 59.5734V99.6796H90.0763V54.5347C90.0763 54.2035 90.3472 53.935 90.6814 53.935C91.0156 53.935 91.2865 54.2035 91.2865 54.5347V100.279C91.2865 100.611 91.0156 100.879 90.6814 100.879ZM30.9018 50.1781C30.5675 50.1781 30.2966 49.9096 30.2966 49.5784V21.5997C30.2966 21.2685 30.5675 21 30.9018 21H73.053C73.2136 21 73.3675 21.0632 73.4808 21.1757L91.1092 38.6462C91.2228 38.7588 91.2865 38.9113 91.2865 39.0704V44.5535C91.2865 44.8847 91.0156 45.1532 90.6814 45.1532C90.3472 45.1532 90.0763 44.8847 90.0763 44.5535V39.3187L72.8023 22.1994H31.5069V49.5784C31.5069 49.9096 31.236 50.1781 30.9018 50.1781Z" fill="white"/>
<path d="M90.6853 39.6701C90.6841 39.6701 90.6825 39.6701 90.6812 39.6701H73.0529C72.7186 39.6701 72.4478 39.4016 72.4478 39.0704V21.5997C72.4478 21.3572 72.595 21.1385 72.8213 21.0457C73.0476 20.9528 73.3082 21.0042 73.4809 21.1757L91.0697 38.607C91.2047 38.7169 91.2906 38.8837 91.2906 39.0702C91.2904 39.4014 91.0197 39.6701 90.6853 39.6701ZM73.658 38.4707H89.2205L73.658 23.0475V38.4707Z" fill="white"/>
<path d="M27.1512 100.879H15.6051C15.2709 100.879 15 100.611 15 100.28V36.7823C15 36.4511 15.2709 36.1826 15.6051 36.1826H27.1512C27.4854 36.1826 27.7563 36.4511 27.7563 36.7823V76.7172C27.7563 77.0485 27.4854 77.3169 27.1512 77.3169C26.817 77.3169 26.5461 77.0485 26.5461 76.7172V37.382H16.2102V99.68H26.5461V86.7123C26.5461 86.381 26.817 86.1126 27.1512 86.1126C27.4854 86.1126 27.7563 86.381 27.7563 86.7123V100.28C27.7563 100.611 27.4854 100.879 27.1512 100.879Z" fill="white"/>
<path d="M22.8256 42.2707H15.6051C15.2709 42.2707 15 42.0022 15 41.671C15 41.3398 15.2709 41.0713 15.6051 41.0713H22.8256C23.1599 41.0713 23.4307 41.3398 23.4307 41.671C23.4307 42.0022 23.1596 42.2707 22.8256 42.2707Z" fill="white"/>
<path d="M20.8937 47.1603H15.6051C15.2709 47.1603 15 46.8919 15 46.5606C15 46.2294 15.2709 45.9609 15.6051 45.9609H20.8937C21.2279 45.9609 21.4988 46.2294 21.4988 46.5606C21.4988 46.8919 21.2277 47.1603 20.8937 47.1603Z" fill="white"/>
<path d="M22.8256 52.05H15.6051C15.2709 52.05 15 51.7815 15 51.4503C15 51.1191 15.2709 50.8506 15.6051 50.8506H22.8256C23.1599 50.8506 23.4307 51.1191 23.4307 51.4503C23.4307 51.7815 23.1596 52.05 22.8256 52.05Z" fill="white"/>
<path d="M20.8937 56.9396H15.6051C15.2709 56.9396 15 56.6712 15 56.3399C15 56.0087 15.2709 55.7402 15.6051 55.7402H20.8937C21.2279 55.7402 21.4988 56.0087 21.4988 56.3399C21.4988 56.6712 21.2277 56.9396 20.8937 56.9396Z" fill="white"/>
<path d="M22.8256 61.8293H15.6051C15.2709 61.8293 15 61.5608 15 61.2296C15 60.8983 15.2709 60.6299 15.6051 60.6299H22.8256C23.1599 60.6299 23.4307 60.8983 23.4307 61.2296C23.4307 61.5608 23.1596 61.8293 22.8256 61.8293Z" fill="white"/>
<path d="M20.8937 66.7189H15.6051C15.2709 66.7189 15 66.4505 15 66.1192C15 65.788 15.2709 65.5195 15.6051 65.5195H20.8937C21.2279 65.5195 21.4988 65.788 21.4988 66.1192C21.4988 66.4505 21.2277 66.7189 20.8937 66.7189Z" fill="white"/>
<path d="M22.8256 71.6086H15.6051C15.2709 71.6086 15 71.3401 15 71.0089C15 70.6776 15.2709 70.4092 15.6051 70.4092H22.8256C23.1599 70.4092 23.4307 70.6776 23.4307 71.0089C23.4307 71.3401 23.1596 71.6086 22.8256 71.6086Z" fill="white"/>
<path d="M20.8937 76.4982H15.6051C15.2709 76.4982 15 76.2298 15 75.8985C15 75.5673 15.2709 75.2988 15.6051 75.2988H20.8937C21.2279 75.2988 21.4988 75.5673 21.4988 75.8985C21.4988 76.2298 21.2277 76.4982 20.8937 76.4982Z" fill="white"/>
<path d="M22.8256 81.3879H15.6051C15.2709 81.3879 15 81.1194 15 80.7882C15 80.4569 15.2709 80.1885 15.6051 80.1885H22.8256C23.1599 80.1885 23.4307 80.4569 23.4307 80.7882C23.4307 81.1194 23.1596 81.3879 22.8256 81.3879Z" fill="white"/>
<path d="M20.8937 86.2775H15.6051C15.2709 86.2775 15 86.0091 15 85.6778C15 85.3466 15.2709 85.0781 15.6051 85.0781H20.8937C21.2279 85.0781 21.4988 85.3466 21.4988 85.6778C21.4988 86.0091 21.2277 86.2775 20.8937 86.2775Z" fill="white"/>
<path d="M22.8256 91.1672H15.6051C15.2709 91.1672 15 90.8987 15 90.5675C15 90.2362 15.2709 89.9678 15.6051 89.9678H22.8256C23.1599 89.9678 23.4307 90.2362 23.4307 90.5675C23.4307 90.8987 23.1596 91.1672 22.8256 91.1672Z" fill="white"/>
<path d="M20.8937 96.0558H15.6051C15.2709 96.0558 15 95.7874 15 95.4561C15 95.1249 15.2709 94.8564 15.6051 94.8564H20.8937C21.2279 94.8564 21.4988 95.1249 21.4988 95.4561C21.4988 95.7874 21.2277 96.0558 20.8937 96.0558Z" fill="white"/>
<path d="M97.1527 89.2522C96.8185 89.2522 96.5476 88.9837 96.5476 88.6525V57.9981C96.5476 57.6669 96.8185 57.3984 97.1527 57.3984C97.487 57.3984 97.7578 57.6669 97.7578 57.9981V88.6525C97.7578 88.9837 97.487 89.2522 97.1527 89.2522Z" fill="#FF4D40"/>
<path d="M97.1527 100.879C96.9191 100.879 96.7061 100.745 96.6061 100.536L93.1198 93.2574C93.0812 93.1772 93.0613 93.0892 93.0613 93.0003V54.213C93.0613 53.8817 93.3322 53.6133 93.6664 53.6133H100.639C100.973 53.6133 101.244 53.8817 101.244 54.213V93.0003C101.244 93.2152 101.13 93.4039 100.958 93.5096C100.973 93.62 100.956 93.7355 100.905 93.8435L97.6991 100.536C97.5993 100.745 97.3863 100.879 97.1527 100.879ZM94.2715 92.8651L97.1527 98.8806L99.8116 93.3291C99.8632 93.2212 99.9433 93.1354 100.039 93.0768C100.035 93.0517 100.034 93.0261 100.034 93.0001V54.8127H94.2717V92.8651H94.2715Z" fill="#FF4D40"/>
<path d="M100.639 54.813H93.6664C93.3322 54.813 93.0613 54.5446 93.0613 54.2133V51.3556C93.0613 51.0243 93.3322 50.7559 93.6664 50.7559H100.639C100.973 50.7559 101.244 51.0243 101.244 51.3556V54.2133C101.244 54.5446 100.973 54.813 100.639 54.813ZM94.2715 53.6136H100.034V51.9553H94.2715V53.6136Z" fill="#FF4D40"/>
<path d="M100.639 51.9555H93.6664C93.3322 51.9555 93.0613 51.687 93.0613 51.3558V45.1655C93.0613 44.3855 93.6991 43.751 94.4831 43.751H99.3773C100.407 43.751 101.244 44.5836 101.244 45.6067V51.3558C101.244 51.6868 100.973 51.9555 100.639 51.9555ZM94.2715 50.7561H100.034V45.6067C100.034 45.2446 99.7392 44.9504 99.3771 44.9504H94.4831C94.3685 44.9504 94.2715 45.0489 94.2715 45.1655V50.7561Z" fill="#FF4D40"/>
<path d="M97.1527 100.879C96.9191 100.879 96.7061 100.746 96.6061 100.537L93.1198 93.2581C93.0812 93.1779 93.0613 93.09 93.0613 93.001V89.0382C93.0613 88.7069 93.3322 88.4385 93.6664 88.4385H100.639C100.973 88.4385 101.244 88.7069 101.244 89.0382V93.001C101.244 93.09 101.224 93.1779 101.185 93.2581L97.6993 100.537C97.5993 100.746 97.3863 100.879 97.1527 100.879ZM94.2715 92.8659L97.1527 98.8813L100.034 92.8659V89.6379H94.2715V92.8659Z" fill="#FF4D40"/>
<path d="M104.547 66.3676C104.213 66.3676 103.942 66.0991 103.942 65.7679V51.6037H100.639C100.305 51.6037 100.034 51.3352 100.034 51.004C100.034 50.6728 100.305 50.4043 100.639 50.4043H104.547C104.882 50.4043 105.153 50.6728 105.153 51.004V65.7679C105.153 66.0991 104.882 66.3676 104.547 66.3676Z" fill="#FF4D40"/>
<path d="M53.8981 56.4428H46.796C46.4618 56.4428 46.1909 56.1743 46.1909 55.8431V48.8048C46.1909 48.4735 46.4618 48.2051 46.796 48.2051H53.8981C54.2324 48.2051 54.5033 48.4735 54.5033 48.8048V55.8431C54.5033 56.1743 54.2322 56.4428 53.8981 56.4428ZM47.4012 55.2434H53.293V49.4045H47.4012V55.2434Z" fill="#FF4D40"/>
<path d="M74.6634 51.1633H57.1535C56.8192 51.1633 56.5483 50.8948 56.5483 50.5636C56.5483 50.2323 56.8192 49.9639 57.1535 49.9639H74.6634C74.9977 49.9639 75.2685 50.2323 75.2685 50.5636C75.2685 50.8948 74.9977 51.1633 74.6634 51.1633Z" fill="#FF4D40"/>
<path d="M74.7875 54.6848H57.1535C56.8192 54.6848 56.5483 54.4163 56.5483 54.0851C56.5483 53.7538 56.8192 53.4854 57.1535 53.4854H74.7875C75.1217 53.4854 75.3926 53.7538 75.3926 54.0851C75.3926 54.4163 75.1217 54.6848 74.7875 54.6848Z" fill="#FF4D40"/>
<path d="M53.8981 67.5896H46.796C46.4618 67.5896 46.1909 67.3212 46.1909 66.9899V59.9513C46.1909 59.62 46.4618 59.3516 46.796 59.3516H53.8981C54.2324 59.3516 54.5033 59.62 54.5033 59.9513V66.9899C54.5033 67.3212 54.2322 67.5896 53.8981 67.5896ZM47.4012 66.3902H53.293V60.551H47.4012V66.3902Z" fill="#FF4D40"/>
<path d="M74.6634 62.3098H57.1535C56.8192 62.3098 56.5483 62.0413 56.5483 61.7101C56.5483 61.3788 56.8192 61.1104 57.1535 61.1104H74.6634C74.9977 61.1104 75.2685 61.3788 75.2685 61.7101C75.2685 62.0413 74.9977 62.3098 74.6634 62.3098Z" fill="#FF4D40"/>
<path d="M74.7875 65.8312H57.1535C56.8192 65.8312 56.5483 65.5628 56.5483 65.2315C56.5483 64.9003 56.8192 64.6318 57.1535 64.6318H74.7875C75.1217 64.6318 75.3926 64.9003 75.3926 65.2315C75.3926 65.5628 75.1217 65.8312 74.7875 65.8312Z" fill="#FF4D40"/>
<path d="M53.8981 78.7357H46.796C46.4618 78.7357 46.1909 78.4673 46.1909 78.136V71.0977C46.1909 70.7665 46.4618 70.498 46.796 70.498H53.8981C54.2324 70.498 54.5033 70.7665 54.5033 71.0977V78.136C54.5033 78.4673 54.2322 78.7357 53.8981 78.7357ZM47.4012 77.5363H53.293V71.6974H47.4012V77.5363Z" fill="#FF4D40"/>
<path d="M74.6634 73.4562H57.1535C56.8192 73.4562 56.5483 73.1878 56.5483 72.8565C56.5483 72.5253 56.8192 72.2568 57.1535 72.2568H74.6634C74.9977 72.2568 75.2685 72.5253 75.2685 72.8565C75.2685 73.1878 74.9977 73.4562 74.6634 73.4562Z" fill="#FF4D40"/>
<path d="M74.7875 76.9728H57.1535C56.8192 76.9728 56.5483 76.7044 56.5483 76.3731C56.5483 76.0419 56.8192 75.7734 57.1535 75.7734H74.7875C75.1217 75.7734 75.3926 76.0419 75.3926 76.3731C75.3926 76.7044 75.1217 76.9728 74.7875 76.9728Z" fill="#FF4D40"/>
<path d="M53.8981 89.8773H46.796C46.4618 89.8773 46.1909 89.6089 46.1909 89.2776V82.2393C46.1909 81.9081 46.4618 81.6396 46.796 81.6396H53.8981C54.2324 81.6396 54.5033 81.9081 54.5033 82.2393V89.2776C54.5033 89.6089 54.2322 89.8773 53.8981 89.8773ZM47.4012 88.6779H53.293V82.8391H47.4012V88.6779Z" fill="#FF4D40"/>
<path d="M74.6634 84.5969H57.1535C56.8192 84.5969 56.5483 84.3284 56.5483 83.9972C56.5483 83.6659 56.8192 83.3975 57.1535 83.3975H74.6634C74.9977 83.3975 75.2685 83.6659 75.2685 83.9972C75.2685 84.3284 74.9977 84.5969 74.6634 84.5969Z" fill="#FF4D40"/>
<path d="M74.7875 88.1184H57.1535C56.8192 88.1184 56.5483 87.8499 56.5483 87.5187C56.5483 87.1874 56.8192 86.9189 57.1535 86.9189H74.7875C75.1217 86.9189 75.3926 87.1874 75.3926 87.5187C75.3926 87.8499 75.1217 88.1184 74.7875 88.1184Z" fill="#FF4D40"/>
<path d="M67.5276 41.1933H35.1769C34.8427 41.1933 34.5718 40.9248 34.5718 40.5936V27.6944C34.5718 27.3632 34.8427 27.0947 35.1769 27.0947H67.5276C67.8619 27.0947 68.1328 27.3632 68.1328 27.6944V40.5934C68.1328 40.9246 67.8619 41.1933 67.5276 41.1933ZM35.782 39.9939H66.9225V28.2941H35.782V39.9939Z" fill="white"/>
</svg>
