<svg width="121" height="121" viewBox="0 0 121 121" fill="none" xmlns="http://www.w3.org/2000/svg">
<path d="M47.6038 72.2771H37.4358C34.6047 72.2771 32.3012 69.9749 32.3012 67.1452V60.1615C27.664 56.8498 24.905 51.5096 24.905 45.8112C24.905 44.8798 24.9785 43.945 25.1233 43.0325C25.176 42.7007 25.4885 42.475 25.8195 42.5269C26.1514 42.5797 26.3777 42.8912 26.3252 43.2232C26.1903 44.0728 26.1222 44.9435 26.1222 45.8112C26.1222 51.2161 28.7884 56.2748 33.2545 59.3435C33.4196 59.4571 33.5184 59.6445 33.5184 59.8451V67.1454C33.5184 69.3042 35.276 71.0604 37.436 71.0604H47.604C49.764 71.0604 51.5212 69.3042 51.5212 67.1454V59.8451C51.5212 59.6447 51.62 59.4569 51.7853 59.3435C56.2512 56.2769 58.9175 51.2181 58.9175 45.8114C58.9175 36.7719 51.561 29.4177 42.5185 29.4177C37.9486 29.4177 33.7064 31.2516 30.5736 34.5811C30.3432 34.8259 29.9581 34.8374 29.7135 34.6072C29.4687 34.377 29.4569 33.9919 29.6873 33.7471C33.0038 30.2223 37.6804 28.2006 42.5185 28.2006C52.2319 28.2006 60.1344 36.1006 60.1344 45.8112C60.1344 51.5116 57.3756 56.8519 52.7382 60.1617V67.1454C52.7379 69.9751 50.4347 72.2771 47.6038 72.2771Z" fill="white"/>
<path d="M42.5191 72.2771C42.183 72.2771 41.9106 72.0048 41.9106 71.6687V45.8492C41.9106 45.6179 42.0417 45.4066 42.2489 45.304L51.0832 40.9279C51.3841 40.7791 51.7492 40.9022 51.8985 41.2032C52.0476 41.5041 51.9244 41.8692 51.6233 42.0185L43.1276 46.227V71.6689C43.1276 72.0048 42.8552 72.2771 42.5191 72.2771Z" fill="#FF4D40"/>
<path d="M42.5189 72.0483C42.1829 72.0483 41.9105 71.7759 41.9105 71.4398V46.2271L33.4201 42.0186C33.1191 41.8693 32.996 41.5043 33.1452 41.2031C33.2943 40.9023 33.6594 40.7788 33.9608 40.9283L42.7893 45.3043C42.9964 45.4069 43.1274 45.6182 43.1274 45.8495V71.4398C43.1274 71.7761 42.855 72.0483 42.5189 72.0483Z" fill="#FF4D40"/>
<path d="M53.2346 27.9013C53.1314 27.9013 53.0267 27.875 52.931 27.8198C52.6399 27.6517 52.5404 27.2795 52.7083 26.9886L55.3549 22.4053C55.5228 22.1143 55.8952 22.0149 56.186 22.1826C56.4771 22.3508 56.5767 22.7229 56.4087 23.0138L53.7621 27.5971C53.6496 27.7922 53.4449 27.9013 53.2346 27.9013Z" fill="#FF4D40"/>
<path d="M61.0762 35.7472C60.8658 35.7472 60.6614 35.6381 60.5486 35.443C60.3807 35.152 60.4803 34.7798 60.7713 34.6119L65.3544 31.9657C65.6459 31.7979 66.0177 31.8975 66.1856 32.1884C66.3537 32.4794 66.2539 32.8516 65.9629 33.0195L61.3798 35.6657C61.2839 35.7211 61.1792 35.7472 61.0762 35.7472Z" fill="#FF4D40"/>
<path d="M69.2381 46.4581H63.9454C63.6093 46.4581 63.3369 46.1857 63.3369 45.8497C63.3369 45.5136 63.6093 45.2412 63.9454 45.2412H69.2381C69.5742 45.2412 69.8466 45.5136 69.8466 45.8497C69.8466 46.1857 69.5742 46.4581 69.2381 46.4581Z" fill="#FF4D40"/>
<path d="M32.6151 27.9014C32.4048 27.9014 32.2004 27.7923 32.0876 27.5972L29.4412 23.0138C29.2733 22.7228 29.3729 22.3506 29.6639 22.1827C29.955 22.0147 30.3271 22.1145 30.4951 22.4054L33.1414 26.9887C33.3094 27.2797 33.2098 27.6519 32.9188 27.8198C32.823 27.875 32.7184 27.9014 32.6151 27.9014Z" fill="#FF4D40"/>
<path d="M24.7705 35.7473C24.6673 35.7473 24.5628 35.7212 24.4669 35.6658L19.8831 33.0196C19.5921 32.8515 19.4925 32.4795 19.6604 32.1885C19.8286 31.8976 20.2006 31.7978 20.4916 31.9658L25.0753 34.6119C25.3664 34.7801 25.466 35.1521 25.298 35.4431C25.1853 35.6382 24.9808 35.7473 24.7705 35.7473Z" fill="#FF4D40"/>
<path d="M21.9019 46.4581H16.6089C16.2729 46.4581 16.0005 46.1857 16.0005 45.8497C16.0005 45.5136 16.2729 45.2412 16.6089 45.2412H21.9019C22.238 45.2412 22.5104 45.5136 22.5104 45.8497C22.5104 46.1857 22.238 46.4581 21.9019 46.4581Z" fill="#FF4D40"/>
<path d="M42.4923 23.8524C42.4894 23.8524 42.4868 23.8524 42.4839 23.8524C42.1479 23.8479 41.8791 23.5721 41.8836 23.236L41.9434 18.7235C41.9477 18.39 42.2193 18.1231 42.5517 18.1231C42.5545 18.1231 42.5572 18.1231 42.56 18.1231C42.8961 18.1276 43.1648 18.4034 43.1604 18.7395L43.1005 23.252C43.0961 23.5854 42.8245 23.8524 42.4923 23.8524Z" fill="#FF4D40"/>
<path d="M49.4506 75.8681H35.5887C35.2526 75.8681 34.9802 75.5958 34.9802 75.2597V71.6694C34.9802 71.3333 35.2526 71.0609 35.5887 71.0609H49.4506C49.7867 71.0609 50.059 71.3333 50.059 71.6694V75.2597C50.059 75.596 49.7867 75.8681 49.4506 75.8681ZM36.1971 74.6512H48.8421V72.2778H36.1971V74.6512Z" fill="white"/>
<path d="M47.4631 79.4579H37.5811C37.245 79.4579 36.9727 79.1855 36.9727 78.8494V75.2591C36.9727 74.923 37.245 74.6506 37.5811 74.6506H47.4631C47.7992 74.6506 48.0716 74.923 48.0716 75.2591V78.8494C48.0716 79.1855 47.7992 79.4579 47.4631 79.4579ZM38.1898 78.2409H46.8548V75.8676H38.1898V78.2409Z" fill="white"/>
<path d="M45.4702 83.0487H39.5692C39.2331 83.0487 38.9607 82.7763 38.9607 82.4402V78.8499C38.9607 78.5138 39.2331 78.2415 39.5692 78.2415H45.4702C45.8063 78.2415 46.0786 78.5138 46.0786 78.8499V82.4402C46.0786 82.7763 45.8063 83.0487 45.4702 83.0487ZM40.1776 81.8318H44.8617V79.4584H40.1776V81.8318Z" fill="white"/>
<path d="M44.993 52.4116H40.0467C39.7106 52.4116 39.4382 52.1392 39.4382 51.8031C39.4382 51.467 39.7106 51.1946 40.0467 51.1946H44.993C45.3291 51.1946 45.6015 51.467 45.6015 51.8031C45.6015 52.1392 45.3289 52.4116 44.993 52.4116Z" fill="#FF4D40"/>
<path d="M100.091 101.233C99.9866 101.233 99.8807 101.206 99.784 101.15C99.494 100.98 99.3968 100.607 99.5666 100.317L102.829 94.7484V51.009H94.2631V94.7484L95.4932 96.8504C95.6629 97.1407 95.5654 97.5132 95.2755 97.6828C94.9853 97.853 94.6125 97.755 94.4432 97.4652L93.1295 95.2208C93.0747 95.1275 93.0461 95.0214 93.0461 94.9133V50.4005C93.0461 50.0644 93.3185 49.7921 93.6546 49.7921H103.438C103.774 49.7921 104.046 50.0644 104.046 50.4005V94.9135C104.046 95.0216 104.017 95.1279 103.963 95.2212L100.617 100.932C100.503 101.126 100.3 101.233 100.091 101.233Z" fill="#FF4D40"/>
<path d="M103.438 51.0088H93.6546C93.3185 51.0088 93.0461 50.7364 93.0461 50.4004V47.121C93.0461 46.7849 93.3185 46.5125 93.6546 46.5125H103.438C103.774 46.5125 104.046 46.7849 104.046 47.121V50.4004C104.046 50.7364 103.774 51.0088 103.438 51.0088ZM94.2631 49.7919H102.829V47.7294H94.2631V49.7919Z" fill="#FF4D40"/>
<path d="M103.438 47.7292H93.6546C93.3185 47.7292 93.0461 47.4568 93.0461 47.1208V43.1047C93.0461 40.5518 95.1218 38.475 97.6733 38.475H99.4163C101.969 38.475 104.046 40.5518 104.046 43.1047V47.1208C104.046 47.4568 103.774 47.7292 103.438 47.7292ZM94.2631 46.5123H102.829V43.1047C102.829 41.223 101.298 39.6919 99.4163 39.6919H97.6733C95.7929 39.6919 94.2631 41.223 94.2631 43.1047V46.5123Z" fill="#FF4D40"/>
<path d="M103.435 92.1711H93.6546C93.3185 92.1711 93.0461 91.8987 93.0461 91.5627C93.0461 91.2266 93.3185 90.9542 93.6546 90.9542H103.435C103.771 90.9542 104.044 91.2266 104.044 91.5627C104.044 91.8987 103.771 92.1711 103.435 92.1711Z" fill="#FF4D40"/>
<path d="M99.9681 92.1716C99.632 92.1716 99.3596 91.8992 99.3596 91.5632V50.4005C99.3596 50.0644 99.632 49.7921 99.9681 49.7921C100.304 49.7921 100.577 50.0644 100.577 50.4005V91.5632C100.577 91.8992 100.304 92.1716 99.9681 92.1716Z" fill="#FF4D40"/>
<path d="M97.0213 92.1716C96.6852 92.1716 96.4128 91.8992 96.4128 91.5632V50.4005C96.4128 50.0644 96.6852 49.7921 97.0213 49.7921C97.3574 49.7921 97.6298 50.0644 97.6298 50.4005V91.5632C97.6298 91.8992 97.3574 92.1716 97.0213 92.1716Z" fill="#FF4D40"/>
<path d="M98.5452 103.701H82.7049C82.3689 103.701 82.0965 103.429 82.0965 103.093V88.4071H59.3876V99.148C59.3876 99.4841 59.1152 99.7564 58.7791 99.7564H42.5191C42.183 99.7564 41.9106 99.4841 41.9106 99.148V82.4407C41.9106 82.1047 42.183 81.8323 42.5191 81.8323C42.8552 81.8323 43.1276 82.1047 43.1276 82.4407V98.5395H58.1707V87.7986C58.1707 87.4625 58.4431 87.1902 58.7791 87.1902H82.7049C83.041 87.1902 83.3134 87.4625 83.3134 87.7986V102.485H98.5452C98.8812 102.485 99.1536 102.757 99.1536 103.093C99.1536 103.429 98.8814 103.701 98.5452 103.701Z" fill="white"/>
<path d="M85.0286 63.4488H80.8355C80.4994 63.4488 80.2271 63.1764 80.2271 62.8404V58.6497C80.2271 58.3136 80.4994 58.0413 80.8355 58.0413H85.0286C85.3647 58.0413 85.6371 58.3136 85.6371 58.6497V62.8404C85.6371 63.1764 85.3647 63.4488 85.0286 63.4488ZM81.444 62.2319H84.4201V59.2582H81.444V62.2319Z" fill="white"/>
<path d="M69.9865 63.4488H65.7906C65.4545 63.4488 65.1821 63.1764 65.1821 62.8404V58.6497C65.1821 58.3136 65.4545 58.0413 65.7906 58.0413H69.9865C70.3226 58.0413 70.595 58.3136 70.595 58.6497V62.8404C70.595 63.1764 70.3226 63.4488 69.9865 63.4488ZM66.399 62.2319H69.3781V59.2582H66.399V62.2319Z" fill="white"/>
<path d="M85.0286 76.8939H80.8355C80.4994 76.8939 80.2271 76.6216 80.2271 76.2855V72.095C80.2271 71.759 80.4994 71.4866 80.8355 71.4866H85.0286C85.3647 71.4866 85.6371 71.759 85.6371 72.095V76.2855C85.6371 76.6216 85.3647 76.8939 85.0286 76.8939ZM81.444 75.677H84.4201V72.7035H81.444V75.677Z" fill="white"/>
<path d="M69.9865 76.8939H65.7906C65.4545 76.8939 65.1821 76.6216 65.1821 76.2855V72.095C65.1821 71.759 65.4545 71.4866 65.7906 71.4866H69.9865C70.3226 71.4866 70.595 71.759 70.595 72.095V76.2855C70.595 76.6216 70.3226 76.8939 69.9865 76.8939ZM66.399 75.677H69.3781V72.7035H66.399V75.677Z" fill="white"/>
<path d="M80.8362 74.7983H69.9862C69.6501 74.7983 69.3777 74.5259 69.3777 74.1898V72.703H67.8882C67.5522 72.703 67.2798 72.4306 67.2798 72.0945V62.8406C67.2798 62.5046 67.5522 62.2322 67.8882 62.2322H69.3777V60.7451C69.3777 60.409 69.6501 60.1367 69.9862 60.1367H80.8362C81.1723 60.1367 81.4447 60.409 81.4447 60.7451V62.2322H82.9342C83.2703 62.2322 83.5427 62.5046 83.5427 62.8406V72.0945C83.5427 72.4306 83.2703 72.703 82.9342 72.703H81.4447V74.1898C81.4447 74.5259 81.1723 74.7983 80.8362 74.7983ZM70.5947 73.5814H80.2278V72.0945C80.2278 71.7584 80.5002 71.486 80.8362 71.486H82.3257V63.4491H80.8362C80.5002 63.4491 80.2278 63.1767 80.2278 62.8406V61.3536H70.5947V62.8406C70.5947 63.1767 70.3223 63.4491 69.9862 63.4491H68.4967V71.486H69.9862C70.3223 71.486 70.5947 71.7584 70.5947 72.0945V73.5814Z" fill="white"/>
<path d="M38.6615 96.7495C38.3254 96.7495 38.0531 96.4771 38.0531 96.1411V87.9267H35.95C35.6139 87.9267 35.3416 87.6543 35.3416 87.3182V81.0925C35.3416 80.7564 35.6139 80.484 35.95 80.484C36.2861 80.484 36.5585 80.7564 36.5585 81.0925V86.7098H38.6615C38.9976 86.7098 39.27 86.9821 39.27 87.3182V96.1411C39.27 96.4774 38.9976 96.7495 38.6615 96.7495Z" fill="white"/>
</svg>
