<svg width="121" height="121" viewBox="0 0 121 121" fill="none" xmlns="http://www.w3.org/2000/svg">
<path d="M51.8545 86.3023C51.5013 86.3023 51.2161 86.0171 51.2161 85.6639C51.2161 85.3128 51.5013 85.0255 51.8545 85.0255H91.6814V51.6677C91.6814 51.3166 91.9689 51.0293 92.3198 51.0293C92.6709 51.0293 92.9581 51.3144 92.9581 51.6655V51.6677C92.9581 51.6762 92.9581 51.6826 92.9581 51.6911V85.6639C92.9581 85.8341 92.8922 85.9959 92.773 86.1171C92.6519 86.2365 92.49 86.3023 92.3198 86.3023H51.8545ZM47.5986 86.3023C47.2454 86.3023 46.9602 86.0171 46.9602 85.6639C46.9602 85.3128 47.2454 85.0255 47.5986 85.0255C47.9497 85.0255 48.237 85.3128 48.237 85.6639C48.237 86.0171 47.9497 86.3023 47.5986 86.3023ZM43.3427 86.3023H32.488C32.3199 86.3023 32.156 86.2342 32.0369 86.1171C31.9177 85.9959 31.8496 85.832 31.8496 85.6639V28.5261C31.8496 28.358 31.9177 28.1921 32.0369 28.075C32.1539 27.9559 32.3199 27.8878 32.488 27.8878H92.3198C92.4879 27.8878 92.6538 27.9559 92.773 28.075C92.8903 28.1921 92.9581 28.358 92.9581 28.5261C92.9581 33.3247 92.9581 38.0253 92.9581 43.1601C92.9581 43.5133 92.673 43.8006 92.3198 43.8006C91.9689 43.8006 91.6814 43.5133 91.6814 43.1601V29.1645H33.1264V85.0255H43.3427C43.6938 85.0255 43.9811 85.3128 43.9811 85.6639C43.9811 86.0171 43.6938 86.3023 43.3427 86.3023ZM92.3198 48.0523C91.9689 48.0523 91.6814 47.7671 91.6814 47.4139C91.6814 47.0628 91.9689 46.7755 92.3198 46.7755C92.6709 46.7755 92.9581 47.0606 92.9581 47.4118V47.4139C92.9581 47.7671 92.673 48.0523 92.3198 48.0523Z" fill="white"/>
<path d="M31.7135 78.4395H28.2343C28.0662 78.4395 27.9024 78.3716 27.7832 78.2522C27.664 78.1331 27.5959 77.9692 27.5959 77.8011V24.6384C27.5959 24.4703 27.664 24.3064 27.7832 24.1873C27.9024 24.0681 28.0662 24 28.2343 24H86.3829C86.551 24 86.7148 24.0681 86.8338 24.1873C86.9532 24.3064 87.0213 24.4703 87.0213 24.6384V28.5262C87.0213 28.6964 86.9551 28.856 86.8338 28.9773C86.7127 29.0965 86.5531 29.1646 86.3829 29.1646H73.9386C73.5875 29.1646 73.3002 28.8773 73.3002 28.5262C73.3002 28.1729 73.5875 27.8878 73.9386 27.8878H85.7445V25.2768H28.8727V77.1627H31.7135C32.0647 77.1627 32.3519 77.4479 32.3519 77.8011C32.3519 78.1418 32.0859 78.4203 31.7455 78.4374C31.7348 78.4395 31.7242 78.4395 31.7135 78.4395ZM32.4881 74.9582C32.1349 74.9582 31.8497 74.6707 31.8497 74.3198C31.8497 73.9665 32.1349 73.6814 32.4881 73.6814C32.8392 73.6814 33.1265 73.9665 33.1265 74.3198C33.1265 74.6709 32.8392 74.9582 32.4881 74.9582ZM32.4881 70.7023C32.1349 70.7023 31.8497 70.4148 31.8497 70.0639V28.5262C31.8497 28.3581 31.9178 28.1921 32.037 28.075C32.154 27.9559 32.32 27.8878 32.4881 27.8878H65.4268C65.78 27.8878 66.0651 28.1729 66.0651 28.5262C66.0651 28.8773 65.78 29.1646 65.4268 29.1646H33.1265V70.0639C33.1265 70.415 32.8392 70.7023 32.4881 70.7023ZM69.6827 29.1646C69.3316 29.1646 69.0443 28.8773 69.0443 28.5262C69.0443 28.1729 69.3316 27.8878 69.6827 27.8878C70.0359 27.8878 70.3211 28.1729 70.3211 28.5262C70.3211 28.8773 70.0359 29.1646 69.6827 29.1646Z" fill="white"/>
<path d="M80.8736 77.1732C80.5204 77.1732 80.2352 76.888 80.2352 76.5348C80.2352 76.1839 80.5204 75.8964 80.8736 75.8964C81.2247 75.8964 81.512 76.1839 81.512 76.5348C81.512 76.8882 81.2247 77.1732 80.8736 77.1732ZM76.6177 77.1732H42.9641C42.796 77.1732 42.6321 77.1053 42.5129 76.9859C42.3938 76.8689 42.3257 76.7029 42.3257 76.5348V37.6551C42.3257 37.487 42.3938 37.321 42.5129 37.2019C42.6321 37.0848 42.796 37.0167 42.9641 37.0167H81.844C82.0121 37.0167 82.1778 37.0848 82.2972 37.2019C82.4143 37.321 82.4823 37.4849 82.4823 37.6551L82.4845 73.2516C82.4845 73.6027 82.1972 73.8899 81.844 73.8899C81.4928 73.8899 81.2077 73.6027 81.2077 73.2516V38.2935H43.6025V75.8964H76.6177C76.9688 75.8964 77.2561 76.1839 77.2561 76.5348C77.2561 76.884 76.9816 77.1647 76.6347 77.1732H76.6177Z" fill="white"/>
<path d="M62.405 71.8918C60.4068 71.8918 58.4683 71.5003 56.6446 70.7299C54.8827 69.9852 53.2995 68.9167 51.9397 67.5593C50.5821 66.1995 49.5138 64.6163 48.769 62.8544C47.9987 61.0309 47.6072 59.0922 47.6072 57.0961C47.6072 54.3809 48.3477 51.7273 49.75 49.4185C49.8671 49.2269 50.0714 49.112 50.2969 49.112C50.4118 49.112 50.5267 49.144 50.6267 49.2035C50.9268 49.3865 51.0247 49.7802 50.8417 50.0803C49.5606 52.1912 48.884 54.6149 48.884 57.0961C48.884 60.7073 50.2905 64.1014 52.8441 66.6549C55.3976 69.2085 58.7917 70.615 62.405 70.615C66.0163 70.615 69.4102 69.2085 71.9661 66.6549C74.5173 64.1014 75.9241 60.7073 75.9241 57.0961C75.9241 53.4829 74.5175 50.0866 71.9661 47.531C69.4102 44.9774 66.014 43.5687 62.405 43.5687C60.4622 43.5687 58.5874 43.973 56.8319 44.7667C56.8319 44.7667 56.8319 44.7689 56.8297 44.7689C56.7467 44.8072 56.6595 44.8263 56.568 44.8263C56.3169 44.8263 56.0892 44.6774 55.9849 44.4497C55.9488 44.3667 55.9275 44.2794 55.9275 44.1879C55.9275 43.9368 56.0743 43.7092 56.3041 43.6049C58.2257 42.7345 60.277 42.2919 62.405 42.2919C64.401 42.2919 66.3396 42.6835 68.1654 43.4559C69.9273 44.2007 71.5084 45.2689 72.8681 46.6287C74.2258 47.9885 75.294 49.5717 76.0388 51.3336C76.8112 53.1594 77.2007 55.098 77.2007 57.0961C77.2007 59.0922 76.8112 61.0307 76.0388 62.8544C75.294 64.6185 74.2256 66.1997 72.8681 67.5593C71.5084 68.9169 69.9275 69.9852 68.1634 70.7299C66.3396 71.5003 64.4008 71.8918 62.405 71.8918ZM53.0122 47.133C52.8292 47.133 52.6568 47.0564 52.5355 46.9181C52.4206 46.7926 52.3653 46.6287 52.3759 46.4585C52.3844 46.2882 52.461 46.1329 52.5866 46.0201C52.5866 46.018 52.5887 46.018 52.5887 46.018C52.8419 45.7924 53.2654 45.818 53.4888 46.0712C53.6038 46.1989 53.6591 46.3627 53.6484 46.533C53.6399 46.7032 53.5633 46.8607 53.4356 46.9734C53.3186 47.0756 53.1675 47.133 53.0122 47.133Z" fill="#141517"/>
<path d="M57.1212 64.5511C56.9786 64.5511 56.8445 64.504 56.7317 64.417C56.453 64.2019 56.4019 63.7999 56.619 63.5211L67.18 49.8831C67.3883 49.6128 67.8054 49.5596 68.0759 49.7703C68.2121 49.8746 68.2972 50.0235 68.3185 50.1938C68.34 50.3619 68.2953 50.53 68.1908 50.664L57.6276 64.3021C57.5063 64.4594 57.3212 64.5511 57.1212 64.5511Z" fill="#141517"/>
<path d="M92.8981 97.0295H27.9165C27.5639 97.0295 27.2781 96.7437 27.2781 96.3911C27.2781 96.0385 27.5639 95.7527 27.9165 95.7527H92.8981C93.2507 95.7527 93.5365 96.0385 93.5365 96.3911C93.5365 96.7437 93.2507 97.0295 92.8981 97.0295Z" fill="#141517"/>
<path d="M67.6865 64.5509C67.4864 64.5509 67.3013 64.4592 67.18 64.3019L56.619 50.6638C56.4019 50.3872 56.453 49.985 56.7317 49.7701C57.002 49.5594 57.4191 49.6126 57.6276 49.8829L68.1908 63.521C68.2951 63.655 68.3397 63.8231 68.3185 63.9934C68.2972 64.1615 68.2121 64.3126 68.0759 64.4168C67.9631 64.5039 67.829 64.5509 67.6865 64.5509Z" fill="#141517"/>
<path d="M85.887 43.3091C85.5337 43.3091 85.2463 43.0218 85.2463 42.6707V34.5079H75.2749C74.9216 34.5079 74.6365 34.2206 74.6365 33.8695C74.6365 33.5184 74.9216 33.2311 75.2749 33.2311H85.887C86.0527 33.2311 86.2189 33.2992 86.3381 33.4183C86.4551 33.5375 86.523 33.7014 86.523 33.8695L86.5254 42.6707C86.5254 43.0218 86.2381 43.3091 85.887 43.3091Z" fill="white"/>
<path d="M38.9187 43.3091C38.5654 43.3091 38.2803 43.0218 38.2803 42.6707V33.8695C38.2803 33.7014 38.3462 33.5375 38.4654 33.4183C38.5846 33.2992 38.7484 33.2311 38.9187 33.2311H49.5329C49.8861 33.2311 50.1713 33.5184 50.1713 33.8695C50.1713 34.2227 49.8861 34.5079 49.5329 34.5079H39.5549V42.6707C39.5549 43.0218 39.2698 43.3091 38.9187 43.3091Z" fill="white"/>
<path d="M85.8846 80.9547H75.2749C74.9216 80.9547 74.6365 80.6672 74.6365 80.3163C74.6365 79.9631 74.9216 79.678 75.2749 79.678H85.2486V71.5194C85.2486 71.1683 85.5337 70.881 85.8846 70.881C86.2379 70.881 86.523 71.1683 86.523 71.5194V80.3163C86.523 80.4866 86.4571 80.6462 86.3381 80.7675C86.2168 80.8885 86.0572 80.9547 85.8846 80.9547Z" fill="white"/>
<path d="M49.5329 80.9547H38.9187C38.7506 80.9547 38.5846 80.8866 38.4654 80.7675C38.3462 80.6481 38.2803 80.4844 38.2803 80.3163V71.5194C38.2803 71.1683 38.5654 70.881 38.9187 70.881C39.2698 70.881 39.5549 71.1683 39.5549 71.5194V79.678H49.5329C49.535 79.678 49.535 79.678 49.5372 79.678C49.8861 79.6801 50.1713 79.9652 50.1713 80.3163C50.1713 80.6672 49.8861 80.9547 49.5329 80.9547Z" fill="white"/>
</svg>
