<svg width="121" height="121" viewBox="0 0 121 121" fill="none" xmlns="http://www.w3.org/2000/svg">
<path d="M69.9794 91.151H24.714C23.5376 91.151 22.3972 90.921 21.3215 90.4668C20.2838 90.0276 19.3526 89.4006 18.5524 88.6005C17.7523 87.8003 17.1232 86.8691 16.6842 85.8314C16.23 84.7559 16 83.6134 16 82.4372C16 82.3194 16.0019 82.1977 16.0057 82.0778C16.019 81.7644 16.287 81.5173 16.5987 81.5325C16.7507 81.538 16.8914 81.6027 16.9959 81.715C17.0985 81.8271 17.1517 81.9733 17.146 82.1253C17.1403 82.2336 17.1384 82.338 17.1384 82.437C17.1403 84.4609 17.9272 86.3635 19.3583 87.7945C20.7894 89.2239 22.6918 90.0105 24.714 90.0105H69.9794C72.5582 90.0105 74.9358 88.7181 76.3405 86.5515C76.4469 86.3882 76.6256 86.2913 76.8194 86.2913C76.9297 86.2913 77.0363 86.3215 77.1292 86.3823C77.2946 86.4888 77.3917 86.6693 77.3896 86.8651C77.3896 86.9715 77.3573 87.0779 77.2986 87.1692V87.1713L77.2891 87.1844C76.5136 88.3779 75.4455 89.374 74.2007 90.0637C72.9155 90.7766 71.4561 91.151 69.9794 91.151ZM78.0776 83.8814C78.0586 83.8814 78.0377 83.8814 78.0168 83.8776C77.8647 83.8624 77.7298 83.7881 77.6348 83.6705C77.5378 83.5526 77.4941 83.4044 77.5114 83.2542C77.5114 83.2523 77.5114 83.2523 77.5114 83.2504C77.5437 82.9405 77.8248 82.7105 78.1386 82.7449C78.2906 82.762 78.4256 82.8359 78.5206 82.9539C78.6175 83.0718 78.6613 83.22 78.6442 83.3721C78.6136 83.6629 78.3703 83.8814 78.0776 83.8814ZM77.6082 80.1447C77.3725 80.1447 77.1577 79.9967 77.0739 79.7743C76.6883 78.7421 76.0647 77.7883 75.2741 77.0145C75.1316 76.8777 75.0726 76.68 75.1145 76.4881C75.2456 75.8759 75.3121 75.2354 75.3121 74.5875C75.3121 72.1946 74.3808 69.9464 72.6894 68.253C70.9979 66.5615 68.7495 65.6301 66.3584 65.6301C65.1763 65.6301 64.0343 65.8562 62.9603 66.301C62.7721 66.3789 62.5497 66.3466 62.3901 66.2211C62.2268 66.0938 62.1468 65.8866 62.1793 65.6833C62.2571 65.2043 62.2951 64.7199 62.2951 64.2465C62.2951 61.8537 61.364 59.6034 59.6723 57.91C57.9808 56.2205 55.7306 55.2892 53.3378 55.2892C50.2361 55.2892 47.3967 56.8609 45.7451 59.4932C45.6387 59.6604 45.4581 59.7612 45.2605 59.7612C45.1559 59.7612 45.0533 59.7327 44.9621 59.6776C43.778 58.9496 42.4115 58.5657 41.0089 58.5657C37.282 58.5657 34.1384 61.2303 33.5341 64.9022C33.4885 65.1852 33.2395 65.3868 32.9525 65.3792L32.8024 65.3735C30.7859 65.3792 28.8891 66.1679 27.4637 67.5933C26.0326 69.0264 25.2439 70.929 25.2439 72.9548C25.2439 73.3769 25.2781 73.7929 25.3465 74.1958C25.375 74.3612 25.3294 74.5303 25.2192 74.6577C25.1127 74.7852 24.9512 74.861 24.784 74.861H24.7136C23.1875 74.861 21.7165 75.3134 20.4583 76.1686C20.3633 76.2332 20.253 76.2676 20.139 76.2676C19.949 76.2676 19.7722 76.1745 19.6658 76.0185C19.6012 75.9234 19.5669 75.8132 19.5669 75.7011C19.5669 75.511 19.6601 75.3326 19.8159 75.2259L19.8273 75.2183C21.1064 74.3517 22.5964 73.8404 24.1378 73.7399C24.115 73.4795 24.1036 73.2152 24.1036 72.9548C24.1036 70.6781 24.974 68.5246 26.5553 66.8903C28.1308 65.2616 30.2423 64.3206 32.5021 64.2391C32.9259 62.3366 33.9959 60.6088 35.5182 59.3737C36.2785 58.756 37.128 58.2751 38.046 57.9425C38.9943 57.6004 39.9921 57.4256 41.0089 57.4256C42.4305 57.4256 43.8369 57.7734 45.0818 58.4329C45.9941 57.1386 47.2142 56.061 48.6111 55.3198C50.0574 54.5539 51.6919 54.149 53.3378 54.149C54.7024 54.149 56.0252 54.4151 57.27 54.9416C58.4712 55.4509 59.5507 56.1769 60.4781 57.1044C61.4056 58.0319 62.1335 59.1114 62.6429 60.3144C63.1674 61.5593 63.4354 62.8821 63.4354 64.2467C63.4354 64.4709 63.4278 64.7009 63.4126 64.9271C64.3591 64.638 65.3493 64.4897 66.3546 64.4897H66.3584C67.7211 64.4897 69.042 64.7577 70.2869 65.2844C71.4899 65.7918 72.5696 66.5197 73.4952 67.4472C74.4227 68.3747 75.1506 69.4542 75.6599 70.6572C76.1864 71.9021 76.4524 73.225 76.4524 74.5877C76.4524 75.2109 76.3973 75.8286 76.289 76.4216C77.1064 77.2787 77.7296 78.2708 78.142 79.375C78.1952 79.5176 78.1895 79.6717 78.1268 79.8102C78.0641 79.949 77.9501 80.0554 77.8075 80.1086C77.745 80.1335 77.6766 80.1447 77.6082 80.1447ZM17.5946 79.0464C17.4976 79.0464 17.4026 79.0217 17.3171 78.9742C17.0434 78.822 16.9446 78.4742 17.0966 78.1988C17.1973 78.0182 17.3893 77.9061 17.5965 77.9061C17.6915 77.9061 17.7884 77.9308 17.8739 77.9783C18.0051 78.0524 18.102 78.1739 18.1438 78.3204C18.1856 78.4668 18.1666 78.6207 18.0925 78.7537C17.9918 78.9341 17.8017 79.0464 17.5946 79.0464Z" fill="#FF4D40"/>
<path d="M69.4513 66.1478C69.1377 66.1478 68.8811 65.8931 68.8811 65.5795V33.0384C68.8811 31.191 68.1568 29.4501 66.8399 28.1349C65.5247 26.8198 63.7838 26.0957 61.9384 26.0957C60.0911 26.0957 58.3483 26.8198 57.0331 28.1349C55.716 29.4501 54.9919 31.191 54.9919 33.0384C54.9919 33.3519 54.7372 33.6085 54.4217 33.6085C54.1081 33.6085 53.8516 33.3519 53.8516 33.0384C53.8535 28.5835 57.4816 24.9572 61.9365 24.9553C66.3933 24.9572 70.0195 28.5835 70.0214 33.0384V65.5795C70.0214 65.8931 69.7647 66.1478 69.4513 66.1478Z" fill="white"/>
<path d="M37.5522 59.3339C37.2443 59.3339 36.9897 59.0849 36.984 58.777L36.9783 58.5071C36.9783 57.3611 37.1721 56.236 37.5541 55.1641C37.9247 54.1302 38.4626 53.1685 39.1506 52.3056C39.8348 51.4504 40.6482 50.7187 41.5681 50.1276C42.5051 49.5289 43.5276 49.0918 44.6052 48.8333C44.9093 48.7611 45.2209 48.9531 45.2932 49.2553C45.3293 49.4035 45.3046 49.5555 45.2247 49.6867C45.1449 49.8159 45.0195 49.9072 44.8712 49.9414C40.8991 50.8954 38.1224 54.4152 38.1186 58.4976L38.1224 58.7523C38.1262 58.9043 38.0692 59.0488 37.9647 59.159C37.8582 59.2692 37.7176 59.332 37.5655 59.3339C37.5598 59.3339 37.556 59.3339 37.5522 59.3339Z" fill="white"/>
<path d="M40.4123 52.1791C40.2127 52.1791 40.0246 52.0745 39.922 51.9035C38.9945 50.3621 38.5042 48.5927 38.5042 46.7853C38.5061 44.9209 39.0249 43.102 40.0075 41.5265C40.9635 39.9927 42.3166 38.7479 43.9207 37.9269C44.0024 37.885 44.0899 37.8641 44.1792 37.8641C44.3958 37.8641 44.5897 37.9839 44.6885 38.1739C44.757 38.3108 44.7703 38.4647 44.7227 38.6092C44.6752 38.7555 44.5764 38.8733 44.4396 38.9417C41.4823 40.4584 39.6445 43.4651 39.6445 46.7853C39.6464 48.3856 40.0797 49.9516 40.9007 51.3162C40.9007 51.3162 40.9007 51.3162 40.9007 51.3181C41.0623 51.5861 40.9749 51.9358 40.705 52.0973C40.6157 52.1525 40.5149 52.1791 40.4123 52.1791Z" fill="white"/>
<path d="M57.6371 44.2955C56.2934 44.2955 54.9915 44.0332 53.7637 43.5125C52.5797 43.0126 51.5154 42.2942 50.6012 41.38C49.6871 40.4659 48.9687 39.4016 48.4669 38.2175C47.9481 36.9898 47.6858 35.6879 47.6858 34.3442C47.6858 33.0005 47.9481 31.6968 48.4669 30.4709C48.9687 29.285 49.6871 28.2206 50.6012 27.3065C51.5154 26.3942 52.5797 25.6758 53.7637 25.1741C54.9915 24.6552 56.2934 24.3929 57.6371 24.3929C58.8325 24.3929 59.9975 24.6001 61.1016 25.0106C61.3963 25.1209 61.5484 25.4496 61.4381 25.7442C61.3317 26.0293 60.9934 26.1871 60.7045 26.0806C59.7258 25.7176 58.6938 25.5333 57.6371 25.5333C55.2842 25.5333 53.0719 26.4493 51.4071 28.1142C49.7422 29.7791 48.8261 31.9913 48.8261 34.3442C48.8261 36.6971 49.7422 38.9093 51.4071 40.5742C53.0719 42.2391 55.2842 43.1552 57.6371 43.1552C57.639 43.1552 57.639 43.1552 57.6409 43.1552C57.9525 43.1571 58.2072 43.4117 58.2072 43.7253C58.2072 44.0389 57.9525 44.2955 57.6371 44.2955Z" fill="white"/>
<path d="M48.8338 47.6174C48.773 47.6174 48.7121 47.6079 48.6551 47.5889C47.9158 47.3437 47.2202 46.9864 46.5873 46.5246C45.9639 46.0685 45.4166 45.5211 44.9586 44.8996C44.0083 43.6073 43.5046 42.0735 43.5046 40.4638C43.5046 39.006 43.9228 37.592 44.7134 36.3776C45.4831 35.1935 46.5664 34.2528 47.8436 33.656C47.9196 33.6218 48.0013 33.6028 48.085 33.6028C48.3054 33.6028 48.5088 33.732 48.6019 33.9316C48.6665 34.0703 48.6722 34.2243 48.6209 34.3687C48.5696 34.5112 48.4651 34.6253 48.3263 34.6899C46.0894 35.7352 44.645 38.0006 44.645 40.4638C44.645 43.212 46.3992 45.6409 49.0124 46.5056C49.1569 46.5531 49.2747 46.6538 49.3431 46.7907C49.4115 46.9275 49.4229 47.0815 49.3754 47.2259C49.2975 47.4597 49.0808 47.6174 48.8338 47.6174Z" fill="white"/>
<path d="M61.7462 48.8124C61.6472 48.8124 61.5486 48.7858 61.4611 48.7364C60.2182 48.0161 59.0702 47.0126 58.2283 45.9103C57.2476 44.6217 56.7288 43.2571 56.7269 41.9628C56.7231 41.2121 56.9017 40.4785 57.2552 39.781C57.6296 39.0436 58.1979 38.3632 58.941 37.7569C59.0436 37.6733 59.171 37.6277 59.3021 37.6277C59.4751 37.6277 59.6347 37.7037 59.7449 37.8367C59.9445 38.08 59.9084 38.4392 59.6651 38.6388C58.4621 39.6347 57.8748 40.7218 57.8672 41.9628C57.8653 43.0043 58.3024 44.1295 59.1349 45.2185C59.8761 46.1916 60.9309 47.1133 62.0332 47.7481C62.1643 47.826 62.2594 47.9477 62.2974 48.0959C62.3373 48.2422 62.3183 48.3962 62.2404 48.5273C62.1396 48.7041 61.9496 48.8124 61.7462 48.8124Z" fill="white"/>
<path d="M51.0106 50.1698C50.2694 50.1679 49.5719 49.879 49.0492 49.3563C48.5247 48.8337 48.2358 48.1362 48.2339 47.3931C48.2339 45.865 49.4806 44.6221 51.0106 44.6221C52.5386 44.6221 53.7816 45.865 53.7816 47.3931C53.7797 48.1362 53.4908 48.8318 52.9682 49.3563C52.4455 49.879 51.7499 50.1679 51.0106 50.1698ZM51.0106 45.7624C50.1097 45.7643 49.3761 46.496 49.3742 47.3931C49.3742 48.2958 50.1078 49.0294 51.0106 49.0294C51.9095 49.0294 52.6413 48.2958 52.6413 47.3931C52.6394 46.496 51.9076 45.7643 51.0106 45.7624Z" fill="#FF4D40"/>
<path d="M83.5056 83.0418H83.5035C82.1579 83.0418 80.8389 82.6845 79.691 82.0041C79.1987 82.1827 78.6932 82.312 78.1877 82.3882C77.8798 82.4317 77.5852 82.2131 77.5396 81.9073C77.5168 81.7572 77.5548 81.607 77.6462 81.4854C77.7355 81.3619 77.8686 81.282 78.0206 81.2592C78.5318 81.1832 79.0412 81.0426 79.537 80.843C79.7081 80.7748 79.9076 80.7936 80.0618 80.8926C81.0824 81.5538 82.274 81.9018 83.5056 81.9018C85.2045 81.9018 86.803 81.2406 88.0042 80.0374C89.2072 78.8343 89.8686 77.2379 89.8686 75.5388C89.8705 72.3837 87.5176 69.6754 84.395 69.2385C84.2449 69.2176 84.1119 69.1396 84.0187 69.018C83.9277 68.8964 83.8895 68.7462 83.9106 68.5961C83.9524 68.2901 84.2451 68.0658 84.5549 68.1094C86.33 68.3585 87.9626 69.2421 89.1504 70.5953C90.3479 71.9618 91.0091 73.7181 91.0091 75.5388C91.0091 77.542 90.2299 79.4273 88.8121 80.8451C87.3941 82.2605 85.5107 83.0418 83.5056 83.0418ZM69.451 66.1497C69.1374 66.1497 68.8809 65.8931 68.8809 65.5776V33.0365C68.8828 28.5835 72.5071 24.9572 76.962 24.9553C78.0493 24.9553 79.1058 25.1701 80.1019 25.592C81.0636 26.0006 81.9281 26.5841 82.6714 27.3272C83.4147 28.0703 83.998 28.9351 84.4066 29.8967C84.8305 30.8907 85.0452 31.9474 85.0452 33.0346V33.0365C85.0452 33.3519 84.7886 33.6085 84.475 33.6085C84.1615 33.6085 83.9049 33.3519 83.9049 33.0365C83.9049 31.191 83.1808 29.4501 81.8656 28.133C80.5504 26.8198 78.8097 26.0957 76.9622 26.0957C75.1167 26.0957 73.3739 26.8198 72.0588 28.133C70.7455 29.4501 70.0214 31.191 70.0214 33.0365V65.5776C70.0212 65.8931 69.7644 66.1497 69.451 66.1497Z" fill="white"/>
<path d="M90.1555 78.1284H90.1403C89.8269 78.1284 89.5702 77.8716 89.5702 77.5582C89.5702 77.2427 89.8269 76.988 90.1403 76.988C92.4535 76.984 94.4394 76.1043 95.8819 74.4451C97.2655 72.8486 98.0276 70.6288 98.0276 68.1959C98.0276 63.4978 94.352 59.632 89.6576 59.3945C89.5056 59.3869 89.3651 59.3203 89.2625 59.2063C89.1618 59.0942 89.1083 58.9478 89.1159 58.7958C89.1312 58.4822 89.3953 58.237 89.7146 58.2541C92.2671 58.3853 94.6484 59.4762 96.416 61.3292C98.1911 63.188 99.1678 65.6264 99.1678 68.1959C99.1678 70.9023 98.307 73.3865 96.7427 75.192C95.1086 77.085 92.7688 78.1284 90.1555 78.1284Z" fill="white"/>
<path d="M98.3845 65.9229C98.2268 65.9229 98.0746 65.8564 97.9683 65.7425C97.8638 65.6302 97.8087 65.4858 97.8144 65.3339C97.8182 65.1819 97.8826 65.0393 97.9947 64.9367C99.7624 63.2775 100.777 60.9339 100.779 58.5071C100.779 54.4191 98.0023 50.8973 94.0264 49.9433C93.7223 49.8691 93.5322 49.5613 93.6064 49.2553C93.6786 48.9531 93.9884 48.7611 94.2925 48.8333C95.372 49.0918 96.3945 49.5289 97.3294 50.1276C98.2494 50.7187 99.0627 51.4504 99.745 52.3056C100.435 53.1685 100.971 54.1302 101.341 55.1641C101.723 56.236 101.917 57.3611 101.917 58.5071C101.917 59.9078 101.632 61.261 101.072 62.5325C100.528 63.7584 99.7564 64.8476 98.7757 65.7655C98.7757 65.7674 98.7738 65.7674 98.7738 65.7693C98.6675 65.8678 98.529 65.9229 98.3845 65.9229Z" fill="white"/>
<path d="M98.4834 52.1791C98.3808 52.1791 98.2781 52.1506 98.1907 52.0973C98.0598 52.0194 97.9664 51.894 97.9303 51.7457C97.8944 51.5994 97.9172 51.4454 97.997 51.3143C98.8179 49.9554 99.2514 48.3894 99.2514 46.7853C99.2514 43.4631 97.4155 40.4584 94.4582 38.9417C94.3233 38.8733 94.2226 38.7555 94.175 38.6092C94.1275 38.4647 94.1408 38.3108 94.2112 38.1739C94.3081 37.9839 94.5036 37.8641 94.7186 37.8641C94.8096 37.8641 94.8971 37.885 94.9769 37.9269C96.5809 38.7479 97.9343 39.9927 98.8901 41.5265C99.8708 43.102 100.392 44.9209 100.392 46.7853C100.392 48.5965 99.9012 50.3659 98.9718 51.9035C98.8692 52.0764 98.6847 52.1791 98.4834 52.1791Z" fill="white"/>
<path d="M81.2623 44.2955C80.947 44.2955 80.6922 44.0408 80.6922 43.7253C80.6922 43.4117 80.947 43.1552 81.2623 43.1552C83.6133 43.1552 85.8237 42.2391 87.4887 40.5742C89.1536 38.9093 90.0697 36.6971 90.0697 34.3442C90.0697 31.9913 89.1536 29.7791 87.4887 28.1142C85.8237 26.4493 83.6133 25.5333 81.2623 25.5333C80.2075 25.5333 79.1738 25.7176 78.1912 26.0806C78.1264 26.1034 78.0601 26.1167 77.9915 26.1167C77.7539 26.1167 77.5392 25.9666 77.4574 25.7423C77.4042 25.5998 77.4099 25.4458 77.4745 25.3071C77.5373 25.1684 77.6513 25.0638 77.7938 25.0106C78.9058 24.6001 80.0707 24.3929 81.2623 24.3929C82.6043 24.3929 83.906 24.6552 85.1338 25.1741C86.3178 25.6758 87.3821 26.3942 88.2965 27.3084C89.2087 28.2206 89.9271 29.285 90.4289 30.4709C90.9475 31.6968 91.21 33.0005 91.21 34.3442C91.21 35.6879 90.9475 36.9898 90.4289 38.2175C89.9271 39.4016 89.2087 40.4659 88.2965 41.38C87.3821 42.2942 86.318 43.0126 85.1338 43.5144C83.9062 44.0332 82.6043 44.2955 81.2623 44.2955Z" fill="white"/>
<path d="M90.0661 47.6174C89.8191 47.6174 89.6005 47.4597 89.5245 47.2259C89.4255 46.9275 89.5872 46.6044 89.8854 46.5056C92.4986 45.6409 94.2547 43.212 94.2528 40.4638C94.2528 38.0006 92.8082 35.7352 90.5734 34.6899C90.4348 34.6253 90.3301 34.5112 90.2788 34.3687C90.2256 34.2243 90.2332 34.0703 90.2978 33.9316C90.3909 33.732 90.5926 33.6028 90.8149 33.6028C90.8984 33.6028 90.9782 33.6218 91.0544 33.656C92.3333 34.2528 93.4149 35.1935 94.1846 36.3776C94.9752 37.592 95.3934 39.006 95.3934 40.4638C95.3934 42.0735 94.8897 43.6073 93.9394 44.8996C93.4835 45.5211 92.9341 46.0685 92.3109 46.5246C91.6799 46.9845 90.986 47.3437 90.2469 47.587L90.245 47.5889C90.1859 47.6079 90.127 47.6174 90.0661 47.6174Z" fill="white"/>
<path d="M92.1779 64.6717C90.4789 64.6698 88.9736 64.1699 88.5517 64.0181C88.5422 64.0141 88.5365 64.0124 88.5346 64.0124C88.3921 63.9572 88.2778 63.8508 88.2151 63.7121C88.1545 63.5735 88.1486 63.4175 88.2037 63.2749C88.2871 63.0564 88.5002 62.9081 88.7359 62.9081C88.8062 62.9081 88.8727 62.9212 88.9392 62.946C88.9411 62.946 88.943 62.948 88.9506 62.9499C88.9601 62.9537 88.9753 62.9595 89 62.969L89.0076 62.9709C89.0496 62.9861 89.1143 63.007 89.1958 63.0336C89.3478 63.0832 89.5987 63.159 89.9161 63.2369C90.4635 63.3719 91.2997 63.5315 92.174 63.5315H92.1855C92.9741 63.5315 93.6585 63.4023 94.221 63.1459C94.8993 62.8359 95.3766 62.38 95.7244 61.7108C95.8232 61.5188 96.017 61.401 96.2318 61.401C96.3228 61.401 96.4103 61.4219 96.4922 61.4637C96.6271 61.534 96.7277 61.6519 96.7733 61.7963C96.8208 61.9428 96.8075 62.0966 96.7391 62.2315C96.2886 63.1115 95.5816 63.7862 94.692 64.1853C93.9778 64.5082 93.1301 64.6717 92.1779 64.6717Z" fill="white"/>
<path d="M77.1538 48.8124C76.9522 48.8124 76.7621 48.7041 76.6595 48.5273C76.5836 48.3962 76.5644 48.2422 76.6025 48.0959C76.6424 47.9477 76.7374 47.8241 76.8685 47.7481C77.9688 47.1133 79.0238 46.1916 79.7629 45.2185C80.5934 44.1295 81.0324 43.0043 81.0305 41.9628C81.0229 40.7218 80.4357 39.6347 79.2345 38.6388C79.2326 38.6369 79.2326 38.6369 79.2326 38.6369C79.1148 38.5399 79.0426 38.4031 79.0293 38.253C79.0141 38.1009 79.0578 37.9527 79.1547 37.8348C79.263 37.7037 79.4246 37.6277 79.5956 37.6277C79.7266 37.6277 79.856 37.6733 79.9567 37.7569C80.7017 38.3632 81.2679 39.0436 81.6423 39.7829C81.9958 40.4785 82.1747 41.2121 82.1707 41.9628C82.1688 43.2571 81.6499 44.6217 80.6694 45.9103C79.8292 47.0126 78.6813 48.0161 77.4385 48.7364C77.3534 48.7858 77.2545 48.8124 77.1538 48.8124Z" fill="white"/>
<path d="M87.8925 50.1698C87.1513 50.1679 86.4538 49.879 85.9311 49.3563C85.4085 48.8318 85.1194 48.1362 85.1194 47.3931C85.1194 46.6538 85.4066 45.9582 85.9311 45.4355C86.4538 44.9129 87.1513 44.624 87.8925 44.6221C89.4203 44.6221 90.6633 45.865 90.6633 47.3931C90.6614 48.1362 90.3744 48.8318 89.8518 49.3563C89.3293 49.879 88.6337 50.1679 87.8925 50.1698ZM87.8925 45.7624C86.9935 45.7624 86.2597 46.4941 86.2597 47.3931C86.2597 48.2958 86.9916 49.0294 87.8925 49.0294C88.7912 49.0294 89.523 48.2958 89.523 47.3931C89.5212 46.496 88.7895 45.7643 87.8925 45.7624Z" fill="#FF4D40"/>
<path d="M83.1787 69.6653C82.4376 69.6634 81.7401 69.3745 81.2175 68.8518C80.6927 68.3292 80.4058 67.6336 80.4058 66.8943C80.4058 65.3643 81.6506 64.1195 83.1787 64.1176C84.7067 64.1196 85.9497 65.3645 85.9497 66.8943C85.9498 68.4223 84.7069 69.6653 83.1787 69.6653ZM83.1787 65.2577C82.2799 65.2598 81.548 65.9932 81.5461 66.8941C81.548 67.793 82.2797 68.5247 83.1787 68.5247C84.0759 68.5228 84.8074 67.7911 84.8093 66.8941C84.8076 65.9932 84.0759 65.2598 83.1787 65.2577Z" fill="#FF4D40"/>
<path d="M29.3075 78.0872C29.2942 78.0872 29.279 78.0872 29.2638 78.0853C29.1117 78.0739 28.973 78.0036 28.8741 77.8895C28.7753 77.7738 28.7278 77.6254 28.7392 77.4752C28.8894 75.4055 29.45 73.6209 30.4041 72.1708C31.1852 70.983 32.2077 70.0424 33.4431 69.3715C35.4405 68.2787 37.3468 68.1742 37.8827 68.1685C37.8941 68.1685 37.9132 68.1685 37.9227 68.1704H37.9246C38.0766 68.178 38.2153 68.2445 38.3161 68.3566C38.4187 68.4687 38.4719 68.6149 38.4643 68.7669C38.4491 69.0769 38.1868 69.3181 37.877 69.3088H37.8713C37.7915 69.3088 35.8986 69.3202 33.9923 70.3712C31.495 71.7643 30.1494 74.1172 29.8757 77.5609C29.8529 77.8572 29.604 78.0872 29.3075 78.0872Z" fill="#FF4D40"/>
<path d="M103.372 48.8034C103.334 48.8034 103.296 48.7996 103.258 48.792C103.11 48.7616 102.981 48.6761 102.897 48.5488C102.812 48.4214 102.783 48.2694 102.812 48.1192C103.217 46.1123 103.422 44.1718 103.422 42.353C103.416 36.2237 101.154 31.212 96.6997 27.4584C93.1816 24.503 89.4396 23.3646 88.725 23.165C88.6242 23.1384 88.5748 23.1251 88.5708 23.1251C88.5689 23.1251 88.5689 23.1232 88.567 23.1232C88.4205 23.0871 88.2971 22.9959 88.2192 22.8667C88.1394 22.7355 88.1166 22.5835 88.1525 22.4352C88.2152 22.1787 88.4433 22 88.7056 22C88.7512 22 88.7968 22.0057 88.8426 22.0171C88.8426 22.0171 88.8464 22.0171 88.8521 22.019C89.2645 22.1254 92.9818 23.1384 96.6974 25.995C98.9704 27.7378 100.789 29.8322 102.103 32.2211C103.739 35.1974 104.566 38.6051 104.562 42.353C104.562 44.2478 104.349 46.2643 103.931 48.3454C103.878 48.6115 103.642 48.8034 103.372 48.8034Z" fill="white"/>
<path d="M18.4099 70.7353C18.3871 70.7353 18.3624 70.7353 18.3396 70.7315C18.0279 70.6935 17.8055 70.4066 17.8455 70.0947C18.0811 68.1694 18.6038 66.4931 19.3944 65.1152C20.0881 63.9124 20.9852 62.9317 22.0628 62.2055C24.0317 60.8713 26.2307 60.59 27.7302 60.5881C28.7489 60.5881 29.4426 60.7174 29.5186 60.7326C29.6688 60.763 29.798 60.8485 29.8816 60.9758C29.9672 61.1013 29.9957 61.2552 29.9672 61.4035C29.9063 61.7057 29.6003 61.9128 29.2963 61.8501C29.2944 61.8501 29.2906 61.8501 29.283 61.8482C29.2696 61.8463 29.243 61.8406 29.1974 61.8349C29.0986 61.8178 28.9941 61.8045 28.8819 61.7914C28.5094 61.7494 28.1217 61.7287 27.7302 61.7287H27.7188C26.3846 61.7287 24.429 61.9738 22.7033 63.1484C20.6203 64.5719 19.4001 66.8905 18.9763 70.2374C18.9402 70.5206 18.6969 70.7353 18.4099 70.7353Z" fill="#FF4D40"/>
</svg>
