<svg width="121" height="121" viewBox="0 0 121 121" fill="none" xmlns="http://www.w3.org/2000/svg">
<path d="M81.6538 63.0451H42.8144C42.4371 63.0451 42.1313 62.7392 42.1313 62.362V55.1891C42.1313 54.8118 42.4372 54.5061 42.8144 54.5061C43.1915 54.5061 43.4974 54.812 43.4974 55.1891V61.6788H81.3627L90.6983 51.9662C90.9594 51.6941 91.392 51.6856 91.6641 51.947C91.9362 52.2085 91.9447 52.6409 91.6832 52.913L82.1461 62.8353C82.0175 62.9693 81.8395 63.0451 81.6538 63.0451ZM42.8144 47.3328C42.4371 47.3328 42.1313 47.0269 42.1313 46.6498V31.4463C42.1313 31.069 42.4372 30.7633 42.8144 30.7633H81.6538C81.8356 30.7633 82.0098 30.8358 82.1381 30.9647L96.903 45.8071C97.1688 46.0745 97.1678 46.5071 96.9004 46.7733C96.633 47.0393 96.2004 47.0382 95.9341 46.7707L81.3698 32.1296H43.4974V46.6498C43.4974 47.0269 43.1917 47.3328 42.8144 47.3328Z" fill="white"/>
<path d="M42.8153 90.0339H37.8904C37.5131 90.0339 37.2074 89.728 37.2074 89.3508C37.2074 88.9735 37.5133 88.6676 37.8904 88.6676H42.1322V34.5008C42.1322 34.1234 42.4381 33.8177 42.8153 33.8177C43.1924 33.8177 43.4983 34.1236 43.4983 34.5008V89.3508C43.4983 89.728 43.1926 90.0339 42.8153 90.0339ZM36.9264 82.4585C36.5491 82.4585 36.2432 82.1526 36.2432 81.7753V26.6136C36.2432 24.6211 37.8706 23 39.8709 23C41.5481 23 43.0358 24.184 43.4084 25.8151C43.4925 26.1828 43.2624 26.5492 42.8947 26.6331C42.5268 26.7173 42.1606 26.4872 42.0766 26.1194C41.8444 25.1035 40.9168 24.3663 39.8709 24.3663C38.624 24.3663 37.6096 25.3745 37.6096 26.6136V81.7753C37.6096 82.1526 37.3037 82.4585 36.9264 82.4585Z" fill="white"/>
<path d="M45.819 97.6702H33.9216C33.5442 97.6702 33.2385 97.3643 33.2385 96.987V89.3511C33.2385 88.9737 33.5444 88.6678 33.9216 88.6678H45.819C46.1963 88.6678 46.502 88.9737 46.502 89.3511V96.987C46.5022 97.3643 46.1963 97.6702 45.819 97.6702ZM34.6048 96.304H45.1359V90.0343H34.6048V96.304Z" fill="white"/>
<path d="M64.5246 56.6432C59.0418 56.6432 54.5811 52.2023 54.5811 46.7437C54.5811 41.285 59.0416 36.8439 64.5246 36.8439C70.0074 36.8439 74.4679 41.285 74.4679 46.7437C74.4679 52.2022 70.0073 56.6432 64.5246 56.6432ZM64.5246 38.21C59.7952 38.21 55.9475 42.0382 55.9475 46.7436C55.9475 51.4487 59.7952 55.2768 64.5246 55.2768C69.2538 55.2768 73.1016 51.4487 73.1016 46.7436C73.1016 42.0382 69.2538 38.21 64.5246 38.21Z" fill="#FF4D40"/>
<path d="M64.1437 49.4461C64.0122 49.4461 63.8802 49.4083 63.7648 49.3313L60.3482 47.0533C60.0343 46.8439 59.9495 46.4199 60.1587 46.106C60.3679 45.7921 60.7926 45.7072 61.106 45.9165L64.0906 47.9064L68.5972 44.0177C68.883 43.771 69.3142 43.8027 69.5607 44.0886C69.8072 44.3743 69.7755 44.8056 69.4898 45.0521L64.59 49.2801C64.4627 49.3902 64.3036 49.4461 64.1437 49.4461Z" fill="#FF4D40"/>
<path d="M49.8359 35.3065H46.7717V38.3564H49.8359V35.3065Z" fill="#FF4D40"/>
<path d="M49.8359 39.8978H46.7717V42.9476H49.8359V39.8978Z" fill="#FF4D40"/>
<path d="M49.8359 44.4901H46.7717V47.54H49.8359V44.4901Z" fill="#FF4D40"/>
</svg>
