<svg width="121" height="121" viewBox="0 0 121 121" fill="none" xmlns="http://www.w3.org/2000/svg">
<path d="M91.7213 98.9832H69.4261C69.104 98.9832 68.8429 98.7221 68.8429 98.4C68.8429 98.0779 69.104 97.8169 69.4261 97.8169H91.1379V75.1269L69.7013 66.7089L59.5392 75.7923C59.3117 75.9954 58.9663 75.9896 58.7465 75.7779L49.3204 66.7144L27.9038 75.1269V97.8169H59.7069C60.029 97.8169 60.2901 98.0779 60.2901 98.4C60.2901 98.7221 60.029 98.9832 59.7069 98.9832H27.3207C26.9986 98.9832 26.7375 98.7221 26.7375 98.4V74.7294C26.7375 74.4897 26.8843 74.2741 27.1075 74.1867L49.2417 65.4921C49.4534 65.4089 49.695 65.4563 49.8591 65.6145L59.165 74.5624L69.1919 65.6002C69.3559 65.453 69.5888 65.4114 69.7937 65.4921L91.9343 74.1867C92.1575 74.2741 92.3042 74.4897 92.3042 74.7294V98.3998C92.3044 98.7221 92.0434 98.9832 91.7213 98.9832Z" fill="white"/>
<path d="M80.8623 98.9461H38.1796C37.8575 98.9461 37.5964 98.685 37.5964 98.3629V83.5052C37.5964 83.1831 37.8575 82.9221 38.1796 82.9221C38.5017 82.9221 38.7627 83.1831 38.7627 83.5052V97.7799H80.2791V83.5052C80.2791 83.1831 80.5402 82.9221 80.8623 82.9221C81.1844 82.9221 81.4454 83.1831 81.4454 83.5052V98.3631C81.4454 98.6852 81.1846 98.9461 80.8623 98.9461Z" fill="white"/>
<path d="M70.1716 77.9745H48.8705C48.7107 77.9745 48.5577 77.9088 48.4477 77.7929C48.3377 77.6769 48.28 77.521 48.2881 77.3612L48.8728 66.0049C48.8893 65.6834 49.1626 65.4348 49.4851 65.4525C49.8068 65.469 50.0541 65.7433 50.0376 66.0648L49.4844 76.808H69.5573L68.9981 66.0652C68.9814 65.7435 69.2286 65.4692 69.5502 65.4525C69.8719 65.434 70.1459 65.6829 70.1629 66.0046L70.754 77.3608C70.7623 77.5206 70.7046 77.6767 70.5946 77.7927C70.4846 77.9088 70.3316 77.9745 70.1716 77.9745Z" fill="#141517"/>
<path d="M62.7211 85.3938H56.3214C55.9993 85.3938 55.7383 85.1328 55.7383 84.8107V77.3911C55.7383 77.069 55.9993 76.8079 56.3214 76.8079H62.7211C63.0432 76.8079 63.3043 77.069 63.3043 77.3911V84.8107C63.3043 85.1328 63.0432 85.3938 62.7211 85.3938ZM56.9046 84.2275H62.138V77.9742H56.9046V84.2275Z" fill="#141517"/>
<path d="M65.3327 98.9835H53.0498C52.8712 98.9835 52.7022 98.9015 52.5918 98.7612C52.4814 98.6208 52.4412 98.4375 52.483 98.2637L55.7544 84.6746C55.8174 84.4126 56.0518 84.2279 56.3215 84.2279H62.7211C63.0007 84.2279 63.2411 84.4264 63.2938 84.701L65.9055 98.2902C65.9384 98.461 65.8933 98.6375 65.7823 98.7719C65.6715 98.9058 65.5065 98.9835 65.3327 98.9835ZM53.79 97.8172H64.6267L62.2393 85.3944H56.7806L53.79 97.8172Z" fill="#141517"/>
<path d="M59.81 61.0837C50.6886 61.0837 43.2678 53.6631 43.2678 44.5418C43.2678 35.4206 50.6886 28 59.81 28C60.1321 28 60.3932 28.2611 60.3932 28.5832C60.3932 28.9052 60.1321 29.1663 59.81 29.1663C51.3316 29.1663 44.4341 36.0636 44.4341 44.5418C44.4341 53.0201 51.3316 59.9174 59.81 59.9174C68.2881 59.9174 75.1858 53.0201 75.1858 44.5418C75.1858 37.213 69.9747 30.8685 62.7952 29.4559C62.4791 29.3937 62.2733 29.0872 62.3357 28.7713C62.3977 28.4554 62.704 28.2488 63.0203 28.3118C70.7453 29.8317 76.3521 36.6576 76.3521 44.542C76.3519 53.6631 68.9311 61.0837 59.81 61.0837Z" fill="#141517"/>
<path d="M71.913 41.462C67.7701 41.462 63.9285 40.2591 61.0955 38.0752C60.8405 37.8785 60.7931 37.5123 60.9898 37.2573C61.1865 37.002 61.5525 36.9548 61.8078 37.1515C64.3997 39.1496 68.0828 40.2957 71.913 40.2957C73.0176 40.2957 74.1161 40.2024 75.1778 40.0179C75.4931 39.9643 75.7969 40.1754 75.8521 40.4928C75.9072 40.8102 75.6945 41.1121 75.3773 41.1671C74.2498 41.3628 73.0843 41.462 71.913 41.462Z" fill="#141517"/>
<path d="M51.3956 41.1561C48.9927 41.1561 46.6068 40.7322 44.4962 39.9302C44.1953 39.8159 44.0438 39.479 44.1583 39.1779C44.2726 38.8768 44.6095 38.7258 44.9106 38.8401C46.8902 39.5923 49.1326 39.99 51.3956 39.99C58.9342 39.99 65.0672 35.6846 65.0672 30.3924C65.0672 30.0703 65.3282 29.8092 65.6503 29.8092C65.9724 29.8092 66.2335 30.0703 66.2335 30.3924C66.2335 36.3273 59.5772 41.1561 51.3956 41.1561Z" fill="#141517"/>
<path d="M92.6416 54.6596H82.8214C82.4993 54.6596 82.2382 54.3985 82.2382 54.0764V32.5687H76.5832C76.3331 32.5687 76.1107 32.4091 76.0306 32.172C75.9507 31.9348 76.0308 31.6732 76.2298 31.5216L87.2634 23.1193C87.4701 22.9615 87.7568 22.9601 87.9653 23.1158L99.1883 31.4883C99.355 31.5908 99.4664 31.7752 99.4664 31.9855C99.4666 32.3082 99.2085 32.5771 98.8813 32.5687C98.8807 32.5687 98.88 32.5687 98.8794 32.5687H93.2244V54.0764C93.2248 54.3985 92.9637 54.6596 92.6416 54.6596ZM83.4045 53.4933H92.0585V31.9855C92.0585 31.6635 92.3195 31.4024 92.6416 31.4024H97.1227L87.6205 24.3136L78.3117 31.4024H82.8214C83.1435 31.4024 83.4045 31.6635 83.4045 31.9855V53.4933Z" fill="white"/>
<path d="M26.4155 63.8639C26.0934 63.8639 25.8324 63.6028 25.8324 63.2807V40.6658H21.5831C21.333 40.6658 21.1106 40.5062 21.0307 40.269C20.9506 40.0319 21.0307 39.7702 21.2298 39.6186L29.763 33.1192C29.9698 32.9616 30.2563 32.9602 30.4649 33.1155L39.1838 39.6149C39.3854 39.7652 39.4678 40.0276 39.3889 40.2661C39.3097 40.5048 39.0866 40.6658 38.8353 40.6658H34.5923V57.1734C34.5923 57.4955 34.3312 57.7565 34.0091 57.7565C33.687 57.7565 33.426 57.4955 33.426 57.1734V40.0826C33.426 39.7605 33.687 39.4995 34.0091 39.4995H37.0772L30.1203 34.3135L23.3112 39.4995H26.4155C26.7376 39.4995 26.9987 39.7605 26.9987 40.0826V63.2807C26.9987 63.6028 26.7376 63.8639 26.4155 63.8639Z" fill="white"/>
</svg>
