<svg width="250" height="251" viewBox="0 0 250 251" fill="none" xmlns="http://www.w3.org/2000/svg">
<path d="M207.342 151.805H146.122C145.311 151.805 144.657 151.145 144.657 150.34C144.657 149.53 145.311 148.875 146.122 148.875H207.342C214.891 148.875 221.991 145.931 227.328 140.594C232.665 135.252 235.604 128.157 235.609 120.613C235.604 112.942 232.582 105.76 227.089 100.384C226.728 100.032 226.571 99.5244 226.679 99.0312C227.177 96.6924 227.431 94.3144 227.431 91.9756C227.431 81.5605 222.694 71.9365 214.428 65.5742C214.071 65.3008 213.861 64.8809 213.856 64.4268C213.851 64.0947 213.959 63.7822 214.159 63.5186C214.637 62.8984 215.59 62.7715 216.215 63.2549C220.517 66.5605 224.076 70.8721 226.513 75.7109C227.758 78.1816 228.715 80.7939 229.359 83.4844C230.023 86.248 230.36 89.1045 230.36 91.9756C230.36 94.2656 230.141 96.5801 229.701 98.8603C235.399 104.72 238.539 112.444 238.539 120.613C238.539 124.822 237.714 128.904 236.087 132.752C234.515 136.463 232.264 139.798 229.403 142.664C226.537 145.53 223.202 147.781 219.486 149.354C215.643 150.98 211.557 151.805 207.342 151.805ZM136.352 151.805C135.546 151.805 134.887 151.145 134.887 150.34C134.887 149.53 135.546 148.875 136.352 148.875C136.356 148.875 136.356 148.875 136.362 148.875C137.163 148.88 137.816 149.535 137.816 150.34C137.816 151.146 137.162 151.805 136.352 151.805ZM126.586 151.805H42.1914C37.9824 151.805 33.8955 150.98 30.0527 149.354C26.3369 147.781 23.002 145.53 20.1357 142.664C17.2695 139.798 15.0234 136.463 13.4512 132.752C11.8252 128.904 11 124.822 11 120.613C11 117.005 11.6152 113.465 12.8164 110.101C13.9785 106.849 15.6729 103.826 17.8408 101.117C19.9893 98.436 22.5479 96.1362 25.4434 94.2905C28.3926 92.4155 31.6104 91.0532 35.0039 90.2524C35.7852 90.0718 36.5811 90.5698 36.7666 91.3413C36.8545 91.7222 36.791 92.1177 36.5859 92.4497C36.3809 92.7817 36.0586 93.0161 35.6777 93.104C22.8701 96.1265 13.9297 107.44 13.9297 120.614C13.9346 128.158 16.874 135.252 22.2061 140.594C27.5479 145.932 34.6475 148.875 42.1914 148.875H126.586C126.591 148.875 126.591 148.875 126.596 148.875C127.397 148.881 128.051 149.535 128.051 150.34C128.051 151.146 127.392 151.805 126.586 151.805ZM42.1133 89.7593C41.3516 89.7593 40.7119 89.1636 40.6533 88.4067C40.6533 88.4067 40.6533 88.4067 40.6533 88.4018C40.5898 87.5962 41.1953 86.8931 42.001 86.8296C42.8066 86.7759 43.5146 87.3813 43.5732 88.1821C43.6367 88.9878 43.0312 89.6909 42.2256 89.7544C42.1865 89.7544 42.1523 89.7593 42.1133 89.7593ZM42.958 80.0718C42.8359 80.0718 42.7139 80.0571 42.5918 80.0278C41.9424 79.8618 41.4932 79.2808 41.4883 78.6118C41.4883 78.4897 41.5078 78.3677 41.5371 78.2456C42.377 74.9692 43.7393 71.8686 45.5898 69.0269C47.4062 66.229 49.6475 63.7534 52.2549 61.6636C54.8818 59.5591 57.8115 57.8989 60.9561 56.7368C64.2031 55.5405 67.6162 54.896 71.0977 54.8228C71.8154 51.3267 73.124 48.0112 74.9795 44.9595C76.8008 41.9614 79.1006 39.3052 81.8105 37.0688C84.5449 34.8179 87.6113 33.0601 90.9219 31.8442C94.3545 30.5894 97.958 29.9546 101.645 29.9546C106.918 29.9546 112.118 31.2925 116.693 33.8218C119.955 29.0513 124.359 25.0815 129.433 22.3374C132.016 20.936 134.77 19.8618 137.611 19.1294C140.541 18.3823 143.573 18.0015 146.625 18.0015C151.518 18.0015 156.264 18.9585 160.731 20.8481C165.043 22.6743 168.92 25.2866 172.25 28.6118C175.576 31.937 178.188 35.814 180.014 40.1255C181.903 44.5933 182.86 49.3345 182.86 54.2271C182.86 55.3306 182.807 56.4634 182.699 57.5913C186.361 56.3706 190.204 55.7505 194.135 55.7505C195.263 55.7505 196.405 55.8042 197.523 55.9067C197.909 55.9458 198.266 56.1313 198.515 56.4292C198.764 56.7319 198.881 57.1128 198.847 57.5034C198.769 58.3042 198.056 58.8999 197.25 58.8267C196.22 58.729 195.174 58.6802 194.134 58.6802C189.73 58.6802 185.482 59.5151 181.502 61.1606C181.02 61.3608 180.443 61.2778 180.033 60.9604C179.618 60.6284 179.413 60.1011 179.496 59.5786C179.784 57.7573 179.93 55.9556 179.93 54.2271C179.93 45.3354 176.463 36.9761 170.175 30.6821C163.885 24.3931 155.521 20.9312 146.625 20.9312C135.097 20.9312 124.545 26.7759 118.397 36.5659C118.129 36.9956 117.665 37.2544 117.157 37.2544C116.889 37.2544 116.62 37.1812 116.391 37.0395C111.967 34.3198 106.869 32.8843 101.645 32.8843C87.7383 32.8843 76.0146 42.8208 73.7637 56.5171C73.6465 57.2251 73.041 57.7427 72.3184 57.7427H71.7666C58.8418 57.7427 47.5771 66.4731 44.374 78.9731C44.374 78.9731 44.374 78.9731 44.374 78.978C44.2031 79.6226 43.6221 80.0718 42.958 80.0718ZM206.854 61.0825C206.668 61.0825 206.488 61.0483 206.317 60.98C206.317 60.98 206.317 60.98 206.312 60.9751C205.951 60.8335 205.667 60.5601 205.511 60.1987C205.355 59.8423 205.35 59.4419 205.491 59.0806C205.711 58.5142 206.249 58.1528 206.854 58.1528C207.034 58.1528 207.215 58.187 207.386 58.2505C207.386 58.2505 207.386 58.2505 207.391 58.2505C208.143 58.5483 208.514 59.4028 208.216 60.1499C207.997 60.7163 207.46 61.0825 206.854 61.0825Z" fill="#141517"/>
<path d="M83.9834 180.663C83.1777 180.663 82.5186 180.008 82.5186 179.198V155.829C82.5186 155.443 82.6748 155.062 82.9482 154.793L102.06 135.682V115.814C102.06 115.009 102.714 114.349 103.524 114.349C104.33 114.349 104.984 115.009 104.984 115.814V136.292C104.984 136.683 104.833 137.049 104.56 137.328L85.4482 156.434V179.198C85.4482 180.008 84.7939 180.663 83.9834 180.663Z" fill="#FF4D40"/>
<path d="M95.2334 164.71C94.4277 164.71 93.7686 164.051 93.7686 163.246V158.792C93.7686 158.402 93.9248 158.03 94.1982 157.757L113.476 138.495V115.721C113.476 114.911 114.13 114.256 114.94 114.256C115.746 114.256 116.405 114.911 116.405 115.721V139.105C116.405 139.496 116.249 139.862 115.976 140.14L96.7031 159.398V163.246C96.7031 164.051 96.0439 164.71 95.2334 164.71Z" fill="#141517"/>
<path d="M108.06 173.934C107.25 173.934 106.595 173.28 106.595 172.469V162.845L98.9001 155.14C98.3289 154.569 98.3289 153.636 98.9001 153.07C99.4568 152.513 100.419 152.513 100.975 153.07L109.095 161.204C109.369 161.474 109.525 161.854 109.525 162.24V172.469C109.525 173.28 108.866 173.934 108.06 173.934Z" fill="#141517"/>
<path d="M124.633 179.09C123.822 179.09 123.168 178.436 123.168 177.625V115.813C123.168 115.008 123.822 114.349 124.633 114.349C125.438 114.349 126.098 115.008 126.098 115.813V177.625C126.098 178.436 125.438 179.09 124.633 179.09Z" fill="#FF4D40"/>
<path d="M116.498 171.824C115.687 171.824 115.033 171.17 115.033 170.359V153.953C115.033 153.645 115.126 153.352 115.302 153.103L123.437 141.659C123.886 141.023 124.843 140.863 125.478 141.317C125.799 141.541 126.01 141.878 126.073 142.264C126.142 142.649 126.054 143.035 125.824 143.357L117.963 154.422V170.354V170.359C117.963 171.17 117.304 171.824 116.498 171.824Z" fill="#FF4D40"/>
<path d="M83.9834 188.011C81.1465 188.011 78.8418 185.702 78.8369 182.865C78.8418 180.038 81.1514 177.733 83.9834 177.733C86.8203 177.733 89.1299 180.038 89.1299 182.865C89.1299 185.701 86.8203 188.011 83.9834 188.011ZM83.9834 180.663C82.7676 180.663 81.7715 181.653 81.7666 182.865C81.7715 184.085 82.7676 185.082 83.9834 185.082C85.2041 185.082 86.2002 184.085 86.2002 182.865C86.2002 181.653 85.2041 180.663 83.9834 180.663Z" fill="#FF4D40"/>
<path d="M95.248 172.074C92.416 172.068 90.1113 169.764 90.1016 166.927C90.1113 164.09 92.416 161.781 95.248 161.781C98.0801 161.786 100.38 164.09 100.38 166.927C100.38 169.764 98.0801 172.068 95.248 172.074ZM95.248 164.71C94.0273 164.71 93.0312 165.707 93.0312 166.927C93.0361 168.148 94.0273 169.139 95.248 169.144C96.4639 169.139 97.4502 168.148 97.4502 166.927C97.4502 165.707 96.4639 164.71 95.248 164.71Z" fill="#FF4D40"/>
<path d="M124.633 186.453C121.801 186.448 119.491 184.139 119.486 181.307C119.491 178.475 121.801 176.166 124.633 176.16C127.465 176.166 129.774 178.475 129.779 181.307C129.774 184.144 127.465 186.449 124.633 186.453ZM124.633 179.09C123.412 179.095 122.416 180.086 122.416 181.307C122.416 182.527 123.412 183.523 124.633 183.523C125.854 183.523 126.845 182.527 126.85 181.307C126.845 180.086 125.854 179.095 124.633 179.09Z" fill="#FF4D40"/>
<path d="M83.9834 138.456C81.1465 138.456 78.8418 136.146 78.8369 133.314C78.8418 130.482 81.1514 128.182 83.9834 128.182C86.8203 128.182 89.125 130.482 89.1299 133.314C89.1299 136.151 86.8203 138.456 83.9834 138.456ZM83.9834 131.107C82.7627 131.112 81.7715 132.098 81.7666 133.314C81.7715 134.535 82.7627 135.531 83.9834 135.531C85.2041 135.526 86.2002 134.53 86.2002 133.314C86.2002 132.098 85.2041 131.112 83.9834 131.107Z" fill="#FF4D40"/>
<path d="M95.5659 145.711C95.1411 145.711 94.7358 145.526 94.4575 145.204C94.4428 145.189 94.4184 145.164 94.3891 145.135C94.311 145.057 94.1938 144.949 94.0815 144.842C93.8325 144.608 93.476 144.275 93.0219 143.865C92.2651 143.172 91.2543 142.254 89.9311 141.053C87.7289 139.065 85.5561 137.112 85.5317 137.093C85.2387 136.829 85.0678 136.468 85.0434 136.077C85.0239 135.691 85.1557 135.315 85.4194 135.022C85.937 134.442 86.9086 134.388 87.4848 134.911C87.4897 134.915 87.5825 134.994 87.7436 135.14C92.5971 139.501 95.683 142.308 96.435 143.036C96.4594 143.065 96.4838 143.085 96.5034 143.109C96.5668 143.167 96.6108 143.211 96.7084 143.329C96.7133 143.333 96.7133 143.333 96.7133 143.333C97.2162 143.963 97.1088 144.886 96.4838 145.389C96.2202 145.599 95.9028 145.711 95.5659 145.711Z" fill="#FF4D40"/>
<path d="M165.556 180.663C164.745 180.663 164.091 180.008 164.091 179.198V156.434L144.964 137.328C144.696 137.054 144.54 136.673 144.54 136.292V115.814C144.54 115.009 145.194 114.349 146.005 114.349C146.81 114.349 147.464 115.009 147.464 115.814V135.682L166.59 154.789C166.864 155.067 167.021 155.438 167.021 155.829V179.198C167.021 180.008 166.361 180.663 165.556 180.663Z" fill="#FF4D40"/>
<path d="M154.291 164.71C153.48 164.71 152.826 164.051 152.826 163.246V159.398L133.563 140.14C133.29 139.867 133.134 139.491 133.134 139.105V115.721C133.134 114.911 133.793 114.256 134.599 114.256C135.409 114.256 136.063 114.911 136.063 115.721V138.495L155.326 157.757C155.6 158.031 155.756 158.402 155.756 158.792V163.24C155.756 163.24 155.756 163.24 155.756 163.246C155.756 164.051 155.096 164.71 154.291 164.71Z" fill="#141517"/>
<path d="M141.463 173.934C140.658 173.934 139.998 173.28 139.998 172.469V162.24C139.998 161.854 140.159 161.474 140.428 161.204L148.563 153.07C149.12 152.513 150.081 152.513 150.638 153.07C151.209 153.641 151.209 154.569 150.638 155.14L142.928 162.845V172.464C142.933 172.464 142.933 172.469 142.933 172.469C142.933 173.28 142.274 173.934 141.463 173.934Z" fill="#141517"/>
<path d="M165.556 188.011C164.179 188.011 162.884 187.474 161.918 186.502C160.946 185.536 160.409 184.242 160.409 182.865C160.409 181.493 160.946 180.204 161.918 179.237C162.884 178.27 164.179 177.738 165.556 177.733C168.382 177.733 170.688 180.038 170.688 182.865C170.683 184.242 170.15 185.536 169.184 186.502C168.216 187.474 166.928 188.011 165.556 188.011ZM165.556 180.663C164.335 180.663 163.339 181.653 163.339 182.865C163.339 184.105 164.315 185.082 165.556 185.082C166.766 185.082 167.753 184.085 167.758 182.865C167.753 181.653 166.767 180.663 165.556 180.663Z" fill="#FF4D40"/>
<path d="M154.291 172.074C151.458 172.068 149.159 169.764 149.153 166.927C149.159 164.09 151.458 161.786 154.291 161.781C157.123 161.786 159.432 164.095 159.437 166.927C159.432 169.759 157.123 172.068 154.291 172.074ZM154.291 164.71C153.075 164.71 152.088 165.707 152.083 166.927C152.088 168.148 153.074 169.139 154.291 169.144C155.506 169.139 156.502 168.148 156.507 166.927C156.502 165.707 155.506 164.71 154.291 164.71Z" fill="#FF4D40"/>
<path d="M165.556 138.456C164.179 138.456 162.884 137.918 161.918 136.952C160.946 135.98 160.409 134.686 160.409 133.314C160.414 130.487 162.723 128.182 165.556 128.182C168.382 128.182 170.688 130.482 170.688 133.314C170.683 136.146 168.378 138.456 165.556 138.456ZM165.556 131.107C164.31 131.112 163.339 132.079 163.339 133.314C163.339 134.549 164.315 135.526 165.556 135.526C166.766 135.526 167.753 134.535 167.758 133.314C167.753 132.098 166.767 131.112 165.556 131.107Z" fill="#FF4D40"/>
<path d="M153.959 145.711C153.622 145.711 153.304 145.599 153.04 145.389C152.738 145.145 152.547 144.798 152.503 144.408C152.459 144.017 152.567 143.636 152.816 143.333C152.904 143.226 152.948 143.177 153.007 143.119C153.026 143.099 153.046 143.08 153.075 143.05C153.158 142.967 153.265 142.86 153.417 142.713C153.685 142.45 154.047 142.108 154.481 141.693C155.253 140.96 156.283 139.994 157.533 138.817C158.514 137.899 161.639 134.964 161.869 134.769V134.764C162.435 134.232 163.407 134.266 163.939 134.837C164.486 135.428 164.457 136.355 163.866 136.907C163.847 136.922 159.198 141.258 156.62 143.704C155.819 144.461 155.204 145.057 155.087 145.179C154.808 145.516 154.398 145.711 153.959 145.711Z" fill="#FF4D40"/>
<path d="M204.408 95.521C203.603 95.521 202.943 94.8667 202.943 94.0562C202.943 87.9673 200.571 82.2397 196.264 77.9282C191.957 73.6167 186.229 71.2437 180.14 71.2437C179.335 71.2437 178.675 70.5845 178.675 69.7788C178.675 68.9683 179.335 68.314 180.14 68.314C183.617 68.314 186.986 68.9927 190.16 70.3354C193.222 71.6343 195.976 73.4897 198.339 75.8579C200.702 78.2212 202.558 80.9751 203.852 84.0415C205.194 87.2153 205.873 90.5845 205.873 94.0562C205.873 94.8667 205.219 95.521 204.408 95.521Z" fill="#FF4D40"/>
<path d="M171.234 69.1587C170.429 69.1587 169.77 68.5044 169.77 67.6938C169.77 61.605 167.396 55.8823 163.089 51.5708C158.778 47.2642 153.05 44.896 146.952 44.8911C139.061 44.8911 131.83 48.895 127.606 55.5991C127.337 56.0288 126.874 56.2827 126.366 56.2827C126.097 56.2827 125.834 56.2095 125.6 56.063C122.587 54.2124 119.105 53.2358 115.531 53.2358C114.725 53.2358 114.066 52.5767 114.066 51.771C114.066 50.9605 114.725 50.3062 115.531 50.3062C119.149 50.3062 122.733 51.1899 125.907 52.8696C128.24 49.5737 131.351 46.8345 134.91 44.9497C138.597 42.9966 142.757 41.9614 146.951 41.9614C150.428 41.9663 153.802 42.645 156.976 43.9878C160.042 45.2817 162.796 47.1372 165.159 49.5005C167.522 51.8638 169.378 54.6177 170.677 57.6792C172.02 60.853 172.699 64.2222 172.699 67.6938C172.699 68.5044 172.044 69.1587 171.234 69.1587Z" fill="#FF4D40"/>
<path d="M84.9947 218.126H93.2447L94.3947 221.326C94.5697 221.801 94.8697 222.151 95.4697 222.151C96.0447 222.151 96.5197 221.801 96.5197 221.226C96.5197 220.926 96.2947 220.351 96.2197 220.126L90.6947 205.401C90.3947 204.626 89.9697 204.051 89.1197 204.051C88.2697 204.051 87.8447 204.626 87.5447 205.401L82.0197 220.126C81.9447 220.351 81.7197 220.926 81.7197 221.226C81.7197 221.801 82.1947 222.151 82.7697 222.151C83.3697 222.151 83.6697 221.801 83.8447 221.326L84.9947 218.126ZM92.5697 216.226H85.6697L89.0947 206.601H89.1447L92.5697 216.226Z" fill="#FF4D40"/>
<path d="M106.102 220.976C106.102 221.701 106.527 222.151 107.202 222.151C107.877 222.151 108.302 221.701 108.302 220.976V213.526C108.302 211.626 109.352 210.451 111.127 210.451C112.927 210.451 113.977 211.626 113.977 213.526V220.976C113.977 221.701 114.402 222.151 115.077 222.151C115.752 222.151 116.177 221.701 116.177 220.976V213.601C116.177 209.851 113.602 208.551 111.552 208.551C109.627 208.551 108.452 209.401 107.477 210.801C106.477 209.101 105.127 208.551 103.827 208.551C101.827 208.551 101.002 209.501 100.477 210.176L100.427 210.126V209.726C100.427 209.001 100.002 208.551 99.3273 208.551C98.6523 208.551 98.2273 209.001 98.2273 209.726V220.976C98.2273 221.701 98.6523 222.151 99.3273 222.151C100.002 222.151 100.427 221.701 100.427 220.976V213.526C100.427 211.626 101.477 210.451 103.252 210.451C105.052 210.451 106.102 211.626 106.102 213.526V220.976Z" fill="#FF4D40"/>
<path d="M129.077 220.976V212.301C129.077 209.851 127.452 208.551 124.552 208.551C122.727 208.551 120.127 209.526 120.127 210.901C120.127 211.376 120.452 211.801 121.127 211.801C122.077 211.801 122.452 210.451 124.552 210.451C125.977 210.451 126.902 211.001 126.902 212.126V213.776H126.602C123.202 213.776 118.552 214.101 118.552 218.251C118.552 220.976 120.752 222.151 123.152 222.151C124.477 222.151 125.852 221.651 126.827 220.401L126.877 220.451V220.976C126.877 221.701 127.302 222.151 127.977 222.151C128.652 222.151 129.077 221.701 129.077 220.976ZM126.902 216.726C126.902 219.051 125.427 220.251 123.552 220.251C122.102 220.251 120.752 219.701 120.752 218.251C120.752 215.476 123.627 215.476 126.427 215.476H126.902V216.726Z" fill="#FF4D40"/>
<path d="M134.043 220.101L133.968 220.051L140.393 210.601C140.718 210.126 140.843 209.826 140.843 209.476C140.843 209.126 140.618 208.701 139.768 208.701H132.368C131.643 208.701 131.268 209.051 131.268 209.651C131.268 210.251 131.643 210.601 132.368 210.601H137.818L131.468 220.101C131.143 220.576 131.018 220.876 131.018 221.226C131.018 221.576 131.243 222.001 132.093 222.001H140.018C140.743 222.001 141.118 221.651 141.118 221.051C141.118 220.451 140.743 220.101 140.018 220.101H134.043Z" fill="#FF4D40"/>
<path d="M142.501 215.351C142.501 218.876 144.601 222.151 148.351 222.151C152.101 222.151 154.201 218.876 154.201 215.351C154.201 211.826 152.101 208.551 148.351 208.551C144.601 208.551 142.501 211.826 142.501 215.351ZM144.701 215.351C144.701 213.101 145.651 210.451 148.351 210.451C151.051 210.451 152.001 213.101 152.001 215.351C152.001 217.601 151.051 220.251 148.351 220.251C145.651 220.251 144.701 217.601 144.701 215.351Z" fill="#FF4D40"/>
<path d="M156.528 220.976C156.528 221.701 156.953 222.151 157.628 222.151C158.303 222.151 158.728 221.701 158.728 220.976V213.726C158.728 211.401 160.353 210.451 161.803 210.451C163.253 210.451 164.878 211.401 164.878 213.726V220.976C164.878 221.701 165.303 222.151 165.978 222.151C166.653 222.151 167.078 221.701 167.078 220.976V213.601C167.078 209.851 164.503 208.551 162.453 208.551C161.128 208.551 159.753 209.051 158.778 210.301L158.728 210.251V209.726C158.728 209.001 158.303 208.551 157.628 208.551C156.953 208.551 156.528 209.001 156.528 209.726V220.976Z" fill="#FF4D40"/>
</svg>
