<svg width="250" height="250" viewBox="0 0 250 250" fill="none" xmlns="http://www.w3.org/2000/svg">
<path d="M198.681 165.957H149.73C149.32 165.957 148.929 165.786 148.651 165.488C148.377 165.186 148.236 164.78 148.271 164.375L149.682 146.714H129.54C128.729 146.714 128.075 146.055 128.075 145.249C128.075 144.438 128.729 143.784 129.54 143.784H151.269C151.674 143.784 152.07 143.956 152.343 144.253C152.621 144.551 152.758 144.956 152.729 145.362L151.317 163.028H198.681C205.467 163.028 211.854 160.381 216.659 155.582C221.458 150.782 224.105 144.4 224.105 137.618C224.105 130.709 221.38 124.253 216.434 119.434C216.073 119.083 215.917 118.56 216.024 118.072C216.479 115.987 216.708 113.853 216.708 111.719C216.708 108.35 216.15 105.044 215.057 101.89C215.003 101.739 214.979 101.583 214.979 101.421C214.969 100.791 215.365 100.23 215.96 100.025C216.117 99.9712 216.278 99.9468 216.444 99.9468C217.064 99.9468 217.621 100.342 217.826 100.928C219.027 104.395 219.637 108.023 219.637 111.719C219.637 113.794 219.442 115.874 219.046 117.906C224.198 123.213 227.034 130.21 227.034 137.618C227.034 141.441 226.282 145.152 224.808 148.648C223.377 152.022 221.331 155.054 218.729 157.657C216.126 160.259 213.094 162.3 209.715 163.731C206.22 165.205 202.509 165.957 198.681 165.957ZM98.3047 165.957H49.3545C45.5264 165.957 41.8154 165.205 38.3193 163.73C34.9404 162.299 31.9082 160.259 29.3057 157.656C26.7031 155.054 24.6572 152.021 23.2314 148.647C21.752 145.152 21 141.44 21 137.617C21 130.293 23.7832 123.345 28.8418 118.047C33.8711 112.784 40.6387 109.678 47.8994 109.312C47.7969 108.345 47.7432 107.339 47.7432 106.318C47.7432 106.23 47.7432 106.143 47.748 106.055C47.7529 105.254 48.4121 104.604 49.2129 104.604H49.2275C49.6133 104.609 49.9795 104.761 50.2578 105.039C50.5313 105.322 50.6777 105.688 50.6777 106.084C50.6729 106.162 50.6729 106.24 50.6729 106.318C50.6729 107.773 50.79 109.179 51.0195 110.488C51.0928 110.918 50.9756 111.353 50.6973 111.679C50.4189 112.012 50.0088 112.202 49.5791 112.202H49.3545C42.5625 112.207 36.1807 114.848 31.376 119.643C26.5762 124.443 23.9297 130.824 23.9297 137.617C23.9297 144.399 26.5762 150.781 31.376 155.581C36.1807 160.38 42.5674 163.027 49.3545 163.027H96.7178L95.3066 145.361C95.2725 144.956 95.4141 144.55 95.6924 144.252C95.9707 143.955 96.3613 143.783 96.7666 143.783H110.009C110.814 143.783 111.474 144.437 111.474 145.248C111.474 146.054 110.814 146.713 110.009 146.713L98.3535 146.708L99.7646 164.374C99.7988 164.779 99.6572 165.185 99.3838 165.487C99.1055 165.786 98.7148 165.957 98.3047 165.957ZM119.774 146.713C118.964 146.713 118.31 146.054 118.31 145.249C118.31 144.438 118.964 143.784 119.774 143.784C120.58 143.784 121.239 144.438 121.239 145.249C121.239 146.055 120.58 146.713 119.774 146.713ZM51.0488 97.998C50.8633 97.998 50.6875 97.9639 50.5166 97.8955C49.7646 97.6025 49.3887 96.7529 49.6865 96.001C49.9063 95.4346 50.4385 95.0684 51.0488 95.0684C51.2295 95.0684 51.4102 95.1025 51.5811 95.1709C52.333 95.4639 52.7041 96.3135 52.4111 97.0654C52.1914 97.6318 51.6543 97.998 51.0488 97.998ZM211.864 94.2969C211.4 94.2969 210.971 94.082 210.692 93.7109C210.458 93.3984 210.36 93.0127 210.414 92.6269C210.468 92.2412 210.668 91.8945 210.98 91.6601C211.239 91.4697 211.542 91.3672 211.865 91.3672C212.329 91.3672 212.753 91.5771 213.036 91.9482C213.52 92.5928 213.388 93.5156 212.743 93.999C212.489 94.1943 212.187 94.2969 211.864 94.2969ZM56.166 89.7461C55.7998 89.7461 55.4531 89.6094 55.1797 89.3652C54.877 89.0869 54.7012 88.6963 54.7012 88.2812C54.7012 87.915 54.833 87.5683 55.082 87.2949C57.6309 84.4775 60.668 82.2363 64.1055 80.6299C67.6504 78.9697 71.4395 78.0811 75.3652 77.9834C76.6885 71.7187 80.1553 66.0205 85.126 61.9385C87.6064 59.9023 90.3848 58.3105 93.3877 57.2168C96.498 56.084 99.7695 55.5078 103.109 55.5078C107.855 55.5078 112.548 56.6992 116.679 58.9502C119.633 54.6484 123.627 51.0693 128.222 48.5986C132.973 46.0498 138.354 44.6973 143.783 44.6973C148.222 44.6973 152.533 45.5664 156.586 47.2803C160.502 48.9355 164.022 51.3086 167.041 54.3262C170.062 57.3486 172.436 60.8691 174.091 64.7852C175.81 68.8428 176.679 73.1494 176.679 77.5928C176.679 78.5205 176.64 79.4775 176.557 80.4346C179.833 79.3652 183.261 78.8232 186.742 78.8232C193.593 78.8232 200.16 80.9131 205.736 84.8584C206.053 85.0879 206.269 85.4248 206.332 85.8105C206.4 86.1963 206.308 86.582 206.083 86.8994C205.633 87.5342 204.676 87.7002 204.042 87.251C198.964 83.6572 192.982 81.7529 186.742 81.7529C182.796 81.7529 178.973 82.5049 175.375 83.9844C174.896 84.1846 174.325 84.1064 173.915 83.7842C173.5 83.4619 173.29 82.9346 173.373 82.4121C173.622 80.7617 173.749 79.1406 173.749 77.5928C173.749 69.5898 170.634 62.0605 164.97 56.4014C159.311 50.7422 151.787 47.627 143.783 47.627C133.397 47.627 123.9 52.8857 118.383 61.6895C118.114 62.1191 117.65 62.3779 117.143 62.3779C116.869 62.3779 116.605 62.3047 116.376 62.1582C112.396 59.7266 107.812 58.4375 103.109 58.4375H103.104C90.6143 58.4375 80.0674 67.3682 78.0312 79.6777C77.9141 80.3906 77.3037 80.9033 76.5859 80.9033H76.0879C68.9297 80.9082 62.0693 83.9502 57.2549 89.2578C57.2549 89.2627 57.25 89.2627 57.25 89.2627C56.9717 89.5703 56.5762 89.7461 56.166 89.7461Z" fill="#141517"/>
<path d="M220.692 153.843H167.128C166.322 153.843 165.663 153.188 165.663 152.378C165.663 151.572 166.322 150.913 167.128 150.913H220.692C221.498 150.913 222.157 151.572 222.157 152.378C222.157 153.188 221.498 153.843 220.692 153.843Z" fill="#141517"/>
<path d="M217.426 106.362C217.23 106.362 217.035 106.323 216.854 106.245C216.42 106.06 216.098 105.674 215.995 105.215C212.982 91.6211 200.683 81.7529 186.747 81.7529H186.742C182.797 81.7529 178.974 82.5049 175.375 83.9893C174.897 84.1846 174.32 84.1064 173.915 83.7842C173.5 83.4619 173.291 82.9346 173.374 82.4121C173.623 80.7568 173.75 79.1357 173.75 77.5928C173.75 69.585 170.634 62.0605 164.971 56.4014C159.312 50.7422 151.787 47.6269 143.784 47.6269C133.398 47.6269 123.901 52.8857 118.383 61.6894C118.115 62.1191 117.651 62.3779 117.138 62.3779C116.87 62.3779 116.606 62.3047 116.376 62.1631C115.898 61.8701 115.4 61.582 114.887 61.3135C114.541 61.1328 114.287 60.8301 114.169 60.4541C114.052 60.083 114.086 59.6875 114.267 59.3408C114.521 58.8574 115.019 58.5547 115.566 58.5547C115.8 58.5547 116.04 58.6133 116.245 58.7207C116.396 58.7988 116.538 58.8769 116.679 58.9502C119.633 54.6484 123.627 51.0693 128.223 48.5986C132.973 46.0498 138.354 44.6973 143.784 44.6973C148.223 44.6973 152.534 45.5664 156.587 47.2803C160.503 48.9355 164.023 51.3086 167.046 54.3262C170.063 57.3486 172.437 60.8691 174.096 64.7852C175.811 68.8428 176.679 73.1494 176.679 77.5928C176.679 78.5205 176.64 79.4727 176.557 80.4346C179.833 79.3652 183.257 78.8232 186.743 78.8232C190.41 78.8232 194.008 79.4238 197.441 80.6055C200.761 81.748 203.867 83.4082 206.669 85.5469C209.443 87.6611 211.85 90.1904 213.832 93.0566C215.834 95.957 217.348 99.1406 218.329 102.51C223.789 98.4082 226.918 92.1582 226.918 85.3564C226.918 83.8867 226.767 82.417 226.469 80.9863C226.45 80.8935 226.439 80.7959 226.439 80.6934C226.439 80 226.928 79.3994 227.606 79.2578C228.378 79.0967 229.174 79.6143 229.34 80.3906C229.34 80.3906 229.34 80.3906 229.34 80.3955C229.345 80.4101 229.345 80.4248 229.35 80.4443C229.682 82.0508 229.849 83.7012 229.849 85.3564C229.849 89.5947 228.74 93.7744 226.636 97.4414C224.6 100.996 221.684 104.004 218.193 106.143C217.962 106.284 217.694 106.362 217.426 106.362ZM55.6728 90.3076C55.5361 90.3076 55.3994 90.2881 55.2676 90.2539C54.7207 90.0977 54.3105 89.6338 54.2227 89.0674C54.0371 87.8711 53.9395 86.6211 53.9395 85.3564C53.9395 79.1016 56.3076 73.1592 60.5996 68.6182C64.8721 64.1016 70.6338 61.4111 76.8252 61.0449C76.752 60.2734 76.7178 59.4873 76.7178 58.7012C76.7178 52.3291 79.1592 46.3037 83.5977 41.7334C88.0215 37.1777 93.9492 34.5557 100.287 34.3555C101.454 29.0137 104.437 24.1553 108.7 20.6836C110.829 18.9502 113.207 17.5977 115.775 16.665C118.437 15.7031 121.229 15.2148 124.081 15.2148C128.08 15.2148 132.05 16.2061 135.57 18.0811C138.114 14.4336 141.532 11.3965 145.458 9.30664C149.511 7.14355 154.095 6.00098 158.725 6.00098C162.538 6.00098 166.234 6.74805 169.716 8.21777C173.08 9.64355 176.103 11.6797 178.695 14.2725C181.289 16.8652 183.32 19.8828 184.746 23.2471C186.215 26.7285 186.962 30.4248 186.962 34.2432C186.962 34.9365 186.933 35.6445 186.884 36.3525C189.589 35.5029 192.421 35.0732 195.302 35.0732H195.312C199.101 35.0781 202.778 35.8154 206.245 37.2705C209.59 38.6768 212.603 40.6934 215.19 43.2568C217.778 45.8252 219.819 48.8135 221.259 52.1484C222.744 55.5957 223.515 59.2627 223.549 63.042C223.554 63.4326 223.403 63.8037 223.129 64.082C222.856 64.3603 222.49 64.5166 222.095 64.5215H222.084C221.284 64.5215 220.624 63.8721 220.62 63.0713C220.498 49.248 209.145 38.0029 195.317 38.0029C191.968 38.0029 188.74 38.6377 185.718 39.8877C185.239 40.083 184.663 40.0049 184.253 39.6826C183.837 39.3555 183.632 38.8281 183.711 38.3057C183.925 36.9531 184.033 35.5859 184.033 34.2432C184.033 27.4805 181.401 21.123 176.621 16.3428C171.84 11.5625 165.482 8.93066 158.725 8.93066C149.955 8.93066 141.938 13.374 137.274 20.8105C137.005 21.2402 136.542 21.499 136.029 21.499C135.76 21.499 135.501 21.4258 135.272 21.2842C131.898 19.2334 128.031 18.1445 124.081 18.1445C113.539 18.1445 104.652 25.6787 102.943 36.0596C102.826 36.7871 102.181 37.3193 101.449 37.2852L101.053 37.2705C95.3354 37.2803 89.9595 39.5068 85.9165 43.5498C81.8735 47.5977 79.647 52.9785 79.647 58.7012C79.647 59.9023 79.7397 61.084 79.9351 62.2217C80.0034 62.6465 79.8862 63.081 79.6079 63.4082C79.3296 63.7402 78.9194 63.9307 78.4897 63.9307H78.2993C72.5718 63.9307 67.1909 66.1572 63.1431 70.2051C59.0952 74.2529 56.8687 79.6338 56.8687 85.3564C56.8687 85.4004 56.8687 85.4443 56.8687 85.4834C61.9224 80.8154 68.4897 78.1543 75.3696 77.9834C76.4634 72.7832 79.0024 68.0078 82.7085 64.1699C86.4097 60.332 91.0923 57.6269 96.2436 56.3428C96.3608 56.3135 96.478 56.2988 96.5952 56.2988C97.269 56.2988 97.855 56.7578 98.0161 57.4121C98.0454 57.5342 98.0601 57.6562 98.0601 57.7783C98.0552 58.4473 97.5962 59.0234 96.9468 59.1846C87.1079 61.6309 79.6811 69.6728 78.0308 79.6777C77.9136 80.3906 77.3032 80.9033 76.5855 80.9033H76.0874C68.6509 80.9033 61.6147 84.1455 56.7808 89.7949C56.5029 90.1221 56.0977 90.3076 55.6728 90.3076ZM223.959 73.3057C223.495 73.3057 223.051 73.081 222.777 72.71C222.777 72.7051 222.777 72.7051 222.772 72.7051C222.548 72.3877 222.45 72.0068 222.509 71.6211C222.572 71.2353 222.777 70.8935 223.089 70.6592C223.719 70.2002 224.676 70.3467 225.135 70.9717C225.135 70.9717 225.14 70.9717 225.14 70.9766C225.619 71.626 225.477 72.5439 224.823 73.0225C224.574 73.208 224.271 73.3057 223.959 73.3057ZM106.288 58.623C106.234 58.623 106.176 58.6182 106.117 58.6133C105.316 58.5156 104.74 57.7881 104.833 56.9873C104.926 56.1914 105.663 55.6103 106.459 55.7031C106.85 55.7471 107.196 55.9424 107.436 56.25C107.68 56.5576 107.787 56.9385 107.743 57.3291C107.655 58.0664 107.03 58.623 106.288 58.623Z" fill="#141517"/>
<path d="M147.68 191.704H100.355C99.5986 191.704 98.9541 191.113 98.8955 190.356L95.3066 145.361C95.2773 144.956 95.4141 144.551 95.6924 144.252C95.9658 143.955 96.3613 143.784 96.7666 143.784H130.067C130.878 143.784 131.532 144.438 131.532 145.249C131.532 146.054 130.878 146.708 130.067 146.708H98.3535L101.708 188.774H146.327L149.681 146.708H149.608C149.603 146.713 149.603 146.713 149.598 146.713C148.793 146.713 148.133 146.054 148.133 145.249C148.133 144.438 148.793 143.784 149.598 143.784H151.268C151.673 143.784 152.069 143.955 152.342 144.252C152.621 144.55 152.758 144.956 152.728 145.361L149.139 190.356C149.076 191.113 148.437 191.704 147.68 191.704ZM139.833 146.709C139.028 146.709 138.368 146.055 138.368 145.249C138.368 144.438 139.028 143.784 139.833 143.784C140.644 143.784 141.298 144.438 141.298 145.249C141.298 146.055 140.644 146.709 139.833 146.709Z" fill="#FF4D40"/>
<path d="M152.426 146.713H95.6094C90.7754 146.704 86.8398 142.768 86.835 137.939C86.8398 133.105 90.7754 129.165 95.6094 129.165H152.426C157.26 129.165 161.195 133.104 161.195 137.939C161.195 142.768 157.26 146.704 152.426 146.713ZM95.6094 132.095C92.3916 132.1 89.7744 134.722 89.7646 137.939C89.7744 141.152 92.3965 143.774 95.6094 143.784H152.426C155.639 143.774 158.261 141.152 158.271 137.939C158.261 134.722 155.639 132.1 152.426 132.095H95.6094Z" fill="#FF4D40"/>
<path d="M105.878 132.095C105.067 132.095 104.413 131.435 104.413 130.63V103.345C104.413 102.534 105.067 101.88 105.878 101.88C106.684 101.88 107.343 102.534 107.343 103.345V130.63C107.343 131.435 106.684 132.095 105.878 132.095Z" fill="#FF4D40"/>
<path d="M142.157 132.095C141.352 132.095 140.692 131.435 140.692 130.63V103.345C140.692 102.534 141.352 101.88 142.157 101.88C142.962 101.88 143.622 102.534 143.622 103.345V130.63C143.622 131.435 142.963 132.095 142.157 132.095Z" fill="#FF4D40"/>
<path d="M124.027 174.702C120.189 174.697 117.069 171.577 117.069 167.744C117.069 163.906 120.189 160.786 124.027 160.786C127.851 160.791 130.965 163.911 130.965 167.744C130.965 171.577 127.851 174.697 124.027 174.702ZM124.027 163.716C121.811 163.721 119.999 165.527 119.999 167.744C119.999 169.961 121.811 171.768 124.027 171.772C126.234 171.768 128.036 169.961 128.036 167.744C128.036 165.527 126.234 163.721 124.027 163.716Z" fill="#FF4D40"/>
<path d="M124.027 205.049C123.217 205.049 122.562 204.389 122.562 203.584V182.495C122.562 181.685 123.217 181.03 124.027 181.03C124.833 181.03 125.487 181.685 125.487 182.495V203.584C125.487 204.39 124.833 205.049 124.027 205.049Z" fill="#FF4D40"/>
<path d="M101.194 225.851V226.901C101.194 229.301 99.5191 232.251 96.0691 232.251C91.9191 232.251 90.3441 228.501 90.3441 225.101C90.3441 221.701 91.9691 217.951 95.9691 217.951C99.1691 217.951 100.069 219.951 101.169 219.951C101.794 219.951 102.219 219.476 102.219 218.901C102.219 217.951 99.7691 216.051 96.1191 216.051C90.5441 216.051 87.9941 220.476 87.9941 225.101C87.9941 229.726 90.6691 234.151 95.7941 234.151C101.844 234.151 103.394 229.901 103.394 225.601C103.394 224.226 102.919 223.801 101.794 223.801H98.0941C97.4691 223.801 97.0191 224.126 97.0191 224.826C97.0191 225.526 97.4691 225.851 98.0941 225.851H101.194Z" fill="#FF4D40"/>
<path d="M104.769 227.351C104.769 230.876 106.869 234.151 110.619 234.151C114.369 234.151 116.469 230.876 116.469 227.351C116.469 223.826 114.369 220.551 110.619 220.551C106.869 220.551 104.769 223.826 104.769 227.351ZM106.969 227.351C106.969 225.101 107.919 222.451 110.619 222.451C113.319 222.451 114.269 225.101 114.269 227.351C114.269 229.601 113.319 232.251 110.619 232.251C107.919 232.251 106.969 229.601 106.969 227.351Z" fill="#FF4D40"/>
<path d="M118.221 227.351C118.221 230.876 120.321 234.151 124.071 234.151C127.821 234.151 129.921 230.876 129.921 227.351C129.921 223.826 127.821 220.551 124.071 220.551C120.321 220.551 118.221 223.826 118.221 227.351ZM120.421 227.351C120.421 225.101 121.371 222.451 124.071 222.451C126.771 222.451 127.721 225.101 127.721 227.351C127.721 229.601 126.771 232.251 124.071 232.251C121.371 232.251 120.421 229.601 120.421 227.351Z" fill="#FF4D40"/>
<path d="M143.148 221.626C143.148 220.851 142.548 220.551 142.123 220.551C141.523 220.551 140.948 220.851 140.948 221.626V222.226H140.898C140.323 221.426 138.948 220.551 137.523 220.551C133.773 220.551 131.673 223.826 131.673 227.351C131.673 230.876 133.773 234.151 137.523 234.151C139.023 234.151 140.223 233.401 140.898 232.251H140.948V233.401C140.948 235.301 140.123 237.501 137.323 237.501C134.948 237.501 133.973 235.951 132.973 235.951C132.273 235.951 132.048 236.526 132.048 236.976C132.048 238.101 134.873 239.401 137.148 239.401C140.748 239.401 143.148 237.001 143.148 233.051V221.626ZM133.873 227.351C133.873 225.101 134.823 222.451 137.523 222.451C140.223 222.451 141.173 225.101 141.173 227.351C141.173 229.601 140.223 232.251 137.523 232.251C134.823 232.251 133.873 229.601 133.873 227.351Z" fill="#FF4D40"/>
<path d="M148.34 217.226C148.34 216.501 147.915 216.051 147.24 216.051C146.565 216.051 146.14 216.501 146.14 217.226V232.976C146.14 233.701 146.565 234.151 147.24 234.151C147.915 234.151 148.34 233.701 148.34 232.976V217.226Z" fill="#FF4D40"/>
<path d="M160.917 228.201C161.867 228.201 162.142 227.801 162.142 227.026C162.142 223.826 160.042 220.551 156.417 220.551C152.692 220.551 150.442 223.751 150.442 227.351C150.442 230.876 152.292 234.151 156.542 234.151C159.142 234.151 161.867 232.501 161.867 231.426C161.867 230.801 161.467 230.451 161.067 230.451C160.242 230.451 159.492 232.251 156.567 232.251C154.092 232.251 152.642 230.476 152.642 228.201H160.917ZM152.642 226.551C152.717 224.526 153.692 222.401 156.417 222.451C158.842 222.501 159.942 224.651 159.942 226.551H152.642Z" fill="#FF4D40"/>
</svg>
