<svg width="250" height="250" viewBox="0 0 250 250" fill="none" xmlns="http://www.w3.org/2000/svg">
<path d="M208.714 155.707H158.719C158.333 155.707 157.953 155.551 157.679 155.277C157.41 155.003 157.254 154.628 157.254 154.242V128.256C157.254 127.45 157.908 126.791 158.719 126.791C159.524 126.791 160.184 127.45 160.184 128.256V152.777H208.714C215.873 152.772 222.601 149.989 227.66 144.926C232.723 139.862 235.506 133.129 235.511 125.971C235.506 118.696 232.64 111.884 227.43 106.796C227.069 106.444 226.912 105.922 227.02 105.434C227.494 103.266 227.732 101.015 227.732 98.7393C227.732 91.9717 225.624 85.5215 221.634 80.082C221.443 79.8232 221.346 79.5205 221.351 79.2031C221.356 78.7344 221.576 78.3096 221.951 78.0361C222.576 77.5723 223.538 77.7236 223.997 78.3486C226.121 81.2441 227.771 84.4326 228.899 87.8262C230.071 91.3369 230.662 95.0088 230.662 98.7393C230.662 100.951 230.457 103.148 230.046 105.272C235.458 110.844 238.441 118.197 238.441 125.971C238.441 129.984 237.655 133.881 236.102 137.548C234.607 141.088 232.464 144.267 229.735 146.997C227.005 149.726 223.826 151.874 220.286 153.369C216.62 154.921 212.728 155.707 208.714 155.707ZM105.052 155.707H51.6636C47.6499 155.707 43.7534 154.921 40.0913 153.368C36.5513 151.874 33.3677 149.73 30.6382 146.996C27.9087 144.266 25.7651 141.087 24.2661 137.547C22.7134 133.88 21.9272 129.984 21.9272 125.97C21.9272 124.774 22.0005 123.573 22.1421 122.391C22.2349 121.6 22.9722 121.015 23.7681 121.112C24.5688 121.209 25.145 121.942 25.0474 122.743C24.9204 123.808 24.8569 124.896 24.8569 125.97C24.8569 133.128 27.645 139.862 32.7085 144.925C37.772 149.984 44.5054 152.772 51.6636 152.777H103.587V123.48C103.587 123.094 103.744 122.718 104.017 122.445C104.291 122.171 104.667 122.015 105.052 122.015H143.963C144.769 122.015 145.428 122.669 145.428 123.48C145.428 124.285 144.769 124.945 143.963 124.945H106.517V154.242C106.517 154.632 106.366 154.999 106.087 155.277C105.814 155.551 105.448 155.707 105.052 155.707ZM150.95 127.719C150.145 127.719 149.491 127.064 149.491 126.254C149.491 125.449 150.145 124.789 150.95 124.789C151.761 124.789 152.415 125.449 152.415 126.254C152.415 127.064 151.761 127.719 150.95 127.719ZM26.3999 114.73C26.1704 114.73 25.9507 114.677 25.7407 114.574C25.0229 114.208 24.73 113.324 25.0913 112.606C25.3452 112.108 25.8481 111.801 26.4048 111.801C26.6343 111.801 26.854 111.854 27.064 111.957C27.7817 112.323 28.0747 113.203 27.7085 113.925C27.4595 114.423 26.9565 114.73 26.3999 114.73ZM32.2007 106.938C31.7954 106.938 31.4194 106.771 31.1411 106.479C30.8774 106.205 30.7358 105.844 30.7358 105.468C30.7358 105.063 30.897 104.687 31.1948 104.408C36.356 99.5059 43.1138 96.6152 50.2183 96.2783C50.106 95.2285 50.0474 94.1445 50.0474 93.0605C50.0474 85.2383 53.0649 77.8506 58.5386 72.2647C61.1997 69.5449 64.3052 67.3916 67.772 65.8633C71.3511 64.2813 75.1597 63.4365 79.0952 63.3438C80.4624 56.7568 84.0903 50.7656 89.3101 46.4639C91.9175 44.3203 94.8374 42.6504 97.9917 41.498C101.253 40.3018 104.686 39.7012 108.197 39.6963C113.182 39.6963 118.124 40.9609 122.489 43.3535C125.594 38.8223 129.784 35.0479 134.618 32.4453C137.079 31.1172 139.695 30.0967 142.4 29.4033C145.188 28.6953 148.074 28.334 150.975 28.334C155.633 28.334 160.155 29.2471 164.408 31.0439C168.519 32.7822 172.21 35.2725 175.384 38.4414C178.553 41.6104 181.043 45.3018 182.781 49.4131C184.583 53.6709 185.496 58.1924 185.496 62.8506C185.496 63.8711 185.447 64.9111 185.355 65.9414C188.817 64.7988 192.449 64.2227 196.141 64.2227C200.189 64.2227 204.154 64.916 207.923 66.2832C208.29 66.415 208.583 66.6836 208.748 67.04C208.915 67.3965 208.934 67.792 208.802 68.1582C208.592 68.7393 208.035 69.125 207.425 69.125C207.254 69.125 207.084 69.0957 206.922 69.0371C203.475 67.7871 199.847 67.1523 196.141 67.1523C191.985 67.1523 187.952 67.9434 184.164 69.5059C183.685 69.7012 183.104 69.623 182.699 69.3008C182.284 68.9688 182.078 68.4414 182.162 67.919C182.43 66.2393 182.566 64.5303 182.566 62.8506C182.566 54.4131 179.276 46.4785 173.309 40.5117C167.342 34.5498 159.412 31.2637 150.975 31.2637C140.022 31.2637 130.013 36.8057 124.198 46.0928C123.929 46.5225 123.465 46.7812 122.958 46.7812C122.689 46.7812 122.425 46.708 122.196 46.5664C117.977 43.9932 113.138 42.6309 108.197 42.626H108.187C95.0083 42.626 83.8901 52.0547 81.7564 65.0381C81.644 65.751 81.0337 66.2686 80.3159 66.2686H79.7837C72.6255 66.2686 65.8921 69.0566 60.8286 74.1152C55.7651 79.1787 52.9819 85.9072 52.9771 93.0605C52.9771 94.5693 53.0991 96.0537 53.3384 97.4649C53.4067 97.8897 53.2896 98.3242 53.0112 98.6563C52.7329 98.9834 52.3228 99.1738 51.8931 99.1738H51.6636C44.769 99.1738 38.2114 101.786 33.2065 106.532C32.938 106.791 32.5767 106.938 32.2007 106.938ZM215.975 73.7588C215.658 73.7588 215.355 73.6611 215.096 73.4658C214.452 72.9824 214.319 72.0596 214.808 71.415C215.086 71.0439 215.511 70.8291 215.975 70.8291C216.297 70.8291 216.6 70.9316 216.854 71.1221C216.854 71.1221 216.854 71.1221 216.859 71.127C217.503 71.6104 217.635 72.5283 217.147 73.1777C216.868 73.5488 216.444 73.7588 215.975 73.7588Z" fill="#141517"/>
<path d="M26.6928 140.702C26.4388 140.702 26.1898 140.639 25.9701 140.512C22.5472 138.564 19.5834 135.995 17.1566 132.88C14.7054 129.726 12.9379 126.181 11.9076 122.338C11.7025 121.556 12.1664 120.751 12.9476 120.541C13.7191 120.335 14.5345 120.814 14.7396 121.581C16.1605 126.883 19.1439 131.571 23.3724 135.141C22.4154 132.181 21.9271 129.096 21.9271 125.971C21.9271 118.275 24.8568 110.98 30.1742 105.424C35.4721 99.8916 42.5863 96.6445 50.2181 96.2783C50.1058 95.2285 50.0472 94.1445 50.0472 93.0606C50.0521 85.2383 53.0648 77.8506 58.5385 72.2647C61.1996 69.5449 64.3051 67.3916 67.7719 65.8633C71.351 64.2813 75.1596 63.4365 79.0951 63.3438C80.4623 56.7568 84.0902 50.7656 89.3148 46.4639C91.9174 44.3203 94.8373 42.6504 97.9916 41.4981C101.253 40.3066 104.686 39.7012 108.197 39.7012C108.431 39.7012 108.646 39.7012 108.861 39.7061C109.662 39.7256 110.291 40.3652 110.291 41.166C110.291 41.1758 110.291 41.1904 110.291 41.2051C110.277 42.001 109.603 42.6602 108.797 42.6357C108.592 42.6309 108.392 42.6309 108.197 42.6309H108.192C95.0082 42.6309 83.89 52.0547 81.7562 65.0381C81.6439 65.751 81.0336 66.2686 80.3158 66.2686H79.7836C72.6254 66.2686 65.892 69.0518 60.8285 74.1152C55.765 79.1738 52.9818 85.9072 52.9769 93.0606C52.9769 94.5694 53.099 96.0489 53.3383 97.4649C53.4066 97.8897 53.2894 98.3242 53.0111 98.6563C52.7328 98.9834 52.3226 99.1739 51.8929 99.1739H51.6635C44.5053 99.1739 37.7719 101.962 32.7084 107.021C27.6449 112.084 24.8568 118.812 24.8568 125.971C24.8568 130.336 25.9408 134.691 27.9867 138.549C28.2943 139.126 28.1771 139.838 27.7133 140.288C27.4398 140.556 27.0785 140.702 26.6928 140.702ZM12.4691 113.744C12.4301 113.744 12.391 113.744 12.347 113.739C11.9564 113.71 11.6 113.524 11.3461 113.227C11.097 112.929 10.975 112.547 11.0043 112.162C11.0726 111.366 11.7904 110.755 12.5863 110.819C12.9769 110.853 13.3334 111.034 13.5824 111.337C13.8363 111.635 13.9584 112.011 13.9242 112.401C13.9242 112.401 13.9242 112.401 13.9242 112.406C13.8607 113.158 13.2211 113.744 12.4691 113.744ZM14.9252 104.345V104.32V104.345C14.7103 104.345 14.5053 104.301 14.3148 104.213C13.7924 103.974 13.4554 103.446 13.4603 102.875C13.4603 102.665 13.5043 102.465 13.5922 102.27C15.8334 97.377 19.3734 93.1729 23.8265 90.1162C28.3724 86.9961 33.6898 85.209 39.2025 84.9453C39.0853 83.8711 39.0267 82.792 39.0267 81.7422C39.0267 73.9102 42.0443 66.5225 47.5131 60.9316C50.1791 58.2168 53.2846 56.0586 56.7514 54.5303C60.3256 52.9482 64.139 52.1035 68.0746 52.0108C69.4418 45.4238 73.0746 39.4326 78.2943 35.1357C80.8969 32.9971 83.8168 31.3272 86.9711 30.1748C90.2328 28.9834 93.6654 28.3779 97.1762 28.3779C102.171 28.3779 107.113 29.6377 111.468 32.0205C114.574 27.4941 118.768 23.7246 123.597 21.1172C126.058 19.7891 128.675 18.7686 131.38 18.0752C134.168 17.3623 137.054 17.001 139.954 17.001C146.078 17.001 152.093 18.627 157.352 21.7031C162.454 24.6865 166.737 28.959 169.73 34.0566C170.072 34.6377 169.975 35.375 169.491 35.8486C169.017 36.3076 168.251 36.3906 167.689 36.0391C162.684 32.9141 156.903 31.2637 150.976 31.2637C141.635 31.2637 132.821 35.3652 126.801 42.5137C126.303 43.1094 125.336 43.1973 124.74 42.6943C124.442 42.4404 124.257 42.0889 124.223 41.6982C124.188 41.3076 124.31 40.9316 124.564 40.6289C131.132 32.8164 140.761 28.334 150.975 28.334H150.985C155.399 28.334 159.706 29.1592 163.778 30.7852C157.767 23.8857 149.091 19.9307 139.955 19.9307C129.008 19.9307 118.998 25.4727 113.178 34.7598C112.909 35.1943 112.44 35.4482 111.937 35.4482C111.669 35.4482 111.405 35.375 111.171 35.2334C106.967 32.665 102.128 31.3076 97.1766 31.3076C83.9833 31.3076 72.87 40.7315 70.7362 53.7197C70.619 54.4375 69.994 54.9551 69.2616 54.9453L68.7343 54.9356C61.5858 54.9453 54.8622 57.7285 49.8036 62.7822C44.745 67.8457 41.9569 74.5791 41.9569 81.7422C41.9569 83.1777 42.079 84.6572 42.3182 86.1416C42.3866 86.5664 42.2645 87.001 41.9862 87.3233C41.7079 87.6553 41.3026 87.8408 40.8729 87.8408H40.6434C30.1893 87.8408 20.619 93.9834 16.2587 103.49C16.0189 104.013 15.4965 104.345 14.9252 104.345ZM118.363 44.5107V44.4863V44.5107C118.182 44.5107 118.006 44.4815 117.84 44.418H117.835C117.469 44.2764 117.181 43.9981 117.02 43.6416C116.864 43.2852 116.854 42.8848 116.995 42.5234C117.274 41.791 118.153 41.4004 118.89 41.6787C118.89 41.6836 118.89 41.6836 118.89 41.6836C119.256 41.8252 119.544 42.0986 119.701 42.4551C119.857 42.8115 119.867 43.2119 119.73 43.5732C119.51 44.1348 118.963 44.5107 118.363 44.5107Z" fill="#141517"/>
<path d="M158.719 190.478H109.168C108.783 190.478 108.407 190.326 108.133 190.053C107.865 189.779 107.704 189.398 107.704 189.013L107.708 178.851C107.708 178.046 108.363 177.386 109.168 177.386C109.979 177.386 110.633 178.046 110.633 178.851V187.552H157.254V128.876H110.633V159.315C110.638 159.315 110.638 159.32 110.638 159.32C110.638 160.131 109.979 160.785 109.168 160.785C108.363 160.785 107.704 160.131 107.704 159.32V127.416C107.704 127.025 107.86 126.65 108.133 126.376C108.407 126.103 108.783 125.946 109.168 125.946H158.719C159.104 125.946 159.481 126.103 159.754 126.376C160.028 126.65 160.184 127.025 160.184 127.416V189.013C160.184 189.403 160.028 189.774 159.754 190.053C159.476 190.326 159.11 190.478 158.719 190.478ZM109.168 170.55C108.363 170.55 107.704 169.891 107.704 169.085C107.704 168.28 108.363 167.621 109.168 167.621C109.979 167.621 110.633 168.28 110.633 169.085C110.633 169.892 109.979 170.55 109.168 170.55Z" fill="#FF4D40"/>
<path d="M109.168 182.89H105.052C104.671 182.89 104.29 182.733 104.017 182.46C103.743 182.186 103.587 181.811 103.587 181.425V160.268C103.587 159.457 104.246 158.798 105.052 158.798C105.862 158.798 106.517 159.457 106.517 160.268V179.955H107.703V127.411C107.703 127.025 107.864 126.649 108.133 126.376C108.406 126.103 108.782 125.946 109.168 125.946H149.485V124.945H106.516V140.736C106.516 141.542 105.862 142.201 105.051 142.201C104.246 142.201 103.586 141.542 103.586 140.736V123.48C103.586 123.095 103.743 122.718 104.016 122.445C104.29 122.171 104.666 122.016 105.051 122.016H150.95C151.335 122.016 151.716 122.171 151.985 122.445C152.259 122.719 152.415 123.095 152.415 123.48V127.411C152.415 127.802 152.263 128.173 151.985 128.451C151.711 128.725 151.345 128.876 150.95 128.876H110.633V181.425C110.633 181.815 110.481 182.182 110.208 182.46C109.93 182.733 109.559 182.89 109.168 182.89ZM105.052 151.962C104.246 151.962 103.587 151.308 103.587 150.497C103.587 149.691 104.246 149.037 105.052 149.037C105.862 149.037 106.517 149.691 106.517 150.497C106.517 151.308 105.862 151.962 105.052 151.962Z" fill="#FF4D40"/>
<path d="M147.259 141.63H120.628C119.823 141.63 119.164 140.976 119.164 140.165C119.164 139.359 119.823 138.7 120.628 138.7H147.259C148.065 138.7 148.724 139.359 148.724 140.165C148.724 140.976 148.065 141.63 147.259 141.63Z" fill="#FF4D40"/>
<path d="M147.259 150.819H120.628C119.823 150.819 119.164 150.16 119.164 149.354C119.164 148.549 119.823 147.89 120.628 147.89H147.259C148.07 147.89 148.724 148.549 148.724 149.354C148.724 150.16 148.07 150.819 147.259 150.819Z" fill="#FF4D40"/>
<path d="M147.259 159.994H120.628C119.823 159.994 119.164 159.334 119.164 158.529C119.164 157.724 119.823 157.064 120.628 157.064H147.259C148.07 157.064 148.724 157.724 148.724 158.529C148.724 159.335 148.07 159.994 147.259 159.994Z" fill="#FF4D40"/>
<path d="M147.259 169.184H120.628C119.823 169.184 119.164 168.524 119.164 167.719C119.164 166.908 119.823 166.254 120.628 166.254H147.259C148.07 166.254 148.724 166.908 148.724 167.719C148.724 168.524 148.07 169.184 147.259 169.184Z" fill="#FF4D40"/>
<path d="M90.0387 207.901H90.0887L94.3387 222.251C94.5637 222.976 94.9637 223.151 95.4637 223.151C95.9637 223.151 96.3637 222.976 96.5887 222.251L100.839 207.901H100.889L102.964 222.201C103.064 222.976 103.564 223.151 104.139 223.151C104.814 223.151 105.164 222.701 105.164 222.026C105.164 221.776 105.114 221.451 105.039 221.026L102.614 206.726C102.414 205.476 101.689 205.051 100.889 205.051C100.014 205.051 99.5387 205.376 99.2887 206.201L95.4887 219.226H95.4387L91.6387 206.201C91.3887 205.376 90.9137 205.051 90.0387 205.051C89.2387 205.051 88.5137 205.476 88.3137 206.726L85.8887 221.026C85.8137 221.451 85.7637 221.776 85.7637 222.026C85.7637 222.701 86.1137 223.151 86.7887 223.151C87.3637 223.151 87.8637 222.976 87.9637 222.201L90.0387 207.901Z" fill="#FF4D40"/>
<path d="M109.538 210.726C109.538 210.001 109.113 209.551 108.438 209.551C107.763 209.551 107.338 210.001 107.338 210.726V221.976C107.338 222.701 107.763 223.151 108.438 223.151C109.113 223.151 109.538 222.701 109.538 221.976V210.726ZM107.088 206.401C107.088 207.151 107.688 207.751 108.438 207.751C109.188 207.751 109.788 207.151 109.788 206.401C109.788 205.651 109.188 205.051 108.438 205.051C107.688 205.051 107.088 205.651 107.088 206.401Z" fill="#FF4D40"/>
<path d="M111.866 216.351C111.866 219.876 113.816 223.151 117.866 223.151C120.141 223.151 121.366 222.251 121.366 221.426C121.366 220.826 121.016 220.501 120.516 220.501C119.816 220.501 119.416 221.251 117.866 221.251C115.141 221.251 114.066 218.601 114.066 216.351C114.066 214.101 115.141 211.451 117.866 211.451C119.366 211.451 119.691 212.151 120.541 212.151C121.066 212.151 121.441 211.676 121.441 211.226C121.441 210.326 120.116 209.551 117.866 209.551C113.816 209.551 111.866 212.826 111.866 216.351Z" fill="#FF4D40"/>
<path d="M123.549 221.976C123.549 222.701 123.974 223.151 124.649 223.151C125.324 223.151 125.749 222.701 125.749 221.976V215.651C125.749 213.076 127.349 212.101 128.649 211.876C129.574 211.701 130.024 211.301 130.024 210.676C130.024 210.051 129.574 209.551 128.799 209.551C127.524 209.551 126.299 210.826 125.799 211.851H125.749V210.726C125.749 210.001 125.324 209.551 124.649 209.551C123.974 209.551 123.549 210.001 123.549 210.726V221.976Z" fill="#FF4D40"/>
<path d="M130.86 216.351C130.86 219.876 132.96 223.151 136.71 223.151C140.46 223.151 142.56 219.876 142.56 216.351C142.56 212.826 140.46 209.551 136.71 209.551C132.96 209.551 130.86 212.826 130.86 216.351ZM133.06 216.351C133.06 214.101 134.01 211.451 136.71 211.451C139.41 211.451 140.36 214.101 140.36 216.351C140.36 218.601 139.41 221.251 136.71 221.251C134.01 221.251 133.06 218.601 133.06 216.351Z" fill="#FF4D40"/>
<path d="M144.587 213.301C144.587 217.001 151.687 216.851 151.687 219.451C151.687 220.351 150.712 221.251 149.112 221.251C146.712 221.251 145.912 219.626 144.937 219.626C144.462 219.626 144.037 220.026 144.037 220.626C144.037 221.751 146.237 223.151 149.037 223.151C151.512 223.151 153.887 221.826 153.887 219.051C153.887 215.201 146.787 215.451 146.787 213.126C146.787 212.001 147.862 211.451 149.112 211.451C151.212 211.451 151.587 212.801 152.537 212.801C153.212 212.801 153.537 212.376 153.537 211.901C153.537 210.526 150.937 209.551 149.112 209.551C146.887 209.551 144.587 210.851 144.587 213.301Z" fill="#FF4D40"/>
<path d="M155.421 216.351C155.421 219.876 157.521 223.151 161.271 223.151C165.021 223.151 167.121 219.876 167.121 216.351C167.121 212.826 165.021 209.551 161.271 209.551C157.521 209.551 155.421 212.826 155.421 216.351ZM157.621 216.351C157.621 214.101 158.571 211.451 161.271 211.451C163.971 211.451 164.921 214.101 164.921 216.351C164.921 218.601 163.971 221.251 161.271 221.251C158.571 221.251 157.621 218.601 157.621 216.351Z" fill="#FF4D40"/>
<path d="M172.348 211.601H173.723C174.448 211.601 174.823 211.251 174.823 210.651C174.823 210.051 174.448 209.701 173.723 209.701H172.348V207.826C172.348 207.276 172.573 206.951 173.248 206.951H173.798C174.623 206.951 174.998 206.601 174.998 206.001C174.998 205.401 174.323 205.051 173.748 205.051H173.073C171.473 205.051 170.148 206.001 170.148 207.926V209.701H169.248C168.523 209.701 168.148 210.051 168.148 210.651C168.148 211.251 168.523 211.601 169.248 211.601H170.148V221.976C170.148 222.701 170.573 223.151 171.248 223.151C171.923 223.151 172.348 222.701 172.348 221.976V211.601Z" fill="#FF4D40"/>
<path d="M176.617 209.701H175.717C174.992 209.701 174.617 210.051 174.617 210.651C174.617 211.251 174.992 211.601 175.717 211.601H176.617V221.976C176.617 222.701 177.042 223.151 177.717 223.151C178.392 223.151 178.817 222.701 178.817 221.976V211.601H179.717C180.442 211.601 180.817 211.251 180.817 210.651C180.817 210.051 180.442 209.701 179.717 209.701H178.817V206.826C178.817 206.101 178.392 205.651 177.717 205.651C177.042 205.651 176.617 206.101 176.617 206.826V209.701Z" fill="#FF4D40"/>
</svg>
