<svg width="250" height="250" viewBox="0 0 250 250" fill="none" xmlns="http://www.w3.org/2000/svg">
<path d="M42.5483 194.462H42.539C42.1691 194.462 41.8084 194.31 41.5448 194.046L20.5422 172.544C20.1537 172.142 20.0428 171.554 20.2555 171.037C20.4728 170.523 20.9722 170.19 21.5271 170.186L32.5787 170.112V59.8131C32.5787 59.0501 33.1983 58.4258 33.9659 58.4258C34.7289 58.4258 35.3532 59.0501 35.3532 59.8131V171.49C35.3532 172.252 34.7335 172.872 33.9752 172.877L24.8102 172.937L42.5251 191.077L60.0042 172.71L50.8439 172.77C50.474 172.77 50.1272 172.627 49.8636 172.368C49.6 172.105 49.4567 171.753 49.4567 171.383V56.493H47.7504C46.9828 56.493 46.3631 55.8687 46.3631 55.1057C46.3631 54.3381 46.9828 53.7185 47.7504 53.7185H50.8439C51.2092 53.7185 51.5653 53.8665 51.8242 54.1208C52.0832 54.3798 52.2311 54.7404 52.2311 55.1057V169.987L63.2596 169.913C63.8099 169.913 64.3093 170.241 64.5312 170.75C64.7532 171.263 64.6468 171.855 64.263 172.257L43.5424 194.032C43.2835 194.305 42.9228 194.462 42.5483 194.462ZM38.5022 56.493C37.7346 56.493 37.1149 55.8687 37.1149 55.1057C37.1149 54.3381 37.7346 53.7185 38.5022 53.7185C39.2651 53.7185 39.8894 54.3381 39.8894 55.1057C39.8894 55.8687 39.2651 56.493 38.5022 56.493Z" fill="#141517"/>
<path d="M83.9801 194.462H83.9662C83.5917 194.462 83.231 194.305 82.972 194.032L62.2514 172.257C61.8676 171.855 61.7613 171.263 61.9832 170.749C62.2052 170.241 62.7046 169.912 63.2595 169.912H63.2687L74.2834 169.986V55.1057C74.2834 54.7404 74.4313 54.3798 74.6903 54.1208C74.9492 53.8665 75.3053 53.7185 75.6706 53.7185H78.7687C79.5317 53.7185 80.1513 54.3381 80.1513 55.1057C80.1513 55.8687 79.5317 56.493 78.7687 56.493H77.0578V171.383C77.0578 171.753 76.9145 172.105 76.6509 172.368C76.3873 172.628 76.0405 172.771 75.6706 172.771H75.6613L66.5102 172.711L83.9893 191.077L101.695 172.938L92.5439 172.877C91.7809 172.872 91.1613 172.253 91.1613 171.49V59.8131C91.1613 59.0501 91.7856 58.4258 92.5486 58.4258C93.3162 58.4258 93.9358 59.0501 93.9358 59.8131V170.112L104.974 170.186C105.533 170.19 106.032 170.523 106.245 171.037C106.458 171.554 106.347 172.142 105.958 172.544L84.9697 194.046C84.7107 194.31 84.35 194.462 83.9801 194.462ZM88.0169 56.493C87.2493 56.493 86.6297 55.8687 86.6297 55.1057C86.6297 54.3381 87.2493 53.7185 88.0169 53.7185C88.7799 53.7185 89.3995 54.3381 89.3995 55.1057C89.3995 55.8687 88.7799 56.493 88.0169 56.493Z" fill="#141517"/>
<path d="M131.178 194.462C130.415 194.462 129.791 193.843 129.791 193.075C129.791 192.312 130.415 191.688 131.178 191.688H132.87V76.7974C132.87 76.4228 133.018 76.076 133.282 75.8125C133.541 75.5535 133.888 75.4102 134.258 75.4102H134.267L143.432 75.4703L125.957 57.1033L108.238 75.2437L117.389 75.3038C118.147 75.3038 118.767 75.9281 118.767 76.691V188.372V188.377C118.767 189.14 118.147 189.764 117.38 189.764C116.617 189.764 115.992 189.14 115.992 188.377V78.069L104.955 77.995C104.4 77.9904 103.9 77.6575 103.683 77.1396C103.47 76.6263 103.581 76.039 103.974 75.6367L124.977 54.1347C125.236 53.8665 125.597 53.7185 125.971 53.7185H125.976C126.35 53.7185 126.716 53.8757 126.975 54.1485L147.691 75.9188C148.074 76.3257 148.181 76.9176 147.959 77.4263C147.741 77.9349 147.242 78.2632 146.687 78.2632H146.677L135.645 78.1939V193.075C135.645 193.445 135.501 193.796 135.238 194.055C134.978 194.318 134.628 194.462 134.258 194.462H131.178ZM121.93 194.462C121.167 194.462 120.542 193.838 120.542 193.075C120.542 192.312 121.167 191.688 121.93 191.688C122.693 191.688 123.317 192.312 123.317 193.075C123.317 193.838 122.693 194.462 121.93 194.462Z" fill="#FF4D40"/>
<path d="M167.408 194.462H167.395C167.02 194.458 166.659 194.3 166.401 194.032L145.68 172.257C145.301 171.855 145.194 171.263 145.412 170.749C145.633 170.241 146.133 169.912 146.688 169.912H146.697L157.717 169.986V55.1057C157.717 54.7358 157.865 54.3798 158.124 54.1208C158.378 53.8665 158.739 53.7185 159.104 53.7185H162.197C162.96 53.7185 163.585 54.3381 163.585 55.1057C163.585 55.8687 162.96 56.493 162.197 56.493H160.491V171.383C160.491 171.753 160.344 172.105 160.08 172.368C159.816 172.628 159.469 172.771 159.104 172.771H159.095L149.944 172.711L167.418 191.077L185.124 172.938L175.973 172.877C175.214 172.872 174.595 172.253 174.595 171.49V59.8131C174.595 59.0501 175.214 58.4258 175.982 58.4258C176.745 58.4258 177.369 59.0501 177.369 59.8131V170.112L188.407 170.186C188.962 170.19 189.461 170.523 189.674 171.037C189.891 171.55 189.776 172.142 189.387 172.539L168.398 194.046C168.139 194.31 167.778 194.462 167.408 194.462ZM171.445 56.493C170.678 56.493 170.058 55.8687 170.058 55.1057C170.058 54.3381 170.678 53.7185 171.445 53.7185C172.208 53.7185 172.832 54.3381 172.832 55.1057C172.832 55.8687 172.208 56.493 171.445 56.493Z" fill="#141517"/>
<path d="M209.405 194.463H209.395C209.025 194.463 208.665 194.31 208.405 194.047L187.403 172.545C187.014 172.142 186.899 171.551 187.116 171.037C187.329 170.524 187.828 170.191 188.388 170.186L199.421 170.112V59.8043C199.421 59.0367 200.045 58.4171 200.808 58.4171C201.575 58.4171 202.195 59.0367 202.195 59.8043V171.49C202.195 172.253 201.58 172.872 200.817 172.877L191.666 172.938L209.386 191.077L226.86 172.71L217.69 172.771C217.321 172.771 216.974 172.627 216.71 172.368C216.447 172.105 216.303 171.753 216.303 171.383L216.299 56.493H214.606C213.843 56.493 213.219 55.8687 213.219 55.1057C213.219 54.3381 213.843 53.7185 214.606 53.7185H217.686C218.051 53.7185 218.411 53.8665 218.671 54.1208C218.93 54.3798 219.073 54.7404 219.073 55.1057V169.987L230.115 169.913C230.67 169.913 231.17 170.241 231.387 170.75C231.609 171.263 231.503 171.856 231.119 172.257L210.403 194.033C210.144 194.306 209.779 194.463 209.405 194.463ZM205.358 56.4934C204.595 56.4934 203.971 55.8692 203.971 55.1062C203.971 54.3386 204.595 53.719 205.358 53.719C206.121 53.719 206.746 54.3386 206.746 55.1062C206.746 55.8692 206.121 56.4934 205.358 56.4934Z" fill="#141517"/>
<path d="M231.674 105.541H200.318C199.555 105.541 198.931 104.922 198.931 104.154C198.931 103.391 199.555 102.767 200.318 102.767H231.674C232.437 102.767 233.061 103.391 233.061 104.154C233.061 104.922 232.437 105.541 231.674 105.541ZM191.07 105.541C190.307 105.541 189.682 104.922 189.682 104.154C189.682 103.391 190.307 102.767 191.07 102.767C191.837 102.767 192.457 103.391 192.457 104.154C192.457 104.922 191.838 105.541 191.07 105.541ZM181.821 105.541H19.9778C19.2148 105.541 18.5952 104.922 18.5952 104.154C18.5952 103.391 19.2148 102.767 19.9778 102.767H181.821C182.589 102.767 183.209 103.391 183.209 104.154C183.209 104.922 182.589 105.541 181.821 105.541Z" fill="#FF4D40"/>
<path d="M231.674 116.81H200.318C199.555 116.81 198.931 116.186 198.931 115.423C198.931 114.656 199.555 114.036 200.318 114.036H231.674C232.437 114.036 233.061 114.656 233.061 115.423C233.061 116.186 232.437 116.81 231.674 116.81ZM191.07 116.81C190.307 116.81 189.682 116.186 189.682 115.423C189.682 114.656 190.307 114.036 191.07 114.036C191.837 114.036 192.457 114.656 192.457 115.423C192.457 116.186 191.838 116.81 191.07 116.81ZM181.821 116.81H19.9778C19.2148 116.81 18.5952 116.186 18.5952 115.423C18.5952 114.656 19.2148 114.036 19.9778 114.036H181.821C182.589 114.036 183.209 114.656 183.209 115.423C183.209 116.186 182.589 116.81 181.821 116.81Z" fill="#FF4D40"/>
<path d="M231.674 128.075H200.318C199.555 128.075 198.931 127.45 198.931 126.687C198.931 125.92 199.555 125.3 200.318 125.3H231.674C232.437 125.3 233.061 125.92 233.061 126.687C233.061 127.45 232.437 128.075 231.674 128.075ZM191.07 128.075C190.307 128.075 189.682 127.45 189.682 126.687C189.682 125.92 190.307 125.3 191.07 125.3C191.837 125.3 192.457 125.92 192.457 126.687C192.457 127.45 191.838 128.075 191.07 128.075ZM181.821 128.075H19.9778C19.2148 128.075 18.5952 127.45 18.5952 126.687C18.5952 125.92 19.2148 125.3 19.9778 125.3H181.821C182.589 125.3 183.209 125.92 183.209 126.687C183.209 127.45 182.589 128.075 181.821 128.075Z" fill="#FF4D40"/>
</svg>
