<svg width="250" height="250" viewBox="0 0 250 250" fill="none" xmlns="http://www.w3.org/2000/svg">
<path d="M94.2183 198.575C93.4077 198.575 92.7534 197.916 92.7534 197.111C92.7534 196.3 93.4077 195.646 94.2183 195.646H168.769C168.725 195.06 168.7 194.469 168.7 193.903C168.7 189.342 169.985 184.904 172.412 181.066C174.77 177.331 178.1 174.323 182.041 172.35V107.75C182.041 106.945 182.7 106.285 183.505 106.285C184.316 106.285 184.97 106.945 184.97 107.75V173.278C184.97 173.854 184.634 174.376 184.106 174.61C176.527 178.033 171.63 185.601 171.63 193.902C171.63 194.869 171.703 195.85 171.854 196.901C171.913 197.32 171.786 197.745 171.508 198.068C171.234 198.39 170.829 198.571 170.404 198.571L94.2183 198.575ZM84.4526 198.571C83.6421 198.571 82.9878 197.916 82.9878 197.111C82.9878 196.3 83.6421 195.646 84.4526 195.646C85.2583 195.646 85.9175 196.3 85.9175 197.111C85.9175 197.916 85.2583 198.571 84.4526 198.571ZM74.687 198.571H57.1187C56.7329 198.571 56.3569 198.414 56.0835 198.146C55.8101 197.872 55.6538 197.496 55.6538 197.111V43.7756C55.6538 43.7659 55.6538 43.7561 55.6538 43.7415C55.6538 43.7317 55.6538 43.7219 55.6538 43.7073C55.6538 42.9016 56.313 42.2424 57.1187 42.2424H183.505C183.891 42.2424 184.272 42.3987 184.541 42.6721C184.814 42.9456 184.97 43.3215 184.97 43.7073V88.219C184.97 89.0247 184.316 89.6838 183.505 89.6838C182.7 89.6838 182.041 89.0247 182.041 88.219V45.1721H58.5835V195.646H74.687C75.4927 195.646 76.1519 196.3 76.1519 197.111C76.1519 197.916 75.4927 198.571 74.687 198.571ZM183.505 99.4495C182.7 99.4495 182.041 98.7903 182.041 97.9846C182.041 97.179 182.7 96.5198 183.505 96.5198C184.316 96.5198 184.97 97.179 184.97 97.9846C184.97 98.7903 184.316 99.4495 183.505 99.4495Z" fill="#141517"/>
<path d="M149.809 108.37C149.003 108.37 148.344 107.716 148.344 106.905C148.344 106.1 149.003 105.44 149.809 105.44H168.539V57.0566H72.084V105.44H130.277C131.083 105.44 131.742 106.1 131.742 106.905C131.742 107.716 131.083 108.37 130.277 108.37H70.6191C70.2334 108.37 69.8525 108.214 69.584 107.94C69.3105 107.672 69.1543 107.291 69.1543 106.905V55.5918C69.1543 55.2061 69.3105 54.8301 69.584 54.5566C69.8574 54.2832 70.2334 54.127 70.6191 54.127H170.004C170.389 54.127 170.77 54.2832 171.039 54.5566C171.313 54.8301 171.469 55.2061 171.469 55.5918V106.905C171.469 107.296 171.317 107.667 171.039 107.94C170.765 108.219 170.395 108.37 170.004 108.37H149.809ZM140.043 108.37C139.232 108.37 138.578 107.716 138.578 106.905C138.578 106.1 139.232 105.44 140.043 105.44C140.848 105.44 141.508 106.1 141.508 106.905C141.508 107.716 140.848 108.37 140.043 108.37Z" fill="#141517"/>
<path d="M88.8574 134.776H72.0361C71.6504 134.776 71.2744 134.62 71.001 134.346C70.7275 134.073 70.5713 133.697 70.5713 133.311V116.49C70.5713 116.104 70.7275 115.728 71.001 115.455C71.2744 115.181 71.6504 115.025 72.0361 115.025H88.8574C89.2432 115.025 89.6191 115.181 89.8926 115.455C90.166 115.728 90.3223 116.104 90.3223 116.49V133.311C90.3223 133.702 90.166 134.068 89.8926 134.346C89.6142 134.625 89.248 134.776 88.8574 134.776ZM73.501 131.846H87.3926V117.955H73.501V131.846Z" fill="#141517"/>
<path d="M115.434 134.776H98.6123C98.2266 134.776 97.8506 134.62 97.5771 134.346C97.3037 134.073 97.1475 133.697 97.1475 133.311V116.49C97.1475 116.104 97.3037 115.728 97.5771 115.455C97.8506 115.181 98.2266 115.025 98.6123 115.025H115.434C115.819 115.025 116.196 115.181 116.469 115.455C116.743 115.728 116.898 116.104 116.898 116.49V133.311C116.898 133.702 116.747 134.068 116.469 134.346C116.19 134.625 115.824 134.776 115.434 134.776ZM100.077 131.846H113.969V117.955H100.077V131.846Z" fill="#141517"/>
<path d="M142.011 134.776H125.19C124.804 134.776 124.428 134.62 124.155 134.346C123.881 134.073 123.725 133.697 123.725 133.311V116.49C123.725 116.104 123.881 115.728 124.155 115.455C124.428 115.181 124.804 115.025 125.19 115.025H142.011C142.397 115.025 142.773 115.181 143.046 115.455C143.32 115.728 143.476 116.104 143.476 116.49V133.311C143.476 133.702 143.324 134.068 143.046 134.346C142.768 134.625 142.402 134.776 142.011 134.776ZM126.655 131.846H140.541V117.955H126.655V131.846Z" fill="#141517"/>
<path d="M168.588 134.776H151.772C151.386 134.776 151.006 134.62 150.732 134.346C150.458 134.073 150.302 133.697 150.302 133.311V116.49C150.302 116.104 150.458 115.728 150.732 115.455C151.006 115.181 151.386 115.025 151.772 115.025H168.588C168.974 115.025 169.35 115.181 169.624 115.455C169.897 115.728 170.053 116.104 170.053 116.49V133.311C170.053 133.702 169.901 134.068 169.624 134.346C169.35 134.625 168.979 134.776 168.588 134.776ZM153.232 131.846H167.124V117.955H153.232V131.846Z" fill="#141517"/>
<path d="M88.8574 158.781H72.0361C71.6504 158.781 71.2744 158.624 71.001 158.351C70.7275 158.078 70.5713 157.702 70.5713 157.316V140.499C70.5713 140.108 70.7275 139.733 71.001 139.459C71.2744 139.185 71.6504 139.029 72.0361 139.029H88.8574C89.2432 139.029 89.6191 139.19 89.8926 139.464C90.166 139.733 90.3223 140.114 90.3223 140.499V157.315C90.3223 157.706 90.166 158.078 89.8926 158.35C89.6142 158.629 89.248 158.781 88.8574 158.781ZM73.501 155.851H87.3926V141.959H73.501V155.851Z" fill="#141517"/>
<path d="M115.434 158.781H98.6123C98.2266 158.781 97.8506 158.624 97.5771 158.351C97.3037 158.078 97.1475 157.702 97.1475 157.316V140.499C97.1475 140.114 97.3037 139.733 97.5771 139.459C97.8506 139.185 98.2266 139.029 98.6123 139.029H115.434C115.819 139.029 116.196 139.19 116.469 139.464C116.743 139.733 116.898 140.114 116.898 140.499V157.315C116.898 157.706 116.747 158.078 116.469 158.35C116.19 158.629 115.824 158.781 115.434 158.781ZM100.077 155.851H113.969V141.959H100.077V155.851Z" fill="#141517"/>
<path d="M142.011 158.781H125.19C124.804 158.781 124.428 158.624 124.155 158.351C123.881 158.078 123.725 157.702 123.725 157.316V140.499C123.725 140.114 123.881 139.733 124.155 139.459C124.428 139.185 124.804 139.029 125.19 139.029H142.011C142.397 139.029 142.773 139.19 143.046 139.464C143.32 139.733 143.476 140.114 143.476 140.499V157.315C143.476 157.706 143.324 158.078 143.046 158.35C142.768 158.629 142.402 158.781 142.011 158.781ZM126.655 155.851H140.546V141.959H126.655V155.851Z" fill="#141517"/>
<path d="M168.588 158.78H151.772C151.386 158.78 151.006 158.624 150.732 158.351C150.458 158.077 150.302 157.701 150.302 157.316V140.494C150.302 140.109 150.458 139.733 150.732 139.459C151.006 139.186 151.386 139.029 151.772 139.029H168.588C168.974 139.029 169.35 139.191 169.624 139.459C169.897 139.733 170.053 140.109 170.053 140.494V157.316C170.053 157.706 169.901 158.078 169.624 158.351C169.35 158.629 168.979 158.78 168.588 158.78ZM153.232 155.851H167.124V141.959H153.232V155.851Z" fill="#141517"/>
<path d="M88.8574 182.769H72.0361C71.6504 182.769 71.2744 182.618 71.001 182.344C70.7275 182.071 70.5713 181.695 70.5713 181.309V164.503C70.5713 164.117 70.7275 163.736 71.001 163.463C71.2744 163.194 71.6504 163.038 72.0361 163.038H88.8574C89.2432 163.038 89.6191 163.194 89.8926 163.463C90.166 163.736 90.3223 164.117 90.3223 164.503V181.309C90.3223 181.7 90.166 182.067 89.8926 182.344C89.6142 182.618 89.248 182.769 88.8574 182.769ZM73.501 179.839H87.3926V165.963H73.501V179.839Z" fill="#141517"/>
<path d="M115.434 182.769H98.6123C98.2266 182.769 97.8506 182.618 97.5771 182.344C97.3037 182.071 97.1475 181.695 97.1475 181.309V164.503C97.1475 164.117 97.3037 163.736 97.5771 163.463C97.8506 163.194 98.2266 163.038 98.6123 163.038H115.434C115.819 163.038 116.196 163.194 116.469 163.463C116.743 163.736 116.898 164.117 116.898 164.503V181.309C116.898 181.7 116.747 182.067 116.469 182.344C116.19 182.618 115.824 182.769 115.434 182.769ZM100.077 179.839H113.969V165.963H100.077V179.839Z" fill="#141517"/>
<path d="M142.011 182.769H125.19C124.804 182.769 124.428 182.618 124.155 182.344C123.881 182.071 123.725 181.695 123.725 181.309V164.503C123.725 164.117 123.881 163.736 124.155 163.463C124.428 163.194 124.804 163.038 125.19 163.038H142.011C142.397 163.038 142.773 163.194 143.046 163.463C143.32 163.736 143.476 164.117 143.476 164.503V181.309C143.476 181.7 143.32 182.067 143.046 182.344C142.768 182.618 142.402 182.769 142.011 182.769ZM126.655 179.839H140.546V165.963H126.655V179.839Z" fill="#141517"/>
<path d="M168.588 182.774H151.772C151.386 182.774 151.006 182.618 150.732 182.344C150.458 182.071 150.302 181.695 150.302 181.309V164.502C150.302 164.117 150.458 163.736 150.732 163.462C151.006 163.194 151.386 163.037 151.772 163.037H168.588C168.974 163.037 169.35 163.194 169.624 163.462C169.897 163.736 170.053 164.112 170.053 164.502V181.309C170.053 181.7 169.901 182.066 169.624 182.344C169.35 182.623 168.979 182.774 168.588 182.774ZM153.232 179.844H167.124V165.967H153.232V179.844Z" fill="#141517"/>
<path d="M85.3858 100.954H78.5889C78.2031 100.954 77.8223 100.798 77.5488 100.524C77.2803 100.251 77.124 99.875 77.124 99.4893V90.4365C77.124 90.0508 77.2803 89.6748 77.5537 89.4014C77.8223 89.1279 78.2031 88.9717 78.5889 88.9717H85.3858C85.7715 88.9717 86.1524 89.1279 86.4209 89.4014C86.6944 89.6748 86.8506 90.0508 86.8506 90.4365V99.4893C86.8506 99.875 86.6944 100.251 86.4209 100.524C86.1524 100.798 85.7715 100.954 85.3858 100.954ZM80.0537 98.0244H83.9209V91.9014H80.0537V98.0244Z" fill="#FF4D40"/>
<path d="M100.664 100.953H93.8672C93.4814 100.953 93.1006 100.797 92.832 100.524C92.5586 100.25 92.4023 99.8741 92.4023 99.4884V73.0236C92.4023 72.6329 92.5586 72.257 92.832 71.9835C93.1006 71.7101 93.4814 71.5538 93.8672 71.5538H100.664C101.05 71.5538 101.431 71.7101 101.699 71.9835C101.973 72.257 102.129 72.6329 102.129 73.0236V99.4884C102.129 99.8741 101.973 100.25 101.699 100.524C101.431 100.797 101.05 100.953 100.664 100.953ZM95.332 98.0236H99.1992V74.4835H95.332V98.0236Z" fill="#FF4D40"/>
<path d="M115.942 100.953H109.146C108.76 100.953 108.379 100.797 108.105 100.523C107.837 100.25 107.681 99.8739 107.681 99.4882V82.33C107.681 81.9442 107.837 81.5682 108.105 81.2948C108.379 81.0214 108.76 80.8651 109.146 80.8651H115.942C116.328 80.8651 116.705 81.0262 116.978 81.2948C117.251 81.5682 117.407 81.9442 117.407 82.33V99.4882C117.407 99.8788 117.256 100.245 116.978 100.523C116.699 100.797 116.333 100.953 115.942 100.953ZM110.605 98.0233H114.478V83.7948H110.61L110.605 98.0233Z" fill="#FF4D40"/>
<path d="M131.221 100.954H124.419C124.033 100.954 123.657 100.798 123.384 100.524C123.111 100.251 122.954 99.8749 122.954 99.4891V76.6669C122.954 76.2762 123.11 75.9003 123.384 75.6268C123.657 75.3534 124.033 75.1971 124.419 75.1971H131.221C131.606 75.1971 131.983 75.3534 132.256 75.6268C132.53 75.9003 132.686 76.2811 132.686 76.6669V99.4891C132.686 99.8798 132.534 100.246 132.256 100.524C131.982 100.798 131.611 100.954 131.221 100.954ZM125.884 98.0243H129.756V78.1268H125.884V98.0243Z" fill="#FF4D40"/>
<path d="M146.497 100.953H139.695C139.31 100.953 138.933 100.797 138.66 100.523C138.387 100.25 138.23 99.8738 138.23 99.488V69.2292C138.23 68.8435 138.387 68.4675 138.66 68.1941C138.934 67.9206 139.31 67.7644 139.695 67.7644H146.497C146.883 67.7644 147.259 67.9206 147.532 68.1941C147.805 68.4675 147.962 68.8435 147.962 69.2292V99.488C147.962 99.8786 147.811 100.245 147.532 100.523C147.253 100.797 146.887 100.953 146.497 100.953ZM141.16 98.0232H145.032V70.6941H141.16V98.0232Z" fill="#FF4D40"/>
<path d="M161.778 100.954H154.991C154.605 100.954 154.229 100.798 153.956 100.524C153.682 100.251 153.526 99.875 153.526 99.4893V80.5781C153.526 80.1924 153.682 79.8164 153.956 79.543C154.229 79.2695 154.605 79.1133 154.991 79.1133H161.777C162.163 79.1133 162.54 79.2695 162.813 79.543C163.085 79.8164 163.242 80.1973 163.242 80.5781V99.4893C163.242 99.8799 163.091 100.246 162.813 100.524C162.534 100.798 162.168 100.954 161.778 100.954ZM156.456 98.0244H160.312V82.043H156.456V98.0244Z" fill="#FF4D40"/>
<path d="M38.3486 171.808C37.5381 171.808 36.8838 171.154 36.8838 170.343V99.7723C36.8838 98.9667 37.5381 98.3075 38.3486 98.3075C39.1543 98.3075 39.8135 98.9667 39.8135 99.7723V170.344C39.8135 171.154 39.1543 171.808 38.3486 171.808Z" fill="#FF4D40"/>
<path d="M38.3496 198.571C37.7832 198.571 37.2656 198.244 37.0264 197.736L29.0723 180.978C28.9795 180.788 28.9258 180.563 28.9258 180.353V176.261C28.9258 175.451 29.585 174.796 30.3906 174.796C31.2012 174.796 31.8555 175.451 31.8555 176.261V180.021L38.3496 193.693L44.8389 180.021V92.5112H31.8555V156.73C31.8555 157.536 31.2012 158.195 30.3906 158.195C29.585 158.195 28.9258 157.536 28.9258 156.73V91.0464C28.9258 90.6606 29.082 90.2847 29.3555 90.0112C29.6289 89.7378 30.0049 89.5815 30.3906 89.5815H46.3037C46.6895 89.5815 47.0654 89.7378 47.3389 90.0112C47.6123 90.2847 47.7686 90.6606 47.7686 91.0464V180.353C47.7686 180.563 47.7197 180.788 47.627 180.978L39.6729 197.735C39.4287 198.244 38.9111 198.571 38.3496 198.571ZM30.3906 167.96C29.585 167.96 28.9258 167.301 28.9258 166.496C28.9258 165.685 29.585 165.031 30.3906 165.031C31.2012 165.031 31.8555 165.685 31.8555 166.496C31.8555 167.301 31.2012 167.96 30.3906 167.96Z" fill="#FF4D40"/>
<path d="M46.3037 92.5117H30.3906C30.0098 92.5117 29.6289 92.3555 29.3555 92.082C29.082 91.8086 28.9258 91.4326 28.9258 91.0469V84.4844C28.9258 84.0986 29.082 83.7178 29.3555 83.4443C29.6289 83.1758 30.0049 83.0195 30.3906 83.0195H46.3037C46.6895 83.0195 47.0654 83.1758 47.3389 83.4443C47.6123 83.7178 47.7686 84.0986 47.7686 84.4844V91.0469C47.7686 91.4326 47.6123 91.8086 47.3389 92.082C47.0654 92.3555 46.6895 92.5117 46.3037 92.5117ZM31.8555 89.582H44.8389V85.9492H31.8555V89.582Z" fill="#FF4D40"/>
<path d="M46.3037 85.9491H30.3906C30.0049 85.9491 29.6289 85.7928 29.3555 85.5194C29.082 85.246 28.9258 84.87 28.9258 84.4843V70.2216C28.9307 68.3905 30.4297 66.8964 32.2705 66.8964H43.4229C45.8154 66.8964 47.7686 68.8495 47.7686 71.2421V84.4843C47.7686 84.87 47.6123 85.246 47.3389 85.5194C47.0654 85.7928 46.6895 85.9491 46.3037 85.9491ZM31.8555 83.0194H44.8389V71.2421C44.8389 70.4608 44.1992 69.826 43.4229 69.826H32.2705C32.041 69.826 31.8604 70.0018 31.8555 70.2216V83.0194Z" fill="#FF4D40"/>
<path d="M38.3496 198.571C37.7832 198.571 37.2656 198.243 37.0264 197.736L29.0723 180.978C28.9795 180.787 28.9258 180.563 28.9258 180.353V171.241C28.9258 170.856 29.082 170.475 29.3555 170.201C29.6289 169.932 30.0049 169.777 30.3906 169.777H46.3037C46.6895 169.777 47.0654 169.932 47.3389 170.201C47.6123 170.475 47.7686 170.85 47.7686 171.241V180.352C47.7686 180.563 47.7197 180.787 47.627 180.977L39.6729 197.735C39.4287 198.243 38.9111 198.571 38.3496 198.571ZM31.8555 180.021L38.3496 193.693L44.8389 180.021V172.701H31.8555V180.021Z" fill="#FF4D40"/>
<path d="M192.791 217.989C189.539 217.989 186.385 217.354 183.416 216.094C180.55 214.884 177.976 213.15 175.765 210.938C173.553 208.726 171.814 206.148 170.604 203.281C169.349 200.313 168.714 197.154 168.714 193.902C168.714 190.65 169.349 187.501 170.604 184.532C171.814 181.666 173.553 179.088 175.765 176.881C177.976 174.669 180.55 172.93 183.416 171.719C186.385 170.46 189.539 169.825 192.791 169.825C196.042 169.825 199.197 170.46 202.166 171.715C205.037 172.93 207.61 174.669 209.822 176.876C212.034 179.087 213.772 181.666 214.983 184.532C216.243 187.501 216.878 190.65 216.878 193.902C216.878 197.154 216.243 200.313 214.988 203.281C213.772 206.148 212.034 208.726 209.822 210.938C207.61 213.15 205.037 214.884 202.166 216.099C199.197 217.355 196.042 217.989 192.791 217.989ZM192.791 172.755C187.142 172.755 181.829 174.957 177.834 178.951C173.84 182.946 171.643 188.258 171.643 193.902C171.643 199.556 173.84 204.869 177.834 208.868C181.829 212.857 187.142 215.059 192.791 215.059C198.44 215.059 203.752 212.857 207.752 208.868C211.746 204.869 213.948 199.556 213.948 193.902C213.948 188.258 211.746 182.946 207.752 178.951C203.752 174.957 198.44 172.755 192.791 172.755Z" fill="#FF4D40"/>
<path d="M193.886 201.098C194.63 200.937 195.228 200.576 195.687 200.041C196.16 199.495 196.396 198.848 196.396 198.115C196.396 197.456 196.198 196.884 195.799 196.412C195.414 195.927 194.779 195.567 193.885 195.305V201.098H193.886ZM191.735 185.36C191.15 185.559 190.703 185.907 190.368 186.38C190.02 186.853 189.856 187.373 189.856 187.945C189.856 188.455 190.006 188.94 190.318 189.388C190.629 189.835 191.1 190.196 191.735 190.47V185.36H191.735ZM191.735 200.85V194.671C189.807 194.125 188.402 193.291 187.509 192.172C186.613 191.054 186.166 189.699 186.166 188.108C186.166 186.491 186.675 185.136 187.694 184.044C188.701 182.949 190.044 182.316 191.735 182.153V180.699H193.886V182.153C195.452 182.34 196.708 182.875 197.639 183.756C198.572 184.64 199.169 185.82 199.417 187.299L195.663 187.773C195.441 186.617 194.844 185.834 193.886 185.423V191.191C196.26 191.826 197.875 192.645 198.734 193.665C199.604 194.685 200.027 195.99 200.027 197.581C200.027 199.37 199.492 200.863 198.397 202.081C197.316 203.311 195.812 204.058 193.886 204.368V207.116H191.736V204.393C190.044 204.182 188.665 203.56 187.595 202.504C186.539 201.459 185.855 199.955 185.557 198.041L189.41 197.582C189.559 198.377 189.857 199.047 190.293 199.62C190.729 200.192 191.2 200.588 191.735 200.85Z" fill="#FF4D40"/>
<path d="M197.302 164.947C196.497 164.947 195.837 164.288 195.837 163.483V137.809C195.837 137.004 196.497 136.344 197.302 136.344C198.113 136.344 198.767 137.004 198.767 137.809V163.483C198.767 164.288 198.113 164.947 197.302 164.947Z" fill="#141517"/>
<path d="M191.226 146.051C190.864 146.051 190.518 145.919 190.249 145.675C189.648 145.138 189.6 144.21 190.137 143.609L196.216 136.832C196.733 136.256 197.705 136.202 198.286 136.72C198.574 136.984 198.75 137.34 198.769 137.73C198.789 138.122 198.657 138.497 198.398 138.79L192.319 145.562C192.041 145.875 191.646 146.051 191.226 146.051Z" fill="#141517"/>
<path d="M203.383 146.051C202.968 146.051 202.573 145.875 202.295 145.562L196.216 138.79C195.674 138.19 195.728 137.262 196.328 136.72C196.909 136.202 197.876 136.256 198.398 136.832L204.472 143.609C205.014 144.21 204.965 145.138 204.364 145.675C204.091 145.919 203.745 146.051 203.383 146.051Z" fill="#141517"/>
<path d="M211.488 160.358C210.683 160.358 210.023 159.703 210.023 158.893V123.903C210.023 123.092 210.683 122.438 211.488 122.438C212.293 122.438 212.953 123.092 212.953 123.903V158.893C212.953 159.703 212.294 160.358 211.488 160.358Z" fill="#FF4D40"/>
<path d="M205.411 132.14C205.05 132.14 204.703 132.007 204.435 131.768C204.141 131.504 203.971 131.143 203.946 130.752C203.927 130.362 204.058 129.991 204.322 129.698L210.401 122.921C210.919 122.345 211.891 122.291 212.467 122.809C212.76 123.072 212.93 123.429 212.955 123.819C212.975 124.21 212.843 124.586 212.579 124.879L206.499 131.656C206.227 131.964 205.826 132.14 205.411 132.14Z" fill="#FF4D40"/>
<path d="M217.566 132.14C217.151 132.14 216.75 131.964 216.477 131.651L210.398 124.879C209.856 124.278 209.905 123.351 210.511 122.809C211.087 122.291 212.058 122.345 212.575 122.921L218.655 129.698C218.918 129.991 219.05 130.362 219.031 130.758C219.006 131.148 218.836 131.504 218.542 131.764C218.274 132.008 217.928 132.14 217.566 132.14Z" fill="#FF4D40"/>
<path d="M48.0942 58.6731C47.2837 58.6731 46.6294 58.0188 46.6294 57.2082V34.5227C46.6294 34.137 46.7856 33.7561 47.0591 33.4875C47.3276 33.2141 47.7085 33.0579 48.0942 33.0579H114.535C115.345 33.0579 115.999 33.7122 115.999 34.5227C115.999 35.3284 115.345 35.9875 114.535 35.9875H49.5591V57.2082C49.5591 58.0188 48.8999 58.6731 48.0942 58.6731Z" fill="#141517"/>
</svg>
