<svg width="250" height="250" viewBox="0 0 250 250" fill="none" xmlns="http://www.w3.org/2000/svg">
<path d="M79.8249 215.834C80.5249 215.834 81.0899 215.269 81.0899 214.569C81.0899 213.873 80.5249 213.304 79.8249 213.304L67.7315 213.304L67.7315 80.3486C67.7315 79.6487 67.1623 79.0836 66.4665 79.0836C65.7712 79.0836 65.2015 79.6487 65.2015 80.3486L65.2015 214.569C65.2015 214.906 65.3327 215.227 65.5726 215.463C65.8129 215.703 66.1292 215.834 66.4665 215.834L79.8249 215.834ZM88.2582 215.834C88.9582 215.834 89.5232 215.269 89.5232 214.569C89.5232 213.873 88.9582 213.304 88.2582 213.304C87.5629 213.304 86.9978 213.873 86.9978 214.569C86.9978 215.269 87.5625 215.834 88.2582 215.834ZM96.6915 215.834L205.346 215.834C205.679 215.834 206.004 215.699 206.24 215.463C206.476 215.226 206.611 214.902 206.611 214.569L206.611 175.641C206.611 174.941 206.042 174.376 205.346 174.376C204.646 174.376 204.081 174.941 204.081 175.641L204.081 213.304L96.6915 213.304C95.9962 213.304 95.4265 213.873 95.4265 214.569L95.4265 214.603C95.448 215.294 96 215.834 96.6915 215.834ZM205.346 168.473C206.042 168.473 206.611 167.903 206.611 167.208C206.611 166.508 206.042 165.943 205.346 165.943C204.646 165.943 204.081 166.508 204.081 167.208C204.081 167.903 204.646 168.473 205.346 168.473ZM205.346 160.039C206.042 160.039 206.611 159.47 206.611 158.774L206.611 54.7746C206.611 54.4415 206.476 54.1168 206.24 53.8807C206.004 53.6446 205.679 53.5096 205.346 53.5096L66.4665 53.5096C66.1334 53.5096 65.8087 53.6446 65.5726 53.8807C65.3365 54.1168 65.2015 54.4415 65.2015 54.7746L65.2015 63.482C65.2015 64.1778 65.7712 64.747 66.4665 64.747C67.1623 64.747 67.7315 64.1778 67.7315 63.482L67.7315 56.0396L204.081 56.0396L204.081 158.774C204.081 159.47 204.646 160.039 205.346 160.039ZM66.4665 73.1803C67.1623 73.1803 67.7315 72.6111 67.7315 71.9153C67.7315 71.2154 67.1623 70.6503 66.4665 70.6503C65.7712 70.6503 65.2015 71.2154 65.2015 71.9153C65.2015 72.6111 65.7712 73.1803 66.4665 73.1803Z" fill="#141517"/>
<path d="M56.9658 205.376L66.4659 205.376C66.799 205.376 67.1242 205.241 67.3599 205.005C67.596 204.769 67.7309 204.444 67.7309 204.111L67.7309 200.253C67.7309 199.553 67.1617 198.988 66.4659 198.988C65.7706 198.988 65.2009 199.553 65.2009 200.253L65.2009 202.846L58.2308 202.846L58.2308 69.891C58.2308 69.191 57.6616 68.626 56.9658 68.626C56.2663 68.626 55.7008 69.191 55.7008 69.891L55.7008 204.111C55.7008 204.449 55.832 204.769 56.0723 205.005C56.308 205.246 56.6285 205.376 56.9658 205.376ZM66.4659 193.085C67.1617 193.085 67.7309 192.516 67.7309 191.82C67.7309 191.12 67.1617 190.555 66.4659 190.555C65.7706 190.555 65.2009 191.12 65.2009 191.82C65.2009 192.516 65.7706 193.085 66.4659 193.085ZM66.4659 184.651C67.1617 184.651 67.7309 184.082 67.7309 183.386L67.7309 56.0392L85.4409 56.0392C86.1366 56.0392 86.7059 55.4742 86.7059 54.7743C86.7059 54.0785 86.1366 53.5093 85.4409 53.5093L66.4659 53.5093C66.1328 53.5093 65.8082 53.6442 65.572 53.8803C65.3359 54.1165 65.201 54.4411 65.201 54.7742L65.2009 183.386C65.2009 184.082 65.7706 184.651 66.4659 184.651ZM56.9658 62.7226C57.6616 62.7226 58.2308 62.1534 58.2308 61.4576C58.2308 60.7577 57.6616 60.1927 56.9658 60.1927C56.2663 60.1927 55.7008 60.7577 55.7008 61.4576C55.7008 62.1534 56.2663 62.7226 56.9658 62.7226ZM93.8742 56.0392C94.57 56.0392 95.1392 55.4742 95.1392 54.7743C95.1392 54.0785 94.57 53.5093 93.8742 53.5093C93.1742 53.5093 92.6092 54.0785 92.6092 54.7743C92.6092 55.4742 93.1742 56.0392 93.8742 56.0392ZM102.308 56.0392L195.829 56.0393C196.162 56.0393 196.487 55.9043 196.723 55.6724C196.959 55.4363 197.094 55.1074 197.094 54.7743L197.094 44.3043C197.094 43.9712 196.959 43.6465 196.723 43.4104C196.491 43.1742 196.162 43.0393 195.829 43.0393L56.9658 43.0393C56.6327 43.0393 56.3042 43.1742 56.0723 43.4104C55.8358 43.6465 55.7008 43.9712 55.7008 44.3043L55.7008 53.0243C55.7008 53.7201 56.2663 54.2893 56.9658 54.2893C57.6616 54.2893 58.2308 53.7201 58.2308 53.0243L58.2308 45.5693L194.564 45.5693L194.564 53.5093L102.308 53.5093C101.608 53.5093 101.043 54.0785 101.043 54.7743C101.043 55.4742 101.608 56.0392 102.308 56.0392Z" fill="#141517"/>
<path d="M47.4484 195.383L56.9654 195.383C57.2943 195.383 57.6236 195.248 57.8593 195.012C58.0959 194.78 58.2304 194.451 58.2304 194.118L58.2304 190.259C58.2304 189.559 57.6612 188.994 56.9654 188.994C56.2659 188.994 55.7004 189.559 55.7004 190.259L55.7004 192.853L48.7138 192.853L48.7138 59.9099C48.7138 59.2099 48.1488 58.6449 47.4489 58.6449C46.7531 58.6449 46.1881 59.2099 46.1881 59.9099L46.1881 194.118C46.1881 194.459 46.3188 194.775 46.5549 195.012C46.7953 195.251 47.1115 195.383 47.4484 195.383ZM56.9654 183.091C57.6612 183.091 58.2304 182.522 58.2304 181.826C58.2304 181.126 57.6612 180.561 56.9654 180.561C56.2659 180.561 55.7004 181.126 55.7004 181.826C55.7004 182.522 56.2659 183.091 56.9654 183.091ZM56.9654 174.658C57.6612 174.658 58.2304 174.088 58.2304 173.393L58.2304 45.569L75.4597 45.569C76.1554 45.569 76.7247 45.004 76.7247 44.304C76.7247 43.6083 76.1554 43.039 75.4597 43.039L56.9654 43.039C56.6323 43.039 56.3076 43.174 56.0719 43.4101C55.8354 43.6462 55.7004 43.9709 55.7004 44.304L55.7004 173.393C55.7004 174.088 56.2659 174.658 56.9654 174.658ZM47.4484 52.7416C48.1484 52.7416 48.7134 52.1723 48.7134 51.4766C48.7134 50.7766 48.1484 50.2116 47.4484 50.2116C46.7527 50.2116 46.1877 50.7766 46.1877 51.4766C46.1877 52.1723 46.7527 52.7416 47.4484 52.7416ZM83.893 45.569C84.5887 45.569 85.158 45.004 85.158 44.304C85.158 43.6083 84.5887 43.039 83.893 43.039C83.1972 43.039 82.628 43.6083 82.628 44.304C82.628 45.004 83.1972 45.569 83.893 45.569ZM92.3263 45.569L186.316 45.569C186.649 45.569 186.973 45.4341 187.21 45.198C187.446 44.9618 187.581 44.6372 187.581 44.304L187.581 34.3232C187.581 33.9943 187.446 33.6654 187.21 33.4293C186.973 33.1932 186.649 33.0582 186.316 33.0582L47.4484 33.0582C47.1153 33.0582 46.7902 33.1931 46.5545 33.4293C46.3226 33.6654 46.1877 33.9901 46.1877 34.3232L46.1834 43.0433C46.1834 43.739 46.7527 44.3083 47.4484 44.3083C48.1484 44.3083 48.7134 43.739 48.7134 43.0433L48.7134 35.5882L185.051 35.5882L185.051 43.0391L92.3263 43.039C91.6306 43.039 91.0613 43.6083 91.0613 44.304C91.0613 45.004 91.6306 45.569 92.3263 45.569Z" fill="#141517"/>
<path d="M68.4905 79.5897L205.346 79.5897C205.679 79.5897 206.004 79.4547 206.24 79.2186C206.476 78.9825 206.611 78.6578 206.611 78.3247L206.611 67.5933C206.611 66.8975 206.042 66.3283 205.346 66.3283C204.646 66.3283 204.081 66.8975 204.081 67.5933L204.081 77.0597L68.4905 77.0597C67.7952 77.0597 67.2255 77.6247 67.2255 78.3247C67.2255 79.0204 67.7948 79.5897 68.4905 79.5897ZM66.4665 73.1803C67.1623 73.1803 67.7315 72.6111 67.7315 71.9153C67.7315 71.2154 67.1623 70.6503 66.4665 70.6503C65.7712 70.6503 65.2015 71.2154 65.2015 71.9153C65.2015 72.6111 65.7712 73.1803 66.4665 73.1803ZM66.4665 64.747C67.1623 64.747 67.7315 64.1778 67.7315 63.482L67.7315 56.0396L205.338 56.0396C205.342 56.0396 205.342 56.0396 205.346 56.0396C206.042 56.0396 206.611 55.4746 206.611 54.7746C206.611 54.0789 206.042 53.5096 205.346 53.5096L66.4665 53.5096C66.1334 53.5096 65.8087 53.6446 65.5726 53.8807C65.3365 54.1168 65.2015 54.4415 65.2015 54.7746L65.2015 63.482C65.2015 64.1778 65.7712 64.747 66.4665 64.747ZM205.346 60.425C206.042 60.425 206.611 59.8599 206.611 59.16C206.611 58.4642 206.042 57.895 205.346 57.895C204.646 57.895 204.081 58.4642 204.081 59.16C204.081 59.8599 204.646 60.425 205.346 60.425Z" fill="#141517"/>
<path d="M135.911 173.548C136.029 173.548 136.147 173.531 136.261 173.497L166.65 164.828C167.194 164.672 167.569 164.174 167.569 163.613L167.569 123.138C167.569 122.745 167.384 122.366 167.068 122.126C166.756 121.894 166.334 121.813 165.959 121.919L135.565 130.593C135.025 130.744 134.646 131.246 134.646 131.807L134.646 172.282C134.646 172.674 134.835 173.054 135.152 173.29C135.371 173.455 135.641 173.548 135.911 173.548ZM165.039 162.656L137.176 170.605L137.176 132.765L165.039 124.812L165.039 162.656Z" fill="#FF4D40"/>
<path d="M135.91 173.548C136.184 173.548 136.454 173.455 136.673 173.291C136.989 173.055 137.175 172.675 137.175 172.283L137.175 131.807C137.175 131.246 136.8 130.745 136.26 130.593L105.866 121.92C105.487 121.814 105.073 121.89 104.757 122.126C104.441 122.367 104.255 122.742 104.255 123.138L104.255 163.614C104.255 164.175 104.631 164.672 105.17 164.828L135.564 173.498C135.678 173.531 135.792 173.548 135.91 173.548ZM134.645 132.764L134.645 170.605L106.785 162.656L106.785 124.812L134.645 132.764Z" fill="#FF4D40"/>
<path d="M135.911 133.072C136.033 133.072 136.147 133.055 136.261 133.026L166.65 124.353C167.194 124.201 167.569 123.699 167.569 123.138C167.569 122.577 167.194 122.076 166.65 121.92L136.261 113.25C136.037 113.187 135.788 113.187 135.565 113.25L105.171 121.924C105.171 121.92 105.171 121.92 105.171 121.92C104.632 122.076 104.256 122.577 104.256 123.138C104.256 123.699 104.632 124.201 105.171 124.353L135.565 133.026C135.679 133.055 135.793 133.072 135.911 133.072ZM161.696 123.138L135.911 130.492L110.13 123.138L135.911 115.78L161.696 123.138Z" fill="#FF4D40"/>
<path d="M78.609 182.837L193.214 182.837C193.909 182.837 194.479 182.268 194.479 181.572C194.479 180.872 193.909 180.307 193.214 180.307L78.609 180.307C77.9137 180.307 77.344 180.872 77.344 181.572C77.344 182.268 77.9133 182.837 78.609 182.837Z" fill="#FF4D40"/>
<path d="M78.6093 190.88L193.21 190.88C193.91 190.88 194.475 190.31 194.475 189.615C194.475 188.915 193.91 188.35 193.21 188.35L78.6093 188.35C77.914 188.35 77.3443 188.915 77.3443 189.615C77.3443 190.311 77.9136 190.88 78.6093 190.88Z" fill="#FF4D40"/>
<path d="M82.8766 71.8464C85.803 71.8422 88.1812 69.4598 88.1812 66.5419C88.1812 63.6197 85.7992 61.2373 82.8766 61.2373C79.9587 61.2373 77.5767 63.6155 77.5721 66.5419C77.5767 67.9629 78.1286 69.2953 79.128 70.2947C80.1273 71.294 81.4556 71.8422 82.8766 71.8464ZM82.8766 63.7673C84.403 63.7715 85.6512 65.0154 85.6512 66.5419C85.6512 68.0725 84.403 69.3164 82.8766 69.3164C81.3249 69.3122 80.1067 68.0936 80.1021 66.5419C80.1021 65.0154 81.346 63.7715 82.8766 63.7673Z" fill="#FF4D40"/>
<path d="M99.6433 71.8464C101.06 71.8464 102.397 71.294 103.4 70.2947C104.404 69.2953 104.956 67.9629 104.96 66.5419C104.956 63.6197 102.574 61.2373 99.6433 61.2373C96.7211 61.2373 94.3391 63.6197 94.3391 66.5419C94.3391 67.9629 94.8953 69.2953 95.8946 70.2947C96.894 71.294 98.2265 71.8464 99.6433 71.8464ZM99.6433 63.7673C101.179 63.7673 102.427 65.0154 102.43 66.5419C102.43 68.0725 101.178 69.3164 99.6433 69.3164C98.1126 69.3164 96.8691 68.0725 96.8691 66.5419C96.8691 65.0154 98.1172 63.7673 99.6433 63.7673Z" fill="#FF4D40"/>
<path d="M118.079 148.805L153.748 148.805C154.443 148.805 155.013 148.24 155.013 147.54C155.013 146.844 154.443 146.275 153.748 146.275L118.079 146.275C117.383 146.275 116.814 146.844 116.814 147.54C116.814 148.24 117.383 148.805 118.079 148.805Z" fill="#FF4D40"/>
</svg>
