<svg width="157" height="157" viewBox="0 0 157 157" fill="none" xmlns="http://www.w3.org/2000/svg">
<path d="M78.9262 96.4609C77.7982 96.4609 76.6627 96.3916 75.5495 96.2547C75.3507 96.2298 75.1743 96.1305 75.0526 95.9714C74.9308 95.8149 74.8762 95.6211 74.901 95.4223C74.9507 95.0198 75.3259 94.7266 75.7309 94.7738C76.7844 94.9033 77.8603 94.9701 78.9262 94.9701C85.8362 94.9701 92.3337 92.2767 97.2236 87.3868C102.108 82.4969 104.802 75.9994 104.802 69.087C104.802 62.177 102.108 55.6795 97.2236 50.7896C92.3337 45.9047 85.8362 43.2113 78.9262 43.2113C72.0113 43.2113 65.5138 45.9047 60.6239 50.7921C55.7365 55.677 53.0456 62.1745 53.0431 69.087C53.0431 78.5835 58.2336 87.3048 66.5872 91.8443C66.8282 91.976 66.9773 92.227 66.9773 92.5006C66.9773 92.6248 66.9475 92.7463 66.8878 92.8559C66.7561 93.0969 66.5052 93.246 66.2319 93.246C66.1101 93.246 65.9859 93.2137 65.879 93.1565C65.8766 93.1565 65.8766 93.154 65.8766 93.154L65.8592 93.1441C61.6054 90.8306 58.0274 87.4169 55.5104 83.2699C52.9213 79.0061 51.5547 74.1013 51.5522 69.0872C51.5522 65.3925 52.2778 61.8095 53.704 58.4353C55.083 55.1754 57.0559 52.2509 59.5704 49.7364C62.0824 47.2243 65.0119 45.2515 68.2693 43.8725C71.646 42.4462 75.229 41.7207 78.9262 41.7207C82.621 41.7232 86.2039 42.4462 89.5781 43.8725C92.8353 45.2515 95.7626 47.2243 98.2771 49.7364C100.789 52.2509 102.762 55.1778 104.141 58.4353C105.567 61.8095 106.293 65.3925 106.293 69.0872C106.293 72.782 105.567 76.3674 104.141 79.7416C102.762 83.0015 100.789 85.9285 98.2771 88.4406C95.7626 90.9548 92.8356 92.9302 89.5781 94.3092C86.2039 95.7354 82.621 96.4609 78.9262 96.4609ZM70.7938 95.1962C70.7168 95.1962 70.6397 95.1838 70.5677 95.1592C70.1751 95.035 69.9589 94.615 70.0856 94.2222C70.185 93.9141 70.4683 93.7054 70.7938 93.7054C70.8708 93.7054 70.9453 93.7153 71.0199 93.7402C71.0199 93.7402 71.0199 93.7402 71.0224 93.7402C71.2112 93.7998 71.3653 93.9317 71.4572 94.1079C71.5491 94.2868 71.564 94.4881 71.5044 94.6769C71.405 94.9875 71.1193 95.1962 70.7938 95.1962Z" fill="white"/>
<path d="M82.9143 106.221H74.931C74.7347 106.221 74.5433 106.141 74.4042 106.002C74.2651 105.862 74.1855 105.671 74.1855 105.475V95.4121C74.1855 95.1934 74.28 94.9872 74.4464 94.8456C74.6079 94.7064 74.8291 94.6421 75.0428 94.6744C77.6244 95.067 80.2432 95.0642 82.8025 94.6744C83.0162 94.6421 83.2348 94.7042 83.4013 94.8456C83.5653 94.9872 83.6597 95.1934 83.6597 95.4121V105.475C83.6597 105.674 83.5827 105.86 83.4411 106.002C83.2994 106.141 83.1131 106.221 82.9143 106.221ZM75.6764 104.73H82.1689V96.2643C80.0146 96.5228 77.8331 96.5228 75.6764 96.2643V104.73Z" fill="white"/>
<path d="M84.4676 131.511H73.3784C71.9895 131.511 70.8589 130.383 70.8564 128.996V107.252C70.8564 105.861 71.9895 104.73 73.3784 104.73H84.4676C85.8566 104.73 86.9896 105.861 86.9896 107.252V128.996C86.9869 130.383 85.8566 131.511 84.4676 131.511ZM73.3784 130.02H84.4676C85.0366 130.02 85.4988 129.56 85.4988 128.996V107.252C85.4988 106.683 85.0366 106.221 84.4676 106.221H73.3784C72.8119 106.221 72.3473 106.683 72.3473 107.252V128.996C72.3473 129.56 72.8119 130.02 73.3784 130.02Z" fill="white"/>
<path d="M78.9266 88.1343C76.355 88.1343 73.8603 87.6299 71.5123 86.636C69.2438 85.6771 67.2063 84.3053 65.4571 82.5564C63.7078 80.8071 62.3363 78.7697 61.3772 76.5011C60.3833 74.1531 59.8789 71.6584 59.8789 69.0868C59.8789 68.8532 59.8839 68.6122 59.8913 68.3762C59.9062 67.9662 60.2442 67.6432 60.6641 67.6581C61.074 67.6755 61.3971 68.0208 61.3822 68.4308C61.3747 68.6544 61.3697 68.8756 61.3697 69.0868C61.3697 73.7754 63.196 78.1858 66.5131 81.5028C69.8277 84.8174 74.238 86.6437 78.9266 86.6437C83.6153 86.6437 88.0256 84.8174 91.3402 81.5028C94.6573 78.1858 96.4835 73.7779 96.4835 69.0868C96.4835 64.3982 94.657 59.9878 91.3402 56.6732C88.0229 53.3561 83.6153 51.5299 78.9266 51.5299C72.9932 51.5299 67.502 54.4966 64.2396 59.4635C64.1004 59.6747 63.8693 59.799 63.6159 59.799C63.4718 59.799 63.3302 59.7567 63.2084 59.6772C62.9947 59.5381 62.868 59.302 62.8705 59.0461C62.873 58.902 62.9152 58.7653 62.9947 58.6461C64.6943 56.0545 67.0249 53.8953 69.7357 52.3995C71.1147 51.6392 72.5857 51.0528 74.1038 50.6553C75.6717 50.2478 77.2942 50.0391 78.9266 50.0391C81.4983 50.0391 83.9929 50.5435 86.341 51.5373C88.6095 52.4964 90.647 53.868 92.3962 55.6172C94.1454 57.3664 95.517 59.4039 96.4761 61.6724C97.47 64.0205 97.9744 66.5151 97.9744 69.0868C97.9744 71.6584 97.47 74.1531 96.4761 76.5011C95.517 78.7697 94.1454 80.8071 92.3962 82.5564C90.647 84.3056 88.6095 85.6771 86.341 86.636C83.9929 87.6296 81.4983 88.1343 78.9266 88.1343ZM61.484 64.2712C61.4095 64.2712 61.3325 64.2588 61.2579 64.2364C60.8678 64.1097 60.6492 63.6898 60.7734 63.2997C60.8728 62.9891 61.1585 62.7804 61.484 62.7804C61.5611 62.7804 61.6381 62.7903 61.7101 62.8151C62.1027 62.9394 62.3189 63.3593 62.1947 63.7519V63.7544C62.0928 64.0625 61.8095 64.2712 61.484 64.2712Z" fill="#FF4D40"/>
<path d="M78.9257 126.911C78.148 126.908 77.4175 126.605 76.8684 126.058C76.3192 125.509 76.0161 124.779 76.0161 124.001C76.0161 122.396 77.3206 121.091 78.9257 121.089C80.5256 121.091 81.8278 122.396 81.8301 124.001C81.8301 125.604 80.5256 126.911 78.9257 126.911ZM78.9257 122.58C78.143 122.582 77.5069 123.218 77.5069 124.001C77.5069 124.782 78.143 125.42 78.9257 125.42C79.7034 125.417 80.337 124.782 80.3393 124.001C80.337 123.218 79.7034 122.582 78.9257 122.58Z" fill="#FF4D40"/>
<path d="M91.306 100.361C90.9783 100.361 90.6923 100.153 90.5957 99.837C90.536 99.6482 90.5534 99.4472 90.6478 99.2708C90.7398 99.0944 90.8938 98.9651 91.0851 98.9053C99.804 96.1947 106.51 88.9963 108.587 80.1187C108.679 79.7236 109.084 79.4677 109.482 79.5621C109.882 79.6565 110.13 80.0566 110.038 80.4566C108.955 85.0856 106.657 89.3767 103.397 92.8677C100.15 96.3438 96.0446 98.9229 91.5274 100.329C91.4554 100.351 91.3808 100.361 91.306 100.361Z" fill="white"/>
<path d="M55.629 42.0527C55.3134 42.0527 55.0302 41.8539 54.9258 41.5532L51.087 30.623C50.9702 30.2851 51.1093 29.9099 51.4174 29.731L58.1435 25.8474C58.2578 25.7828 58.387 25.748 58.5162 25.748C58.7821 25.748 59.0306 25.8897 59.1622 26.1208C59.3685 26.4761 59.2467 26.9332 58.8889 27.1395L52.6995 30.7125L56.3322 41.0613C56.4688 41.4489 56.2626 41.8738 55.875 42.0104C55.7955 42.0378 55.711 42.0527 55.629 42.0527Z" fill="#FF4D40"/>
<path d="M108.83 72.0309C108.465 72.0309 108.147 71.7576 108.092 71.3973C108.033 70.9898 108.314 70.6097 108.721 70.5476L119.512 68.9251L119.51 64.2787L108.721 62.6562C108.395 62.6089 108.145 62.358 108.095 62.035C107.772 59.9727 107.228 57.9303 106.47 55.9698C106.353 55.6642 106.447 55.3213 106.701 55.1176L115.236 48.3244L112.91 44.2967L102.755 48.2921C102.455 48.4114 102.102 48.3169 101.901 48.0685C100.589 46.441 99.0956 44.9477 97.4654 43.6333C97.2097 43.427 97.12 43.0842 97.2395 42.7785L101.23 32.6161L97.9477 30.7178C97.5923 30.5116 97.4681 30.0569 97.6743 29.6991C97.8085 29.4705 98.0543 29.3264 98.3204 29.3264C98.4521 29.3264 98.5813 29.3612 98.6931 29.4282L102.532 31.6471C102.852 31.8334 102.989 32.2186 102.852 32.5639L98.8245 42.8208C100.231 43.996 101.538 45.303 102.713 46.7069L112.962 42.6742C113.295 42.5425 113.7 42.6841 113.879 42.9947L116.848 48.1356C117.029 48.4511 116.953 48.8636 116.667 49.0897L108.055 55.9475C108.686 57.6718 109.163 59.4608 109.479 61.2647L120.367 62.8997C120.734 62.9568 121 63.2649 121 63.6376V69.5686C121 69.9338 120.729 70.2494 120.367 70.3041L108.944 72.021C108.942 72.021 108.942 72.0235 108.942 72.0235C108.905 72.0285 108.868 72.0309 108.83 72.0309ZM49.0236 72.0309C48.9864 72.0309 48.9491 72.0285 48.9118 72.0235L37.4872 70.3115C37.1244 70.2569 36.8511 69.9388 36.8511 69.5736V63.6376C36.8511 63.2649 37.1194 62.9568 37.4872 62.8997L48.3751 61.2647C48.6907 59.4484 49.1677 57.6594 49.7939 55.945L41.1869 49.0897C40.8962 48.8586 40.8191 48.4561 41.0055 48.1356L41.567 47.1616C41.6987 46.9305 41.9472 46.7889 42.2131 46.7889C42.3398 46.7889 42.464 46.8212 42.5733 46.8808L42.5858 46.8882C42.8144 47.0199 42.9585 47.2684 42.9585 47.5343C42.9585 47.6635 42.9237 47.7927 42.8591 47.9045L42.6181 48.3244L51.1456 55.1176C51.4015 55.3213 51.4934 55.6642 51.3766 55.9698C50.6287 57.9104 50.0846 59.9503 49.7591 62.035C49.7069 62.358 49.456 62.6089 49.133 62.6562L38.3419 64.2787V68.9325L49.133 70.5476C49.3292 70.5774 49.5032 70.6817 49.6224 70.8408C49.7392 71.0023 49.7889 71.1986 49.7591 71.3949C49.7044 71.7576 49.3889 72.0309 49.0236 72.0309ZM55.3745 48.3443C55.2801 48.3443 55.1882 48.3269 55.1012 48.2921L49.1156 45.9391C48.7329 45.79 48.5441 45.3552 48.6932 44.9725C48.8075 44.6868 49.0808 44.5004 49.3889 44.5004C49.4808 44.5004 49.5727 44.5178 49.6597 44.5526L55.141 46.7069C56.3162 45.303 57.6257 43.996 59.0295 42.8208L55.0018 32.5639C54.8652 32.2186 55.0018 31.8334 55.3223 31.6471L60.4557 28.6779C60.7663 28.499 61.1887 28.5785 61.4124 28.8592L68.2751 37.4712C70.002 36.8401 71.7885 36.3606 73.5849 36.0475L75.2223 25.1595C75.277 24.7918 75.5876 24.5234 75.9578 24.5234H81.8962C82.2615 24.5234 82.5768 24.7968 82.6317 25.1595L84.2617 36.0475C86.0631 36.3606 87.8521 36.8401 89.5789 37.4712L91.1813 35.4611C91.4273 35.1505 91.9143 35.0934 92.2276 35.3443C92.4088 35.4859 92.5109 35.7021 92.5084 35.9332C92.5084 36.0997 92.4513 36.2587 92.3469 36.3904L90.4088 38.8254C90.2073 39.0739 89.8572 39.1708 89.5566 39.0565C87.5937 38.2986 85.5537 37.752 83.4914 37.4315C83.1682 37.3793 82.9172 37.1283 82.8675 36.8053L81.2525 26.0143H76.6011L74.9786 36.8053C74.9289 37.1283 74.6804 37.3793 74.3549 37.4315C72.2951 37.752 70.2576 38.2986 68.2972 39.0565C67.9966 39.1708 67.6462 39.0739 67.445 38.8254L60.6468 30.2904L56.6241 32.6161L60.6145 42.7785C60.7338 43.0842 60.6418 43.427 60.3884 43.6333C58.7584 44.9477 57.2651 46.441 55.9532 48.0685C55.8118 48.2449 55.6006 48.3443 55.3745 48.3443ZM44.7624 44.1725C44.6704 44.1725 44.5785 44.1551 44.4915 44.1203C44.1089 43.9712 43.9201 43.5364 44.0691 43.1537C44.1834 42.868 44.4543 42.6816 44.7624 42.6816C44.8568 42.6816 44.9487 42.699 45.0357 42.7338C45.4183 42.8829 45.6072 43.3177 45.4581 43.7004C45.3438 43.9861 45.0705 44.1725 44.7624 44.1725ZM94.8589 32.7851C94.6897 32.7851 94.5285 32.7279 94.3968 32.6236C94.2402 32.4993 94.1408 32.3204 94.121 32.1241C94.0986 31.9254 94.1535 31.7316 94.2778 31.575C94.5262 31.2644 95.0132 31.2073 95.3263 31.4558C95.4804 31.58 95.5797 31.7589 95.6018 31.9552C95.6245 32.154 95.5671 32.3502 95.4428 32.5043C95.301 32.6832 95.0875 32.7851 94.8589 32.7851Z" fill="#FF4D40"/>
</svg>
