<svg width="157" height="157" viewBox="0 0 157 157" fill="none" xmlns="http://www.w3.org/2000/svg">
<path d="M109.387 133.348C108.975 133.348 108.64 133.01 108.64 132.598C108.64 132.186 108.975 131.848 109.387 131.848H117.501V53.9786C117.501 53.5661 117.838 53.2287 118.25 53.2287C118.665 53.2287 119 53.5661 119 53.9786V132.598C119 132.798 118.923 132.988 118.78 133.128C118.64 133.27 118.45 133.348 118.25 133.348H109.387ZM104.388 133.348C103.976 133.348 103.641 133.01 103.641 132.598C103.641 132.186 103.976 131.848 104.388 131.848C104.803 131.848 105.138 132.186 105.138 132.598C105.138 133.01 104.803 133.348 104.388 133.348ZM99.3891 133.348H45.1874C44.9899 133.348 44.7974 133.268 44.6575 133.128C44.5175 132.988 44.4375 132.795 44.4375 132.598V99.3171C44.4375 98.9049 44.7749 98.5672 45.1874 98.5672C45.6023 98.5672 45.9372 98.9049 45.9372 99.3171V131.848H99.3891C99.8041 131.848 100.139 132.186 100.139 132.598C100.139 133.01 99.8041 133.348 99.3891 133.348ZM45.1874 95.0679C44.7749 95.0679 44.4375 94.733 44.4375 94.3181C44.4375 93.9059 44.7749 93.5682 45.1874 93.5682C45.6023 93.5682 45.9372 93.9059 45.9372 94.3181C45.9372 94.733 45.6023 95.0679 45.1874 95.0679ZM45.1874 90.0689C44.7749 90.0689 44.4375 89.734 44.4375 89.3191V29.5609C44.4375 29.3634 44.5175 29.171 44.6575 29.031C44.7974 28.891 44.9899 28.811 45.1874 28.811H118.25C118.448 28.811 118.64 28.891 118.78 29.031C118.92 29.171 119 29.3634 119 29.5609V43.9805C119 44.393 118.665 44.7304 118.25 44.7304C117.838 44.7304 117.501 44.393 117.501 43.9805V30.3107H45.9372V89.3191C45.9372 89.734 45.6023 90.0689 45.1874 90.0689ZM118.25 49.7294C117.838 49.7294 117.501 49.392 117.501 48.9795C117.501 48.5671 117.838 48.2297 118.25 48.2297C118.665 48.2297 119 48.5671 119 48.9795C119 49.392 118.665 49.7294 118.25 49.7294Z" fill="white"/>
<path d="M45.1867 129.136H39.5653C39.3678 129.136 39.1754 129.056 39.0354 128.916C38.8954 128.779 38.8154 128.584 38.8154 128.386V95.1057C38.8154 94.6933 39.1529 94.3558 39.5653 94.3558C39.9777 94.3558 40.3151 94.6933 40.3151 95.1057V127.636H44.4368V79.8062C44.4368 79.3938 44.7743 79.0588 45.1867 79.0588C45.6016 79.0588 45.9365 79.3938 45.9365 79.8062V128.387C45.9365 128.587 45.859 128.777 45.7166 128.916C45.5766 129.059 45.3866 129.136 45.1867 129.136ZM39.5653 90.8565C39.1529 90.8565 38.8154 90.5216 38.8154 90.1067C38.8154 89.6942 39.1529 89.3568 39.5653 89.3568C39.9777 89.3568 40.3151 89.6942 40.3151 90.1067C40.3151 90.5216 39.9777 90.8565 39.5653 90.8565ZM39.5653 85.8575C39.1529 85.8575 38.8154 85.5226 38.8154 85.1076V25.3495C38.8154 25.152 38.8954 24.9595 39.0354 24.8196C39.1729 24.6796 39.3678 24.5996 39.5653 24.5996H112.628C112.826 24.5996 113.018 24.6796 113.158 24.8196C113.298 24.9595 113.378 25.152 113.378 25.3495V29.5611C113.378 29.7611 113.301 29.9511 113.158 30.091C113.016 30.2335 112.828 30.311 112.628 30.311H102.42C102.005 30.311 101.671 29.976 101.671 29.5611C101.671 29.1487 102.005 28.8113 102.42 28.8113H111.878V26.0993H40.3151V85.1076C40.3151 85.5226 39.9777 85.8575 39.5653 85.8575ZM45.1867 75.557C44.7743 75.557 44.4368 75.2221 44.4368 74.8072C44.4368 74.3948 44.7743 74.0598 45.1867 74.0598C45.6016 74.0598 45.9365 74.3948 45.9365 74.8072C45.9365 75.2221 45.6016 75.557 45.1867 75.557ZM45.1867 70.5605C44.7743 70.5605 44.4368 70.2231 44.4368 69.8107V29.5611C44.4368 29.3637 44.5168 29.1712 44.6568 29.0312C44.7967 28.8913 44.9892 28.8113 45.1867 28.8113H92.4223C92.8345 28.8113 93.1722 29.1487 93.1722 29.5611C93.1722 29.976 92.8345 30.311 92.4223 30.311H45.9365V69.8107C45.9365 70.2231 45.6016 70.5605 45.1867 70.5605ZM97.4214 30.311C97.0064 30.311 96.6715 29.976 96.6715 29.5611C96.6715 29.1487 97.0064 28.8113 97.4214 28.8113C97.8335 28.8113 98.1712 29.1487 98.1712 29.5611C98.1712 29.976 97.8335 30.311 97.4214 30.311Z" fill="white"/>
<path d="M96.8511 125.23C95.5238 125.23 94.2141 125.012 92.9543 124.585C91.7146 124.163 90.5548 123.548 89.51 122.758C88.4552 121.958 87.5429 121.001 86.8005 119.911C86.0332 118.783 85.4633 117.539 85.1059 116.209C85.0561 116.019 85.0834 115.811 85.1811 115.641C85.2786 115.469 85.4461 115.342 85.6358 115.292L95.9462 112.53L93.1843 102.219C93.0768 101.822 93.3145 101.409 93.7142 101.302C96.0387 100.674 98.5032 100.757 100.773 101.527C102.013 101.949 103.17 102.564 104.217 103.356C105.272 104.156 106.184 105.113 106.927 106.203C107.694 107.333 108.264 108.578 108.619 109.91C108.896 110.942 109.036 112.004 109.036 113.067C109.036 114.392 108.819 115.704 108.391 116.964C107.969 118.203 107.354 119.363 106.564 120.408C105.764 121.463 104.807 122.375 103.717 123.117C102.59 123.885 101.342 124.455 100.015 124.81C98.9779 125.09 97.9156 125.23 96.8511 125.23ZM86.7728 116.539C88.2528 120.841 92.3017 123.73 96.8508 123.73C97.7831 123.73 98.7154 123.608 99.6255 123.363C104.285 122.118 107.536 117.881 107.536 113.067C107.536 112.137 107.414 111.205 107.171 110.298C105.924 105.639 101.69 102.382 96.8733 102.382C96.1912 102.382 95.5038 102.45 94.8312 102.579L97.5882 112.865C97.6406 113.06 97.6132 113.262 97.5132 113.435C97.4132 113.607 97.2507 113.732 97.0583 113.784L86.7728 116.539Z" fill="#141517"/>
<path d="M84.2396 114.032C83.9147 114.032 83.63 113.827 83.5273 113.52C83.4523 113.292 83.3823 113.057 83.3223 112.82C83.1199 112.005 83.0151 111.165 83.0151 110.33C83.0151 108.078 83.7775 105.854 85.157 104.064C85.8496 103.169 86.6767 102.399 87.6165 101.777C88.5863 101.135 89.6586 100.665 90.8008 100.382C91.1983 100.282 91.6107 100.535 91.7107 100.927L94.0077 110.158C94.1002 110.538 93.8827 110.93 93.5103 111.053L84.4696 113.997C84.3946 114.02 84.3171 114.032 84.2396 114.032ZM90.4434 102.047C86.8966 103.254 84.5146 106.581 84.5146 110.33C84.5146 111 84.5921 111.672 84.747 112.327L92.383 109.843L90.4434 102.047Z" fill="#141517"/>
<path d="M111.573 57.4756H91.2995C90.8874 57.4756 90.5497 57.1382 90.5497 56.7257C90.5497 56.3108 90.8874 55.9759 91.2995 55.9759H110.823V49.9821H52.6047V55.9759H81.3015C81.7164 55.9759 82.0514 56.3108 82.0514 56.7257C82.0514 57.1382 81.7164 57.4756 81.3015 57.4756H51.8573C51.6574 57.4756 51.4649 57.3956 51.3249 57.2556C51.1875 57.1157 51.105 56.9232 51.105 56.7257V49.2322C51.105 49.0373 51.185 48.8423 51.3249 48.7023C51.4649 48.5648 51.6574 48.4849 51.8573 48.4849H111.573C111.77 48.4849 111.965 48.5648 112.103 48.7023C112.243 48.8423 112.323 49.0373 112.323 49.2322V56.7257C112.323 56.9257 112.245 57.1132 112.103 57.2556C111.963 57.3981 111.773 57.4756 111.573 57.4756ZM86.3005 57.4756C85.8884 57.4756 85.5507 57.1382 85.5507 56.7257C85.5507 56.3108 85.8884 55.9759 86.3005 55.9759C86.7154 55.9759 87.0504 56.3108 87.0504 56.7257C87.0504 57.1382 86.7154 57.4756 86.3005 57.4756Z" fill="white"/>
<path d="M53.2674 69.0708C52.855 69.0708 52.5176 68.7334 52.5176 68.3209V61.2923C52.5176 60.8799 52.855 60.5425 53.2674 60.5425C53.6823 60.5425 54.0173 60.8799 54.0173 61.2923V68.3209C54.0173 68.7334 53.6823 69.0708 53.2674 69.0708Z" fill="#141517"/>
<path d="M59.5916 69.0708C59.1767 69.0708 58.8418 68.7334 58.8418 68.3209V61.2923C58.8418 60.8799 59.1767 60.5425 59.5916 60.5425C60.0041 60.5425 60.3415 60.8799 60.3415 61.2923V68.3209C60.3415 68.7334 60.0041 69.0708 59.5916 69.0708Z" fill="#141517"/>
<path d="M65.9095 69.0683C65.4971 69.0683 65.1597 68.7334 65.1597 68.3209V61.2923C65.1597 60.8799 65.4971 60.5425 65.9095 60.5425C66.3219 60.5425 66.6594 60.8799 66.6594 61.2923V68.3209C66.6594 68.7334 66.3219 69.0683 65.9095 69.0683Z" fill="#141517"/>
<path d="M72.2337 69.0708C71.8188 69.0708 71.4839 68.7334 71.4839 68.3184V61.2923C71.4839 60.8799 71.8188 60.5425 72.2337 60.5425C72.6462 60.5425 72.9836 60.8799 72.9836 61.2923V68.3184C72.9836 68.7334 72.6462 69.0708 72.2337 69.0708Z" fill="#141517"/>
<path d="M78.5545 69.0683C78.1424 69.0683 77.8047 68.7334 77.8047 68.3184V61.2923C77.8047 60.8799 78.1424 60.5425 78.5545 60.5425C78.9695 60.5425 79.3044 60.8799 79.3044 61.2923V68.3184C79.3044 68.7334 78.9697 69.0683 78.5545 69.0683Z" fill="#141517"/>
<path d="M84.8788 69.0708C84.4638 69.0708 84.1289 68.7334 84.1289 68.3209V61.2923C84.1289 60.8799 84.4638 60.5425 84.8788 60.5425C85.2909 60.5425 85.6286 60.8799 85.6286 61.2923V68.3209C85.6286 68.7334 85.2912 69.0708 84.8788 69.0708Z" fill="#141517"/>
<path d="M91.2021 69.0708C90.7871 69.0708 90.4497 68.7334 90.4497 68.3184V61.2923C90.4497 60.8799 90.7871 60.5425 91.2021 60.5425C91.6142 60.5425 91.9494 60.8799 91.9494 61.2923V68.3184C91.9494 68.7334 91.6142 69.0708 91.2021 69.0708Z" fill="#141517"/>
<path d="M97.5213 69.0708C97.1067 69.0708 96.7715 68.7334 96.7715 68.3209V61.2923C96.7715 60.8799 97.1067 60.5425 97.5213 60.5425C97.9338 60.5425 98.2687 60.8799 98.2687 61.2923V68.3209C98.2689 68.7334 97.934 69.0708 97.5213 69.0708Z" fill="#141517"/>
<path d="M103.842 69.0708C103.43 69.0708 103.092 68.7334 103.092 68.3209V61.2923C103.092 60.8799 103.43 60.5425 103.842 60.5425C104.257 60.5425 104.592 60.8799 104.592 61.2923V68.3209C104.592 68.7334 104.257 69.0708 103.842 69.0708Z" fill="#141517"/>
<path d="M110.166 69.0683C109.754 69.0683 109.417 68.7334 109.417 68.3209V61.2923C109.417 60.8799 109.754 60.5425 110.166 60.5425C110.579 60.5425 110.916 60.8799 110.916 61.2923V68.3209C110.916 68.7334 110.579 69.0683 110.166 69.0683Z" fill="#141517"/>
<path d="M106.778 96.2252H83.245C82.8326 96.2252 82.4951 95.8903 82.4951 95.4779C82.4951 95.0632 82.8326 94.728 83.245 94.728H106.778C107.19 94.728 107.527 95.0632 107.527 95.4779C107.528 95.8903 107.19 96.2252 106.778 96.2252Z" fill="white"/>
<path d="M106.778 92.8303H83.245C82.8326 92.8303 82.4951 92.4928 82.4951 92.0804C82.4951 91.6682 82.8326 91.3306 83.245 91.3306H106.778C107.19 91.3306 107.527 91.6682 107.527 92.0804C107.528 92.4931 107.19 92.8303 106.778 92.8303Z" fill="white"/>
<path d="M106.778 89.4367H83.245C82.8326 89.4367 82.4951 89.0993 82.4951 88.6869C82.4951 88.2722 82.8326 87.937 83.245 87.937H106.778C107.19 87.937 107.527 88.2722 107.527 88.6869C107.528 89.0995 107.19 89.4367 106.778 89.4367Z" fill="white"/>
<path d="M106.778 86.0397H83.245C82.8326 86.0397 82.4951 85.7048 82.4951 85.2899C82.4951 84.8777 82.8326 84.54 83.245 84.54H106.778C107.19 84.54 107.527 84.8777 107.527 85.2899C107.528 85.7048 107.19 86.0397 106.778 86.0397Z" fill="white"/>
<path d="M106.778 82.6452H83.245C82.8326 82.6452 82.4951 82.3078 82.4951 81.8954C82.4951 81.4804 82.8326 81.1455 83.245 81.1455H106.778C107.19 81.1455 107.527 81.4804 107.527 81.8954C107.528 82.3078 107.19 82.6452 106.778 82.6452Z" fill="white"/>
<path d="M106.778 79.2487H83.245C82.8326 79.2487 82.4951 78.9138 82.4951 78.4989C82.4951 78.0865 82.8326 77.749 83.245 77.749H106.778C107.19 77.749 107.527 78.0865 107.527 78.4989C107.528 78.9138 107.19 79.2487 106.778 79.2487Z" fill="white"/>
<path d="M106.778 75.8542H83.245C82.8326 75.8542 82.4951 75.5168 82.4951 75.1043C82.4951 74.6894 82.8326 74.3545 83.245 74.3545H106.778C107.19 74.3545 107.527 74.6894 107.527 75.1043C107.528 75.5168 107.19 75.8542 106.778 75.8542Z" fill="white"/>
<path d="M75.3927 125.257H51.8548C51.4424 125.257 51.105 124.922 51.105 124.507C51.105 124.095 51.4424 123.757 51.8548 123.757H75.3927C75.8051 123.757 76.1425 124.095 76.1425 124.507C76.1425 124.922 75.8051 125.257 75.3927 125.257Z" fill="white"/>
<path d="M75.3936 117.026H51.8583C51.4433 117.026 51.1084 116.69 51.1084 116.276C51.1084 115.863 51.4433 115.526 51.8583 115.526H75.3936C75.806 115.526 76.1435 115.863 76.1435 116.276C76.1435 116.69 75.806 117.026 75.3936 117.026Z" fill="white"/>
<path d="M75.3936 108.79H51.8583C51.4433 108.79 51.1084 108.453 51.1084 108.04C51.1084 107.625 51.4433 107.291 51.8583 107.291H75.3936C75.806 107.291 76.1435 107.625 76.1435 108.04C76.1435 108.453 75.806 108.79 75.3936 108.79Z" fill="white"/>
<path d="M75.3936 100.559H51.8557C51.4433 100.559 51.1084 100.221 51.1084 99.8089C51.1084 99.3943 51.4433 99.0591 51.8557 99.0591H75.3936C75.806 99.0591 76.1435 99.3943 76.1435 99.8089C76.1435 100.222 75.806 100.559 75.3936 100.559Z" fill="white"/>
<path d="M75.3927 92.321H51.8573C51.4424 92.321 51.105 91.9861 51.105 91.5711C51.105 91.159 51.4424 90.8213 51.8573 90.8213H75.3927C75.8051 90.8213 76.1425 91.159 76.1425 91.5711C76.1425 91.9863 75.8051 92.321 75.3927 92.321Z" fill="white"/>
<path d="M110.518 44.238H52.9144C52.4995 44.238 52.1646 43.9006 52.1646 43.4882C52.1646 43.0733 52.4995 42.7358 52.9144 42.7358H110.518C110.933 42.7358 111.268 43.0733 111.268 43.4882C111.268 43.9006 110.933 44.238 110.518 44.238Z" fill="#141517"/>
<path d="M110.518 37.7971H52.9144C52.4995 37.7971 52.1646 37.4596 52.1646 37.0472C52.1646 36.6323 52.4995 36.2974 52.9144 36.2974H110.518C110.933 36.2974 111.268 36.6323 111.268 37.0472C111.268 37.4596 110.933 37.7971 110.518 37.7971Z" fill="#141517"/>
</svg>
