<svg width="157" height="157" viewBox="0 0 157 157" fill="none" xmlns="http://www.w3.org/2000/svg">
<path d="M119.93 132.948H44.9551C44.7497 132.948 44.5496 132.865 44.404 132.719C44.2585 132.573 44.1753 132.373 44.1753 132.168V116.17C44.1753 115.741 44.5236 115.39 44.9551 115.39C45.3839 115.39 45.7348 115.741 45.7348 116.17V131.388H119.151V94.1098V94.1072C119.153 93.6784 119.501 93.3301 119.93 93.3301C120.359 93.3301 120.708 93.6784 120.71 94.1072V94.1098C120.71 94.1202 120.71 94.128 120.71 94.1384V132.168C120.71 132.376 120.629 132.571 120.481 132.719C120.336 132.867 120.138 132.948 119.93 132.948ZM44.9551 111.751C44.5236 111.751 44.1753 111.4 44.1753 110.971C44.1753 110.543 44.5236 110.191 44.9551 110.191C45.3839 110.191 45.7348 110.543 45.7348 110.971C45.7348 111.4 45.3839 111.751 44.9551 111.751ZM44.9551 106.552C44.5236 106.552 44.1753 106.202 44.1753 105.773V29.2768C44.1753 29.0715 44.2585 28.8714 44.404 28.7258C44.547 28.5802 44.7497 28.4971 44.9551 28.4971H59.4329C59.8617 28.4971 60.2126 28.848 60.2126 29.2768C60.2126 29.7083 59.8617 30.0566 59.4329 30.0566H45.7348V105.77V105.773C45.7348 106.202 45.3839 106.552 44.9551 106.552ZM119.93 89.7067C119.501 89.7067 119.151 89.3584 119.151 88.927C119.151 88.927 119.151 88.9244 119.151 88.9215C119.153 88.4952 119.501 88.1472 119.93 88.1472C120.359 88.1472 120.708 88.4955 120.71 88.9244V88.927C120.71 89.3584 120.362 89.7067 119.93 89.7067ZM119.93 84.5212C119.501 84.5212 119.151 84.1729 119.151 83.7415V52.8884L96.3214 30.0566H69.8299C69.401 30.0566 69.0501 29.7083 69.0501 29.2768C69.0501 28.848 69.401 28.4971 69.8299 28.4971H96.6437C96.849 28.4971 97.0492 28.5802 97.1947 28.7258L120.481 52.0125C120.629 52.1606 120.71 52.3556 120.71 52.5635C120.71 65.8872 120.71 75.9567 120.71 83.7415C120.71 84.1729 120.362 84.5212 119.93 84.5212ZM64.6314 30.0566C64.2025 30.0566 63.8516 29.7083 63.8516 29.2768C63.8516 28.848 64.2025 28.4971 64.6314 28.4971C65.0602 28.4971 65.4111 28.848 65.4111 29.2768C65.4111 29.7083 65.0602 30.0566 64.6314 30.0566Z" fill="white"/>
<path d="M119.93 53.3533H96.6435C96.4382 53.3533 96.2378 53.2701 96.0925 53.1246C95.9467 52.979 95.8638 52.7789 95.8638 52.5735V29.2765C95.8638 28.962 96.0533 28.6787 96.3446 28.5565C96.6331 28.4369 96.9762 28.5045 97.1948 28.7254L120.481 52.0199C120.481 52.0199 120.481 52.0199 120.481 52.0225C120.705 52.246 120.773 52.5787 120.65 52.8698C120.531 53.1636 120.247 53.3533 119.93 53.3533ZM97.4233 51.7938H118.048L97.4233 31.1609V51.7938Z" fill="white"/>
<path d="M44.9557 128.451H37.917C37.7142 128.451 37.5115 128.368 37.3659 128.222C37.2204 128.076 37.1372 127.876 37.1372 127.671V43.7335C37.1372 43.3046 37.4881 42.9537 37.917 42.9537C38.3485 42.9537 38.6968 43.3046 38.6968 43.7335V126.891H44.176V119.489C44.176 119.057 44.5269 118.709 44.9557 118.709C45.3846 118.709 45.7355 119.057 45.7355 119.489V127.671C45.7355 127.879 45.6549 128.074 45.5068 128.222C45.3586 128.37 45.1637 128.451 44.9557 128.451ZM44.9557 115.07C44.5269 115.07 44.176 114.719 44.176 114.29C44.176 113.859 44.5269 113.51 44.9557 113.51C45.3846 113.51 45.7355 113.859 45.7355 114.29C45.7355 114.719 45.3846 115.07 44.9557 115.07ZM44.9557 109.871C44.5269 109.871 44.176 109.52 44.176 109.092V29.2765C44.176 29.0711 44.2591 28.871 44.4047 28.7254C44.5503 28.5799 44.7504 28.4967 44.9557 28.4967H56.1169C56.5458 28.4967 56.8967 28.8476 56.8967 29.2765C56.8967 29.7079 56.5458 30.0562 56.1169 30.0562H45.7355V109.092C45.7355 109.52 45.3846 109.871 44.9557 109.871ZM37.917 39.3148C37.4881 39.3148 37.1372 38.9665 37.1372 38.535C37.1372 38.1061 37.4881 37.7552 37.917 37.7552C38.3485 37.7552 38.6968 38.1061 38.6968 38.535C38.6968 38.9665 38.3485 39.3148 37.917 39.3148ZM37.917 34.1163C37.4881 34.1163 37.1372 33.768 37.1372 33.3365V24.7798C37.1372 24.5744 37.2204 24.3743 37.3659 24.2287C37.5115 24.0832 37.7142 24 37.917 24H89.6082C89.8915 24 90.1514 24.156 90.2892 24.4029L92.7819 28.8996C92.9144 29.1387 92.9118 29.435 92.7715 29.6742C92.6311 29.9107 92.3738 30.0562 92.0983 30.0562H66.5113C66.0824 30.0562 65.7315 29.7079 65.7315 29.2765C65.7315 28.8476 66.0824 28.4967 66.5113 28.4967H90.7753L89.1481 25.5595H38.6968V33.3365C38.6968 33.768 38.3485 34.1163 37.917 34.1163ZM61.3128 30.0562C60.8839 30.0562 60.533 29.7079 60.533 29.2765C60.533 28.8476 60.8839 28.4967 61.3128 28.4967C61.7443 28.4967 62.0926 28.8476 62.0926 29.2765C62.0926 29.7079 61.7443 30.0562 61.3128 30.0562Z" fill="white"/>
<path d="M63.7296 45.9223H49.8496C49.6443 45.9223 49.4441 45.8391 49.2986 45.6961C49.153 45.5506 49.0698 45.3504 49.0698 45.1451V41.2358C49.0698 41.0279 49.153 40.8277 49.2986 40.6822C49.4441 40.5392 49.6443 40.4561 49.8496 40.4561H63.7296C63.9349 40.4561 64.1351 40.5392 64.2806 40.6822C64.4262 40.8277 64.5093 41.0279 64.5093 41.2358V45.1451C64.5093 45.3504 64.4262 45.5506 64.2806 45.6961C64.1377 45.8391 63.9349 45.9223 63.7296 45.9223ZM50.6294 44.3653H62.9498V42.013H50.6294V44.3653Z" fill="#FF4D40"/>
<path d="M81.7125 45.9245H67.8325C67.6272 45.9245 67.427 45.8414 67.2815 45.6958C67.1359 45.5503 67.0527 45.3475 67.0527 45.1448V41.2329C67.0527 41.0302 67.1359 40.8274 67.2815 40.6819C67.427 40.5389 67.6272 40.4531 67.8325 40.4531H81.7125C81.9178 40.4531 82.1182 40.5389 82.2635 40.6819C82.4091 40.8274 82.4923 41.0302 82.4923 41.2329V45.1448C82.4923 45.3527 82.4117 45.5477 82.2635 45.6958C82.1151 45.8414 81.9202 45.9245 81.7125 45.9245ZM68.6123 44.3624H80.9327V42.0127H68.6123V44.3624Z" fill="#FF4D40"/>
<path d="M63.7296 56.48H49.8496C49.6443 56.48 49.4441 56.3969 49.2986 56.2513C49.153 56.1058 49.0698 55.9056 49.0698 55.7003V51.791C49.0698 51.5857 49.153 51.3829 49.2986 51.24C49.4441 51.0944 49.6443 51.0112 49.8496 51.0112H63.7296C63.9349 51.0112 64.1351 51.0944 64.2806 51.24C64.4262 51.3829 64.5093 51.5857 64.5093 51.791V55.7003C64.5093 55.9056 64.4262 56.1058 64.2806 56.2513C64.1351 56.3969 63.9349 56.48 63.7296 56.48ZM50.6294 54.9205H62.9498V52.5708H50.6294V54.9205Z" fill="#FF4D40"/>
<path d="M81.7125 56.48H67.8325C67.6272 56.48 67.427 56.3969 67.2815 56.2513C67.1359 56.1058 67.0527 55.9056 67.0527 55.7003V51.791C67.0527 51.5857 67.1359 51.3829 67.2815 51.24C67.427 51.0944 67.6272 51.0112 67.8325 51.0112H81.7125C81.9178 51.0112 82.1182 51.0944 82.2635 51.24C82.4091 51.3829 82.4923 51.5857 82.4923 51.791V55.7003C82.4923 55.9082 82.4117 56.1032 82.2635 56.2513C82.1151 56.3995 81.9202 56.48 81.7125 56.48ZM68.6123 54.9205H80.9327V52.5708H68.6123V54.9205Z" fill="#FF4D40"/>
<path d="M63.7296 67.0435H49.8496C49.6443 67.0435 49.4441 66.9603 49.2986 66.8148C49.153 66.6718 49.0698 66.4691 49.0698 66.2637V62.3467C49.0698 62.1413 49.153 61.9386 49.2986 61.7956C49.4441 61.6501 49.6443 61.5669 49.8496 61.5669H63.7296C63.9349 61.5669 64.1351 61.6501 64.2806 61.7956C64.4262 61.9386 64.5093 62.1413 64.5093 62.3467V66.2637C64.5093 66.4691 64.4262 66.6718 64.2806 66.8148C64.1377 66.9603 63.9349 67.0435 63.7296 67.0435ZM50.6294 65.484H62.9498V63.1264H50.6294V65.484Z" fill="white"/>
<path d="M70.1146 67.0435C69.6832 67.0435 69.3323 66.6952 69.3323 66.2637C69.3323 65.8349 69.6832 65.484 70.1146 65.484H111.721V63.1264H68.5811C68.6019 63.1966 68.6123 63.272 68.6123 63.3474C68.6123 63.7763 68.264 64.1246 67.8325 64.1246C67.4036 64.1246 67.0527 63.7763 67.0527 63.3474C67.0527 63.1628 67.1177 62.9861 67.2347 62.8457C67.1177 62.7054 67.0527 62.5286 67.0527 62.3467C67.0527 61.9152 67.4036 61.5669 67.8325 61.5669H112.501C112.706 61.5669 112.906 61.6501 113.052 61.7956C113.197 61.9412 113.28 62.1413 113.28 62.3467V66.2637C113.28 66.4743 113.199 66.6692 113.052 66.8148C112.906 66.9629 112.711 67.0435 112.501 67.0435H70.1146Z" fill="white"/>
<path d="M63.7296 77.5987H49.8496C49.6443 77.5987 49.4441 77.5155 49.2986 77.3726C49.153 77.227 49.0698 77.0269 49.0698 76.8215V72.9097C49.0698 72.7043 49.153 72.5042 49.2986 72.3586C49.4441 72.2131 49.6443 72.1299 49.8496 72.1299H63.7296C63.9349 72.1299 64.1351 72.2131 64.2806 72.3586C64.4262 72.5042 64.5093 72.7043 64.5093 72.9097V76.8215C64.5093 77.0269 64.4262 77.227 64.2806 77.3726C64.1351 77.5155 63.9349 77.5987 63.7296 77.5987ZM50.6294 76.0418H62.9498V73.6894H50.6294V76.0418Z" fill="white"/>
<path d="M70.1043 77.6013C69.6754 77.6013 69.3245 77.2504 69.3245 76.8215C69.3245 76.39 69.6754 76.0417 70.1043 76.0417H111.721V73.6894H68.5863C68.6045 73.757 68.6123 73.8246 68.6123 73.8922C68.6123 74.3236 68.264 74.6719 67.8325 74.6719C67.4036 74.6719 67.0527 74.3236 67.0527 73.8922C67.0527 73.7154 67.1151 73.5413 67.2269 73.4009C67.1151 73.2632 67.0527 73.089 67.0527 72.9097C67.0527 72.4808 67.4036 72.1299 67.8325 72.1299H112.501C112.706 72.1299 112.909 72.2131 113.052 72.3586C113.197 72.5042 113.28 72.7043 113.28 72.9097V76.8215C113.28 77.0295 113.199 77.2244 113.052 77.3726C112.906 77.5181 112.711 77.5987 112.501 77.5987L70.1043 77.6013Z" fill="#FF4D40"/>
<path d="M63.7296 88.1573H49.8496C49.6443 88.1573 49.4441 88.0741 49.2986 87.9286C49.153 87.7827 49.0698 87.58 49.0698 87.3775V83.4682C49.0698 83.2603 49.153 83.0602 49.2986 82.9146C49.4441 82.7717 49.6443 82.6885 49.8496 82.6885H63.7296C63.9349 82.6885 64.1351 82.7717 64.2806 82.9172C64.4262 83.0602 64.5093 83.2629 64.5093 83.4682V87.3775C64.5093 87.5854 64.4288 87.7804 64.2806 87.9286C64.1325 88.0741 63.9375 88.1573 63.7296 88.1573ZM50.6294 86.5977H62.9498V84.2454H50.6294V86.5977Z" fill="white"/>
<path d="M112.501 88.1573H70.1043C69.6754 88.1573 69.3245 87.8061 69.3245 87.3775C69.3245 86.946 69.6754 86.5977 70.1043 86.5977H111.721V84.248H68.5863C68.6045 84.313 68.6123 84.3806 68.6123 84.4508C68.6123 84.8796 68.264 85.2279 67.8325 85.2279C67.4036 85.2279 67.0527 84.8796 67.0527 84.4508C67.0527 84.2714 67.1151 84.0973 67.2269 83.9595C67.1151 83.8191 67.0527 83.645 67.0527 83.4682C67.0527 83.0368 67.4036 82.6885 67.8325 82.6885H112.501C112.706 82.6885 112.906 82.7717 113.052 82.9146C113.197 83.0602 113.28 83.2603 113.28 83.4682V87.3775C113.28 87.5854 113.199 87.7804 113.052 87.9286C112.906 88.0741 112.708 88.1573 112.501 88.1573Z" fill="#FF4D40"/>
<path d="M63.7296 98.7125H49.8496C49.6443 98.7125 49.4441 98.6296 49.2986 98.4837C49.153 98.3382 49.0698 98.138 49.0698 97.9327V94.0234C49.0698 93.8181 49.153 93.6156 49.2986 93.4726C49.4441 93.3268 49.6443 93.2437 49.8496 93.2437H63.7296C63.9349 93.2437 64.1351 93.3268 64.2806 93.4726C64.4262 93.6156 64.5093 93.8181 64.5093 94.0234V97.9327C64.5093 98.1409 64.4288 98.3358 64.2806 98.4837C64.1325 98.6322 63.9375 98.7125 63.7296 98.7125ZM50.6294 97.1529H62.9498V94.8032H50.6294V97.1529Z" fill="white"/>
<path d="M112.501 98.7127H70.1043C69.6754 98.7127 69.3245 98.3618 69.3245 97.933C69.3245 97.5043 69.6754 97.1532 70.1043 97.1532H111.721V94.8035H68.5863C68.6045 94.8684 68.6123 94.9363 68.6123 95.0062C68.6123 95.4351 68.264 95.786 67.8325 95.786C67.4036 95.786 67.0527 95.4351 67.0527 95.0062C67.0527 94.8271 67.1151 94.6527 67.2269 94.5149C67.1151 94.3772 67.0527 94.2004 67.0527 94.0234C67.0527 93.5922 67.4036 93.2437 67.8325 93.2437H112.501C112.706 93.2437 112.909 93.3268 113.052 93.4726C113.197 93.6156 113.28 93.8181 113.28 94.0234V97.9327C113.28 98.1409 113.199 98.3358 113.052 98.4837C112.906 98.6324 112.711 98.7127 112.501 98.7127Z" fill="white"/>
<path d="M63.7296 109.269H49.8496C49.6443 109.269 49.4441 109.185 49.2986 109.04C49.153 108.894 49.0698 108.694 49.0698 108.489V104.58C49.0698 104.374 49.153 104.174 49.2986 104.029C49.4441 103.883 49.6443 103.8 49.8496 103.8H63.7296C63.9349 103.8 64.1351 103.883 64.2806 104.029C64.4262 104.174 64.5093 104.374 64.5093 104.58V108.489C64.5093 108.697 64.4288 108.892 64.2806 109.04C64.1325 109.188 63.9375 109.269 63.7296 109.269ZM50.6294 107.709H62.9498V105.359H50.6294V107.709Z" fill="white"/>
<path d="M112.501 109.268H70.1043C69.6754 109.268 69.3245 108.92 69.3245 108.489C69.3245 108.06 69.6754 107.709 70.1043 107.709H111.721V105.359H68.5863C68.6045 105.424 68.6123 105.495 68.6123 105.562C68.6123 105.993 68.264 106.342 67.8325 106.342C67.4036 106.342 67.0527 105.993 67.0527 105.562C67.0527 105.383 67.1151 105.208 67.2269 105.07C67.1151 104.933 67.0527 104.759 67.0527 104.579C67.0527 104.148 67.4036 103.799 67.8325 103.799H112.501C112.706 103.799 112.909 103.882 113.052 104.028C113.197 104.174 113.28 104.374 113.28 104.579V108.488C113.28 108.696 113.199 108.894 113.052 109.039C112.906 109.188 112.708 109.268 112.501 109.268Z" fill="#FF4D40"/>
<path d="M63.7296 119.834H49.8496C49.6443 119.834 49.4441 119.751 49.2986 119.605C49.153 119.46 49.0698 119.257 49.0698 119.052V115.135C49.0698 114.929 49.153 114.729 49.2986 114.584C49.4441 114.438 49.6443 114.355 49.8496 114.355H63.7296C63.9349 114.355 64.1351 114.438 64.2806 114.584C64.4262 114.729 64.5093 114.929 64.5093 115.135V119.052C64.5093 119.262 64.4288 119.457 64.2806 119.605C64.1325 119.751 63.9375 119.834 63.7296 119.834ZM50.6294 118.272H62.9498V115.915H50.6294V118.272Z" fill="white"/>
<path d="M70.1146 119.834C69.6832 119.834 69.3323 119.483 69.3323 119.054C69.3323 118.623 69.6832 118.275 70.1146 118.275L111.721 118.272V115.915H68.5811C68.6019 115.987 68.6123 116.06 68.6123 116.135C68.6123 116.564 68.264 116.915 67.8325 116.915C67.4036 116.915 67.0527 116.564 67.0527 116.135C67.0527 115.951 67.1177 115.774 67.2347 115.636C67.1177 115.496 67.0527 115.319 67.0527 115.135C67.0527 114.706 67.4036 114.355 67.8325 114.355H112.501C112.706 114.355 112.906 114.438 113.052 114.584C113.197 114.729 113.28 114.929 113.28 115.135V119.054C113.28 119.262 113.199 119.457 113.052 119.605C112.906 119.751 112.711 119.831 112.501 119.831L70.1146 119.834Z" fill="#FF4D40"/>
</svg>
