<svg width="157" height="157" viewBox="0 0 157 157" fill="none" xmlns="http://www.w3.org/2000/svg">
<path d="M113.31 118.627H50.7784C46.5533 118.627 43.0236 115.088 42.5686 110.395C42.5471 110.175 42.6199 109.956 42.7688 109.792C42.9174 109.628 43.1286 109.534 43.3499 109.534H50.3184C50.752 109.534 51.1034 109.886 51.1034 110.319C51.1034 110.753 50.752 111.104 50.3184 111.104H44.2577C44.9414 114.553 47.6227 117.057 50.7784 117.057H113.31C116.995 117.057 119.993 113.622 119.993 109.398V72.1584C119.993 71.7248 120.345 71.3734 120.778 71.3734C121.212 71.3734 121.563 71.7248 121.563 72.1584V109.399C121.563 114.487 117.861 118.627 113.31 118.627ZM52.0067 103.786C51.5731 103.786 51.2217 103.434 51.2217 103.001V74.5029H43.3185C42.8852 74.5029 42.5341 74.152 42.5335 73.7187L42.5176 58.704C42.5173 58.4957 42.6 58.2958 42.7471 58.1485C42.8944 58.0012 43.094 57.9182 43.3026 57.9182H120.778C121.212 57.9182 121.563 58.2696 121.563 58.7032V59.075C121.563 59.5086 121.212 59.86 120.778 59.86C120.497 59.86 120.249 59.7114 120.111 59.4882H44.0886L44.1028 72.9329H52.0067C52.4402 72.9329 52.7917 73.2843 52.7917 73.7179V103.001C52.7917 103.434 52.4402 103.786 52.0067 103.786Z" fill="white"/>
<path d="M106.621 59.4881H57.4676C57.034 59.4881 56.6826 59.1366 56.6826 58.7031V46.0327C56.6826 39.8763 58.9377 33.9299 63.0327 29.2888C63.3193 28.9635 63.8156 28.9327 64.1406 29.2194C64.4656 29.5062 64.4968 30.0023 64.21 30.3273C60.3685 34.6814 58.2526 40.2591 58.2526 46.0327V57.9181H105.836V46.0327C105.836 32.9144 95.1628 22.2416 82.0439 22.2416C82.0436 22.2416 82.0431 22.2416 82.0426 22.2416C79.5193 22.2416 77.0319 22.6396 74.6492 23.4246C74.2376 23.5609 73.7938 23.3367 73.658 22.9246C73.5224 22.513 73.7462 22.0689 74.158 21.9334C76.6993 21.0961 79.3524 20.6716 82.0426 20.6716C82.0431 20.6716 82.0433 20.6716 82.0439 20.6716C96.0284 20.6716 107.406 32.0486 107.406 46.0327V58.7031C107.406 59.1364 107.054 59.4881 106.621 59.4881Z" fill="white"/>
<path d="M99.2238 52.6572H64.8651C64.4315 52.6572 64.0801 52.3058 64.0801 51.8722V45.4742C64.0801 35.5688 72.1386 27.5103 82.044 27.5103C91.9497 27.5103 100.008 35.5688 100.008 45.4742V51.8722C100.009 52.3058 99.6573 52.6572 99.2238 52.6572ZM65.6501 51.0872H98.4388V45.4742C98.4388 36.4347 91.0844 29.0803 82.0443 29.0803C73.0047 29.0803 65.6503 36.4347 65.6503 45.4742V51.0872H65.6501Z" fill="white"/>
<path d="M95.1314 68.0341H43.3026C42.869 68.0341 42.5176 67.6827 42.5176 67.2491C42.5176 66.8155 42.869 66.4641 43.3026 66.4641H95.1314C95.565 66.4641 95.9164 66.8155 95.9164 67.2491C95.9164 67.6827 95.5653 68.0341 95.1314 68.0341Z" fill="white"/>
<path d="M52.0066 81.8295H39.2498C38.8163 81.8295 38.4648 81.4781 38.4648 81.0445V73.7179C38.4648 73.2843 38.8163 72.9329 39.2498 72.9329H52.0066C52.4402 72.9329 52.7916 73.2843 52.7916 73.7179V81.0445C52.7916 81.4779 52.4402 81.8295 52.0066 81.8295ZM40.0348 80.2595H51.2216V74.5029H40.0348V80.2595Z" fill="#FF4D40"/>
<path d="M52.0066 89.1484H39.2498C38.8163 89.1484 38.4648 88.7969 38.4648 88.3634V81.0443C38.4648 80.6107 38.8163 80.2593 39.2498 80.2593H52.0066C52.4402 80.2593 52.7916 80.6107 52.7916 81.0443V88.3634C52.7916 88.7969 52.4402 89.1484 52.0066 89.1484ZM40.0348 87.5784H51.2216V81.8293H40.0348V87.5784Z" fill="#FF4D40"/>
<path d="M52.0066 96.4667H39.2498C38.8163 96.4667 38.4648 96.1153 38.4648 95.6817V88.3631C38.4648 87.9295 38.8163 87.5781 39.2498 87.5781H52.0066C52.4402 87.5781 52.7916 87.9295 52.7916 88.3631V95.6817C52.7916 96.1153 52.4402 96.4667 52.0066 96.4667ZM40.0348 94.8967H51.2216V89.1481H40.0348V94.8967Z" fill="#FF4D40"/>
<path d="M52.0066 103.786H39.2498C38.8163 103.786 38.4648 103.434 38.4648 103.001V95.6817C38.4648 95.2481 38.8163 94.8967 39.2498 94.8967H52.0066C52.4402 94.8967 52.7916 95.2481 52.7916 95.6817V103.001C52.7916 103.434 52.4402 103.786 52.0066 103.786ZM40.0348 102.216H51.2216V96.4667H40.0348V102.216Z" fill="#FF4D40"/>
<path d="M52.0066 111.104H39.2498C38.8163 111.104 38.4648 110.753 38.4648 110.319V103C38.4648 102.567 38.8163 102.215 39.2498 102.215H52.0066C52.4402 102.215 52.7916 102.567 52.7916 103V110.319C52.7916 110.753 52.4402 111.104 52.0066 111.104ZM40.0348 109.534H51.2216V103.785H40.0348V109.534Z" fill="#FF4D40"/>
<path d="M84.9007 101.346H79.1874C78.7539 101.346 78.4024 100.994 78.4024 100.561V91.6067C76.5174 90.3779 75.3647 88.2741 75.3647 86.0096C75.3647 82.3266 78.3611 79.3306 82.0438 79.3306C85.727 79.3306 88.7234 82.3266 88.7234 86.0096C88.7234 88.2738 87.5707 90.3776 85.6857 91.6067V100.561C85.6857 100.994 85.3343 101.346 84.9007 101.346ZM79.9724 99.7756H84.1157V91.1642C84.1157 90.8792 84.2701 90.6168 84.5192 90.4781C86.1441 89.5743 87.1534 87.862 87.1534 86.0099C87.1534 83.1925 84.8612 80.9008 82.0438 80.9008C79.2267 80.9008 76.9347 83.1928 76.9347 86.0099C76.9347 87.862 77.9443 89.5743 79.5692 90.4781C79.8183 90.6168 79.9727 90.8792 79.9727 91.1642V99.7756H79.9724Z" fill="#FF4D40"/>
<path d="M114.616 59.488H49.0472C48.6136 59.488 48.2622 59.1365 48.2622 58.703V57.8198C48.2622 57.3863 48.6136 57.0348 49.0472 57.0348C49.4808 57.0348 49.8322 57.3863 49.8322 57.8198V57.918H113.831V52.6572H56.1829C55.7493 52.6572 55.3979 52.3057 55.3979 51.8722C55.3979 51.4386 55.7493 51.0872 56.1829 51.0872H114.616C115.05 51.0872 115.401 51.4386 115.401 51.8722V58.703C115.401 59.1363 115.05 59.488 114.616 59.488Z" fill="white"/>
<path d="M59.1444 138.474C58.7108 138.474 58.3594 138.123 58.3594 137.689V124.571C58.3594 124.363 58.4418 124.163 58.5889 124.016L65.3098 117.287C65.6162 116.98 66.1133 116.98 66.4198 117.287C66.7264 117.594 66.7264 118.091 66.4198 118.397L59.9291 124.896V137.689C59.9294 138.123 59.578 138.474 59.1444 138.474Z" fill="white"/>
<path d="M65.4637 129.519C65.0301 129.519 64.6787 129.167 64.6787 128.734V126.231C64.6787 126.023 64.7614 125.823 64.9085 125.676L73.2972 117.287C73.6039 116.98 74.1011 116.98 74.4075 117.287C74.7141 117.594 74.7141 118.09 74.4075 118.397L66.2487 126.556V128.734C66.2487 129.168 65.897 129.519 65.4637 129.519Z" fill="white"/>
<path d="M72.6637 134.697C72.2301 134.697 71.8787 134.346 71.8787 133.912V128.492L67.5445 124.158C67.2378 123.852 67.2378 123.355 67.5445 123.048C67.8509 122.741 68.348 122.741 68.6544 123.048L73.2187 127.612C73.366 127.76 73.4487 127.959 73.4487 128.167V133.912C73.4487 134.346 73.0973 134.697 72.6637 134.697Z" fill="white"/>
<path d="M81.9657 137.593C81.5321 137.593 81.1807 137.242 81.1807 136.808V117.842C81.1807 117.409 81.5321 117.057 81.9657 117.057C82.3992 117.057 82.7507 117.409 82.7507 117.842V136.808C82.7507 137.242 82.3992 137.593 81.9657 137.593Z" fill="white"/>
<path d="M77.4012 133.517C76.9676 133.517 76.6162 133.165 76.6162 132.732V123.516C76.6162 123.308 76.6986 123.109 76.8457 122.962L81.4965 118.303C81.8024 117.996 82.2999 117.995 82.6065 118.302C82.9135 118.609 82.914 119.105 82.6076 119.412L78.1862 123.841V132.732C78.1862 133.165 77.8345 133.517 77.4012 133.517Z" fill="white"/>
<path d="M59.1443 142.606C57.5701 142.606 56.2896 141.325 56.2896 139.751C56.2896 138.181 57.5701 136.904 59.1443 136.904C60.7141 136.904 61.991 138.181 61.991 139.751C61.991 141.325 60.7141 142.606 59.1443 142.606ZM59.1443 138.474C58.4357 138.474 57.8596 139.047 57.8596 139.751C57.8596 140.46 58.436 141.036 59.1443 141.036C59.8482 141.036 60.421 140.46 60.421 139.751C60.421 139.047 59.8485 138.474 59.1443 138.474Z" fill="#FF4D40"/>
<path d="M65.4634 133.65C63.8934 133.65 62.6162 132.373 62.6162 130.804C62.6162 129.23 63.8934 127.949 65.4634 127.949C67.0332 127.949 68.3101 129.23 68.3101 130.804C68.3098 132.373 67.0329 133.65 65.4634 133.65ZM65.4634 129.519C64.7593 129.519 64.1862 130.095 64.1862 130.803C64.1862 131.507 64.759 132.08 65.4634 132.08C66.1673 132.08 66.7401 131.508 66.7401 130.803C66.7398 130.095 66.1673 129.519 65.4634 129.519Z" fill="#FF4D40"/>
<path d="M81.9658 141.725C80.3961 141.725 79.1191 140.447 79.1191 138.878C79.1191 137.304 80.3961 136.023 81.9658 136.023C83.54 136.023 84.8206 137.304 84.8206 138.878C84.8206 140.447 83.54 141.725 81.9658 141.725ZM81.9658 137.593C81.2619 137.593 80.6891 138.169 80.6891 138.878C80.6891 139.582 81.2617 140.155 81.9658 140.155C82.6741 140.155 83.2506 139.582 83.2506 138.878C83.2506 138.169 82.6741 137.593 81.9658 137.593Z" fill="#FF4D40"/>
<path d="M104.945 138.474C104.511 138.474 104.16 138.123 104.16 137.689V124.896L97.6584 118.387C97.3578 118.074 97.3672 117.577 97.6794 117.277C97.9915 116.976 98.4887 116.985 98.7894 117.298L99.0018 117.518L105.5 124.016C105.647 124.163 105.73 124.363 105.73 124.571V137.689C105.73 138.123 105.378 138.474 104.945 138.474Z" fill="white"/>
<path d="M98.6254 129.519C98.1918 129.519 97.8404 129.167 97.8404 128.734V126.557L89.674 118.397C89.3673 118.091 89.3671 117.594 89.6735 117.287C89.9799 116.98 90.4766 116.98 90.7835 117.287L99.1801 125.676C99.3274 125.823 99.4104 126.023 99.4104 126.231V128.734C99.4104 129.168 99.059 129.519 98.6254 129.519Z" fill="white"/>
<path d="M91.4246 134.697C90.9911 134.697 90.6396 134.346 90.6396 133.912V128.167C90.6396 127.959 90.7223 127.759 90.8697 127.612L95.4339 123.048C95.7406 122.741 96.2372 122.741 96.5439 123.048C96.8506 123.355 96.8506 123.852 96.5439 124.158L92.2096 128.492V133.912C92.2096 134.346 91.8585 134.697 91.4246 134.697Z" fill="white"/>
<path d="M104.945 142.606C103.375 142.606 102.098 141.325 102.098 139.751C102.098 138.181 103.375 136.904 104.945 136.904C106.514 136.904 107.792 138.181 107.792 139.751C107.792 141.325 106.514 142.606 104.945 142.606ZM104.945 138.474C104.241 138.474 103.668 139.047 103.668 139.751C103.668 140.46 104.24 141.036 104.945 141.036C105.649 141.036 106.222 140.46 106.222 139.751C106.222 139.047 105.649 138.474 104.945 138.474Z" fill="#FF4D40"/>
<path d="M98.6255 133.65C97.0513 133.65 95.771 132.373 95.771 130.804C95.771 129.23 97.0516 127.949 98.6255 127.949C100.195 127.949 101.472 129.23 101.472 130.804C101.472 132.373 100.195 133.65 98.6255 133.65ZM98.6255 129.519C97.9172 129.519 97.341 130.095 97.341 130.803C97.341 131.507 97.9172 132.08 98.6255 132.08C99.3294 132.08 99.9025 131.508 99.9025 130.803C99.9025 130.095 99.3294 129.519 98.6255 129.519Z" fill="#FF4D40"/>
<path d="M120.778 109.759H63.6375C63.204 109.759 62.8525 109.407 62.8525 108.974C62.8525 108.54 63.204 108.189 63.6375 108.189H120.778C121.212 108.189 121.563 108.54 121.563 108.974C121.563 109.407 121.212 109.759 120.778 109.759Z" fill="white"/>
</svg>
