<svg width="157" height="157" viewBox="0 0 157 157" fill="none" xmlns="http://www.w3.org/2000/svg">
<path d="M80.9559 99.6916C80.5818 99.6916 80.2692 99.3986 80.2432 99.024C80.2311 98.8333 80.2933 98.6497 80.4194 98.5066C80.5458 98.3612 80.7201 98.2754 80.9108 98.2632C80.9132 98.2632 80.9132 98.2632 80.9132 98.2632C81.3066 98.2372 81.6452 98.5422 81.6714 98.931C81.6976 99.3242 81.3974 99.6651 81.0038 99.6914C80.9866 99.6916 80.9726 99.6916 80.9559 99.6916ZM76.2017 99.5247C76.1683 99.5247 76.1373 99.5223 76.104 99.5178C72.9806 99.0884 70.0027 98.0656 67.2513 96.4779C65.3367 95.3714 63.5867 94.0195 62.0489 92.4581C60.5611 90.9441 59.2736 89.2343 58.2269 87.382C56.1574 83.7198 55.0631 79.5617 55.0654 75.3583C55.0631 73.2673 55.3349 71.1835 55.8689 69.1665C56.4197 67.085 57.2494 65.0775 58.3342 63.1963C59.4405 61.2818 60.7924 59.5318 62.3541 57.9963C63.8657 56.5062 65.5728 55.2211 67.4277 54.1744C71.0899 52.1049 75.2456 51.0105 79.449 51.0105H79.456C81.5448 51.0105 83.626 51.2799 85.6431 51.814C87.7221 52.3647 89.7296 53.1945 91.6087 54.2793C93.5256 55.3856 95.2756 56.7374 96.8134 58.2967C98.3036 59.8107 99.5887 61.5202 100.635 63.3728C102.705 67.035 103.799 71.1954 103.799 75.4012C103.799 77.4922 103.53 79.5737 102.996 81.5931C102.447 83.6724 101.618 85.6821 100.533 87.5632C98.8973 90.3933 96.7586 92.8205 94.1741 94.7827C91.6802 96.6756 88.8763 98.0539 85.8412 98.881C85.4669 98.9859 85.0639 98.7525 84.9614 98.3803C84.945 98.3159 84.9354 98.2491 84.9376 98.1824C84.9399 97.8653 85.1569 97.5863 85.4621 97.5029C85.4621 97.5005 85.4645 97.5005 85.4645 97.5005C85.4716 97.4979 85.479 97.4979 85.4836 97.4955C91.3488 95.8911 96.2532 92.1071 99.2954 86.8475C101.306 83.3593 102.369 79.4018 102.369 75.4008C102.366 67.2181 97.97 59.598 90.8936 55.5186C87.4103 53.5039 83.4524 52.4406 79.4517 52.4406C71.2737 52.4406 63.6561 56.8371 59.5743 63.9111C57.5596 67.3969 56.4962 71.3547 56.4938 75.3578C56.4962 83.5358 60.8928 91.1534 67.9668 95.2376C70.5585 96.7325 73.3599 97.6958 76.2973 98.1011C76.4881 98.1249 76.655 98.2251 76.7694 98.3753C76.8862 98.5279 76.9363 98.7162 76.9101 98.9067C76.8598 99.2574 76.5546 99.5247 76.2017 99.5247Z" fill="white"/>
<path d="M66.3447 105.853C66.2183 105.853 66.0967 105.822 65.9871 105.758L59.8381 102.217C59.6736 102.122 59.5544 101.967 59.5043 101.783C59.4566 101.6 59.4805 101.407 59.5758 101.24L64.051 93.4958C64.156 93.3146 64.3324 93.1883 64.5398 93.1503C64.7425 93.1122 64.9571 93.1668 65.1192 93.2979C66.0085 94.0132 66.967 94.6665 67.966 95.2411C68.9745 95.8228 70.0188 96.3259 71.0702 96.736C71.2658 96.8123 71.416 96.9675 71.4851 97.1654C71.5542 97.3633 71.5352 97.5776 71.4303 97.7588L66.9646 105.496C66.8358 105.717 66.5998 105.853 66.3447 105.853ZM61.1733 101.335L66.0824 104.162L69.7828 97.7512C68.9244 97.3816 68.0733 96.9522 67.2531 96.4804C66.4305 96.0083 65.6318 95.4836 64.8808 94.9211L61.1733 101.335Z" fill="#FF4D40"/>
<path d="M57.0963 126.212H57.0891C56.691 126.212 56.2976 126.107 55.9519 125.906C55.9519 125.906 55.9495 125.906 55.9495 125.904L47.4115 120.976C46.7058 120.568 46.2671 119.805 46.2671 118.987C46.2671 118.589 46.372 118.193 46.5723 117.848L56.2308 101.122C56.6409 100.416 57.4015 99.9778 58.2145 99.9778H58.2169C58.6198 99.9778 59.0132 100.082 59.3589 100.283L67.8969 105.214C68.6026 105.621 69.0413 106.384 69.0413 107.204C69.0413 107.603 68.9364 107.996 68.7385 108.342L59.08 125.067C58.6675 125.773 57.9069 126.212 57.0963 126.212ZM56.6671 124.669C56.7983 124.743 56.9413 124.781 57.0915 124.781C57.4039 124.778 57.6852 124.619 57.8426 124.349L67.4987 107.629C67.5726 107.497 67.6108 107.354 67.6108 107.204C67.6108 106.892 67.4463 106.603 67.1816 106.451L58.6437 101.523C58.5125 101.446 58.3695 101.408 58.2169 101.408C57.9046 101.411 57.6232 101.57 57.4682 101.84L47.8121 118.561C47.7358 118.692 47.6976 118.835 47.6976 118.987C47.6976 119.3 47.8621 119.586 48.1268 119.738L56.6647 124.667C56.6671 124.667 56.6671 124.667 56.6671 124.669Z" fill="#FF4D40"/>
<path d="M79.4222 92.3527V92.3408L79.4198 92.3527C76.4562 92.3527 73.526 91.5659 70.9463 90.0758C68.3188 88.557 66.142 86.3659 64.659 83.7361C63.2166 81.185 62.4536 78.2857 62.4536 75.3579C62.4536 72.3967 63.2404 69.4688 64.7306 66.8914C66.2469 64.264 68.438 62.0896 71.0631 60.6066C73.6142 59.1665 76.5111 58.4036 79.4389 58.4036C82.4047 58.4036 85.3328 59.1904 87.9149 60.6805C90.7114 62.297 92.9764 64.655 94.4665 67.5042C94.5192 67.6043 94.5452 67.7188 94.5478 67.8308C94.5502 68.1003 94.4024 68.3458 94.164 68.4698C94.0615 68.5247 93.947 68.5509 93.8326 68.5509C93.5655 68.5509 93.3221 68.4054 93.1984 68.167C91.8343 65.5587 89.7603 63.3985 87.1996 61.9203C84.8368 60.5565 82.1522 59.8341 79.4413 59.8341C73.898 59.8365 68.7361 62.8144 65.968 67.6067C64.6042 69.9671 63.8842 72.6494 63.8842 75.3579C63.8865 80.9036 66.8668 86.0679 71.6615 88.836C74.0243 90.2 76.7066 90.9222 79.4198 90.9222C84.9606 90.9222 90.1248 87.9445 92.8932 83.1519C93.9947 81.2422 94.667 79.1703 94.8936 76.9958C94.9341 76.6048 95.2869 76.3163 95.678 76.3569C95.8687 76.3783 96.0406 76.4689 96.1598 76.6168C96.2814 76.767 96.3363 76.9529 96.3172 77.1437C96.0716 79.5181 95.3349 81.781 94.1308 83.8672C92.6145 86.4923 90.4231 88.6667 87.7959 90.1499C85.2445 91.59 82.3501 92.3527 79.4222 92.3527ZM95.3966 73.0382C95.0557 73.0382 94.76 72.7927 94.6957 72.4565C94.6601 72.2705 94.6983 72.0798 94.8053 71.9224C94.9126 71.7627 95.075 71.6554 95.2633 71.6196C95.647 71.5481 96.0261 71.8056 96.1002 72.1871C96.1741 72.5733 95.9214 72.95 95.5328 73.0263C95.4872 73.0335 95.4419 73.0382 95.3966 73.0382Z" fill="#FF4D40"/>
<path d="M55.037 120.258C54.5768 120.258 54.1214 120.137 53.7209 119.903C52.9079 119.431 52.4024 118.556 52.4048 117.619C52.4048 117.159 52.5264 116.706 52.7577 116.305C53.2274 115.49 54.1 114.982 55.0394 114.982H55.0441C55.5019 114.982 55.9549 115.104 56.3555 115.332C56.3555 115.332 56.3555 115.332 56.3579 115.332C56.3579 115.332 56.3579 115.335 56.3602 115.335C57.1733 115.807 57.6787 116.687 57.6787 117.631C57.6787 118.086 57.5595 118.539 57.3306 118.937L57.3282 118.942C56.8562 119.753 55.9812 120.258 55.0418 120.258H55.037V120.258ZM55.0441 116.413C54.6078 116.415 54.2144 116.642 53.9975 117.021C53.8902 117.207 53.8353 117.41 53.8353 117.619C53.8353 118.056 54.0618 118.447 54.4385 118.666C54.6245 118.773 54.8248 118.828 55.0394 118.828C55.4709 118.828 55.8715 118.599 56.0884 118.232C56.0884 118.23 56.0884 118.23 56.0884 118.23C56.1957 118.044 56.2482 117.843 56.2482 117.631C56.2482 117.195 56.0169 116.792 55.6474 116.575C55.6474 116.575 55.6474 116.575 55.645 116.575C55.459 116.468 55.2563 116.413 55.0441 116.413Z" fill="#FF4D40"/>
<path d="M61.0238 100.886H31.6572C31.4664 100.886 31.2852 100.812 31.1517 100.677C31.0158 100.541 30.9419 100.362 30.9419 100.171C30.9419 99.9827 31.0182 99.797 31.1517 99.6656C31.2828 99.5321 31.4688 99.4558 31.6572 99.4558H61.0238C61.2122 99.4558 61.3958 99.5321 61.5293 99.6656C61.6604 99.797 61.7367 99.9827 61.7367 100.171C61.7367 100.362 61.6628 100.541 61.5293 100.677C61.3934 100.813 61.2146 100.886 61.0238 100.886Z" fill="#FF4D40"/>
<path d="M51.896 106.039H28.8857C28.6949 106.039 28.5161 105.965 28.3802 105.829C28.2443 105.695 28.1704 105.514 28.1704 105.323C28.1704 105.135 28.2467 104.951 28.3802 104.818C28.5137 104.684 28.6973 104.608 28.8857 104.608H51.896C52.0843 104.608 52.2679 104.684 52.4014 104.818C52.5349 104.952 52.6112 105.135 52.6112 105.323C52.6112 105.514 52.5373 105.693 52.4014 105.829C52.2655 105.965 52.0867 106.039 51.896 106.039Z" fill="#FF4D40"/>
<path d="M118.767 95.1237H93.4727C93.1628 95.1237 92.8912 94.9258 92.7932 94.6326C92.6979 94.3369 92.8004 94.015 93.0507 93.8336C94.25 92.949 95.3682 91.9429 96.3741 90.839C96.6292 90.56 97.1015 90.5359 97.3826 90.7937C97.6757 91.0583 97.695 91.5116 97.4303 91.8046C96.8247 92.4674 96.176 93.1016 95.5015 93.6929H118.767C122.455 93.6929 125.922 92.2576 128.528 89.6516C131.134 87.0457 132.567 83.579 132.569 79.8908C132.567 76.1476 131.091 72.6403 128.408 70.0201C128.237 69.8508 128.161 69.5981 128.211 69.3596C128.449 68.2271 128.571 67.066 128.573 65.9144C128.571 60.8336 126.263 56.139 122.24 53.0324C122.238 53.03 122.238 53.03 122.238 53.03C122.064 52.8941 121.964 52.6914 121.962 52.4697C121.959 52.31 122.012 52.155 122.112 52.0286C122.343 51.7258 122.808 51.6638 123.111 51.8975C123.113 51.8975 123.113 51.8975 123.113 51.8999L123.132 51.9142C125.223 53.5307 126.952 55.6312 128.134 57.9892C128.737 59.1932 129.202 60.4688 129.517 61.7778C129.839 63.1249 130.004 64.5172 130.001 65.9144C130.004 67.035 129.896 68.1651 129.686 69.2738C132.467 72.1325 134 75.9044 134 79.8908C134 81.9484 133.597 83.944 132.803 85.8228C132.035 87.6372 130.939 89.2656 129.539 90.6628C128.142 92.0623 126.511 93.1615 124.696 93.9268C122.82 94.7208 120.825 95.1237 118.767 95.1237ZM64.3469 95.1237H38.1274C36.0698 95.1237 34.0742 94.721 32.1978 93.9268C30.3834 93.1615 28.7526 92.0623 27.3554 90.6628C25.9559 89.2659 24.8591 87.6374 24.0914 85.8228C23.2975 83.944 22.8945 81.9484 22.8945 79.8908C22.8945 75.9211 24.4157 72.1611 27.1742 69.3096C29.928 66.4652 33.6188 64.82 37.5695 64.677C37.6792 64.4839 37.8699 64.3575 38.0893 64.3265C38.4731 64.2717 38.8427 64.5506 38.8975 64.9345C38.9118 65.0442 38.9309 65.1562 38.9476 65.2635C38.9834 65.4709 38.9261 65.6831 38.7902 65.8429C38.6543 66.005 38.4541 66.098 38.2443 66.098H38.1274C34.439 66.098 30.9723 67.5333 28.3664 70.1369C25.7604 72.7429 24.3275 76.2072 24.3251 79.8908C24.3275 83.5792 25.7604 87.0459 28.3664 89.6516C30.9723 92.2579 34.439 93.6929 38.1274 93.6929H63.3598C60.9088 91.5543 58.9418 88.9817 57.516 86.0443C57.4684 85.9465 57.4445 85.844 57.4445 85.7343C57.4445 85.4625 57.6019 85.2074 57.8475 85.0882C57.9452 85.0405 58.0501 85.0167 58.1598 85.0167C58.4316 85.0167 58.6843 85.174 58.8035 85.4194C60.3056 88.512 62.43 91.1606 65.1146 93.2924C65.3912 93.5117 65.4675 93.9075 65.2887 94.2127L64.9644 94.768C64.8357 94.9902 64.6044 95.1237 64.3469 95.1237ZM99.7385 88.2166C99.6097 88.2166 99.4834 88.1808 99.3737 88.114C99.0351 87.9111 98.9231 87.4727 99.1258 87.1363C99.1258 87.1339 99.1258 87.1339 99.1258 87.1339C99.2545 86.9193 99.4884 86.7858 99.7409 86.7858C99.8696 86.7858 99.996 86.8192 100.106 86.8859C100.27 86.9837 100.387 87.141 100.432 87.3246C100.48 87.5106 100.451 87.7037 100.354 87.8682C100.225 88.083 99.9888 88.2166 99.7385 88.2166ZM52.0275 87.4417C51.7414 87.4417 51.4839 87.2724 51.3719 87.0101C50.7138 85.4842 50.2084 83.8866 49.8722 82.2581C49.5336 80.6273 49.3643 78.9559 49.3643 77.2918C49.3643 74.917 49.7101 72.559 50.3943 70.2892C50.504 69.9245 50.9141 69.7003 51.286 69.8124C51.4672 69.8672 51.6174 69.9888 51.708 70.1581C51.7986 70.325 51.8177 70.5205 51.7629 70.7017C51.1215 72.838 50.7949 75.0553 50.7949 77.2918C50.7949 80.4556 51.4291 83.5337 52.6856 86.4422C52.7595 86.6187 52.7643 86.812 52.6927 86.9908C52.6212 87.167 52.4877 87.3053 52.3113 87.3818C52.2207 87.4226 52.1253 87.4417 52.0275 87.4417ZM101.758 83.9059C101.679 83.9059 101.598 83.8916 101.522 83.8653C101.231 83.7628 101.04 83.4886 101.043 83.1811C101.045 83.1048 101.057 83.0261 101.083 82.9522C101.937 80.5226 102.369 77.9834 102.369 75.4037C102.366 67.2186 97.9696 59.5986 90.8932 55.5191C87.4098 53.5045 83.452 52.4411 79.4513 52.4411C71.2733 52.4411 63.6557 56.8376 59.5739 63.9116C57.5592 67.4069 56.4934 71.3695 56.4934 75.3751C56.4934 75.7542 56.503 76.1404 56.5221 76.5219C56.5411 76.9153 56.2383 77.2515 55.8425 77.2729C55.4491 77.292 55.113 76.9868 55.0939 76.5934C55.0724 76.1905 55.0629 75.7804 55.0629 75.3751C55.0629 73.2817 55.3323 71.1955 55.8664 69.176C56.4171 67.0922 57.2492 65.0799 58.3341 63.1964C59.4404 61.2818 60.7922 59.5318 62.3515 57.9964C63.8655 56.5062 65.5726 55.2211 67.4276 54.1744C71.0874 52.1049 75.2455 51.0105 79.4489 51.0105H79.4558C81.5446 51.0105 83.6282 51.28 85.6453 51.814C87.7246 52.3648 89.7295 53.1945 91.6085 54.2793C93.5254 55.3856 95.2755 56.7375 96.8133 58.2992C98.3008 59.8131 99.5885 61.5203 100.635 63.3752C102.705 67.0398 103.799 71.1979 103.799 75.4037C103.799 78.1455 103.339 80.8424 102.435 83.4245C102.435 83.4245 102.435 83.4245 102.435 83.4269C102.333 83.7127 102.061 83.9059 101.758 83.9059ZM56.5218 81.9794C56.1952 81.9794 55.9091 81.7577 55.828 81.4429C55.7803 81.257 55.8089 81.0639 55.9043 80.8993C56.0021 80.7351 56.1594 80.618 56.343 80.5703C56.4026 80.556 56.4622 80.5489 56.5218 80.5489C56.8485 80.5489 57.1322 80.7682 57.2132 81.0853C57.311 81.4692 57.0797 81.8578 56.6982 81.9579C56.641 81.972 56.5814 81.9794 56.5218 81.9794ZM38.3039 61.0029C38.2586 61.0029 38.2133 61.0005 38.1703 60.991C37.982 60.9552 37.8199 60.8503 37.7126 60.6929C37.6029 60.5332 37.5647 60.3448 37.5981 60.1565C37.672 59.775 38.0487 59.5127 38.435 59.5866C38.8212 59.6582 39.0787 60.0325 39.0048 60.4211C38.9404 60.7597 38.6472 61.0029 38.3039 61.0029ZM39.9371 56.5491C39.8131 56.5491 39.6915 56.5157 39.5842 56.4538C39.3625 56.3274 39.2242 56.0914 39.2218 55.8362C39.2218 55.7123 39.2528 55.5883 39.3148 55.4786C40.5951 53.2231 42.4453 51.3181 44.665 49.971C46.9443 48.5858 49.5646 47.8252 52.2421 47.7704C52.9383 44.3895 54.7956 41.3138 57.4731 39.106C58.8083 38.0069 60.3032 37.1486 61.9221 36.5573C63.5959 35.9445 65.3554 35.6322 67.1555 35.6322C69.7281 35.6322 72.2697 36.2831 74.5014 37.5158C76.0916 35.1864 78.2422 33.248 80.7218 31.908C81.9855 31.2261 83.3299 30.6992 84.7202 30.344C86.1507 29.9792 87.6313 29.7932 89.1241 29.7932C91.5107 29.7932 93.8258 30.2605 96.0072 31.1832C98.1125 32.0749 100.003 33.3481 101.627 34.9742C103.253 36.5978 104.526 38.4885 105.418 40.5938C106.34 42.7754 106.808 45.0905 106.808 47.4795C106.808 48.0183 106.782 48.5715 106.731 49.1198C108.52 48.5238 110.398 48.221 112.315 48.221H112.318C112.878 48.221 113.441 48.2472 113.992 48.2997C114.385 48.3354 114.673 48.6859 114.635 49.0793C114.6 49.4703 114.254 49.7612 113.858 49.7231C113.346 49.6754 112.828 49.6515 112.318 49.6515C110.172 49.6515 108.095 50.0592 106.15 50.8627C105.914 50.9581 105.632 50.9199 105.434 50.7626C105.232 50.6028 105.13 50.3453 105.17 50.0902C105.308 49.2104 105.377 48.3307 105.377 47.4795C105.377 43.1378 103.687 39.056 100.616 35.9851C97.545 32.9142 93.4632 31.2238 89.1241 31.2238C83.4854 31.2238 78.3304 34.0777 75.3358 38.8557C75.2023 39.0679 74.9758 39.1919 74.7279 39.1919C74.5967 39.1919 74.468 39.1561 74.3535 39.087C72.1982 37.7637 69.709 37.0628 67.1555 37.0628H67.1507C60.3676 37.0628 54.6454 41.9147 53.5439 48.5977C53.4867 48.9458 53.1887 49.1961 52.8382 49.1961H52.5664C47.6119 49.1961 43.0103 51.8736 40.5593 56.1867C40.433 56.4085 40.1946 56.5491 39.9371 56.5491ZM118.545 50.8317C118.457 50.8317 118.369 50.815 118.283 50.7817C118.107 50.7125 117.966 50.5766 117.89 50.4002C117.813 50.2261 117.811 50.0306 117.88 49.8542C117.99 49.5776 118.25 49.4012 118.545 49.4012C118.636 49.4012 118.724 49.4179 118.808 49.4513C119.175 49.5967 119.356 50.0115 119.213 50.3787C119.103 50.6529 118.841 50.8317 118.545 50.8317Z" fill="white"/>
</svg>
