<svg width="157" height="157" viewBox="0 0 157 157" fill="none" xmlns="http://www.w3.org/2000/svg">
<path d="M37.9711 129.497C37.7779 129.497 37.5991 129.423 37.4632 129.29C37.3273 129.154 37.2534 128.975 37.2534 128.782V80.2815C37.2534 79.8857 37.5729 79.5663 37.9687 79.5663C38.3621 79.5663 38.684 79.8857 38.684 80.2815V128.064L72.9121 127.947C73.0003 127.947 73.0861 127.962 73.1648 127.992C73.4414 128.095 73.6297 128.364 73.6297 128.66C73.6321 129.053 73.3126 129.375 72.9168 129.378L37.9711 129.497ZM77.6853 129.361H77.6829C77.2895 129.361 76.97 129.041 76.9676 128.648C76.9676 128.455 77.0416 128.276 77.1751 128.14C77.311 128.004 77.4898 127.93 77.6805 127.93H77.6829C78.0763 127.93 78.3982 128.25 78.3982 128.643C78.3982 128.834 78.3267 129.013 78.1908 129.149C78.0572 129.285 77.876 129.359 77.6853 129.361ZM82.4538 129.344H82.4514C82.058 129.344 81.7385 129.025 81.7361 128.631C81.7361 128.441 81.81 128.26 81.9435 128.126C82.0794 127.99 82.2583 127.914 82.449 127.914L105.979 127.833L106.072 69.3379C106.072 68.9445 106.392 68.625 106.785 68.625C106.978 68.625 107.157 68.6989 107.293 68.8348C107.428 68.9707 107.503 69.1495 107.5 69.3403L107.409 128.546C107.409 128.939 107.09 129.259 106.697 129.261L82.4538 129.344ZM37.9687 76.2283C37.5729 76.2283 37.2534 75.9065 37.2534 75.5131C37.2534 75.1173 37.5729 74.7978 37.9687 74.7978C38.3621 74.7978 38.684 75.1173 38.684 75.5131C38.684 75.9065 38.3621 76.2283 37.9687 76.2283ZM37.9687 71.4599C37.5729 71.4599 37.2534 71.138 37.2534 70.7446V45.2094C37.2534 45.0211 37.3297 44.8375 37.4632 44.704C37.5967 44.5704 37.7803 44.4941 37.9687 44.4941H106.823C107.014 44.4941 107.195 44.5704 107.329 44.704C107.464 44.8399 107.538 45.0187 107.538 45.2118L107.517 59.8033C107.514 60.1967 107.195 60.5186 106.802 60.5186C106.406 60.5186 106.084 60.1967 106.086 59.8009L106.108 45.9247H38.684V70.7446C38.684 71.138 38.3621 71.4599 37.9687 71.4599ZM106.794 65.2871H106.792C106.601 65.2871 106.422 65.2108 106.286 65.0773C106.153 64.9414 106.077 64.7602 106.079 64.5694C106.079 64.176 106.399 63.8565 106.794 63.8565C106.985 63.8565 107.164 63.9304 107.3 64.0663C107.436 64.2022 107.509 64.3811 107.507 64.5718C107.507 64.9652 107.188 65.2871 106.794 65.2871Z" fill="white"/>
<path d="M99.4663 68.9979H86.7631C86.3699 68.9979 86.0478 68.676 86.0478 68.2826C86.0478 67.8892 86.3699 67.5673 86.7631 67.5673H98.751V52.3988H46.0355V67.5673H77.2261C77.6219 67.5673 77.9414 67.8892 77.9414 68.2826C77.9414 68.676 77.6219 68.9979 77.2261 68.9979H45.3203C45.1319 68.9979 44.9483 68.9216 44.8148 68.788C44.6813 68.6545 44.605 68.4709 44.605 68.2826V51.6835C44.605 51.4952 44.6813 51.3116 44.8148 51.1781C44.9483 51.0446 45.1343 50.9683 45.3203 50.9683H99.4663C99.6546 50.9683 99.8382 51.0446 99.9717 51.1781C100.105 51.3116 100.182 51.4952 100.182 51.6835V68.2826C100.182 68.4733 100.107 68.6521 99.9717 68.788C99.838 68.9239 99.6591 68.9979 99.4663 68.9979ZM81.9946 68.9979C81.6014 68.9979 81.2793 68.676 81.2793 68.2826C81.2793 67.8892 81.6014 67.5673 81.9946 67.5673C82.3904 67.5673 82.7099 67.8892 82.7099 68.2826C82.7099 68.676 82.3904 68.9979 81.9946 68.9979Z" fill="white"/>
<path d="M55.2582 94.7423H46.0932C45.9048 94.7423 45.7213 94.666 45.5877 94.5325C45.4542 94.3988 45.3779 94.2154 45.3779 94.0271V84.8642C45.3779 84.6758 45.4542 84.4901 45.5877 84.3564C45.7213 84.2252 45.9048 84.1489 46.0932 84.1489H55.2582C55.4466 84.1489 55.6302 84.2252 55.7637 84.3564C55.8948 84.4901 55.9735 84.6735 55.9735 84.8642V94.0271C55.9735 94.2178 55.8972 94.399 55.7637 94.5325C55.6278 94.6684 55.4489 94.7423 55.2582 94.7423ZM46.8085 93.3118H54.5429V85.5773H46.8085V93.3118Z" fill="white"/>
<path d="M69.7382 94.7423H60.5732C60.3848 94.7423 60.2012 94.666 60.0677 94.5325C59.9342 94.3988 59.8579 94.2154 59.8579 94.0271V84.8642C59.8579 84.6758 59.9342 84.4901 60.0677 84.3564C60.2012 84.2252 60.3848 84.1489 60.5732 84.1489H69.7382C69.9265 84.1489 70.1101 84.2252 70.2436 84.3564C70.3772 84.4901 70.4535 84.6735 70.4535 84.8642V94.0271C70.4535 94.2178 70.3795 94.3966 70.2436 94.5325C70.1077 94.6684 69.9289 94.7423 69.7382 94.7423ZM61.2885 93.3118H69.0229V85.5773H61.2885V93.3118Z" fill="white"/>
<path d="M84.2172 94.7423H75.0522C74.8638 94.7423 74.6802 94.666 74.5467 94.5325C74.4132 94.3988 74.3369 94.2154 74.3369 94.0271V84.8642C74.3369 84.6758 74.4132 84.4901 74.5467 84.3564C74.6802 84.2252 74.8638 84.1489 75.0522 84.1489H84.2172C84.4056 84.1489 84.5891 84.2252 84.7227 84.3564C84.8562 84.4901 84.9301 84.6735 84.9301 84.8642V94.0271C84.9301 94.2178 84.8559 94.3966 84.7227 94.5325C84.5868 94.6684 84.4079 94.7423 84.2172 94.7423ZM75.7675 93.3118H83.5019V85.5773H75.7675V93.3118Z" fill="white"/>
<path d="M98.6958 94.7423H89.5331C89.3424 94.7423 89.1588 94.666 89.0253 94.5325C88.8942 94.3988 88.8179 94.2154 88.8179 94.0271V84.8642C88.8179 84.6758 88.8942 84.4901 89.0253 84.3564C89.1588 84.2252 89.3424 84.1489 89.5331 84.1489H98.6958C98.8841 84.1489 99.0679 84.2252 99.2012 84.3564C99.335 84.4901 99.411 84.6758 99.411 84.8642V94.0271C99.411 94.2178 99.3371 94.3966 99.2012 94.5325C99.0656 94.6684 98.8867 94.7423 98.6958 94.7423ZM90.2463 93.3118H97.9805V85.5773H90.2463V93.3118Z" fill="white"/>
<path d="M55.2587 107.811H46.0937C45.9053 107.811 45.7217 107.735 45.5882 107.601C45.4547 107.468 45.3784 107.284 45.3784 107.096V97.933C45.3784 97.7447 45.4547 97.5587 45.5882 97.4276C45.7217 97.2941 45.9053 97.2178 46.0937 97.2178H55.2587C55.4471 97.2178 55.6306 97.2941 55.7642 97.4276C55.8977 97.5587 55.974 97.7447 55.974 97.933V107.096C55.974 107.287 55.8977 107.465 55.7642 107.601C55.6283 107.737 55.4471 107.811 55.2587 107.811ZM46.809 106.38H54.541V98.6483H46.809V106.38Z" fill="white"/>
<path d="M69.7382 107.811H60.5732C60.3848 107.811 60.2012 107.735 60.0677 107.601C59.9342 107.468 59.8579 107.284 59.8579 107.096V97.933C59.8579 97.7447 59.9342 97.5587 60.0677 97.4276C60.2012 97.2941 60.3848 97.2178 60.5732 97.2178H69.7382C69.9265 97.2178 70.1101 97.2941 70.2436 97.4276C70.3772 97.5587 70.4535 97.7447 70.4535 97.933V107.096C70.4535 107.287 70.3795 107.465 70.2436 107.601C70.1077 107.737 69.9289 107.811 69.7382 107.811ZM61.2885 106.38H69.0229V98.6483H61.2885V106.38Z" fill="white"/>
<path d="M84.2172 107.811H75.0522C74.8638 107.811 74.6802 107.735 74.5467 107.601C74.4132 107.468 74.3369 107.284 74.3369 107.096V97.933C74.3369 97.7447 74.4132 97.5587 74.5467 97.4276C74.6802 97.2941 74.8638 97.2178 75.0522 97.2178H84.2172C84.4056 97.2178 84.5891 97.2941 84.7227 97.4276C84.8562 97.5587 84.9301 97.7447 84.9301 97.933V107.096C84.9301 107.287 84.8559 107.465 84.7227 107.601C84.5868 107.737 84.4079 107.811 84.2172 107.811ZM75.7675 106.38H83.5019V98.6483H75.7675V106.38Z" fill="white"/>
<path d="M98.6967 107.811H89.5341C89.3457 107.811 89.1597 107.735 89.0262 107.601C88.8927 107.468 88.8164 107.284 88.8164 107.096V97.933C88.8164 97.7447 88.8927 97.5587 89.0262 97.4276C89.1597 97.2941 89.3457 97.2178 89.5341 97.2178H98.6967C98.885 97.2178 99.0689 97.2941 99.2021 97.4276C99.3359 97.5587 99.4119 97.7447 99.4119 97.933V107.096C99.4119 107.287 99.338 107.465 99.2021 107.601C99.0665 107.737 98.8876 107.811 98.6967 107.811ZM90.2472 106.38H97.9814V98.6483H90.2472V106.38Z" fill="white"/>
<path d="M55.2587 120.887H46.0937C45.9053 120.887 45.7217 120.811 45.5882 120.678C45.4547 120.544 45.3784 120.36 45.3784 120.172V111.009C45.3784 110.821 45.4547 110.635 45.5882 110.501C45.7217 110.37 45.9053 110.294 46.0937 110.294H55.2587C55.4471 110.294 55.6306 110.37 55.7642 110.504C55.8953 110.635 55.9716 110.821 55.9716 111.009V120.172C55.9716 120.363 55.8977 120.544 55.7642 120.678C55.6283 120.813 55.4471 120.887 55.2587 120.887ZM46.809 119.457H54.5434V111.724H46.809V119.457Z" fill="white"/>
<path d="M69.7382 120.887H60.5732C60.3848 120.887 60.2012 120.811 60.0677 120.678C59.9342 120.544 59.8579 120.36 59.8579 120.172V111.009C59.8579 110.821 59.9342 110.635 60.0677 110.501C60.2012 110.37 60.3848 110.294 60.5732 110.294H69.7382C69.9265 110.294 70.1101 110.37 70.2436 110.504C70.3772 110.635 70.4535 110.821 70.4535 111.009V120.172C70.4535 120.363 70.3795 120.544 70.2436 120.678C70.1077 120.813 69.9289 120.887 69.7382 120.887ZM61.2885 119.457H69.0229V111.724H61.2885V119.457Z" fill="white"/>
<path d="M84.2172 120.887H75.0522C74.8638 120.887 74.6802 120.811 74.5467 120.678C74.4132 120.544 74.3369 120.36 74.3369 120.172V111.009C74.3369 110.821 74.4132 110.635 74.5467 110.501C74.6802 110.37 74.8638 110.294 75.0522 110.294H84.2172C84.4056 110.294 84.5891 110.37 84.7227 110.504C84.8562 110.635 84.9325 110.821 84.9325 111.009V120.172C84.9325 120.363 84.8562 120.542 84.7227 120.678C84.5868 120.813 84.4079 120.887 84.2172 120.887ZM75.7675 119.457H83.5019V111.724H75.7675V119.457Z" fill="white"/>
<path d="M98.696 120.887H89.5312C89.3429 120.887 89.1591 120.811 89.0258 120.678C88.8923 120.544 88.8184 120.36 88.8184 120.172V111.009C88.8184 110.821 88.8925 110.635 89.0258 110.501C89.1593 110.37 89.3429 110.294 89.5312 110.294H98.696C98.8844 110.294 99.0682 110.37 99.2015 110.504C99.3352 110.635 99.4113 110.821 99.4113 111.009V120.172C99.4113 120.363 99.3374 120.544 99.2015 120.678C99.0658 120.813 98.887 120.887 98.696 120.887ZM90.2465 119.457H97.9807V111.724H90.2465V119.457Z" fill="#FF4D40"/>
<path d="M102.793 49.1156H41.9975C41.6017 49.1156 41.2822 48.7961 41.2822 48.4003C41.2822 48.0069 41.6017 47.6851 41.9975 47.6851H102.793C103.189 47.6851 103.508 48.0069 103.508 48.4003C103.508 48.7961 103.189 49.1156 102.793 49.1156Z" fill="white"/>
<path d="M55.2587 80.5378H46.0937C45.9053 80.5378 45.7217 80.4615 45.5882 80.328C45.4547 80.1969 45.3784 80.0109 45.3784 79.8226V73.3613C45.3784 73.1729 45.4547 72.9893 45.5882 72.8558C45.7217 72.7223 45.9053 72.646 46.0937 72.646H55.2587C55.4471 72.646 55.6306 72.7223 55.7642 72.8558C55.8953 72.9893 55.9716 73.1729 55.9716 73.3613V79.8226C55.9716 80.0109 55.8953 80.1945 55.7642 80.328C55.6306 80.4615 55.4447 80.5378 55.2587 80.5378ZM46.809 79.1073H54.541V74.0765H46.809V79.1073Z" fill="#FF4D40"/>
<path d="M69.7382 80.5378H60.5732C60.3872 80.5378 60.2012 80.4615 60.0677 80.328C59.9342 80.1945 59.8579 80.0109 59.8579 79.8226V73.3613C59.8579 73.1729 59.9342 72.9893 60.0677 72.8558C60.2012 72.7223 60.3848 72.646 60.5732 72.646H69.7382C69.9265 72.646 70.1101 72.7223 70.2436 72.8558C70.3772 72.9893 70.4535 73.1729 70.4535 73.3613V79.8226C70.4535 80.0109 70.3772 80.1969 70.2436 80.328C70.1101 80.4615 69.9265 80.5378 69.7382 80.5378ZM61.2885 79.1073H69.0229V74.0765H61.2885V79.1073Z" fill="#FF4D40"/>
<path d="M84.2172 80.5378H75.0522C74.8638 80.5378 74.6802 80.4615 74.5467 80.328C74.4132 80.1945 74.3369 80.0109 74.3369 79.8226V73.3613C74.3369 73.1729 74.4132 72.9893 74.5467 72.8558C74.6802 72.7223 74.8638 72.646 75.0522 72.646H84.2172C84.4056 72.646 84.5891 72.7223 84.7227 72.8558C84.8562 72.9893 84.9325 73.1729 84.9325 73.3613V79.8226C84.9325 80.0133 84.8562 80.1945 84.7227 80.328C84.5868 80.4639 84.4079 80.5378 84.2172 80.5378ZM75.7675 79.1073H83.5019V74.0765H75.7675V79.1073Z" fill="#FF4D40"/>
<path d="M98.6962 80.5378H89.5336C89.3453 80.5378 89.1593 80.4615 89.0258 80.328C88.8947 80.1969 88.8184 80.0109 88.8184 79.8226V73.3613C88.8184 73.1729 88.8947 72.9893 89.0258 72.8558C89.1593 72.7223 89.3429 72.646 89.5336 72.646H98.6962C98.8846 72.646 99.0684 72.7223 99.2017 72.8558C99.3355 72.9893 99.4115 73.1753 99.4115 73.3613V79.8226C99.4115 80.0133 99.3376 80.1945 99.2017 80.328C99.066 80.4639 98.8872 80.5378 98.6962 80.5378ZM90.2468 79.1073H97.981V74.0765H90.2468V79.1073Z" fill="#FF4D40"/>
<path d="M123.8 102.967C123.467 102.967 123.183 102.74 123.104 102.418C123.059 102.232 123.09 102.039 123.19 101.877C123.29 101.712 123.447 101.598 123.633 101.555H123.636C124.015 101.464 124.406 101.705 124.496 102.082C124.539 102.267 124.511 102.461 124.411 102.623C124.31 102.785 124.155 102.9 123.969 102.945H123.967C123.913 102.959 123.855 102.967 123.8 102.967ZM119.082 102.919C119.02 102.919 118.96 102.912 118.901 102.895C116.702 102.32 114.711 101.011 113.298 99.2087C112.59 98.3077 112.036 97.304 111.657 96.2311C111.264 95.1176 111.066 93.9515 111.066 92.7668V37.4692C111.064 35.0659 110.122 32.7985 108.41 31.0866C106.696 29.3747 104.431 28.4305 102.028 28.4305C99.6243 28.4305 97.3593 29.3747 95.6448 31.0842C93.9329 32.7961 92.9911 35.0635 92.9911 37.4692V45.2084C92.9911 45.3992 92.9172 45.5804 92.7813 45.7163C92.6454 45.8498 92.4666 45.9237 92.2758 45.9237H42.7626C42.5743 45.9237 42.3907 45.8474 42.2572 45.7163C42.1237 45.5827 42.0474 45.3968 42.0474 45.2084V34.4746C42.0497 30.357 45.402 27.0024 49.5219 27H81.6138C82.0069 27 82.329 27.3219 82.329 27.7153C82.329 28.1111 82.0069 28.4305 81.6138 28.4305H49.5219C47.915 28.4305 46.3986 29.0624 45.2542 30.2068C44.1073 31.3536 43.4779 32.87 43.4779 34.4746V44.4931H91.5608V37.4692C91.5608 35.6047 92.0615 33.7712 93.008 32.169C93.9186 30.6288 95.2135 29.3366 96.7582 28.4305H91.1507C90.7549 28.4305 90.4354 28.1111 90.4354 27.7153C90.4354 27.3219 90.7549 27 91.1507 27H102.028C103.437 27.0024 104.805 27.279 106.095 27.8273C107.34 28.3566 108.458 29.1124 109.421 30.0757C110.384 31.0365 111.14 32.1571 111.669 33.4017C112.218 34.6915 112.494 36.0601 112.494 37.4692V85.0061H131.285C131.473 85.0061 131.659 85.0821 131.793 85.2159C131.926 85.3494 132 85.533 132 85.7214V92.7668C132 95.7518 130.71 98.6058 128.459 100.599C128.173 100.852 127.699 100.823 127.449 100.539C127.334 100.411 127.27 100.244 127.267 100.072C127.265 99.8646 127.353 99.667 127.511 99.5287C129.453 97.807 130.57 95.3418 130.572 92.767V86.4369H112.495V92.767C112.492 96.8727 115.275 100.47 119.261 101.512C119.447 101.56 119.602 101.677 119.697 101.841C119.795 102.006 119.822 102.199 119.774 102.385C119.69 102.7 119.406 102.919 119.082 102.919ZM86.3822 28.4305C85.9865 28.4305 85.667 28.1111 85.667 27.7153C85.667 27.3219 85.9865 27 86.3822 27C86.7754 27 87.0975 27.3219 87.0975 27.7153C87.0975 28.1111 86.7754 28.4305 86.3822 28.4305Z" fill="white"/>
<path d="M120.665 103.236H106.741C106.553 103.236 106.369 103.16 106.236 103.026C106.102 102.892 106.026 102.709 106.026 102.521V85.7236C106.026 85.3302 106.348 85.0083 106.741 85.0083C107.137 85.0083 107.456 85.3302 107.456 85.7236V101.805H120.665C121.061 101.805 121.38 102.125 121.38 102.521C121.38 102.914 121.061 103.236 120.665 103.236Z" fill="white"/>
<path d="M29.5488 112.45C29.153 112.45 28.8335 112.128 28.8335 111.735V77.7499C28.8335 77.3565 29.153 77.0347 29.5488 77.0347C29.9422 77.0347 30.264 77.3565 30.264 77.7499V111.735C30.264 112.128 29.9422 112.45 29.5488 112.45Z" fill="#FF4D40"/>
<path d="M29.5491 125.332C29.2749 125.332 29.0198 125.172 28.903 124.924L25.0691 116.859C25.0262 116.766 25 116.656 25 116.551V115.881C25 115.488 25.3219 115.166 25.7153 115.166C26.1111 115.166 26.4305 115.488 26.4305 115.881V116.391L29.5491 122.95L32.6606 116.391V74.2689H26.4305V106.344C26.4305 106.737 26.1111 107.059 25.7153 107.059C25.3219 107.059 25 106.737 25 106.344V73.5537C25 73.3653 25.0763 73.1817 25.2098 73.0482C25.3433 72.9147 25.5269 72.8384 25.7153 72.8384H33.3758C33.5642 72.8384 33.7478 72.9147 33.8813 73.0482C34.0148 73.1817 34.0911 73.3653 34.0911 73.5537V116.551C34.0911 116.656 34.0649 116.766 34.0219 116.859L30.1953 124.924C30.076 125.172 29.8233 125.332 29.5491 125.332ZM25.7153 111.828C25.3219 111.828 25 111.506 25 111.113C25 110.719 25.3219 110.397 25.7153 110.397C26.1111 110.397 26.4305 110.719 26.4305 111.113C26.4305 111.506 26.1111 111.828 25.7153 111.828Z" fill="#FF4D40"/>
<path d="M33.3758 74.2678H25.7153C25.5269 74.2678 25.3433 74.1915 25.2098 74.058C25.0763 73.9245 25 73.7409 25 73.5525V70.3887C25 70.2027 25.0763 70.0167 25.2098 69.8832C25.3433 69.7521 25.5269 69.6758 25.7153 69.6758H33.3758C33.5642 69.6758 33.7478 69.7521 33.8813 69.8832C34.0148 70.0167 34.0911 70.2003 34.0911 70.3887V73.5525C34.0911 73.7409 34.0148 73.9245 33.8813 74.058C33.7478 74.1915 33.5642 74.2678 33.3758 74.2678ZM26.4305 72.8373H32.6606V71.1039H26.4305V72.8373Z" fill="#FF4D40"/>
<path d="M33.3758 71.1053H25.7153C25.5269 71.1053 25.3433 71.029 25.2098 70.8979C25.0763 70.7643 25 70.5808 25 70.3924V63.5234C25.0024 62.6365 25.7272 61.9164 26.6165 61.9141H31.9882C33.1446 61.9164 34.0887 62.8606 34.0911 64.017V70.3924C34.0911 70.5784 34.0148 70.7643 33.8813 70.8979C33.7478 71.029 33.5642 71.1053 33.3758 71.1053ZM26.4305 69.6747H32.6606V64.017C32.6582 63.6474 32.3578 63.347 31.9882 63.3446H26.6165C26.5164 63.3446 26.4305 63.4281 26.4305 63.5234V69.6747Z" fill="#FF4D40"/>
<path d="M29.5491 125.33C29.2749 125.33 29.0198 125.17 28.903 124.922L25.0691 116.857C25.0262 116.764 25 116.654 25 116.549V112.162C25 111.974 25.0763 111.788 25.2098 111.654C25.3433 111.523 25.5269 111.447 25.7153 111.447H33.3758C33.5642 111.447 33.7478 111.523 33.8813 111.657C34.0148 111.788 34.0911 111.974 34.0911 112.162V116.549C34.0911 116.654 34.0649 116.764 34.0219 116.857L30.1953 124.922C30.076 125.17 29.8233 125.33 29.5491 125.33ZM26.4305 116.387L29.5491 122.948L32.6606 116.389V112.877H26.4305V116.387Z" fill="#FF4D40"/>
<path d="M69.1752 34.2953H50.9692C50.5758 34.2953 50.2539 33.9758 50.2539 33.58C50.2539 33.1866 50.5758 32.8647 50.9692 32.8647H69.1752C69.5686 32.8647 69.8905 33.1866 69.8905 33.58C69.8905 33.9758 69.5686 34.2953 69.1752 34.2953Z" fill="#FF4D40"/>
<path d="M78.9267 39.7543H50.9692C50.5758 39.7543 50.2539 39.4324 50.2539 39.039C50.2539 38.6432 50.5758 38.3237 50.9692 38.3237H78.9267C79.3225 38.3237 79.642 38.6432 79.642 39.039C79.642 39.4324 79.3225 39.7543 78.9267 39.7543Z" fill="#FF4D40"/>
</svg>
