<svg width="157" height="157" viewBox="0 0 157 157" fill="none" xmlns="http://www.w3.org/2000/svg">
<path d="M128.343 129.082H79.5946C79.2029 129.082 78.8854 128.765 78.8854 128.373C78.8854 127.982 79.2029 127.664 79.5946 127.664H127.634V58.9308C127.634 58.5391 127.951 58.2216 128.343 58.2216C128.735 58.2216 129.052 58.5391 129.052 58.9308V128.373C129.052 128.765 128.735 129.082 128.343 129.082ZM67.7755 129.082H24.7091C24.3175 129.082 24 128.765 24 128.373V53.2489C24 52.8572 24.3175 52.5397 24.7091 52.5397C25.1008 52.5397 25.4183 52.8572 25.4183 53.2489V127.664H67.7755C68.1672 127.664 68.4846 127.982 68.4846 128.373C68.4846 128.765 68.1672 129.082 67.7755 129.082ZM128.343 47.8208C127.951 47.8208 127.634 47.5034 127.634 47.1117V33.264H25.4183V41.4298C25.4183 41.8215 25.1008 42.1389 24.7091 42.1389C24.3175 42.1389 24 41.8215 24 41.4298V32.5548C24 32.1632 24.3175 31.8457 24.7091 31.8457H128.343C128.735 31.8457 129.052 32.1632 129.052 32.5548V47.1117C129.052 47.5034 128.735 47.8208 128.343 47.8208Z" fill="white"/>
<path d="M127.149 58.4457H24.7091C24.3175 58.4457 24 58.1283 24 57.7366V41.9853C24 41.5936 24.3175 41.2761 24.7091 41.2761C25.1008 41.2761 25.4183 41.5936 25.4183 41.9853V57.0274H127.149C127.54 57.0274 127.858 57.3449 127.858 57.7366C127.858 58.1283 127.54 58.4457 127.149 58.4457ZM128.343 47.8208C127.951 47.8208 127.634 47.5034 127.634 47.1117V33.264H24.7091C24.3175 33.264 24 32.9465 24 32.5548C24 32.1632 24.3175 31.8457 24.7091 31.8457H128.343C128.735 31.8457 129.052 32.1632 129.052 32.5548V47.1117C129.052 47.5034 128.735 47.8208 128.343 47.8208Z" fill="white"/>
<path d="M121.472 45.8539H115.073C114.781 45.8539 114.519 45.6747 114.413 45.4026C113.577 43.2622 111.467 41.8241 109.162 41.8241C107.506 41.8241 105.938 42.5474 104.862 43.8087C104.607 44.1068 104.159 44.1415 103.862 43.8877C103.564 43.6333 103.529 43.1858 103.783 42.888C105.13 41.3106 107.09 40.406 109.162 40.406C111.926 40.406 114.379 41.972 115.54 44.4358H120.763V37.0565H32.2894V44.4356H93.5294C93.9211 44.4356 94.2386 44.7531 94.2386 45.1447C94.2386 45.5364 93.9211 45.8539 93.5294 45.8539H31.5802C31.1886 45.8539 30.8711 45.5364 30.8711 45.1447V36.3473C30.8711 35.9556 31.1886 35.6382 31.5802 35.6382H121.472C121.864 35.6382 122.181 35.9556 122.181 36.3473V45.1447C122.181 45.5364 121.864 45.8539 121.472 45.8539Z" fill="#FF4D40"/>
<path d="M109.162 54.5343C105.267 54.5343 102.098 51.3656 102.098 47.4705C102.098 43.5754 105.267 40.4067 109.162 40.4067C113.057 40.4067 116.225 43.5754 116.225 47.4705C116.225 51.3656 113.057 54.5343 109.162 54.5343ZM109.162 41.825C106.049 41.825 103.516 44.3576 103.516 47.4705C103.516 50.5834 106.049 53.116 109.162 53.116C112.274 53.116 114.807 50.5834 114.807 47.4705C114.807 44.3576 112.274 41.825 109.162 41.825Z" fill="#FF4D40"/>
<path d="M33.8386 54.9697C32.2024 54.9697 30.8711 53.6351 30.8711 51.9946C30.8711 50.3586 32.2022 49.0273 33.8386 49.0273C35.4751 49.0273 36.8064 50.3584 36.8064 51.9946C36.8062 53.6351 35.4749 54.9697 33.8386 54.9697ZM33.8386 50.4456C32.9843 50.4456 32.2894 51.1404 32.2894 51.9946C32.2894 52.8529 32.9843 53.5515 33.8386 53.5515C34.6929 53.5515 35.3881 52.8529 35.3881 51.9946C35.3879 51.1404 34.6929 50.4456 33.8386 50.4456Z" fill="#FF4D40"/>
<path d="M41.8833 54.9697C40.2473 54.9697 38.916 53.6351 38.916 51.9946C38.916 50.3586 40.2471 49.0273 41.8833 49.0273C43.5198 49.0273 44.8511 50.3584 44.8511 51.9946C44.8511 53.6351 43.5198 54.9697 41.8833 54.9697ZM41.8833 50.4456C41.0293 50.4456 40.3343 51.1404 40.3343 51.9946C40.3343 52.8529 41.029 53.5515 41.8833 53.5515C42.7376 53.5515 43.4328 52.8529 43.4328 51.9946C43.4328 51.1404 42.7376 50.4456 41.8833 50.4456Z" fill="#FF4D40"/>
<path d="M132.365 54.5925C131.973 54.5925 131.656 54.275 131.656 53.8833V29.4183H94.4157C94.024 29.4183 93.7065 29.1008 93.7065 28.7091C93.7065 28.3175 94.024 28 94.4157 28H132.365C132.757 28 133.074 28.3175 133.074 28.7091V53.8833C133.074 54.275 132.757 54.5925 132.365 54.5925Z" fill="white"/>
<path d="M36.9093 120.639C36.5177 120.639 36.2002 120.322 36.2002 119.93V81.3014C36.2002 80.9097 36.5177 80.5923 36.9093 80.5923C37.301 80.5923 37.6185 80.9097 37.6185 81.3014V119.93C37.6185 120.322 37.301 120.639 36.9093 120.639Z" fill="white"/>
<path d="M39.3515 90.3128H34.4587C34.067 90.3128 33.7495 89.9954 33.7495 89.6037C33.7495 89.212 34.067 88.8945 34.4587 88.8945H39.3515C39.7432 88.8945 40.0607 89.212 40.0607 89.6037C40.0607 89.9954 39.7432 90.3128 39.3515 90.3128Z" fill="#FF4D40"/>
<path d="M45.8312 120.639C45.4395 120.639 45.1221 120.322 45.1221 119.93V81.3014C45.1221 80.9097 45.4395 80.5923 45.8312 80.5923C46.2229 80.5923 46.5404 80.9097 46.5404 81.3014V119.93C46.5404 120.322 46.2229 120.639 45.8312 120.639Z" fill="white"/>
<path d="M48.2739 112.328H43.3805C42.9888 112.328 42.6714 112.011 42.6714 111.619C42.6714 111.228 42.9888 110.91 43.3805 110.91H48.2739C48.6656 110.91 48.983 111.228 48.983 111.619C48.983 112.011 48.6656 112.328 48.2739 112.328Z" fill="#FF4D40"/>
<path d="M54.7541 120.639C54.3624 120.639 54.0449 120.322 54.0449 119.93V81.3014C54.0449 80.9097 54.3624 80.5923 54.7541 80.5923C55.1458 80.5923 55.4632 80.9097 55.4632 81.3014V119.93C55.4632 120.322 55.1458 120.639 54.7541 120.639Z" fill="white"/>
<path d="M57.197 90.3128H52.3039C51.9122 90.3128 51.5947 89.9954 51.5947 89.6037C51.5947 89.212 51.9122 88.8945 52.3039 88.8945H57.197C57.5887 88.8945 57.9061 89.212 57.9061 89.6037C57.9061 89.9954 57.5887 90.3128 57.197 90.3128Z" fill="#FF4D40"/>
<path d="M63.6774 120.639C63.2857 120.639 62.9683 120.322 62.9683 119.93V81.3014C62.9683 80.9097 63.2857 80.5923 63.6774 80.5923C64.0691 80.5923 64.3866 80.9097 64.3866 81.3014V119.93C64.3866 120.322 64.0691 120.639 63.6774 120.639Z" fill="white"/>
<path d="M66.1188 102.756H61.2257C60.8341 102.756 60.5166 102.439 60.5166 102.047C60.5166 101.655 60.8341 101.338 61.2257 101.338H66.1188C66.5105 101.338 66.828 101.655 66.828 102.047C66.828 102.439 66.5105 102.756 66.1188 102.756Z" fill="#FF4D40"/>
<path d="M72.5993 120.639C72.2076 120.639 71.8901 120.322 71.8901 119.93V81.3014C71.8901 80.9097 72.2076 80.5923 72.5993 80.5923C72.991 80.5923 73.3084 80.9097 73.3084 81.3014V119.93C73.3084 120.322 72.991 120.639 72.5993 120.639Z" fill="white"/>
<path d="M75.0434 109.052H70.1501C69.7584 109.052 69.4409 108.734 69.4409 108.342C69.4409 107.951 69.7584 107.633 70.1501 107.633H75.0434C75.4351 107.633 75.7525 107.951 75.7525 108.342C75.7525 108.734 75.4351 109.052 75.0434 109.052Z" fill="#FF4D40"/>
<path d="M80.4518 120.639C80.0601 120.639 79.7427 120.322 79.7427 119.93V81.3014C79.7427 80.9097 80.0601 80.5923 80.4518 80.5923C80.8435 80.5923 81.161 80.9097 81.161 81.3014V119.93C81.161 120.322 80.8435 120.639 80.4518 120.639Z" fill="white"/>
<path d="M82.9018 90.3128H78.009C77.6173 90.3128 77.2998 89.9954 77.2998 89.6037C77.2998 89.212 77.6173 88.8945 78.009 88.8945H82.9018C83.2935 88.8945 83.611 89.212 83.611 89.6037C83.611 89.9954 83.2935 90.3128 82.9018 90.3128Z" fill="#FF4D40"/>
<path d="M89.3752 120.639C88.9835 120.639 88.666 120.322 88.666 119.93V81.3014C88.666 80.9097 88.9835 80.5923 89.3752 80.5923C89.7668 80.5923 90.0843 80.9097 90.0843 81.3014V119.93C90.0843 120.322 89.7668 120.639 89.3752 120.639Z" fill="white"/>
<path d="M91.8254 112.328H86.9323C86.5406 112.328 86.2231 112.011 86.2231 111.619C86.2231 111.228 86.5406 110.91 86.9323 110.91H91.8254C92.2171 110.91 92.5345 111.228 92.5345 111.619C92.5345 112.011 92.2171 112.328 91.8254 112.328Z" fill="#FF4D40"/>
<path d="M98.297 120.639C97.9054 120.639 97.5879 120.322 97.5879 119.93V81.3014C97.5879 80.9097 97.9054 80.5923 98.297 80.5923C98.6887 80.5923 99.0062 80.9097 99.0062 81.3014V119.93C99.0062 120.322 98.6887 120.639 98.297 120.639Z" fill="white"/>
<path d="M100.748 90.3128H95.8542C95.4625 90.3128 95.145 89.9954 95.145 89.6037C95.145 89.212 95.4625 88.8945 95.8542 88.8945H100.748C101.139 88.8945 101.457 89.212 101.457 89.6037C101.457 89.9954 101.139 90.3128 100.748 90.3128Z" fill="#FF4D40"/>
<path d="M107.22 120.639C106.828 120.639 106.511 120.322 106.511 119.93V81.3014C106.511 80.9097 106.828 80.5923 107.22 80.5923C107.612 80.5923 107.929 80.9097 107.929 81.3014V119.93C107.929 120.322 107.612 120.639 107.22 120.639Z" fill="white"/>
<path d="M109.67 102.756H104.777C104.385 102.756 104.068 102.439 104.068 102.047C104.068 101.655 104.385 101.338 104.777 101.338H109.67C110.062 101.338 110.38 101.655 110.38 102.047C110.38 102.439 110.062 102.756 109.67 102.756Z" fill="#FF4D40"/>
<path d="M116.143 120.639C115.752 120.639 115.434 120.322 115.434 119.93V81.3014C115.434 80.9097 115.752 80.5923 116.143 80.5923C116.535 80.5923 116.852 80.9097 116.852 81.3014V119.93C116.852 120.322 116.535 120.639 116.143 120.639Z" fill="white"/>
<path d="M118.594 109.052H113.7C113.309 109.052 112.991 108.734 112.991 108.342C112.991 107.951 113.309 107.633 113.7 107.633H118.594C118.985 107.633 119.303 107.951 119.303 108.342C119.303 108.734 118.986 109.052 118.594 109.052Z" fill="#FF4D40"/>
<path d="M115.502 72.7181C113.821 72.7181 112.453 71.3504 112.453 69.6695C112.453 67.9883 113.821 66.6206 115.502 66.6206C117.183 66.6206 118.55 67.9883 118.55 69.6695C118.55 71.3506 117.183 72.7181 115.502 72.7181ZM115.502 68.0389C114.603 68.0389 113.871 68.7705 113.871 69.6695C113.871 70.5684 114.603 71.2998 115.502 71.2998C116.401 71.2998 117.132 70.5684 117.132 69.6695C117.132 68.7703 116.401 68.0389 115.502 68.0389Z" fill="#FF4D40"/>
<path d="M107.67 72.7181C105.989 72.7181 104.622 71.3504 104.622 69.6695C104.622 67.9883 105.989 66.6206 107.67 66.6206C109.351 66.6206 110.719 67.9883 110.719 69.6695C110.719 71.3506 109.351 72.7181 107.67 72.7181ZM107.67 68.0389C106.771 68.0389 106.04 68.7705 106.04 69.6695C106.04 70.5684 106.771 71.2998 107.67 71.2998C108.569 71.2998 109.3 70.5684 109.3 69.6695C109.301 68.7703 108.569 68.0389 107.67 68.0389Z" fill="#FF4D40"/>
<path d="M99.8396 72.7181C98.1587 72.7181 96.791 71.3504 96.791 69.6695C96.791 67.9883 98.1587 66.6206 99.8396 66.6206C101.521 66.6206 102.888 67.9883 102.888 69.6695C102.888 71.3506 101.521 72.7181 99.8396 72.7181ZM99.8396 68.0389C98.9404 68.0389 98.2093 68.7705 98.2093 69.6695C98.2093 70.5684 98.9407 71.2998 99.8396 71.2998C100.739 71.2998 101.47 70.5684 101.47 69.6695C101.47 68.7703 100.739 68.0389 99.8396 68.0389Z" fill="#FF4D40"/>
<path d="M87.8912 73.5694H36.5978C36.2061 73.5694 35.8887 73.2519 35.8887 72.8602V66.3434C35.8887 65.9517 36.2061 65.6343 36.5978 65.6343H87.891C88.2826 65.6343 88.6001 65.9517 88.6001 66.3434V72.8602C88.6003 73.2519 88.2829 73.5694 87.8912 73.5694ZM37.307 72.1511H87.1818V67.0526H37.307V72.1511Z" fill="white"/>
</svg>
