<svg width="157" height="157" viewBox="0 0 157 157" fill="none" xmlns="http://www.w3.org/2000/svg">
<path d="M82.1861 135.931C82.1155 135.931 82.0446 135.92 81.9743 135.901C81.7653 135.843 81.5888 135.71 81.4802 135.518C80.8585 134.433 79.7047 133.757 78.4643 133.757C77.2073 133.757 76.0779 134.416 75.4372 135.521C75.2934 135.773 75.0219 135.931 74.7341 135.931C74.5902 135.931 74.4518 135.893 74.3269 135.819L52.4588 123.099C52.0706 122.874 51.9376 122.371 52.1629 121.98C52.3068 121.726 52.5783 121.567 52.8687 121.567C53.0099 121.567 53.1511 121.606 53.2733 121.679L74.4925 134.023C75.4725 132.811 76.9196 132.116 78.4643 132.116C80.0088 132.116 81.4561 132.811 82.4304 134.02L124.03 109.826C123.81 109.241 123.699 108.623 123.699 107.994C123.699 106.761 124.139 105.566 124.937 104.631C125.724 103.709 126.81 103.094 127.997 102.903V101.442C127.997 100.989 128.36 100.622 128.811 100.622C129.259 100.622 129.623 100.989 129.623 101.442V103.657C129.623 103.879 129.538 104.084 129.386 104.237C129.232 104.393 129.028 104.478 128.811 104.478C126.892 104.483 125.331 106.058 125.328 107.994C125.328 108.62 125.482 109.211 125.792 109.747C125.9 109.938 125.931 110.16 125.874 110.37C125.817 110.581 125.684 110.758 125.494 110.868L82.5936 135.819C82.4684 135.893 82.327 135.931 82.1861 135.931ZM48.1637 120.473C48.0225 120.473 47.8813 120.435 47.7564 120.364C47.3682 120.137 47.2352 119.634 47.4605 119.243C47.6044 118.991 47.8759 118.833 48.1664 118.833C48.3075 118.833 48.4487 118.871 48.5736 118.945C48.9618 119.169 49.0948 119.672 48.8695 120.063C48.7256 120.318 48.4541 120.473 48.1637 120.473ZM43.4615 117.739C43.3204 117.739 43.1792 117.7 43.057 117.63L31.4321 110.868C31.0493 110.644 30.9135 110.146 31.1307 109.755C31.4375 109.208 31.6004 108.598 31.6004 107.994C31.5977 106.058 30.0312 104.483 28.1118 104.478C27.8973 104.478 27.6856 104.39 27.5363 104.237C27.3842 104.087 27.2974 103.873 27.2974 103.657V53.7656C27.2974 53.5496 27.3842 53.3363 27.5336 53.1832C27.6856 53.0328 27.8973 52.9453 28.1118 52.9453C30.0312 52.9398 31.5977 51.3676 31.6004 49.4371C31.6004 48.8328 31.4375 48.223 31.1307 47.6762C30.9135 47.2879 31.0493 46.7875 31.4321 46.5633L43.5919 39.4894C43.7167 39.4184 43.8579 39.3801 43.9991 39.3801C44.2896 39.3801 44.5611 39.5359 44.7049 39.7902C44.9303 40.1812 44.7972 40.6844 44.409 40.9086L32.8954 47.6078C33.118 48.1984 33.2293 48.8137 33.2293 49.4371C33.2293 50.6703 32.7868 51.8652 31.9859 52.7977C31.1986 53.7164 30.1099 54.3289 28.9236 54.5203V102.902C30.1099 103.094 31.1986 103.709 31.9886 104.63C32.7868 105.566 33.2293 106.761 33.2293 107.994C33.2293 108.617 33.118 109.232 32.8954 109.823L43.8715 116.208C44.1213 116.355 44.2787 116.629 44.2787 116.921C44.2787 117.064 44.2407 117.206 44.1674 117.329C44.0887 117.468 43.9719 117.58 43.828 117.652C43.7167 117.709 43.5891 117.739 43.4615 117.739ZM128.811 96.7937C128.36 96.7937 127.996 96.4246 127.996 95.9734C127.996 95.5195 128.36 95.1531 128.811 95.1531C129.258 95.1531 129.622 95.5195 129.622 95.9734C129.622 96.4246 129.259 96.7937 128.811 96.7937ZM128.811 91.325C128.36 91.325 127.996 90.9558 127.996 90.5047V54.5203C126.81 54.3289 125.724 53.7164 124.936 52.7977C124.139 51.8625 123.698 50.6703 123.698 49.4371C123.698 48.8027 123.81 48.1875 124.03 47.6051L82.4277 23.4086C81.4504 24.6145 80.0088 25.3062 78.464 25.3062C76.922 25.3062 75.475 24.6145 74.4949 23.4086L53.8132 35.4371C53.8132 35.4398 53.8132 35.4398 53.8132 35.4398C53.6884 35.5109 53.5472 35.5492 53.406 35.5492C53.1155 35.5492 52.844 35.3934 52.7002 35.1391C52.6269 35.016 52.5888 34.8738 52.5888 34.7316C52.5888 34.4391 52.7463 34.1656 52.9961 34.018L74.3266 21.6121C74.4488 21.541 74.5899 21.5027 74.7311 21.5027C75.0216 21.5027 75.2904 21.6586 75.437 21.9074C76.0668 22.993 77.2261 23.6656 78.4613 23.6656C79.702 23.6656 80.8585 22.993 81.4802 21.9129C81.6268 21.6586 81.8956 21.5 82.1863 21.5C82.3302 21.5 82.4687 21.5383 82.5936 21.6121L125.494 46.5633C125.684 46.6726 125.819 46.8504 125.874 47.0637C125.931 47.2742 125.901 47.4984 125.789 47.6871C125.488 48.2094 125.328 48.8137 125.328 49.4371C125.331 51.3676 126.892 52.9398 128.811 52.9453C129.026 52.9453 129.235 53.0328 129.386 53.1859C129.536 53.3363 129.623 53.5469 129.623 53.7656V90.5047C129.622 90.9558 129.259 91.325 128.811 91.325ZM48.7039 38.2836C48.4134 38.2836 48.1419 38.1277 47.998 37.8734C47.7727 37.4824 47.9057 36.9793 48.294 36.7551C48.4188 36.6812 48.56 36.643 48.7012 36.643C48.9917 36.643 49.2632 36.8016 49.4071 37.0531C49.5156 37.2445 49.5455 37.466 49.4885 37.6766C49.4315 37.8871 49.2985 38.0648 49.1084 38.1742C48.9862 38.2453 48.8451 38.2836 48.7039 38.2836Z" fill="white"/>
<path d="M77.7992 104.611H77.7965C74.8346 104.611 71.9324 104.108 69.166 103.115C66.4919 102.158 64.0078 100.763 61.7816 98.975C61.6106 98.8382 61.5047 98.6441 61.4803 98.4253C61.4558 98.2093 61.5183 97.9933 61.654 97.8238C61.9228 97.482 62.4549 97.4194 62.797 97.6928C67.1 101.146 72.2854 102.97 77.7992 102.973C84.2334 102.97 90.2848 100.449 94.8348 95.8693C99.3849 91.2892 101.891 85.197 101.891 78.7165C101.891 72.2333 99.3849 66.1411 94.8348 61.5556C90.282 56.9728 84.2334 54.4489 77.7992 54.4489C71.3677 54.4489 65.3191 56.9728 60.769 61.5556C56.2216 66.1411 53.7158 72.236 53.7158 78.7165C53.7158 82.52 54.5629 86.1622 56.2379 89.5392C56.2976 89.657 56.3248 89.7828 56.3248 89.9138C56.3221 90.2228 56.1483 90.5017 55.8741 90.6411C55.7601 90.6986 55.6379 90.7259 55.5103 90.7259C55.2008 90.7259 54.9212 90.5536 54.7828 90.275C54.7828 90.275 54.7828 90.275 54.78 90.2723C54.7773 90.2665 54.7746 90.2583 54.7719 90.2531C53.9031 88.4977 53.2353 86.6437 52.7846 84.7352C52.3204 82.7743 52.0869 80.7484 52.0869 78.7168C52.0869 75.2195 52.7656 71.8262 54.1068 68.6324C55.4017 65.5453 57.256 62.7754 59.6179 60.3965C61.9798 58.0176 64.7299 56.15 67.7896 54.8457C70.9605 53.4949 74.3269 52.8086 77.7992 52.8086C81.2715 52.8086 84.6379 53.4949 87.8115 54.8457C90.8739 56.15 93.624 58.0176 95.9859 60.3965C98.3479 62.7754 100.202 65.5453 101.497 68.6324C102.838 71.8262 103.52 75.2168 103.52 78.7168C103.52 82.2141 102.838 85.6047 101.497 88.7984C100.202 91.8828 98.3479 94.6527 95.9859 97.0292C93.624 99.4078 90.8739 101.275 87.8088 102.577C84.6379 103.927 81.2715 104.611 77.7992 104.611ZM58.4424 95.3112C58.198 95.3112 57.9673 95.2018 57.8098 95.0077C57.6741 94.8381 57.6116 94.6251 57.6333 94.4061C57.6551 94.1873 57.7609 93.9932 57.9293 93.8537C58.0759 93.7362 58.2578 93.6705 58.4424 93.6705C58.6894 93.6705 58.9202 93.7826 59.0749 93.9768C59.3573 94.3265 59.3057 94.8436 58.9555 95.1307C58.8116 95.248 58.6297 95.3112 58.4424 95.3112Z" fill="#FF4D40"/>
<path d="M102.705 79.5344H52.9014C52.4507 79.5344 52.0869 79.168 52.0869 78.7168C52.0869 78.2629 52.4507 77.8965 52.9014 77.8965H102.705C103.153 77.8965 103.52 78.2629 103.52 78.7168C103.52 79.168 103.153 79.5344 102.705 79.5344Z" fill="#FF4D40"/>
<path d="M77.7993 104.611C77.3487 104.611 76.9849 104.245 76.9849 103.791V53.6289C76.9849 53.1777 77.3487 52.8086 77.7993 52.8086C78.2473 52.8086 78.6138 53.1777 78.6138 53.6289V103.791C78.6138 104.245 78.2473 104.611 77.7993 104.611Z" fill="#FF4D40"/>
<path d="M77.8615 67.9236H77.8506C74.4951 67.9236 71.0879 67.6311 67.7242 67.0514C64.3714 66.4744 60.9697 65.5967 57.6087 64.4455C57.4024 64.3744 57.2368 64.2268 57.1418 64.0326C57.044 63.8357 57.0305 63.6115 57.101 63.4037C57.2123 63.0729 57.5218 62.8486 57.8721 62.8486C57.9616 62.8486 58.0485 62.8623 58.1327 62.8924C64.6972 65.1428 71.335 66.283 77.856 66.283C84.3774 66.283 90.9769 65.1428 97.4681 62.8924C97.5547 62.8623 97.6443 62.8486 97.7338 62.8486C98.0813 62.8486 98.3908 63.0701 98.5021 63.401C98.5727 63.6088 98.5592 63.833 98.4641 64.0299C98.3688 64.2268 98.2035 64.3744 97.9972 64.4455C94.6634 65.5994 91.2779 66.4771 87.9333 67.0541C84.5943 67.631 81.2061 67.9236 77.8615 67.9236Z" fill="#FF4D40"/>
<path d="M57.8721 94.48C57.5218 94.48 57.2123 94.2582 57.101 93.9249C57.0305 93.7171 57.044 93.4956 57.1418 93.2987C57.2368 93.1019 57.4024 92.9542 57.6087 92.8831C60.967 91.7319 64.3687 90.8569 67.7242 90.2797C71.0852 89.7 74.4923 89.4077 77.8479 89.4077C81.1953 89.4077 84.5861 89.7 87.9254 90.2772C91.2728 90.8542 94.6612 91.7319 97.9977 92.8858C98.4237 93.0308 98.649 93.4983 98.5024 93.9276C98.3911 94.2585 98.0816 94.4803 97.7341 94.4803C97.6445 94.4803 97.5549 94.4666 97.4683 94.4365C90.9714 92.1888 84.3692 91.0486 77.8481 91.0486C71.3271 91.0486 64.6947 92.1888 58.133 94.4365C58.0485 94.4663 57.9616 94.48 57.8721 94.48Z" fill="#FF4D40"/>
<path d="M77.8048 104.611H77.7912C75.899 104.611 73.9986 103.868 72.2964 102.457C70.6865 101.122 69.2476 99.2273 68.0205 96.8238C65.5446 91.973 64.179 85.5415 64.1763 78.7168C64.1763 77.4016 64.2279 76.0836 64.331 74.8012C64.3636 74.3555 64.7654 74.0137 65.2052 74.0465C65.4224 74.0656 65.6206 74.1668 65.7617 74.3336C65.9029 74.5004 65.9708 74.7109 65.9545 74.9297C65.8568 76.1711 65.8052 77.4453 65.8052 78.7168C65.7862 88.4591 68.8105 97.4883 73.3307 101.188C74.7642 102.369 76.2655 102.971 77.7994 102.973C79.3332 102.97 80.8373 102.369 82.2707 101.188C83.6906 100.015 85.0263 98.2484 86.1366 96.0746C88.5013 91.4535 89.8017 85.2902 89.799 78.7168C89.8177 68.9687 86.7936 59.9344 82.2707 56.2348C80.8375 55.0508 79.3335 54.452 77.7994 54.4492C75.9234 54.452 74.1126 55.3379 72.4158 57.0852C70.7272 58.827 69.2422 61.3809 68.1209 64.4707C68.0042 64.7934 67.6974 65.0094 67.3554 65.0094C67.2603 65.0094 67.168 64.993 67.0784 64.9602C66.7581 64.8426 66.5409 64.5336 66.5409 64.1891C66.5409 64.0934 66.5599 63.9977 66.5925 63.9074C67.8087 60.5578 69.3779 57.8781 71.2484 55.9395C73.2276 53.8914 75.4917 52.8086 77.7966 52.8086H77.8021C79.6997 52.8086 81.6028 53.5551 83.3051 54.9687C84.915 56.3031 86.3536 58.198 87.5837 60.6016C90.0623 65.4551 91.4252 71.8891 91.4279 78.7168C91.4197 83.8656 90.646 88.8066 89.1963 93.0094C87.7628 97.1656 85.7267 100.433 83.3051 102.457C81.6028 103.868 79.7025 104.611 77.8048 104.611ZM65.8948 70.273C65.8378 70.273 65.7835 70.2676 65.7292 70.2566C65.2894 70.1637 65.0043 69.7316 65.0966 69.2859C65.1862 68.8512 65.6233 68.5586 66.0577 68.6488C66.4975 68.7391 66.7825 69.1738 66.6902 69.6168C66.6142 69.9969 66.2776 70.273 65.8948 70.273Z" fill="#FF4D40"/>
<path d="M56.5478 102.691C56.3414 102.691 56.146 102.615 55.9939 102.472C54.4085 100.996 52.9642 99.3526 51.7045 97.589C50.4339 95.8089 49.3398 93.8948 48.4548 91.8984C46.6087 87.7395 45.6748 83.3043 45.6748 78.7163C45.6748 74.6886 46.3997 70.7647 47.8277 67.046C47.9471 66.7315 48.2539 66.521 48.5878 66.521C48.6883 66.521 48.786 66.5401 48.881 66.5784C49.2991 66.7397 49.5082 67.2155 49.3453 67.6394C47.9906 71.1667 47.3037 74.8936 47.3037 78.7163C47.3037 87.2475 50.8737 95.4698 57.1016 101.269C57.1016 101.269 57.1016 101.269 57.1016 101.272C57.2618 101.42 57.3541 101.622 57.3622 101.838C57.3704 102.06 57.2943 102.267 57.145 102.429C56.993 102.596 56.7731 102.691 56.5478 102.691Z" fill="white"/>
<path d="M77.8076 111.078C71.9055 111.078 66.1392 109.456 61.1303 106.389C60.943 106.276 60.8127 106.096 60.7611 105.883C60.7095 105.669 60.7421 105.448 60.8561 105.262C61.0054 105.016 61.2661 104.868 61.5538 104.868C61.7004 104.868 61.847 104.909 61.9746 104.986C66.731 107.898 72.2069 109.437 77.8076 109.437C85.9521 109.437 93.6107 106.241 99.3716 100.439C105.13 94.6362 108.301 86.9198 108.301 78.7167C108.301 75.8784 107.923 73.0838 107.174 70.4096C107.055 69.9721 107.307 69.5182 107.739 69.3979C108.163 69.2749 108.624 69.5401 108.744 69.9639C109.531 72.7831 109.93 75.7252 109.93 78.7167C109.93 83.0834 109.083 87.3217 107.408 91.3112C105.789 95.1666 103.474 98.6284 100.523 101.598C97.5747 104.57 94.1374 106.905 90.3124 108.535C86.3512 110.222 82.1432 111.078 77.8076 111.078Z" fill="white"/>
<path d="M105.67 65.1181C105.36 65.1181 105.083 64.9485 104.945 64.6724C99.6804 54.3829 89.2828 47.9927 77.8072 47.9927C67.355 47.9927 57.7499 53.2837 52.1112 62.1485C51.9619 62.3864 51.704 62.5259 51.4243 62.5259C51.2696 62.5259 51.1176 62.4821 50.9872 62.3974C50.8026 62.2798 50.6778 62.0966 50.6316 61.8806C50.5827 61.6673 50.6235 61.4485 50.7402 61.2626C53.5908 56.781 57.5354 53.0376 62.148 50.4427C64.4909 49.1247 66.994 48.1075 69.5839 47.4185C72.2526 46.7103 75.019 46.3521 77.8072 46.3521C83.8206 46.3521 89.6846 48.0364 94.7641 51.222C99.7078 54.3228 103.729 58.7142 106.392 63.9232C106.598 64.3251 106.441 64.82 106.042 65.0278C105.925 65.088 105.8 65.1181 105.67 65.1181Z" fill="white"/>
<path d="M78.4639 25.3059C75.6432 25.3031 73.3465 22.9953 73.3438 20.157C73.3465 17.316 75.6432 15.0027 78.4639 15C81.282 15.0027 83.573 17.316 83.576 20.157C83.576 22.9953 81.282 25.3059 78.4639 25.3059ZM78.4639 16.6406C76.5418 16.6461 74.9781 18.2211 74.9727 20.157C74.9781 22.0875 76.5418 23.6625 78.4639 23.6652C80.3806 23.6625 81.9417 22.0875 81.9471 20.157C81.9417 18.2211 80.3806 16.6461 78.4639 16.6406Z" fill="#FF4D40"/>
<path d="M128.808 54.5853C125.99 54.5825 123.699 52.2747 123.699 49.4364C123.699 46.5981 125.99 44.2876 128.808 44.2876C131.632 44.2876 133.928 46.5981 133.928 49.4364C133.928 52.2747 131.632 54.5825 128.808 54.5853ZM128.808 45.9282C126.892 45.931 125.331 47.506 125.328 49.4364C125.331 51.3669 126.892 52.9392 128.808 52.9446C130.73 52.9392 132.297 51.3669 132.3 49.4364C132.297 47.506 130.731 45.931 128.808 45.9282Z" fill="white"/>
<path d="M28.1121 54.5853C25.2913 54.5825 23 52.2747 23 49.4364C23 46.5981 25.2913 44.2876 28.1121 44.2876C30.9328 44.2876 33.2295 46.5981 33.2295 49.4364C33.2295 52.2747 30.9328 54.5825 28.1121 54.5853ZM28.1121 45.9282C26.1927 45.931 24.6316 47.506 24.6289 49.4364C24.6316 51.3669 26.1927 52.9392 28.1121 52.9446C30.0314 52.9392 31.5979 51.3669 31.6006 49.4364C31.5979 47.506 30.0314 45.931 28.1121 45.9282Z" fill="white"/>
<path d="M28.1121 113.142C25.294 113.142 23 110.831 23 107.993C23 105.152 25.294 102.839 28.1121 102.836C30.9328 102.839 33.2295 105.152 33.2295 107.993C33.2295 110.831 30.9328 113.142 28.1121 113.142ZM28.1121 104.476C26.1927 104.482 24.6316 106.059 24.6289 107.993C24.6316 109.923 26.1927 111.498 28.1121 111.501C30.0314 111.498 31.5979 109.923 31.6006 107.993C31.5979 106.06 30.0314 104.482 28.1121 104.476Z" fill="#FF4D40"/>
<path d="M78.4639 142.422C75.6432 142.419 73.3465 140.112 73.3438 137.273C73.3465 134.432 75.6432 132.119 78.4639 132.116C81.282 132.119 83.573 134.433 83.576 137.273C83.576 140.112 81.282 142.419 78.4639 142.422ZM78.4639 133.757C76.5445 133.76 74.9781 135.337 74.9727 137.273C74.9781 139.204 76.5445 140.776 78.4639 140.781C80.3806 140.776 81.9417 139.203 81.9471 137.273C81.9417 135.337 80.3806 133.759 78.4639 133.757Z" fill="white"/>
<path d="M128.808 113.142C125.99 113.142 123.699 110.831 123.699 107.993C123.699 105.152 125.99 102.839 128.808 102.836C131.632 102.839 133.928 105.152 133.928 107.993C133.929 110.831 131.632 113.142 128.808 113.142ZM128.808 104.476C126.892 104.482 125.331 106.059 125.328 107.993C125.331 109.923 126.892 111.498 128.808 111.501C130.73 111.498 132.297 109.923 132.3 107.993C132.297 106.06 130.731 104.482 128.808 104.476Z" fill="#FF4D40"/>
</svg>
