<svg width="121" height="121" viewBox="0 0 121 121" fill="none" xmlns="http://www.w3.org/2000/svg">
<path d="M71.9271 100.851C71.5253 100.851 71.1965 100.522 71.1965 100.12C71.1965 99.7168 71.5253 99.3899 71.9271 99.3899H97.3241V56.6848H86.1597C85.7579 56.6848 85.4292 56.3579 85.4292 55.9543C85.4292 55.5525 85.7579 55.2256 86.1597 55.2256H98.0546C98.2466 55.2256 98.4345 55.3023 98.5696 55.4393C98.7066 55.5744 98.7852 55.7625 98.7852 55.9543V100.121C98.7852 100.316 98.7085 100.499 98.5696 100.637C98.4327 100.774 98.2482 100.851 98.0546 100.851H71.9271V100.851ZM68.2744 100.851C67.8726 100.851 67.5438 100.522 67.5438 100.12C67.5438 99.7168 67.8726 99.3899 68.2744 99.3899C68.678 99.3899 69.0049 99.7168 69.0049 100.12C69.0049 100.522 68.678 100.851 68.2744 100.851ZM64.6217 100.851H28.168C27.9763 100.851 27.7882 100.772 27.6512 100.637C27.516 100.5 27.4375 100.312 27.4375 100.12V55.9543C27.4375 55.7625 27.516 55.5744 27.6512 55.4393C27.7863 55.3023 27.9744 55.2256 28.168 55.2256H29.733C30.1366 55.2256 30.4636 55.5525 30.4636 55.9543C30.4636 56.3579 30.1366 56.6848 29.733 56.6848H28.8986V99.3901H64.6217C65.0253 99.3901 65.3522 99.717 65.3522 100.121C65.3522 100.522 65.0253 100.851 64.6217 100.851ZM40.0611 56.6848H37.0386C36.6369 56.6848 36.308 56.3579 36.308 55.9543C36.308 55.5525 36.6369 55.2256 37.0386 55.2256H40.0613C40.4649 55.2256 40.7919 55.5525 40.7919 55.9543C40.7917 56.3579 40.4648 56.6848 40.0611 56.6848ZM33.3859 56.6848C32.9843 56.6848 32.6553 56.3579 32.6553 55.9543C32.6553 55.5525 32.9843 55.2256 33.3859 55.2256C33.7895 55.2256 34.1164 55.5525 34.1164 55.9543C34.1164 56.3579 33.7895 56.6848 33.3859 56.6848Z" fill="white"/>
<path d="M59.7319 100.851C59.3283 100.851 59.0014 100.522 59.0014 100.12C59.0014 99.7165 59.3283 99.3895 59.7319 99.3895H95.8824L63.1033 74.5369L30.3407 99.3895H52.4266C52.8302 99.3895 53.1571 99.7165 53.1571 100.12C53.1571 100.522 52.8302 100.851 52.4266 100.851H28.1692C27.8549 100.851 27.5774 100.65 27.477 100.352C27.3765 100.055 27.477 99.7276 27.7272 99.5377L62.6614 73.0373C62.9134 72.8476 63.2914 72.8476 63.5435 73.0373L98.4959 99.5377C98.7461 99.7276 98.8466 100.055 98.7479 100.352C98.6475 100.65 98.3701 100.851 98.0558 100.851H59.7319ZM56.0792 100.851C55.6756 100.851 55.3487 100.522 55.3487 100.12C55.3487 99.7165 55.6756 99.3895 56.0792 99.3895C56.4829 99.3895 56.8098 99.7165 56.8098 100.12C56.8098 100.522 56.4829 100.851 56.0792 100.851Z" fill="white"/>
<path d="M57.281 78.7686C57.1203 78.7686 56.9687 78.7174 56.839 78.6205L27.7272 56.5366C27.477 56.3467 27.3765 56.0197 27.477 55.722C27.5774 55.4243 27.8549 55.2253 28.1692 55.2253H40.0641C40.4659 55.2253 40.7928 55.5522 40.7928 55.9558C40.7928 56.3576 40.4659 56.6863 40.0641 56.6863H30.3407L57.281 77.1212L62.6614 73.0375C62.9134 72.8478 63.2914 72.8478 63.5435 73.0375L68.9293 77.1212L83.7318 65.8966C83.8615 65.7998 84.0131 65.7486 84.1738 65.7486C84.4039 65.7486 84.6176 65.8546 84.7564 66.0372C84.9993 66.3586 84.9352 66.8187 84.6156 67.0616L69.3695 78.6205C69.1155 78.8122 68.7412 78.8122 68.4874 78.6205L63.1033 74.537L57.7229 78.6205C57.5933 78.7174 57.4417 78.7686 57.281 78.7686ZM87.085 65.0035C86.8547 65.0035 86.641 64.8976 86.5024 64.7131C86.3836 64.5577 86.3343 64.3661 86.3599 64.1725C86.3873 63.9787 86.4877 63.8072 86.6432 63.6902C86.7708 63.5934 86.9244 63.5422 87.0831 63.5422C87.3153 63.5422 87.5271 63.6461 87.6676 63.8308C87.9105 64.1522 87.8465 64.6106 87.5251 64.8552C87.3973 64.9523 87.2457 65.0035 87.085 65.0035ZM89.9961 62.7954C89.7642 62.7954 89.5523 62.6913 89.4137 62.5069C89.1688 62.1853 89.2329 61.7269 89.5544 61.4839L95.8826 56.6862H86.161C85.7592 56.6862 85.4305 56.3574 85.4305 55.9556C85.4305 55.552 85.7592 55.2251 86.161 55.2251H98.0559C98.3703 55.2251 98.6477 55.4242 98.7481 55.7219C98.8467 56.0196 98.7463 56.3465 98.4961 56.5364L90.4365 62.6473C90.3378 62.7222 90.2191 62.7715 90.0968 62.7898C90.0619 62.7934 90.029 62.7954 89.9961 62.7954Z" fill="white"/>
<path d="M86.1601 65.3398C85.7584 65.3398 85.4296 65.0129 85.4296 64.6093V22.2437C85.4296 21.8401 85.7584 21.5132 86.1601 21.5132C86.5638 21.5132 86.8907 21.8401 86.8907 22.2437V64.6093C86.8907 65.0129 86.5638 65.3398 86.1601 65.3398ZM40.0634 65.3398C39.6598 65.3398 39.3311 65.0129 39.3311 64.6093V21.7305C39.3311 21.5388 39.4096 21.3507 39.5466 21.2137C39.6817 21.0785 39.8698 21 40.0634 21H79.368C79.7716 21 80.0985 21.3287 80.0985 21.7305C80.0985 22.1342 79.7716 22.4611 79.368 22.4611H40.7921V64.6093C40.7921 65.0129 40.4652 65.3398 40.0634 65.3398ZM83.0207 22.4611C82.6189 22.4611 82.2901 22.1342 82.2901 21.7305C82.2901 21.3287 82.6189 21 83.0207 21C83.4243 21 83.7512 21.3287 83.7512 21.7305C83.7512 22.1342 83.4243 22.4611 83.0207 22.4611Z" fill="white"/>
<path d="M65.7368 62.4466H60.4879C60.2961 62.4466 60.108 62.3679 59.971 62.2329C59.8359 62.096 59.7573 61.9078 59.7573 61.7161V61.0422C59.7573 60.6404 60.0861 60.3135 60.4879 60.3135C60.8696 60.3135 61.1872 60.6075 61.2164 60.9855H65.006V57.2817C65.006 56.9366 65.2508 56.6352 65.5905 56.5658C67.1282 56.2535 68.5711 55.6581 69.8805 54.7961C70.1636 54.6098 70.5581 54.6518 70.7974 54.8892L73.4329 57.5137L76.1083 54.8509L73.4766 52.2319C73.23 51.9872 73.1917 51.6 73.3835 51.3096C74.2491 50.0038 74.8484 48.5683 75.1623 47.0433C75.2317 46.7054 75.5312 46.4589 75.8782 46.4589H79.6021V42.6948H75.8782C75.5331 42.6948 75.2317 42.4501 75.1623 42.1122C74.8482 40.5872 74.2491 39.1517 73.3835 37.844C73.1917 37.5555 73.23 37.1683 73.4766 36.9236L76.1083 34.3046L73.4329 31.6418L70.7974 34.2644C70.5581 34.5037 70.162 34.5438 69.8805 34.3576C68.5674 33.4955 67.1246 32.9001 65.5905 32.5878C65.2508 32.5184 65.006 32.2189 65.006 31.8719V28.1681H61.2184V31.8719C61.2184 32.2189 60.9717 32.5203 60.634 32.5878C59.0999 32.9001 57.6571 33.4955 56.3439 34.3576C56.0608 34.5438 55.6663 34.5037 55.4271 34.2644L52.7917 31.6418L50.1163 34.3046L52.748 36.9236C52.9928 37.1683 53.0329 37.5555 52.8412 37.844C51.9737 39.1517 51.3763 40.5872 51.0623 42.1122C50.9929 42.4501 50.6916 42.6948 50.3464 42.6948H46.6225V46.4589H50.3464C50.6916 46.4589 50.9929 46.7054 51.0623 47.0433C51.3765 48.5683 51.9737 50.0038 52.8412 51.3096C53.0329 51.6 52.9928 51.9872 52.748 52.2319L50.1163 54.8509L52.7917 57.5137L55.4273 54.8892C55.6665 54.6518 56.061 54.6098 56.3441 54.7961C56.7112 55.039 57.0965 55.2618 57.4874 55.4627L57.4894 55.4645C57.7341 55.5906 57.8839 55.8389 57.8839 56.1147C57.8839 56.2298 57.8565 56.343 57.8035 56.4471C57.6775 56.6918 57.4291 56.8434 57.1533 56.8434C57.0363 56.8434 56.9251 56.816 56.821 56.7631C56.5598 56.6297 56.2986 56.4855 56.0466 56.3339L53.3071 59.0624C53.0313 59.3345 52.551 59.3345 52.277 59.0624L48.5659 55.3677C48.4271 55.2308 48.3504 55.0463 48.3504 54.8509C48.3504 54.6555 48.4271 54.471 48.5659 54.3322L51.3018 51.6091C50.6096 50.4585 50.0927 49.2166 49.764 47.9199H45.8922C45.7004 47.9199 45.5123 47.8432 45.3753 47.7063C45.2402 47.5711 45.1616 47.383 45.1616 47.1894V41.9661C45.1616 41.7725 45.2402 41.5844 45.3753 41.4492C45.5123 41.3122 45.7004 41.2355 45.8922 41.2355H49.764C50.0907 39.937 50.6096 38.6969 51.3018 37.5463L48.5659 34.8214C48.4271 34.6845 48.3504 34.5 48.3504 34.3046C48.3504 34.1092 48.4271 33.9247 48.5659 33.7859L52.277 30.0931C52.551 29.8191 53.0313 29.8191 53.3071 30.0931L56.0466 32.8198C57.2045 32.1294 58.4519 31.6144 59.7577 31.2893V27.4376C59.7577 27.2458 59.8362 27.0559 59.9714 26.9207C60.1084 26.7837 60.2965 26.707 60.4882 26.707H65.7369C65.9287 26.707 66.1168 26.7837 66.252 26.9207C66.3889 27.0559 66.4675 27.244 66.4675 27.4376V31.2893C67.7717 31.6144 69.0207 32.1294 70.1786 32.8198L72.9181 30.0931C73.1939 29.8191 73.6742 29.8191 73.9482 30.0931L77.6593 33.7859C77.7981 33.9247 77.8748 34.1092 77.8748 34.3046C77.8748 34.5 77.7981 34.6845 77.6593 34.8214L74.9234 37.5463C75.6156 38.6969 76.1325 39.9388 76.4594 41.2355H80.333C80.525 41.2355 80.7129 41.3122 80.8499 41.4492C80.985 41.5844 81.0636 41.7725 81.0636 41.9661V47.1894C81.0636 47.3848 80.9869 47.5675 80.8499 47.7063C80.7111 47.8451 80.5266 47.9199 80.333 47.9199H76.4594C76.1325 49.2166 75.6156 50.4585 74.9234 51.6091L77.6593 54.3322C77.7981 54.471 77.8748 54.6555 77.8748 54.8509C77.8748 55.0463 77.7981 55.2308 77.6593 55.3677L73.9482 59.0624C73.6742 59.3345 73.1939 59.3345 72.9181 59.0624L70.1768 56.3339C69.0225 57.0242 67.7733 57.5393 66.4673 57.8662V61.7161C66.4673 61.9113 66.3906 62.094 66.2518 62.2329C66.1148 62.3699 65.9304 62.4466 65.7368 62.4466ZM60.4879 58.12C60.0861 58.12 59.7573 57.7931 59.7573 57.3913C59.7573 56.9877 60.0861 56.6608 60.4879 56.6608C60.8915 56.6608 61.2184 56.9877 61.2184 57.3913C61.2184 57.7931 60.8915 58.12 60.4879 58.12Z" fill="#FF4D40"/>
<path d="M63.1115 51.1368C61.3527 51.1349 59.6999 50.4537 58.4563 49.2155C57.2124 47.9772 56.5275 46.3317 56.5259 44.5784C56.5277 42.8251 57.2126 41.1796 58.4563 39.9395C59.7001 38.7031 61.3527 38.02 63.1115 38.02C64.8704 38.02 66.5232 38.7012 67.7668 39.9395C69.0107 41.1778 69.6956 42.8251 69.6956 44.5784C69.6956 46.3299 69.0107 47.9772 67.7668 49.2155C66.5232 50.4537 64.8704 51.1349 63.1115 51.1368ZM63.1115 39.4811C60.2918 39.4866 57.9924 41.7731 57.9868 44.5784C57.9922 47.3836 60.2916 49.6702 63.1115 49.6739C65.9313 49.6702 68.2307 47.3836 68.2345 44.5784C68.2309 41.7731 65.9315 39.4866 63.1115 39.4811Z" fill="#FF4D40"/>
<path d="M40.063 28.9152H28.6539C28.2503 28.9152 27.9233 28.5864 27.9233 28.1846C27.9233 27.781 28.2503 27.4541 28.6539 27.4541H40.063C40.4648 27.4541 40.7917 27.781 40.7917 28.1846C40.7917 28.5864 40.4648 28.9152 40.063 28.9152Z" fill="#FF4D40"/>
<path d="M40.0631 34.8839H27.0432C26.6414 34.8839 26.3145 34.557 26.3145 34.1534C26.3145 33.7498 26.6414 33.4229 27.0432 33.4229H40.0631C40.4649 33.4229 40.7918 33.7498 40.7918 34.1534C40.7918 34.557 40.4649 34.8839 40.0631 34.8839Z" fill="#FF4D40"/>
<path d="M40.0612 40.8507H25.3135C24.9099 40.8507 24.583 40.5238 24.583 40.1202C24.583 39.7184 24.9099 39.3896 25.3135 39.3896H40.0612C40.4648 39.3896 40.7917 39.7184 40.7917 40.1202C40.7917 40.5238 40.4648 40.8507 40.0612 40.8507Z" fill="#FF4D40"/>
<path d="M40.0635 46.8204H23.7305C23.3287 46.8204 23 46.4917 23 46.0899C23 45.6863 23.3287 45.3594 23.7305 45.3594H40.0635C40.4653 45.3594 40.7922 45.6863 40.7922 46.0899C40.7922 46.4917 40.4653 46.8204 40.0635 46.8204Z" fill="#FF4D40"/>
</svg>
