<svg width="121" height="121" viewBox="0 0 121 121" fill="none" xmlns="http://www.w3.org/2000/svg">
<path d="M60.1891 102.397V102.388L60.1872 102.397C55.7446 102.397 51.3712 101.71 47.1861 100.355C43.1355 99.0444 39.3136 97.1265 35.828 94.6556C32.3846 92.2153 29.3332 89.283 26.7564 85.9396C24.1527 82.5634 22.0871 78.8318 20.6133 74.8504C20.4653 74.4526 20.669 74.0088 21.0668 73.8627C21.1532 73.8301 21.2416 73.8147 21.3339 73.8147C21.6528 73.8147 21.943 74.0165 22.0544 74.316C27.9324 90.1919 43.2566 100.86 60.1833 100.86H60.1853C72.1908 100.86 83.5223 95.597 91.2718 86.418C91.2718 86.418 91.2718 86.418 91.2737 86.418C91.4197 86.2451 91.633 86.1452 91.8598 86.1452C92.0404 86.1452 92.2153 86.2105 92.3536 86.3277C92.5264 86.4737 92.6265 86.6868 92.6265 86.9138C92.6265 87.0963 92.563 87.271 92.4458 87.4095C90.5147 89.7 88.3318 91.7887 85.9626 93.618C83.5761 95.4629 80.9878 97.0499 78.2688 98.3411C75.502 99.6535 72.5851 100.664 69.601 101.344C66.5321 102.044 63.3654 102.397 60.1891 102.397ZM94.1983 84.6366C94.0407 84.6366 93.8889 84.5885 93.7602 84.4982C93.5911 84.381 93.4777 84.2061 93.4414 84.0025C93.4066 83.8026 93.451 83.5989 93.568 83.43V83.4279C93.7121 83.2225 93.9485 83.0993 94.1983 83.0993C94.3558 83.0993 94.5076 83.1474 94.6383 83.2379C94.9861 83.48 95.0707 83.9604 94.8285 84.308C94.6844 84.5138 94.45 84.6366 94.1983 84.6366ZM96.2466 81.3875C96.114 81.3875 95.9834 81.3527 95.8681 81.2873C95.6892 81.1855 95.5604 81.0202 95.5047 80.8223C95.4511 80.6244 95.4778 80.4169 95.5777 80.2382C99.025 74.1604 100.849 67.2294 100.849 60.1966C100.849 49.3342 96.6213 39.1232 88.9448 31.4428C81.2645 23.7625 71.0515 19.5332 60.1853 19.5332C49.3305 19.5332 39.1234 23.7625 31.4449 31.4428C23.7665 39.1253 19.5372 49.3363 19.5372 60.1968C19.5372 62.495 19.7294 64.7968 20.1098 67.0413C20.1175 67.0836 20.1214 67.1257 20.1214 67.1681C20.1233 67.5447 19.8543 67.8635 19.4815 67.929C19.4392 67.9346 19.395 67.9387 19.3528 67.9387C18.9761 67.9387 18.6572 67.6696 18.5957 67.2988C18.1998 64.968 18 62.5793 18 60.1968C18 57.3337 18.2882 54.4726 18.857 51.6921C19.4123 48.9828 20.2386 46.3176 21.3166 43.7696C22.3734 41.2697 23.682 38.8582 25.2057 36.6023C26.7161 34.3676 28.4493 32.2654 30.3574 30.3574C32.2674 28.4474 34.3676 26.7122 36.6023 25.2038C38.8563 23.68 41.2678 22.3696 43.7677 21.3127C46.3137 20.2347 48.977 19.4085 51.6863 18.8532C57.2472 17.7156 63.1366 17.7156 68.6957 18.8532C71.4051 19.4085 74.072 20.2347 76.618 21.3127C79.12 22.3696 81.5314 23.68 83.7874 25.2038C86.0222 26.7122 88.1224 28.4474 90.0324 30.3574C91.9405 32.2654 93.6737 34.3676 95.1821 36.6023C96.7059 38.8582 98.0144 41.2697 99.0713 43.7696C100.149 46.3176 100.976 48.9828 101.529 51.6921C102.098 54.4726 102.386 57.3337 102.386 60.1968C102.386 63.9034 101.906 67.583 100.956 71.1301C100.036 74.5735 98.6776 77.892 96.9153 80.9974C96.7787 81.2376 96.5214 81.3875 96.2466 81.3875ZM20.1694 71.6912C19.8235 71.6912 19.518 71.4568 19.4277 71.1224C19.4277 71.1224 19.4277 71.1224 19.4277 71.1205C19.3739 70.9226 19.4008 70.7153 19.5046 70.5383C19.6064 70.3596 19.7736 70.2328 19.9715 70.1792C20.0368 70.1617 20.1041 70.154 20.1713 70.154C20.5172 70.154 20.8227 70.3886 20.913 70.7249C21.0226 71.1342 20.7785 71.5548 20.3692 71.6645C20.3039 71.6818 20.2367 71.6912 20.1694 71.6912Z" fill="white"/>
<path d="M60.1845 93.579C55.6785 93.579 51.307 92.697 47.1911 90.9563C45.2139 90.1185 43.3058 89.0828 41.5207 87.8778C39.7529 86.6826 38.0907 85.3108 36.5804 83.8003C35.0701 82.29 33.6981 80.6279 32.5029 78.8601C31.2981 77.075 30.2624 75.1669 29.4266 73.1896C27.6837 69.0739 26.8018 64.7024 26.8018 60.1964C26.8018 57.8234 27.0516 55.456 27.5454 53.156C28.0258 50.9174 28.7406 48.7192 29.6725 46.6266C30.5872 44.5725 31.7151 42.601 33.0275 40.7679C34.3303 38.9501 35.8195 37.2553 37.4586 35.7315C37.6008 35.5989 37.7871 35.5259 37.9812 35.5259C38.1945 35.5259 38.4001 35.6162 38.5442 35.7719C38.8344 36.0812 38.8152 36.5693 38.5058 36.8575C32.0456 42.8681 28.339 51.3747 28.339 60.1964C28.339 68.7011 31.6517 76.6966 37.668 82.7147C43.6843 88.7292 51.6817 92.0418 60.1845 92.0418C62.9323 92.0418 65.6568 91.694 68.2857 91.0043C68.2857 91.0043 68.2857 91.0043 68.2876 91.0043C68.351 90.989 68.4163 90.9794 68.4797 90.9794C68.8295 90.9794 69.135 91.2155 69.2234 91.5537C69.2387 91.6171 69.2484 91.6805 69.2484 91.7458C69.2503 92.0956 69.0158 92.4011 68.6777 92.4914C68.6755 92.4914 68.6755 92.4914 68.6736 92.4914C68.6659 92.4935 68.6583 92.4954 68.6506 92.4972C65.903 93.216 63.0551 93.579 60.1845 93.579ZM72.1306 91.3252C71.8117 91.3252 71.5311 91.135 71.4139 90.8391C71.2602 90.4432 71.4543 89.9975 71.8484 89.842H71.8503C71.9406 89.8055 72.0348 89.7882 72.1308 89.7882C72.4479 89.7882 72.7284 89.9804 72.8456 90.2763C72.9208 90.4665 72.9167 90.6759 72.8341 90.8643C72.7534 91.0526 72.6016 91.1967 72.4114 91.2716C72.3209 91.3079 72.2267 91.3252 72.1306 91.3252ZM75.6125 89.7111C75.3281 89.7111 75.0687 89.5574 74.9342 89.3076C74.8381 89.127 74.8169 88.9176 74.8765 88.7216C74.9342 88.5254 75.0667 88.3642 75.2474 88.2662C85.6102 82.6976 92.0473 71.9428 92.0473 60.1964C92.0473 51.686 88.7327 43.6847 82.7162 37.6665C76.6979 31.6502 68.6967 28.3356 60.1843 28.3356C54.7003 28.3356 49.2912 29.7537 44.545 32.4361C44.4297 32.5014 44.299 32.536 44.1664 32.536C43.8897 32.536 43.6342 32.3861 43.4977 32.146C43.4324 32.0307 43.3978 31.9019 43.3978 31.7713C43.3959 31.4926 43.5458 31.2352 43.7879 31.0987C46.2378 29.7133 48.855 28.6449 51.5682 27.9224C54.364 27.1769 57.2636 26.7983 60.1824 26.7983C64.6941 26.7983 69.0695 27.6822 73.1873 29.4231C75.1665 30.259 77.0744 31.2947 78.8596 32.5014C80.6275 33.6966 82.2915 35.0686 83.802 36.5789C85.3143 38.0912 86.6862 39.7533 87.8812 41.5211C89.0862 43.3081 90.1217 45.2162 90.9597 47.1954C92.7006 51.3132 93.5845 55.6866 93.5845 60.1964C93.5845 63.3149 93.1541 66.4011 92.3067 69.3718C91.4843 72.25 90.2757 75.0076 88.7096 77.569C85.6121 82.6416 81.208 86.8096 75.9754 89.6208C75.8642 89.6802 75.7372 89.7111 75.6125 89.7111ZM40.9423 34.617C40.6983 34.617 40.4658 34.4998 40.3216 34.3038C40.0718 33.9618 40.1449 33.4795 40.4869 33.2297C40.6195 33.1317 40.777 33.0798 40.9404 33.0798C41.1863 33.0798 41.4169 33.199 41.561 33.395C41.8127 33.737 41.7378 34.2193 41.3958 34.4691C41.2632 34.5671 41.1056 34.617 40.9423 34.617Z" fill="white"/>
<path d="M60.1847 34.9343C59.7619 34.9343 59.418 34.5885 59.418 34.1657V27.6114C59.418 27.1886 59.7619 26.8428 60.1847 26.8428C60.6093 26.8428 60.9533 27.1886 60.9533 27.6114V34.1657C60.9533 34.5885 60.6093 34.9343 60.1847 34.9343Z" fill="#FF4D40"/>
<path d="M73.2148 38.4123C73.0824 38.4123 72.9496 38.3777 72.8326 38.3104C72.4656 38.0991 72.3387 37.6264 72.5499 37.2594L75.8184 31.5908C75.957 31.3545 76.2125 31.2065 76.4854 31.2065C76.6199 31.2065 76.7525 31.2431 76.8697 31.3103C77.0465 31.4121 77.1733 31.5774 77.2269 31.7772C77.2807 31.9752 77.254 32.1827 77.1503 32.3595L73.8817 38.028C73.7451 38.2643 73.4895 38.4123 73.2148 38.4123Z" fill="#FF4D40"/>
<path d="M82.7396 47.949C82.4648 47.949 82.2092 47.803 82.0728 47.5667C81.971 47.388 81.9419 47.1804 81.9959 46.9825C82.048 46.7846 82.1766 46.6194 82.3533 46.5156L88.0351 43.2317C88.1523 43.1644 88.2851 43.1279 88.4194 43.1279C88.6944 43.1279 88.9478 43.2759 89.0864 43.5122C89.188 43.6909 89.2151 43.8965 89.1631 44.0964C89.1094 44.2943 88.9826 44.4596 88.8058 44.5633L83.1239 47.8472C83.0065 47.9145 82.8741 47.949 82.7396 47.949Z" fill="#FF4D40"/>
<path d="M92.7849 60.9654H86.2325C85.8078 60.9654 85.4639 60.6215 85.4639 60.1968C85.4639 59.7741 85.8078 59.4282 86.2325 59.4282H92.7851C93.2076 59.4282 93.5537 59.7741 93.5537 60.1968C93.5535 60.6215 93.2074 60.9654 92.7849 60.9654Z" fill="#FF4D40"/>
<path d="M88.4196 77.2506C88.2872 77.2506 88.1545 77.2158 88.0374 77.1487L82.3555 73.8802C81.9884 73.6686 81.8616 73.1981 82.073 72.8311C82.2094 72.5928 82.465 72.4448 82.7398 72.4448C82.8724 72.4448 83.0049 72.4794 83.1222 72.5465L88.8039 75.8152C89.1709 76.0266 89.2978 76.4973 89.0866 76.8663C88.9502 77.1024 88.6946 77.2506 88.4196 77.2506Z" fill="#FF4D40"/>
<path d="M76.4848 89.1867C76.2098 89.1867 75.9544 89.0385 75.8178 88.8024L72.5493 83.1339C72.4477 82.955 72.4206 82.7475 72.4726 82.5497C72.5262 82.3518 72.6531 82.1864 72.832 82.0847C72.949 82.0173 73.0818 81.981 73.2142 81.981C73.4891 81.981 73.7447 82.1289 73.8811 82.3653L77.1496 88.0338C77.361 88.4008 77.2361 88.8714 76.8691 89.0849C76.7519 89.1519 76.6193 89.1867 76.4848 89.1867Z" fill="#FF4D40"/>
<path d="M60.1851 93.5507C59.7624 93.5507 59.4165 93.2049 59.4165 92.7821V86.2295C59.4165 85.8049 59.7624 85.4609 60.1851 85.4609C60.6098 85.4609 60.9537 85.8049 60.9537 86.2295V92.7821C60.9537 93.2049 60.6098 93.5507 60.1851 93.5507Z" fill="#FF4D40"/>
<path d="M43.9004 89.1867C43.7659 89.1867 43.6334 89.1519 43.5161 89.0849C43.1491 88.8716 43.0242 88.4008 43.2356 88.0338L46.5041 82.3653C46.6405 82.1289 46.8961 81.981 47.1709 81.981C47.3054 81.981 47.438 82.0173 47.5552 82.0847C47.9222 82.2961 48.0471 82.7669 47.8357 83.1339L44.5672 88.8024C44.4289 89.0387 44.1733 89.1867 43.9004 89.1867Z" fill="#FF4D40"/>
<path d="M31.9645 77.2506C31.6897 77.2506 31.4342 77.1024 31.2978 76.8643C31.194 76.6874 31.1671 76.48 31.2209 76.2821C31.2747 76.0842 31.4015 75.9188 31.5802 75.8152L37.2641 72.5465C37.3794 72.4792 37.512 72.4448 37.6465 72.4448C37.9213 72.4448 38.1768 72.5928 38.3133 72.8311C38.4151 73.0078 38.442 73.2154 38.3882 73.4133C38.3344 73.611 38.2076 73.7764 38.0308 73.8802L32.3469 77.1487C32.2297 77.2158 32.0971 77.2506 31.9645 77.2506Z" fill="#FF4D40"/>
<path d="M34.1535 60.9654H27.5992C27.1764 60.9654 26.8306 60.6215 26.8306 60.1968C26.8306 59.7741 27.1764 59.4282 27.5992 59.4282H34.1535C34.5782 59.4282 34.9221 59.7741 34.9221 60.1968C34.9221 60.6215 34.5782 60.9654 34.1535 60.9654Z" fill="#FF4D40"/>
<path d="M37.6473 47.951C37.5128 47.951 37.3802 47.9145 37.263 47.8472L31.5791 44.5633C31.2121 44.35 31.0872 43.8792 31.2986 43.5122C31.435 43.2759 31.6906 43.1279 31.9654 43.1279C32.0999 43.1279 32.2324 43.1644 32.3477 43.2317L38.0316 46.5156C38.3986 46.727 38.5255 47.1997 38.3122 47.5667C38.1757 47.803 37.9202 47.951 37.6473 47.951Z" fill="#FF4D40"/>
<path d="M47.1698 38.4123C46.895 38.4123 46.6394 38.2643 46.503 38.028L43.2345 32.3595C43.0212 31.9924 43.148 31.5217 43.515 31.3103C43.6323 31.2431 43.7648 31.2065 43.8993 31.2065C44.1741 31.2065 44.4278 31.3545 44.5661 31.5908L47.8346 37.2594C47.9384 37.4381 47.9653 37.6456 47.9115 37.8435C47.8577 38.0414 47.7309 38.2067 47.5541 38.3104C47.4369 38.3777 47.3043 38.4123 47.1698 38.4123Z" fill="#FF4D40"/>
<path d="M63.9196 31.8891C63.8869 31.8891 63.8542 31.8871 63.8196 31.8833C63.3988 31.8295 63.1029 31.4433 63.1567 31.0224L63.5756 27.7693C63.6294 27.3542 64.0177 27.0526 64.4364 27.1044C64.6401 27.1313 64.8227 27.2351 64.9476 27.3984C65.0723 27.5598 65.1263 27.7616 65.1013 27.9653L64.6805 31.2204C64.6307 31.6008 64.3039 31.8891 63.9196 31.8891Z" fill="white"/>
<path d="M67.5782 32.5941V32.5845V32.5941C67.511 32.5941 67.4458 32.5864 67.3805 32.5691C66.9712 32.4596 66.7252 32.0388 66.8346 31.6295L67.6743 28.4647C67.7627 28.1284 68.0684 27.8921 68.416 27.8921C68.4833 27.8921 68.5505 27.9017 68.6139 27.919C68.8116 27.9709 68.9788 28.0977 69.0826 28.2764C69.1844 28.4532 69.2134 28.6607 69.1594 28.8586L68.3197 32.0234C68.2317 32.3596 67.9262 32.5941 67.5782 32.5941Z" fill="white"/>
<path d="M71.1323 33.7643C71.0343 33.7643 70.9382 33.745 70.846 33.7085C70.6559 33.6336 70.5059 33.4876 70.4254 33.2973C70.3447 33.109 70.3425 32.8996 70.4196 32.7093L71.6323 29.681C71.7512 29.387 72.0298 29.1968 72.3471 29.1968C72.4451 29.1968 72.5412 29.216 72.6334 29.2525C72.8234 29.3294 72.9735 29.4754 73.054 29.6637C73.1347 29.8539 73.1366 30.0615 73.0598 30.2517L71.8454 33.2819C71.728 33.574 71.4472 33.7643 71.1323 33.7643Z" fill="white"/>
<path d="M77.9556 37.6476C77.7845 37.6476 77.625 37.5938 77.4886 37.4901C77.1523 37.2326 77.087 36.7484 77.3445 36.4121L79.3391 33.8027C79.4851 33.6105 79.708 33.501 79.9501 33.501C80.1194 33.501 80.2808 33.5548 80.4153 33.6585C80.5786 33.7834 80.6841 33.9641 80.7112 34.1677C80.7381 34.3714 80.6841 34.5732 80.5594 34.7365L78.5668 37.346C78.4188 37.5381 78.1957 37.6476 77.9556 37.6476Z" fill="white"/>
<path d="M80.7745 40.0915C80.5708 40.0915 80.3787 40.0128 80.2346 39.8706C80.0885 39.7265 80.0078 39.5343 80.0059 39.3287C80.004 39.1231 80.0828 38.929 80.2269 38.783L82.5367 36.4445C82.6828 36.2965 82.8769 36.2158 83.0844 36.2158C83.2861 36.2158 83.4783 36.2946 83.6243 36.4368C83.7706 36.5809 83.8513 36.7731 83.853 36.9787C83.853 37.1843 83.7742 37.3783 83.6301 37.5244L81.3223 39.8629C81.1763 40.0108 80.982 40.0915 80.7745 40.0915Z" fill="white"/>
<path d="M83.2621 42.8819C83.026 42.8819 82.8048 42.7743 82.6571 42.5879C82.5302 42.4265 82.4745 42.2247 82.4995 42.021C82.5245 41.8173 82.6263 41.6348 82.7877 41.508L85.3664 39.4827C85.5048 39.377 85.6681 39.3193 85.841 39.3193C86.0793 39.3193 86.3005 39.4269 86.4463 39.6133C86.5731 39.7747 86.6289 39.9765 86.6058 40.1802C86.5808 40.3839 86.4771 40.5664 86.3156 40.6932L83.737 42.7166C83.6001 42.8242 83.437 42.8819 83.2621 42.8819Z" fill="white"/>
<path d="M87.2376 49.6593C86.9282 49.6593 86.6494 49.4749 86.5286 49.1905C86.4498 49.0002 86.4479 48.7927 86.5247 48.6025C86.6014 48.4122 86.7476 48.2624 86.9377 48.1836L89.9508 46.9077C90.0469 46.8673 90.1468 46.8462 90.2506 46.8462C90.5599 46.8462 90.8387 47.0307 90.9577 47.317C91.0386 47.5053 91.0405 47.7147 90.9635 47.905C90.8868 48.0952 90.7386 48.2431 90.5505 48.3239L87.5356 49.5978C87.4413 49.6401 87.3395 49.6593 87.2376 49.6593Z" fill="white"/>
<path d="M88.4499 53.1831C88.1059 53.1831 87.8023 52.9506 87.7101 52.6181C87.5967 52.2089 87.8388 51.7861 88.2462 51.6727L91.411 50.8023C91.4782 50.785 91.5474 50.7754 91.6166 50.7754C91.9605 50.7754 92.2641 51.0079 92.3563 51.3403C92.4697 51.7496 92.2276 52.1723 91.8183 52.2857L88.6555 53.1542C88.5882 53.1735 88.519 53.1831 88.4499 53.1831Z" fill="white"/>
<path d="M89.2157 56.8419C88.8369 56.8419 88.5105 56.5576 88.4567 56.1829C88.4278 55.9792 88.4778 55.7774 88.6027 55.6122C88.7259 55.4469 88.9044 55.3412 89.1081 55.3124L92.3478 54.8474C92.7609 54.7878 93.1587 55.0876 93.2163 55.4988C93.2778 55.9196 92.9859 56.3097 92.5649 56.3692L89.3252 56.8343C89.2906 56.84 89.252 56.8419 89.2157 56.8419Z" fill="white"/>
<path d="M92.5161 65.1044C92.4835 65.1044 92.4489 65.1025 92.4162 65.0987L89.1765 64.6779C88.7576 64.6242 88.4598 64.238 88.5136 63.8172C88.5674 63.4022 88.9577 63.1024 89.3744 63.1543L92.614 63.5732C92.8178 63.6003 92.9983 63.704 93.1232 63.8672C93.25 64.0286 93.3036 64.2305 93.2769 64.4359C93.2271 64.8162 92.9005 65.1044 92.5161 65.1044Z" fill="white"/>
<path d="M91.7366 69.1838C91.6711 69.1838 91.6078 69.1761 91.5423 69.1588L88.3641 68.3345C88.1643 68.2826 87.9992 68.1558 87.8935 67.979C87.7898 67.8022 87.7609 67.5947 87.8128 67.3968C87.9012 67.0586 88.2067 66.8203 88.5562 66.8203C88.6218 66.8203 88.6871 66.8299 88.7505 66.8453L91.9287 67.6696C92.1286 67.7217 92.2936 67.8483 92.3993 68.0253C92.5031 68.2021 92.5319 68.4096 92.4802 68.6073C92.3916 68.9474 92.0861 69.1838 91.7366 69.1838Z" fill="white"/>
<path d="M90.4289 73.1264C90.3309 73.1264 90.2348 73.107 90.1427 73.0706L87.099 71.8409C86.9088 71.7642 86.7587 71.618 86.6782 71.4279C86.5975 71.2396 86.5956 71.0302 86.6725 70.8398C86.7916 70.5477 87.0721 70.3594 87.3853 70.3594C87.4854 70.3594 87.5815 70.3788 87.6736 70.4151L90.7173 71.6449C90.9075 71.7215 91.0576 71.8678 91.1381 72.0578C91.2188 72.2461 91.2207 72.4556 91.1419 72.646C91.0247 72.9381 90.7442 73.1264 90.4289 73.1264Z" fill="white"/>
<path d="M86.1124 80.7151C85.9433 80.7151 85.7819 80.6594 85.6474 80.5576L83.0533 78.5784C82.89 78.4535 82.7843 78.2727 82.7574 78.0692C82.7305 77.8657 82.7824 77.6637 82.9073 77.5004C83.0552 77.3083 83.2781 77.1987 83.5201 77.1987C83.6893 77.1987 83.8508 77.2525 83.9851 77.3563L86.5791 79.3355C86.9154 79.593 86.9809 80.0754 86.7233 80.4117C86.5774 80.6037 86.3543 80.7151 86.1124 80.7151Z" fill="white"/>
<path d="M83.3986 83.8488C83.1969 83.8488 83.0047 83.77 82.8606 83.6278L80.5202 81.3335C80.3741 81.1894 80.2915 80.9973 80.2896 80.7934C80.2877 80.588 80.3664 80.3937 80.5106 80.2477C80.6566 80.0978 80.8507 80.0171 81.0599 80.0171C81.2617 80.0171 81.4519 80.094 81.598 80.2363L83.9365 82.5305C84.0827 82.6746 84.1651 82.8667 84.167 83.0723C84.1692 83.2779 84.0904 83.472 83.948 83.618C83.8021 83.7662 83.6061 83.8488 83.3986 83.8488Z" fill="white"/>
<path d="M80.2951 86.6083C80.0549 86.6083 79.834 86.5005 79.6879 86.3124L77.678 83.7315C77.4167 83.3974 77.4763 82.9149 77.8104 82.6538C77.9468 82.5479 78.1104 82.4902 78.2831 82.4902C78.5214 82.4902 78.7425 82.5998 78.8903 82.7881L80.9002 85.367C81.0251 85.5284 81.0808 85.7301 81.0561 85.9336C81.0311 86.1375 80.9273 86.32 80.7657 86.4447C80.6293 86.5525 80.4662 86.6083 80.2951 86.6083Z" fill="white"/>
<path d="M72.7662 91.0315C72.453 91.0315 72.1743 90.8451 72.0554 90.5569L70.7966 87.5286C70.7159 87.3384 70.7159 87.1308 70.7947 86.9404C70.8735 86.75 71.0214 86.6022 71.2097 86.5234C71.3039 86.485 71.4038 86.4639 71.5057 86.4639C71.8169 86.4639 72.0956 86.6503 72.2145 86.9385L73.4752 89.9668C73.6366 90.3588 73.4522 90.8084 73.0602 90.9718C72.966 91.0102 72.8682 91.0315 72.7662 91.0315Z" fill="white"/>
<path d="M68.8372 92.3808C68.4911 92.3808 68.1856 92.1461 68.0955 91.812L67.2404 88.6489C67.1866 88.4512 67.2135 88.2437 67.3173 88.065C67.4189 87.888 67.5844 87.7593 67.7823 87.7076C67.8476 87.6882 67.9168 87.6807 67.9841 87.6807C68.3299 87.6807 68.6355 87.9132 68.7238 88.2473L69.5789 91.4123C69.6327 91.61 69.606 91.8176 69.504 91.9943C69.4021 92.1732 69.235 92.2999 69.0371 92.3537C68.9715 92.371 68.9045 92.3808 68.8372 92.3808Z" fill="white"/>
<path d="M64.7859 93.2354C64.4072 93.2354 64.0807 92.9512 64.0269 92.5746L63.5619 89.3212C63.5022 88.9024 63.7963 88.5123 64.215 88.451C64.6282 88.3933 65.0261 88.6912 65.0838 89.1041L65.5488 92.3592C65.5776 92.5629 65.5257 92.7646 65.4027 92.9279C65.2796 93.0932 65.0991 93.1989 64.8953 93.2277C64.8589 93.2337 64.8224 93.2354 64.7859 93.2354Z" fill="white"/>
<path d="M56.0478 93.2952C56.017 93.2952 55.9825 93.2933 55.9479 93.2894C55.7461 93.2625 55.5636 93.1588 55.4387 92.9974C55.3138 92.8338 55.258 92.6323 55.2849 92.4286L55.7038 89.1735C55.7576 88.7585 56.1477 88.4568 56.5647 88.5106C56.9855 88.5644 57.2833 88.9506 57.2295 89.3715L56.8106 92.6263C56.7607 93.007 56.434 93.2952 56.0478 93.2952Z" fill="white"/>
<path d="M51.9685 92.5015C51.9032 92.5015 51.836 92.4917 51.7706 92.4744C51.5727 92.4225 51.4075 92.2957 51.3037 92.1172C51.1999 91.9404 51.173 91.7329 51.2249 91.535L52.0646 88.3702C52.1549 88.0339 52.4605 87.7993 52.8083 87.7993C52.8736 87.7993 52.9408 87.807 53.0062 87.8245C53.4155 87.9338 53.6595 88.3548 53.5519 88.7658L52.7103 91.9287C52.6219 92.2652 52.3163 92.5015 51.9685 92.5015Z" fill="white"/>
<path d="M48.0382 91.1971C47.9403 91.1971 47.8442 91.1777 47.7519 91.1413C47.358 90.9838 47.1678 90.5361 47.3254 90.1421L48.5398 87.1117C48.657 86.8196 48.9375 86.6294 49.2527 86.6294C49.3507 86.6294 49.4467 86.6488 49.539 86.6851C49.9329 86.8427 50.1231 87.2923 49.9655 87.6843L48.7511 90.7146C48.6339 91.0068 48.3534 91.1971 48.0382 91.1971Z" fill="white"/>
<path d="M40.4353 86.8926C40.2643 86.8926 40.1048 86.8388 39.9684 86.735C39.6321 86.4775 39.5687 85.9935 39.8262 85.6572L41.8207 83.0478C41.9668 82.8556 42.1897 82.7461 42.4318 82.7461C42.6009 82.7461 42.7623 82.8018 42.8987 82.9037C43.062 83.0284 43.1658 83.2092 43.1927 83.4127C43.2196 83.6165 43.1658 83.8181 43.0409 83.9816L41.0463 86.5909C40.9003 86.7828 40.6774 86.8926 40.4353 86.8926Z" fill="white"/>
<path d="M37.304 84.164C37.0984 84.164 36.9062 84.0833 36.7621 83.9392C36.4605 83.6414 36.4585 83.1533 36.7583 82.8537L39.068 80.5285C39.2121 80.3825 39.4062 80.3018 39.6137 80.3018C39.8174 80.3018 40.0095 80.3805 40.1556 80.5247C40.2997 80.6707 40.3804 80.8628 40.3823 81.0684C40.3823 81.2739 40.3035 81.466 40.1575 81.6122L37.8478 83.9373C37.7037 84.0835 37.5096 84.164 37.304 84.164Z" fill="white"/>
<path d="M34.5438 81.0741C34.3055 81.0741 34.0845 80.9665 33.9385 80.7803C33.8117 80.6189 33.756 80.4169 33.779 80.2134C33.804 80.0096 33.9078 79.8272 34.0692 79.7004L36.6479 77.677C36.7843 77.5694 36.9476 77.5137 37.1206 77.5137C37.3588 77.5137 37.5798 77.6194 37.7258 77.8075C37.8527 77.9691 37.9103 78.1708 37.8853 78.3743C37.8603 78.5782 37.7585 78.7586 37.5971 78.8855L35.0184 80.9107C34.88 81.0184 34.7167 81.0741 34.5438 81.0741Z" fill="white"/>
<path d="M30.1356 73.5475C29.8262 73.5475 29.5476 73.363 29.4265 73.0769C29.3477 72.8886 29.3458 72.6792 29.4227 72.4887C29.4995 72.2985 29.6456 72.1505 29.8358 72.0698L32.8488 70.7959C32.9448 70.7555 33.0448 70.7344 33.1485 70.7344C33.4579 70.7344 33.7365 70.9188 33.8556 71.2052C34.0209 71.595 33.8384 72.0468 33.4483 72.212L30.4334 73.486C30.3392 73.5266 30.2374 73.5475 30.1356 73.5475Z" fill="white"/>
<path d="M28.7692 69.6176C28.4252 69.6176 28.1197 69.3849 28.0294 69.0527C27.916 68.6434 28.1581 68.2207 28.5655 68.1073L31.7303 67.2369C31.7975 67.2196 31.8648 67.21 31.934 67.21C32.2779 67.21 32.5834 67.4425 32.6757 67.7747C32.7871 68.184 32.5469 68.6067 32.1376 68.7201L28.9729 69.5905C28.9075 69.6078 28.8384 69.6176 28.7692 69.6176Z" fill="white"/>
<path d="M27.9279 65.5541C27.5494 65.5541 27.2227 65.2716 27.1689 64.895C27.1401 64.6911 27.192 64.4896 27.3149 64.3241C27.4379 64.1608 27.6185 64.0553 27.8203 64.0244L31.06 63.5594C31.4751 63.4996 31.8709 63.7995 31.9305 64.2108C31.99 64.6296 31.698 65.0197 31.2791 65.0812L28.0394 65.5462C28.0029 65.5522 27.9644 65.5541 27.9279 65.5541Z" fill="white"/>
<path d="M31.1263 57.2317C31.0936 57.2317 31.0629 57.2298 31.0302 57.2259L27.7771 56.8205C27.3563 56.7686 27.0565 56.3843 27.1084 55.9635C27.1603 55.5484 27.5484 55.2429 27.9654 55.2948L31.2204 55.7003C31.6393 55.7521 31.9391 56.1364 31.8872 56.5572C31.8392 56.9416 31.5125 57.2317 31.1263 57.2317Z" fill="white"/>
<path d="M31.8308 53.5735C31.7655 53.5735 31.7001 53.5639 31.6367 53.5485L28.4566 52.7242C28.2587 52.6723 28.0915 52.5474 27.9877 52.3687C27.884 52.1919 27.8552 51.9863 27.907 51.7865C27.9935 51.4483 28.299 51.2119 28.6488 51.2119C28.7141 51.2119 28.7794 51.2196 28.8428 51.2369L32.023 52.0593C32.4322 52.1669 32.6801 52.5877 32.5744 52.997C32.486 53.3352 32.1805 53.5735 31.8308 53.5735Z" fill="white"/>
<path d="M32.9979 50.0336C32.898 50.0336 32.8019 50.0144 32.7097 49.9779L29.666 48.7481C29.4757 48.6712 29.3258 48.5252 29.2471 48.335C29.1664 48.1467 29.1644 47.9372 29.2413 47.747C29.3585 47.4549 29.6391 47.2666 29.9542 47.2666C30.0522 47.2666 30.1502 47.2858 30.2424 47.3223L33.2842 48.5521C33.4763 48.629 33.6243 48.775 33.705 48.9652C33.7857 49.1535 33.7857 49.363 33.7089 49.5532C33.5916 49.8453 33.3111 50.0336 32.9979 50.0336Z" fill="white"/>
<path d="M36.8824 43.1951C36.7133 43.1951 36.5519 43.1413 36.4174 43.0395L33.8098 41.0603C33.6446 40.9354 33.5389 40.7567 33.512 40.553C33.4832 40.3493 33.537 40.1476 33.6619 39.9842C33.8079 39.7902 34.0308 39.6787 34.2748 39.6787C34.4439 39.6787 34.6034 39.7325 34.7379 39.8363L37.3474 41.8155C37.6836 42.071 37.7509 42.5553 37.4953 42.8915C37.3474 43.0856 37.1245 43.1951 36.8824 43.1951Z" fill="white"/>
<path d="M39.3259 40.3765C39.1241 40.3765 38.932 40.2996 38.7879 40.1574L36.4494 37.8631C36.3014 37.719 36.2207 37.5269 36.2188 37.3213C36.2169 37.1156 36.2937 36.9235 36.4378 36.7755C36.5839 36.6276 36.7799 36.5469 36.9874 36.5469C37.1892 36.5469 37.3813 36.6237 37.5254 36.7659L39.8639 39.0602C40.1675 39.3562 40.1714 39.8442 39.8755 40.1459C39.7294 40.2958 39.5334 40.3765 39.3259 40.3765Z" fill="white"/>
<path d="M42.101 37.8877C41.8627 37.8877 41.6417 37.78 41.4957 37.5937L39.4858 35.0284C39.2264 34.696 39.284 34.2118 39.6184 33.9504C39.7548 33.8428 39.9181 33.7871 40.0911 33.7871C40.3293 33.7871 40.5503 33.8928 40.6964 34.0811L42.7063 36.6444C42.9676 36.9788 42.908 37.463 42.5737 37.7243C42.4373 37.83 42.2739 37.8877 42.101 37.8877Z" fill="white"/>
<path d="M48.8785 33.9293C48.5673 33.9293 48.2886 33.7429 48.1695 33.4547L46.909 30.4263C46.7476 30.0344 46.932 29.5847 47.324 29.4214C47.4182 29.381 47.5181 29.3618 47.618 29.3618C47.9312 29.3618 48.2098 29.5482 48.329 29.8364L49.5876 32.8648C49.7509 33.2568 49.5645 33.7064 49.1745 33.8697C49.0803 33.9082 48.9804 33.9293 48.8785 33.9293Z" fill="white"/>
<path d="M52.403 32.6998C52.059 32.6998 51.7535 32.4673 51.6613 32.1349L50.7927 28.9874C50.6794 28.5781 50.9195 28.1535 51.3288 28.0401C51.3942 28.0228 51.4633 28.0132 51.5325 28.0132C51.8765 28.0132 52.182 28.2438 52.2742 28.5762L53.1447 31.7256C53.2561 32.1349 53.0159 32.5576 52.6086 32.671C52.5413 32.6902 52.4721 32.6998 52.403 32.6998Z" fill="white"/>
<path d="M56.0608 31.935C55.6823 31.935 55.3556 31.6506 55.2999 31.2759L54.8349 28.0362C54.7753 27.6173 55.0674 27.2272 55.4863 27.1658C55.9013 27.1062 56.2971 27.4059 56.3567 27.8172L56.8217 31.0569C56.8505 31.2605 56.8006 31.4623 56.6776 31.6275C56.5546 31.7909 56.374 31.8985 56.1703 31.9273C56.1338 31.9331 56.0973 31.935 56.0608 31.935Z" fill="white"/>
<path d="M60.1848 63.3041C58.4727 63.3041 57.0796 61.9091 57.0776 60.197C57.0796 59.363 57.4043 58.581 57.9923 57.9968C58.5784 57.4127 59.3566 57.0918 60.1848 57.0898C61.0224 57.0898 61.8063 57.4107 62.3926 57.993C62.9746 58.5675 63.3092 59.3726 63.3072 60.197C63.3072 61.0269 62.9825 61.8072 62.3945 62.3933C61.8046 62.9792 61.0206 63.3041 60.1848 63.3041ZM60.1848 58.6271C59.3066 58.629 58.6168 59.3188 58.6149 60.197C58.6168 61.0617 59.322 61.7669 60.1848 61.7688C61.0591 61.7688 61.77 61.0636 61.7719 60.197C61.7681 59.3207 61.0725 58.6309 60.1848 58.6271Z" fill="#FF4D40"/>
<path d="M58.0265 60.0663C57.8593 60.0663 57.6999 60.0125 57.5653 59.9126L44.1146 49.8669C43.9494 49.7439 43.8437 49.5633 43.813 49.3615C43.7841 49.1578 43.836 48.9561 43.959 48.7908C44.105 48.5948 44.3298 48.4814 44.5739 48.4814C44.7411 48.4814 44.9005 48.5352 45.0331 48.6352L58.4858 58.6809C58.651 58.8039 58.7567 58.9845 58.7874 59.1882C58.8163 59.39 58.7644 59.5936 58.6414 59.757C58.4954 59.953 58.2705 60.0663 58.0265 60.0663Z" fill="#FF4D40"/>
<path d="M62.2109 59.7668C61.9399 59.7668 61.6863 59.6207 61.5479 59.3882C61.3327 59.0231 61.4538 58.5504 61.8189 58.3352L71.6264 52.5476C71.7455 52.4784 71.8798 52.4419 72.0164 52.4419C72.2872 52.4419 72.5427 52.586 72.6792 52.8185C72.7829 52.9953 72.8137 53.2028 72.762 53.4007C72.7099 53.6006 72.5852 53.7678 72.4082 53.8715L62.6009 59.6592C62.4818 59.7303 62.3473 59.7668 62.2109 59.7668Z" fill="#FF4D40"/>
</svg>
