<svg width="121" height="121" viewBox="0 0 121 121" fill="none" xmlns="http://www.w3.org/2000/svg">
<path d="M60.1185 84.7815C56.1597 84.7815 52.2112 84.2374 48.3818 83.1656C44.6592 82.1225 41.0186 80.5702 37.5629 78.5539C37.4212 78.4717 37.3186 78.3383 37.2775 78.1781C37.2365 78.02 37.259 77.8537 37.3412 77.712C37.452 77.5231 37.6553 77.4061 37.875 77.4061C37.9818 77.4061 38.0906 77.4348 38.183 77.4903C45.076 81.5106 52.4556 83.5496 60.1185 83.5496C75.3088 83.5496 89.7148 75.2501 99.6384 60.7805C92.9077 50.9636 84.1317 43.9311 74.2594 40.4466C74.2573 40.4466 74.2573 40.4466 74.2573 40.4445C74.015 40.3583 73.851 40.1304 73.8487 39.8717C73.8467 39.7998 73.8592 39.7279 73.8838 39.6602C73.9701 39.4138 74.2042 39.2495 74.4647 39.2495C74.5347 39.2495 74.6025 39.2618 74.6701 39.2844C79.7951 41.0954 84.6676 43.8551 89.1459 47.4894C93.5502 51.0622 97.5028 55.4172 100.895 60.4355C101.035 60.6408 101.035 60.918 100.895 61.1254C98.4578 64.731 95.7043 68.0225 92.7124 70.9092C89.6982 73.819 86.4275 76.3281 82.9964 78.365C79.4953 80.4409 75.8076 82.0404 72.0336 83.1143C68.149 84.2208 64.1387 84.7815 60.1185 84.7815ZM34.4193 76.4264C34.292 76.4264 34.1709 76.3876 34.0661 76.3156C33.9306 76.2211 33.8403 76.0796 33.8136 75.9174C33.7848 75.7552 33.8198 75.591 33.9142 75.4575C34.1031 75.1906 34.5014 75.1166 34.7704 75.3035C34.7704 75.3055 34.7725 75.3055 34.7725 75.3055C35.0517 75.5006 35.1195 75.8846 34.9244 76.164C34.8094 76.3281 34.6205 76.4264 34.4193 76.4264ZM31.1546 73.9422C31.0129 73.9422 30.8733 73.8929 30.7624 73.8025C26.4915 70.2791 22.6518 66.0141 19.346 61.1254C19.2043 60.916 19.2043 60.645 19.346 60.4355C21.7812 56.8279 24.5327 53.5364 27.5243 50.6495C30.5386 47.7399 33.8074 45.2308 37.2406 43.1939C40.7394 41.118 44.4271 39.5185 48.2032 38.4446C52.088 37.3379 56.0961 36.7773 60.1185 36.7773C62.2868 36.7773 64.4674 36.9416 66.6028 37.264C66.765 37.2886 66.9088 37.3749 67.0055 37.5083C67.1038 37.6397 67.1451 37.8019 67.1205 37.9662C67.0691 38.2947 66.7509 38.5329 66.4182 38.4816C64.3423 38.1695 62.2233 38.0093 60.1187 38.0093C44.9242 38.0093 30.5224 46.3088 20.6028 60.7805C23.7875 65.4271 27.4691 69.4885 31.547 72.8498C31.6886 72.9689 31.7708 73.1414 31.7708 73.3262C31.7708 73.4678 31.7215 73.6075 31.6311 73.7183C31.5139 73.8598 31.3394 73.9422 31.1546 73.9422ZM70.5349 39.2967C70.4856 39.2967 70.4343 39.2906 70.3852 39.2783C70.0565 39.1961 69.8555 38.8594 69.9374 38.5309C70.0195 38.2085 70.3583 38.0011 70.685 38.0832C71.0135 38.1654 71.2148 38.5021 71.1326 38.8306C71.0626 39.1058 70.8183 39.2967 70.5349 39.2967Z" fill="white"/>
<path d="M60.1187 80.1616H60.1167C57.8375 80.1616 55.6035 79.7694 53.4804 78.9933C51.4271 78.2459 49.5278 77.1597 47.8338 75.7698C47.571 75.5519 47.532 75.1641 47.7476 74.9012C47.8646 74.7575 48.0391 74.6774 48.2239 74.6774C48.3656 74.6774 48.5052 74.7267 48.6141 74.8171C51.846 77.4679 55.9321 78.9298 60.1187 78.9298C64.9645 78.9298 69.5229 77.0408 72.9519 73.6138C76.3787 70.1827 78.2679 65.6265 78.2679 60.7807C78.2679 55.9328 76.3789 51.3765 72.9519 47.9455C69.5229 44.5185 64.9645 42.6294 60.1187 42.6294C55.2709 42.6294 50.7146 44.5185 47.2876 47.9455C43.8607 51.3745 41.9737 55.9328 41.9737 60.7807C41.9737 63.5259 42.5712 66.1644 43.7498 68.6202C43.7888 68.7044 43.8093 68.7947 43.8093 68.8871C43.8093 69.1212 43.6718 69.3388 43.4603 69.4415C43.1605 69.5852 42.7806 69.4477 42.639 69.152C42.025 67.873 41.5528 66.5217 41.2345 65.1398C40.908 63.7169 40.7417 62.2508 40.7417 60.7807C40.7417 58.1627 41.255 55.6248 42.2653 53.2368C43.2406 50.9289 44.6368 48.8551 46.417 47.0748C48.1952 45.2946 50.267 43.8984 52.5749 42.921C54.9649 41.9108 57.5028 41.3975 60.1187 41.3975C62.7347 41.3975 65.2725 41.9108 67.6626 42.921C69.9705 43.8984 72.0423 45.2946 73.8225 47.0748C75.6027 48.8551 76.9992 50.9289 77.9763 53.2368C78.9866 55.6248 79.4999 58.1647 79.4999 60.7807C79.4999 63.3966 78.9866 65.9345 77.9763 68.3245C76.999 70.6324 75.6025 72.7042 73.8225 74.4844C72.0425 76.2646 69.9705 77.6611 67.6626 78.6383C65.2725 79.6483 62.7344 80.1616 60.1187 80.1616ZM45.3575 72.9789C45.1686 72.9789 44.99 72.8927 44.873 72.7449C44.7723 72.6155 44.7272 72.4533 44.7456 72.2911C44.7662 72.1268 44.8483 71.981 44.9777 71.8784C45.2364 71.6751 45.6368 71.7244 45.8401 71.981C45.8421 71.981 45.8421 71.9831 45.8421 71.9831C46.0515 72.25 46.0043 72.6381 45.7374 72.8475C45.6286 72.934 45.4972 72.9789 45.3575 72.9789Z" fill="white"/>
<path d="M60.1183 67.3261C58.3689 67.3261 56.7242 66.6444 55.4881 65.4083C54.252 64.172 53.5703 62.5275 53.5703 60.7799C53.5703 59.0305 54.252 57.3858 55.4881 56.1497C56.7242 54.9136 58.3689 54.2319 60.1183 54.2319C61.8657 54.2319 63.5104 54.9136 64.7467 56.1497C65.9827 57.3858 66.6644 59.0305 66.6644 60.7799C66.6644 62.5273 65.9827 64.172 64.7467 65.4083C63.5104 66.6444 61.8657 67.3261 60.1183 67.3261ZM60.1183 55.4641C57.1923 55.4703 54.8085 57.8542 54.8023 60.7801C54.8085 63.704 57.1923 66.0879 60.1183 66.0941C63.0422 66.0879 65.4261 63.7038 65.4323 60.7801C65.4261 57.8542 63.042 55.4703 60.1183 55.4641Z" fill="#FF4D40"/>
<path d="M50.1635 39.1876C49.8247 39.1876 49.5475 38.9124 49.5475 38.5716V37.3684L45.9973 33.8244L40.5684 28.3893C40.4534 28.2743 40.3877 28.1141 40.3877 27.954V17.0037C40.3877 17.0016 40.3877 17.0016 40.3877 16.9996C40.3897 16.6628 40.6649 16.3877 41.0037 16.3877C41.3425 16.3877 41.6197 16.6649 41.6197 17.0037V27.6973L46.8679 32.9517L50.5988 36.6785C50.7158 36.7934 50.7795 36.9495 50.7795 37.1138V38.5716C50.7795 38.9124 50.5043 39.1876 50.1635 39.1876Z" fill="white"/>
<path d="M55.5144 38.2601C55.1735 38.2601 54.8984 37.9829 54.8984 37.6441V36.0528L45.8433 26.9998C45.7283 26.8848 45.6626 26.7267 45.6626 26.5645V24.4783C45.6626 24.1395 45.9398 23.8623 46.2786 23.8623C46.6194 23.8623 46.8946 24.1395 46.8946 24.4783V26.3078L55.9497 35.3629C56.0667 35.4799 56.1304 35.6339 56.1304 35.7982V37.6441C56.1304 37.9829 55.8532 38.2601 55.5144 38.2601Z" fill="#FF4D40"/>
<path d="M48.4773 29.3791C48.313 29.3791 48.159 29.3134 48.042 29.1984C47.8018 28.9582 47.8018 28.566 48.042 28.3257L51.6722 24.6955V20.1536C51.6722 19.8148 51.9494 19.5376 52.2882 19.5376C52.6291 19.5376 52.9042 19.8148 52.9042 20.1536V24.9501C52.9042 25.1144 52.8406 25.2704 52.7235 25.3875L48.9146 29.1984C48.7976 29.3134 48.6416 29.3791 48.4773 29.3791Z" fill="#FF4D40"/>
<path d="M60.054 38.0096C59.7152 38.0096 59.438 37.7324 59.438 37.3936V17.7332C59.438 17.3944 59.7152 17.1172 60.054 17.1172C60.3948 17.1172 60.67 17.3944 60.67 17.7332V37.3936C60.67 37.7324 60.3948 38.0096 60.054 38.0096Z" fill="white"/>
<path d="M60.1318 33.3381H60.1298C59.9655 33.3381 59.8115 33.2745 59.6944 33.1574L55.8096 29.2726C55.6946 29.1576 55.6289 28.9974 55.6289 28.8373V21.1394C55.6289 20.8006 55.9061 20.5234 56.2449 20.5234C56.5857 20.5234 56.8609 20.8006 56.8609 21.1394V28.5806L60.5653 32.2868C60.8055 32.5271 60.8055 32.9172 60.5653 33.1574C60.4501 33.2745 60.2961 33.3381 60.1318 33.3381Z" fill="white"/>
<path d="M41.0035 17.6199C39.714 17.6179 38.6627 16.5686 38.6606 15.2771C38.6627 13.9897 39.7119 12.9425 41.0035 12.9404C41.6277 12.9425 42.2149 13.1848 42.6543 13.6262C43.0958 14.0656 43.3401 14.6529 43.3401 15.2771C43.3401 16.5686 42.2929 17.6179 41.0035 17.6199ZM41.0035 14.1724C40.3916 14.1745 39.8947 14.6693 39.8926 15.2771C39.8947 15.889 40.3916 16.3859 41.0035 16.3879C41.6112 16.3859 42.1081 15.889 42.1081 15.2771C42.1081 14.6693 41.6133 14.1724 41.0035 14.1724Z" fill="#FF4D40"/>
<path d="M52.2905 20.7692C51.001 20.7692 49.9497 19.7179 49.9497 18.4285C49.9497 17.139 51.001 16.0918 52.2905 16.0918C52.9147 16.0918 53.5019 16.3361 53.9434 16.7755C54.3828 17.217 54.6271 17.8022 54.6292 18.4285C54.6271 19.7179 53.5799 20.7692 52.2905 20.7692ZM52.2905 17.3238C51.6806 17.3238 51.1817 17.8207 51.1817 18.4285C51.1817 19.0383 51.6806 19.5372 52.2905 19.5372C52.8983 19.5372 53.3952 19.0383 53.3972 18.4285C53.3972 17.8186 52.9003 17.3238 52.2905 17.3238Z" fill="#FF4D40"/>
<path d="M70.0755 39.1876C69.7369 39.1876 69.4595 38.9124 69.4595 38.5716V37.1138C69.4595 36.9495 69.5252 36.7934 69.6402 36.6785L73.3733 32.9538L78.6215 27.6993V17.0037C78.6215 16.6649 78.8989 16.3877 79.2375 16.3877C79.5763 16.3877 79.8535 16.6649 79.8535 17.0037V27.954C79.8535 28.1162 79.788 28.2743 79.6728 28.3893L74.2441 33.8244L70.6917 37.3704V38.5716C70.6915 38.9124 70.4165 39.1876 70.0755 39.1876Z" fill="white"/>
<path d="M64.7259 38.2601C64.3873 38.2601 64.1099 37.9849 64.1099 37.6441V35.7982C64.1099 35.636 64.1756 35.4778 64.2906 35.3629L73.3458 26.3078V24.4783V24.4762C73.3479 24.1374 73.623 23.8623 73.9618 23.8623C74.3004 23.8623 74.5778 24.1395 74.5778 24.4783V26.5645C74.5778 26.7287 74.514 26.8827 74.3971 26.9998L65.3418 36.0528V37.6441C65.3418 37.9849 65.0667 38.2601 64.7259 38.2601Z" fill="#FF4D40"/>
<path d="M71.7631 29.3791C71.5986 29.3791 71.4426 29.3134 71.3255 29.1984L67.5166 25.3854C67.4016 25.2725 67.3359 25.1144 67.3359 24.9501V20.1536C67.3359 19.8148 67.6111 19.5376 67.9519 19.5376C68.2907 19.5376 68.5679 19.8148 68.5679 20.1536V24.6955L72.1982 28.3278C72.4386 28.566 72.4386 28.9582 72.1982 29.1984C72.0813 29.3134 71.9273 29.3791 71.7631 29.3791Z" fill="#FF4D40"/>
<path d="M79.2369 17.6199C77.9474 17.6179 76.8963 16.5686 76.894 15.2771C76.8963 13.9897 77.9453 12.9425 79.2369 12.9404C80.5263 12.9425 81.5776 13.9897 81.5797 15.2771C81.5776 16.5686 80.5263 17.6179 79.2369 17.6199ZM79.2369 14.1724C78.6252 14.1745 78.1283 14.6693 78.126 15.2771C78.1283 15.889 78.6252 16.3859 79.2369 16.3879C79.8467 16.3859 80.3457 15.889 80.3477 15.2771C80.3457 14.6693 79.8465 14.1745 79.2369 14.1724Z" fill="#FF4D40"/>
<path d="M67.9522 20.7692C66.6607 20.7692 65.6116 19.7179 65.6094 18.4285C65.6094 17.139 66.6607 16.0918 67.9522 16.0918C69.2417 16.0918 70.293 17.139 70.293 18.4285C70.293 19.7179 69.2417 20.7692 67.9522 20.7692ZM67.9522 17.3238C67.3405 17.3238 66.8436 17.8207 66.8414 18.4285C66.8436 19.0383 67.3405 19.5372 67.9522 19.5372C68.562 19.5372 69.061 19.0383 69.061 18.4285C69.061 17.8207 68.5618 17.3238 67.9522 17.3238Z" fill="#FF4D40"/>
<path d="M41.0037 105.177C40.6649 105.177 40.3877 104.9 40.3877 104.561V93.6066C40.3877 93.4423 40.4534 93.2844 40.5684 93.1692L49.5475 84.1903V82.9871C49.5475 82.6462 49.8247 82.3711 50.1635 82.3711C50.5043 82.3711 50.7795 82.6462 50.7795 82.9871V84.4451C50.7795 84.6094 50.7158 84.7634 50.6008 84.8802L41.6197 93.8614V104.561C41.6197 104.9 41.3425 105.177 41.0037 105.177Z" fill="white"/>
<path d="M46.2786 97.7027C45.9398 97.7027 45.6626 97.4255 45.6626 97.0867V94.9944C45.6626 94.83 45.7263 94.676 45.8433 94.5591L54.8984 85.5102V83.9148C54.8984 83.576 55.1756 83.2988 55.5144 83.2988C55.8532 83.2988 56.1304 83.576 56.1304 83.9148V85.7669C56.1304 85.9312 56.0667 86.0852 55.9497 86.2022L46.8946 95.2511V97.0865C46.8946 97.4255 46.6194 97.7027 46.2786 97.7027Z" fill="#FF4D40"/>
<path d="M52.2887 102.027C51.9499 102.027 51.6727 101.75 51.6727 101.411V96.863L48.0425 93.2327C47.9275 93.1157 47.8618 92.9617 47.8618 92.7974C47.8618 92.6309 47.9255 92.4769 48.0425 92.3601C48.2766 92.128 48.6811 92.128 48.9131 92.3601L52.724 96.1728C52.8411 96.288 52.9047 96.442 52.9047 96.6081V101.407C52.9047 101.409 52.9047 101.409 52.9047 101.411C52.9047 101.75 52.6296 102.027 52.2887 102.027Z" fill="#FF4D40"/>
<path d="M60.054 104.442C59.7152 104.442 59.438 104.164 59.438 103.826V84.1653C59.438 83.8265 59.7152 83.5493 60.054 83.5493C60.3948 83.5493 60.67 83.8265 60.67 84.1653V103.826C60.67 104.164 60.3948 104.442 60.054 104.442Z" fill="white"/>
<path d="M56.2449 101.035C55.9061 101.035 55.6289 100.758 55.6289 100.419V92.7274C55.6289 92.5652 55.6946 92.4069 55.8096 92.2921L59.6944 88.4073C59.9285 88.1753 60.333 88.173 60.5651 88.4073C60.8053 88.6475 60.8053 89.0374 60.5651 89.2779L56.8607 92.9818V100.415C56.8607 100.417 56.8607 100.417 56.8607 100.419C56.8609 100.758 56.5857 101.035 56.2449 101.035Z" fill="white"/>
<path d="M41.0035 108.625C39.714 108.623 38.6627 107.571 38.6606 106.282C38.6627 104.994 39.7119 103.945 41.0035 103.945C41.6277 103.945 42.2149 104.189 42.6543 104.629C43.0958 105.07 43.3401 105.658 43.3401 106.282C43.3401 107.571 42.2909 108.623 41.0035 108.625ZM41.0035 105.177C40.3916 105.177 39.8947 105.674 39.8926 106.282C39.8947 106.892 40.3916 107.391 41.0035 107.393C41.6112 107.391 42.1081 106.892 42.1081 106.282C42.1081 105.672 41.6133 105.177 41.0035 105.177Z" fill="#FF4D40"/>
<path d="M52.2905 105.472C51.001 105.472 49.9497 104.421 49.9497 103.132C49.9497 101.84 51.001 100.791 52.2905 100.789C53.5799 100.789 54.6271 101.84 54.6292 103.132C54.6271 104.421 53.5799 105.472 52.2905 105.472ZM52.2905 102.021C51.6806 102.021 51.1817 102.52 51.1817 103.132C51.1817 103.742 51.6806 104.24 52.2905 104.24C52.8983 104.24 53.3952 103.742 53.3972 103.132C53.3952 102.52 52.8983 102.021 52.2905 102.021Z" fill="#FF4D40"/>
<path d="M79.2363 105.177C78.8977 105.177 78.6203 104.9 78.6203 104.561V93.8614L69.6392 84.8802C69.5242 84.7652 69.4585 84.6073 69.4585 84.4451L69.4608 82.9871C69.4608 82.6462 69.7359 82.3711 70.0745 82.3711C70.4153 82.3711 70.6905 82.6462 70.6905 82.9871V84.1903L79.6716 93.1692C79.7887 93.2863 79.8523 93.4403 79.8523 93.6066V104.561C79.8523 104.9 79.5751 105.177 79.2363 105.177Z" fill="#FF4D40"/>
<path d="M73.9616 97.7027C73.6208 97.7027 73.3456 97.4255 73.3456 97.0867V95.2513L64.2906 86.2022C64.1756 86.0872 64.1099 85.9291 64.1099 85.7669L64.1119 83.9148C64.1119 83.576 64.3873 83.2988 64.7259 83.2988C65.0667 83.2988 65.3418 83.576 65.3418 83.9148V85.5102L74.3971 94.5591C74.514 94.676 74.5778 94.83 74.5778 94.9944V97.0865C74.5776 97.4255 74.3004 97.7027 73.9616 97.7027Z" fill="white"/>
<path d="M67.9519 102.027C67.6111 102.027 67.3359 101.75 67.3359 101.411V96.6081C67.3359 96.4459 67.4016 96.2859 67.5146 96.1728L71.3275 92.3619C71.5596 92.1278 71.9641 92.1278 72.1979 92.3598C72.4384 92.6021 72.4384 92.9922 72.1979 93.2325L68.5677 96.8627V101.407C68.5677 101.409 68.5677 101.409 68.5677 101.411C68.5679 101.75 68.2907 102.027 67.9519 102.027Z" fill="white"/>
<path d="M79.2369 108.625C77.9474 108.623 76.8963 107.571 76.894 106.282C76.8963 104.994 77.9453 103.945 79.2369 103.945C80.5284 103.945 81.5776 104.994 81.5797 106.282C81.5776 107.571 80.5263 108.623 79.2369 108.625ZM79.2369 105.177C78.6252 105.177 78.1283 105.674 78.126 106.282C78.1283 106.892 78.6252 107.391 79.2369 107.393C79.8488 107.391 80.3457 106.892 80.3477 106.282C80.3457 105.674 79.8488 105.177 79.2369 105.177Z" fill="#FF4D40"/>
<path d="M67.9522 105.472C66.6607 105.472 65.6116 104.421 65.6094 103.132C65.6116 101.84 66.6607 100.791 67.9522 100.789C69.2417 100.791 70.293 101.84 70.293 103.132C70.293 104.421 69.2417 105.472 67.9522 105.472ZM67.9522 102.021C67.3405 102.021 66.8436 102.52 66.8414 103.132C66.8436 103.742 67.3405 104.24 67.9522 104.24C68.562 104.24 69.061 103.742 69.061 103.132C69.061 102.52 68.5618 102.021 67.9522 102.021Z" fill="#FF4D40"/>
<path d="M60.1184 56.9282C59.7776 56.9282 59.5024 56.6531 59.5024 56.3122V50.719C59.5024 50.3782 59.7776 50.103 60.1184 50.103C60.4572 50.103 60.7344 50.3782 60.7344 50.719V56.3122C60.7344 56.6531 60.4572 56.9282 60.1184 56.9282Z" fill="#FF4D40"/>
<path d="M63.2813 58.2408C63.115 58.2408 62.961 58.1751 62.846 58.0601C62.6037 57.8199 62.6037 57.4298 62.844 57.1895L66.7987 53.2287C67.0307 52.9967 67.4354 52.9967 67.6693 53.2287C67.7863 53.3457 67.85 53.4997 67.85 53.664C67.85 53.8283 67.7863 53.9843 67.6693 54.0993L63.7166 58.0601C63.5994 58.1751 63.4454 58.2408 63.2813 58.2408Z" fill="#FF4D40"/>
<path d="M70.1836 61.394H64.5843C64.2434 61.394 63.9683 61.1189 63.9683 60.7801C63.9683 60.4392 64.2434 60.1641 64.5843 60.1641H70.1836C70.5245 60.1641 70.7996 60.4392 70.7996 60.7801C70.7996 61.1191 70.5245 61.394 70.1836 61.394Z" fill="#FF4D40"/>
<path d="M67.234 68.5111C67.0697 68.5111 66.9136 68.4474 66.7987 68.3304L62.844 64.3716C62.6037 64.1314 62.6037 63.7392 62.846 63.4989C63.0781 63.2669 63.4846 63.2669 63.7166 63.5012L67.6693 67.4598C67.9095 67.7 67.9095 68.0901 67.6693 68.3304C67.552 68.4474 67.398 68.5111 67.234 68.5111Z" fill="#FF4D40"/>
<path d="M60.1184 71.4553C59.7776 71.4553 59.5024 71.1802 59.5024 70.8394V65.2464C59.5024 64.9055 59.7776 64.6304 60.1184 64.6304C60.4572 64.6304 60.7344 64.9055 60.7344 65.2464V70.8394C60.7344 71.1804 60.4572 71.4553 60.1184 71.4553Z" fill="#FF4D40"/>
<path d="M53.0022 68.5111C52.8379 68.5111 52.6819 68.4474 52.5669 68.3304C52.3267 68.0901 52.3267 67.7 52.5669 67.4598L56.5277 63.4989C56.7597 63.2669 57.1642 63.2669 57.3983 63.5012C57.5133 63.6162 57.577 63.772 57.577 63.9363C57.577 64.1008 57.5133 64.2548 57.3963 64.3716L53.4375 68.3304C53.3205 68.4474 53.1665 68.5111 53.0022 68.5111Z" fill="#FF4D40"/>
<path d="M55.6506 61.394H50.0574C49.7165 61.394 49.4414 61.1189 49.4414 60.7801C49.4414 60.4392 49.7165 60.1641 50.0574 60.1641H55.6506C55.9914 60.1641 56.2666 60.4392 56.2666 60.7801C56.2666 61.1191 55.9914 61.394 55.6506 61.394Z" fill="#FF4D40"/>
<path d="M56.963 58.2408C56.7967 58.2408 56.6427 58.1751 56.5257 58.0601L52.5669 54.0993C52.3267 53.8611 52.3267 53.4689 52.5669 53.2287C52.7989 52.9967 53.2055 52.9967 53.4375 53.2287L57.3983 57.1875C57.5133 57.3045 57.579 57.4585 57.579 57.6248C57.579 57.7891 57.5133 57.9431 57.3983 58.0601C57.2813 58.1751 57.1273 58.2408 56.963 58.2408Z" fill="#FF4D40"/>
</svg>
