<svg width="121" height="121" viewBox="0 0 121 121" fill="none" xmlns="http://www.w3.org/2000/svg">
<path d="M93.9027 101.071H26.4447C26.2457 101.071 26.0523 100.991 25.9136 100.852C25.7728 100.711 25.6938 100.518 25.6938 100.32L25.6901 86.0958C25.6901 85.8966 25.7689 85.7072 25.9097 85.5665C26.0523 85.4238 26.2421 85.345 26.4409 85.345C26.8557 85.345 27.1917 85.6828 27.1917 86.0958L27.1955 99.5696H93.1519V83.3081C93.1519 82.8953 93.4879 82.5572 93.9027 82.5572C94.3157 82.5572 94.6536 82.8953 94.6536 83.3081V100.32C94.6536 100.521 94.5747 100.709 94.434 100.852C94.2913 100.992 94.1017 101.071 93.9027 101.071ZM26.4409 83.0924C26.0279 83.0924 25.6901 82.7564 25.6901 82.3416C25.6901 81.9286 26.0261 81.5907 26.4409 81.5907C26.8557 81.5907 27.1917 81.9286 27.1917 82.3416C27.1917 82.7564 26.8557 83.0924 26.4409 83.0924ZM93.9027 80.3047C93.4879 80.3047 93.1519 79.9687 93.1519 79.5538C93.1519 79.139 93.4879 78.803 93.9027 78.803C94.3157 78.803 94.6536 79.139 94.6536 79.5538C94.6536 79.9687 94.3157 80.3047 93.9027 80.3047ZM26.4409 79.3382C26.0261 79.3382 25.6901 79.0022 25.6901 78.5873L25.6807 19.7508C25.6807 19.5538 25.7614 19.3585 25.9003 19.2196C26.0411 19.0807 26.2344 19 26.4315 19H52.0655C52.4784 19 52.8163 19.336 52.8163 19.7508C52.8163 20.1657 52.4784 20.5017 52.0655 20.5017H27.1824L27.1917 78.5873C27.1917 79.0022 26.8539 79.3382 26.4409 79.3382ZM93.9027 76.5505C93.4879 76.5505 93.1519 76.2145 93.1519 75.7996V30.1257L83.4828 20.5017H59.574C59.1591 20.5017 58.8231 20.1657 58.8231 19.7508C58.8231 19.336 59.1591 19 59.574 19H83.7926C83.9898 19 84.183 19.0807 84.3219 19.2196L94.4321 29.281C94.5747 29.4218 94.6536 29.6114 94.6536 29.8122V75.7998C94.6536 76.2145 94.3157 76.5505 93.9027 76.5505ZM55.8197 20.5017C55.4049 20.5017 55.0689 20.1657 55.0689 19.7508C55.0689 19.336 55.4049 19 55.8197 19C56.2327 19 56.5706 19.336 56.5706 19.7508C56.5706 20.1657 56.2327 20.5017 55.8197 20.5017Z" fill="white"/>
<path d="M67.9289 34.2009H34.871C34.4561 34.2009 34.1201 33.863 34.1201 33.4501C34.1201 33.0352 34.4561 32.6992 34.871 32.6992H67.9289C68.3438 32.6992 68.6798 33.0352 68.6798 33.4501C68.6798 33.863 68.3438 34.2009 67.9289 34.2009Z" fill="white"/>
<path d="M82.0974 40.6438H34.871C34.4561 40.6438 34.1201 40.3078 34.1201 39.8929C34.1201 39.48 34.4561 39.1421 34.871 39.1421H82.0974C82.5104 39.1421 82.8462 39.48 82.8462 39.8929C82.8462 40.3078 82.5104 40.6438 82.0974 40.6438Z" fill="white"/>
<path d="M93.9025 30.5724H83.7924C83.5953 30.5724 83.4021 30.4917 83.2632 30.3528C83.1224 30.212 83.0415 30.0187 83.0415 29.8216V19.7508V19.749C83.0436 19.336 83.3796 19 83.7924 19C84.2072 19 84.5432 19.3379 84.5432 19.7508V29.0708H93.9025C94.3155 29.0708 94.6534 29.4086 94.6534 29.8216C94.6534 30.2364 94.3155 30.5724 93.9025 30.5724Z" fill="white"/>
<path d="M51.9195 80.9281H51.91C49.6236 80.9281 47.3955 80.4945 45.2837 79.6422C43.1006 78.76 41.1391 77.4646 39.459 75.7921C38.1826 74.5231 37.1166 73.0778 36.2905 71.5012C36.099 71.1333 36.2398 70.679 36.6077 70.4875C36.7147 70.4312 36.8348 70.4012 36.955 70.4012C37.2346 70.4012 37.4901 70.5551 37.6213 70.8029C38.3761 72.2464 39.3522 73.5662 40.5196 74.7279C43.5624 77.7578 47.6095 79.4247 51.9137 79.4264C56.218 79.4245 60.265 77.7576 63.3097 74.7279C66.3525 71.7001 68.0269 67.6737 68.0288 63.3903C68.0269 59.1086 66.3525 55.0822 63.3097 52.0544C60.2669 49.0266 56.2197 47.3578 51.9137 47.3578C47.6076 47.3578 43.5624 49.0266 40.5196 52.0544C37.4768 55.0822 35.8024 59.1086 35.8005 63.3903C35.8005 63.5649 35.8043 63.7451 35.8099 63.927C35.8099 63.9366 35.8099 63.946 35.8099 63.9551C35.808 64.3606 35.4889 64.6891 35.0853 64.7021C34.6686 64.721 34.3232 64.3925 34.3101 63.9777C34.3026 63.786 34.2988 63.5891 34.2988 63.3901C34.2988 61.1151 34.7324 58.8944 35.5903 56.7921C36.4763 54.6146 37.779 52.6624 39.4588 50.9899C41.1389 49.3174 43.0988 48.0222 45.2835 47.1399C47.3953 46.2877 49.6235 45.856 51.9098 45.856H51.9194C54.2038 45.856 56.4338 46.2877 58.5435 47.1399C60.7287 48.0222 62.6882 49.3174 64.3682 50.9899C66.0501 52.6624 67.3528 54.6146 68.2388 56.7921C69.0965 58.8944 69.5303 61.1151 69.5303 63.3901C69.5303 65.6671 69.0965 67.8877 68.2388 69.9901C67.3528 72.1675 66.0501 74.1198 64.3682 75.7921C62.6882 77.4646 60.7285 78.7617 58.5435 79.6422C56.4338 80.4945 54.2038 80.9281 51.9195 80.9281ZM35.6015 68.4094C35.2618 68.4094 34.9635 68.1804 34.8772 67.8519C34.8751 67.8519 34.8751 67.85 34.8751 67.85C34.77 67.4483 35.0104 67.0372 35.4103 66.9321C35.4741 66.915 35.5379 66.9075 35.6017 66.9075C35.9434 66.9075 36.2418 67.1384 36.3282 67.4669C36.3791 67.6621 36.3507 67.8629 36.2493 68.0375C36.1499 68.2102 35.9865 68.3341 35.7932 68.3848C35.7294 68.4019 35.6654 68.4094 35.6015 68.4094Z" fill="#FF4D40"/>
<path d="M65.0327 81.9457C64.8319 81.9457 64.6442 81.8668 64.5034 81.7279L60.6853 77.9287C60.5258 77.7691 60.4451 77.5478 60.4676 77.3225C60.4901 77.0973 60.6123 76.8945 60.8017 76.7707C61.7009 76.1777 62.5437 75.4923 63.3095 74.7304C64.0733 73.9681 64.7643 73.1274 65.3612 72.2337C65.4851 72.0459 65.6858 71.9241 65.9112 71.9033C66.1346 71.8789 66.3561 71.9577 66.5157 72.1173L70.3319 75.9166C70.4747 76.0574 70.5535 76.2469 70.5535 76.4478C70.5535 76.6486 70.4747 76.8382 70.3319 76.979L65.5623 81.7263C65.4213 81.8668 65.2315 81.9457 65.0327 81.9457ZM62.3822 77.4988L65.0327 80.1361L68.7382 76.4476L66.0877 73.8084C65.5675 74.5084 64.9894 75.1747 64.3682 75.7923C63.7507 76.4099 63.0805 76.9826 62.3822 77.4988Z" fill="#FF4D40"/>
<path d="M76.9556 96.188C76.7549 96.188 76.5672 96.111 76.4264 95.9702L63.3091 82.9149C63.1662 82.7722 63.0874 82.5845 63.0874 82.3818C63.0874 82.1809 63.1662 81.9913 63.3091 81.8505L70.4645 74.7288C70.7481 74.4472 71.2418 74.4472 71.5234 74.7288L84.6407 87.7841C84.7833 87.927 84.8622 88.1166 84.8622 88.3174C84.8622 88.5181 84.7833 88.7079 84.6407 88.8486L77.487 95.9702C77.3443 96.111 77.1566 96.188 76.9556 96.188ZM64.9026 82.3818L76.9556 94.3785L83.0468 88.3172L70.9938 76.3206L64.9026 82.3818Z" fill="#FF4D40"/>
<path fill-rule="evenodd" clip-rule="evenodd" d="M77.0326 86.896C77.9619 86.896 78.7154 87.6453 78.7154 88.57C78.7154 89.4958 77.9619 90.2451 77.0326 90.2451C76.1036 90.2451 75.3501 89.4958 75.3501 88.57C75.3501 87.6453 76.1034 86.896 77.0326 86.896Z" fill="#FF4D40"/>
<path d="M57.3549 72.5337H46.1145C45.6133 72.5337 45.144 72.3385 44.7893 71.9875C44.4364 71.6346 44.2393 71.1653 44.2393 70.6641V68.3776C44.2411 66.144 46.0695 64.323 48.3124 64.3213H55.1585C57.4016 64.3232 59.2281 66.144 59.2318 68.3776V70.6641C59.2298 71.1653 59.0345 71.6346 58.6799 71.9875C58.327 72.3385 57.8559 72.5337 57.3549 72.5337ZM48.3126 65.8209C46.8975 65.8249 45.743 66.9718 45.7411 68.3776V70.6641C45.7411 70.8593 45.9157 71.032 46.1145 71.032H57.3549C57.5539 71.032 57.7303 70.8593 57.7303 70.6641V68.3776C57.7264 66.9718 56.574 65.8247 55.1587 65.8209H48.3126Z" fill="#FF4D40"/>
<path d="M51.7496 60.3529C50.6534 60.351 49.621 59.9249 48.8457 59.1496C48.0684 58.3725 47.6406 57.342 47.6406 56.2439C47.6406 55.1457 48.0684 54.1152 48.8457 53.34C49.621 52.5647 50.6534 52.1367 51.7496 52.1367C52.8478 52.1367 53.8802 52.5647 54.6573 53.34C55.4326 54.1152 55.8605 55.1457 55.8605 56.2439C55.8605 57.342 55.4326 58.3744 54.6573 59.1496C53.8802 59.9251 52.8478 60.3512 51.7496 60.3529ZM51.7496 53.6386C50.3155 53.6405 49.1442 54.8099 49.1423 56.244C49.1442 57.6782 50.3155 58.8476 51.7496 58.8514C53.1856 58.8476 54.357 57.6782 54.3588 56.244C54.357 54.8099 53.1858 53.6405 51.7496 53.6386Z" fill="#FF4D40"/>
</svg>
