<svg width="121" height="121" viewBox="0 0 121 121" fill="none" xmlns="http://www.w3.org/2000/svg">
<path d="M85.4502 95.0419C83.3583 95.0419 81.3938 94.2266 79.9162 92.7494C78.4407 91.2718 77.6274 89.3071 77.6274 87.2192C77.6274 86.1633 77.8342 85.1373 78.2419 84.173C78.6356 83.2404 79.1986 82.4033 79.9162 81.6852C80.634 80.9676 81.4694 80.4048 82.4018 80.0109C83.3682 79.6033 84.3923 79.3965 85.4482 79.3965C85.4482 79.3965 85.4482 79.3965 85.4502 79.3965C87.5381 79.3965 89.5027 80.2098 90.9804 81.6852C92.4578 83.1629 93.2729 85.1293 93.2729 87.2192C93.2729 89.3071 92.4576 91.2718 90.9804 92.7494C89.5027 94.2268 87.5381 95.0419 85.4502 95.0419ZM85.4502 80.5898C81.7933 80.5898 78.8205 83.5626 78.8205 87.2194C78.8265 90.8685 81.8013 93.8433 85.4502 93.849C87.2179 93.849 88.8823 93.159 90.137 91.9063C91.3898 90.6513 92.0798 88.9872 92.0798 87.2194C92.0798 85.4477 91.3898 83.7833 90.137 82.5305C88.8843 81.2778 87.2199 80.5898 85.4502 80.5898Z" fill="white"/>
<path d="M89.3266 86.5489C89.0244 86.5489 88.7699 86.3222 88.7343 86.0221C88.5809 84.7851 88.1039 84.316 87.704 84.0456C87.2011 83.7135 86.6024 83.6638 86.2922 83.6638H86.2801C86.0933 83.6638 85.9559 83.6797 85.9062 83.6877H85.8963C85.8943 83.6896 85.8943 83.6896 85.8943 83.6896C85.5742 83.7473 85.258 83.5268 85.2003 83.2084C85.1407 82.8843 85.3574 82.5743 85.6815 82.5145C85.7392 82.5045 85.9581 82.4707 86.2801 82.4707C87.0715 82.4727 87.7714 82.6676 88.3561 83.0474C89.225 83.6061 89.7798 84.6143 89.919 85.8849C89.9566 86.2113 89.7221 86.5073 89.3938 86.5451C89.3702 86.5489 89.3485 86.5489 89.3266 86.5489Z" fill="#FF4D40"/>
<path d="M85.4739 50.7483H42.2123C41.8842 50.7483 41.6157 50.4818 41.6157 50.1517C41.6157 49.8236 41.8842 49.5552 42.2123 49.5552H85.4739C85.804 49.5552 86.0704 49.8236 86.0704 50.1517C86.0704 50.4818 85.804 50.7483 85.4739 50.7483Z" fill="#FF4D40"/>
<path d="M85.4739 55.0754H42.2123C41.8842 55.0754 41.6157 54.807 41.6157 54.4789C41.6157 54.1488 41.8842 53.8823 42.2123 53.8823H85.4739C85.804 53.8823 86.0704 54.1488 86.0704 54.4789C86.0704 54.807 85.804 55.0754 85.4739 55.0754Z" fill="#FF4D40"/>
<path d="M85.4739 59.4001H42.2123C41.8842 59.4001 41.6157 59.1337 41.6157 58.8036C41.6157 58.4755 41.8842 58.207 42.2123 58.207H85.4739C85.804 58.207 86.0704 58.4755 86.0704 58.8036C86.0704 59.1337 85.804 59.4001 85.4739 59.4001Z" fill="white"/>
<path d="M85.4739 63.7273H42.2123C41.8842 63.7273 41.6157 63.4588 41.6157 63.1307C41.6157 62.8006 41.8842 62.5342 42.2123 62.5342H85.4739C85.804 62.5342 86.0704 62.8006 86.0704 63.1307C86.0704 63.4588 85.804 63.7273 85.4739 63.7273Z" fill="white"/>
<path d="M85.4739 68.0525H42.2123C41.8842 68.0525 41.6157 67.786 41.6157 67.4559C41.6157 67.1278 41.8842 66.8594 42.2123 66.8594H85.4739C85.804 66.8594 86.0704 67.1278 86.0704 67.4559C86.0704 67.786 85.804 68.0525 85.4739 68.0525Z" fill="#FF4D40"/>
<path d="M85.4739 72.3791H42.2123C41.8842 72.3791 41.6157 72.1107 41.6157 71.7826C41.6157 71.4545 41.8842 71.186 42.2123 71.186H85.4739C85.804 71.186 86.0704 71.4545 86.0704 71.7826C86.0704 72.1107 85.804 72.3791 85.4739 72.3791Z" fill="white"/>
<path d="M85.4739 76.7063H42.2123C41.8842 76.7063 41.6157 76.4378 41.6157 76.1097C41.6157 75.7796 41.8842 75.5132 42.2123 75.5132H85.4739C85.804 75.5132 86.0704 75.7796 86.0704 76.1097C86.0704 76.438 85.804 76.7063 85.4739 76.7063Z" fill="white"/>
<path d="M21.1595 75.9069C20.8314 75.9069 20.563 75.6383 20.563 75.3104V44.4808C20.563 44.1507 20.8314 43.8843 21.1595 43.8843C21.4876 43.8843 21.7561 44.1507 21.7561 44.4808V75.3104C21.7561 75.6383 21.4876 75.9069 21.1595 75.9069Z" fill="#FF4D40"/>
<path d="M21.1598 87.6012C20.9311 87.6012 20.7183 87.466 20.6209 87.2592L17.149 79.9415C17.1112 79.862 17.0913 79.7723 17.0913 79.685V72.256C17.0913 71.9281 17.3598 71.6594 17.6879 71.6594C18.016 71.6594 18.2844 71.9281 18.2844 72.256V79.55L21.1598 85.6127L24.0411 79.552V41.2673H18.2844V64.302C18.2844 64.6301 18.0179 64.8986 17.6879 64.8986C17.3598 64.8986 17.0913 64.6301 17.0913 64.302V40.6708C17.0913 40.5137 17.1549 40.3606 17.2663 40.2492C17.3777 40.1379 17.5308 40.0742 17.6879 40.0742H24.6376C24.7947 40.0742 24.9498 40.1379 25.0592 40.2492C25.1706 40.3606 25.2342 40.5137 25.2342 40.6708V79.685C25.2342 79.7723 25.2143 79.8638 25.1765 79.9415L21.6986 87.2611C21.5992 87.466 21.3884 87.6012 21.1598 87.6012ZM17.6879 68.8755C17.3598 68.8755 17.0913 68.6071 17.0913 68.279C17.0913 67.9511 17.3598 67.6825 17.6879 67.6825C18.016 67.6825 18.2844 67.9511 18.2844 68.279C18.2844 68.6071 18.016 68.8755 17.6879 68.8755Z" fill="#FF4D40"/>
<path d="M24.6376 41.2672H17.6879C17.5308 41.2672 17.3777 41.2036 17.2663 41.0922C17.1549 40.9809 17.0913 40.8278 17.0913 40.6707V37.7933C17.0913 37.6382 17.1549 37.4831 17.2663 37.3718C17.3777 37.2604 17.5308 37.1968 17.6879 37.1968H24.6376C24.7947 37.1968 24.9498 37.2604 25.0592 37.3718C25.1706 37.4831 25.2342 37.6382 25.2342 37.7933V40.6707C25.2342 40.8278 25.1706 40.9809 25.0592 41.0922C24.9498 41.2036 24.7947 41.2672 24.6376 41.2672ZM18.2844 40.0741H24.0411V38.3919H18.2844V40.0741Z" fill="#FF4D40"/>
<path d="M24.6376 38.3901H17.6879C17.5308 38.3901 17.3777 38.3265 17.2663 38.2171C17.1549 38.1058 17.0913 37.9526 17.0913 37.7936V31.5696C17.0933 31.1918 17.2404 30.8358 17.5069 30.5714C17.7734 30.3049 18.1273 30.1578 18.5051 30.1558H23.3789C24.399 30.1597 25.2322 30.9929 25.2342 32.013V37.7936C25.2342 37.9507 25.1706 38.1058 25.0612 38.2171C24.9498 38.3265 24.7947 38.3901 24.6376 38.3901ZM18.2844 37.199H24.0411V32.013C24.0411 31.6531 23.7369 31.3489 23.3789 31.3489H18.5051C18.3898 31.3489 18.2844 31.4542 18.2844 31.5696V37.199Z" fill="#FF4D40"/>
<path d="M21.1598 87.6012C20.9311 87.6012 20.7183 87.466 20.6209 87.2592L17.149 79.9416C17.1112 79.862 17.0913 79.7723 17.0913 79.685V75.6981C17.0913 75.541 17.1549 75.3859 17.2663 75.2746C17.3777 75.165 17.5308 75.1016 17.6879 75.1016H24.6376C24.7967 75.1016 24.9498 75.165 25.0592 75.2766C25.1706 75.3859 25.2342 75.541 25.2342 75.6981V79.685C25.2342 79.7723 25.2143 79.8638 25.1765 79.9416L21.6986 87.2612C21.5992 87.466 21.3884 87.6012 21.1598 87.6012ZM18.2844 79.5518L21.1598 85.6125L24.0411 79.5498V76.2947H18.2844V79.5518Z" fill="#FF4D40"/>
<path d="M67.9612 99.1961C67.6333 99.1961 67.3646 98.9296 67.3646 98.5995C67.3646 98.2714 67.6333 98.003 67.9612 98.003H80.6738V93.4116C79.7492 92.6975 78.9814 91.7711 78.4566 90.7271C77.9058 89.6334 77.6274 88.4523 77.6274 87.2192C77.6274 86.1633 77.8342 85.1373 78.2419 84.173C78.6356 83.2404 79.1985 82.4033 79.9162 81.6852C80.634 80.9676 81.4712 80.4048 82.4038 80.0109C83.3684 79.6033 84.3923 79.3965 85.4484 79.3965C87.5383 79.3965 89.5029 80.2098 90.9804 81.6852C92.4578 83.1629 93.2729 85.1293 93.2729 87.2192C93.2729 88.4521 92.9925 89.6334 92.4417 90.7289C91.9167 91.7709 91.1512 92.7015 90.2245 93.4173V98.003H97.8444V81.902C97.8444 81.5741 98.1109 81.3054 98.441 81.3054C98.7691 81.3054 99.0375 81.5741 99.0375 81.902V98.5995C99.0375 98.7586 98.9739 98.9098 98.8625 99.0211C98.7492 99.1343 98.6001 99.1961 98.441 99.1961H89.628C89.4709 99.1961 89.3178 99.1325 89.2064 99.0211C89.0951 98.9096 89.0314 98.7566 89.0314 98.5995V93.1193C89.0314 92.9264 89.1251 92.7454 89.2822 92.6321C91.034 91.3815 92.0798 89.359 92.0798 87.2194C92.0798 85.4477 91.3898 83.7833 90.137 82.5305C88.8843 81.2798 87.2199 80.5898 85.4502 80.5898C81.7933 80.5898 78.8205 83.5626 78.8205 87.2194C78.8205 89.3612 79.8665 91.3815 81.6163 92.6261C81.7734 92.7375 81.8671 92.9184 81.8671 93.1111V98.5995C81.8671 98.7586 81.8053 98.9098 81.6941 99.0211C81.5808 99.1343 81.4316 99.1961 81.2706 99.1961H67.9612ZM63.9842 99.1961C63.6563 99.1961 63.3876 98.9274 63.3876 98.5995C63.3876 98.2714 63.6563 98.003 63.9842 98.003C64.3123 98.003 64.5807 98.2714 64.5807 98.5995C64.5807 98.9274 64.3125 99.1961 63.9842 99.1961ZM60.0074 99.1961H29.2474C29.0903 99.1961 28.9372 99.1325 28.8259 99.0211C28.7145 98.9115 28.6509 98.7566 28.6509 98.5995V59.7623C28.6509 59.4342 28.9193 59.1658 29.2474 59.1658C29.5755 59.1658 29.844 59.4342 29.844 59.7623V98.003H60.0074C60.3375 98.003 60.604 98.2714 60.604 98.5995C60.604 98.9274 60.3375 99.1961 60.0074 99.1961ZM98.441 78.5215C98.1109 78.5215 97.8444 78.2551 97.8444 77.925C97.8444 77.5971 98.1109 77.3284 98.441 77.3284C98.7691 77.3284 99.0375 77.5971 99.0375 77.925C99.0375 78.2553 98.7691 78.5215 98.441 78.5215ZM98.441 74.5446C98.1109 74.5446 97.8444 74.2781 97.8444 73.948V36.9543L80.083 19.1931H73.5866C73.2565 19.1931 72.9901 18.9266 72.9901 18.5965C72.9901 18.2684 73.2565 18 73.5866 18H80.3316C80.4887 18 80.642 18.0636 80.7531 18.175L98.8623 36.2862C98.9737 36.3975 99.0373 36.5487 99.0373 36.7077V73.9482C99.0375 74.2783 98.7691 74.5446 98.441 74.5446ZM29.2474 56.3819C28.9193 56.3819 28.6509 56.1154 28.6509 55.7853C28.6509 55.4572 28.9193 55.1888 29.2474 55.1888C29.5755 55.1888 29.844 55.4572 29.844 55.7853C29.844 56.1154 29.5755 56.3819 29.2474 56.3819ZM29.2474 52.4049C28.9193 52.4049 28.6509 52.1384 28.6509 51.8083V18.5965C28.6509 18.4395 28.7145 18.2863 28.8259 18.175C28.9372 18.0636 29.0903 18 29.2474 18H65.6329C65.9609 18 66.2294 18.2684 66.2294 18.5965C66.2294 18.9266 65.9609 19.1931 65.6329 19.1931H29.844V51.8083C29.844 52.1384 29.5755 52.4049 29.2474 52.4049ZM69.6098 19.1931C69.2797 19.1931 69.0133 18.9266 69.0133 18.5965C69.0133 18.2684 69.2797 18 69.6098 18C69.9379 18 70.2064 18.2684 70.2064 18.5965C70.2064 18.9266 69.9379 19.1931 69.6098 19.1931Z" fill="white"/>
<path d="M98.4401 37.3043H80.3309C80.1738 37.3043 80.0189 37.2407 79.9074 37.1293C79.798 37.0179 79.7344 36.8648 79.7344 36.7077V18.5966C79.7344 18.3559 79.8777 18.1392 80.1024 18.0457C80.3212 17.9543 80.5837 18.008 80.7527 18.175L98.8619 36.2842C99.0329 36.4572 99.0846 36.7117 98.9911 36.9344C98.8975 37.1591 98.6825 37.3043 98.4401 37.3043ZM80.9255 36.1112H97.0004L80.9255 20.0382V36.1112Z" fill="white"/>
<path d="M69.7063 31.1835H40.1136C39.7835 31.1835 39.517 30.9151 39.517 30.587C39.517 30.2569 39.7835 29.9904 40.1136 29.9904H69.1078V24.6931H36.7868V26.5543C36.7868 26.8844 36.5184 27.1509 36.1903 27.1509C35.8622 27.1509 35.5938 26.8844 35.5938 26.5543V24.0965C35.5938 23.9395 35.6574 23.7863 35.7687 23.675C35.8801 23.5636 36.0332 23.5 36.1903 23.5H69.7063C69.8614 23.5 70.0165 23.5636 70.1279 23.675C70.2393 23.7863 70.3009 23.9395 70.3009 24.0965V30.587C70.3009 30.7461 70.2391 30.8952 70.1279 31.0085C70.0146 31.1199 69.8654 31.1835 69.7063 31.1835ZM36.1903 31.1279C35.8622 31.1279 35.5938 30.8614 35.5938 30.5313C35.5938 30.2032 35.8622 29.9348 36.1903 29.9348C36.5184 29.9348 36.7868 30.2032 36.7868 30.5313C36.7868 30.8614 36.5184 31.1279 36.1903 31.1279Z" fill="#FF4D40"/>
<path d="M103.627 72.079C103.299 72.079 103.031 71.8104 103.031 71.4825V22.6531H83.7919C83.4618 22.6531 83.1934 22.3866 83.1934 22.0565C83.1934 21.7284 83.4618 21.46 83.7919 21.46H103.627C103.784 21.46 103.937 21.5236 104.049 21.6349C104.16 21.7463 104.224 21.8994 104.224 22.0565V71.4785C104.224 71.4807 104.224 71.4807 104.224 71.4827C104.224 71.8104 103.955 72.079 103.627 72.079Z" fill="white"/>
<path d="M66.7674 102.515H25.8544C25.6973 102.515 25.5442 102.452 25.4328 102.34C25.3214 102.229 25.2578 102.076 25.2578 101.919V85.2411C25.2578 84.9112 25.5263 84.6445 25.8544 84.6445C26.1844 84.6445 26.4509 84.9112 26.4509 85.2411V101.322H66.7676C67.0977 101.322 67.3641 101.591 67.3641 101.919C67.3639 102.247 67.0977 102.515 66.7674 102.515Z" fill="white"/>
<path d="M101.826 102.515H96.264C95.9341 102.515 95.6675 102.247 95.6675 101.919C95.6675 101.591 95.9341 101.322 96.264 101.322H101.229V85.2411C101.229 84.9112 101.496 84.6445 101.826 84.6445C102.154 84.6445 102.423 84.9112 102.423 85.2411V101.919C102.423 102.078 102.361 102.227 102.248 102.34C102.134 102.453 101.985 102.515 101.826 102.515Z" fill="white"/>
<path d="M89.627 102.564C89.496 102.564 89.3665 102.519 89.2611 102.437L85.7196 99.6851L81.6035 102.461C81.4245 102.582 81.1819 102.596 80.989 102.493C80.7941 102.389 80.6729 102.189 80.6729 101.968V93.111C80.6729 92.8904 80.8001 92.6836 80.997 92.582C81.1917 92.4806 81.4384 92.4985 81.6174 92.626C82.7369 93.4253 84.0632 93.8487 85.4492 93.8487C86.8332 93.8487 88.1575 93.4271 89.283 92.6317C89.46 92.5045 89.7066 92.4868 89.9012 92.588C90.1001 92.6916 90.2234 92.8942 90.2234 93.1189V101.968C90.2234 102.196 90.0961 102.401 89.8893 102.503C89.8082 102.543 89.7185 102.564 89.627 102.564ZM81.8661 94.1728V100.844L85.4094 98.454C85.6184 98.3148 85.9107 98.325 86.1096 98.4779L89.0305 100.747V94.1768C87.931 94.7435 86.694 95.0418 85.4512 95.0418H85.4472C84.2026 95.0418 82.9656 94.7417 81.8661 94.1728Z" fill="#FF4D40"/>
</svg>
