<svg width="121" height="121" viewBox="0 0 121 121" fill="none" xmlns="http://www.w3.org/2000/svg">
<path d="M93.2734 48.5755C92.9261 48.5755 92.6457 48.291 92.6457 47.9433C92.6457 43.6632 90.9907 39.6402 87.984 36.6119C84.9773 33.5857 80.983 31.9187 76.7356 31.9187C76.3883 31.9187 76.1079 31.6342 76.1079 31.2865C76.1079 30.9367 76.3883 30.6543 76.7356 30.6543C79.0516 30.6543 81.299 31.1116 83.4164 32.0136C85.4606 32.8839 87.2956 34.1315 88.8711 35.7183C90.4487 37.3052 91.6874 39.1555 92.5515 41.2144C93.4471 43.345 93.9011 45.6104 93.9011 47.9433C93.9011 48.291 93.6186 48.5755 93.2734 48.5755ZM89.0594 48.5755C88.7144 48.5755 88.4317 48.291 88.4317 47.9433C88.4317 44.797 87.2161 41.8382 85.0066 39.6128C82.7971 37.3874 79.8595 36.1609 76.7358 36.1609C76.3885 36.1609 76.1081 35.8785 76.1081 35.5287C76.1081 35.181 76.3885 34.8965 76.7358 34.8965C78.4848 34.8965 80.1798 35.2421 81.7783 35.9228C83.3204 36.5782 84.7055 37.5202 85.8939 38.7171C87.0845 39.9163 88.0177 41.3113 88.6707 42.8645C89.3463 44.4724 89.6873 46.1815 89.6873 47.9433C89.6871 48.291 89.4068 48.5755 89.0594 48.5755Z" fill="#FF4D40"/>
<path d="M76.6808 41.5207C76.5179 41.5207 76.3628 41.4574 76.2436 41.3436L68.9811 34.2881C68.8597 34.168 68.7886 34.0036 68.7886 33.8329C68.7886 33.6622 68.8597 33.4957 68.9811 33.3777L76.2436 26.3222C76.4235 26.1473 76.6976 26.0967 76.9259 26.1937C77.1579 26.2948 77.3085 26.5224 77.3085 26.7774V40.8884C77.3085 41.1434 77.1579 41.371 76.9259 41.4701C76.8484 41.5038 76.7648 41.5207 76.6808 41.5207ZM70.3204 33.8329L76.0531 39.4006V28.2652L70.3204 33.8329Z" fill="#FF4D40"/>
<path d="M77.4678 59.3338C75.1535 59.3338 72.9063 58.8765 70.7912 57.9746C68.7491 57.1042 66.9141 55.8587 65.3365 54.2719C63.7609 52.685 62.5223 50.8368 61.6582 48.78C60.7628 46.6474 60.3086 44.384 60.3086 42.0512C60.3086 41.7034 60.5913 41.4189 60.9363 41.4189C61.2836 41.4189 61.564 41.7034 61.564 42.0512C61.564 46.3292 63.219 50.3521 66.2238 53.3784C69.2305 56.4024 73.2227 58.0694 77.468 58.0694C77.8131 58.0694 78.0957 58.3518 78.0957 58.7016C78.0955 59.0493 77.813 59.3338 77.4678 59.3338ZM77.4678 55.0895C75.7205 55.0895 74.0259 54.746 72.4295 54.0654C70.8874 53.4079 69.5044 52.468 68.3139 51.271C67.1252 50.0719 66.192 48.6789 65.5392 47.1257C64.8655 45.5178 64.5226 43.8108 64.5226 42.0512C64.5226 41.7034 64.8029 41.4189 65.1503 41.4189C65.4953 41.4189 65.778 41.7034 65.778 42.0512C65.778 45.1954 66.9936 48.152 69.2031 50.3753C71.4105 52.6007 74.3461 53.8251 77.4678 53.8251C77.8128 53.8251 78.0955 54.1096 78.0955 54.4573C78.0955 54.8072 77.813 55.0895 77.4678 55.0895Z" fill="#FF4D40"/>
<path d="M77.5222 63.8501C77.4385 63.8501 77.3548 63.8333 77.2774 63.7996C77.0452 63.7005 76.8945 63.4729 76.8945 63.2179V49.1069C76.8945 48.8519 77.0452 48.6243 77.2774 48.5252C77.5055 48.4262 77.7794 48.4789 77.9574 48.6517L85.2283 55.7072C85.3517 55.8252 85.4208 55.9917 85.4208 56.1624C85.4208 56.3331 85.3517 56.4996 85.2283 56.6176L77.9574 63.6731C77.8401 63.7869 77.6854 63.8501 77.5222 63.8501ZM78.1499 50.5947V61.7301L83.8892 56.1624L78.1499 50.5947Z" fill="#FF4D40"/>
<path d="M45.2145 54.3437H33.2568C31.1143 54.3415 29.3693 52.584 29.3672 50.4281V38.3823C29.3693 36.2244 31.1143 34.4689 33.2568 34.4668H43.4067C43.5971 34.4668 43.7771 34.5511 43.8963 34.7007C44.0156 34.8524 44.0616 35.0463 44.0198 35.2339C43.957 35.5247 43.9256 35.7966 43.9256 36.0621C43.9298 38.0536 45.5409 39.6763 47.5182 39.6805C47.7776 39.6805 48.0475 39.6489 48.3425 39.5856C48.5267 39.5456 48.7233 39.592 48.8698 39.7121C49.0184 39.8322 49.1021 40.0113 49.1021 40.2031V50.4281C49.1 52.584 47.3571 54.3415 45.2145 54.3437ZM33.2568 35.7291C31.8068 35.7333 30.6247 36.9219 30.6226 38.3823V50.4281C30.6247 51.8864 31.8068 53.0771 33.2568 53.0792H45.2145C46.6645 53.0771 47.8446 51.8864 47.8467 50.4281V40.9323C47.7379 40.9407 47.627 40.9449 47.5182 40.9449C46.223 40.9449 45.0053 40.437 44.0909 39.5161C43.1745 38.5931 42.6702 37.3666 42.6702 36.0621C42.6702 35.9525 42.6744 35.8408 42.6828 35.7291H33.2568Z" fill="white"/>
<path d="M47.5183 40.9447C46.2232 40.9447 45.0055 40.4368 44.0911 39.5159C43.1747 38.5928 42.6704 37.3663 42.6704 36.0619C42.6704 34.7595 43.1747 33.533 44.0911 32.61C45.0055 31.689 46.2232 31.1812 47.5183 31.1812C50.1903 31.1812 52.3642 33.3707 52.3663 36.0619C52.3642 37.3663 51.8599 38.5928 50.9456 39.5159C50.0291 40.4368 48.8135 40.9447 47.5183 40.9447ZM47.5183 32.4456C45.5411 32.4477 43.93 34.0725 43.9258 36.0619C43.93 38.0533 45.5411 39.676 47.5183 39.6802C49.4956 39.676 51.1067 38.0533 51.1109 36.0619C51.1067 34.0725 49.4956 32.4477 47.5183 32.4456Z" fill="#FF4D40"/>
<path d="M96.985 85.12C96.6378 85.12 96.3573 84.8376 96.3573 84.4878C96.3573 84.1401 96.6378 83.8556 96.985 83.8556C97.3302 83.8556 97.6127 84.1401 97.6127 84.4878C97.6127 84.8376 97.3304 85.12 96.985 85.12ZM92.8003 85.12H20.2845C20.0167 85.12 19.7468 85.101 19.481 85.0629C19.3157 85.0376 19.1693 84.9491 19.0688 84.8142C18.9684 84.6794 18.9266 84.5129 18.9496 84.3464C18.9977 84.0071 19.322 83.7624 19.661 83.8111C19.8681 83.8406 20.0773 83.8554 20.2845 83.8554H92.8005C93.1457 83.8554 93.4282 84.1399 93.4282 84.4876C93.428 84.8376 93.1457 85.12 92.8003 85.12ZM101.168 85.101C100.846 85.101 100.571 84.8482 100.544 84.5236C100.53 84.355 100.58 84.1907 100.689 84.0621C100.795 83.9338 100.946 83.8535 101.113 83.8387C103.358 83.6406 105.116 81.7082 105.114 79.4385V21.0956C105.109 18.6636 103.141 16.6827 100.726 16.6785H37.2805C36.9353 16.6785 36.6528 16.394 36.6528 16.0463C36.6528 15.6965 36.9353 15.4141 37.2805 15.4141H100.726C103.835 15.4162 106.367 17.9661 106.369 21.0956V79.4385C106.367 80.8652 105.836 82.2285 104.873 83.2822C103.917 84.3274 102.622 84.9725 101.224 85.0987C101.205 85.0987 101.186 85.101 101.168 85.101ZM16.1312 82.8904C15.9241 82.8904 15.7295 82.7871 15.6123 82.6141C15.6123 82.6141 15.6123 82.6141 15.6102 82.612C15.4177 82.3233 15.493 81.9292 15.7797 81.7354C15.8822 81.6637 16.0057 81.6258 16.1312 81.6258C16.3383 81.6258 16.5329 81.729 16.648 81.9018C16.6501 81.9018 16.6501 81.9018 16.6501 81.9018C16.8447 82.1905 16.7694 82.5846 16.4827 82.7806C16.3781 82.8523 16.2567 82.8904 16.1312 82.8904ZM15.2713 78.8505C14.9239 78.8505 14.6436 78.5658 14.6436 78.2183V21.0956C14.6456 17.9661 17.1753 15.4162 20.2845 15.4141H28.9195C29.2669 15.4141 29.5472 15.6965 29.5472 16.0463C29.5472 16.394 29.2669 16.6785 28.9195 16.6785H20.2845C17.8699 16.6827 15.9031 18.6636 15.899 21.0956V78.2183C15.899 78.5658 15.6165 78.8505 15.2713 78.8505ZM33.1 16.6785C32.7548 16.6785 32.4723 16.394 32.4723 16.0463C32.4723 15.6965 32.7548 15.4141 33.1 15.4141C33.4473 15.4141 33.7277 15.6965 33.7277 16.0463C33.7277 16.394 33.4473 16.6785 33.1 16.6785Z" fill="white"/>
<path d="M74.6494 69.4413C74.3023 69.4413 74.0217 69.1589 74.0217 68.8091C74.0217 68.4616 74.3023 68.1769 74.6494 68.1769H99.9689V21.8186H90.0197C89.6747 21.8186 89.392 21.5341 89.392 21.1864C89.392 20.8366 89.6747 20.5542 90.0197 20.5542H100.597C100.762 20.5542 100.923 20.6216 101.04 20.7375C101.157 20.8556 101.224 21.0199 101.224 21.1864V68.8091C101.224 68.9777 101.159 69.1381 101.04 69.2559C100.923 69.376 100.764 69.4413 100.597 69.4413H74.6494ZM70.4647 69.4413C70.1176 69.4413 69.837 69.1589 69.837 68.8091C69.837 68.4616 70.1176 68.1769 70.4647 68.1769C70.81 68.1769 71.0924 68.4616 71.0924 68.8091C71.0924 69.1589 70.8102 69.4413 70.4647 69.4413ZM66.2801 69.4413H20.2239C20.0586 69.4413 19.8975 69.3739 19.7803 69.2559C19.6631 69.1378 19.5962 68.9756 19.5962 68.8091V41.4384C19.5962 41.0907 19.8787 40.8062 20.2239 40.8062C20.5712 40.8062 20.8516 41.0907 20.8516 41.4384V68.1769H66.2803C66.6255 68.1769 66.908 68.4616 66.908 68.8091C66.908 69.1381 66.6527 69.416 66.3284 69.4392C66.3117 69.4413 66.2968 69.4413 66.2801 69.4413ZM20.2239 37.8558C19.8787 37.8558 19.5962 37.5713 19.5962 37.2236C19.5962 36.8759 19.8787 36.5914 20.2239 36.5914C20.5712 36.5914 20.8516 36.8759 20.8516 37.2236C20.8516 37.5713 20.5712 37.8558 20.2239 37.8558ZM20.2239 33.6411C19.8787 33.6411 19.5962 33.3566 19.5962 33.0088V21.1864C19.5962 21.0199 19.6631 20.8556 19.7803 20.7375C19.8975 20.6216 20.0586 20.5542 20.2239 20.5542H81.6589C82.0063 20.5542 82.2866 20.8366 82.2866 21.1864C82.2866 21.5341 82.0063 21.8186 81.6589 21.8186H20.8516V33.0088C20.8516 33.3566 20.5712 33.6411 20.2239 33.6411ZM85.8394 21.8186C85.4942 21.8186 85.2117 21.5341 85.2117 21.1864C85.2117 20.8366 85.4942 20.5542 85.8394 20.5542C86.1867 20.5542 86.4671 20.8366 86.4671 21.1864C86.4671 21.5341 86.1867 21.8186 85.8394 21.8186Z" fill="white"/>
<path d="M75.0975 101.573H45.9073C45.7127 101.573 45.5307 101.482 45.4094 101.326C45.2901 101.17 45.2503 100.97 45.3006 100.778L46.9702 94.3927C47.056 94.0618 47.4075 93.853 47.7381 93.9415C47.8992 93.9836 48.0352 94.089 48.1189 94.2346C48.2047 94.3798 48.2277 94.5507 48.1838 94.713L46.7212 100.308H74.2833L70.3186 85.1204H50.6925L50.3159 86.5597V86.5618C50.2322 86.8822 49.9058 87.0866 49.5815 87.0213C49.5773 87.0191 49.5731 87.0191 49.5689 87.017L49.548 87.0126C49.2718 86.9389 49.0793 86.686 49.0814 86.3973C49.0814 86.3446 49.0877 86.2919 49.1002 86.2392L49.6024 84.3278C49.6735 84.0498 49.9246 83.856 50.2092 83.856H70.804C71.0885 83.856 71.3375 84.0498 71.4108 84.3278L75.7042 100.78C75.7544 100.97 75.7149 101.17 75.5954 101.326C75.4741 101.482 75.2939 101.573 75.0975 101.573ZM48.642 91.1096C48.5897 91.1096 48.5353 91.1033 48.483 91.0883C48.1482 90.9998 47.9473 90.6542 48.0352 90.3149C48.1085 90.0388 48.3574 89.8451 48.642 89.8451C48.6964 89.8451 48.7508 89.8515 48.8031 89.8662C48.9642 89.9084 49.1002 90.0137 49.186 90.1594C49.2697 90.3046 49.2927 90.4755 49.2488 90.6377C49.1776 90.9157 48.9287 91.1096 48.642 91.1096Z" fill="white"/>
<path d="M73.7515 105.576C73.4044 105.576 73.1238 105.292 73.1238 104.944C73.1238 104.594 73.4044 104.312 73.7515 104.312H87.3791V101.572H33.6312V104.312H65.3824C65.7276 104.312 66.0101 104.594 66.0101 104.944C66.0101 105.29 65.7402 105.566 65.3991 105.574C65.393 105.576 65.3866 105.576 65.3824 105.576H33.0035C32.8382 105.576 32.6771 105.509 32.56 105.391C32.4449 105.273 32.3779 105.11 32.3779 104.944V100.94C32.3779 100.773 32.4449 100.611 32.56 100.493C32.6771 100.375 32.8382 100.308 33.0035 100.308H88.0068C88.1721 100.308 88.3332 100.375 88.4501 100.493C88.5675 100.611 88.6345 100.773 88.6345 100.94V104.944C88.6345 105.113 88.5694 105.271 88.4501 105.391C88.3311 105.509 88.1741 105.576 88.0068 105.576H73.7515ZM69.5668 105.576C69.2197 105.576 68.9391 105.292 68.9391 104.944C68.9391 104.594 69.2197 104.312 69.5668 104.312C69.9121 104.312 70.1945 104.594 70.1945 104.944C70.1945 105.292 69.9123 105.576 69.5668 105.576Z" fill="white"/>
<path d="M60.5015 81.7611C59.1164 81.759 57.9884 80.621 57.9863 79.2259C57.9863 77.8287 59.1162 76.6909 60.5015 76.6909C61.8927 76.693 63.0268 77.831 63.0268 79.2259C63.0249 80.6208 61.8929 81.759 60.5015 81.7611ZM60.5015 77.9551C59.8087 77.9572 59.2417 78.5262 59.2417 79.2257C59.2417 79.9253 59.8087 80.4945 60.5015 80.4945C61.2004 80.4945 61.7695 79.9255 61.7714 79.2257C61.7695 78.5262 61.2004 77.9551 60.5015 77.9551Z" fill="#FF4D40"/>
</svg>
