<svg width="121" height="121" viewBox="0 0 121 121" fill="none" xmlns="http://www.w3.org/2000/svg">
<path d="M87.3285 91.4262H39.1352C35.8789 91.4262 33.1586 88.6986 32.8079 85.0818C32.7913 84.9117 32.8474 84.743 32.9622 84.6165C33.0767 84.4903 33.2394 84.4183 33.4101 84.4183H38.7806C39.1148 84.4183 39.3856 84.6891 39.3856 85.0233C39.3856 85.3574 39.1148 85.6283 38.7806 85.6283H34.1096C34.6366 88.286 36.7031 90.2162 39.1352 90.2162H87.3285C90.1685 90.2162 92.4792 87.5683 92.4792 84.3134V55.6126C92.4792 55.2784 92.7501 55.0076 93.0842 55.0076C93.4184 55.0076 93.6892 55.2784 93.6892 55.6126V84.3136C93.6892 88.2354 90.8359 91.4262 87.3285 91.4262ZM40.0818 79.9879C39.7476 79.9879 39.4768 79.717 39.4768 79.3829V57.4195H33.3859C33.0519 57.4195 32.7813 57.1491 32.7809 56.8151L32.7686 45.2433C32.7684 45.0828 32.8321 44.9287 32.9454 44.8152C33.059 44.7016 33.2128 44.6377 33.3736 44.6377H93.0842C93.4184 44.6377 93.6892 44.9085 93.6892 45.2427V45.5293C93.6892 45.8634 93.4184 46.1343 93.0842 46.1343C92.867 46.1343 92.6765 46.0197 92.5698 45.8477H33.9794L33.9903 56.2095H40.0818C40.416 56.2095 40.6868 56.4804 40.6868 56.8145V79.3829C40.6868 79.717 40.416 79.9879 40.0818 79.9879Z" fill="white"/>
<path d="M82.173 45.8475H44.2905C43.9564 45.8475 43.6855 45.5767 43.6855 45.2425V35.4775C43.6855 30.7327 45.4235 26.1498 48.5796 22.5729C48.8004 22.3222 49.183 22.2984 49.4335 22.5194C49.6839 22.7405 49.7079 23.1228 49.4869 23.3733C46.5262 26.729 44.8955 31.0277 44.8955 35.4775V44.6375H81.568V35.4775C81.568 25.3672 73.3422 17.1416 63.2315 17.1416C63.2313 17.1416 63.2309 17.1416 63.2305 17.1416C61.2858 17.1416 59.3688 17.4484 57.5324 18.0534C57.2152 18.1584 56.8731 17.9856 56.7685 17.668C56.664 17.3508 56.8364 17.0085 57.1539 16.9041C59.1124 16.2587 61.1571 15.9316 63.2305 15.9316C63.2309 15.9316 63.2311 15.9316 63.2315 15.9316C74.0094 15.9316 82.778 24.6999 82.778 35.4775V45.2425C82.778 45.5765 82.5072 45.8475 82.173 45.8475Z" fill="white"/>
<path d="M76.472 40.5829H49.9917C49.6576 40.5829 49.3867 40.3121 49.3867 39.9779V35.047C49.3867 27.4129 55.5974 21.2021 63.2315 21.2021C70.8658 21.2021 77.0768 27.4129 77.0768 35.047V39.9779C77.077 40.3121 76.8061 40.5829 76.472 40.5829ZM50.5967 39.3729H75.867V35.047C75.867 28.0802 70.1989 22.4121 63.2317 22.4121C56.265 22.4121 50.5969 28.0802 50.5969 35.047V39.3729H50.5967Z" fill="white"/>
<path d="M73.3181 52.4336H33.3736C33.0394 52.4336 32.7686 52.1628 32.7686 51.8286C32.7686 51.4945 33.0394 51.2236 33.3736 51.2236H73.3181C73.6522 51.2236 73.9231 51.4945 73.9231 51.8286C73.9231 52.1628 73.6524 52.4336 73.3181 52.4336Z" fill="white"/>
<path d="M40.0817 63.0661H30.25C29.9159 63.0661 29.645 62.7953 29.645 62.4611V56.8145C29.645 56.4803 29.9159 56.2095 30.25 56.2095H40.0817C40.4158 56.2095 40.6867 56.4803 40.6867 56.8145V62.4611C40.6867 62.7951 40.4158 63.0661 40.0817 63.0661ZM30.855 61.8561H39.4767V57.4195H30.855V61.8561Z" fill="#FF4D40"/>
<path d="M40.0817 68.7068H30.25C29.9159 68.7068 29.645 68.4359 29.645 68.1018V62.461C29.645 62.1268 29.9159 61.856 30.25 61.856H40.0817C40.4158 61.856 40.6867 62.1268 40.6867 62.461V68.1018C40.6867 68.4359 40.4158 68.7068 40.0817 68.7068ZM30.855 67.4968H39.4767V63.066H30.855V67.4968Z" fill="#FF4D40"/>
<path d="M40.0817 74.347H30.25C29.9159 74.347 29.645 74.0762 29.645 73.742V68.1016C29.645 67.7674 29.9159 67.4966 30.25 67.4966H40.0817C40.4158 67.4966 40.6867 67.7674 40.6867 68.1016V73.742C40.6867 74.0762 40.4158 74.347 40.0817 74.347ZM30.855 73.137H39.4767V68.7066H30.855V73.137Z" fill="#FF4D40"/>
<path d="M40.0817 79.9878H30.25C29.9159 79.9878 29.645 79.717 29.645 79.3828V73.7422C29.645 73.408 29.9159 73.1372 30.25 73.1372H40.0817C40.4158 73.1372 40.6867 73.408 40.6867 73.7422V79.3828C40.6867 79.717 40.4158 79.9878 40.0817 79.9878ZM30.855 78.7778H39.4767V74.3472H30.855V78.7778Z" fill="#FF4D40"/>
<path d="M40.0817 85.628H30.25C29.9159 85.628 29.645 85.3571 29.645 85.023V79.3823C29.645 79.0482 29.9159 78.7773 30.25 78.7773H40.0817C40.4158 78.7773 40.6867 79.0482 40.6867 79.3823V85.023C40.6867 85.3573 40.4158 85.628 40.0817 85.628ZM30.855 84.418H39.4767V79.9873H30.855V84.418Z" fill="#FF4D40"/>
<path d="M65.4333 78.1072H61.0301C60.696 78.1072 60.4251 77.8363 60.4251 77.5022V70.6013C58.9723 69.6543 58.084 68.0329 58.084 66.2877C58.084 63.4492 60.3933 61.1401 63.2315 61.1401C66.0702 61.1401 68.3795 63.4492 68.3795 66.2877C68.3795 68.0327 67.4911 69.6541 66.0383 70.6013V77.5022C66.0383 77.8365 65.7675 78.1072 65.4333 78.1072ZM61.6351 76.8972H64.8283V70.2603C64.8283 70.0407 64.9473 69.8384 65.1393 69.7316C66.3916 69.035 67.1695 67.7153 67.1695 66.2879C67.1695 64.1165 65.4029 62.3503 63.2315 62.3503C61.0604 62.3503 59.294 64.1167 59.294 66.2879C59.294 67.7153 60.072 69.035 61.3244 69.7316C61.5164 69.8384 61.6353 70.0407 61.6353 70.2603V76.8972H61.6351Z" fill="#FF4D40"/>
<path d="M88.3348 45.8476H37.8008C37.4666 45.8476 37.1958 45.5767 37.1958 45.2426V44.5619C37.1958 44.2278 37.4666 43.9569 37.8008 43.9569C38.135 43.9569 38.4058 44.2278 38.4058 44.5619V44.6376H87.7298V40.583H43.3002C42.9661 40.583 42.6952 40.3122 42.6952 39.978C42.6952 39.6439 42.9661 39.373 43.3002 39.373H88.335C88.6692 39.373 88.94 39.6439 88.94 39.978V45.2426C88.9398 45.5765 88.6692 45.8476 88.3348 45.8476Z" fill="white"/>
<path d="M45.5825 106.722C45.2484 106.722 44.9775 106.451 44.9775 106.117V96.0067C44.9775 95.8464 45.0411 95.6925 45.1544 95.5791L50.3342 90.3931C50.5704 90.1567 50.9535 90.1567 51.1897 90.3931C51.426 90.6292 51.426 91.0124 51.1897 91.2486L46.1873 96.2569V106.117C46.1875 106.451 45.9167 106.722 45.5825 106.722Z" fill="white"/>
<path d="M50.4531 99.82C50.119 99.82 49.8481 99.5492 49.8481 99.215V97.2865C49.8481 97.1259 49.9119 96.9721 50.0252 96.8587L56.4904 90.3931C56.7268 90.1567 57.11 90.1567 57.3461 90.3931C57.5825 90.6292 57.5825 91.0122 57.3461 91.2486L51.0581 97.5369V99.215C51.0581 99.5494 50.7871 99.82 50.4531 99.82Z" fill="white"/>
<path d="M56.0021 103.811C55.6679 103.811 55.3971 103.54 55.3971 103.206V99.0294L52.0567 95.689C51.8203 95.4528 51.8203 95.0697 52.0567 94.8335C52.2928 94.5972 52.676 94.5972 52.9121 94.8335L56.4298 98.3512C56.5433 98.4647 56.6071 98.6184 56.6071 98.7789V103.206C56.6071 103.54 56.3362 103.811 56.0021 103.811Z" fill="white"/>
<path d="M63.1714 106.043C62.8372 106.043 62.5664 105.772 62.5664 105.438V90.8213C62.5664 90.4871 62.8372 90.2163 63.1714 90.2163C63.5056 90.2163 63.7764 90.4871 63.7764 90.8213V105.438C63.7764 105.772 63.5056 106.043 63.1714 106.043Z" fill="white"/>
<path d="M59.6533 102.901C59.3192 102.901 59.0483 102.631 59.0483 102.296V95.1941C59.0483 95.0338 59.1119 94.8801 59.2252 94.7668L62.8096 91.1763C63.0454 90.9397 63.4287 90.9391 63.6651 91.1755C63.9016 91.4116 63.902 91.7946 63.6659 92.0309L60.2583 95.4444V102.296C60.2583 102.631 59.9873 102.901 59.6533 102.901Z" fill="white"/>
<path d="M45.5825 109.907C44.3693 109.907 43.3823 108.919 43.3823 107.706C43.3823 106.497 44.3693 105.512 45.5825 105.512C46.7923 105.512 47.7764 106.497 47.7764 107.706C47.7764 108.92 46.7923 109.907 45.5825 109.907ZM45.5825 106.722C45.0364 106.722 44.5923 107.164 44.5923 107.706C44.5923 108.252 45.0366 108.697 45.5825 108.697C46.125 108.697 46.5664 108.252 46.5664 107.706C46.5664 107.164 46.1252 106.722 45.5825 106.722Z" fill="#FF4D40"/>
<path d="M50.4531 103.004C49.2431 103.004 48.2588 102.02 48.2588 100.811C48.2588 99.5973 49.2431 98.6104 50.4531 98.6104C51.6629 98.6104 52.6471 99.5975 52.6471 100.811C52.6469 102.02 51.6627 103.004 50.4531 103.004ZM50.4531 99.8201C49.9104 99.8201 49.4688 100.264 49.4688 100.81C49.4688 101.353 49.9102 101.794 50.4531 101.794C50.9956 101.794 51.4371 101.353 51.4371 100.81C51.4369 100.265 50.9956 99.8201 50.4531 99.8201Z" fill="#FF4D40"/>
<path d="M63.1715 109.228C61.9617 109.228 60.9775 108.243 60.9775 107.033C60.9775 105.82 61.9617 104.833 63.1715 104.833C64.3847 104.833 65.3717 105.82 65.3717 107.033C65.3717 108.243 64.3847 109.228 63.1715 109.228ZM63.1715 106.043C62.629 106.043 62.1875 106.488 62.1875 107.033C62.1875 107.576 62.6288 108.018 63.1715 108.018C63.7174 108.018 64.1617 107.576 64.1617 107.033C64.1617 106.488 63.7174 106.043 63.1715 106.043Z" fill="#FF4D40"/>
<path d="M80.8808 106.722C80.5466 106.722 80.2758 106.451 80.2758 106.117V96.2571L75.2653 91.2404C75.0336 90.9999 75.0409 90.6167 75.2815 90.385C75.5221 90.1533 75.9052 90.1605 76.1369 90.4011L76.3007 90.5711L81.3085 95.5789C81.422 95.6924 81.4858 95.8461 81.4858 96.0066V106.117C81.4858 106.451 81.2151 106.722 80.8808 106.722Z" fill="white"/>
<path d="M76.0108 99.82C75.6766 99.82 75.4058 99.5492 75.4058 99.215V97.5371L69.112 91.2488C68.8756 91.0126 68.8754 90.6296 69.1116 90.3933C69.3477 90.1567 69.7305 90.1567 69.967 90.3929L76.4383 96.8585C76.5518 96.9721 76.6158 97.1259 76.6158 97.2865V99.215C76.6158 99.5494 76.3449 99.82 76.0108 99.82Z" fill="white"/>
<path d="M70.461 103.811C70.1268 103.811 69.856 103.54 69.856 103.206V98.7789C69.856 98.6184 69.9197 98.4645 70.0332 98.3512L73.5509 94.8335C73.7872 94.5972 74.17 94.5972 74.4064 94.8335C74.6427 95.0697 74.6427 95.4528 74.4064 95.689L71.066 99.0294V103.206C71.066 103.54 70.7953 103.811 70.461 103.811Z" fill="white"/>
<path d="M80.8811 109.907C79.6713 109.907 78.687 108.919 78.687 107.706C78.687 106.497 79.6713 105.512 80.8811 105.512C82.0909 105.512 83.0753 106.497 83.0753 107.706C83.0753 108.92 82.0909 109.907 80.8811 109.907ZM80.8811 106.722C80.3387 106.722 79.897 107.164 79.897 107.706C79.897 108.252 80.3385 108.697 80.8811 108.697C81.4238 108.697 81.8653 108.252 81.8653 107.706C81.8653 107.164 81.4238 106.722 80.8811 106.722Z" fill="#FF4D40"/>
<path d="M76.0105 103.004C74.7973 103.004 73.8105 102.02 73.8105 100.811C73.8105 99.5973 74.7975 98.6104 76.0105 98.6104C77.2203 98.6104 78.2047 99.5975 78.2047 100.811C78.2047 102.02 77.2203 103.004 76.0105 103.004ZM76.0105 99.8201C75.4646 99.8201 75.0205 100.264 75.0205 100.81C75.0205 101.353 75.4646 101.794 76.0105 101.794C76.553 101.794 76.9947 101.353 76.9947 100.81C76.9947 100.265 76.553 99.8201 76.0105 99.8201Z" fill="#FF4D40"/>
<path d="M93.084 84.5909H49.0454C48.7113 84.5909 48.4404 84.32 48.4404 83.9859C48.4404 83.6517 48.7113 83.3809 49.0454 83.3809H93.084C93.4182 83.3809 93.689 83.6517 93.689 83.9859C93.689 84.32 93.4182 84.5909 93.084 84.5909Z" fill="white"/>
</svg>
