<svg width="121" height="121" viewBox="0 0 121 121" fill="none" xmlns="http://www.w3.org/2000/svg">
<path d="M45.6017 96.1105C45.2094 96.1105 44.8927 95.7914 44.8927 95.4015C44.8927 95.0092 45.2094 94.6925 45.6017 94.6925H81.6843C81.663 94.4089 81.651 94.123 81.651 93.8488C81.651 91.6415 82.2728 89.4933 83.4473 87.6358C84.5888 85.8281 86.2003 84.3721 88.1077 83.4173V52.1511C88.1077 51.7612 88.427 51.4421 88.8167 51.4421C89.209 51.4421 89.5257 51.7612 89.5257 52.1511V83.8663C89.5257 84.1452 89.3628 84.3981 89.1074 84.5113C85.4393 86.1679 83.069 89.831 83.069 93.8486C83.069 94.3165 83.1044 94.7915 83.1777 95.2999C83.206 95.5029 83.1446 95.7085 83.0099 95.8647C82.8775 96.0207 82.6814 96.1081 82.4758 96.1081L45.6017 96.1105ZM40.8752 96.1081C40.4829 96.1081 40.1662 95.7914 40.1662 95.4015C40.1662 95.0092 40.4829 94.6925 40.8752 94.6925C41.2651 94.6925 41.5841 95.0092 41.5841 95.4015C41.5841 95.7914 41.2651 96.1081 40.8752 96.1081ZM36.1486 96.1081H27.6455C27.4588 96.1081 27.2768 96.0325 27.1445 95.9025C27.0121 95.7702 26.9365 95.5882 26.9365 95.4015V21.1874C26.9365 21.1827 26.9365 21.1779 26.9365 21.1708C26.9365 21.1661 26.9365 21.1614 26.9365 21.1543C26.9365 20.7644 27.2556 20.4453 27.6455 20.4453H88.8167C89.0034 20.4453 89.1877 20.5209 89.3177 20.6533C89.45 20.7856 89.5257 20.9676 89.5257 21.1543V42.698C89.5257 43.0879 89.209 43.407 88.8167 43.407C88.427 43.407 88.1077 43.0879 88.1077 42.698V21.8633H28.3545V94.6925H36.1486C36.5385 94.6925 36.8576 95.0092 36.8576 95.4015C36.8576 95.7914 36.5385 96.1081 36.1486 96.1081ZM88.8167 48.1335C88.427 48.1335 88.1077 47.8145 88.1077 47.4245C88.1077 47.0346 88.427 46.7155 88.8167 46.7155C89.209 46.7155 89.5257 47.0346 89.5257 47.4245C89.5257 47.8145 89.209 48.1335 88.8167 48.1335Z" fill="white"/>
<path d="M72.5074 52.4514C72.1175 52.4514 71.7984 52.1348 71.7984 51.7425C71.7984 51.3525 72.1175 51.0335 72.5074 51.0335H81.5729V27.6157H34.8887V51.0335H63.0543C63.444 51.0335 63.7633 51.3525 63.7633 51.7425C63.7633 52.1348 63.444 52.4514 63.0543 52.4514H34.1797C33.993 52.4514 33.8086 52.3758 33.6787 52.2435C33.5463 52.1135 33.4707 51.9292 33.4707 51.7425V26.9067C33.4707 26.72 33.5463 26.5381 33.6787 26.4057C33.811 26.2734 33.993 26.1978 34.1797 26.1978H82.2819C82.4684 26.1978 82.6527 26.2734 82.7827 26.4057C82.9153 26.5381 82.9909 26.72 82.9909 26.9067V51.7425C82.9909 51.9315 82.9174 52.1111 82.7827 52.2435C82.6504 52.3782 82.471 52.4514 82.2819 52.4514H72.5074ZM67.7808 52.4514C67.3885 52.4514 67.0718 52.1348 67.0718 51.7425C67.0718 51.3525 67.3885 51.0335 67.7808 51.0335C68.1705 51.0335 68.4898 51.3525 68.4898 51.7425C68.4898 52.1348 68.1705 52.4514 67.7808 52.4514Z" fill="white"/>
<path d="M43.0067 65.2318H34.8652C34.6785 65.2318 34.4966 65.1564 34.3642 65.0239C34.2319 64.8915 34.1562 64.7095 34.1562 64.5228V56.3813C34.1562 56.1946 34.2319 56.0127 34.3642 55.8803C34.4966 55.748 34.6785 55.6724 34.8652 55.6724H43.0067C43.1934 55.6724 43.3754 55.748 43.5078 55.8803C43.6401 56.0127 43.7157 56.1946 43.7157 56.3813V64.5228C43.7157 64.7119 43.6401 64.8891 43.5078 65.0239C43.373 65.1586 43.1958 65.2318 43.0067 65.2318ZM35.5742 63.8139H42.2978V57.0903H35.5742V63.8139Z" fill="white"/>
<path d="M55.8695 65.2318H47.728C47.5413 65.2318 47.3594 65.1564 47.227 65.0239C47.0947 64.8915 47.019 64.7095 47.019 64.5228V56.3813C47.019 56.1946 47.0947 56.0127 47.227 55.8803C47.3594 55.748 47.5413 55.6724 47.728 55.6724H55.8695C56.0562 55.6724 56.2384 55.748 56.3705 55.8803C56.5031 56.0127 56.5785 56.1946 56.5785 56.3813V64.5228C56.5785 64.7119 56.5053 64.8891 56.3705 65.0239C56.2358 65.1586 56.0584 65.2318 55.8695 65.2318ZM48.437 63.8139H55.1605V57.0903H48.437V63.8139Z" fill="white"/>
<path d="M68.7333 65.2318H60.5918C60.4051 65.2318 60.2229 65.1564 60.0908 65.0239C59.9582 64.8915 59.8828 64.7095 59.8828 64.5228V56.3813C59.8828 56.1946 59.9582 56.0127 60.0908 55.8803C60.2231 55.748 60.4051 55.6724 60.5918 55.6724H68.7333C68.92 55.6724 69.102 55.748 69.2341 55.8803C69.3667 56.0127 69.4423 56.1946 69.4423 56.3813V64.5228C69.4423 64.7119 69.3688 64.8891 69.2341 65.0239C69.0996 65.1586 68.9224 65.2318 68.7333 65.2318ZM61.3008 63.8139H68.0217V57.0903H61.3008V63.8139Z" fill="white"/>
<path d="M81.5971 65.2318H73.4579C73.2712 65.2318 73.0871 65.1564 72.9546 65.0239C72.8222 64.8915 72.7466 64.7095 72.7466 64.5228V56.3813C72.7466 56.1946 72.8222 56.0127 72.9546 55.8803C73.0871 55.748 73.2712 55.6724 73.4579 55.6724H81.5971C81.7838 55.6724 81.9657 55.748 82.0981 55.8803C82.2304 56.0127 82.3061 56.1946 82.3061 56.3813V64.5228C82.3061 64.7119 82.2326 64.8891 82.0981 65.0239C81.9655 65.1586 81.7861 65.2318 81.5971 65.2318ZM74.1646 63.8139H80.8881V57.0903H74.1646V63.8139Z" fill="white"/>
<path d="M43.0067 76.8497H34.8652C34.6785 76.8497 34.4966 76.7741 34.3642 76.6418C34.2319 76.5094 34.1562 76.3275 34.1562 76.1408V68.0016C34.1562 67.8123 34.2319 67.6306 34.3642 67.498C34.4966 67.3657 34.6785 67.29 34.8652 67.29H43.0067C43.1934 67.29 43.3754 67.368 43.5078 67.5006C43.6401 67.6306 43.7157 67.8149 43.7157 68.0016V76.1405C43.7157 76.3296 43.6401 76.5094 43.5078 76.6415C43.373 76.7765 43.1958 76.8497 43.0067 76.8497ZM35.5742 75.4318H42.2978V68.7082H35.5742V75.4318Z" fill="white"/>
<path d="M55.8695 76.8497H47.728C47.5413 76.8497 47.3594 76.7741 47.227 76.6418C47.0947 76.5094 47.019 76.3275 47.019 76.1408V68.0016C47.019 67.8149 47.0947 67.6306 47.227 67.498C47.3594 67.3657 47.5413 67.29 47.728 67.29H55.8695C56.0562 67.29 56.2384 67.368 56.3705 67.5006C56.5031 67.6306 56.5785 67.8149 56.5785 68.0016V76.1405C56.5785 76.3296 56.5053 76.5094 56.3705 76.6415C56.2356 76.7765 56.0584 76.8497 55.8695 76.8497ZM48.437 75.4318H55.1605V68.7082H48.437V75.4318Z" fill="white"/>
<path d="M68.7333 76.8497H60.5918C60.4051 76.8497 60.2229 76.7741 60.0908 76.6418C59.9582 76.5094 59.8828 76.3275 59.8828 76.1408V68.0016C59.8828 67.8149 59.9582 67.6306 60.0908 67.498C60.2231 67.3657 60.4051 67.29 60.5918 67.29H68.7333C68.92 67.29 69.102 67.368 69.2341 67.5006C69.3667 67.6306 69.4423 67.8149 69.4423 68.0016V76.1405C69.4423 76.3296 69.3688 76.5094 69.2341 76.6415C69.0996 76.7765 68.9224 76.8497 68.7333 76.8497ZM61.3008 75.4318H68.0243V68.7082H61.3008V75.4318Z" fill="white"/>
<path d="M81.5971 76.85H73.4579C73.2712 76.85 73.0871 76.7744 72.9546 76.642C72.8222 76.5097 72.7466 76.3277 72.7466 76.141V67.9995C72.7466 67.8128 72.8222 67.6308 72.9546 67.4985C73.0871 67.3662 73.2712 67.2905 73.4579 67.2905H81.5971C81.7838 67.2905 81.9657 67.3685 82.0981 67.4985C82.2304 67.6311 82.3061 67.8128 82.3061 67.9995V76.141C82.3061 76.3301 82.2326 76.5099 82.0981 76.642C81.9655 76.7767 81.7861 76.85 81.5971 76.85ZM74.1646 75.432H80.8881V68.7085H74.1646V75.432Z" fill="white"/>
<path d="M43.0067 88.4607H34.8652C34.6785 88.4607 34.4966 88.3874 34.3642 88.2551C34.2319 88.1227 34.1562 87.9407 34.1562 87.754V79.6196C34.1562 79.4329 34.2319 79.2488 34.3642 79.1162C34.4966 78.9863 34.6785 78.9106 34.8652 78.9106H43.0067C43.1934 78.9106 43.3754 78.9863 43.5078 79.1162C43.6401 79.2488 43.7157 79.4329 43.7157 79.6196V87.754C43.7157 87.9433 43.6401 88.1206 43.5078 88.2551C43.373 88.3874 43.1958 88.4607 43.0067 88.4607ZM35.5742 87.0427H42.2978V80.3262H35.5742V87.0427Z" fill="white"/>
<path d="M55.8695 88.4607H47.728C47.5413 88.4607 47.3594 88.3874 47.227 88.2551C47.0947 88.1227 47.019 87.9407 47.019 87.754V79.6196C47.019 79.4329 47.0947 79.2488 47.227 79.1162C47.3594 78.9863 47.5413 78.9106 47.728 78.9106H55.8695C56.0562 78.9106 56.2384 78.9863 56.3705 79.1162C56.5031 79.2488 56.5785 79.4329 56.5785 79.6196V87.754C56.5785 87.9433 56.5053 88.1206 56.3705 88.2551C56.2356 88.3874 56.0584 88.4607 55.8695 88.4607ZM48.437 87.0427H55.1605V80.3262H48.437V87.0427Z" fill="white"/>
<path d="M68.7333 88.4607H60.5918C60.4051 88.4607 60.2229 88.3874 60.0908 88.2551C59.9582 88.1227 59.8828 87.9407 59.8828 87.754V79.6196C59.8828 79.4329 59.9582 79.2488 60.0908 79.1162C60.2231 78.9863 60.4051 78.9106 60.5918 78.9106H68.7333C68.92 78.9106 69.102 78.9863 69.2341 79.1162C69.3667 79.2488 69.4423 79.4329 69.4423 79.6196V87.754C69.4423 87.9433 69.3667 88.1206 69.2341 88.2551C69.0996 88.3874 68.9224 88.4607 68.7333 88.4607ZM61.3008 87.0427H68.0243V80.3262H61.3008V87.0427Z" fill="white"/>
<path d="M81.5971 88.4625H73.4579C73.2712 88.4625 73.0871 88.3871 72.9546 88.2546C72.8222 88.1222 72.7466 87.9403 72.7466 87.7536V79.6191C72.7466 79.4324 72.8222 79.2483 72.9546 79.1158C73.0871 78.9858 73.2712 78.9102 73.4579 78.9102H81.5971C81.7838 78.9102 81.9657 78.9858 82.0981 79.1158C82.2304 79.2483 82.3061 79.4301 82.3061 79.6191V87.7536C82.3061 87.9429 82.2326 88.1201 82.0981 88.2546C81.9655 88.3895 81.7861 88.4625 81.5971 88.4625ZM74.1646 87.0446H80.8881V80.3281H74.1646V87.0446Z" fill="white"/>
<path d="M41.3268 48.8615H38.0371C37.8504 48.8615 37.6661 48.7859 37.5337 48.6535C37.4037 48.5212 37.3281 48.3392 37.3281 48.1525V43.771C37.3281 43.5843 37.4038 43.4023 37.5361 43.27C37.6661 43.1376 37.8504 43.062 38.0371 43.062H41.3268C41.5135 43.062 41.6978 43.1376 41.8278 43.27C41.9602 43.4023 42.0358 43.5843 42.0358 43.771V48.1525C42.0358 48.3392 41.9602 48.5212 41.8278 48.6535C41.6978 48.7859 41.5135 48.8615 41.3268 48.8615ZM38.7461 47.4435H40.6178V44.48H38.7461V47.4435Z" fill="#FF4D40"/>
<path d="M48.7213 48.8616H45.4316C45.2449 48.8616 45.0606 48.786 44.9306 48.6537C44.7983 48.5213 44.7227 48.3394 44.7227 48.1527V35.3437C44.7227 35.1546 44.7983 34.9726 44.9306 34.8403C45.0606 34.708 45.2449 34.6323 45.4316 34.6323H48.7213C48.908 34.6323 49.0924 34.708 49.2223 34.8403C49.3547 34.9726 49.4303 35.1546 49.4303 35.3437V48.1527C49.4303 48.3394 49.3547 48.5213 49.2223 48.6537C49.0924 48.786 48.908 48.8616 48.7213 48.8616ZM46.1406 47.4437H48.0123V36.0503H46.1406V47.4437Z" fill="#FF4D40"/>
<path d="M56.1159 48.8612H52.8262C52.6395 48.8612 52.4551 48.7856 52.3228 48.6532C52.1928 48.5209 52.1172 48.3389 52.1172 48.1522V39.8477C52.1172 39.661 52.1928 39.479 52.3228 39.3466C52.4551 39.2143 52.6395 39.1387 52.8262 39.1387H56.1159C56.3026 39.1387 56.4848 39.2167 56.6169 39.3466C56.7495 39.479 56.8249 39.661 56.8249 39.8477V48.1522C56.8249 48.3413 56.7516 48.5185 56.6169 48.6532C56.4819 48.7856 56.3047 48.8612 56.1159 48.8612ZM53.5328 47.4432H55.4069V40.5566H53.5352L53.5328 47.4432Z" fill="#FF4D40"/>
<path d="M63.5103 48.8613H60.2183C60.0316 48.8613 59.8493 48.7857 59.7172 48.6534C59.5851 48.521 59.5093 48.339 59.5093 48.1523V37.1064C59.5093 36.9173 59.5849 36.7353 59.7172 36.603C59.8496 36.4706 60.0316 36.395 60.2183 36.395H63.5103C63.697 36.395 63.8792 36.4706 64.0113 36.603C64.1439 36.7353 64.2193 36.9197 64.2193 37.1064V48.1523C64.2193 48.3414 64.146 48.5187 64.0113 48.6534C63.879 48.7857 63.6991 48.8613 63.5103 48.8613ZM60.9272 47.4434H62.8013V37.813H60.9272V47.4434Z" fill="#FF4D40"/>
<path d="M70.9044 48.8616H67.6123C67.4256 48.8616 67.2434 48.7859 67.1113 48.6536C66.9792 48.5212 66.9033 48.3393 66.9033 48.1526V33.5073C66.9033 33.3206 66.9789 33.1386 67.1113 33.0063C67.2436 32.874 67.4256 32.7983 67.6123 32.7983H70.9044C71.0911 32.7983 71.2733 32.874 71.4054 33.0063C71.5375 33.1386 71.6133 33.3206 71.6133 33.5073V48.1526C71.6133 48.3416 71.5401 48.5189 71.4054 48.6536C71.2704 48.7859 71.0932 48.8616 70.9044 48.8616ZM68.3213 47.4436H70.1954V34.2163H68.3213V47.4436Z" fill="#FF4D40"/>
<path d="M78.3006 48.8615H75.0156C74.8289 48.8615 74.6467 48.7859 74.5146 48.6535C74.382 48.5212 74.3066 48.3392 74.3066 48.1525V38.9995C74.3066 38.8128 74.382 38.6308 74.5146 38.4985C74.647 38.3662 74.8289 38.2905 75.0156 38.2905H78.3003C78.487 38.2905 78.6693 38.3662 78.8014 38.4985C78.9335 38.6308 79.0093 38.8152 79.0093 38.9995V48.1525C79.0093 48.3416 78.9361 48.5188 78.8014 48.6535C78.6667 48.7859 78.4894 48.8615 78.3006 48.8615ZM75.7246 47.4435H77.5914V39.7085H75.7246V47.4435Z" fill="#FF4D40"/>
<path d="M18.5605 83.1548C18.1682 83.1548 17.8516 82.8381 17.8516 82.4458V48.2896C17.8516 47.8996 18.1682 47.5806 18.5605 47.5806C18.9505 47.5806 19.2695 47.8996 19.2695 48.2896V82.446C19.2695 82.8384 18.9505 83.1548 18.5605 83.1548Z" fill="#FF4D40"/>
<path d="M18.5611 96.1082C18.287 96.1082 18.0365 95.9499 17.9207 95.7041L14.0709 87.5933C14.026 87.5012 14 87.3925 14 87.2908V85.3104C14 84.9181 14.319 84.6014 14.709 84.6014C15.1013 84.6014 15.418 84.9181 15.418 85.3104V87.1301L18.5611 93.7473L21.7019 87.1301V44.7754H15.418V75.8573C15.418 76.2472 15.1013 76.5663 14.709 76.5663C14.319 76.5663 14 76.2472 14 75.8573V44.0664C14 43.8797 14.0756 43.6977 14.208 43.5654C14.3403 43.433 14.5223 43.3574 14.709 43.3574H22.4109C22.5976 43.3574 22.7796 43.433 22.9119 43.5654C23.0443 43.6977 23.1199 43.8797 23.1199 44.0664V87.2906C23.1199 87.3925 23.0963 87.5012 23.0514 87.5931L19.2016 95.7039C19.0834 95.9499 18.8329 96.1082 18.5611 96.1082ZM14.709 81.2928C14.319 81.2928 14 80.9738 14 80.5838C14 80.1915 14.319 79.8749 14.709 79.8749C15.1013 79.8749 15.418 80.1915 15.418 80.5838C15.418 80.9738 15.1013 81.2928 14.709 81.2928Z" fill="#FF4D40"/>
<path d="M22.4109 44.7754H14.709C14.5246 44.7754 14.3403 44.6997 14.208 44.5674C14.0756 44.4351 14 44.2531 14 44.0664V40.8901C14 40.7034 14.0756 40.5191 14.208 40.3868C14.3403 40.2568 14.5223 40.1812 14.709 40.1812H22.4109C22.5976 40.1812 22.7796 40.2568 22.9119 40.3868C23.0443 40.5191 23.1199 40.7034 23.1199 40.8901V44.0664C23.1199 44.2531 23.0443 44.4351 22.9119 44.5674C22.7796 44.6997 22.5976 44.7754 22.4109 44.7754ZM15.418 43.3574H21.7019V41.5991H15.418V43.3574Z" fill="#FF4D40"/>
<path d="M22.4109 41.599H14.709C14.5223 41.599 14.3403 41.5233 14.208 41.391C14.0756 41.2587 14 41.0767 14 40.89V33.9868C14.0024 33.1006 14.7279 32.3774 15.6188 32.3774H21.0166C22.1746 32.3774 23.1199 33.3228 23.1199 34.4808V40.89C23.1199 41.0767 23.0443 41.2587 22.9119 41.391C22.7796 41.5233 22.5976 41.599 22.4109 41.599ZM15.418 40.181H21.7019V34.4808C21.7019 34.1026 21.3923 33.7954 21.0166 33.7954H15.6188C15.5078 33.7954 15.4203 33.8805 15.418 33.9868V40.181Z" fill="#FF4D40"/>
<path d="M18.5611 96.1081C18.287 96.1081 18.0365 95.9498 17.9207 95.704L14.0709 87.5932C14.026 87.5011 14 87.3924 14 87.2907V82.8809C14 82.6942 14.0756 82.5098 14.208 82.3772C14.3403 82.2473 14.5223 82.1719 14.709 82.1719H22.4109C22.5976 82.1719 22.7796 82.2473 22.9119 82.3772C23.0443 82.5098 23.1199 82.6916 23.1199 82.8809V87.2905C23.1199 87.3924 23.0963 87.5011 23.0514 87.593L19.2016 95.7038C19.0834 95.9498 18.8329 96.1081 18.5611 96.1081ZM15.418 87.13L18.5611 93.7472L21.7019 87.13V83.5875H15.418V87.13Z" fill="#FF4D40"/>
<path d="M93.3111 105.507C91.7371 105.507 90.2104 105.199 88.7736 104.59C87.3863 104.004 86.1406 103.165 85.0703 102.094C83.9997 101.024 83.1584 99.7755 82.5723 98.3883C81.9649 96.9516 81.6577 95.4224 81.6577 93.8484C81.6577 92.2747 81.9649 90.7504 82.5723 89.3135C83.1584 87.9263 83.9997 86.6785 85.0703 85.6103C86.1406 84.5397 87.3863 83.6984 88.7736 83.1123C90.2104 82.5025 91.7371 82.1953 93.3111 82.1953C94.8848 82.1953 96.4114 82.5025 97.8483 83.1099C99.2382 83.6984 100.483 84.5397 101.554 85.6079C102.625 86.6782 103.466 87.9263 104.052 89.3135C104.662 90.7504 104.969 92.2747 104.969 93.8484C104.969 95.4224 104.662 96.9516 104.055 98.3883C103.466 99.7755 102.625 101.023 101.554 102.094C100.484 103.164 99.2382 104.004 97.8483 104.592C96.4114 105.2 94.8848 105.507 93.3111 105.507ZM93.3111 83.6135C90.5767 83.6135 88.0055 84.6794 86.0721 86.6125C84.1389 88.5457 83.0754 91.1169 83.0754 93.8486C83.0754 96.5853 84.1389 99.1566 86.0721 101.092C88.0055 103.023 90.5767 104.089 93.3111 104.089C96.0451 104.089 98.6164 103.023 100.552 101.092C102.485 99.1566 103.551 96.5853 103.551 93.8486C103.551 91.1167 102.485 88.5457 100.552 86.6125C98.6164 84.6794 96.0454 83.6135 93.3111 83.6135Z" fill="#FF4D40"/>
<path d="M93.8406 97.3316C94.201 97.2536 94.49 97.0792 94.7124 96.8202C94.9414 96.5557 95.0558 96.2428 95.0558 95.8878C95.0558 95.5688 94.9599 95.2921 94.7668 95.0635C94.5803 94.8291 94.2729 94.6547 93.8404 94.528V97.3316H93.8406ZM92.7998 89.7145C92.5165 89.8109 92.3 89.9794 92.1379 90.2079C91.9694 90.4369 91.8904 90.6889 91.8904 90.9658C91.8904 91.2123 91.963 91.4472 92.1138 91.6642C92.2643 91.8802 92.4924 92.0551 92.7996 92.1877V89.7145H92.7998ZM92.7998 97.2115V94.221C91.8666 93.9566 91.1867 93.5532 90.7542 93.0117C90.3208 92.4703 90.1043 91.8145 90.1043 91.0445C90.1043 90.2621 90.3508 89.6062 90.8437 89.0773C91.3313 88.5475 91.9812 88.241 92.7998 88.1625V87.4585H93.8406V88.1625C94.5985 88.253 95.2064 88.5116 95.657 88.9384C96.1089 89.3659 96.3979 89.9373 96.518 90.6532L94.7009 90.8822C94.5933 90.3228 94.3043 89.9437 93.8409 89.7452V92.5365C94.9896 92.8439 95.7717 93.2405 96.1871 93.7342C96.608 94.2276 96.8129 94.8596 96.8129 95.6295C96.8129 96.4954 96.5539 97.2179 96.0241 97.8073C95.5011 98.4028 94.7732 98.7642 93.8409 98.9143V100.245H92.8001V98.9263C91.9812 98.8242 91.3138 98.5234 90.796 98.012C90.2846 97.5065 89.954 96.7786 89.8096 95.8522L91.6744 95.6298C91.7465 96.0148 91.8909 96.3392 92.102 96.6162C92.313 96.8932 92.5408 97.0851 92.7998 97.2115Z" fill="#FF4D40"/>
<path d="M95.4946 79.8348C95.1049 79.8348 94.7856 79.5158 94.7856 79.1258V66.6997C94.7856 66.31 95.1049 65.9907 95.4946 65.9907C95.8869 65.9907 96.2036 66.31 96.2036 66.6997V79.1258C96.2036 79.5158 95.8872 79.8348 95.4946 79.8348Z" fill="white"/>
<path d="M92.5536 70.6887C92.3787 70.6887 92.2109 70.6249 92.0809 70.5067C91.7902 70.2467 91.7666 69.7977 92.0265 69.507L94.9688 66.2268C95.2193 65.9479 95.6896 65.9219 95.9709 66.1727C96.1103 66.3003 96.1951 66.4728 96.2046 66.6616C96.214 66.8509 96.1505 67.0327 96.025 67.1747L93.0827 70.4523C92.9482 70.6038 92.7568 70.6887 92.5536 70.6887Z" fill="white"/>
<path d="M98.4375 70.6886C98.2366 70.6886 98.0452 70.6038 97.9107 70.4523L94.9684 67.1746C94.7061 66.8839 94.7321 66.4347 95.0225 66.1726C95.3038 65.9219 95.7717 65.9481 96.0246 66.2267L98.9645 69.507C99.2266 69.7976 99.2032 70.2469 98.9123 70.5066C98.7802 70.625 98.6124 70.6886 98.4375 70.6886Z" fill="white"/>
<path d="M102.36 77.613C101.97 77.613 101.651 77.2961 101.651 76.904V59.9688C101.651 59.5764 101.97 59.2598 102.36 59.2598C102.75 59.2598 103.069 59.5764 103.069 59.9688V76.904C103.069 77.2961 102.75 77.613 102.36 77.613Z" fill="#FF4D40"/>
<path d="M99.4189 63.9558C99.244 63.9558 99.0762 63.8917 98.9462 63.7759C98.8042 63.6483 98.7217 63.4737 98.7099 63.2844C98.7005 63.0953 98.764 62.9157 98.8919 62.7742L101.834 59.4939C102.085 59.2151 102.555 59.1891 102.834 59.4396C102.976 59.5672 103.058 59.7397 103.07 59.9288C103.08 60.1178 103.016 60.2998 102.888 60.4416L99.9457 63.7218C99.8136 63.8707 99.6198 63.9558 99.4189 63.9558Z" fill="#FF4D40"/>
<path d="M105.302 63.9558C105.101 63.9558 104.907 63.8707 104.775 63.7195L101.833 60.4416C101.571 60.1509 101.594 59.7019 101.887 59.4396C102.166 59.1891 102.637 59.2151 102.887 59.4939L105.829 62.7742C105.957 62.916 106.02 63.0953 106.011 63.287C105.999 63.476 105.917 63.6483 105.775 63.7738C105.645 63.892 105.477 63.9558 105.302 63.9558Z" fill="#FF4D40"/>
<path d="M23.2778 28.3978C22.8855 28.3978 22.5688 28.0811 22.5688 27.6888V16.709C22.5688 16.5223 22.6445 16.3379 22.7768 16.208C22.9068 16.0756 23.0911 16 23.2778 16H55.435C55.8273 16 56.144 16.3167 56.144 16.709C56.144 17.0989 55.8273 17.418 55.435 17.418H23.9868V27.6888C23.9868 28.0811 23.6678 28.3978 23.2778 28.3978Z" fill="white"/>
</svg>
