<svg width="121" height="121" viewBox="0 0 121 121" fill="none" xmlns="http://www.w3.org/2000/svg">
<path d="M103.225 102.884H18.9149C18.5557 102.884 18.2646 102.593 18.2646 102.234V96.0066C18.2646 95.6474 18.5557 95.3564 18.9149 95.3564C19.274 95.3564 19.5651 95.6474 19.5651 96.0066V101.584H102.575V84.4016C102.575 84.0424 102.866 83.7513 103.225 83.7513C103.585 83.7513 103.876 84.0424 103.876 84.4016V102.234C103.876 102.593 103.585 102.884 103.225 102.884ZM18.9149 85.8197C18.5557 85.8197 18.2646 85.5286 18.2646 85.1695V46.1026C18.2646 41.3765 22.1094 37.5317 26.8353 37.5317H95.305C100.031 37.5317 103.876 41.3765 103.876 46.1026V73.5645C103.876 73.9236 103.585 74.2147 103.225 74.2147C102.866 74.2147 102.575 73.9236 102.575 73.5645V46.1026C102.575 42.0937 99.3139 38.8322 95.305 38.8322H26.8353C22.8264 38.8322 19.5651 42.0937 19.5651 46.1026V85.1695C19.5651 85.5286 19.2738 85.8197 18.9149 85.8197Z" fill="white"/>
<path d="M86.6136 92.2098H25.7435C25.3843 92.2098 25.0933 91.9187 25.0933 91.5596V50.2895C25.0933 47.9329 26.3842 45.7585 28.4621 44.6148C28.7766 44.4416 29.1721 44.5563 29.3453 44.871C29.5185 45.1857 29.4038 45.581 29.0891 45.7542C27.4265 46.6693 26.3935 48.4071 26.3935 50.2895V90.9094H86.6136C86.9727 90.9094 87.2638 91.2005 87.2638 91.5596C87.2638 91.9187 86.9729 92.2098 86.6136 92.2098ZM96.3984 91.1575C96.0392 91.1575 95.7482 90.8664 95.7482 90.5073V50.2895C95.7482 47.4378 93.4281 45.1178 90.5763 45.1178H31.5656C31.2065 45.1178 30.9154 44.8268 30.9154 44.4676C30.9154 44.1085 31.2065 43.8174 31.5656 43.8174H90.5763C94.1451 43.8174 97.0486 46.7209 97.0486 50.2895V90.5073C97.0486 90.8664 96.7575 91.1575 96.3984 91.1575Z" fill="white"/>
<path d="M67.1311 68.7819C63.3279 68.7819 60.2339 65.6853 60.2339 61.8791C60.2339 58.0759 63.3279 54.9819 67.1311 54.9819C70.9373 54.9819 74.0336 58.0759 74.0336 61.8791C74.0334 65.6853 70.937 68.7819 67.1311 68.7819ZM67.1311 56.2824C64.0451 56.2824 61.5343 58.7931 61.5343 61.8791C61.5343 64.9681 64.0451 67.4815 67.1311 67.4815C70.2201 67.4815 72.7332 64.9681 72.7332 61.8791C72.733 58.7931 70.2201 56.2824 67.1311 56.2824Z" fill="#FF4D40"/>
<path d="M72.9757 60.9529C71.0805 60.9529 69.3164 60.2015 68.0082 58.8371C67.7702 58.5891 67.7665 58.199 67.9993 57.9465C68.5106 57.3916 68.9141 56.7212 69.1662 56.0075C69.2273 55.8348 69.3587 55.6956 69.5277 55.6245C69.6966 55.5534 69.888 55.5571 70.0542 55.6347C71.9193 56.5041 73.288 58.1433 73.8091 60.1325C73.858 60.3191 73.8214 60.5179 73.7094 60.6748C73.5973 60.8317 73.4213 60.931 73.2288 60.9458C73.1419 60.9525 73.0622 60.9529 72.9757 60.9529ZM69.3684 58.3347C70.1899 59.033 71.1828 59.4706 72.2515 59.6069C71.7992 58.5878 71.053 57.7289 70.1023 57.1372C69.8984 57.5594 69.6517 57.9621 69.3684 58.3347Z" fill="#FF4D40"/>
<path d="M63.8818 61.0498C62.8611 61.0498 61.8793 60.8318 60.9633 60.4016C60.6616 60.26 60.516 59.9132 60.6259 59.5985C61.591 56.8372 64.2054 54.9819 67.1316 54.9819C68.1479 54.9819 69.1317 55.2019 70.0552 55.6356C70.3569 55.7772 70.5024 56.1239 70.3927 56.4387C69.4286 59.1967 66.8121 61.0498 63.8818 61.0498ZM62.0895 59.4559C62.6628 59.6508 63.2632 59.7494 63.8818 59.7494C66.0518 59.7494 68.0092 58.4986 68.9293 56.5804C68.351 56.3823 67.7487 56.2824 67.1316 56.2824C64.9655 56.2822 63.0102 57.5352 62.0895 59.4559Z" fill="#FF4D40"/>
<path d="M78.744 81.0388H55.3001C54.941 81.0388 54.6499 80.7477 54.6499 80.3886V73.668C54.6499 73.4095 54.8034 73.1754 55.0403 73.072L62.8317 69.6767C63.0725 69.5718 63.3528 69.6219 63.542 69.8042L66.8954 73.0287L70.5135 69.7886C70.7025 69.6189 70.9732 69.5753 71.2068 69.6765L79.0037 73.0718C79.2408 73.1754 79.3943 73.4095 79.3943 73.668V80.3886C79.3943 80.7477 79.1032 81.0388 78.744 81.0388ZM55.9504 79.7383H78.0938V74.0942L71.0703 71.0357L67.3135 74.3998C67.0601 74.6271 66.6743 74.6202 66.4292 74.3842L62.9535 71.0422L55.9504 74.0939V79.7383Z" fill="#FF4D40"/>
<path d="M71.1778 75.3567H62.8592C62.6808 75.3567 62.5105 75.2835 62.3876 75.1541C62.2647 75.0247 62.2006 74.8506 62.2099 74.6725L62.4411 70.2388C62.46 69.8801 62.763 69.6014 63.1243 69.6233C63.4828 69.6421 63.7585 69.948 63.7399 70.3064L63.5441 74.0561H70.5048L70.3771 70.327C70.3648 69.9683 70.6457 69.6673 71.0048 69.6549C71.3612 69.6478 71.6646 69.9235 71.6769 70.2826L71.8276 74.6842C71.8337 74.8604 71.768 75.0316 71.6453 75.1584C71.5226 75.2852 71.354 75.3567 71.1778 75.3567Z" fill="#FF4D40"/>
<path d="M66.9755 74.4745H66.7817C66.6135 74.4745 66.4518 74.4093 66.3305 74.2925L63.678 71.7367C63.551 71.6142 63.479 71.4451 63.479 71.2685V67.3567C63.479 67.127 63.6004 66.9144 63.7981 66.7973C63.9955 66.6803 64.2402 66.6762 64.442 66.7865C65.2645 67.2375 66.1946 67.4759 67.1318 67.4759C68.02 67.4759 68.8702 67.2746 69.6594 66.8777C69.8605 66.7767 70.1005 66.7865 70.2927 66.9053C70.4848 67.0236 70.6018 67.2332 70.6018 67.4588V71.1608C70.6018 71.3459 70.5231 71.5219 70.3853 71.6452L67.4094 74.3087C67.2898 74.4156 67.1354 74.4745 66.9755 74.4745ZM64.7795 70.9921L66.8914 73.0271L69.3011 70.8703V68.4307C68.6056 68.6606 67.8793 68.7766 67.1315 68.7766C66.3294 68.7766 65.5315 68.6351 64.7792 68.3622V70.9921H64.7795Z" fill="#FF4D40"/>
<path d="M46.8092 62.7712H32.0872C31.7281 62.7712 31.437 62.4801 31.437 62.1209V50.929C31.437 50.5699 31.7281 50.2788 32.0872 50.2788H46.8092C47.1684 50.2788 47.4595 50.5699 47.4595 50.929V62.1209C47.4595 62.4801 47.1684 62.7712 46.8092 62.7712ZM32.7375 61.4707H46.159V51.5793H32.7375V61.4707Z" fill="white"/>
<path d="M46.6798 65.8708H32.2161C31.857 65.8708 31.5659 65.5797 31.5659 65.2205C31.5659 64.8614 31.857 64.5703 32.2161 64.5703H46.6798C47.0389 64.5703 47.33 64.8614 47.33 65.2205C47.33 65.5797 47.0389 65.8708 46.6798 65.8708Z" fill="white"/>
<path d="M46.6798 68.3673H32.2161C31.857 68.3673 31.5659 68.0763 31.5659 67.7171C31.5659 67.358 31.857 67.0669 32.2161 67.0669H46.6798C47.0389 67.0669 47.33 67.358 47.33 67.7171C47.33 68.0763 47.0389 68.3673 46.6798 68.3673Z" fill="white"/>
<path d="M46.6798 70.8639H32.2161C31.857 70.8639 31.5659 70.5728 31.5659 70.2137C31.5659 69.8546 31.857 69.5635 32.2161 69.5635H46.6798C47.0389 69.5635 47.33 69.8546 47.33 70.2137C47.33 70.5728 47.0389 70.8639 46.6798 70.8639Z" fill="white"/>
<path d="M46.6798 73.3605H32.2161C31.857 73.3605 31.5659 73.0694 31.5659 72.7103C31.5659 72.3511 31.857 72.0601 32.2161 72.0601H46.6798C47.0389 72.0601 47.33 72.3511 47.33 72.7103C47.33 73.0694 47.0389 73.3605 46.6798 73.3605Z" fill="white"/>
<path d="M46.6798 75.8576H32.2161C31.857 75.8576 31.5659 75.5665 31.5659 75.2074C31.5659 74.8482 31.857 74.5571 32.2161 74.5571H46.6798C47.0389 74.5571 47.33 74.8482 47.33 75.2074C47.33 75.5665 47.0389 75.8576 46.6798 75.8576Z" fill="white"/>
<path d="M46.6798 78.3537H32.2161C31.857 78.3537 31.5659 78.0626 31.5659 77.7034C31.5659 77.3443 31.857 77.0532 32.2161 77.0532H46.6798C47.0389 77.0532 47.33 77.3443 47.33 77.7034C47.33 78.0626 47.0389 78.3537 46.6798 78.3537Z" fill="white"/>
<path d="M86.4697 87.2219H69.682C69.3228 87.2219 69.0317 86.9309 69.0317 86.5717V83.7469C69.0317 83.3878 69.3228 83.0967 69.682 83.0967H86.4697C86.8289 83.0967 87.12 83.3878 87.12 83.7469V86.5717C87.12 86.9309 86.8291 87.2219 86.4697 87.2219ZM70.3322 85.9215H85.8195V84.3971H70.3322V85.9215Z" fill="white"/>
<path d="M64.394 87.2219H47.6058C47.2467 87.2219 46.9556 86.9309 46.9556 86.5717V83.7469C46.9556 83.3878 47.2467 83.0967 47.6058 83.0967H64.394C64.7531 83.0967 65.0442 83.3878 65.0442 83.7469V86.5717C65.0442 86.9309 64.7531 87.2219 64.394 87.2219ZM48.256 85.9215H63.7437V84.3971H48.256V85.9215Z" fill="white"/>
<path d="M92.927 52.8979H81.4603C81.1011 52.8979 80.8101 52.6068 80.8101 52.2477V49.4281C80.8101 49.0689 81.1011 48.7778 81.4603 48.7778H92.927C93.2862 48.7778 93.5773 49.0689 93.5773 49.4281V52.2477C93.5773 52.6068 93.2864 52.8979 92.927 52.8979ZM82.1105 51.5974H92.2768V50.0783H82.1105V51.5974Z" fill="#FF4D40"/>
<path d="M92.927 55.7224H81.4603C81.1011 55.7224 80.8101 55.4313 80.8101 55.0722V52.2474C80.8101 51.8883 81.1011 51.5972 81.4603 51.5972H92.927C93.2862 51.5972 93.5773 51.8883 93.5773 52.2474V55.0722C93.5773 55.4313 93.2864 55.7224 92.927 55.7224ZM82.1105 54.422H92.2768V52.8976H82.1105V54.422Z" fill="#FF4D40"/>
<path d="M61.0731 38.8326C60.7139 38.8326 60.4229 38.5416 60.4229 38.1824V26.743C60.4229 26.3839 60.7139 26.0928 61.0731 26.0928C61.4322 26.0928 61.7233 26.3839 61.7233 26.743V38.1822C61.7233 38.5413 61.4322 38.8326 61.0731 38.8326Z" fill="white"/>
<path d="M71.0487 38.8328C70.6895 38.8328 70.3984 38.5417 70.3984 38.1826V31.306C70.3984 30.9468 70.6895 30.6558 71.0487 30.6558H103.419C103.778 30.6558 104.07 30.9468 104.07 31.306C104.07 31.6651 103.778 31.9562 103.419 31.9562H71.6989V38.1826C71.6989 38.5415 71.4078 38.8328 71.0487 38.8328Z" fill="white"/>
<path d="M50.5543 38.8328C50.1952 38.8328 49.9041 38.5417 49.9041 38.1826V31.9562H18.1834C17.8243 31.9562 17.5332 31.6651 17.5332 31.306C17.5332 30.9468 17.8243 30.6558 18.1834 30.6558H50.5545C50.9137 30.6558 51.2047 30.9468 51.2047 31.306V38.1826C51.2045 38.5415 50.9134 38.8328 50.5543 38.8328Z" fill="white"/>
<path d="M61.0733 27.3932C58.4834 27.3932 56.3765 25.2862 56.3765 22.6964C56.3765 20.1067 58.4834 18 61.0733 18C63.6629 18 65.7698 20.1067 65.7698 22.6964C65.7696 25.2862 63.6629 27.3932 61.0733 27.3932ZM61.0733 19.3005C59.2004 19.3005 57.6769 20.8239 57.6769 22.6964C57.6769 24.5692 59.2004 26.0927 61.0733 26.0927C62.9459 26.0927 64.4694 24.5692 64.4694 22.6964C64.4692 20.8239 62.9457 19.3005 61.0733 19.3005Z" fill="#FF4D40"/>
<path d="M14.6964 36.0025C12.1067 36.0025 10 33.8956 10 31.306C10 28.7163 12.1067 26.6094 14.6964 26.6094C17.286 26.6094 19.393 28.7163 19.393 31.306C19.393 33.8956 17.286 36.0025 14.6964 36.0025ZM14.6964 27.9098C12.8239 27.9098 11.3005 29.4333 11.3005 31.306C11.3005 33.1786 12.8239 34.7021 14.6964 34.7021C16.569 34.7021 18.0925 33.1786 18.0925 31.306C18.0925 29.4333 16.569 27.9098 14.6964 27.9098Z" fill="#FF4D40"/>
<path d="M110.35 35.3022H102.752C102.393 35.3022 102.102 35.0111 102.102 34.652V27.9583C102.102 27.5992 102.393 27.3081 102.752 27.3081H110.35C110.709 27.3081 111 27.5992 111 27.9583V34.652C111 35.0109 110.709 35.3022 110.35 35.3022ZM103.403 34.0018H109.7V28.6086H103.403V34.0018Z" fill="#FF4D40"/>
</svg>
