<svg width="121" height="121" viewBox="0 0 121 121" fill="none" xmlns="http://www.w3.org/2000/svg">
<path d="M95.8487 84.2412C95.5371 84.2412 95.2822 83.9882 95.2822 83.6747C95.2822 83.3633 95.5371 83.1082 95.8487 83.1082H98.0865C100.168 83.1044 101.863 81.4086 101.867 79.3295V29.1243C101.863 27.0433 100.168 25.3475 98.0865 25.3437H51.8506C51.539 25.3437 51.2841 25.0888 51.2841 24.7772C51.2841 24.4656 51.539 24.2107 51.8506 24.2107H98.0865C100.794 24.2126 102.998 26.4164 103 29.1243V79.3297C102.998 82.0358 100.794 84.2395 98.0865 84.2414H95.8487V84.2412ZM92.0719 84.2412C91.7603 84.2412 91.5053 83.9863 91.5053 83.6747C91.5053 83.3633 91.7603 83.1082 92.0719 83.1082C92.3853 83.1082 92.6384 83.3633 92.6384 83.6747C92.6384 83.9865 92.3853 84.2412 92.0719 84.2412ZM88.295 84.2412H28.3644C27.186 84.2394 26.0454 83.8145 25.1541 83.0404C24.2703 82.2735 23.6868 81.2198 23.5093 80.0737C23.4866 79.9245 23.5225 79.7753 23.6113 79.6526C23.7019 79.53 23.8341 79.4505 23.9833 79.4281C24.2873 79.3827 24.5819 79.5997 24.6291 79.9021C24.9086 81.73 26.5119 83.1084 28.3606 83.1084H88.295C88.6085 83.1084 88.8616 83.3635 88.8616 83.6749C88.8616 83.9865 88.6085 84.2412 88.295 84.2412ZM24.0192 76.7803C23.7057 76.7803 23.4526 76.5254 23.4526 76.2138C23.4526 75.9024 23.7057 75.6473 24.0192 75.6473C24.3307 75.6473 24.5857 75.9024 24.5857 76.2138C24.5857 76.5254 24.3307 76.7803 24.0192 76.7803ZM24.0192 73.0035C23.7057 73.0035 23.4526 72.7486 23.4526 72.437V29.1243C23.4545 26.4164 25.6583 24.2126 28.3644 24.2107H44.3064C44.618 24.2107 44.8729 24.4656 44.8729 24.7772C44.8729 25.0888 44.618 25.3437 44.3064 25.3437H28.3644C26.2853 25.3475 24.5895 27.0433 24.5857 29.1243V72.437C24.5857 72.7486 24.3307 73.0035 24.0192 73.0035ZM48.0794 25.3437C47.7659 25.3437 47.5129 25.0888 47.5129 24.7772C47.5129 24.4656 47.7659 24.2107 48.0794 24.2107C48.391 24.2107 48.6459 24.4656 48.6459 24.7772C48.6459 25.0888 48.391 25.3437 48.0794 25.3437Z" fill="white"/>
<path d="M72.8574 70.7432C72.5458 70.7432 72.2909 70.4902 72.2909 70.1786C72.2909 69.8651 72.5458 69.6102 72.8574 69.6102H97.4086V29.742C97.1745 29.6684 97.0102 29.4475 97.0102 29.2001C97.0102 28.8885 97.2653 28.6335 97.5767 28.6335H97.9752C98.1243 28.6335 98.2698 28.694 98.3755 28.7997C98.4813 28.9055 98.5417 29.0509 98.5417 29.2001V70.1786C98.5417 70.3297 98.4831 70.4713 98.3755 70.5771C98.2696 70.6845 98.1262 70.7432 97.9752 70.7432H72.8574ZM69.0806 70.7432C68.769 70.7432 68.514 70.4902 68.514 70.1786C68.514 69.8651 68.769 69.6102 69.0806 69.6102C69.392 69.6102 69.6471 69.8651 69.6471 70.1786C69.6471 70.4902 69.392 70.7432 69.0806 70.7432ZM65.3037 70.7432H28.3116C28.1625 70.7432 28.017 70.6828 27.9113 70.5771C27.8055 70.4711 27.7451 70.3259 27.7451 70.1786V41.0744C27.7451 40.7628 28.0001 40.5079 28.3116 40.5079C28.6251 40.5079 28.8782 40.7628 28.8782 41.0744V69.6102H65.3037C65.6172 69.6102 65.8703 69.8651 65.8703 70.1786C65.8703 70.4902 65.6172 70.7432 65.3037 70.7432ZM28.3116 37.8641C28.0001 37.8641 27.7451 37.6111 27.7451 37.2976C27.7451 36.986 28.0001 36.7311 28.3116 36.7311C28.6251 36.7311 28.8782 36.986 28.8782 37.2976C28.8782 37.6111 28.6251 37.8641 28.3116 37.8641ZM28.3116 34.0873C28.0001 34.0873 27.7451 33.8342 27.7451 33.5208V29.2001C27.7451 29.0509 27.8055 28.9055 27.9113 28.7997C28.017 28.694 28.1625 28.6335 28.3116 28.6335H90.0287C90.3403 28.6335 90.5952 28.8885 90.5952 29.2001C90.5952 29.5135 90.3403 29.7666 90.0287 29.7666H28.8782V33.5189V33.5208C28.8782 33.8342 28.6251 34.0873 28.3116 34.0873ZM93.8018 29.7666C93.4902 29.7666 93.2352 29.5135 93.2352 29.2001C93.2352 28.8885 93.4902 28.6335 93.8018 28.6335C94.1151 28.6335 94.3683 28.8885 94.3683 29.2001C94.3683 29.5135 94.1151 29.7666 93.8018 29.7666Z" fill="white"/>
<path d="M75.8734 98.3992H50.5744C50.3968 98.3992 50.2326 98.3199 50.1249 98.1782C50.0173 98.0385 49.9814 97.8608 50.0248 97.6889L52.1399 89.6577C52.2059 89.4084 52.4307 89.2347 52.6875 89.2347C52.7366 89.2347 52.7857 89.2404 52.8329 89.2536C52.9783 89.2914 53.1011 89.3858 53.1785 89.5163C53.254 89.6464 53.2748 89.7995 53.2351 89.9449L51.309 97.2665H75.1388L71.7151 84.2419H54.304H54.3021C53.9886 84.2419 53.7356 83.9889 53.7356 83.6754C53.7356 83.364 53.9886 83.1089 54.3021 83.1089H72.1513C72.4082 83.1089 72.6329 83.2826 72.699 83.5319L76.421 97.6893C76.4662 97.8612 76.4305 98.0389 76.3227 98.1786C76.2133 98.3199 76.0509 98.3992 75.8734 98.3992ZM53.6506 86.7156C53.6015 86.7156 53.5524 86.7099 53.5052 86.6965C53.203 86.6172 53.0217 86.3058 53.1029 86.0034C53.1671 85.7561 53.3919 85.5825 53.6506 85.5825C53.6978 85.5825 53.7469 85.588 53.7941 85.6014C54.0962 85.6807 54.2775 85.9906 54.1982 86.2926C54.1321 86.5418 53.9074 86.7156 53.6506 86.7156Z" fill="#FF4D40"/>
<path d="M72.0871 101.845C71.7755 101.845 71.5206 101.59 71.5206 101.279C71.5206 100.965 71.7755 100.712 72.0871 100.712H86.4976V98.3987H39.9558V100.712H64.5335C64.8449 100.712 65.1 100.965 65.1 101.279C65.1 101.59 64.8449 101.843 64.5335 101.843H39.3893C39.2401 101.843 39.0947 101.784 38.9889 101.679C38.8832 101.573 38.8228 101.426 38.8228 101.279V97.8321C38.8228 97.683 38.8832 97.5374 38.9889 97.4318C39.0947 97.3259 39.2401 97.2656 39.3893 97.2656H87.0641C87.2114 97.2656 87.3589 97.3259 87.4645 97.4318C87.5683 97.5376 87.6288 97.683 87.6288 97.8321V101.279C87.6288 101.43 87.5702 101.571 87.4645 101.679C87.3568 101.785 87.2152 101.843 87.0641 101.843L72.0871 101.845ZM68.3103 101.843C67.9987 101.843 67.7438 101.59 67.7438 101.279C67.7438 100.965 67.9987 100.712 68.3103 100.712C68.6217 100.712 68.8768 100.965 68.8768 101.279C68.8768 101.59 68.6217 101.843 68.3103 101.843Z" fill="#FF4D40"/>
<path d="M63.2233 81.3512C62.0091 81.3493 61.0214 80.3579 61.0195 79.1418C61.0214 77.9275 62.0109 76.9399 63.2233 76.938C64.4377 76.938 65.4271 77.9275 65.4271 79.1418C65.4252 80.3598 64.4355 81.3512 63.2233 81.3512ZM63.2233 78.071C62.6341 78.071 62.1545 78.5526 62.1526 79.1418C62.1545 79.7347 62.6341 80.2163 63.2233 80.2182C63.8144 80.2163 64.294 79.7345 64.294 79.1418C64.2938 78.5526 63.8125 78.071 63.2233 78.071Z" fill="#FF4D40"/>
<path d="M19.5665 47.4934C19.2549 47.4934 19 47.2403 19 46.9269V25.4141C19.0019 22.4323 21.4285 20.0038 24.4065 20C28.8783 20 32.9648 20 36.7756 20.0019C37.0872 20.0019 37.3421 20.2549 37.3421 20.5665C37.3421 20.88 37.0872 21.133 36.7756 21.133H24.4065C23.2716 21.133 22.2009 21.5806 21.3888 22.3907C20.5806 23.2027 20.133 24.2754 20.133 25.4141V46.9269C20.133 47.2403 19.88 47.4934 19.5665 47.4934Z" fill="white"/>
<path d="M50.191 57.7588H32.5929C32.2813 57.7588 32.0264 57.5038 32.0264 57.1923C32.0264 56.8807 32.2813 56.6257 32.5929 56.6257H50.191C50.5026 56.6257 50.7575 56.8807 50.7575 57.1923C50.7575 57.5038 50.5026 57.7588 50.191 57.7588Z" fill="#FF4D40"/>
<path d="M60.5508 61.6277H32.5929C32.2813 61.6277 32.0264 61.3727 32.0264 61.0612C32.0264 60.7477 32.2813 60.4946 32.5929 60.4946H60.5508C60.8624 60.4946 61.1155 60.7477 61.1155 61.0612C61.1155 61.3727 60.8624 61.6277 60.5508 61.6277Z" fill="#FF4D40"/>
<path d="M60.5489 65.4983H32.5929C32.2813 65.4983 32.0264 65.2433 32.0264 64.9318C32.0264 64.6183 32.2813 64.3652 32.5929 64.3652H60.5489C60.8624 64.3652 61.1155 64.6183 61.1155 64.9318C61.1155 65.2433 60.8624 65.4983 60.5489 65.4983Z" fill="#FF4D40"/>
<path d="M60.0957 45.1909H33.1198C32.5184 45.1909 32.0264 44.936 32.0264 44.6244C32.0264 44.3128 32.5184 44.0579 33.1198 44.0579H60.0957C60.6971 44.0579 61.1891 44.3128 61.1891 44.6244C61.1891 44.936 60.6971 45.1909 60.0957 45.1909Z" fill="white"/>
<path d="M60.0957 41.8916H33.1198C32.5184 41.8916 32.0264 41.6385 32.0264 41.3251C32.0264 41.0135 32.5184 40.7585 33.1198 40.7585H60.0957C60.6971 40.7585 61.1891 41.0135 61.1891 41.3251C61.1891 41.6385 60.6971 41.8916 60.0957 41.8916Z" fill="white"/>
<path d="M60.0985 38.5063H33.1978C32.5981 38.5063 32.1074 38.2514 32.1074 37.9398C32.1074 37.6263 32.5981 37.3733 33.1978 37.3733H60.0985C60.6983 37.3733 61.189 37.6263 61.189 37.9398C61.189 38.2514 60.6983 38.5063 60.0985 38.5063Z" fill="white"/>
<path d="M72.4517 44.6912C72.4517 44.9556 72.6688 45.1727 72.9332 45.1727C73.1976 45.1727 73.4148 44.9556 73.4148 44.6912C73.4148 44.4268 73.1976 44.2096 72.9332 44.2096C72.6688 44.2096 72.4517 44.4268 72.4517 44.6912Z" fill="#FF4D40"/>
<path d="M75.2937 41.7547C75.2937 40.4706 75.9075 39.0543 77.3993 39.0543C78.4379 39.0543 78.6268 39.7152 79.0045 39.7152C79.2122 39.7152 79.3444 39.5358 79.3444 39.3186C79.3444 38.9787 78.589 38.3367 77.3993 38.3367C75.407 38.3367 74.4062 40.0079 74.4062 41.7547C74.4062 43.5015 75.407 45.1727 77.3521 45.1727C78.5324 45.1727 79.486 44.6629 79.486 44.238C79.486 44.0019 79.3538 43.8508 79.1555 43.8508C78.8062 43.8508 78.3624 44.4551 77.3521 44.4551C75.9263 44.4551 75.2937 43.0388 75.2937 41.7547Z" fill="#FF4D40"/>
<path d="M80.8907 41.7547C80.8907 40.4706 81.4384 39.0543 82.9491 39.0543C84.4598 39.0543 85.0075 40.4706 85.0075 41.7547C85.0075 43.0388 84.4598 44.4551 82.9491 44.4551C81.4384 44.4551 80.8907 43.0388 80.8907 41.7547ZM80.0032 41.7547C80.0032 43.5015 81.0324 45.1727 82.9491 45.1727C84.8658 45.1727 85.895 43.5015 85.895 41.7547C85.895 40.0079 84.8658 38.3367 82.9491 38.3367C81.0324 38.3367 80.0032 40.0079 80.0032 41.7547Z" fill="#FF4D40"/>
<path d="M88.0719 39.4131H88.0907L89.6959 44.8328C89.7809 45.1066 89.932 45.1727 90.1208 45.1727C90.3096 45.1727 90.4607 45.1066 90.5457 44.8328L92.1508 39.4131H92.1697L92.9534 44.8139C92.9912 45.1066 93.18 45.1727 93.3972 45.1727C93.6521 45.1727 93.7843 45.0028 93.7843 44.7478C93.7843 44.6534 93.7654 44.5307 93.7371 44.3701L92.8212 38.9693C92.7457 38.4972 92.4719 38.3367 92.1697 38.3367C91.8392 38.3367 91.6598 38.4594 91.5654 38.771L90.1302 43.6903H90.1114L88.6762 38.771C88.5817 38.4594 88.4023 38.3367 88.0719 38.3367C87.7697 38.3367 87.4959 38.4972 87.4204 38.9693L86.5045 44.3701C86.4762 44.5307 86.4573 44.6534 86.4573 44.7478C86.4573 45.0028 86.5895 45.1727 86.8444 45.1727C87.0616 45.1727 87.2504 45.1066 87.2882 44.8139L88.0719 39.4131Z" fill="#FF4D40"/>
<path d="M60.0957 35.2976H33.1198C32.5184 35.2976 32.0264 35.0427 32.0264 34.7311C32.0264 34.4176 32.5184 34.1646 33.1198 34.1646H60.0957C60.6971 34.1646 61.1891 34.4176 61.1891 34.7311C61.1891 35.0427 60.6971 35.2976 60.0957 35.2976Z" fill="white"/>
</svg>
