<svg width="121" height="121" viewBox="0 0 121 121" fill="none" xmlns="http://www.w3.org/2000/svg">
<path d="M92.2064 46.9154H75.6725C75.353 46.9154 75.0939 46.6564 75.0939 46.3368C75.0939 46.0173 75.353 45.7583 75.6725 45.7583H91.6278V31.3H28.5034V45.7583H66.0292C66.3488 45.7583 66.6078 46.0173 66.6078 46.3368C66.6078 46.6564 66.3488 46.9154 66.0292 46.9154H27.9248C27.6052 46.9154 27.3462 46.6564 27.3462 46.3368V30.7214C27.3462 30.4018 27.6052 30.1428 27.9248 30.1428H92.2064C92.5259 30.1428 92.785 30.4018 92.785 30.7214V46.3368C92.785 46.6562 92.5259 46.9154 92.2064 46.9154Z" fill="white"/>
<path d="M63.0797 34.4719H32.4843C32.1648 34.4719 31.9058 34.2129 31.9058 33.8933C31.9058 33.5737 32.1648 33.3147 32.4843 33.3147H63.0797C63.3993 33.3147 63.6583 33.5737 63.6583 33.8933C63.6583 34.2129 63.3993 34.4719 63.0797 34.4719Z" fill="#FF4D40"/>
<path d="M63.0797 39.1091H32.4843C32.1648 39.1091 31.9058 38.8501 31.9058 38.5305C31.9058 38.2109 32.1648 37.9519 32.4843 37.9519H63.0797C63.3993 37.9519 63.6583 38.2109 63.6583 38.5305C63.6583 38.8501 63.3993 39.1091 63.0797 39.1091Z" fill="#FF4D40"/>
<path d="M63.0797 43.7446H32.4843C32.1648 43.7446 31.9058 43.4856 31.9058 43.166C31.9058 42.8464 32.1648 42.5874 32.4843 42.5874H63.0797C63.3993 42.5874 63.6583 42.8464 63.6583 43.166C63.6583 43.4856 63.3993 43.7446 63.0797 43.7446Z" fill="white"/>
<path d="M85.4875 41.9663C83.5922 41.9663 82.0503 40.4243 82.0503 38.5293C82.0503 36.6342 83.5922 35.0923 85.4875 35.0923C87.3825 35.0923 88.9243 36.6342 88.9243 38.5293C88.9243 40.4243 87.3825 41.9663 85.4875 41.9663ZM85.4875 36.2495C84.2302 36.2495 83.2075 37.2722 83.2075 38.5293C83.2075 39.7863 84.2304 40.8091 85.4875 40.8091C86.7445 40.8091 87.7671 39.7863 87.7671 38.5293C87.7671 37.2722 86.7445 36.2495 85.4875 36.2495Z" fill="#FF4D40"/>
<path d="M75.4383 41.9663C73.5432 41.9663 72.0015 40.4243 72.0015 38.5293C72.0015 36.6342 73.5432 35.0923 75.4383 35.0923C77.3335 35.0923 78.8754 36.6342 78.8754 38.5293C78.8754 40.4243 77.3335 41.9663 75.4383 41.9663ZM75.4383 36.2495C74.1812 36.2495 73.1586 37.2722 73.1586 38.5293C73.1586 39.7863 74.1814 40.8091 75.4383 40.8091C76.6955 40.8091 77.7183 39.7863 77.7183 38.5293C77.7183 37.2722 76.6953 36.2495 75.4383 36.2495Z" fill="#FF4D40"/>
<path d="M63.3888 76.12H56.7417C56.4221 76.12 56.1631 75.861 56.1631 75.5414V68.7444C56.1631 68.4248 56.4221 68.1658 56.7417 68.1658H63.3888C63.7084 68.1658 63.9674 68.4248 63.9674 68.7444V75.5414C63.9674 75.861 63.7084 76.12 63.3888 76.12ZM57.3203 74.9628H62.8103V69.3229H57.3203V74.9628Z" fill="white"/>
<path d="M98.3169 45.2178C94.629 45.2178 91.6284 42.2174 91.6284 38.5295C91.6284 34.8414 94.629 31.8411 98.3169 31.8411C102.002 31.8411 105 34.8414 105 38.5295C105 42.2174 102.002 45.2178 98.3169 45.2178ZM98.3169 32.9982C95.2669 32.9982 92.7856 35.4796 92.7856 38.5295C92.7856 41.5792 95.2668 44.0606 98.3169 44.0606C101.364 44.0606 103.843 41.5794 103.843 38.5295C103.843 35.4796 101.364 32.9982 98.3169 32.9982Z" fill="white"/>
<path d="M21.815 45.2178C18.1271 45.2178 15.127 42.2174 15.127 38.5295C15.127 34.8414 18.1271 31.8411 21.815 31.8411C25.5031 31.8411 28.5035 34.8414 28.5035 38.5295C28.5033 42.2174 25.5029 45.2178 21.815 45.2178ZM21.815 32.9982C18.7653 32.9982 16.2841 35.4796 16.2841 38.5295C16.2841 41.5792 18.7653 44.0606 21.815 44.0606C24.8649 44.0606 27.3463 41.5794 27.3463 38.5295C27.3461 35.4796 24.8649 32.9982 21.815 32.9982Z" fill="white"/>
<path d="M92.2064 69.3196H75.6673C75.3477 69.3196 75.0887 69.0606 75.0887 68.7411C75.0887 68.4215 75.3477 68.1625 75.6673 68.1625H91.6278V53.7094H28.5034V68.1625H66.0242C66.3438 68.1625 66.6028 68.4215 66.6028 68.7411C66.6028 69.0606 66.3438 69.3196 66.0242 69.3196H27.9248C27.6052 69.3196 27.3462 69.0606 27.3462 68.7411V53.1308C27.3462 52.8113 27.6052 52.5522 27.9248 52.5522H92.2064C92.5259 52.5522 92.785 52.8113 92.785 53.1308V68.7411C92.785 69.0608 92.5259 69.3196 92.2064 69.3196Z" fill="white"/>
<path d="M63.0797 56.8784H32.4843C32.1648 56.8784 31.9058 56.6193 31.9058 56.2998C31.9058 55.9802 32.1648 55.7212 32.4843 55.7212H63.0797C63.3993 55.7212 63.6583 55.9802 63.6583 56.2998C63.6583 56.6193 63.3993 56.8784 63.0797 56.8784Z" fill="#FF4D40"/>
<path d="M63.0797 61.5158H32.4843C32.1648 61.5158 31.9058 61.2568 31.9058 60.9372C31.9058 60.6177 32.1648 60.3586 32.4843 60.3586H63.0797C63.3993 60.3586 63.6583 60.6177 63.6583 60.9372C63.6583 61.2568 63.3993 61.5158 63.0797 61.5158Z" fill="#FF4D40"/>
<path d="M63.0797 66.1511H32.4843C32.1648 66.1511 31.9058 65.892 31.9058 65.5725C31.9058 65.2529 32.1648 64.9939 32.4843 64.9939H63.0797C63.3993 64.9939 63.6583 65.2529 63.6583 65.5725C63.6583 65.892 63.3993 66.1511 63.0797 66.1511Z" fill="white"/>
<path d="M85.4875 64.3757C83.5922 64.3757 82.0503 62.834 82.0503 60.9389C82.0503 59.0436 83.5922 57.5017 85.4875 57.5017C87.3825 57.5017 88.9243 59.0436 88.9243 60.9389C88.9245 62.834 87.3825 64.3757 85.4875 64.3757ZM85.4875 58.6587C84.2302 58.6587 83.2075 59.6814 83.2075 60.9387C83.2075 62.1958 84.2304 63.2183 85.4875 63.2183C86.7445 63.2183 87.7671 62.1956 87.7671 60.9387C87.7673 59.6816 86.7445 58.6587 85.4875 58.6587Z" fill="#FF4D40"/>
<path d="M75.4383 64.3757C73.5432 64.3757 72.0015 62.834 72.0015 60.9389C72.0015 59.0436 73.5432 57.5017 75.4383 57.5017C77.3335 57.5017 78.8754 59.0436 78.8754 60.9389C78.8754 62.834 77.3335 64.3757 75.4383 64.3757ZM75.4383 58.6587C74.1812 58.6587 73.1586 59.6814 73.1586 60.9387C73.1586 62.1958 74.1814 63.2183 75.4383 63.2183C76.6955 63.2183 77.7183 62.1956 77.7183 60.9387C77.7183 59.6816 76.6953 58.6587 75.4383 58.6587Z" fill="#FF4D40"/>
<path d="M98.3169 67.6241C94.629 67.6241 91.6284 64.6239 91.6284 60.936C91.6284 57.2479 94.629 54.2476 98.3169 54.2476C102.002 54.2476 105 57.2479 105 60.936C105 64.6239 102.002 67.6241 98.3169 67.6241ZM98.3169 55.4049C95.2669 55.4049 92.7856 57.8863 92.7856 60.9362C92.7856 63.9859 95.2668 66.4671 98.3169 66.4671C101.364 66.4671 103.843 63.9859 103.843 60.9362C103.843 57.8863 101.364 55.4049 98.3169 55.4049Z" fill="white"/>
<path d="M21.815 67.6241C18.1271 67.6241 15.127 64.6239 15.127 60.936C15.127 57.2479 18.1271 54.2476 21.815 54.2476C25.5031 54.2476 28.5035 57.2479 28.5035 60.936C28.5033 64.6239 25.5029 67.6241 21.815 67.6241ZM21.815 55.4049C18.7653 55.4049 16.2841 57.8863 16.2841 60.9362C16.2841 63.9859 18.7653 66.4671 21.815 66.4671C24.8649 66.4671 27.3463 63.9859 27.3463 60.9362C27.3461 57.8863 24.8649 55.4049 21.815 55.4049Z" fill="white"/>
<path d="M92.2064 91.7261H75.6673C75.3477 91.7261 75.0887 91.4671 75.0887 91.1476C75.0887 90.828 75.3477 90.569 75.6673 90.569H91.6278V76.1159H28.5034V90.569H66.0242C66.3438 90.569 66.6028 90.828 66.6028 91.1476C66.6028 91.4671 66.3438 91.7261 66.0242 91.7261H27.9248C27.6052 91.7261 27.3462 91.4671 27.3462 91.1476V75.5373C27.3462 75.2178 27.6052 74.9587 27.9248 74.9587H92.2064C92.5259 74.9587 92.785 75.2178 92.785 75.5373V91.1476C92.785 91.4671 92.5259 91.7261 92.2064 91.7261Z" fill="white"/>
<path d="M63.0797 79.2897H32.4843C32.1648 79.2897 31.9058 79.0307 31.9058 78.7112C31.9058 78.3916 32.1648 78.1326 32.4843 78.1326H63.0797C63.3993 78.1326 63.6583 78.3916 63.6583 78.7112C63.6583 79.0307 63.3993 79.2897 63.0797 79.2897Z" fill="#FF4D40"/>
<path d="M63.0797 83.9233H32.4843C32.1648 83.9233 31.9058 83.6643 31.9058 83.3447C31.9058 83.0251 32.1648 82.7661 32.4843 82.7661H63.0797C63.3993 82.7661 63.6583 83.0251 63.6583 83.3447C63.6583 83.6643 63.3993 83.9233 63.0797 83.9233Z" fill="#FF4D40"/>
<path d="M63.0797 88.5605H32.4843C32.1648 88.5605 31.9058 88.3015 31.9058 87.9819C31.9058 87.6623 32.1648 87.4033 32.4843 87.4033H63.0797C63.3993 87.4033 63.6583 87.6623 63.6583 87.9819C63.6583 88.3015 63.3993 88.5605 63.0797 88.5605Z" fill="white"/>
<path d="M85.4875 86.7822C83.5922 86.7822 82.0503 85.2404 82.0503 83.3452C82.0503 81.4499 83.5922 79.9082 85.4875 79.9082C87.3825 79.9082 88.9243 81.4499 88.9243 83.3452C88.9243 85.2404 87.3825 86.7822 85.4875 86.7822ZM85.4875 81.0652C84.2302 81.0652 83.2075 82.0879 83.2075 83.345C83.2075 84.6021 84.2304 85.6248 85.4875 85.6248C86.7445 85.6248 87.7671 84.6021 87.7671 83.345C87.7671 82.0879 86.7445 81.0652 85.4875 81.0652Z" fill="#FF4D40"/>
<path d="M75.4383 86.7822C73.5432 86.7822 72.0015 85.2404 72.0015 83.3452C72.0015 81.4499 73.5432 79.9082 75.4383 79.9082C77.3335 79.9082 78.8754 81.4499 78.8754 83.3452C78.8754 85.2404 77.3335 86.7822 75.4383 86.7822ZM75.4383 81.0652C74.1812 81.0652 73.1586 82.0879 73.1586 83.345C73.1586 84.6021 74.1814 85.6248 75.4383 85.6248C76.6955 85.6248 77.7183 84.6021 77.7183 83.345C77.7183 82.0879 76.6953 81.0652 75.4383 81.0652Z" fill="#FF4D40"/>
<path d="M98.3169 90.0335C94.629 90.0335 91.6284 87.0332 91.6284 83.3452C91.6284 79.6573 94.629 76.657 98.3169 76.657C102.002 76.657 105 79.6573 105 83.3452C105 87.0332 102.002 90.0335 98.3169 90.0335ZM98.3169 77.8143C95.2669 77.8143 92.7856 80.2955 92.7856 83.3454C92.7856 86.3954 95.2668 88.8765 98.3169 88.8765C101.364 88.8765 103.843 86.3954 103.843 83.3454C103.843 80.2955 101.364 77.8143 98.3169 77.8143Z" fill="white"/>
<path d="M21.815 90.0335C18.1271 90.0335 15.127 87.0332 15.127 83.3452C15.127 79.6573 18.1271 76.657 21.815 76.657C25.5031 76.657 28.5035 79.6573 28.5035 83.3452C28.5035 87.0332 25.5029 90.0335 21.815 90.0335ZM21.815 77.8143C18.7653 77.8143 16.2841 80.2955 16.2841 83.3454C16.2841 86.3954 18.7653 88.8765 21.815 88.8765C24.8649 88.8765 27.3463 86.3954 27.3463 83.3454C27.3463 80.2955 24.8649 77.8143 21.815 77.8143Z" fill="white"/>
<path d="M63.3898 53.7108H56.7426C56.4231 53.7108 56.1641 53.4518 56.1641 53.1322V46.3352C56.1641 46.0156 56.4231 45.7566 56.7426 45.7566H63.3898C63.7094 45.7566 63.9684 46.0156 63.9684 46.3352V53.1322C63.9684 53.4518 63.7094 53.7108 63.3898 53.7108ZM57.3212 52.5536H62.8112V46.9138H57.3212V52.5536Z" fill="white"/>
</svg>
