<svg width="121" height="121" viewBox="0 0 121 121" fill="none" xmlns="http://www.w3.org/2000/svg">
<path d="M95.0029 83.9548H79.2525C78.9146 83.9548 78.6407 83.6809 78.6407 83.343V81.0408H61.7227C61.3847 81.0408 61.1109 80.7669 61.1109 80.429V77.1618H60.6948V80.429C60.6948 80.7669 60.4209 81.0408 60.083 81.0408H43.165V83.343C43.165 83.6809 42.8911 83.9548 42.5532 83.9548H26.0283C23.8403 83.9548 21.6767 83.4027 19.7714 82.3582C19.4751 82.1956 19.3666 81.8239 19.5289 81.5275C19.6914 81.2312 20.0636 81.1229 20.3595 81.2853C22.0852 82.2313 24.0454 82.7314 26.0283 82.7314H41.9414V80.4292C41.9414 80.0912 42.2152 79.8174 42.5532 79.8174H59.4712V76.5502C59.4712 76.2122 59.7451 75.9384 60.083 75.9384H61.7227C62.0606 75.9384 62.3344 76.2122 62.3344 76.5502V79.8174H79.2525C79.5904 79.8174 79.8643 80.0912 79.8643 80.4292V82.7314H95.0029C99.2741 82.7312 103.224 80.4137 105.312 76.6831C105.477 76.3882 105.849 76.2834 106.144 76.448C106.439 76.6132 106.544 76.986 106.379 77.2806C104.076 81.397 99.7168 83.9546 95.0029 83.9548ZM13.9915 74.6012C13.7183 74.6012 13.469 74.4166 13.3989 74.1395C13.1344 73.0951 13 72.0143 13 70.9265C13 63.9461 18.5221 58.2311 25.4289 57.917C25.3773 57.4429 25.3512 56.9606 25.3512 56.4758C25.3512 49.3836 31.0448 43.5968 38.0999 43.4502C39.3388 37.402 44.6229 33.0655 50.8557 33.0655C53.0624 33.0655 55.2239 33.6225 57.1441 34.6813C59.9692 30.5312 64.5989 28.072 69.6452 28.072C77.9894 28.072 84.7779 34.8605 84.7779 43.2047C84.7779 43.6721 84.7559 44.1411 84.712 44.6077C86.2452 44.0963 87.8461 43.8377 89.4845 43.8377C97.8286 43.8377 104.617 50.6262 104.617 58.9703C104.617 59.948 104.524 60.9136 104.342 61.8456C105.739 63.28 106.796 65.0318 107.407 66.9317C107.51 67.2533 107.334 67.5981 107.012 67.7013C106.69 67.8051 106.346 67.6281 106.242 67.3063C105.657 65.4886 104.622 63.8205 103.248 62.4824C103.097 62.3346 103.032 62.119 103.078 61.9123C103.287 60.9654 103.393 59.9755 103.393 58.9703C103.393 51.3008 97.1536 45.0613 89.4842 45.0613C87.6578 45.0613 85.8828 45.4106 84.2087 46.0997C84.004 46.1843 83.769 46.1509 83.5951 46.013C83.4215 45.875 83.3361 45.6537 83.3722 45.4349C83.4929 44.7005 83.5541 43.9502 83.5541 43.2047C83.5541 35.5352 77.3143 29.2956 69.645 29.2956C64.8251 29.2956 60.4183 31.7371 57.8571 35.8268C57.6791 36.1113 57.3049 36.1988 57.0189 36.0238C55.167 34.8891 53.0359 34.2893 50.8555 34.2893C45.0509 34.2893 40.1543 38.44 39.2127 44.1589C39.1642 44.4544 38.9087 44.6714 38.6091 44.6714H38.3742C31.8679 44.6714 26.5746 49.9669 26.5746 56.4762C26.5746 57.1345 26.6272 57.7869 26.7314 58.4158C26.7608 58.593 26.7106 58.7743 26.5944 58.9114C26.4781 59.0484 26.3074 59.1276 26.1278 59.1276H26.0281C19.5189 59.1276 14.2234 64.4208 14.2234 70.9271C14.2234 71.9135 14.3451 72.8934 14.5848 73.8393C14.6678 74.1668 14.4695 74.4996 14.142 74.5828C14.0919 74.5948 14.0413 74.6012 13.9915 74.6012Z" fill="white"/>
<path d="M79.2531 64.3647H42.5537C42.2158 64.3647 41.9419 64.0908 41.9419 63.7529V54.8408C41.9419 54.5029 42.2158 54.229 42.5537 54.229H79.2531C79.591 54.229 79.8649 54.5029 79.8649 54.8408V63.7529C79.8649 64.0908 79.591 64.3647 79.2531 64.3647ZM43.1655 63.1411H78.6413V55.4526H43.1655V63.1411Z" fill="white"/>
<path d="M62.6223 57.2629H45.1523C44.8144 57.2629 44.5405 56.989 44.5405 56.6511C44.5405 56.3132 44.8144 56.0393 45.1523 56.0393H62.6223C62.9602 56.0393 63.2341 56.3132 63.2341 56.6511C63.2341 56.989 62.9602 57.2629 62.6223 57.2629Z" fill="#FF4D40"/>
<path d="M62.6223 59.9067H45.1523C44.8144 59.9067 44.5405 59.6328 44.5405 59.2949C44.5405 58.957 44.8144 58.6831 45.1523 58.6831H62.6223C62.9602 58.6831 63.2341 58.957 63.2341 59.2949C63.2341 59.6328 62.9602 59.9067 62.6223 59.9067Z" fill="#FF4D40"/>
<path d="M62.6223 62.5564H45.1523C44.8144 62.5564 44.5405 62.2825 44.5405 61.9446C44.5405 61.6066 44.8144 61.3328 45.1523 61.3328H62.6223C62.9602 61.3328 63.2341 61.6066 63.2341 61.9446C63.2341 62.2825 62.9602 62.5564 62.6223 62.5564Z" fill="white"/>
<path d="M75.4143 61.5412C74.1782 61.5412 73.1729 60.5336 73.1729 59.2947C73.1729 58.0589 74.1784 57.0535 75.4143 57.0535C76.6528 57.0535 77.6604 58.0589 77.6604 59.2947C77.6602 60.5336 76.6528 61.5412 75.4143 61.5412ZM75.4143 58.2771C74.8531 58.2771 74.3964 58.7337 74.3964 59.2947C74.3964 59.8588 74.8531 60.3176 75.4143 60.3176C75.9782 60.3176 76.4368 59.8588 76.4368 59.2947C76.4366 58.7337 75.9779 58.2771 75.4143 58.2771Z" fill="#FF4D40"/>
<path d="M69.6796 61.5412C68.4409 61.5412 67.4331 60.5336 67.4331 59.2947C67.4331 58.0589 68.4407 57.0535 69.6796 57.0535C70.9155 57.0535 71.9209 58.0589 71.9209 59.2947C71.9211 60.5336 70.9155 61.5412 69.6796 61.5412ZM69.6796 58.2771C69.1156 58.2771 68.6567 58.7337 68.6567 59.2947C68.6567 59.8588 69.1156 60.3176 69.6796 60.3176C70.2409 60.3176 70.6973 59.8588 70.6973 59.2947C70.6975 58.7337 70.2409 58.2771 69.6796 58.2771Z" fill="#FF4D40"/>
<path d="M61.7226 81.0396H60.083C59.7451 81.0396 59.4712 80.7657 59.4712 80.4278V76.5488C59.4712 76.2109 59.7451 75.937 60.083 75.937H61.7226C62.0605 75.937 62.3344 76.2109 62.3344 76.5488V80.4278C62.3344 80.7657 62.0605 81.0396 61.7226 81.0396ZM60.6948 79.816H61.1108V77.1606H60.6948V79.816Z" fill="white"/>
<path d="M79.2531 77.1605H42.5537C42.2158 77.1605 41.9419 76.8866 41.9419 76.5487V67.6313C41.9419 67.2934 42.2158 67.0195 42.5537 67.0195H79.2531C79.591 67.0195 79.8649 67.2934 79.8649 67.6313V76.5487C79.8649 76.8866 79.591 77.1605 79.2531 77.1605ZM43.1655 75.9369H78.6413V68.2431H43.1655V75.9369Z" fill="white"/>
<path d="M62.6223 70.0532H45.1523C44.8144 70.0532 44.5405 69.7793 44.5405 69.4414C44.5405 69.1035 44.8144 68.8296 45.1523 68.8296H62.6223C62.9602 68.8296 63.2341 69.1035 63.2341 69.4414C63.2341 69.7793 62.9602 70.0532 62.6223 70.0532Z" fill="#FF4D40"/>
<path d="M62.6223 72.7028H45.1523C44.8144 72.7028 44.5405 72.429 44.5405 72.091C44.5405 71.7531 44.8144 71.4792 45.1523 71.4792H62.6223C62.9602 71.4792 63.2341 71.7531 63.2341 72.091C63.2341 72.429 62.9602 72.7028 62.6223 72.7028Z" fill="#FF4D40"/>
<path d="M62.6223 75.3466H45.1523C44.8144 75.3466 44.5405 75.0728 44.5405 74.7348C44.5405 74.3969 44.8144 74.123 45.1523 74.123H62.6223C62.9602 74.123 63.2341 74.3969 63.2341 74.7348C63.2341 75.0728 62.9602 75.3466 62.6223 75.3466Z" fill="white"/>
<path d="M75.4143 74.3321C74.1782 74.3321 73.1729 73.3265 73.1729 72.0908C73.1729 70.8552 74.1784 69.8496 75.4143 69.8496C76.6528 69.8496 77.6604 70.8552 77.6604 72.0908C77.6604 73.3265 76.6528 74.3321 75.4143 74.3321ZM75.4143 71.0732C74.8531 71.0732 74.3964 71.5296 74.3964 72.0908C74.3964 72.6521 74.8531 73.1085 75.4143 73.1085C75.9782 73.1085 76.4368 72.6521 76.4368 72.0908C76.4368 71.5296 75.9779 71.0732 75.4143 71.0732Z" fill="#FF4D40"/>
<path d="M69.6796 74.3321C68.4409 74.3321 67.4331 73.3265 67.4331 72.0908C67.4331 70.8552 68.4407 69.8496 69.6796 69.8496C70.9155 69.8496 71.9209 70.8552 71.9209 72.0908C71.9209 73.3265 70.9155 74.3321 69.6796 74.3321ZM69.6796 71.0732C69.1156 71.0732 68.6567 71.5296 68.6567 72.0908C68.6567 72.6521 69.1156 73.1085 69.6796 73.1085C70.2409 73.1085 70.6973 72.6521 70.6973 72.0908C70.6973 71.5296 70.2409 71.0732 69.6796 71.0732Z" fill="#FF4D40"/>
<path d="M79.2531 89.9525H42.5537C42.2158 89.9525 41.9419 89.6786 41.9419 89.3407V80.4282C41.9419 80.0903 42.2158 79.8164 42.5537 79.8164H79.2531C79.591 79.8164 79.8649 80.0903 79.8649 80.4282V89.3407C79.8649 89.6786 79.591 89.9525 79.2531 89.9525ZM43.1655 88.7289H78.6413V81.04H43.1655V88.7289Z" fill="white"/>
<path d="M62.6223 82.8501H45.1523C44.8144 82.8501 44.5405 82.5762 44.5405 82.2383C44.5405 81.9003 44.8144 81.6265 45.1523 81.6265H62.6223C62.9602 81.6265 63.2341 81.9003 63.2341 82.2383C63.2341 82.5762 62.9602 82.8501 62.6223 82.8501Z" fill="#FF4D40"/>
<path d="M62.6223 85.4951H45.1523C44.8144 85.4951 44.5405 85.2212 44.5405 84.8833C44.5405 84.5454 44.8144 84.2715 45.1523 84.2715H62.6223C62.9602 84.2715 63.2341 84.5454 63.2341 84.8833C63.2341 85.2212 62.9602 85.4951 62.6223 85.4951Z" fill="#FF4D40"/>
<path d="M62.6223 88.1428H45.1523C44.8144 88.1428 44.5405 87.8689 44.5405 87.531C44.5405 87.1931 44.8144 86.9192 45.1523 86.9192H62.6223C62.9602 86.9192 63.2341 87.1931 63.2341 87.531C63.2341 87.8689 62.9602 88.1428 62.6223 88.1428Z" fill="white"/>
<path d="M75.4143 87.1296C74.1782 87.1296 73.1729 86.122 73.1729 84.8831C73.1729 83.6472 74.1784 82.6418 75.4143 82.6418C76.6528 82.6418 77.6604 83.6474 77.6604 84.8831C77.6602 86.122 76.6528 87.1296 75.4143 87.1296ZM75.4143 83.8654C74.8531 83.8654 74.3964 84.3219 74.3964 84.8831C74.3964 85.4472 74.8531 85.906 75.4143 85.906C75.9782 85.906 76.4368 85.4472 76.4368 84.8831C76.4366 84.3221 75.9779 83.8654 75.4143 83.8654Z" fill="#FF4D40"/>
<path d="M69.6796 87.1296C68.4409 87.1296 67.4331 86.122 67.4331 84.8831C67.4331 83.6472 68.4407 82.6418 69.6796 82.6418C70.9155 82.6418 71.9209 83.6474 71.9209 84.8831C71.9211 86.122 70.9155 87.1296 69.6796 87.1296ZM69.6796 83.8654C69.1156 83.8654 68.6567 84.3219 68.6567 84.8831C68.6567 85.4472 69.1156 85.906 69.6796 85.906C70.2409 85.906 70.6973 85.4472 70.6973 84.8831C70.6975 84.3221 70.2409 83.8654 69.6796 83.8654Z" fill="#FF4D40"/>
<path d="M61.7226 68.2437H60.083C59.7451 68.2437 59.4712 67.9698 59.4712 67.6319V63.7529C59.4712 63.415 59.7451 63.1411 60.083 63.1411H61.7226C62.0605 63.1411 62.3344 63.415 62.3344 63.7529V67.6319C62.3344 67.9698 62.0605 68.2437 61.7226 68.2437ZM60.6948 67.0201H61.1108V64.3647H60.6948V67.0201Z" fill="white"/>
<path d="M73.2893 92.8218H48.5166C48.1787 92.8218 47.9048 92.5479 47.9048 92.21V89.341C47.9048 89.0031 48.1787 88.7292 48.5166 88.7292H73.2893C73.6273 88.7292 73.9011 89.0031 73.9011 89.341V92.21C73.9011 92.5479 73.6273 92.8218 73.2893 92.8218ZM49.1284 91.5982H72.6775V89.9528H49.1284V91.5982Z" fill="white"/>
</svg>
