<svg width="121" height="121" viewBox="0 0 121 121" fill="none" xmlns="http://www.w3.org/2000/svg">
<path d="M58.8546 101.389H58.8046C58.7506 101.389 58.6986 101.389 58.6486 101.387C58.3186 101.373 58.0606 101.093 58.0726 100.763C58.0866 100.431 58.3666 100.171 58.6966 100.187C58.7346 100.189 58.7706 100.189 58.8046 100.189H58.8406L95.6607 99.7473C97.1067 99.7293 98.2807 98.5415 98.2787 97.0953V97.0653L98.1347 85.0793C98.0627 79.2253 98.0107 74.9132 97.9427 69.2372V69.2352V69.223C97.9467 68.895 98.2067 68.6352 98.5347 68.631H98.5447C98.8687 68.631 99.1387 68.895 99.1427 69.221V69.223C99.1427 69.231 99.1427 69.237 99.1427 69.245L99.4787 97.0951C99.4767 98.1111 99.0829 99.0711 98.3667 99.7971C97.6487 100.523 96.6927 100.931 95.6747 100.945L58.8546 101.389ZM55.6986 99.0975C55.4346 99.0975 55.2046 98.9275 55.1266 98.6757C55.1246 98.6735 55.1246 98.6735 55.1246 98.6715C55.0786 98.5195 55.0946 98.3595 55.1686 98.2175C55.2426 98.0755 55.3686 97.9715 55.5206 97.9233C55.5786 97.9053 55.6386 97.8973 55.6986 97.8973C55.9626 97.8973 56.1926 98.0675 56.2726 98.3193C56.3186 98.4713 56.3046 98.6353 56.2306 98.7773C56.1546 98.9173 56.0306 99.0231 55.8766 99.0693C55.8186 99.0875 55.7586 99.0975 55.6986 99.0975ZM55.5246 95.1135H55.5166C55.1906 95.1135 54.9206 94.8475 54.9166 94.5195L54.5446 63.6134C54.5426 63.4534 54.6066 63.2974 54.7186 63.1834C54.8306 63.0714 54.9866 63.0054 55.1446 63.0054H64.5086V57.5734H55.0646C54.7366 57.5734 54.4686 57.3074 54.4646 56.9794L54.3146 44.5313C54.3106 44.2013 54.5766 43.9293 54.9066 43.9233H54.9146C55.2406 43.9233 55.5106 44.1893 55.5146 44.5173L55.6566 56.3734H65.1086C65.2666 56.3734 65.4206 56.4374 65.5326 56.5494C65.6446 56.6614 65.7086 56.8154 65.7086 56.9734V63.6054C65.7086 63.7654 65.6464 63.9174 65.5326 64.0294C65.4186 64.1434 65.2686 64.2054 65.1086 64.2054H55.7526L56.1166 94.5055C56.1186 94.5955 56.0986 94.6837 56.0606 94.7635C56.0606 94.7655 56.0606 94.7677 56.0606 94.7677C55.9606 94.9775 55.7546 95.1095 55.5246 95.1135ZM98.5027 65.8392H98.4947C98.1687 65.8392 97.8989 65.5754 97.8947 65.2472C97.8927 65.0872 97.9527 64.9352 98.0647 64.8212C98.1769 64.7072 98.3269 64.6432 98.4887 64.6414H98.4947C98.8207 64.6414 99.0887 64.9052 99.0947 65.2292C99.0947 65.2312 99.0947 65.2312 99.0947 65.2334C99.0987 65.5634 98.8327 65.8354 98.5027 65.8392ZM98.4547 61.8494H98.4467C98.1187 61.8494 97.8509 61.5834 97.8467 61.2574L97.7727 55.1214C97.7047 49.4554 97.6207 42.4173 97.5089 33.2353C97.4929 31.7893 96.3069 30.6133 94.8647 30.6133L94.8527 30.6153C94.8467 30.6153 94.8387 30.6153 94.8267 30.6153L58.0026 31.0573C56.5566 31.0753 55.3826 32.2653 55.3846 33.7153C55.3846 33.7213 55.3846 33.7293 55.3846 33.7433L55.4186 36.5173C55.4226 36.8493 55.1566 37.1213 54.8246 37.1253H54.8186C54.8086 37.1253 54.8006 37.1253 54.7926 37.1253L54.7886 37.1233C54.7846 37.1233 54.7806 37.1233 54.7766 37.1233L54.7726 37.1133V37.1233C54.6546 37.1133 54.5446 37.0713 54.4506 36.9993L54.4406 36.9913L54.4386 36.9893L54.4326 36.9853C54.4306 36.9833 54.4306 36.9813 54.4286 36.9813L54.4186 36.9713C54.4186 36.9713 54.4186 36.9713 54.4166 36.9713C54.2926 36.8593 54.2206 36.6993 54.2186 36.5313L54.1846 33.7613C54.1846 33.7493 54.1846 33.7333 54.1846 33.7153C54.1846 32.6973 54.5806 31.7353 55.2966 31.0093C56.0126 30.2813 56.9686 29.8733 57.9886 29.8593L94.8267 29.4153C94.8367 29.4153 94.8487 29.4153 94.8607 29.4153C95.8767 29.4153 96.8367 29.8113 97.5607 30.5273C98.2867 31.2453 98.6947 32.2013 98.7087 33.2213C98.8187 42.3433 98.9027 49.3494 98.9707 54.9954L99.0467 61.2434C99.0489 61.4034 98.9887 61.5534 98.8767 61.6694C98.7645 61.7834 98.6145 61.8474 98.4547 61.8494ZM54.8746 41.1253H54.8726H54.8666C54.5386 41.1253 54.2706 40.8593 54.2666 40.5313C54.2626 40.2013 54.5286 39.9293 54.8586 39.9253H54.8666C55.1926 39.9253 55.4626 40.1913 55.4666 40.5173C55.4686 40.6773 55.4086 40.8293 55.2966 40.9433C55.1846 41.0573 55.0346 41.1233 54.8746 41.1253Z" fill="white"/>
<path d="M58.8542 101.391H58.8042C57.7882 101.391 56.8282 100.995 56.1001 100.277C55.3741 99.5614 54.9661 98.6054 54.9541 97.5854L54.8501 89.0354C54.8481 88.8774 54.9101 88.7194 55.0221 88.6072C55.1361 88.4912 55.2881 88.4292 55.4501 88.4292H61.8322C62.1622 88.4292 62.4302 88.6972 62.4302 89.0292C62.4302 89.359 62.1622 89.6292 61.8322 89.6292L56.0561 89.6272L56.1542 97.5712C56.1702 99.0152 57.3582 100.191 58.8022 100.191H58.8402L95.6603 99.7492C97.1063 99.7312 98.2803 98.5434 98.2783 97.0972V97.0672L98.1903 89.6294H69.83C69.5002 89.6294 69.23 89.3592 69.23 89.0294C69.23 88.6974 69.5002 88.4294 69.83 88.4294H98.7823C99.1103 88.4294 99.3781 88.6954 99.3823 89.0214L99.4781 97.0974C99.4761 98.1134 99.0823 99.0734 98.3661 99.7994C97.6481 100.525 96.6921 100.933 95.6741 100.947L58.8542 101.391ZM65.83 89.6294C65.5002 89.6294 65.23 89.3592 65.23 89.0294C65.23 88.6974 65.5002 88.4294 65.83 88.4294C66.162 88.4294 66.43 88.6974 66.43 89.0294C66.43 89.3592 66.1622 89.6294 65.83 89.6294Z" fill="white"/>
<path d="M98.1789 39.7013H75.9868C75.6548 39.7013 75.3868 39.4313 75.3868 39.1013C75.3868 38.7693 75.6548 38.5013 75.9868 38.5013H97.5709L97.5089 33.2353C97.4929 31.7893 96.3069 30.6153 94.8647 30.6153H94.8607C94.8547 30.6153 94.8447 30.6153 94.8267 30.6153L58.0026 31.0573C56.5566 31.0753 55.3826 32.2653 55.3846 33.7153C55.3846 33.7213 55.3846 33.7293 55.3846 33.7453L55.4406 38.5013H67.9866C68.3166 38.5013 68.5866 38.7693 68.5866 39.1013C68.5866 39.4313 68.3166 39.7013 67.9866 39.7013H54.8486C54.5206 39.7013 54.2526 39.4353 54.2486 39.1073L54.1846 33.7433C54.1846 33.7333 54.1846 33.7253 54.1846 33.7153C54.1846 32.6973 54.5806 31.7353 55.2966 31.0093C56.0126 30.2813 56.9686 29.8733 57.9866 29.8593L94.8287 29.4153C94.8367 29.4153 94.8489 29.4153 94.8607 29.4153C95.8767 29.4153 96.8367 29.8113 97.5607 30.5273C98.2867 31.2453 98.6947 32.2013 98.7087 33.2213L98.7787 39.0933C98.7807 39.2533 98.7167 39.4093 98.6047 39.5233C98.4929 39.6353 98.3387 39.7013 98.1789 39.7013ZM71.9868 39.7013C71.6548 39.7013 71.3868 39.4313 71.3868 39.1013C71.3868 38.7693 71.6548 38.5013 71.9868 38.5013C72.3168 38.5013 72.5868 38.7693 72.5868 39.1013C72.5868 39.4313 72.3168 39.7013 71.9868 39.7013Z" fill="white"/>
<path d="M77.1716 97.8149C76.2436 97.8149 75.3676 97.4549 74.7078 96.8029C74.0456 96.1487 73.6758 95.2769 73.6636 94.3469V94.3369C73.6636 94.3289 73.6636 94.3167 73.6636 94.3009C73.6636 93.3689 74.0236 92.4929 74.6776 91.8307C75.3316 91.1687 76.2036 90.7967 77.1356 90.7827H77.1396C77.1456 90.7827 77.1578 90.7827 77.1776 90.7827C78.1096 90.7827 78.9876 91.1429 79.6496 91.7967C80.3134 92.4487 80.6856 93.3227 80.6996 94.2527V94.2927C80.6996 95.2267 80.3394 96.1065 79.6856 96.7707C79.0296 97.4347 78.1556 97.8047 77.2234 97.8147C77.2036 97.8149 77.1856 97.8149 77.1716 97.8149ZM77.1556 91.9827C77.1556 91.9827 77.1556 91.9827 77.1536 91.9827C75.8916 92.0009 74.8636 93.0407 74.8636 94.3009C74.8636 94.3009 74.8636 94.3087 74.8636 94.3289C74.8796 95.5909 75.9136 96.6149 77.1716 96.6149C77.1876 96.6249 77.1976 96.6169 77.2078 96.6149C78.4716 96.6011 79.4998 95.5589 79.4998 94.2931V94.2711C79.4816 93.0089 78.4396 91.9831 77.1796 91.9831C77.1776 91.9831 77.1756 91.9831 77.1578 91.9831C77.1556 91.9827 77.1556 91.9827 77.1556 91.9827Z" fill="#141517"/>
<path d="M80.9774 35.0027H72.6874C72.3554 35.0027 72.0874 34.7327 72.0874 34.4027C72.0874 34.0707 72.3554 33.8027 72.6874 33.8027H80.9774C81.3094 33.8027 81.5774 34.0707 81.5774 34.4027C81.5774 34.7327 81.3094 35.0027 80.9774 35.0027Z" fill="white"/>
<path d="M101.939 36.9845C101.618 36.9845 101.347 36.7225 101.339 36.4005L101.155 29.7085C101.118 28.2625 99.9314 27.0865 98.5133 27.0865H98.5093C98.5033 27.0865 98.4933 27.0865 98.4753 27.0865L77.1953 27.3405C76.8673 27.3405 76.5995 27.0745 76.5953 26.7465C76.5913 26.4165 76.8575 26.1445 77.1873 26.1405L98.4753 25.8865C98.4853 25.8865 98.4953 25.8865 98.5093 25.8865C99.5214 25.8865 100.477 26.2825 101.199 26.9985C101.917 27.7125 102.327 28.6625 102.355 29.6765L102.539 36.3685C102.547 36.6985 102.285 36.9745 101.955 36.9845C101.95 36.9845 101.946 36.9845 101.939 36.9845Z" fill="white"/>
<path d="M25.8512 93.8486H25.8032C24.7852 93.8466 23.8252 93.4528 23.0992 92.7348C22.3712 92.0166 21.9652 91.0608 21.9512 90.0428C21.7992 77.6027 21.6912 68.5665 21.5952 60.5685C21.5912 60.2384 21.8572 59.9664 22.1872 59.9604H22.1952C22.5212 59.9604 22.7912 60.2264 22.7952 60.5545C22.8912 68.5525 22.9992 77.5865 23.1512 90.0266C23.1672 91.4724 24.3552 92.6484 25.7992 92.6484H25.8372L54.8913 92.2984L54.8273 87.1703V87.1683C54.8253 86.8383 55.0893 86.5661 55.4213 86.5623H55.4273C55.7553 86.5623 56.0233 86.8283 56.0273 87.1543L56.0993 92.8844C56.1013 93.0444 56.0413 93.1964 55.9293 93.3104C55.8173 93.4242 55.6673 93.4884 55.5073 93.4902L25.8512 93.8486ZM55.3873 83.7625H55.3793C55.0533 83.7625 54.7833 83.4965 54.7793 83.1705C54.7753 82.8385 55.0433 82.5663 55.3733 82.5625H55.3813C55.7073 82.5625 55.9753 82.8285 55.9813 83.1545C55.9833 83.4865 55.7173 83.7583 55.3873 83.7625ZM55.3393 79.7625H55.3333C55.0053 79.7625 54.7353 79.4965 54.7333 79.1705L54.5533 64.2065H47.7852V69.1805C47.7852 69.4325 47.6272 69.6585 47.3912 69.7445C47.1572 69.8285 46.8852 69.7565 46.7252 69.5663L39.1712 60.5485C38.9812 60.3224 38.9832 59.9964 39.1772 59.7724L46.7312 51.0024C46.8912 50.8164 47.1632 50.7464 47.3952 50.8324C47.6272 50.9204 47.7852 51.1464 47.7852 51.3944V56.3744H54.4573L54.4153 52.8684C54.4153 52.8624 54.4153 52.8584 54.4153 52.8524C54.4193 52.5304 54.6853 52.2644 55.0073 52.2604H55.0153C55.3413 52.2604 55.6113 52.5264 55.6153 52.8544L55.6653 56.9664C55.6673 57.1264 55.6033 57.2824 55.4913 57.3964C55.3793 57.5084 55.2233 57.5744 55.0653 57.5744H47.1852C47.0272 57.5744 46.8732 57.5104 46.7612 57.3984C46.6492 57.2864 46.5852 57.1324 46.5852 56.9744V53.0104L40.4172 60.1684L46.5852 67.5305V63.6065C46.5852 63.4485 46.6492 63.2945 46.7612 63.1825C46.8732 63.0705 47.0272 63.0065 47.1852 63.0065H55.1453C55.4733 63.0065 55.7413 63.2725 55.7453 63.6005L55.9313 79.1565C55.9353 79.4865 55.6693 79.7583 55.3393 79.7625ZM22.1472 57.1664C21.8212 57.1664 21.5512 56.9004 21.5472 56.5724C21.5452 56.4124 21.6052 56.2604 21.7172 56.1464C21.8292 56.0324 21.9792 55.9684 22.1392 55.9664H22.1472C22.4732 55.9664 22.7432 56.2324 22.7472 56.5584C22.7512 56.8884 22.4852 57.1624 22.1552 57.1664H22.1472ZM22.0992 53.1704C21.7712 53.1704 21.5032 52.9044 21.4992 52.5764L21.3932 43.7344C21.3292 38.4664 21.2632 32.8764 21.1812 26.2203C21.1812 26.2063 21.1812 26.1923 21.1812 26.1723C21.1812 25.1543 21.5772 24.1943 22.2932 23.4663C23.0112 22.7403 23.9672 22.3323 24.9852 22.3223L61.8053 21.8743C61.8153 21.8723 61.8293 21.8723 61.8473 21.8723C62.8653 21.8743 63.8273 22.2703 64.5553 22.9863C65.2833 23.7043 65.6913 24.6603 65.7053 25.6783L65.7613 30.3663C65.7653 30.6963 65.4993 30.9683 65.1693 30.9723L58.0033 31.0583C56.5573 31.0763 55.3833 32.2684 55.3853 33.7164V33.7444L55.5193 44.8544C55.5213 45.0144 55.4593 45.1664 55.3473 45.2804C55.2353 45.3944 55.0853 45.4584 54.9253 45.4604H54.9173C54.5913 45.4604 54.3233 45.1944 54.3193 44.8684L54.1853 33.7604V33.7584C54.1853 33.7424 54.1853 33.7304 54.1853 33.7224V33.7164C54.1853 32.6984 54.5813 31.7364 55.2973 31.0103C56.0133 30.2823 56.9693 29.8743 57.9893 29.8583L64.5533 29.7803L64.5053 25.6943C64.4893 24.2483 63.2993 23.0723 61.8533 23.0723H61.8473C61.8453 23.0723 61.8373 23.0723 61.8233 23.0743L24.9972 23.5223C23.5532 23.5343 22.3792 24.7223 22.3812 26.1723V26.1823C22.3812 26.1863 22.3812 26.1943 22.3812 26.2023C22.4732 33.7584 22.5472 39.9384 22.6172 45.8344L22.6992 52.5624C22.7032 52.8924 22.4372 53.1644 22.1052 53.1704C22.1032 53.1704 22.1012 53.1704 22.0992 53.1704ZM54.9733 49.4604H54.9673C54.6393 49.4604 54.3713 49.1944 54.3673 48.8684C54.3633 48.5384 54.6293 48.2644 54.9593 48.2604H54.9673C55.2933 48.2604 55.5633 48.5264 55.5673 48.8544C55.5693 49.0144 55.5073 49.1664 55.3953 49.2804C55.2833 49.3944 55.1353 49.4584 54.9733 49.4604Z" fill="white"/>
<path d="M25.8512 93.8493H25.8032C24.7852 93.8473 23.8252 93.4535 23.0992 92.7355C22.3712 92.0195 21.9652 91.0615 21.9512 90.0435L21.8472 81.4935C21.8452 81.3333 21.9072 81.1775 22.0212 81.0635C22.1312 80.9515 22.2872 80.8854 22.4472 80.8854H45.2653C45.5953 80.8854 45.8653 81.1555 45.8653 81.4855C45.8653 81.8173 45.5953 82.0855 45.2653 82.0855H23.0552L23.1512 90.0275C23.1672 91.4733 24.3552 92.6493 25.7992 92.6493H25.8372L54.8913 92.2993L54.8513 89.0353L54.7673 82.0853H53.2653C52.9353 82.0853 52.6653 81.8171 52.6653 81.4853C52.6653 81.1553 52.9353 80.8853 53.2653 80.8853H55.3613C55.6873 80.8853 55.9573 81.1513 55.9613 81.4793L56.0993 92.8853C56.1013 93.0453 56.0413 93.1973 55.9293 93.3113C55.8173 93.4251 55.6673 93.4893 55.5073 93.4911L25.8512 93.8493ZM49.2653 82.0853C48.9353 82.0853 48.6653 81.8171 48.6653 81.4853C48.6653 81.1553 48.9353 80.8853 49.2653 80.8853C49.5953 80.8853 49.8653 81.1553 49.8653 81.4853C49.8653 81.8171 49.5953 82.0853 49.2653 82.0853Z" fill="white"/>
<path d="M55.6053 32.1583H42.1132C41.7812 32.1583 41.5132 31.8903 41.5132 31.5583C41.5132 31.2283 41.7812 30.9583 42.1132 30.9583H55.3513L55.5793 30.7523C55.5793 30.7503 55.5813 30.7503 55.5813 30.7503L55.6653 30.6823C55.6653 30.6823 55.6653 30.6823 55.6653 30.6803L55.7493 30.6183C55.7593 30.6103 55.7713 30.6023 55.7833 30.5943L55.9153 30.5003C55.9153 30.5003 55.9153 30.5003 55.9153 30.4983L56.0893 30.3923C56.0893 30.3923 56.0893 30.3923 56.0913 30.3923L56.2013 30.3283C56.2273 30.3123 56.2533 30.2983 56.2793 30.2883C56.2873 30.2843 56.2953 30.2783 56.3053 30.2723L56.4673 30.1963C56.4773 30.1903 56.4893 30.1863 56.5013 30.1803L56.5913 30.1423C56.6053 30.1363 56.6193 30.1323 56.6313 30.1283L56.6353 30.1263C56.6373 30.1263 56.6373 30.1263 56.6373 30.1243L56.8613 30.0463C56.8933 30.0323 56.9253 30.0223 56.9593 30.0143L57.0153 29.9963C57.0413 29.9903 57.0673 29.9843 57.0933 29.9803L57.2433 29.9443C57.2893 29.9303 57.3353 29.9203 57.3813 29.9183L57.4013 29.9143C57.4373 29.9043 57.4773 29.8983 57.5153 29.8943L57.5613 29.8883L57.9873 29.8603L64.5553 29.7803L64.5073 25.6943C64.4893 24.2483 63.2993 23.0723 61.8513 23.0723H61.8473C61.8453 23.0723 61.8373 23.0723 61.8233 23.0743L24.9972 23.5223C23.5532 23.5343 22.3792 24.7243 22.3812 26.1723C22.3812 26.1783 22.3812 26.1883 22.3812 26.2023L22.4412 30.9583H34.1132C34.4432 30.9583 34.7132 31.2283 34.7132 31.5583C34.7132 31.8903 34.4432 32.1583 34.1132 32.1583H21.8472C21.5212 32.1583 21.2512 31.8923 21.2472 31.5663L21.1812 26.2203C21.1812 26.2063 21.1812 26.1923 21.1812 26.1723C21.1812 25.1543 21.5772 24.1943 22.2932 23.4683C23.0112 22.7403 23.9672 22.3323 24.9852 22.3223L61.8213 21.8723C61.8293 21.8723 61.8373 21.8723 61.8473 21.8723C62.8653 21.8743 63.8273 22.2703 64.5553 22.9863C65.2833 23.7043 65.6913 24.6603 65.7053 25.6783L65.7633 30.3663C65.7653 30.5263 65.7053 30.6783 65.5933 30.7923C65.4811 30.9063 65.3311 30.9703 65.1713 30.9723L57.8133 31.0703C57.8133 31.0703 57.8133 31.0703 57.8113 31.0703L57.7053 31.0803C57.6893 31.0843 57.6713 31.0883 57.6513 31.0903C57.6253 31.0963 57.5953 31.1003 57.5673 31.1023L57.3713 31.1463C57.3533 31.1523 57.3333 31.1563 57.3133 31.1623C57.2953 31.1683 57.2773 31.1743 57.2573 31.1783L57.0713 31.2463C57.0493 31.2563 57.0273 31.2643 57.0053 31.2723C56.9813 31.2843 56.9553 31.2963 56.9273 31.3043L56.9113 31.3123C56.8893 31.3243 56.8673 31.3383 56.8433 31.3483L56.8113 31.3643C56.8013 31.3703 56.7893 31.3763 56.7773 31.3823L56.5953 31.4883C56.5953 31.4883 56.5953 31.4883 56.5933 31.4883L56.5273 31.5343C56.5073 31.5523 56.4853 31.5683 56.4633 31.5843L56.0653 31.9443C55.9513 32.0803 55.7833 32.1583 55.6053 32.1583ZM38.1132 32.1583C37.7812 32.1583 37.5132 31.8903 37.5132 31.5583C37.5132 31.2283 37.7812 30.9583 38.1132 30.9583C38.4432 30.9583 38.7132 31.2283 38.7132 31.5583C38.7132 31.8903 38.4432 32.1583 38.1132 32.1583Z" fill="white"/>
<path d="M44.2191 90.2723H44.1671C43.2391 90.2723 42.3651 89.9123 41.7031 89.2583C41.0431 88.6043 40.6711 87.7323 40.6611 86.8025C40.6611 86.7903 40.6611 86.7743 40.6611 86.7565C40.6611 85.8267 41.0191 84.9485 41.6731 84.2885C42.3271 83.6265 43.1991 83.2545 44.1311 83.2405H44.1351C44.1431 83.2405 44.1551 83.2405 44.1731 83.2405C45.1051 83.2405 45.9851 83.6007 46.6471 84.2545C47.3112 84.9085 47.6832 85.7845 47.6952 86.7185V86.7563C47.6952 87.6883 47.3352 88.5663 46.6811 89.2283C46.0251 89.8901 45.1511 90.2623 44.2191 90.2723ZM44.1511 84.4401C42.8871 84.4581 41.8591 85.4961 41.8591 86.7561C41.8591 86.7621 41.8591 86.7721 41.8611 86.7861C41.8751 88.0461 42.9091 89.0721 44.1671 89.0721H44.2051C45.4691 89.0581 46.4971 88.0201 46.4971 86.7561C46.4971 86.7461 46.4972 86.7381 46.4952 86.7321C46.4812 85.4683 45.4391 84.4401 44.1751 84.4381C44.1731 84.4401 44.1691 84.4401 44.1531 84.4401C44.1531 84.4401 44.1531 84.4401 44.1511 84.4401Z" fill="#141517"/>
<path d="M47.9725 27.459H39.6825C39.5245 27.459 39.3705 27.395 39.2585 27.283C39.1465 27.171 39.0825 27.017 39.0825 26.859C39.0825 26.701 39.1465 26.547 39.2585 26.435C39.3705 26.323 39.5245 26.259 39.6825 26.259H47.9725C48.1305 26.259 48.2865 26.323 48.3965 26.435C48.5085 26.547 48.5726 26.701 48.5726 26.859C48.5726 27.017 48.5085 27.171 48.3965 27.283C48.2865 27.395 48.1305 27.459 47.9725 27.459Z" fill="white"/>
<path d="M47.1853 69.7791C47.0073 69.7791 46.8393 69.7011 46.7253 69.5651L39.1713 60.547C38.9813 60.321 38.9833 59.995 39.1773 59.771L45.8233 52.055C46.0293 51.815 46.4273 51.785 46.6693 51.993C46.7893 52.097 46.8633 52.243 46.8753 52.403C46.8873 52.563 46.8353 52.717 46.7313 52.839L40.4173 60.167L46.5853 67.5291V63.6051C46.5853 63.4471 46.6493 63.2931 46.7613 63.1811C46.8733 63.069 47.0273 63.005 47.1853 63.005H64.5094V57.573H47.1853C46.8553 57.573 46.5853 57.303 46.5853 56.973C46.5853 56.643 46.8553 56.373 47.1853 56.373H65.1094C65.2674 56.373 65.4214 56.437 65.5334 56.549C65.6454 56.661 65.7094 56.815 65.7094 56.973V63.6051C65.7094 63.7651 65.6472 63.9171 65.5334 64.0291C65.4212 64.1431 65.2694 64.2051 65.1094 64.2051H47.7853V69.1791C47.7853 69.4311 47.6273 69.6571 47.3893 69.7431C47.3253 69.7671 47.2553 69.7791 47.1853 69.7791ZM47.1853 54.601C46.8553 54.601 46.5853 54.333 46.5853 54.003C46.5853 53.671 46.8553 53.401 47.1853 53.401C47.5153 53.401 47.7853 53.671 47.7853 54.003C47.7853 54.333 47.5153 54.601 47.1853 54.601Z" fill="#141517"/>
<path d="M78.5388 47.9002H68.1288C67.799 47.9002 67.5288 47.6322 67.5288 47.3002C67.5288 46.9702 67.799 46.7002 68.1288 46.7002H78.5388C78.8688 46.7002 79.1388 46.9702 79.1388 47.3002C79.1388 47.6322 78.869 47.9002 78.5388 47.9002Z" fill="#141517"/>
<path d="M78.5388 51.9991H68.1288C67.799 51.9991 67.5288 51.7291 67.5288 51.3991C67.5288 51.0691 67.799 50.7991 68.1288 50.7991H78.5388C78.8688 50.7991 79.1388 51.0691 79.1388 51.3991C79.1388 51.7291 78.869 51.9991 78.5388 51.9991Z" fill="#141517"/>
<path d="M85.6338 56.1053H68.1298C67.8 56.1053 67.5298 55.8353 67.5298 55.5053C67.5298 55.1733 67.8 54.9053 68.1298 54.9053H85.634C85.9638 54.9053 86.234 55.1733 86.234 55.5053C86.2338 55.8353 85.9638 56.1053 85.6338 56.1053Z" fill="#141517"/>
<path d="M85.6338 60.2098H68.1298C67.8 60.2098 67.5298 59.9418 67.5298 59.6098C67.5298 59.2798 67.8 59.0098 68.1298 59.0098H85.634C85.9638 59.0098 86.234 59.2798 86.234 59.6098C86.2338 59.9418 85.9638 60.2098 85.6338 60.2098Z" fill="#141517"/>
<path d="M93.1879 64.316H68.1298C67.8 64.316 67.5298 64.046 67.5298 63.716C67.5298 63.386 67.8 63.116 68.1298 63.116H93.1879C93.5179 63.116 93.7879 63.386 93.7879 63.716C93.7879 64.046 93.5179 64.316 93.1879 64.316Z" fill="white"/>
<path d="M93.1879 68.4205H68.1298C67.8 68.4205 67.5298 68.1505 67.5298 67.8205C67.5298 67.4885 67.8 67.2205 68.1298 67.2205H93.1879C93.5179 67.2205 93.7879 67.4885 93.7879 67.8205C93.7879 68.1505 93.5179 68.4205 93.1879 68.4205Z" fill="white"/>
<path d="M93.1879 72.525H68.1298C67.8 72.525 67.5298 72.2568 67.5298 71.925C67.5298 71.595 67.8 71.325 68.1298 71.325H93.1879C93.5179 71.325 93.7879 71.595 93.7879 71.925C93.7879 72.2568 93.5179 72.525 93.1879 72.525Z" fill="white"/>
<path d="M93.1879 76.6312H68.1298C67.8 76.6312 67.5298 76.3612 67.5298 76.0312C67.5298 75.6994 67.8 75.4312 68.1298 75.4312H93.1879C93.5179 75.4312 93.7879 75.6994 93.7879 76.0312C93.7879 76.3614 93.5179 76.6312 93.1879 76.6312Z" fill="white"/>
<path d="M93.1879 80.7376H68.1298C67.8 80.7376 67.5298 80.4676 67.5298 80.1376C67.5298 79.8056 67.8 79.5376 68.1298 79.5376H93.1879C93.5179 79.5376 93.7879 79.8056 93.7879 80.1376C93.7879 80.4676 93.5179 80.7376 93.1879 80.7376Z" fill="#141517"/>
<path d="M93.1879 84.8421H68.1298C67.8 84.8421 67.5298 84.5739 67.5298 84.2421C67.5298 83.9121 67.8 83.6421 68.1298 83.6421H93.1879C93.5179 83.6421 93.7879 83.9121 93.7879 84.2421C93.7879 84.5739 93.5179 84.8421 93.1879 84.8421Z" fill="#141517"/>
<path d="M18.7668 30.1382C18.4428 30.1382 18.1728 29.8742 18.1668 29.5482L18.0528 23.0142C18.0528 23.0122 18.0528 23.0122 18.0528 23.0122C18.0508 22.9822 18.0508 22.9582 18.0508 22.9422C18.0568 21.9342 18.4708 20.9902 19.2188 20.2842C19.9508 19.5942 20.9128 19.2042 21.9308 19.1842L30.5148 19.0002C30.8448 18.9922 31.1208 19.2582 31.1268 19.5862C31.1348 19.9182 30.8708 20.1922 30.5408 20.2002L21.9548 20.3842C20.4548 20.4142 19.2428 21.5602 19.2508 22.9422L19.2528 22.9802L19.3668 29.5282C19.3728 29.8582 19.1088 30.1322 18.7768 30.1382C18.7748 30.1382 18.7708 30.1382 18.7668 30.1382Z" fill="white"/>
</svg>
