<svg width="121" height="121" viewBox="0 0 121 121" fill="none" xmlns="http://www.w3.org/2000/svg">
<path d="M86.4726 70.9007H51.8912C51.5737 70.9007 51.3164 70.6434 51.3164 70.326C51.3164 70.0087 51.5737 69.7512 51.8912 69.7512H85.8979V61.785H34.9571V69.7512H42.3126C42.63 69.7512 42.8873 70.0087 42.8873 70.326C42.8873 70.6434 42.63 70.9007 42.3126 70.9007H34.3823C34.0649 70.9007 33.8076 70.6434 33.8076 70.326V61.2102C33.8076 60.8928 34.0649 60.6355 34.3823 60.6355H86.4726C86.7899 60.6355 87.0473 60.8928 87.0473 61.2102V70.326C87.0473 70.6434 86.7902 70.9007 86.4726 70.9007Z" fill="white"/>
<path d="M37.7529 68.2962C37.4355 68.2962 37.1782 68.0389 37.1782 67.7215V63.5628C37.1782 63.2453 37.4355 62.988 37.7529 62.988C38.0704 62.988 38.3277 63.2453 38.3277 63.5628V67.7215C38.3277 68.0389 38.0704 68.2962 37.7529 68.2962Z" fill="white"/>
<path d="M40.5889 68.2962C40.2714 68.2962 40.0142 68.0389 40.0142 67.7215V63.5628C40.0142 63.2453 40.2714 62.988 40.5889 62.988C40.9063 62.988 41.1636 63.2453 41.1636 63.5628V67.7215C41.1636 68.0389 40.9063 68.2962 40.5889 68.2962Z" fill="white"/>
<path d="M43.4238 68.2962C43.1064 68.2962 42.8491 68.0389 42.8491 67.7215V63.5628C42.8491 63.2453 43.1064 62.988 43.4238 62.988C43.7413 62.988 43.9986 63.2453 43.9986 63.5628V67.7215C43.9986 68.0389 43.7413 68.2962 43.4238 68.2962Z" fill="white"/>
<path d="M46.2544 68.2962C45.937 68.2962 45.6797 68.0389 45.6797 67.7215V63.5628C45.6797 63.2453 45.937 62.988 46.2544 62.988C46.5719 62.988 46.8291 63.2453 46.8291 63.5628V67.7215C46.8291 68.0389 46.5719 68.2962 46.2544 68.2962Z" fill="white"/>
<path d="M49.0899 68.2962C48.7724 68.2962 48.5151 68.0389 48.5151 67.7215V63.5628C48.5151 63.2453 48.7724 62.988 49.0899 62.988C49.4073 62.988 49.6646 63.2453 49.6646 63.5628V67.7215C49.6646 68.0389 49.4073 68.2962 49.0899 68.2962Z" fill="white"/>
<path d="M51.9258 68.2962C51.6084 68.2962 51.3511 68.0389 51.3511 67.7215V63.5628C51.3511 63.2453 51.6084 62.988 51.9258 62.988C52.2432 62.988 52.5005 63.2453 52.5005 63.5628V67.7215C52.5005 68.0389 52.243 68.2962 51.9258 68.2962Z" fill="white"/>
<path d="M54.7608 68.2962C54.4433 68.2962 54.186 68.0389 54.186 67.7215V63.5628C54.186 63.2453 54.4433 62.988 54.7608 62.988C55.0782 62.988 55.3355 63.2453 55.3355 63.5628V67.7215C55.3355 68.0389 55.0782 68.2962 54.7608 68.2962Z" fill="white"/>
<path d="M57.5913 68.2962C57.2739 68.2962 57.0166 68.0389 57.0166 67.7215V63.5628C57.0166 63.2453 57.2739 62.988 57.5913 62.988C57.9088 62.988 58.1661 63.2453 58.1661 63.5628V67.7215C58.1661 68.0389 57.9088 68.2962 57.5913 68.2962Z" fill="white"/>
<path d="M60.4263 68.2962C60.1088 68.2962 59.8516 68.0389 59.8516 67.7215V63.5628C59.8516 63.2453 60.1088 62.988 60.4263 62.988C60.7437 62.988 61.001 63.2453 61.001 63.5628V67.7215C61.0008 68.0389 60.7433 68.2962 60.4263 68.2962Z" fill="white"/>
<path d="M63.2622 68.2962C62.9448 68.2962 62.6875 68.0389 62.6875 67.7215V63.5628C62.6875 63.2453 62.9448 62.988 63.2622 62.988C63.5797 62.988 63.8369 63.2453 63.8369 63.5628V67.7215C63.8369 68.0389 63.5797 68.2962 63.2622 68.2962Z" fill="white"/>
<path d="M66.0987 68.2962C65.7814 68.2962 65.5239 68.0389 65.5239 67.7215V63.5628C65.5239 63.2453 65.7814 62.988 66.0987 62.988C66.4161 62.988 66.6734 63.2453 66.6734 63.5628V67.7215C66.6734 68.0389 66.4161 68.2962 66.0987 68.2962Z" fill="white"/>
<path d="M68.9282 68.2962C68.6108 68.2962 68.3535 68.0389 68.3535 67.7215V63.5628C68.3535 63.2453 68.6108 62.988 68.9282 62.988C69.2457 62.988 69.503 63.2453 69.503 63.5628V67.7215C69.503 68.0389 69.2457 68.2962 68.9282 68.2962Z" fill="white"/>
<path d="M71.7632 68.2962C71.4458 68.2962 71.1885 68.0389 71.1885 67.7215V63.5628C71.1885 63.2453 71.4458 62.988 71.7632 62.988C72.0806 62.988 72.3379 63.2453 72.3379 63.5628V67.7215C72.3379 68.0389 72.0806 68.2962 71.7632 68.2962Z" fill="white"/>
<path d="M74.5991 68.2962C74.2819 68.2962 74.0244 68.0389 74.0244 67.7215V63.5628C74.0244 63.2453 74.2819 62.988 74.5991 62.988C74.9166 62.988 75.1739 63.2453 75.1739 63.5628V67.7215C75.1739 68.0389 74.9166 68.2962 74.5991 68.2962Z" fill="white"/>
<path d="M77.4351 68.2962C77.1176 68.2962 76.8604 68.0389 76.8604 67.7215V63.5628C76.8604 63.2453 77.1176 62.988 77.4351 62.988C77.7523 62.988 78.0098 63.2453 78.0098 63.5628V67.7215C78.0098 68.0389 77.7527 68.2962 77.4351 68.2962Z" fill="white"/>
<path d="M80.2652 68.2962C79.9477 68.2962 79.6904 68.0389 79.6904 67.7215V63.5628C79.6904 63.2453 79.9477 62.988 80.2652 62.988C80.5826 62.988 80.8399 63.2453 80.8399 63.5628V67.7215C80.8399 68.0389 80.5826 68.2962 80.2652 68.2962Z" fill="white"/>
<path d="M83.1011 68.2962C82.7838 68.2962 82.5264 68.0389 82.5264 67.7215V63.5628C82.5264 63.2453 82.7838 62.988 83.1011 62.988C83.4185 62.988 83.6758 63.2453 83.6758 63.5628V67.7215C83.6758 68.0389 83.4185 68.2962 83.1011 68.2962Z" fill="white"/>
<path d="M82.2297 60.0839H79.4571C79.1396 60.0839 78.8823 59.8267 78.8823 59.5092V49.1751C78.8823 48.8576 79.1396 48.6003 79.4571 48.6003H82.2297C82.5472 48.6003 82.8044 48.8576 82.8044 49.1751V59.5092C82.8044 59.8267 82.5472 60.0839 82.2297 60.0839ZM80.0318 58.9345H81.655V49.7498H80.0318V58.9345Z" fill="white"/>
<path d="M75.4238 60.0836H72.6509C72.3335 60.0836 72.0762 59.8263 72.0762 59.5089V43.9656C72.0762 43.6482 72.3335 43.3909 72.6509 43.3909H75.4238C75.741 43.3909 75.9985 43.6482 75.9985 43.9656V59.5089C75.9985 59.8263 75.7414 60.0836 75.4238 60.0836ZM73.226 58.9341H74.8494V44.5403H73.226V58.9341Z" fill="#141517"/>
<path d="M68.619 60.084H65.8467C65.5293 60.084 65.272 59.8267 65.272 59.5093V46.0664C65.272 45.749 65.5293 45.4917 65.8467 45.4917H68.619C68.9364 45.4917 69.1937 45.749 69.1937 46.0664V59.5093C69.1937 59.8267 68.9364 60.084 68.619 60.084ZM66.4214 58.9345H68.0443V46.6412H66.4214V58.9345Z" fill="white"/>
<path d="M61.812 60.0839H59.0396C58.7221 60.0839 58.4648 59.8266 58.4648 59.5091V51.7373C58.4648 51.4199 58.7221 51.1626 59.0396 51.1626H61.812C62.1293 51.1626 62.3868 51.4199 62.3868 51.7373V59.5091C62.3868 59.8266 62.1295 60.0839 61.812 60.0839ZM59.6143 58.9344H61.2373V52.312H59.6143V58.9344Z" fill="#141517"/>
<path d="M55.008 60.0836H52.2354C51.9179 60.0836 51.6606 59.8263 51.6606 59.5089V43.9656C51.6606 43.6482 51.9179 43.3909 52.2354 43.3909H55.008C55.3255 43.3909 55.5828 43.6482 55.5828 43.9656V59.5089C55.5828 59.8263 55.3253 60.0836 55.008 60.0836ZM52.8101 58.9341H54.4333V44.5403H52.8101V58.9341Z" fill="#141517"/>
<path d="M48.2019 60.0839H45.4292C45.1118 60.0839 44.8545 59.8267 44.8545 59.5092V49.1751C44.8545 48.8576 45.1118 48.6003 45.4292 48.6003H48.2019C48.5193 48.6003 48.7766 48.8576 48.7766 49.1751V59.5092C48.7766 59.8267 48.5193 60.0839 48.2019 60.0839ZM46.0039 58.9345H47.6272V49.7498H46.0039V58.9345Z" fill="white"/>
<path d="M41.4016 60.0842H38.6289C38.3115 60.0842 38.0542 59.8269 38.0542 59.5095V52.7041C38.0542 52.3867 38.3115 52.1294 38.6289 52.1294H41.4016C41.719 52.1294 41.9763 52.3867 41.9763 52.7041V59.5095C41.9763 59.8269 41.719 60.0842 41.4016 60.0842ZM39.2037 58.9347H40.8269V53.2788H39.2037V58.9347Z" fill="#141517"/>
<path d="M91.587 86.7539H52.7365C52.419 86.7539 52.1617 86.4966 52.1617 86.1791C52.1617 85.8619 52.419 85.6044 52.7365 85.6044H91.5868C93.4067 85.6044 94.8874 84.1237 94.8874 82.3037V37.5387C94.8874 35.7188 93.4067 34.2381 91.5868 34.2381H64.0733C63.7561 34.2381 63.4986 33.9808 63.4986 33.6633C63.4986 33.3459 63.7561 33.0886 64.0733 33.0886H91.5866C94.0407 33.0886 96.0367 35.0848 96.0367 37.5387V82.3037C96.0369 84.7576 94.0407 86.7539 91.587 86.7539ZM43.1577 86.7539H29.4198C26.9659 86.7539 24.9697 84.7576 24.9697 82.3037V37.5387C24.9697 35.085 26.9661 33.0886 29.4198 33.0886H54.508C54.8254 33.0886 55.0827 33.3459 55.0827 33.6633C55.0827 33.9808 54.8254 34.2381 54.508 34.2381H29.4196C27.5997 34.2381 26.119 35.7188 26.119 37.5387V82.3037C26.119 84.1237 27.5997 85.6044 29.4196 85.6044H43.1575C43.4749 85.6044 43.7322 85.8619 43.7322 86.1791C43.7322 86.4966 43.4749 86.7539 43.1577 86.7539Z" fill="white"/>
<path d="M91.4863 74.7186H32.2353C31.9178 74.7186 31.6605 74.4613 31.6605 74.1439C31.6605 73.8266 31.9178 73.5691 32.2353 73.5691H90.9115V38.1819H29.9463V67.4286C29.9463 67.746 29.689 68.0033 29.3716 68.0033C29.0542 68.0033 28.7969 67.746 28.7969 67.4286V37.6072C28.7969 37.2898 29.0542 37.0325 29.3716 37.0325H91.4863C91.8037 37.0325 92.061 37.2898 92.061 37.6072V74.1439C92.061 74.4613 91.8037 74.7186 91.4863 74.7186Z" fill="white"/>
<path d="M46.0189 41.5159H33.2481C32.9306 41.5159 32.6733 41.2586 32.6733 40.9412C32.6733 40.6237 32.9306 40.3665 33.2481 40.3665H46.0189C46.3363 40.3665 46.5936 40.6237 46.5936 40.9412C46.5936 41.2586 46.3363 41.5159 46.0189 41.5159Z" fill="white"/>
<path d="M46.0189 43.784H33.2481C32.9306 43.784 32.6733 43.5267 32.6733 43.2092C32.6733 42.8918 32.9306 42.6345 33.2481 42.6345H46.0189C46.3363 42.6345 46.5936 42.8918 46.5936 43.2092C46.5936 43.5267 46.3363 43.784 46.0189 43.784Z" fill="white"/>
<path d="M46.0189 46.0528H33.2481C32.9306 46.0528 32.6733 45.7955 32.6733 45.478C32.6733 45.1606 32.9306 44.9033 33.2481 44.9033H46.0189C46.3363 44.9033 46.5936 45.1606 46.5936 45.478C46.5936 45.7955 46.3363 46.0528 46.0189 46.0528Z" fill="white"/>
<path d="M71.7824 99.377C71.7813 99.3772 71.7798 99.3772 71.7784 99.377H49.2202C49.0421 99.377 48.8739 99.2941 48.765 99.1529C48.6562 99.0121 48.6191 98.8284 48.6645 98.6557L51.9887 86.0317C52.0552 85.7794 52.2833 85.6035 52.5444 85.6035H68.4603C68.7213 85.6035 68.9498 85.7796 69.0159 86.0321L72.3181 98.5923C72.3436 98.6573 72.3574 98.728 72.3574 98.8021C72.3572 99.1199 72.1001 99.377 71.7824 99.377ZM49.9658 98.2276H71.0336L68.0168 86.753H52.9874L49.9658 98.2276Z" fill="#141517"/>
<path d="M81.7571 102.449H39.25C38.9326 102.449 38.6753 102.192 38.6753 101.874V98.8028C38.6753 98.4853 38.9326 98.228 39.25 98.228H81.7571C82.0746 98.228 82.3319 98.4853 82.3319 98.8028V101.874C82.3319 102.192 82.0746 102.449 81.7571 102.449ZM39.8247 101.3H81.1824V99.3775H39.8247V101.3Z" fill="#141517"/>
<path d="M60.4994 84.1753C59.3775 84.1753 58.4648 83.2605 58.4648 82.1358C58.4648 81.0141 59.3775 80.1011 60.4994 80.1011C61.6243 80.1011 62.5393 81.0141 62.5393 82.1358C62.5393 83.2605 61.6243 84.1753 60.4994 84.1753ZM60.4994 81.2503C60.0114 81.2503 59.6143 81.6473 59.6143 82.1356C59.6143 82.6266 60.0114 83.0257 60.4994 83.0257C60.9904 83.0257 61.3898 82.6264 61.3898 82.1356C61.3898 81.6479 60.9904 81.2503 60.4994 81.2503Z" fill="#141517"/>
<path d="M21.5742 53.9868C21.2568 53.9868 20.9995 53.7295 20.9995 53.4121V34.2248C20.9995 31.528 23.1936 29.3339 25.8906 29.3339H36.9179C37.2353 29.3339 37.4926 29.5912 37.4926 29.9087C37.4926 30.2261 37.2353 30.4834 36.9179 30.4834H25.8906C23.8274 30.4834 22.149 32.1618 22.149 34.2248V53.4121C22.149 53.7295 21.8917 53.9868 21.5742 53.9868ZM99.4262 42.9124C99.1088 42.9124 98.8515 42.6551 98.8515 42.3377V34.2247C98.8515 32.1616 97.1729 30.4832 95.1098 30.4832C94.7924 30.4832 94.5351 30.2259 94.5351 29.9085C94.5351 29.591 94.7924 29.3337 95.1098 29.3337C97.8068 29.3337 100.001 31.5279 100.001 34.2247V42.3377C100.001 42.6551 99.7439 42.9124 99.4262 42.9124Z" fill="#141517"/>
<path d="M72.7506 34.2383C72.4977 34.2383 72.2659 34.0699 72.1961 33.8141C72.0835 33.3998 71.9525 32.9988 71.8057 32.622C71.7143 32.3875 71.7864 32.1208 71.9835 31.9641L75.4087 29.2368L74.6535 27.9259L70.5779 29.5299C70.3442 29.6217 70.0783 29.5516 69.92 29.3562C69.3856 28.6941 68.7673 28.0759 68.0826 27.5188C67.8882 27.3609 67.819 27.0956 67.9108 26.8626L69.5145 22.7871L68.2031 22.0313L65.4761 25.4519C65.3203 25.6477 65.0548 25.7203 64.8209 25.6302C64.0132 25.3205 63.1697 25.0959 62.313 24.963C62.0643 24.9245 61.8699 24.7287 61.8327 24.48L61.1865 20.1495H59.6719L59.0208 24.4806C58.9834 24.7289 58.7891 24.9243 58.541 24.963C57.6866 25.0965 56.8445 25.321 56.0381 25.6302C55.804 25.7201 55.5393 25.6477 55.3831 25.4523L52.6511 22.0315L51.3441 22.7867L52.9436 26.863C53.035 27.0958 52.9653 27.3609 52.7714 27.5188C52.0819 28.0797 51.4662 28.697 50.9411 29.3541C50.7838 29.5508 50.5165 29.6223 50.2819 29.5299L46.2005 27.9255L45.445 29.2366L48.8703 31.9637C49.0675 32.1206 49.1393 32.3875 49.0477 32.6223C48.9887 32.7735 48.932 32.9292 48.8782 33.0884H69.1254C69.4426 33.0884 69.7001 33.3457 69.7001 33.6632C69.7001 33.9806 69.4426 34.2379 69.1254 34.2379H48.1027C47.9236 34.2379 47.7548 34.1544 47.6462 34.0122C47.5375 33.8699 47.5011 33.6852 47.5481 33.5124C47.6328 33.2009 47.727 32.8969 47.8293 32.6041L44.3423 29.8278C44.1198 29.6506 44.0603 29.3376 44.2024 29.0912L45.4521 26.9226C45.594 26.676 45.8955 26.5707 46.1603 26.6747L50.3152 28.3079C50.7399 27.8125 51.2114 27.3404 51.7229 26.8983L50.0939 22.7463C49.9901 22.4817 50.0953 22.1809 50.3414 22.0388L52.5045 20.7889C52.7507 20.647 53.0637 20.7056 53.2411 20.928L56.0236 24.4122C56.65 24.1944 57.2937 24.0227 57.946 23.8995L58.6091 19.4893C58.6514 19.2081 58.893 19 59.1775 19H61.6823C61.967 19 62.2088 19.2084 62.2507 19.4899L62.9088 23.8992C63.5626 24.022 64.208 24.1938 64.836 24.412L67.6133 20.9284C67.7905 20.7062 68.1033 20.647 68.3499 20.7887L70.5183 22.0386C70.7649 22.1807 70.8705 22.4821 70.7662 22.747L69.1325 26.8986C69.6415 27.3389 70.1141 27.8109 70.5432 28.3086L74.6943 26.6749C74.9592 26.5703 75.2604 26.6758 75.4027 26.9226L76.6524 29.0912C76.794 29.3376 76.7348 29.6506 76.5125 29.8278L73.0253 32.6045C73.128 32.8984 73.222 33.2024 73.3063 33.5126C73.3899 33.8189 73.2088 34.1346 72.9029 34.218C72.8513 34.2318 72.8006 34.2383 72.7506 34.2383Z" fill="#141517"/>
</svg>
