<svg width="121" height="121" viewBox="0 0 121 121" fill="none" xmlns="http://www.w3.org/2000/svg">
<path d="M25.8398 71.7146C25.8086 71.7146 25.7754 71.7126 25.7422 71.7068C25.4609 71.658 25.2559 71.416 25.2559 71.1287V26.5974C25.2559 26.4431 25.3184 26.2927 25.4277 26.1833C25.5352 26.074 25.6875 26.0115 25.8418 26.0115H86.8672C87.0215 26.0115 87.1719 26.074 87.2811 26.1833C87.3906 26.2927 87.4531 26.4431 87.4531 26.5974V33.9314C87.4531 34.2556 87.1893 34.5173 86.8672 34.5173C86.543 34.5173 86.2813 34.2556 86.2813 33.9314V27.1835H26.4277V67.7109L26.4941 67.5234C26.5762 67.2892 26.7988 67.1308 27.0469 67.1308C27.1133 67.1308 27.1777 67.1427 27.2422 67.166C27.4727 67.246 27.6289 67.4667 27.6328 67.7109C27.6328 67.7794 27.623 67.8476 27.5996 67.914L26.3945 71.3242C26.3105 71.5585 26.0898 71.7146 25.8398 71.7146ZM28.3477 64.621C28.2813 64.621 28.2148 64.6093 28.1523 64.5878C27.8477 64.4804 27.6875 64.1445 27.7949 63.8398C27.877 63.6054 28.0996 63.4492 28.3477 63.4492C28.4141 63.4492 28.4805 63.4609 28.543 63.4824C28.8477 63.5898 29.0078 63.9257 28.9004 64.2304C28.8184 64.4628 28.5957 64.621 28.3477 64.621ZM29.6484 60.9374C29.582 60.9374 29.5176 60.9257 29.4531 60.9042C29.3066 60.8515 29.1875 60.746 29.1211 60.6035C29.0527 60.4628 29.0449 60.3046 29.0957 60.1562L38.1074 34.6484C38.1895 34.416 38.4121 34.2578 38.6602 34.2578H79.9668C80.2889 34.2578 80.5527 34.5214 80.5527 34.8437C80.5527 35.1679 80.2889 35.4296 79.9668 35.4296H39.0742L30.2012 60.5468C30.1191 60.7812 29.8965 60.9374 29.6484 60.9374ZM83.8731 35.4296C83.5488 35.4296 83.2871 35.1679 83.2871 34.8437C83.2871 34.5214 83.5488 34.2578 83.8731 34.2578C84.1951 34.2578 84.459 34.5214 84.459 34.8437C84.459 35.1679 84.1953 35.4296 83.8731 35.4296Z" fill="white"/>
<path d="M41.8435 71.7166C41.5193 71.7166 41.2576 71.4528 41.2576 71.1307C41.2576 70.8065 41.5193 70.5448 41.8435 70.5448H86.4509L94.0878 48.9315C94.1699 48.6971 94.3906 48.5408 94.6386 48.5408C94.705 48.5408 94.7714 48.5506 94.8339 48.574C95.1288 48.6776 95.2888 48.994 95.2011 49.2928C95.199 49.3026 95.1953 49.3123 95.1912 49.3221L87.4197 71.3239C87.3355 71.5582 87.1148 71.7145 86.8669 71.7145L41.8435 71.7166ZM37.9372 71.7145C37.613 71.7145 37.3513 71.4528 37.3513 71.1307C37.3513 70.8065 37.613 70.5448 37.9372 70.5448C38.2595 70.5448 38.5232 70.8065 38.5232 71.1307C38.5232 71.453 38.2595 71.7145 37.9372 71.7145ZM34.031 71.7145H25.8415C25.6521 71.7145 25.4724 71.6227 25.363 71.4684C25.2536 71.3121 25.2263 71.1129 25.2888 70.9332L38.1072 34.6481C38.1892 34.4157 38.4119 34.2594 38.6599 34.2594H99.6831C99.8728 34.2594 100.052 34.3512 100.162 34.5055C100.271 34.6617 100.3 34.861 100.236 35.0387L97.7945 41.9547C97.7105 42.1891 97.4898 42.3453 97.2417 42.3453C97.1753 42.3453 97.1089 42.3336 97.0464 42.3121C96.898 42.2594 96.779 42.1539 96.7124 42.0114C96.6441 41.8707 96.6363 41.7125 96.6892 41.5641L98.8552 35.4293H39.074L26.6697 70.5448H34.031C34.3533 70.5448 34.6169 70.8065 34.6169 71.1307C34.6169 71.4334 34.3786 71.6912 34.0759 71.7145C34.0603 71.7145 34.0447 71.7145 34.031 71.7145ZM95.9411 46.0291H95.939C95.8726 46.0291 95.8081 46.0174 95.7437 45.9959C95.5972 45.9432 95.4783 45.8377 95.4119 45.6951C95.3433 45.5545 95.3355 45.3963 95.3884 45.2479C95.4704 45.0135 95.6911 44.8573 95.939 44.8573C96.0056 44.8573 96.072 44.867 96.1343 44.8905C96.4392 44.9979 96.5994 45.3338 96.4917 45.6385C96.4099 45.8709 96.1872 46.0291 95.9411 46.0291Z" fill="white"/>
<path d="M52.9297 27.1836H31C30.8457 27.1836 30.6934 27.1211 30.5859 27.0117C30.4766 26.9023 30.4141 26.752 30.4141 26.5977V19.5859C30.4141 19.4316 30.4766 19.2812 30.5859 19.1719C30.6934 19.0625 30.8437 19 31 19H46.5898C46.7559 19 46.9141 19.0703 47.0254 19.1934L53.3633 26.2051C53.5195 26.377 53.5586 26.623 53.4648 26.8359C53.3711 27.0469 53.1602 27.1836 52.9297 27.1836ZM31.5859 26.0117H51.6094L46.3301 20.1719H31.5859V26.0117Z" fill="white"/>
<path d="M80.9979 35.4294H52.5254C52.2031 35.4294 51.9395 35.1677 51.9395 34.8455C51.9395 34.5212 52.2031 34.2595 52.5254 34.2595H80.4121V31.8298H45.2988V34.8455C45.2988 35.1677 45.0352 35.4294 44.7129 35.4294C44.3906 35.4294 44.127 35.1677 44.127 34.8455V31.2439C44.127 31.0896 44.1895 30.9373 44.2988 30.8279C44.4082 30.7205 44.5586 30.658 44.7129 30.658H80.9981C81.1523 30.658 81.3029 30.7205 81.4121 30.8298C81.5217 30.9373 81.584 31.0896 81.584 31.2439V34.8455C81.584 34.9998 81.5234 35.1482 81.4121 35.2595C81.3008 35.3689 81.1543 35.4294 80.9979 35.4294ZM48.6191 35.4294C48.2969 35.4294 48.0332 35.1677 48.0332 34.8455C48.0332 34.5212 48.2969 34.2595 48.6191 34.2595C48.9414 34.2595 49.2051 34.5212 49.2051 34.8455C49.2051 35.1677 48.9414 35.4294 48.6191 35.4294Z" fill="#FF4D40"/>
<path d="M88.9355 42.1935H43.168C42.8457 42.1935 42.582 41.9318 42.582 41.6095C42.582 41.2853 42.8457 41.0236 43.168 41.0236H88.9355C89.2576 41.0236 89.5215 41.2853 89.5215 41.6095C89.5215 41.9318 89.2576 42.1935 88.9355 42.1935Z" fill="white"/>
<path d="M37.0586 101.279H24.3164C24.1602 101.279 24.0098 101.217 23.9004 101.109C23.793 101 23.7305 100.848 23.7305 100.693V87.9511C23.7305 87.7968 23.793 87.6444 23.9004 87.5348C24.0098 87.4274 24.1621 87.3651 24.3164 87.3651H37.0586C37.2129 87.3651 37.3652 87.4274 37.4727 87.537C37.582 87.6444 37.6445 87.7968 37.6445 87.9511V100.693C37.6445 100.851 37.584 100.998 37.4727 101.109C37.3633 101.219 37.2168 101.279 37.0586 101.279ZM24.9023 100.107H36.4727V88.537H24.9023V100.107Z" fill="#FF4D40"/>
<path d="M62.7266 97.3025H49.9824C49.8281 97.3025 49.6777 97.24 49.5684 97.1306C49.459 97.021 49.3965 96.8708 49.3965 96.7166V83.9724C49.3965 83.8181 49.459 83.6675 49.5684 83.5584C49.6758 83.4488 49.8281 83.3865 49.9824 83.3865H62.7266C62.8809 83.3865 63.0314 83.4488 63.1406 83.5584C63.248 83.6677 63.3105 83.8181 63.3105 83.9724V96.7166C63.3105 96.8728 63.25 97.0193 63.1406 97.1306C63.0291 97.24 62.8826 97.3025 62.7266 97.3025ZM50.5684 96.1285H62.1406V84.5583H50.5684V96.1285Z" fill="#FF4D40"/>
<path d="M88.3926 101.279H75.6484C75.4941 101.279 75.3438 101.217 75.2344 101.109C75.125 101 75.0625 100.848 75.0625 100.693V87.9511C75.0625 87.7968 75.125 87.6462 75.2344 87.5348C75.3439 87.4274 75.4941 87.3651 75.6484 87.3651H88.3926C88.5469 87.3651 88.6973 87.4274 88.8066 87.537C88.916 87.6444 88.9785 87.7968 88.9785 87.9511V100.693C88.9785 100.851 88.918 100.998 88.8066 101.109C88.6953 101.219 88.5488 101.279 88.3926 101.279ZM76.2344 100.107H87.8066V88.537H76.2344V100.107Z" fill="#FF4D40"/>
<path d="M56.3574 84.5584C56.0332 84.5584 55.7715 84.2945 55.7715 83.9725V71.1285C55.7715 70.8065 56.0332 70.5426 56.3574 70.5426C56.6797 70.5426 56.9434 70.8065 56.9434 71.1285V83.9725C56.9434 84.2947 56.6797 84.5584 56.3574 84.5584Z" fill="#FF4D40"/>
<path d="M30.6914 88.5371C30.3672 88.5371 30.1055 88.2732 30.1055 87.9512V78.3086C30.1055 78.1521 30.168 78.002 30.2773 77.8926C30.3848 77.785 30.5371 77.7227 30.6914 77.7227H56.3574C56.6797 77.7227 56.9434 77.9844 56.9434 78.3086C56.9434 78.6307 56.6797 78.8924 56.3574 78.8924H31.2773V87.9512C31.2773 88.2734 31.0137 88.5371 30.6914 88.5371Z" fill="#FF4D40"/>
<path d="M82.0176 88.5371C81.6953 88.5371 81.4316 88.2732 81.4316 87.9512V78.8924L56.3574 78.8945C56.0332 78.8945 55.7715 78.6307 55.7715 78.3086C55.7715 77.9844 56.0332 77.7227 56.3574 77.7227H82.0176C82.1719 77.7227 82.3223 77.785 82.4316 77.8926C82.541 78.002 82.6035 78.1543 82.6035 78.3086V87.9473C82.6035 87.9492 82.6035 87.9492 82.6035 87.9514C82.6035 88.2734 82.3398 88.5371 82.0176 88.5371Z" fill="#FF4D40"/>
<path d="M30.6914 98.3141C30.5371 98.3141 30.3848 98.2516 30.2754 98.1422L26.873 94.7399C26.7637 94.6303 26.7012 94.4782 26.7012 94.3239C26.7012 94.1696 26.7637 94.019 26.873 93.9098L30.2754 90.5075C30.498 90.2846 30.8828 90.2846 31.1055 90.5075L34.5078 93.9098C34.6191 94.021 34.6797 94.1674 34.6797 94.3239C34.6797 94.4821 34.6191 94.6286 34.5078 94.7399L31.1055 98.1422C30.9961 98.2516 30.8457 98.3141 30.6914 98.3141ZM28.1152 94.3239L30.6914 96.8999L33.2656 94.3239L30.6914 91.7495L28.1152 94.3239Z" fill="#FF4D40"/>
<path d="M82.0193 98.3142H82.0173C81.8589 98.3142 81.7125 98.2537 81.6033 98.1423L78.2048 94.74C77.9763 94.5093 77.9783 94.1384 78.2048 93.9119L81.6033 90.5076C81.8199 90.2888 82.2146 90.2888 82.4314 90.5076L85.8357 93.9099C85.9451 94.0211 86.0076 94.1675 86.0076 94.3259C86.0076 94.4822 85.9451 94.6287 85.8357 94.74L82.4314 98.1423C82.3201 98.2537 82.1736 98.3142 82.0193 98.3142ZM79.447 94.324L82.0173 96.9L84.5916 94.3257L82.0173 91.7496L79.447 94.324Z" fill="#FF4D40"/>
<path d="M56.3574 90.9277C56.2012 90.9277 56.0527 90.8671 55.9434 90.7558C55.832 90.6445 55.7715 90.498 55.7715 90.3418C55.7715 90.1835 55.832 90.0371 55.9434 89.9277L62.3125 83.5587C62.5332 83.3359 62.9182 83.3359 63.1406 83.5587C63.3691 83.7873 63.3691 84.1582 63.1406 84.3869L56.7715 90.7558C56.6602 90.8652 56.5137 90.9277 56.3574 90.9277Z" fill="#FF4D40"/>
<path d="M56.3569 90.9277C56.2007 90.9277 56.0522 90.8671 55.9429 90.7558L49.5679 84.3869C49.3394 84.1582 49.3394 83.7873 49.5679 83.5587C49.7886 83.3359 50.1733 83.3359 50.396 83.5587L56.771 89.9277C56.9995 90.1543 56.9995 90.5273 56.771 90.7558C56.6597 90.8671 56.5132 90.9277 56.3569 90.9277Z" fill="#FF4D40"/>
<path d="M49.9819 97.3028C49.8257 97.3028 49.6772 97.2403 49.5679 97.1309C49.3394 96.9022 49.3394 96.5294 49.5679 96.3008L55.9429 89.9276C56.1636 89.705 56.5483 89.705 56.771 89.9276C56.9995 90.1561 56.9995 90.5272 56.771 90.7557L50.396 97.1309C50.2847 97.2403 50.1382 97.3028 49.9819 97.3028Z" fill="#FF4D40"/>
<path d="M62.727 97.3028C62.5688 97.3028 62.4224 97.2403 62.311 97.1309L55.9438 90.7557C55.7153 90.5272 55.7153 90.1542 55.9438 89.9276C56.1646 89.705 56.5513 89.705 56.772 89.9276L63.1411 96.3028C63.3696 96.5313 63.3677 96.9022 63.1411 97.1309C63.0296 97.2403 62.8831 97.3028 62.727 97.3028Z" fill="#FF4D40"/>
<path d="M30.9688 75.6932H21.5859C21.4316 75.6932 21.2793 75.6309 21.1719 75.5214C21.0625 75.4139 21 75.2616 21 75.1073V46.4393C21 46.1171 21.2617 45.8534 21.5859 45.8534C21.9082 45.8534 22.1719 46.1171 22.1719 46.4393V74.5214H30.9688C31.291 74.5214 31.5547 74.7852 31.5547 75.1073C31.5547 75.4315 31.291 75.6932 30.9688 75.6932Z" fill="white"/>
<path d="M90.1953 30.8966C89.873 30.8966 89.6094 30.6329 89.6094 30.3107V22.045H71.6094C71.2852 22.045 71.0234 21.7814 71.0234 21.4591C71.0234 21.1349 71.2852 20.8732 71.6094 20.8732H90.1953C90.3496 20.8732 90.5018 20.9357 90.6092 21.045C90.7188 21.1525 90.7812 21.3048 90.7812 21.4591V30.3107C90.7812 30.6329 90.5193 30.8966 90.1953 30.8966Z" fill="white"/>
</svg>
