<svg width="121" height="121" viewBox="0 0 121 121" fill="none" xmlns="http://www.w3.org/2000/svg">
<path d="M51.8545 86.3023C51.5013 86.3023 51.2161 86.0172 51.2161 85.664C51.2161 85.3128 51.5013 85.0256 51.8545 85.0256H91.6814V51.6677C91.6814 51.3166 91.9689 51.0293 92.3198 51.0293C92.6709 51.0293 92.9581 51.3145 92.9581 51.6656V51.6677C92.9581 51.6762 92.9581 51.6826 92.9581 51.6911V85.664C92.9581 85.8342 92.8922 85.9959 92.773 86.1172C92.6519 86.2366 92.49 86.3023 92.3198 86.3023H51.8545ZM47.5986 86.3023C47.2454 86.3023 46.9602 86.0172 46.9602 85.664C46.9602 85.3128 47.2454 85.0256 47.5986 85.0256C47.9497 85.0256 48.237 85.3128 48.237 85.664C48.237 86.0172 47.9497 86.3023 47.5986 86.3023ZM43.3427 86.3023H32.488C32.3199 86.3023 32.156 86.2342 32.0369 86.1172C31.9177 85.9959 31.8496 85.8321 31.8496 85.664V28.5262C31.8496 28.3581 31.9177 28.1921 32.0369 28.0751C32.1539 27.9559 32.3199 27.8878 32.488 27.8878H92.3198C92.4879 27.8878 92.6538 27.9559 92.773 28.0751C92.8903 28.1921 92.9581 28.3581 92.9581 28.5262C92.9581 33.3247 92.9581 38.0254 92.9581 43.1602C92.9581 43.5134 92.673 43.8007 92.3198 43.8007C91.9689 43.8007 91.6814 43.5134 91.6814 43.1602V29.1646H33.1264V85.0256H43.3427C43.6938 85.0256 43.9811 85.3128 43.9811 85.664C43.9811 86.0172 43.6938 86.3023 43.3427 86.3023ZM92.3198 48.0523C91.9689 48.0523 91.6814 47.7672 91.6814 47.4139C91.6814 47.0628 91.9689 46.7756 92.3198 46.7756C92.6709 46.7756 92.9581 47.0607 92.9581 47.4118V47.4139C92.9581 47.7672 92.673 48.0523 92.3198 48.0523Z" fill="white"/>
<path d="M31.7133 78.4395H28.2341C28.066 78.4395 27.9021 78.3716 27.783 78.2522C27.6638 78.1331 27.5957 77.9692 27.5957 77.8011V24.6384C27.5957 24.4703 27.6638 24.3064 27.783 24.1873C27.9021 24.0681 28.066 24 28.2341 24H86.3826C86.5507 24 86.7146 24.0681 86.8335 24.1873C86.9529 24.3064 87.021 24.4703 87.021 24.6384V28.5262C87.021 28.6964 86.9548 28.856 86.8335 28.9773C86.7125 29.0965 86.5529 29.1646 86.3826 29.1646H73.9383C73.5872 29.1646 73.3 28.8773 73.3 28.5262C73.3 28.1729 73.5872 27.8878 73.9383 27.8878H85.7442V25.2768H28.8725V77.1627H31.7133C32.0644 77.1627 32.3517 77.4479 32.3517 77.8011C32.3517 78.1418 32.0857 78.4203 31.7452 78.4374C31.7346 78.4395 31.7239 78.4395 31.7133 78.4395ZM32.4879 74.9582C32.1346 74.9582 31.8495 74.6707 31.8495 74.3198C31.8495 73.9665 32.1346 73.6814 32.4879 73.6814C32.839 73.6814 33.1263 73.9665 33.1263 74.3198C33.1263 74.6709 32.839 74.9582 32.4879 74.9582ZM32.4879 70.7023C32.1346 70.7023 31.8495 70.4148 31.8495 70.0639V28.5262C31.8495 28.3581 31.9176 28.1921 32.0367 28.075C32.1538 27.9559 32.3198 27.8878 32.4879 27.8878H65.4265C65.7798 27.8878 66.0649 28.1729 66.0649 28.5262C66.0649 28.8773 65.7798 29.1646 65.4265 29.1646H33.1263V70.0639C33.1263 70.415 32.839 70.7023 32.4879 70.7023ZM69.6824 29.1646C69.3313 29.1646 69.044 28.8773 69.044 28.5262C69.044 28.1729 69.3313 27.8878 69.6824 27.8878C70.0357 27.8878 70.3208 28.1729 70.3208 28.5262C70.3208 28.8773 70.0357 29.1646 69.6824 29.1646Z" fill="white"/>
<path d="M80.8741 77.1732C80.5209 77.1732 80.2357 76.888 80.2357 76.5348C80.2357 76.1839 80.5209 75.8964 80.8741 75.8964C81.2252 75.8964 81.5125 76.1839 81.5125 76.5348C81.5125 76.8882 81.2252 77.1732 80.8741 77.1732ZM76.6182 77.1732H42.9646C42.7965 77.1732 42.6326 77.1053 42.5134 76.9859C42.3943 76.8689 42.3262 76.7029 42.3262 76.5348V37.6551C42.3262 37.487 42.3943 37.321 42.5134 37.2019C42.6326 37.0848 42.7965 37.0167 42.9646 37.0167H81.8444C82.0126 37.0167 82.1783 37.0848 82.2977 37.2019C82.4147 37.321 82.4828 37.4849 82.4828 37.6551L82.485 73.2516C82.485 73.6027 82.1977 73.8899 81.8444 73.8899C81.4933 73.8899 81.2082 73.6027 81.2082 73.2516V38.2935H43.6029V75.8964H76.6182C76.9693 75.8964 77.2566 76.1839 77.2566 76.5348C77.2566 76.884 76.9821 77.1647 76.6352 77.1732H76.6182Z" fill="white"/>
<path d="M62.4052 71.8917C60.4071 71.8917 58.4685 71.5002 56.6448 70.7299C54.8829 69.9851 53.2997 68.9167 51.9399 67.5592C50.5823 66.1995 49.5141 64.6163 48.7693 62.8543C47.999 61.0309 47.6074 59.0921 47.6074 57.0961C47.6074 54.3808 48.348 51.7272 49.7503 49.4184C49.8673 49.2269 50.0716 49.112 50.2972 49.112C50.4121 49.112 50.527 49.1439 50.627 49.2035C50.927 49.3865 51.0249 49.7802 50.8419 50.0802C49.5609 52.1911 48.8842 54.6149 48.8842 57.0961C48.8842 60.7072 50.2908 64.1013 52.8443 66.6549C55.3979 69.2084 58.792 70.615 62.4052 70.615C66.0166 70.615 69.4105 69.2084 71.9663 66.6549C74.5175 64.1013 75.9243 60.7072 75.9243 57.0961C75.9243 53.4828 74.5178 50.0866 71.9663 47.5309C69.4105 44.9774 66.0142 43.5686 62.4052 43.5686C60.4624 43.5686 58.5877 43.973 56.8321 44.7667C56.8321 44.7667 56.8321 44.7688 56.83 44.7688C56.747 44.8071 56.6597 44.8263 56.5682 44.8263C56.3171 44.8263 56.0895 44.6773 55.9852 44.4496C55.949 44.3666 55.9277 44.2794 55.9277 44.1879C55.9277 43.9368 56.0746 43.7091 56.3044 43.6048C58.2259 42.7345 60.2773 42.2919 62.4052 42.2919C64.4012 42.2919 66.3398 42.6834 68.1656 43.4559C69.9275 44.2006 71.5086 45.2689 72.8684 46.6286C74.226 47.9884 75.2943 49.5716 76.039 51.3336C76.8115 53.1593 77.2009 55.0979 77.2009 57.0961C77.2009 59.0921 76.8115 61.0307 76.039 62.8543C75.2943 64.6184 74.2258 66.1997 72.8684 67.5592C71.5086 68.9169 69.9278 69.9851 68.1637 70.7299C66.3398 71.5002 64.401 71.8917 62.4052 71.8917ZM53.0124 47.133C52.8294 47.133 52.6571 47.0564 52.5358 46.918C52.4209 46.7925 52.3655 46.6286 52.3762 46.4584C52.3847 46.2882 52.4613 46.1328 52.5868 46.0201C52.5868 46.0179 52.589 46.0179 52.589 46.0179C52.8422 45.7924 53.2657 45.8179 53.4891 46.0711C53.604 46.1988 53.6593 46.3627 53.6487 46.5329C53.6402 46.7031 53.5636 46.8606 53.4359 46.9734C53.3189 47.0755 53.1678 47.133 53.0124 47.133Z" fill="#141517"/>
<path d="M57.1212 64.5511C56.9786 64.5511 56.8445 64.504 56.7317 64.417C56.453 64.2019 56.4019 63.7999 56.619 63.5211L67.18 49.8831C67.3883 49.6128 67.8054 49.5596 68.0759 49.7703C68.2121 49.8746 68.2972 50.0235 68.3185 50.1938C68.34 50.3619 68.2953 50.53 68.1908 50.664L57.6276 64.3021C57.5063 64.4594 57.3212 64.5511 57.1212 64.5511Z" fill="#141517"/>
<path d="M92.8983 97.0295H27.9167C27.5641 97.0295 27.2783 96.7437 27.2783 96.3911C27.2783 96.0385 27.5641 95.7527 27.9167 95.7527H92.8983C93.2509 95.7527 93.5367 96.0385 93.5367 96.3911C93.5367 96.7437 93.2509 97.0295 92.8983 97.0295Z" fill="#141517"/>
<path d="M67.6865 64.5509C67.4864 64.5509 67.3013 64.4592 67.18 64.302L56.619 50.6639C56.4019 50.3873 56.453 49.9851 56.7317 49.7702C57.002 49.5595 57.4191 49.6127 57.6276 49.8829L68.1908 63.521C68.2951 63.6551 68.3397 63.8232 68.3185 63.9934C68.2972 64.1615 68.2121 64.3126 68.0759 64.4169C67.9631 64.5039 67.829 64.5509 67.6865 64.5509Z" fill="#141517"/>
<path d="M85.8872 43.3091C85.534 43.3091 85.2465 43.0218 85.2465 42.6707V34.5079H75.2751C74.9219 34.5079 74.6367 34.2206 74.6367 33.8695C74.6367 33.5184 74.9219 33.2311 75.2751 33.2311H85.8872C86.053 33.2311 86.2192 33.2992 86.3384 33.4183C86.4554 33.5375 86.5233 33.7014 86.5233 33.8695L86.5256 42.6707C86.5256 43.0218 86.2383 43.3091 85.8872 43.3091Z" fill="white"/>
<path d="M38.9187 43.3091C38.5654 43.3091 38.2803 43.0218 38.2803 42.6707V33.8695C38.2803 33.7014 38.3462 33.5375 38.4654 33.4183C38.5846 33.2992 38.7484 33.2311 38.9187 33.2311H49.5329C49.8861 33.2311 50.1713 33.5184 50.1713 33.8695C50.1713 34.2227 49.8861 34.5079 49.5329 34.5079H39.5549V42.6707C39.5549 43.0218 39.2698 43.3091 38.9187 43.3091Z" fill="white"/>
<path d="M85.8849 80.9547H75.2751C74.9219 80.9547 74.6367 80.6672 74.6367 80.3163C74.6367 79.9631 74.9219 79.678 75.2751 79.678H85.2488V71.5194C85.2488 71.1683 85.534 70.881 85.8849 70.881C86.2381 70.881 86.5233 71.1683 86.5233 71.5194V80.3163C86.5233 80.4866 86.4573 80.6462 86.3383 80.7675C86.217 80.8885 86.0575 80.9547 85.8849 80.9547Z" fill="white"/>
<path d="M49.5329 80.9547H38.9187C38.7506 80.9547 38.5846 80.8866 38.4654 80.7675C38.3462 80.6481 38.2803 80.4844 38.2803 80.3163V71.5194C38.2803 71.1683 38.5654 70.881 38.9187 70.881C39.2698 70.881 39.5549 71.1683 39.5549 71.5194V79.678H49.5329C49.535 79.678 49.535 79.678 49.5372 79.678C49.8861 79.6801 50.1713 79.9652 50.1713 80.3163C50.1713 80.6672 49.8861 80.9547 49.5329 80.9547Z" fill="white"/>
</svg>
