<svg width="121" height="121" viewBox="0 0 121 121" fill="none" xmlns="http://www.w3.org/2000/svg">
<path d="M88.544 102.738H35.1074C34.7838 102.738 34.5215 102.476 34.5215 102.152V77.1708C34.5215 76.8471 34.7838 76.5848 35.1074 76.5848C35.4311 76.5848 35.6934 76.8471 35.6934 77.1708V101.566H87.9582V82.9138C87.9582 82.5901 88.2205 82.3278 88.5442 82.3278C88.8676 82.3278 89.1301 82.5901 89.1301 82.9138V102.152C89.1299 102.476 88.8678 102.738 88.544 102.738ZM88.544 73.7341C88.2203 73.7341 87.958 73.4718 87.958 73.1481V29.5145H35.6934V67.4052C35.6934 67.7288 35.4311 67.9911 35.1074 67.9911C34.7838 67.9911 34.5215 67.7288 34.5215 67.4052V28.9286C34.5215 28.605 34.7838 28.3427 35.1074 28.3427H88.5442C88.8676 28.3427 89.1301 28.605 89.1301 28.9286V73.1481C89.1299 73.4718 88.8678 73.7341 88.544 73.7341Z" fill="white"/>
<path d="M35.1076 98.5371H30.1623C29.8387 98.5371 29.5764 98.2746 29.5764 97.9512V72.976C29.5764 72.6523 29.8387 72.39 30.1623 72.39C30.4859 72.39 30.7482 72.6523 30.7482 72.976V97.3652H34.5217V30.2156C34.5217 29.892 34.784 29.6297 35.1076 29.6297C35.4312 29.6297 35.6936 29.892 35.6936 30.2156V97.9516C35.6936 98.275 35.4311 98.5371 35.1076 98.5371ZM30.1621 63.7963C29.8385 63.7963 29.5762 63.534 29.5762 63.2104V24.7217C29.5762 24.398 29.8385 24.1357 30.1621 24.1357H83.5988C83.9225 24.1357 84.1848 24.398 84.1848 24.7217V28.9287C84.1848 29.2523 83.9225 29.5146 83.5988 29.5146H43.5863C43.2627 29.5146 43.0004 29.2523 43.0004 28.9287C43.0004 28.6051 43.2627 28.3428 43.5863 28.3428H83.0129V25.3076H30.748V63.2106C30.748 63.534 30.4857 63.7963 30.1621 63.7963Z" fill="white"/>
<path d="M30.1621 94.5764H25.5859C25.2623 94.5764 25 94.3141 25 93.9905V69.0102C25 68.6867 25.2623 68.4242 25.5859 68.4242C25.9096 68.4242 26.1719 68.6867 26.1719 69.0102V93.4045H29.5762V25.8906C29.5762 25.567 29.8385 25.3047 30.1621 25.3047C30.4857 25.3047 30.748 25.567 30.748 25.8906V93.9905C30.748 94.3141 30.4857 94.5764 30.1621 94.5764ZM25.5861 59.8305C25.2625 59.8305 25.0002 59.5682 25.0002 59.2446V20.7672C25.0002 20.4436 25.2625 20.1813 25.5861 20.1813H79.0232C79.3469 20.1813 79.6092 20.4436 79.6092 20.7672V24.7219C79.6092 25.0455 79.3469 25.3078 79.0232 25.3078H38.759C38.4354 25.3078 38.173 25.0455 38.173 24.7219C38.173 24.3983 38.4354 24.136 38.759 24.136H78.4373V21.3531H26.1721V59.2446C26.1721 59.568 25.9096 59.8305 25.5861 59.8305Z" fill="white"/>
<path d="M62.9328 91.396H60.7182C60.4283 91.396 60.182 91.1841 60.1389 90.8976L59.5564 87.0408C59.0074 86.9357 58.4691 86.7915 57.9478 86.6103L55.5182 89.6564C55.3375 89.883 55.0182 89.9429 54.7674 89.7986L52.8482 88.6915C52.5969 88.5466 52.4896 88.2398 52.5957 87.9697L54.0221 84.34C53.6092 83.9812 53.2158 83.5872 52.8465 83.1634L49.2156 84.5904C48.9459 84.696 48.6387 84.5888 48.4938 84.3378L47.3871 82.4189C47.2424 82.1679 47.3027 81.8488 47.5293 81.6681L50.575 79.238C50.3936 78.7156 50.2494 78.1753 50.1443 77.6238L46.2883 77.0468C46.0014 77.0038 45.7891 76.7576 45.7891 76.4673V74.2472C45.7891 73.9572 46.0014 73.7107 46.2883 73.6677L50.1443 73.0908C50.2494 72.5396 50.3936 71.9997 50.5748 71.4773L47.5299 69.0529C47.3031 68.8722 47.2424 68.5529 47.3873 68.3017L48.4939 66.3829C48.6389 66.132 48.9455 66.0238 49.2158 66.1304L52.8451 67.5564C53.2133 67.1306 53.6072 66.7351 54.0223 66.3743L52.5959 62.7447C52.4898 62.4747 52.5971 62.1677 52.8484 62.0228L54.7676 60.9157C55.0186 60.7708 55.3377 60.8314 55.5184 61.0579L57.9494 64.1054C58.4811 63.9224 59.0189 63.7781 59.5566 63.674L60.1391 59.8226C60.1824 59.5361 60.4287 59.3243 60.7184 59.3243H62.933C63.2226 59.3243 63.4689 59.5361 63.5123 59.8226L64.0951 63.6736C64.6295 63.7769 65.1689 63.9216 65.7072 64.106L68.0144 61.2073C68.2162 60.9542 68.5851 60.9124 68.8379 61.1138C69.0912 61.3154 69.133 61.6839 68.9314 61.937L66.3623 65.1648C66.2033 65.3642 65.934 65.4378 65.6957 65.3478C64.9572 65.0671 64.2152 64.8689 63.4904 64.7579C63.2369 64.7193 63.0381 64.52 62.9996 64.2663L62.4289 60.496H61.2221L60.6519 64.2663C60.6137 64.5197 60.415 64.7187 60.1617 64.7579C59.4277 64.8708 58.6883 65.0691 57.9635 65.347C57.7246 65.4388 57.4549 65.365 57.2957 65.1654L54.9164 62.1829L53.8709 62.7859L55.267 66.3386C55.3607 66.5775 55.2885 66.8491 55.0887 67.0099C54.5072 67.4769 53.9662 68.0199 53.4805 68.6238C53.3199 68.8232 53.0482 68.8956 52.8096 68.8017L49.2566 67.406L48.6541 68.4507L51.6359 70.8247C51.8371 70.9847 51.9104 71.2574 51.8166 71.4968C51.5428 72.1956 51.3451 72.9355 51.2293 73.696C51.1906 73.9501 50.9908 74.1492 50.7367 74.1872L46.9607 74.7525V75.9628L50.7367 76.5279C50.9908 76.5658 51.1904 76.765 51.2293 77.0191C51.3453 77.78 51.543 78.5203 51.8168 79.2189C51.9103 79.4583 51.8375 79.7304 51.6367 79.8906L48.6541 82.2704L49.2568 83.3158L52.8098 81.9195C53.0473 81.8257 53.3182 81.8974 53.4791 82.0954C53.9687 82.699 54.5104 83.2406 55.0889 83.7052C55.2887 83.8658 55.3611 84.1376 55.2672 84.3765L53.8711 87.9294L54.9164 88.5326L57.2957 85.5497C57.4559 85.3492 57.7279 85.2759 57.9674 85.3697C58.666 85.6431 59.4041 85.841 60.1615 85.9576C60.415 85.9964 60.6137 86.1956 60.6519 86.4492L61.2223 90.2253H62.4287L62.9994 86.4492C63.0379 86.1954 63.2369 85.9962 63.4906 85.9574C64.2412 85.8429 64.9818 85.6449 65.6916 85.3691C65.9309 85.2759 66.2025 85.3495 66.3625 85.5503L68.7357 88.5324L69.7805 87.9296L68.3842 84.3767C68.2904 84.1378 68.3627 83.866 68.5627 83.7052C69.1527 83.2314 69.6967 82.69 70.1791 82.0956C70.34 81.8974 70.6111 81.8257 70.8486 81.9199L74.3961 83.3162L75.0029 82.2701L72.0213 79.891C71.8219 79.732 71.7484 79.4618 71.8394 79.2236C72.1092 78.5193 72.3074 77.7763 72.4295 77.0152C72.4697 76.763 72.6687 76.566 72.9213 76.5283L76.6906 75.9634V74.7527L72.9213 74.1876C72.6687 74.1499 72.4697 73.9529 72.4295 73.7007C72.3074 72.9386 72.109 72.1958 71.8396 71.4933C71.748 71.2546 71.8217 70.9843 72.0219 70.8251L75.0025 68.4519L74.3961 67.4062L71.4291 68.5738C71.1279 68.6917 70.7877 68.5441 70.6691 68.2431C70.5508 67.9419 70.6986 67.6019 70.9998 67.4831L74.4355 66.1312C74.7053 66.0261 75.0117 66.132 75.1568 66.3824L76.2699 68.3011C76.4158 68.5525 76.3555 68.8728 76.1279 69.0536L73.0809 71.4798C73.2594 72.0019 73.4033 72.5413 73.5109 73.0911L77.3631 73.6685C77.65 73.7115 77.8623 73.9577 77.8623 74.248V76.4681C77.8623 76.7581 77.65 77.0046 77.3631 77.0476L73.5109 77.6247C73.4033 78.1743 73.2594 78.714 73.0807 79.237L76.1283 81.6689C76.3553 81.8499 76.4154 82.1697 76.2697 82.4208L75.1566 84.3398C75.0115 84.5906 74.7041 84.697 74.4353 84.591L70.8107 83.1642C70.4437 83.5845 70.0482 83.9785 69.6291 84.3411L71.0555 87.9704C71.1615 88.2406 71.0541 88.5474 70.8029 88.6923L68.8842 89.7994C68.6328 89.9441 68.3133 89.8835 68.1328 89.6568L65.7086 86.6109C65.1818 86.7933 64.6416 86.9376 64.0949 87.0421L63.5123 90.8986C63.4689 91.1841 63.2227 91.396 62.9328 91.396ZM61.8256 81.6169C58.3756 81.6169 55.5687 78.8101 55.5687 75.3601C55.5687 71.9066 58.3756 69.0972 61.8256 69.0972C65.276 69.0972 68.0828 71.9068 68.0828 75.3601C68.0828 78.8099 65.276 81.6169 61.8256 81.6169ZM61.8256 70.2689C59.0217 70.2689 56.7406 72.5527 56.7406 75.3599C56.7406 78.1636 59.0217 80.4449 61.8256 80.4449C64.6297 80.4449 66.9109 78.1636 66.9109 75.3599C66.9109 72.5527 64.6297 70.2689 61.8256 70.2689Z" fill="#FF4D40"/>
<path d="M94.8553 81.6477C94.5316 81.6477 94.2693 81.3854 94.2693 81.0617V20.1719H83.1074C82.7838 20.1719 82.5215 19.9096 82.5215 19.5859C82.5215 19.2623 82.7838 19 83.1074 19H94.8553C95.1789 19 95.4412 19.2623 95.4412 19.5859V81.0617C95.4412 81.3854 95.1789 81.6477 94.8553 81.6477Z" fill="#FF4D40"/>
<path d="M55.5219 35.5116H41.2949C40.9713 35.5116 40.709 35.2493 40.709 34.9257C40.709 34.602 40.9713 34.3397 41.2949 34.3397H55.5219C55.8455 34.3397 56.1078 34.602 56.1078 34.9257C56.1078 35.2493 55.8455 35.5116 55.5219 35.5116Z" fill="#FF4D40"/>
<path d="M55.5219 40.2111H41.2949C40.9713 40.2111 40.709 39.9488 40.709 39.6251C40.709 39.3015 40.9713 39.0392 41.2949 39.0392H55.5219C55.8455 39.0392 56.1078 39.3015 56.1078 39.6251C56.1078 39.9488 55.8455 40.2111 55.5219 40.2111Z" fill="#FF4D40"/>
<path d="M81.6254 45.2789H41.2949C40.9713 45.2789 40.709 45.0166 40.709 44.693C40.709 44.3694 40.9713 44.1071 41.2949 44.1071H81.6252C81.9488 44.1071 82.2111 44.3694 82.2111 44.693C82.2111 45.0166 81.949 45.2789 81.6254 45.2789Z" fill="white"/>
<path d="M81.6254 50.3529H41.2949C40.9713 50.3529 40.709 50.0906 40.709 49.767C40.709 49.4433 40.9713 49.181 41.2949 49.181H81.6252C81.9488 49.181 82.2111 49.4433 82.2111 49.767C82.2111 50.0906 81.949 50.3529 81.6254 50.3529Z" fill="white"/>
<path d="M81.6254 55.4277H41.2949C40.9713 55.4277 40.709 55.1654 40.709 54.8418C40.709 54.5182 40.9713 54.2559 41.2949 54.2559H81.6252C81.9488 54.2559 82.2111 54.5182 82.2111 54.8418C82.2111 55.1654 81.949 55.4277 81.6254 55.4277Z" fill="white"/>
</svg>
