<svg width="121" height="121" viewBox="0 0 121 121" fill="none" xmlns="http://www.w3.org/2000/svg">
<path d="M60.3984 66.2425C58.6953 66.2425 57.0449 65.9112 55.4883 65.2582C53.9863 64.6285 52.6387 63.7257 51.4785 62.5767C50.3203 61.4278 49.4102 60.089 48.7734 58.599C48.1152 57.0568 47.7812 55.4177 47.7812 53.7282C47.7812 51.6667 48.2988 49.6245 49.2754 47.8188C50.2207 46.0712 51.5898 44.5522 53.2383 43.4245C53.4941 43.2463 53.875 43.318 54.0527 43.5718C54.2363 43.8353 54.1699 44.1976 53.9043 44.3797C50.8047 46.5052 48.9531 49.9985 48.9531 53.7282C48.9531 56.7584 50.1445 59.6104 52.3066 61.7552C54.4707 63.8981 57.3438 65.08 60.3984 65.08C63.4549 65.08 66.3279 63.8981 68.492 61.7552C70.6561 59.6104 71.8455 56.7584 71.8475 53.7282C71.8455 50.696 70.6561 47.8459 68.492 45.7011C66.3279 43.5563 63.4549 42.3764 60.3984 42.3744C60.0742 42.3744 59.8125 42.1148 59.8125 41.7932C59.8125 41.4735 60.0742 41.2119 60.3984 41.2119C62.1016 41.2119 63.7539 41.5432 65.3086 42.1962C66.8125 42.8259 68.1621 43.7287 69.3203 44.8777C70.4803 46.0266 71.3906 47.3654 72.0254 48.8554C72.6856 50.3995 73.0195 52.0387 73.0195 53.7282C73.0195 55.4177 72.6856 57.0568 72.0254 58.599C71.3906 60.089 70.4805 61.4278 69.3203 62.5767C68.1621 63.7257 66.8125 64.6285 65.3086 65.2582C63.7539 65.9112 62.1016 66.2425 60.3984 66.2425ZM57.0859 42.8336C56.8242 42.8336 56.5938 42.6612 56.5215 42.4132C56.4785 42.264 56.4961 42.107 56.5723 41.9714C56.6484 41.8339 56.7734 41.737 56.9238 41.6944C57.2285 41.6072 57.5625 41.7932 57.6484 42.0935C57.6914 42.2427 57.6738 42.3996 57.5977 42.5352C57.5215 42.6709 57.3965 42.7697 57.2461 42.8123C57.1934 42.8259 57.1387 42.8336 57.0859 42.8336Z" fill="white"/>
<path d="M71.6506 51.2924C69.9047 51.2924 68.2151 50.9456 66.6272 50.2597C65.094 49.599 63.7248 48.6555 62.5608 47.4542C62.3459 47.2333 62.342 46.8826 62.5551 46.656C63.6059 45.5322 64.4301 44.1721 64.9418 42.7228C64.9965 42.5678 65.1157 42.4419 65.268 42.378C65.4184 42.316 65.5961 42.3198 65.7426 42.3876C67.3989 43.1568 68.8969 44.3019 70.0749 45.695C71.2643 47.1035 72.1391 48.7853 72.6098 50.5581C72.6547 50.7286 72.6196 50.9088 72.5141 51.0502C72.4067 51.1936 72.2446 51.2788 72.0668 51.2866C71.9221 51.2924 71.7776 51.2924 71.6506 51.2924ZM63.7893 47.026C65.8188 48.9286 68.469 50.0291 71.2561 50.1221C70.3243 47.3709 68.3928 45.1001 65.8127 43.7226C65.3147 44.9238 64.635 46.036 63.7893 47.026Z" fill="white"/>
<path d="M54.1446 51.4787H54.1407C52.2793 51.4787 50.4805 51.0835 48.7989 50.3027C48.5254 50.1767 48.3946 49.8667 48.4942 49.5838C48.9219 48.3787 49.5313 47.2453 50.3086 46.2203C51.0762 45.2051 51.9922 44.3138 53.0293 43.5718C55.1836 42.0295 57.7325 41.2139 60.3985 41.2119C62.2618 41.2119 64.0606 41.6072 65.742 42.388C66.0155 42.5159 66.1463 42.8239 66.0469 43.1068C65.6209 44.3138 65.0096 45.4453 64.2344 46.4703C63.4649 47.4855 62.5508 48.3768 61.5137 49.1208C59.3575 50.663 56.8106 51.4768 54.1446 51.4787ZM49.793 49.4657C51.1758 50.0295 52.6407 50.3162 54.1446 50.3162H54.1465C58.8282 50.3162 62.9903 47.534 64.75 43.225C63.3653 42.6612 61.9024 42.3744 60.3987 42.3744H60.3946C55.7129 42.3744 51.5528 45.1586 49.793 49.4657Z" fill="white"/>
<path d="M72.3574 94.487C72.0354 94.487 71.7715 94.2255 71.7715 93.9058C71.7715 93.5844 72.0354 93.3245 72.3574 93.3245H83.8066V76.6427L67.8691 70.4272L60.2949 77.1464C60.0742 77.3423 59.7109 77.3345 59.4981 77.133L52.4785 70.4332L36.5547 76.6429V93.3247H64.5449C64.8691 93.3247 65.1309 93.5845 65.1309 93.906C65.1309 94.2257 64.8691 94.4853 64.5449 94.4853H35.9688C35.8145 94.4853 35.6621 94.4252 35.5547 94.3167C35.4453 94.2082 35.3828 94.059 35.3828 93.906V76.2457C35.3828 76.0054 35.5273 75.7923 35.7539 75.7051L52.3984 69.2145C52.6094 69.1331 52.8555 69.1815 53.0195 69.3365L59.918 75.9202L67.3574 69.3228C67.5195 69.1796 67.7598 69.1349 67.9629 69.2143L84.6074 75.7049C84.8303 75.7921 84.9785 76.0091 84.9785 76.2455V93.9056C84.9785 94.0608 84.918 94.2061 84.8067 94.3163C84.6971 94.425 84.5488 94.4849 84.3926 94.4849L72.3574 94.487ZM68.4512 94.4853C68.1291 94.4853 67.8652 94.2257 67.8652 93.906C67.8652 93.5845 68.1291 93.3247 68.4512 93.3247C68.7754 93.3247 69.0371 93.5845 69.0371 93.906C69.0371 94.2257 68.7754 94.4853 68.4512 94.4853Z" fill="white"/>
<path fill-rule="evenodd" clip-rule="evenodd" d="M88.9212 26.1807L89.3028 26.592C90.6075 27.9983 95.2943 30.7661 103.035 29.4456L103.706 29.3311L103.735 30.0111C103.858 32.8425 103.856 37.1625 103.74 41.06C103.681 43.0096 103.595 44.8598 103.48 46.37C103.368 47.8575 103.225 49.0754 103.038 49.7193C102.861 50.3293 102.49 50.9659 102.018 51.598C101.542 52.236 100.938 52.9011 100.26 53.5692C98.9047 54.9054 97.2207 56.2871 95.5871 57.5305C93.9512 58.7757 92.3542 59.891 91.1671 60.6945C90.5732 61.0965 90.0812 61.4209 89.7373 61.6451C89.5653 61.7572 89.4303 61.8442 89.338 61.9034L89.2324 61.971L89.205 61.9884L89.196 61.9941C89.1958 61.9942 89.1952 61.9946 88.8744 61.4876C88.5443 61.9886 88.5443 61.9886 88.5441 61.9885L88.5422 61.9872L88.513 61.9679L88.423 61.9083C88.3443 61.856 88.2289 61.7791 88.0814 61.6802C87.7863 61.4824 87.363 61.1967 86.8487 60.8441C85.8203 60.1394 84.4268 59.1666 82.9675 58.0958C81.5093 57.0259 79.9794 55.8535 78.6807 54.75C77.4684 53.7199 76.4112 52.7117 75.8188 51.8836C75.802 51.8726 75.7872 51.862 75.7744 51.8524C75.6862 51.7862 75.6145 51.7073 75.5579 51.6355C75.4437 51.4904 75.3344 51.3011 75.2308 51.0835C75.0212 50.6433 74.7968 50.0063 74.5903 49.1687C74.1762 47.4891 73.8213 44.951 73.8213 41.4537V29.3022L74.5413 29.4491C75.9012 29.7267 78.2643 29.9206 80.8607 29.5758C83.457 29.231 86.2384 28.3542 88.4852 26.5339L88.9212 26.1807ZM88.8744 61.4876L88.5441 61.9885L88.8678 62.2017L89.196 61.9941L88.8744 61.4876ZM88.8802 60.7709C88.94 60.7321 89.0074 60.6884 89.082 60.6398C89.4209 60.4188 89.9071 60.0983 90.4945 59.7007C91.6698 58.9052 93.2475 57.8032 94.8603 56.5756C96.4754 55.3463 98.1142 53.9997 99.4175 52.7147C100.069 52.0723 100.628 51.4536 101.057 50.8799C101.49 50.3004 101.766 49.7974 101.885 49.3853C102.032 48.8805 102.17 47.7876 102.284 46.2794C102.396 44.7938 102.482 42.9633 102.54 41.0243C102.647 37.4436 102.656 33.5146 102.562 30.7348C95.4298 31.7666 90.7206 29.4821 88.8193 27.7935C86.4297 29.573 83.598 30.4228 81.0187 30.7654C78.6884 31.0748 76.5289 30.9751 75.0213 30.7508V41.4537C75.0213 44.874 75.3688 47.3132 75.7554 48.8814C75.9493 49.6677 76.1499 50.2224 76.3143 50.5677C76.3644 50.6729 76.4078 50.7517 76.4427 50.8082H76.5407L76.7188 51.0756C77.1843 51.7743 78.174 52.7448 79.4577 53.8356C80.7257 54.913 82.2303 56.0665 83.6774 57.1283C85.1233 58.1893 86.5057 59.1543 87.5271 59.8543C88.0376 60.2042 88.4575 60.4876 88.7496 60.6834C88.7965 60.7149 88.84 60.744 88.8802 60.7709ZM88.8667 29.989L89.248 30.308C90.2563 31.1517 93.9663 33.0364 100.158 33.0364H100.734L100.757 33.6123C100.832 35.485 100.903 38.4119 100.87 41.111C100.854 42.46 100.811 43.7593 100.73 44.8448C100.65 45.9068 100.529 46.8334 100.329 47.3919C99.8539 48.7247 98.5433 50.1962 97.0173 51.626C95.5208 53.0281 93.7233 54.4729 92.0631 55.8074C92.0042 55.8547 91.9456 55.9019 91.8871 55.9489C91.6288 56.1566 91.2511 56.1155 91.0435 55.8573C90.8359 55.599 90.8769 55.2213 91.1352 55.0137C91.1887 54.9707 91.2423 54.9276 91.296 54.8844C92.9683 53.5402 94.7344 52.1205 96.1969 50.7503C97.7298 49.314 98.832 48.0179 99.1993 46.9886C99.3372 46.6022 99.4524 45.8285 99.5331 44.7549C99.6119 43.7048 99.6538 42.4333 99.6702 41.0963C99.6996 38.6835 99.6455 36.0813 99.5798 34.2311C94.055 34.1289 90.4049 32.578 88.8654 31.5199C87.3808 32.5719 85.2754 33.225 83.2673 33.6272C81.3601 34.0091 79.4651 34.1787 78.1119 34.2239V42.0161C78.1119 42.3475 77.8433 42.6161 77.5119 42.6161C77.1805 42.6161 76.9119 42.3475 76.9119 42.0161V33.0406L77.5077 33.0364C78.7951 33.0273 80.9089 32.8756 83.0317 32.4505C85.176 32.0211 87.2305 31.3313 88.4824 30.3043L88.8667 29.989Z" fill="#FF4D40"/>
<path d="M76.2285 94.454H44.1328C43.9785 94.454 43.8281 94.3922 43.7188 94.2835C43.6094 94.175 43.5469 94.0258 43.5469 93.8728V82.7941C43.5469 82.4745 43.8105 82.2129 44.1328 82.2129C44.457 82.2129 44.7188 82.4745 44.7188 82.7941V93.2915H75.6426V82.7941C75.6426 82.4745 75.9063 82.2129 76.2285 82.2129C76.5527 82.2129 76.8145 82.4745 76.8145 82.7941V93.8728C76.8145 94.028 76.7537 94.1752 76.6426 94.2835C76.5332 94.3941 76.3848 94.454 76.2285 94.454Z" fill="white"/>
<path d="M68.1876 78.8147H52.1739C52.0137 78.8147 51.8594 78.7469 51.7501 78.6328C51.6387 78.5183 51.5802 78.3616 51.5899 78.2025L52.0274 69.7259C52.045 69.4064 52.3223 69.1582 52.6427 69.1757C52.9669 69.1931 53.2149 69.4663 53.1993 69.786L52.7911 77.6522H67.5704L67.1641 69.786C67.1563 69.631 67.2089 69.4818 67.3126 69.3675C67.418 69.251 67.5626 69.1834 67.7188 69.1757C68.047 69.1602 68.3167 69.4062 68.3341 69.7259L68.7714 78.2025C68.7813 78.3614 68.7225 78.5183 68.6114 78.6328C68.5018 78.7469 68.3475 78.8147 68.1876 78.8147Z" fill="white"/>
<path d="M62.5879 84.3478H57.7734C57.6191 84.3478 57.4687 84.2859 57.3594 84.1772C57.252 84.0687 57.1895 83.9197 57.1895 83.7666V78.2331C57.1895 78.08 57.252 77.9289 57.3594 77.8204C57.4687 77.7119 57.6211 77.6519 57.7734 77.6519H62.5879C62.7422 77.6519 62.8926 77.7139 63.0019 77.8224C63.1113 77.9289 63.1738 78.08 63.1738 78.2331V83.7668C63.1738 83.9218 63.1131 84.0671 63.0019 84.1773C62.8906 84.2878 62.7441 84.3478 62.5879 84.3478ZM58.3594 83.1853H62.0019V78.8124H58.3613L58.3594 83.1853Z" fill="#FF4D40"/>
<path d="M64.5529 94.485H55.3107C55.131 94.485 54.963 94.4056 54.8517 94.2642C54.7404 94.1247 54.6993 93.9425 54.7423 93.768L57.2052 83.6292C57.2677 83.3675 57.5021 83.1855 57.7755 83.1855H62.588C62.8673 83.1855 63.1095 83.3832 63.162 83.6564L65.1271 93.7953C65.1603 93.9658 65.1152 94.1402 65.004 94.2756C64.8927 94.4095 64.7265 94.485 64.5529 94.485ZM56.0548 93.3243H63.8439L62.1036 84.348H58.2365L56.0548 93.3243Z" fill="#FF4D40"/>
<path d="M65.6895 72.169H65.6875C65.3653 72.169 65.1016 71.9094 65.1016 71.5916L65.0682 64.4694C65.0682 64.1478 65.3279 63.8862 65.6522 63.8843C65.9764 63.8843 66.2401 64.1439 66.2401 64.4636L66.2735 71.5858C66.2735 71.7408 66.2127 71.8881 66.1035 71.9966C65.9922 72.107 65.8457 72.169 65.6895 72.169ZM54.6758 72.169C54.3535 72.169 54.0899 71.9094 54.0879 71.5897L54.0625 64.4694C54.0606 64.1478 54.3223 63.8862 54.6465 63.8843C54.9707 63.8843 55.2324 64.1458 55.2344 64.4636L55.2598 71.5858C55.2617 71.7408 55.2012 71.8881 55.0899 71.9985C54.9805 72.107 54.834 72.169 54.6758 72.169Z" fill="white"/>
<path d="M35.8371 69.6792H24.675C24.5207 69.6792 24.3684 69.6172 24.261 69.5087C24.1516 69.4 24.0891 69.251 24.0891 69.0979V49.2734H17.5852C17.3137 49.2734 17.0793 49.0913 17.0168 48.8278C16.9524 48.5662 17.0774 48.2969 17.3196 48.1748L25.3098 44.1313C25.3918 44.0887 25.4817 44.0673 25.5754 44.0673C25.7961 44.0673 25.9973 44.1894 26.0969 44.3851C26.2434 44.6699 26.1281 45.0206 25.841 45.1659L20.0227 48.1109H24.675C24.8293 48.1109 24.9797 48.1729 25.0891 48.2814C25.1985 48.3899 25.261 48.5391 25.261 48.6922V68.5167H35.2512V48.6922C35.2512 48.5391 35.3137 48.3899 35.4231 48.2814C35.5305 48.1729 35.6828 48.1109 35.8371 48.1109H40.4465L32.2864 44.0654C32.2844 44.0654 32.2844 44.0654 32.2824 44.0654C32.1418 43.9957 32.0383 43.8775 31.9895 43.7302C31.9387 43.583 31.9504 43.4241 32.0207 43.2846C32.1203 43.087 32.3215 42.963 32.5442 42.963C32.636 42.963 32.7239 42.9843 32.8059 43.025L43.1926 48.1729C43.4367 48.293 43.5637 48.5623 43.5012 48.8258C43.4387 49.0893 43.2043 49.2734 42.9309 49.2734H36.4231V69.0979C36.4231 69.2529 36.3625 69.3982 36.2512 69.5087C36.1418 69.6172 35.9934 69.6792 35.8371 69.6792ZM29.0559 43.4687C28.8332 43.4687 28.634 43.3485 28.5324 43.1528C28.4621 43.0133 28.4485 42.8564 28.4973 42.7092C28.5461 42.56 28.6496 42.4398 28.7883 42.3701C28.8723 42.3275 28.9621 42.3062 29.0539 42.3062C29.2766 42.3062 29.4758 42.4282 29.5774 42.6239C29.7239 42.9087 29.6086 43.2594 29.3215 43.4047C29.2375 43.4473 29.1477 43.4687 29.0559 43.4687Z" fill="white"/>
<path d="M59.9935 62.2315H59.9894C58.6554 62.2295 57.3685 61.8149 56.4564 61.0922C56.4544 61.0922 56.4544 61.0903 56.4544 61.0903C56.2025 60.8888 56.1615 60.5226 56.3646 60.2727C56.4759 60.1351 56.6419 60.0557 56.8216 60.0557C56.9544 60.0557 57.0833 60.1002 57.1869 60.1835C57.8802 60.7377 58.9251 61.069 59.9798 61.069H59.9896C61.0697 61.069 62.1673 60.7532 63.2513 60.1332C63.3412 60.0828 63.4427 60.0557 63.5443 60.0557C63.7533 60.0557 63.9486 60.168 64.0523 60.3463C64.2144 60.6234 64.1168 60.9799 63.8373 61.1407C62.5736 61.8653 61.2806 62.2315 59.9935 62.2315Z" fill="#FF4D40"/>
<path d="M62.7478 55.6363C62.5701 55.6363 62.4021 55.5568 62.2908 55.4193C62.1931 55.2972 62.1484 55.1461 62.1658 54.9911C62.1834 54.838 62.2593 54.6985 62.3806 54.6016C62.9646 54.1405 63.7519 53.8848 64.5994 53.8828C65.3865 53.8828 66.2048 54.1134 66.9705 54.5513C67.25 54.7121 67.3455 55.0666 67.1855 55.3456C67.082 55.5258 66.8867 55.6363 66.6775 55.6363C66.574 55.6363 66.4744 55.6091 66.3845 55.5588C65.7888 55.2197 65.1873 55.0473 64.5994 55.0453H64.5896C63.7595 55.0453 63.2535 55.396 63.117 55.5064C63.1148 55.5084 63.1148 55.5084 63.1148 55.5084C63.0095 55.5917 62.8828 55.6363 62.7478 55.6363Z" fill="#FF4D40"/>
<path d="M53.6888 55.6363C53.5111 55.6363 53.3431 55.5568 53.2318 55.4193C53.0287 55.1693 53.0697 54.8031 53.3216 54.6016C53.9056 54.1405 54.6927 53.8848 55.5384 53.8828H55.5423C56.3255 53.8828 57.1439 54.1153 57.9056 54.5513C58.0423 54.6288 58.138 54.7547 58.179 54.9039C58.2201 55.055 58.1986 55.2119 58.1205 55.3456C58.0169 55.5258 57.8216 55.6363 57.6126 55.6363C57.5111 55.6363 57.4095 55.6091 57.3197 55.5588C56.7259 55.2197 56.1263 55.0473 55.5384 55.0453H55.5326C54.7005 55.0453 54.1947 55.3979 54.056 55.5064C54.056 55.5084 54.056 55.5084 54.056 55.5084C53.9525 55.5917 53.8216 55.6363 53.6888 55.6363Z" fill="#FF4D40"/>
</svg>
