<svg width="121" height="121" viewBox="0 0 121 121" fill="none" xmlns="http://www.w3.org/2000/svg">
<path d="M77.5562 72.1923H54.818C54.4943 72.1923 54.232 71.9321 54.232 71.6111C54.232 71.29 54.4943 71.0298 54.818 71.0298H77.3252C85.399 63.5366 86.6209 60.6134 86.6209 49.1518C86.6209 47.043 86.5785 44.6589 86.5293 41.8984C86.4644 38.2499 86.3912 34.1356 86.3851 29.1773C83.9391 29.503 81.6039 29.6679 79.4348 29.6679C72.2894 29.6679 66.4268 27.8633 62.0018 24.3031C56.4148 27.9048 50.2908 29.7307 43.793 29.7307C41.7668 29.7307 39.6713 29.553 37.5541 29.2019C37.5506 33.0632 37.5193 36.465 37.4914 39.4866C37.4678 42.0493 37.4473 44.2625 37.4473 46.2936C37.4473 60.373 38.5395 63.5187 45.7955 70.3356C46.0305 70.5563 46.0404 70.9242 45.818 71.1571C45.5953 71.3902 45.2244 71.4003 44.9896 71.1794C37.0791 63.7476 36.2754 59.8284 36.2754 46.2936C36.2754 44.2573 36.2957 42.0415 36.3195 39.4759C36.349 36.2779 36.3824 32.653 36.3824 28.5097C36.3824 28.337 36.4598 28.1733 36.5936 28.0629C36.7273 27.9526 36.9039 27.9071 37.0748 27.9381C39.3572 28.3564 41.6174 28.5684 43.7928 28.5684C50.1973 28.5684 56.2277 26.7277 61.7166 23.0978C61.9338 22.9539 62.2205 22.9701 62.4201 23.1377C66.7254 26.7498 72.2912 28.5058 79.435 28.5058C81.7451 28.5058 84.2521 28.3136 86.8867 27.9344C87.0549 27.9102 87.2256 27.9596 87.3543 28.07C87.483 28.1805 87.5568 28.3409 87.5568 28.5097C87.5568 33.7578 87.6336 38.072 87.7012 41.8782C87.7504 44.6442 87.793 47.0331 87.793 49.1522C87.793 61.0041 86.4139 64.2122 77.9562 72.0368C77.8473 72.1365 77.7045 72.1923 77.5562 72.1923Z" fill="white"/>
<path d="M69.4664 72.1925C69.3043 72.1925 69.1428 72.1261 69.027 71.9959C68.8127 71.7552 68.8357 71.3879 69.0785 71.1755C79.8631 61.7314 81.2365 59.9111 81.2365 49.435C81.2365 47.4648 81.1817 45.1787 81.118 42.5317C81.065 40.3338 81.0059 37.8618 80.9654 35.0673C80.4684 35.0816 79.9742 35.0888 79.4893 35.0888C72.599 35.0888 66.6352 33.6248 61.7555 30.7366C56.1484 33.6659 50.0895 35.151 43.7414 35.151C43.4877 35.151 43.2314 35.1485 42.9746 35.1438L42.9584 36.3877C42.9232 39.0436 42.8869 41.7898 42.8869 44.4839C42.8869 46.2633 42.9025 47.8647 42.9346 49.3796C42.9414 49.7007 42.6846 49.9661 42.3609 49.9731C42.0334 49.9814 41.7697 49.7251 41.7627 49.404C41.7305 47.881 41.7148 46.2717 41.7148 44.4839C41.7148 41.7823 41.7512 39.0322 41.7863 36.3726L41.8102 34.5403C41.8121 34.3839 41.8773 34.2351 41.9912 34.1272C42.1051 34.0193 42.259 33.9623 42.4154 33.9666C42.8574 33.9813 43.3033 33.9887 43.741 33.9887C50.0055 33.9887 55.9791 32.4976 61.4965 29.5567C61.6799 29.4586 61.9025 29.4648 62.0803 29.5733C67.2883 32.744 73.8424 34.1937 81.519 33.8852C81.6768 33.879 81.8309 33.9362 81.9457 34.0441C82.0606 34.152 82.1266 34.3014 82.1287 34.4583C82.169 37.4921 82.233 40.1548 82.2895 42.5042C82.3531 45.1588 82.4082 47.4512 82.4082 49.4352C82.4082 60.3354 80.8309 62.4345 69.8539 72.0472C69.7426 72.1447 69.6043 72.1925 69.4664 72.1925Z" fill="white"/>
<path d="M83.2103 106.071H66.3373C66.0137 106.071 65.7514 105.81 65.7514 105.489C65.7514 105.168 66.0137 104.908 66.3373 104.908H83.2103C84.9568 104.908 86.3777 103.499 86.3777 101.766V75.3411C86.3777 73.6049 84.957 72.1923 83.2103 72.1923H40.8588C39.1123 72.1923 37.6914 73.6049 37.6914 75.3411V101.766C37.6914 103.498 39.1123 104.908 40.8588 104.908H56.5717C56.8953 104.908 57.1576 105.168 57.1576 105.489C57.1576 105.81 56.8953 106.071 56.5717 106.071H40.8588C38.4662 106.071 36.5195 104.14 36.5195 101.766V75.3411C36.5195 72.9638 38.466 71.0298 40.8588 71.0298H83.2101C85.6027 71.0298 87.5494 72.9638 87.5494 75.3411V101.766C87.5496 104.14 85.6029 106.071 83.2103 106.071Z" fill="white"/>
<path d="M86.9645 83.7095H37.1064C36.7828 83.7095 36.5205 83.4493 36.5205 83.1283V77.5397C36.5205 77.2187 36.7828 76.9585 37.1064 76.9585H73.6377C73.9613 76.9585 74.2236 77.2187 74.2236 77.5397C74.2236 77.8608 73.9613 78.121 73.6377 78.121H37.6924V82.547H86.3785V78.121H83.4033C83.0797 78.121 82.8174 77.8608 82.8174 77.5397C82.8174 77.2187 83.0797 76.9585 83.4033 76.9585H86.9645C87.2881 76.9585 87.5504 77.2187 87.5504 77.5397V83.1283C87.5504 83.4493 87.2881 83.7095 86.9645 83.7095Z" fill="#141517"/>
<path d="M78.0434 100.986C76.9361 100.986 75.8937 100.577 75.0978 99.8465C74.2973 100.577 73.2537 100.986 72.1488 100.986C69.7563 100.986 67.8096 99.0548 67.8096 96.6812C67.8096 94.3076 69.7563 92.3765 72.1488 92.3765C73.2533 92.3765 74.2973 92.7853 75.0978 93.5159C75.8939 92.7853 76.9363 92.3765 78.0434 92.3765C80.4359 92.3765 82.3826 94.3076 82.3826 96.6812C82.3826 99.0548 80.4359 100.986 78.0434 100.986ZM75.0994 98.4141C75.0998 98.4141 75.1004 98.4141 75.1008 98.4141C75.2791 98.4145 75.4475 98.4955 75.5586 98.6342C76.1631 99.3898 77.0686 99.8234 78.0434 99.8234C79.7898 99.8234 81.2107 98.4139 81.2107 96.6812C81.2107 94.9485 79.79 93.539 78.0434 93.539C77.0689 93.539 76.1631 93.9724 75.5584 94.7282C75.4476 94.8667 75.2791 94.9477 75.1008 94.9481C75.1004 94.9481 75.0998 94.9481 75.0994 94.9481C74.9217 94.9481 74.7535 94.8681 74.6422 94.7305C74.0303 93.9734 73.1215 93.5392 72.1486 93.5392C70.4021 93.5392 68.9812 94.9487 68.9812 96.6814C68.9812 98.4141 70.402 99.8236 72.1486 99.8236C73.1215 99.8236 74.0305 99.3894 74.6422 98.6323C74.7535 98.4941 74.9217 98.4141 75.0994 98.4141Z" fill="#141517"/>
<path d="M49.8271 94.2196H40.7764C40.4527 94.2196 40.1904 93.9594 40.1904 93.6384C40.1904 93.3173 40.4527 93.0571 40.7764 93.0571H49.8271C50.1508 93.0571 50.4131 93.3173 50.4131 93.6384C50.4131 93.9594 50.1508 94.2196 49.8271 94.2196Z" fill="white"/>
<path d="M60.498 99.4677H40.7773C40.4537 99.4677 40.1914 99.2075 40.1914 98.8864C40.1914 98.5654 40.4537 98.3052 40.7773 98.3052H60.4982C60.8219 98.3052 61.0842 98.5654 61.0842 98.8864C61.0842 99.2075 60.8217 99.4677 60.498 99.4677Z" fill="white"/>
<path d="M64.4504 55.9919H59.6195C59.2959 55.9919 59.0336 55.7317 59.0336 55.4106V49.849C57.6527 48.8834 56.8379 47.3319 56.8379 45.636C56.8379 42.7933 59.1693 40.4805 62.035 40.4805C64.9006 40.4805 67.232 42.7933 67.232 45.636C67.232 47.332 66.4172 48.8836 65.0363 49.8492V55.4108C65.0363 55.7317 64.774 55.9919 64.4504 55.9919ZM60.2055 54.8294H63.8644V49.5363C63.8644 49.3344 63.9701 49.1469 64.1436 49.0411C65.3437 48.3093 66.0602 47.0364 66.0602 45.636C66.0602 43.4342 64.2545 41.643 62.035 41.643C59.8154 41.643 58.0098 43.4342 58.0098 45.636C58.0098 47.0362 58.7262 48.3091 59.9264 49.0411C60.0998 49.1469 60.2055 49.3344 60.2055 49.5363V54.8294Z" fill="#141517"/>
<path d="M32.8588 34.9174H23.417C23.0934 34.9174 22.8311 34.6572 22.8311 34.3361C22.8311 34.0151 23.0934 33.7549 23.417 33.7549H32.8588C33.1824 33.7549 33.4447 34.0151 33.4447 34.3361C33.4447 34.6572 33.1822 34.9174 32.8588 34.9174Z" fill="white"/>
<path d="M32.8586 41.0165H18.5859C18.2623 41.0165 18 40.7563 18 40.4353C18 40.1142 18.2623 39.854 18.5859 39.854H32.8584C33.182 39.854 33.4443 40.1142 33.4443 40.4353C33.4443 40.7563 33.182 41.0165 32.8586 41.0165Z" fill="white"/>
<path d="M32.8588 47.1156H23.417C23.0934 47.1156 22.8311 46.8554 22.8311 46.5344C22.8311 46.2133 23.0934 45.9531 23.417 45.9531H32.8588C33.1824 45.9531 33.4447 46.2133 33.4447 46.5344C33.4447 46.8554 33.1822 47.1156 32.8588 47.1156Z" fill="white"/>
<path d="M32.8586 53.2147H18.5859C18.2623 53.2147 18 52.9545 18 52.6335C18 52.3125 18.2623 52.0522 18.5859 52.0522H32.8584C33.182 52.0522 33.4443 52.3125 33.4443 52.6335C33.4443 52.9545 33.182 53.2147 32.8586 53.2147Z" fill="white"/>
<path d="M32.8588 59.3134H23.417C23.0934 59.3134 22.8311 59.0532 22.8311 58.7321C22.8311 58.4111 23.0934 58.1509 23.417 58.1509H32.8588C33.1824 58.1509 33.4447 58.4111 33.4447 58.7321C33.4447 59.0532 33.1822 59.3134 32.8588 59.3134Z" fill="white"/>
<path d="M101.806 34.9174H92.3643C92.0406 34.9174 91.7783 34.6572 91.7783 34.3361C91.7783 34.0151 92.0406 33.7549 92.3643 33.7549H101.806C102.13 33.7549 102.392 34.0151 102.392 34.3361C102.392 34.6572 102.13 34.9174 101.806 34.9174Z" fill="white"/>
<path d="M106.637 41.0165H92.3643C92.0406 41.0165 91.7783 40.7563 91.7783 40.4353C91.7783 40.1142 92.0406 39.854 92.3643 39.854H106.637C106.961 39.854 107.223 40.1142 107.223 40.4353C107.223 40.7563 106.961 41.0165 106.637 41.0165Z" fill="white"/>
<path d="M101.806 47.1156H92.3643C92.0406 47.1156 91.7783 46.8554 91.7783 46.5344C91.7783 46.2133 92.0406 45.9531 92.3643 45.9531H101.806C102.13 45.9531 102.392 46.2133 102.392 46.5344C102.392 46.8554 102.13 47.1156 101.806 47.1156Z" fill="white"/>
<path d="M106.637 53.2147H92.3643C92.0406 53.2147 91.7783 52.9545 91.7783 52.6335C91.7783 52.3125 92.0406 52.0522 92.3643 52.0522H106.637C106.961 52.0522 107.223 52.3125 107.223 52.6335C107.223 52.9545 106.961 53.2147 106.637 53.2147Z" fill="white"/>
<path d="M101.806 59.3134H92.3643C92.0406 59.3134 91.7783 59.0532 91.7783 58.7321C91.7783 58.4111 92.0406 58.1509 92.3643 58.1509H101.806C102.13 58.1509 102.392 58.4111 102.392 58.7321C102.392 59.0532 102.13 59.3134 101.806 59.3134Z" fill="white"/>
</svg>
