<svg width="121" height="121" viewBox="0 0 121 121" fill="none" xmlns="http://www.w3.org/2000/svg">
<path d="M104.525 93.5182H40.1967C39.8757 93.5182 39.6146 93.2565 39.6146 92.937C39.6146 92.6173 39.8757 92.3558 40.1967 92.3558H103.945V89.583C103.945 89.2635 104.204 89.0017 104.525 89.0017C104.844 89.0017 105.104 89.2635 105.104 89.583V92.937C105.104 93.092 105.043 93.2393 104.935 93.3477C104.825 93.458 104.68 93.5182 104.525 93.5182ZM36.3295 93.5182C36.0085 93.5182 35.7475 93.2565 35.7475 92.937C35.7475 92.6173 36.0085 92.3558 36.3295 92.3558C36.6485 92.3558 36.9095 92.6173 36.9095 92.937C36.9095 93.2565 36.6485 93.5182 36.3295 93.5182ZM32.4623 93.5182H15.5801C15.4293 93.5182 15.2784 93.4562 15.1702 93.3477C15.0619 93.2391 15 93.0901 15 92.937V42.0389C15 41.7192 15.261 41.4576 15.5801 41.4576C15.9011 41.4576 16.1602 41.7192 16.1602 42.0389V92.3558H32.4623C32.7813 92.3558 33.0424 92.6173 33.0424 92.937C33.0424 93.2565 32.7813 93.5182 32.4623 93.5182ZM104.525 86.2892C104.204 86.2892 103.945 86.0277 103.945 85.708C103.945 85.3885 104.204 85.1267 104.525 85.1267C104.844 85.1267 105.104 85.3885 105.104 85.708C105.104 86.0279 104.844 86.2892 104.525 86.2892ZM104.525 82.4142C104.204 82.4142 103.945 82.1546 103.945 81.833V28.1625H90.9902C90.6712 28.1625 90.4102 27.9029 90.4102 27.5832C90.4102 27.2616 90.6712 27 90.9902 27H104.525C104.678 27 104.827 27.062 104.935 27.1705C105.044 27.279 105.104 27.4301 105.104 27.5832L105.105 81.8332C105.105 82.1548 104.844 82.4142 104.525 82.4142ZM15.5801 38.7451C15.261 38.7451 15 38.4855 15 38.1639C15 37.8442 15.261 37.5826 15.5801 37.5826C15.9011 37.5826 16.1602 37.8442 16.1602 38.1639C16.1602 38.4855 15.9011 38.7451 15.5801 38.7451ZM15.5801 34.8701C15.261 34.8701 15 34.6105 15 34.2889V27.5832C15 27.4282 15.0619 27.279 15.1702 27.1705C15.2784 27.062 15.4273 27 15.5801 27H83.2559C83.5768 27 83.8359 27.2616 83.8359 27.5832C83.8359 27.9029 83.5768 28.1625 83.2559 28.1625H16.1602V34.2889C16.1602 34.6105 15.9011 34.8701 15.5801 34.8701ZM87.123 28.1625C86.804 28.1625 86.543 27.9029 86.543 27.5832C86.543 27.2616 86.804 27 87.123 27C87.444 27 87.7031 27.2616 87.7031 27.5832C87.7031 27.9029 87.444 28.1625 87.123 28.1625Z" fill="white"/>
<path d="M104.525 40.0452H62.2396C61.9208 40.0452 61.6595 39.7836 61.6595 39.464C61.6595 39.1423 61.9208 38.8827 62.2396 38.8827H103.945V28.1625H90.9941C90.9922 28.1645 90.9922 28.1645 90.9902 28.1645C90.6712 28.1645 90.4102 27.9029 90.4102 27.5813C90.4102 27.2616 90.6712 27.002 90.9902 27.002H104.525C104.676 27.002 104.827 27.062 104.935 27.1705C105.044 27.279 105.105 27.4282 105.105 27.5813V39.464C105.105 39.619 105.044 39.7643 104.935 39.8747C104.825 39.9832 104.68 40.0452 104.525 40.0452ZM58.3724 40.0452C58.0534 40.0452 57.7924 39.7836 57.7924 39.464C57.7924 39.1423 58.0534 38.8827 58.3724 38.8827C58.6934 38.8827 58.9525 39.1423 58.9525 39.464C58.9525 39.7836 58.6934 40.0452 58.3724 40.0452ZM54.5053 40.0452H15.5801C15.4293 40.0452 15.2784 39.9832 15.1702 39.8747C15.0619 39.7662 15 39.617 15 39.464V27.5813C15 27.4282 15.0619 27.279 15.1702 27.1705C15.2784 27.062 15.4273 27.002 15.5801 27.002H83.2559C83.5768 27.002 83.8359 27.2616 83.8359 27.5813C83.8359 27.9029 83.5768 28.1625 83.2559 28.1625H16.1602V38.8827H54.5053C54.8243 38.8827 55.0853 39.1423 55.0853 39.464C55.0853 39.7836 54.8243 40.0452 54.5053 40.0452ZM87.123 28.1625C86.804 28.1625 86.543 27.9029 86.543 27.5813C86.543 27.2616 86.804 27.002 87.123 27.002C87.444 27.002 87.7031 27.2616 87.7031 27.5813C87.7031 27.9029 87.444 28.1625 87.123 28.1625Z" fill="white"/>
<path d="M39.1487 93.5184H15.5801C15.4273 93.5184 15.2784 93.4564 15.1702 93.3479C15.0619 93.2392 15 93.0902 15 92.9371V50.2676C15 49.9459 15.261 49.6863 15.5801 49.6863C15.9011 49.6863 16.1602 49.9459 16.1602 50.2676V92.3559H38.5686V91.4104C38.5686 91.0907 38.8296 90.8291 39.1487 90.8291C39.4677 90.8291 39.7287 91.0907 39.7287 91.4104V92.9371C39.7287 93.0921 39.6688 93.2374 39.5586 93.3479C39.4484 93.4581 39.3033 93.5184 39.1487 93.5184ZM39.1487 88.1166C38.8296 88.1166 38.5686 87.8549 38.5686 87.5354C38.5686 87.2157 38.8296 86.9541 39.1487 86.9541C39.4677 86.9541 39.7287 87.2157 39.7287 87.5354C39.7287 87.8549 39.4677 88.1166 39.1487 88.1166ZM39.1487 84.2416C38.8296 84.2416 38.5686 83.9799 38.5686 83.6604V40.0453H16.1602V42.5156C16.1602 42.8373 15.9011 43.0969 15.5801 43.0969C15.261 43.0969 15 42.8373 15 42.5156V39.4641C15 39.311 15.0619 39.1599 15.1702 39.0514C15.2784 38.9448 15.4293 38.8828 15.5801 38.8828H39.1487C39.3014 38.8828 39.4503 38.9448 39.5586 39.0533C39.6669 39.1599 39.7287 39.311 39.7287 39.4641V83.6604C39.7287 83.9799 39.4677 84.2416 39.1487 84.2416ZM15.5801 46.9719C15.261 46.9719 15 46.7123 15 46.3906C15 46.0709 15.261 45.8094 15.5801 45.8094C15.9011 45.8094 16.1602 46.0709 16.1602 46.3906C16.1602 46.7123 15.9011 46.9719 15.5801 46.9719Z" fill="white"/>
<path d="M21.4777 36.021C20.1029 36.019 18.9834 34.9011 18.9834 33.5255C18.9853 32.857 19.2444 32.2293 19.7143 31.7585C20.1861 31.2857 20.8126 31.0261 21.4777 31.0242C22.8525 31.0261 23.9721 32.1479 23.974 33.5255C23.9721 34.8992 22.8525 36.019 21.4777 36.021ZM21.4777 32.1867C20.743 32.1867 20.1436 32.7873 20.1436 33.5255C20.1455 34.2579 20.743 34.8565 21.4777 34.8585C22.2125 34.8565 22.8119 34.2579 22.8138 33.5255C22.8119 32.7892 22.2125 32.1886 21.4777 32.1867Z" fill="#FF4D40"/>
<path d="M27.5745 36.021C26.2016 36.019 25.0859 34.9011 25.084 33.5255C25.084 32.1479 26.2016 31.0261 27.5745 31.0242C28.2396 31.0261 28.8661 31.2857 29.3379 31.7585C29.8078 32.2293 30.0669 32.857 30.0688 33.5255C30.0688 34.9011 28.9492 36.019 27.5745 36.021ZM27.5745 32.1867C26.8416 32.1886 26.2461 32.7892 26.2441 33.5255C26.2461 34.2579 26.8416 34.8565 27.5745 34.8585C28.3092 34.8565 28.9067 34.2579 28.9086 33.5255C28.9086 32.7873 28.3092 32.1867 27.5745 32.1867Z" fill="#FF4D40"/>
<path d="M33.673 36.019C32.2983 36.019 31.1787 34.9011 31.1787 33.5255C31.1806 32.857 31.4397 32.2293 31.9096 31.7585C32.3795 31.2857 33.006 31.0261 33.673 31.0242C34.3401 31.0261 34.9666 31.2857 35.4384 31.7585C35.9083 32.2293 36.1674 32.857 36.1693 33.5255C36.1693 34.9011 35.0498 36.019 33.673 36.019ZM33.673 32.1867C32.9383 32.1886 32.3389 32.7873 32.3389 33.5255C32.3408 34.2579 32.9383 34.8565 33.673 34.8585C34.4078 34.8565 35.0072 34.2579 35.0092 33.5255C35.0092 32.7873 34.4097 32.1886 33.673 32.1867Z" fill="#FF4D40"/>
<path d="M20.3058 44.2614H15.5801C15.261 44.2614 15 43.9998 15 43.6801C15 43.3585 15.261 43.0989 15.5801 43.0989H20.3058C20.6268 43.0989 20.8859 43.3585 20.8859 43.6801C20.8859 43.9998 20.6268 44.2614 20.3058 44.2614Z" fill="white"/>
<path d="M20.3058 49.1593H15.5801C15.261 49.1593 15 48.8997 15 48.5781C15 48.2584 15.261 47.9968 15.5801 47.9968H20.3058C20.6268 47.9968 20.8878 48.2584 20.8878 48.5781C20.8878 48.8997 20.6268 49.1593 20.3058 49.1593Z" fill="white"/>
<path d="M20.3077 54.0651H15.5801C15.261 54.0651 15 53.8035 15 53.4838C15 53.1642 15.261 52.9026 15.5801 52.9026H20.3077C20.6268 52.9026 20.8859 53.1642 20.8859 53.4838C20.8859 53.8035 20.6268 54.0651 20.3077 54.0651Z" fill="white"/>
<path d="M20.3077 58.965H15.5801C15.261 58.965 15 58.7034 15 58.3837C15 58.0621 15.261 57.8005 15.5801 57.8005H20.3077C20.6268 57.8005 20.8878 58.0621 20.8878 58.3837C20.8878 58.7034 20.6268 58.965 20.3077 58.965Z" fill="white"/>
<path d="M20.3077 63.8688H15.5801C15.261 63.8688 15 63.6092 15 63.2875C15 62.9679 15.261 62.7063 15.5801 62.7063H20.3077C20.6268 62.7063 20.8859 62.9679 20.8859 63.2875C20.8859 63.6092 20.6268 63.8688 20.3077 63.8688Z" fill="white"/>
<path d="M20.3077 68.7685H15.5801C15.261 68.7685 15 68.5069 15 68.1872C15 67.8656 15.261 67.606 15.5801 67.606H20.3077C20.6268 67.606 20.8859 67.8656 20.8859 68.1872C20.8859 68.5069 20.6268 68.7685 20.3077 68.7685Z" fill="white"/>
<path d="M20.3077 73.6723H15.5801C15.261 73.6723 15 73.4124 15 73.091C15 72.7713 15.261 72.5098 15.5801 72.5098H20.3077C20.6268 72.5098 20.8859 72.7713 20.8859 73.091C20.8859 73.4124 20.6268 73.6723 20.3077 73.6723Z" fill="white"/>
<path d="M20.3077 78.5722H15.5801C15.261 78.5722 15 78.3106 15 77.9909C15 77.6714 15.261 77.4097 15.5801 77.4097H20.3077C20.6268 77.4097 20.8878 77.6714 20.8878 77.9909C20.8878 78.3108 20.6268 78.5722 20.3077 78.5722Z" fill="white"/>
<path d="M20.3077 83.4701H15.5801C15.261 83.4701 15 83.2105 15 82.8908C15 82.5694 15.261 82.3096 15.5801 82.3096H20.3077C20.6268 82.3096 20.8878 82.5694 20.8878 82.8908C20.8878 83.2105 20.6268 83.4701 20.3077 83.4701Z" fill="white"/>
<path d="M20.3077 88.3764H15.5801C15.261 88.3764 15 88.1167 15 87.7951C15 87.4754 15.261 87.2139 15.5801 87.2139H20.3077C20.6268 87.2139 20.8859 87.4754 20.8859 87.7951C20.8859 88.1167 20.6268 88.3764 20.3077 88.3764Z" fill="white"/>
<path d="M39.1486 44.2614H27.3652C27.0443 44.2614 26.7852 43.9998 26.7852 43.6801C26.7852 43.3585 27.0443 43.0989 27.3652 43.0989H39.1486C39.4676 43.0989 39.7286 43.3585 39.7286 43.6801C39.7286 43.9998 39.4676 44.2614 39.1486 44.2614Z" fill="white"/>
<path d="M39.1486 49.1593H27.3652C27.0443 49.1593 26.7852 48.8997 26.7852 48.5781C26.7852 48.2584 27.0443 47.9968 27.3652 47.9968H39.1486C39.4676 47.9968 39.7286 48.2584 39.7286 48.5781C39.7286 48.8997 39.4676 49.1593 39.1486 49.1593Z" fill="white"/>
<path d="M39.1486 54.0651H27.3652C27.0443 54.0651 26.7852 53.8035 26.7852 53.4838C26.7852 53.1642 27.0443 52.9026 27.3652 52.9026H39.1486C39.4676 52.9026 39.7286 53.1642 39.7286 53.4838C39.7286 53.8035 39.4676 54.0651 39.1486 54.0651Z" fill="white"/>
<path d="M39.1486 58.965H27.3652C27.0443 58.965 26.7852 58.7034 26.7852 58.3837C26.7852 58.0621 27.0443 57.8005 27.3652 57.8005H39.1486C39.4676 57.8005 39.7286 58.0621 39.7286 58.3837C39.7286 58.7034 39.4676 58.965 39.1486 58.965Z" fill="white"/>
<path d="M39.1486 63.8688H27.3652C27.0443 63.8688 26.7852 63.6092 26.7852 63.2875C26.7852 62.9679 27.0443 62.7063 27.3652 62.7063H39.1486C39.4676 62.7063 39.7286 62.9679 39.7286 63.2875C39.7286 63.6092 39.4676 63.8688 39.1486 63.8688Z" fill="white"/>
<path d="M39.1486 68.7685H27.3652C27.0443 68.7685 26.7852 68.5069 26.7852 68.1872C26.7852 67.8656 27.0443 67.606 27.3652 67.606H39.1486C39.4676 67.606 39.7286 67.8656 39.7286 68.1872C39.7286 68.5069 39.4676 68.7685 39.1486 68.7685Z" fill="white"/>
<path d="M39.1486 73.6723H27.3652C27.0443 73.6723 26.7852 73.4124 26.7852 73.091C26.7852 72.7713 27.0443 72.5098 27.3652 72.5098H39.1486C39.4676 72.5098 39.7286 72.7713 39.7286 73.091C39.7286 73.4124 39.4676 73.6723 39.1486 73.6723Z" fill="white"/>
<path d="M39.1486 78.5722H27.3652C27.0443 78.5722 26.7852 78.3106 26.7852 77.9909C26.7852 77.6714 27.0443 77.4097 27.3652 77.4097H39.1486C39.4676 77.4097 39.7286 77.6714 39.7286 77.9909C39.7286 78.3108 39.4676 78.5722 39.1486 78.5722Z" fill="white"/>
<path d="M39.1486 83.4701H27.3652C27.0443 83.4701 26.7852 83.2105 26.7852 82.8908C26.7852 82.5694 27.0443 82.3096 27.3652 82.3096H39.1486C39.4676 82.3096 39.7286 82.5694 39.7286 82.8908C39.7286 83.2105 39.4676 83.4701 39.1486 83.4701Z" fill="white"/>
<path d="M39.1486 88.3764H27.3652C27.0443 88.3764 26.7852 88.1167 26.7852 87.7951C26.7852 87.4754 27.0443 87.2139 27.3652 87.2139H39.1486C39.4676 87.2139 39.7286 87.4754 39.7286 87.7951C39.7286 88.1167 39.4676 88.3764 39.1486 88.3764Z" fill="white"/>
<path d="M99.7594 51.0171H94.0418C93.7208 51.0171 93.4596 50.7555 93.4596 50.4358C93.4596 50.1142 93.7208 49.8546 94.0418 49.8546H99.1792V44.1874H45.1992V49.8546H86.3055C86.6265 49.8546 86.8856 50.1142 86.8856 50.4358C86.8856 50.7555 86.6265 51.0171 86.3055 51.0171H44.6191C44.4664 51.0171 44.3156 50.9551 44.2092 50.8466C44.1009 50.7381 44.0391 50.5889 44.0391 50.4358V43.6062C44.0391 43.4531 44.1009 43.302 44.2092 43.1954C44.3156 43.0869 44.4664 43.0249 44.6191 43.0249H99.7594C99.9122 43.0249 100.061 43.0869 100.169 43.1954C100.278 43.3039 100.34 43.4531 100.34 43.6062V50.4358C100.34 50.5908 100.28 50.7361 100.169 50.8466C100.061 50.957 99.9139 51.0171 99.7594 51.0171ZM90.1746 51.0171C89.8536 51.0171 89.5924 50.7555 89.5924 50.4358C89.5924 50.1142 89.8536 49.8546 90.1746 49.8546C90.4935 49.8546 90.7526 50.1142 90.7526 50.4358C90.7528 50.7555 90.4937 51.0171 90.1746 51.0171Z" fill="white"/>
<path d="M78.9344 69.6266H44.6191C44.4664 69.6266 44.3156 69.5627 44.2092 69.4562C44.1009 69.3477 44.0391 69.1985 44.0391 69.0454V54.6345C44.0391 54.4814 44.1009 54.3322 44.2092 54.2237C44.3156 54.1152 44.4664 54.0532 44.6191 54.0532H52.2201C52.5411 54.0532 52.8002 54.3148 52.8002 54.6345C52.8002 54.9561 52.5411 55.2157 52.2201 55.2157H45.1992V68.4641H78.3546V55.2157H59.9545C59.6354 55.2157 59.3744 54.9561 59.3744 54.6345C59.3744 54.3148 59.6354 54.0532 59.9545 54.0532H78.9346C79.0874 54.0532 79.2365 54.1152 79.3446 54.2237C79.453 54.3322 79.5147 54.4814 79.5147 54.6345V69.0454C79.5147 69.2006 79.4548 69.3459 79.3446 69.4562C79.2343 69.5648 79.0893 69.6266 78.9344 69.6266ZM56.0873 55.2157C55.7682 55.2157 55.5072 54.9561 55.5072 54.6345C55.5072 54.3148 55.7682 54.0532 56.0873 54.0532C56.4083 54.0532 56.6674 54.3148 56.6674 54.6345C56.6674 54.9561 56.4083 55.2157 56.0873 55.2157Z" fill="#FF4D40"/>
<path d="M70.5583 73.8603H44.6191C44.2982 73.8603 44.0391 73.5985 44.0391 73.279C44.0391 72.9574 44.2982 72.6978 44.6191 72.6978H70.5583C70.8772 72.6978 71.1384 72.9574 71.1384 73.279C71.1384 73.5985 70.8772 73.8603 70.5583 73.8603Z" fill="#FF4D40"/>
<path d="M96.3518 76.4548H52.9893C52.6683 76.4548 52.4092 76.1951 52.4092 75.8735C52.4092 75.554 52.6683 75.2942 52.9893 75.2942H96.352C96.6711 75.2942 96.9321 75.554 96.9321 75.8735C96.9319 76.1951 96.6711 76.4548 96.3518 76.4548Z" fill="#FF4D40"/>
<path d="M70.5583 79.9501H44.6191C44.2982 79.9501 44.0391 79.6885 44.0391 79.3689C44.0391 79.0472 44.2982 78.7876 44.6191 78.7876H70.5583C70.8772 78.7876 71.1384 79.0472 71.1384 79.3689C71.1384 79.6885 70.8772 79.9501 70.5583 79.9501Z" fill="white"/>
<path d="M96.3518 82.5461H52.9893C52.6683 82.5461 52.4092 82.2843 52.4092 81.9648C52.4092 81.6432 52.6683 81.3835 52.9893 81.3835H96.352C96.6711 81.3835 96.9321 81.6432 96.9321 81.9648C96.9319 82.2843 96.6711 82.5461 96.3518 82.5461Z" fill="white"/>
<path d="M70.5583 86.0392H44.6191C44.2982 86.0392 44.0391 85.7796 44.0391 85.458C44.0391 85.1385 44.2982 84.8767 44.6191 84.8767H70.5583C70.8772 84.8767 71.1384 85.1385 71.1384 85.458C71.1384 85.7798 70.8772 86.0392 70.5583 86.0392Z" fill="white"/>
<path d="M96.3518 88.6359H52.9893C52.6683 88.6359 52.4092 88.3763 52.4092 88.0546C52.4092 87.7349 52.6683 87.4734 52.9893 87.4734H96.352C96.6711 87.4734 96.9321 87.7349 96.9321 88.0546C96.9319 88.3763 96.6711 88.6359 96.3518 88.6359Z" fill="white"/>
</svg>
