<svg width="157" height="157" viewBox="0 0 157 157" fill="none" xmlns="http://www.w3.org/2000/svg">
<path d="M82.1866 135.931C82.116 135.931 82.0451 135.92 81.9748 135.901C81.7658 135.843 81.5893 135.71 81.4807 135.518C80.859 134.433 79.7052 133.757 78.4648 133.757C77.2078 133.757 76.0784 134.416 75.4377 135.521C75.2938 135.773 75.0224 135.931 74.7346 135.931C74.5907 135.931 74.4522 135.893 74.3274 135.819L52.4593 123.099C52.0711 122.874 51.938 122.371 52.1634 121.98C52.3073 121.726 52.5787 121.567 52.8692 121.567C53.0104 121.567 53.1516 121.606 53.2737 121.679L74.493 134.023C75.473 132.811 76.92 132.116 78.4648 132.116C80.0093 132.116 81.4565 132.811 82.4309 134.02L124.03 109.826C123.811 109.241 123.699 108.623 123.699 107.994C123.699 106.761 124.139 105.566 124.937 104.631C125.725 103.709 126.81 103.094 127.997 102.903V101.442C127.997 100.989 128.361 100.622 128.812 100.622C129.259 100.622 129.623 100.989 129.623 101.442V103.657C129.623 103.879 129.539 104.084 129.387 104.237C129.232 104.393 129.029 104.478 128.812 104.478C126.892 104.483 125.331 106.058 125.328 107.994C125.328 108.62 125.483 109.211 125.793 109.747C125.901 109.938 125.931 110.16 125.874 110.37C125.817 110.581 125.684 110.758 125.494 110.868L82.5941 135.819C82.4689 135.893 82.3275 135.931 82.1866 135.931ZM48.1641 120.473C48.023 120.473 47.8818 120.435 47.7569 120.364C47.3687 120.137 47.2357 119.634 47.461 119.243C47.6049 118.991 47.8764 118.833 48.1669 118.833C48.308 118.833 48.4492 118.871 48.5741 118.945C48.9623 119.169 49.0953 119.672 48.87 120.063C48.7261 120.318 48.4546 120.473 48.1641 120.473ZM43.462 117.739C43.3209 117.739 43.1797 117.7 43.0575 117.63L31.4326 110.868C31.0498 110.644 30.914 110.146 31.1312 109.755C31.438 109.208 31.6009 108.598 31.6009 107.994C31.5982 106.058 30.0317 104.483 28.1123 104.478C27.8978 104.478 27.6861 104.39 27.5368 104.237C27.3847 104.087 27.2979 103.873 27.2979 103.657V53.7656C27.2979 53.5496 27.3847 53.3363 27.534 53.1832C27.6861 53.0328 27.8978 52.9453 28.1123 52.9453C30.0317 52.9398 31.5982 51.3676 31.6009 49.4371C31.6009 48.8328 31.438 48.223 31.1312 47.6762C30.914 47.2879 31.0498 46.7875 31.4326 46.5633L43.5923 39.4894C43.7172 39.4184 43.8584 39.3801 43.9996 39.3801C44.2901 39.3801 44.5615 39.5359 44.7054 39.7902C44.9308 40.1812 44.7977 40.6844 44.4095 40.9086L32.8959 47.6078C33.1185 48.1984 33.2298 48.8137 33.2298 49.4371C33.2298 50.6703 32.7873 51.8652 31.9864 52.7977C31.1991 53.7164 30.1104 54.3289 28.924 54.5203V102.902C30.1104 103.094 31.1991 103.709 31.9891 104.63C32.7873 105.566 33.2298 106.761 33.2298 107.994C33.2298 108.617 33.1185 109.232 32.8959 109.823L43.872 116.208C44.1217 116.355 44.2792 116.629 44.2792 116.921C44.2792 117.064 44.2412 117.206 44.1679 117.329C44.0892 117.468 43.9724 117.58 43.8285 117.652C43.7172 117.709 43.5896 117.739 43.462 117.739ZM128.811 96.7937C128.361 96.7937 127.997 96.4246 127.997 95.9734C127.997 95.5195 128.361 95.1531 128.811 95.1531C129.259 95.1531 129.623 95.5195 129.623 95.9734C129.623 96.4246 129.259 96.7937 128.811 96.7937ZM128.811 91.325C128.361 91.325 127.997 90.9558 127.997 90.5047V54.5203C126.81 54.3289 125.725 53.7164 124.937 52.7977C124.139 51.8625 123.699 50.6703 123.699 49.4371C123.699 48.8027 123.81 48.1875 124.03 47.6051L82.4282 23.4086C81.4508 24.6145 80.0093 25.3062 78.4645 25.3062C76.9225 25.3062 75.4755 24.6145 74.4954 23.4086L53.8137 35.4371C53.8137 35.4398 53.8137 35.4398 53.8137 35.4398C53.6888 35.5109 53.5477 35.5492 53.4065 35.5492C53.116 35.5492 52.8445 35.3934 52.7006 35.1391C52.6273 35.016 52.5893 34.8738 52.5893 34.7316C52.5893 34.4391 52.7468 34.1656 52.9966 34.018L74.3271 21.6121C74.4493 21.541 74.5904 21.5027 74.7316 21.5027C75.0221 21.5027 75.2909 21.6586 75.4375 21.9074C76.0673 22.993 77.2265 23.6656 78.4618 23.6656C79.7025 23.6656 80.859 22.993 81.4807 21.9129C81.6273 21.6586 81.8961 21.5 82.1868 21.5C82.3307 21.5 82.4692 21.5383 82.5941 21.6121L125.494 46.5633C125.684 46.6726 125.82 46.8504 125.874 47.0637C125.931 47.2742 125.901 47.4984 125.79 47.6871C125.489 48.2094 125.328 48.8137 125.328 49.4371C125.331 51.3676 126.892 52.9398 128.812 52.9453C129.026 52.9453 129.235 53.0328 129.387 53.1859C129.536 53.3363 129.623 53.5469 129.623 53.7656V90.5047C129.623 90.9558 129.259 91.325 128.811 91.325ZM48.7044 38.2836C48.4139 38.2836 48.1424 38.1277 47.9985 37.8734C47.7732 37.4824 47.9062 36.9793 48.2945 36.7551C48.4193 36.6812 48.5605 36.643 48.7017 36.643C48.9922 36.643 49.2637 36.8016 49.4075 37.0531C49.5161 37.2445 49.546 37.466 49.489 37.6766C49.432 37.8871 49.2989 38.0648 49.1089 38.1742C48.9867 38.2453 48.8456 38.2836 48.7044 38.2836Z" fill="white"/>
<path d="M77.7992 104.611H77.7965C74.8346 104.611 71.9324 104.108 69.166 103.115C66.4919 102.158 64.0078 100.763 61.7816 98.975C61.6106 98.8382 61.5047 98.6441 61.4803 98.4253C61.4558 98.2093 61.5183 97.9933 61.654 97.8238C61.9228 97.482 62.4549 97.4194 62.797 97.6928C67.1 101.146 72.2854 102.97 77.7992 102.973C84.2334 102.97 90.2848 100.449 94.8348 95.8693C99.3849 91.2892 101.891 85.197 101.891 78.7165C101.891 72.2333 99.3849 66.1411 94.8348 61.5556C90.282 56.9728 84.2334 54.4489 77.7992 54.4489C71.3677 54.4489 65.3191 56.9728 60.769 61.5556C56.2216 66.1411 53.7158 72.236 53.7158 78.7165C53.7158 82.52 54.5629 86.1622 56.2379 89.5392C56.2976 89.657 56.3248 89.7828 56.3248 89.9138C56.3221 90.2228 56.1483 90.5017 55.8741 90.6411C55.7601 90.6986 55.6379 90.7259 55.5103 90.7259C55.2008 90.7259 54.9212 90.5536 54.7828 90.275C54.7828 90.275 54.7828 90.275 54.78 90.2723C54.7773 90.2665 54.7746 90.2583 54.7719 90.2531C53.9031 88.4977 53.2353 86.6437 52.7846 84.7352C52.3204 82.7743 52.0869 80.7484 52.0869 78.7168C52.0869 75.2195 52.7656 71.8262 54.1068 68.6324C55.4017 65.5453 57.256 62.7754 59.6179 60.3965C61.9798 58.0176 64.7299 56.15 67.7896 54.8457C70.9605 53.4949 74.3269 52.8086 77.7992 52.8086C81.2715 52.8086 84.6379 53.4949 87.8115 54.8457C90.8739 56.15 93.624 58.0176 95.9859 60.3965C98.3479 62.7754 100.202 65.5453 101.497 68.6324C102.838 71.8262 103.52 75.2168 103.52 78.7168C103.52 82.2141 102.838 85.6047 101.497 88.7984C100.202 91.8828 98.3479 94.6527 95.9859 97.0292C93.624 99.4078 90.8739 101.275 87.8088 102.577C84.6379 103.927 81.2715 104.611 77.7992 104.611ZM58.4424 95.3112C58.198 95.3112 57.9673 95.2018 57.8098 95.0077C57.6741 94.8381 57.6116 94.6251 57.6333 94.4061C57.6551 94.1873 57.7609 93.9932 57.9293 93.8537C58.0759 93.7362 58.2578 93.6705 58.4424 93.6705C58.6894 93.6705 58.9202 93.7826 59.0749 93.9768C59.3573 94.3265 59.3057 94.8436 58.9555 95.1307C58.8116 95.248 58.6297 95.3112 58.4424 95.3112Z" fill="#2E3138"/>
<path d="M102.705 79.5344H52.9014C52.4507 79.5344 52.0869 79.168 52.0869 78.7168C52.0869 78.2629 52.4507 77.8965 52.9014 77.8965H102.705C103.153 77.8965 103.52 78.2629 103.52 78.7168C103.52 79.168 103.153 79.5344 102.705 79.5344Z" fill="#2E3138"/>
<path d="M77.7988 104.611C77.3482 104.611 76.9844 104.245 76.9844 103.791V53.6288C76.9844 53.1776 77.3482 52.8085 77.7988 52.8085C78.2468 52.8085 78.6133 53.1776 78.6133 53.6288V103.791C78.6133 104.245 78.2468 104.611 77.7988 104.611Z" fill="#2E3138"/>
<path d="M77.8615 67.9238H77.8506C74.4951 67.9238 71.0879 67.6312 67.7242 67.0515C64.3714 66.4745 60.9697 65.5968 57.6087 64.4456C57.4024 64.3745 57.2368 64.2269 57.1418 64.0327C57.044 63.8359 57.0305 63.6116 57.101 63.4038C57.2123 63.073 57.5218 62.8488 57.8721 62.8488C57.9616 62.8488 58.0485 62.8624 58.1327 62.8925C64.6972 65.1429 71.335 66.2831 77.856 66.2831C84.3774 66.2831 90.9769 65.1429 97.4681 62.8925C97.5547 62.8624 97.6443 62.8488 97.7338 62.8488C98.0813 62.8488 98.3908 63.0702 98.5021 63.4011C98.5727 63.6089 98.5592 63.8331 98.4641 64.03C98.3688 64.2269 98.2035 64.3745 97.9972 64.4456C94.6634 65.5995 91.2779 66.4773 87.9333 67.0542C84.5943 67.6312 81.2061 67.9238 77.8615 67.9238Z" fill="#2E3138"/>
<path d="M57.8721 94.4801C57.5218 94.4801 57.2123 94.2584 57.101 93.925C57.0305 93.7172 57.044 93.4957 57.1418 93.2989C57.2368 93.102 57.4024 92.9543 57.6087 92.8832C60.967 91.7321 64.3687 90.8571 67.7242 90.2798C71.0852 89.7001 74.4923 89.4078 77.8479 89.4078C81.1953 89.4078 84.5861 89.7001 87.9254 90.2774C91.2728 90.8543 94.6612 91.7321 97.9977 92.886C98.4237 93.0309 98.649 93.4985 98.5024 93.9278C98.3911 94.2586 98.0816 94.4804 97.7341 94.4804C97.6445 94.4804 97.5549 94.4667 97.4683 94.4366C90.9714 92.189 84.3692 91.0487 77.8481 91.0487C71.3271 91.0487 64.6947 92.189 58.133 94.4366C58.0485 94.4664 57.9616 94.4801 57.8721 94.4801Z" fill="#2E3138"/>
<path d="M77.8043 104.611H77.7907C75.8985 104.611 73.9981 103.867 72.2959 102.457C70.686 101.122 69.2471 99.2272 68.02 96.8237C65.5441 91.9729 64.1785 85.5414 64.1758 78.7167C64.1758 77.4014 64.2274 76.0835 64.3305 74.801C64.3631 74.3553 64.7649 74.0135 65.2047 74.0464C65.4219 74.0655 65.6201 74.1667 65.7613 74.3335C65.9024 74.5003 65.9703 74.7108 65.954 74.9296C65.8563 76.171 65.8047 77.4452 65.8047 78.7167C65.7857 88.459 68.81 97.4882 73.3302 101.188C74.7637 102.369 76.265 102.971 77.7989 102.973C79.3328 102.97 80.8368 102.369 82.2702 101.188C83.6901 100.015 85.0258 98.2483 86.1362 96.0745C88.5008 91.4534 89.8012 85.2901 89.7985 78.7167C89.8172 68.9686 86.7931 59.9343 82.2702 56.2346C80.837 55.0507 79.333 54.4518 77.7989 54.4491C75.9229 54.4518 74.1121 55.3378 72.4153 57.085C70.7267 58.8268 69.2417 61.3807 68.1204 64.4706C68.0037 64.7932 67.6969 65.0093 67.3549 65.0093C67.2598 65.0093 67.1675 64.9928 67.078 64.96C66.7576 64.8425 66.5404 64.5335 66.5404 64.1889C66.5404 64.0932 66.5594 63.9975 66.592 63.9073C67.8082 60.5577 69.3774 57.878 71.248 55.9393C73.2271 53.8913 75.4913 52.8085 77.7962 52.8085H77.8016C79.6993 52.8085 81.6024 53.555 83.3046 54.9686C84.9145 56.303 86.3531 58.1979 87.5832 60.6014C90.0618 65.455 91.4247 71.8889 91.4274 78.7167C91.4192 83.8655 90.6455 88.8065 89.1958 93.0093C87.7623 97.1655 85.7262 100.433 83.3046 102.457C81.6024 103.867 79.702 104.611 77.8043 104.611ZM65.8943 70.2729C65.8373 70.2729 65.783 70.2675 65.7287 70.2565C65.2889 70.1635 65.0038 69.7315 65.0961 69.2858C65.1857 68.851 65.6228 68.5585 66.0572 68.6487C66.497 68.7389 66.782 69.1737 66.6897 69.6167C66.6137 69.9968 66.2771 70.2729 65.8943 70.2729Z" fill="#2E3138"/>
<path d="M56.5478 102.692C56.3414 102.692 56.146 102.615 55.9939 102.473C54.4085 100.996 52.9642 99.3529 51.7045 97.5892C50.4339 95.8091 49.3398 93.8951 48.4548 91.8987C46.6087 87.7397 45.6748 83.3045 45.6748 78.7165C45.6748 74.6888 46.3997 70.765 47.8277 67.0462C47.9471 66.7318 48.2539 66.5212 48.5878 66.5212C48.6883 66.5212 48.786 66.5404 48.881 66.5787C49.2991 66.74 49.5082 67.2158 49.3453 67.6396C47.9906 71.1669 47.3037 74.8939 47.3037 78.7165C47.3037 87.2478 50.8737 95.4701 57.1016 101.27C57.1016 101.27 57.1016 101.27 57.1016 101.272C57.2618 101.42 57.3541 101.622 57.3622 101.838C57.3704 102.06 57.2943 102.267 57.145 102.429C56.993 102.596 56.7731 102.692 56.5478 102.692Z" fill="white"/>
<path d="M77.8076 111.078C71.9055 111.078 66.1392 109.456 61.1303 106.388C60.943 106.276 60.8127 106.096 60.7611 105.883C60.7095 105.669 60.7421 105.448 60.8561 105.262C61.0054 105.016 61.2661 104.868 61.5538 104.868C61.7004 104.868 61.847 104.909 61.9746 104.986C66.731 107.898 72.2069 109.437 77.8076 109.437C85.9521 109.437 93.6107 106.241 99.3716 100.438C105.13 94.6361 108.301 86.9196 108.301 78.7165C108.301 75.8782 107.923 73.0837 107.174 70.4095C107.055 69.972 107.307 69.5181 107.739 69.3978C108.163 69.2747 108.624 69.54 108.744 69.9638C109.531 72.7829 109.93 75.7251 109.93 78.7165C109.93 83.0833 109.083 87.3216 107.408 91.3111C105.789 95.1665 103.474 98.6282 100.523 101.598C97.5747 104.57 94.1374 106.905 90.3124 108.535C86.3512 110.222 82.1432 111.078 77.8076 111.078Z" fill="white"/>
<path d="M105.67 65.1182C105.36 65.1182 105.083 64.9487 104.945 64.6725C99.6804 54.383 89.2828 47.9928 77.8072 47.9928C67.355 47.9928 57.7499 53.2838 52.1112 62.1487C51.9619 62.3866 51.704 62.526 51.4243 62.526C51.2696 62.526 51.1176 62.4823 50.9872 62.3975C50.8026 62.2799 50.6778 62.0967 50.6316 61.8807C50.5827 61.6674 50.6235 61.4487 50.7402 61.2627C53.5908 56.7811 57.5354 53.0377 62.148 50.4428C64.4909 49.1248 66.994 48.1076 69.5839 47.4186C72.2526 46.7104 75.019 46.3522 77.8072 46.3522C83.8206 46.3522 89.6846 48.0365 94.7641 51.2221C99.7078 54.3229 103.729 58.7143 106.392 63.9233C106.598 64.3252 106.441 64.8202 106.042 65.028C105.925 65.0881 105.8 65.1182 105.67 65.1182Z" fill="white"/>
<path d="M78.4639 25.3059C75.6432 25.3031 73.3465 22.9953 73.3438 20.157C73.3465 17.316 75.6432 15.0027 78.4639 15C81.282 15.0027 83.573 17.316 83.576 20.157C83.576 22.9953 81.282 25.3059 78.4639 25.3059ZM78.4639 16.6406C76.5418 16.6461 74.9781 18.2211 74.9727 20.157C74.9781 22.0875 76.5418 23.6625 78.4639 23.6652C80.3806 23.6625 81.9417 22.0875 81.9471 20.157C81.9417 18.2211 80.3806 16.6461 78.4639 16.6406Z" fill="#2E3138"/>
<path d="M128.808 54.5853C125.99 54.5825 123.699 52.2747 123.699 49.4364C123.699 46.5981 125.99 44.2876 128.808 44.2876C131.632 44.2876 133.928 46.5981 133.928 49.4364C133.928 52.2747 131.632 54.5825 128.808 54.5853ZM128.808 45.9282C126.892 45.931 125.331 47.506 125.328 49.4364C125.331 51.3669 126.892 52.9392 128.808 52.9446C130.73 52.9392 132.297 51.3669 132.3 49.4364C132.297 47.506 130.731 45.931 128.808 45.9282Z" fill="white"/>
<path d="M28.1121 54.5853C25.2913 54.5825 23 52.2747 23 49.4364C23 46.5981 25.2913 44.2876 28.1121 44.2876C30.9328 44.2876 33.2295 46.5981 33.2295 49.4364C33.2295 52.2747 30.9328 54.5825 28.1121 54.5853ZM28.1121 45.9282C26.1927 45.931 24.6316 47.506 24.6289 49.4364C24.6316 51.3669 26.1927 52.9392 28.1121 52.9446C30.0314 52.9392 31.5979 51.3669 31.6006 49.4364C31.5979 47.506 30.0314 45.931 28.1121 45.9282Z" fill="white"/>
<path d="M28.1121 113.142C25.294 113.142 23 110.831 23 107.993C23 105.152 25.294 102.839 28.1121 102.836C30.9328 102.839 33.2295 105.152 33.2295 107.993C33.2295 110.831 30.9328 113.142 28.1121 113.142ZM28.1121 104.476C26.1927 104.482 24.6316 106.059 24.6289 107.993C24.6316 109.923 26.1927 111.498 28.1121 111.501C30.0314 111.498 31.5979 109.923 31.6006 107.993C31.5979 106.06 30.0314 104.482 28.1121 104.476Z" fill="#2E3138"/>
<path d="M78.4639 142.422C75.6432 142.419 73.3465 140.112 73.3438 137.273C73.3465 134.432 75.6432 132.119 78.4639 132.116C81.282 132.119 83.573 134.433 83.576 137.273C83.576 140.112 81.282 142.419 78.4639 142.422ZM78.4639 133.757C76.5445 133.76 74.9781 135.337 74.9727 137.273C74.9781 139.204 76.5445 140.776 78.4639 140.782C80.3806 140.776 81.9417 139.204 81.9471 137.273C81.9417 135.337 80.3806 133.759 78.4639 133.757Z" fill="white"/>
<path d="M128.808 113.142C125.99 113.142 123.699 110.831 123.699 107.993C123.699 105.152 125.99 102.839 128.808 102.836C131.632 102.839 133.928 105.152 133.928 107.993C133.929 110.831 131.632 113.142 128.808 113.142ZM128.808 104.476C126.892 104.482 125.331 106.059 125.328 107.993C125.331 109.923 126.892 111.498 128.808 111.501C130.73 111.498 132.297 109.923 132.3 107.993C132.297 106.06 130.731 104.482 128.808 104.476Z" fill="#2E3138"/>
</svg>
