<svg width="157" height="157" viewBox="0 0 157 157" fill="none" xmlns="http://www.w3.org/2000/svg">
<path d="M121.024 63.0279C120.573 63.0279 120.209 62.6588 120.209 62.2076C120.209 56.6541 118.062 51.4342 114.16 47.5049C110.259 43.5783 105.077 41.4154 99.5654 41.4154C99.1148 41.4154 98.751 41.0463 98.751 40.5951C98.751 40.1412 99.1148 39.7748 99.5654 39.7748C102.57 39.7748 105.486 40.3681 108.234 41.5385C110.886 42.6677 113.267 44.2865 115.312 46.3455C117.359 48.4045 118.966 50.8053 120.087 53.4767C121.249 56.2412 121.838 59.1806 121.838 62.2076C121.838 62.6588 121.471 63.0279 121.024 63.0279ZM115.556 63.0279C115.108 63.0279 114.741 62.6588 114.741 62.2076C114.741 58.1252 113.164 54.2861 110.297 51.3986C107.43 48.5111 103.619 46.9197 99.5657 46.9197C99.115 46.9197 98.7512 46.5533 98.7512 46.0994C98.7512 45.6482 99.115 45.2791 99.5657 45.2791C101.835 45.2791 104.034 45.7275 106.108 46.6107C108.109 47.4611 109.907 48.6834 111.449 50.2365C112.993 51.7924 114.204 53.6025 115.051 55.6178C115.928 57.7041 116.371 59.9217 116.371 62.2076C116.37 62.6588 116.007 63.0279 115.556 63.0279Z" fill="#FF4D40"/>
<path d="M99.4953 53.8737C99.2838 53.8737 99.0826 53.7916 98.9279 53.644L89.5046 44.4893C89.3472 44.3334 89.2549 44.1202 89.2549 43.8987C89.2549 43.6772 89.3472 43.4612 89.5046 43.308L98.9279 34.1534C99.1613 33.9264 99.517 33.8608 99.8132 33.9866C100.114 34.1178 100.31 34.4131 100.31 34.744V53.0534C100.31 53.3842 100.114 53.6795 99.8132 53.808C99.7127 53.8518 99.6041 53.8737 99.4953 53.8737ZM91.2424 43.8987L98.6808 51.1229V36.6745L91.2424 43.8987Z" fill="#FF4D40"/>
<path d="M100.516 76.9869C97.5135 76.9869 94.5978 76.3935 91.8533 75.2232C89.2036 74.0939 86.8227 72.4779 84.7757 70.4189C82.7315 68.3599 81.1243 65.9619 80.003 63.2931C78.8413 60.5259 78.252 57.5892 78.252 54.5623C78.252 54.1111 78.6187 53.7419 79.0664 53.7419C79.5171 53.7419 79.8809 54.1111 79.8809 54.5623C79.8809 60.113 82.0283 65.333 85.9271 69.2595C89.8283 73.1833 95.0082 75.3462 100.517 75.3462C100.964 75.3462 101.331 75.7126 101.331 76.1665C101.331 76.6177 100.964 76.9869 100.516 76.9869ZM100.516 71.4798C98.2492 71.4798 96.0505 71.0341 93.9791 70.1509C91.9782 69.2978 90.1837 68.0783 88.639 66.5251C87.0966 64.9693 85.8858 63.1619 85.0388 61.1466C84.1646 59.0603 83.7197 56.8455 83.7197 54.5623C83.7197 54.1111 84.0834 53.7419 84.5341 53.7419C84.9818 53.7419 85.3486 54.1111 85.3486 54.5623C85.3486 58.6419 86.9259 62.4783 89.7928 65.363C92.6569 68.2505 96.4658 69.8392 100.516 69.8392C100.964 69.8392 101.331 70.2083 101.331 70.6595C101.331 71.1134 100.964 71.4798 100.516 71.4798Z" fill="#FF4D40"/>
<path d="M100.587 82.8468C100.478 82.8468 100.37 82.8249 100.269 82.7811C99.9679 82.6526 99.7725 82.3573 99.7725 82.0264V63.7171C99.7725 63.3862 99.9679 63.0909 100.269 62.9624C100.565 62.8339 100.921 62.9022 101.152 63.1264L110.586 72.2811C110.746 72.4343 110.835 72.6503 110.835 72.8718C110.835 73.0932 110.746 73.3093 110.586 73.4624L101.152 82.6171C100.999 82.7647 100.799 82.8468 100.587 82.8468ZM101.401 65.6475V80.096L108.848 72.8718L101.401 65.6475Z" fill="#FF4D40"/>
<path d="M58.6667 70.5121H43.1514C40.3714 70.5093 38.1072 68.2289 38.1045 65.4316V49.8019C38.1072 47.0019 40.3714 44.7242 43.1514 44.7214H56.3211C56.5681 44.7214 56.8016 44.8308 56.9564 45.025C57.1111 45.2218 57.1708 45.4734 57.1165 45.7167C57.0351 46.0941 56.9944 46.4468 56.9944 46.7914C56.9998 49.3753 59.0902 51.4808 61.6558 51.4863C61.9924 51.4863 62.3426 51.4453 62.7254 51.3632C62.9643 51.3113 63.2195 51.3714 63.4095 51.5273C63.6023 51.6832 63.7109 51.9156 63.7109 52.1644V65.4316C63.7082 68.2289 61.4467 70.5093 58.6667 70.5121ZM43.1514 46.3593C41.27 46.3648 39.7361 47.907 39.7334 49.8019V65.4316C39.7361 67.3238 41.27 68.8687 43.1514 68.8714H58.6667C60.5481 68.8687 62.0793 67.3238 62.082 65.4316V53.1105C61.9408 53.1214 61.7969 53.1269 61.6558 53.1269C59.9753 53.1269 58.3952 52.4679 57.2088 51.273C56.0197 50.0753 55.3655 48.4839 55.3655 46.7914C55.3655 46.6492 55.3709 46.5042 55.3818 46.3593H43.1514Z" fill="white"/>
<path d="M61.6555 53.1267C59.975 53.1267 58.395 52.4677 57.2086 51.2728C56.0195 50.0752 55.3652 48.4838 55.3652 46.7912C55.3652 45.1013 56.0195 43.5099 57.2086 42.3123C58.395 41.1174 59.975 40.4584 61.6555 40.4584C65.1224 40.4584 67.9431 43.2994 67.9458 46.7912C67.9431 48.4838 67.2888 50.0752 66.1024 51.2728C64.9133 52.4677 63.336 53.1267 61.6555 53.1267ZM61.6555 42.099C59.09 42.1017 56.9996 44.2099 56.9941 46.7912C56.9996 49.3752 59.09 51.4806 61.6555 51.4861C64.2211 51.4806 66.3115 49.3752 66.3169 46.7912C66.3115 44.2099 64.2211 42.1017 61.6555 42.099Z" fill="#FF4D40"/>
<path d="M125.84 110.445C125.389 110.445 125.025 110.079 125.025 109.625C125.025 109.173 125.389 108.804 125.84 108.804C126.288 108.804 126.654 109.173 126.654 109.625C126.654 110.079 126.288 110.445 125.84 110.445ZM120.41 110.445H26.3192C25.9717 110.445 25.6215 110.42 25.2767 110.371C25.0622 110.338 24.8722 110.223 24.7419 110.048C24.6116 109.873 24.5573 109.657 24.5871 109.441C24.6496 109.001 25.0704 108.683 25.5102 108.747C25.779 108.785 26.0504 108.804 26.3192 108.804H120.41C120.858 108.804 121.225 109.173 121.225 109.624C121.224 110.079 120.858 110.445 120.41 110.445ZM131.267 110.42C130.849 110.42 130.493 110.092 130.458 109.671C130.439 109.452 130.504 109.239 130.645 109.072C130.784 108.906 130.979 108.802 131.196 108.782C134.109 108.525 136.39 106.018 136.387 103.073V27.3719C136.381 24.2164 133.827 21.6461 130.694 21.6406H48.3719C47.9239 21.6406 47.5574 21.2715 47.5574 20.8203C47.5574 20.3664 47.9239 20 48.3719 20H130.694C134.728 20.0027 138.013 23.3113 138.016 27.3719V103.073C138.013 104.924 137.324 106.693 136.075 108.06C134.835 109.417 133.154 110.254 131.341 110.417C131.316 110.417 131.291 110.42 131.267 110.42ZM20.9303 107.552C20.6615 107.552 20.409 107.418 20.257 107.193C20.257 107.193 20.257 107.193 20.2543 107.191C20.0045 106.816 20.1022 106.305 20.4742 106.053C20.6072 105.96 20.7674 105.911 20.9303 105.911C21.199 105.911 21.4515 106.045 21.6008 106.269C21.6035 106.269 21.6035 106.269 21.6035 106.269C21.856 106.644 21.7583 107.155 21.3863 107.409C21.2506 107.502 21.0931 107.552 20.9303 107.552ZM19.8145 102.31C19.3638 102.31 19 101.941 19 101.49V27.3719C19.0027 23.3113 22.285 20.0027 26.3192 20H37.5234C37.974 20 38.3378 20.3664 38.3378 20.8203C38.3378 21.2715 37.974 21.6406 37.5234 21.6406H26.3192C23.1863 21.6461 20.6343 24.2164 20.6289 27.3719V101.49C20.6289 101.941 20.2624 102.31 19.8145 102.31ZM42.9476 21.6406C42.4997 21.6406 42.1332 21.2715 42.1332 20.8203C42.1332 20.3664 42.4997 20 42.9476 20C43.3983 20 43.7621 20.3664 43.7621 20.8203C43.7621 21.2715 43.3983 21.6406 42.9476 21.6406Z" fill="white"/>
<path d="M96.8585 90.1012C96.4081 90.1012 96.044 89.7348 96.044 89.2809C96.044 88.83 96.4081 88.4606 96.8585 88.4606H129.711V28.3098H116.802C116.354 28.3098 115.987 27.9407 115.987 27.4895C115.987 27.0356 116.354 26.6692 116.802 26.6692H130.526C130.74 26.6692 130.949 26.7567 131.101 26.9071C131.253 27.0602 131.34 27.2735 131.34 27.4895V89.2809C131.34 89.4997 131.256 89.7077 131.101 89.8606C130.949 90.0165 130.743 90.1012 130.526 90.1012H96.8585ZM91.4288 90.1012C90.9784 90.1012 90.6143 89.7348 90.6143 89.2809C90.6143 88.83 90.9784 88.4606 91.4288 88.4606C91.8767 88.4606 92.2432 88.83 92.2432 89.2809C92.2432 89.7348 91.877 90.1012 91.4288 90.1012ZM85.9991 90.1012H26.2402C26.0258 90.1012 25.8167 90.0137 25.6647 89.8606C25.5127 89.7075 25.4258 89.4969 25.4258 89.2809V53.7668C25.4258 53.3157 25.7923 52.9465 26.2402 52.9465C26.6909 52.9465 27.0547 53.3157 27.0547 53.7668V88.4606H85.9994C86.4473 88.4606 86.8138 88.83 86.8138 89.2809C86.8138 89.7077 86.4826 90.0684 86.0618 90.0985C86.0401 90.1012 86.0208 90.1012 85.9991 90.1012ZM26.2402 49.1184C25.7923 49.1184 25.4258 48.7493 25.4258 48.2981C25.4258 47.8469 25.7923 47.4778 26.2402 47.4778C26.6909 47.4778 27.0547 47.8469 27.0547 48.2981C27.0547 48.7493 26.6909 49.1184 26.2402 49.1184ZM26.2402 43.6497C25.7923 43.6497 25.4258 43.2805 25.4258 42.8293V27.4895C25.4258 27.2735 25.5127 27.0602 25.6647 26.9071C25.8167 26.7567 26.0258 26.6692 26.2402 26.6692H105.953C106.404 26.6692 106.768 27.0356 106.768 27.4895C106.768 27.9407 106.404 28.3098 105.953 28.3098H27.0547V42.8293C27.0547 43.2805 26.6909 43.6497 26.2402 43.6497ZM111.378 28.3098C110.93 28.3098 110.563 27.9407 110.563 27.4895C110.563 27.0356 110.93 26.6692 111.378 26.6692C111.828 26.6692 112.192 27.0356 112.192 27.4895C112.192 27.9407 111.828 28.3098 111.378 28.3098Z" fill="white"/>
<path d="M97.4397 131.792H59.5649C59.3124 131.792 59.0762 131.675 58.9187 131.472C58.764 131.27 58.7124 131.01 58.7776 130.761L60.944 122.476C61.0553 122.047 61.5114 121.776 61.9404 121.891C62.1494 121.945 62.3259 122.082 62.4345 122.271C62.5458 122.46 62.5756 122.681 62.5186 122.892L60.621 130.152H96.3833L91.239 110.445H65.7737L65.2851 112.313V112.316C65.1765 112.731 64.7529 112.996 64.3321 112.912C64.3267 112.909 64.3213 112.909 64.3159 112.906L64.2887 112.9C63.9303 112.805 63.6806 112.477 63.6833 112.102C63.6833 112.034 63.6914 111.965 63.7077 111.897L64.3593 109.417C64.4516 109.056 64.7774 108.805 65.1466 108.805H91.8688C92.238 108.805 92.5611 109.056 92.6561 109.417L98.227 130.764C98.2921 131.01 98.2408 131.27 98.0858 131.472C97.9283 131.675 97.6946 131.792 97.4397 131.792ZM63.1132 118.216C63.0453 118.216 62.9747 118.208 62.9069 118.189C62.4725 118.074 62.2119 117.625 62.3259 117.185C62.4209 116.827 62.744 116.576 63.1132 116.576C63.1838 116.576 63.2544 116.584 63.3222 116.603C63.5313 116.658 63.7077 116.794 63.819 116.983C63.9276 117.172 63.9575 117.394 63.9005 117.604C63.8082 117.965 63.4851 118.216 63.1132 118.216Z" fill="white"/>
<path d="M95.6938 136.987C95.2434 136.987 94.8793 136.618 94.8793 136.167C94.8793 135.713 95.2434 135.347 95.6938 135.347H113.376V131.792H43.6369V135.347H84.8347C85.2826 135.347 85.6491 135.713 85.6491 136.167C85.6491 136.616 85.2989 136.974 84.8564 136.985C84.8485 136.987 84.8401 136.987 84.8347 136.987H42.8225C42.608 136.987 42.399 136.9 42.2469 136.747C42.0976 136.594 42.0107 136.383 42.0107 136.167V130.972C42.0107 130.756 42.0976 130.545 42.2469 130.392C42.399 130.239 42.608 130.151 42.8225 130.151H114.19C114.405 130.151 114.614 130.239 114.766 130.392C114.918 130.545 115.005 130.756 115.005 130.972V136.167C115.005 136.386 114.92 136.591 114.766 136.747C114.611 136.9 114.407 136.987 114.19 136.987H95.6938ZM90.2641 136.987C89.8137 136.987 89.4497 136.618 89.4497 136.167C89.4497 135.713 89.8137 135.347 90.2641 135.347C90.7121 135.347 91.0786 135.713 91.0786 136.167C91.0786 136.618 90.7123 136.987 90.2641 136.987Z" fill="white"/>
<path d="M78.5008 106.087C76.7036 106.084 75.24 104.607 75.2373 102.797C75.2373 100.984 76.7033 99.5081 78.5008 99.5081C80.3059 99.5108 81.7774 100.987 81.7774 102.797C81.7749 104.607 80.3062 106.084 78.5008 106.087ZM78.5008 101.148C77.6019 101.151 76.8662 101.889 76.8662 102.797C76.8662 103.705 77.6019 104.443 78.5008 104.443C79.4076 104.443 80.146 103.705 80.1485 102.797C80.146 101.889 79.4076 101.148 78.5008 101.148Z" fill="#FF4D40"/>
</svg>
