<svg width="121" height="121" viewBox="0 0 121 121" fill="none" xmlns="http://www.w3.org/2000/svg">
<path d="M91.721 98.9833H69.4258C69.1037 98.9833 68.8427 98.7222 68.8427 98.4001C68.8427 98.078 69.1037 97.817 69.4258 97.817H91.1377V75.127L69.7011 66.709L59.5389 75.7924C59.3115 75.9955 58.9661 75.9897 58.7462 75.778L49.3202 66.7145L27.9036 75.127V97.817H59.7067C60.0288 97.817 60.2898 98.078 60.2898 98.4001C60.2898 98.7222 60.0288 98.9833 59.7067 98.9833H27.3205C26.9984 98.9833 26.7373 98.7222 26.7373 98.4001V74.7295C26.7373 74.4898 26.8841 74.2742 27.1072 74.1868L49.2415 65.4922C49.4531 65.409 49.6948 65.4564 49.8588 65.6147L59.1647 74.5625L69.1916 65.6003C69.3557 65.4531 69.5885 65.4115 69.7934 65.4922L91.9341 74.1868C92.1572 74.2742 92.304 74.4898 92.304 74.7295V98.3999C92.3042 98.7222 92.0431 98.9833 91.721 98.9833Z" fill="white"/>
<path d="M80.8625 98.9461H38.1798C37.8577 98.9461 37.5967 98.6851 37.5967 98.363V83.5053C37.5967 83.1832 37.8577 82.9221 38.1798 82.9221C38.5019 82.9221 38.763 83.1832 38.763 83.5053V97.78H80.2794V83.5053C80.2794 83.1832 80.5404 82.9221 80.8625 82.9221C81.1846 82.9221 81.4457 83.1832 81.4457 83.5053V98.3632C81.4457 98.6852 81.1848 98.9461 80.8625 98.9461Z" fill="white"/>
<path d="M70.1714 77.9746H48.8702C48.7105 77.9746 48.5575 77.9089 48.4475 77.7931C48.3374 77.677 48.2797 77.5211 48.2879 77.3613L48.8726 66.0051C48.8891 65.6836 49.1624 65.4349 49.4849 65.4526C49.8066 65.4691 50.0538 65.7434 50.0373 66.0649L49.4841 76.8081H69.5571L68.9979 66.0653C68.9811 65.7436 69.2284 65.4693 69.5499 65.4526C69.8716 65.4342 70.1457 65.683 70.1626 66.0047L70.7537 77.3609C70.7621 77.5207 70.7044 77.6768 70.5943 77.7929C70.4843 77.9089 70.3313 77.9746 70.1714 77.9746Z" fill="#141517"/>
<path d="M62.7211 85.3938H56.3214C55.9993 85.3938 55.7383 85.1327 55.7383 84.8106V77.391C55.7383 77.0689 55.9993 76.8079 56.3214 76.8079H62.7211C63.0432 76.8079 63.3043 77.0689 63.3043 77.391V84.8106C63.3043 85.1327 63.0432 85.3938 62.7211 85.3938ZM56.9046 84.2275H62.138V77.9742H56.9046V84.2275Z" fill="#141517"/>
<path d="M65.3327 98.9834H53.0498C52.8712 98.9834 52.7022 98.9014 52.5918 98.761C52.4814 98.6207 52.4412 98.4374 52.483 98.2636L55.7544 84.6745C55.8174 84.4124 56.0518 84.2278 56.3215 84.2278H62.7211C63.0007 84.2278 63.2411 84.4262 63.2938 84.7009L65.9055 98.2901C65.9384 98.4609 65.8933 98.6374 65.7823 98.7717C65.6715 98.9057 65.5065 98.9834 65.3327 98.9834ZM53.79 97.8171H64.6267L62.2393 85.3943H56.7806L53.79 97.8171Z" fill="#141517"/>
<path d="M59.8098 61.0837C50.6884 61.0837 43.2676 53.6631 43.2676 44.5418C43.2676 35.4206 50.6884 28 59.8098 28C60.1319 28 60.3929 28.2611 60.3929 28.5832C60.3929 28.9052 60.1319 29.1663 59.8098 29.1663C51.3314 29.1663 44.4339 36.0636 44.4339 44.5418C44.4339 53.0201 51.3314 59.9174 59.8098 59.9174C68.2878 59.9174 75.1855 53.0201 75.1855 44.5418C75.1855 37.213 69.9745 30.8685 62.7949 29.4559C62.4789 29.3937 62.273 29.0872 62.3354 28.7713C62.3974 28.4554 62.7038 28.2488 63.02 28.3118C70.745 29.8317 76.3518 36.6576 76.3518 44.542C76.3516 53.6631 68.9308 61.0837 59.8098 61.0837Z" fill="#141517"/>
<path d="M71.9127 41.4619C67.7698 41.4619 63.9282 40.2591 61.0953 38.0752C60.8403 37.8785 60.7928 37.5122 60.9895 37.2572C61.1863 37.002 61.5523 36.9548 61.8075 37.1515C64.3994 39.1495 68.0826 40.2956 71.9127 40.2956C73.0174 40.2956 74.1159 40.2023 75.1776 40.0178C75.4929 39.9642 75.7967 40.1753 75.8519 40.4927C75.9069 40.8102 75.6943 41.112 75.377 41.167C74.2496 41.3628 73.0841 41.4619 71.9127 41.4619Z" fill="#141517"/>
<path d="M51.3956 41.156C48.9927 41.156 46.6068 40.7321 44.4962 39.93C44.1953 39.8157 44.0438 39.4789 44.1583 39.1778C44.2726 38.8767 44.6095 38.7256 44.9106 38.8399C46.8902 39.5922 49.1326 39.9899 51.3956 39.9899C58.9342 39.9899 65.0672 35.6845 65.0672 30.3922C65.0672 30.0701 65.3282 29.8091 65.6503 29.8091C65.9724 29.8091 66.2335 30.0701 66.2335 30.3922C66.2335 36.3271 59.5772 41.156 51.3956 41.156Z" fill="#141517"/>
<path d="M92.6416 54.6596H82.8214C82.4993 54.6596 82.2382 54.3985 82.2382 54.0764V32.5687H76.5832C76.3331 32.5687 76.1107 32.4091 76.0306 32.172C75.9507 31.9348 76.0308 31.6732 76.2298 31.5216L87.2634 23.1193C87.4701 22.9615 87.7568 22.9601 87.9653 23.1158L99.1883 31.4883C99.355 31.5908 99.4664 31.7752 99.4664 31.9855C99.4666 32.3082 99.2085 32.5771 98.8813 32.5687C98.8807 32.5687 98.88 32.5687 98.8794 32.5687H93.2244V54.0764C93.2248 54.3985 92.9637 54.6596 92.6416 54.6596ZM83.4045 53.4933H92.0585V31.9855C92.0585 31.6635 92.3195 31.4024 92.6416 31.4024H97.1227L87.6205 24.3136L78.3117 31.4024H82.8214C83.1435 31.4024 83.4045 31.6635 83.4045 31.9855V53.4933Z" fill="white"/>
<path d="M26.4155 63.8639C26.0934 63.8639 25.8324 63.6028 25.8324 63.2807V40.6658H21.5831C21.333 40.6658 21.1106 40.5062 21.0307 40.269C20.9506 40.0319 21.0307 39.7702 21.2298 39.6186L29.763 33.1192C29.9698 32.9616 30.2563 32.9602 30.4649 33.1155L39.1838 39.6149C39.3854 39.7652 39.4678 40.0276 39.3889 40.2661C39.3097 40.5048 39.0866 40.6658 38.8353 40.6658H34.5923V57.1734C34.5923 57.4955 34.3312 57.7565 34.0091 57.7565C33.687 57.7565 33.426 57.4955 33.426 57.1734V40.0826C33.426 39.7605 33.687 39.4995 34.0091 39.4995H37.0772L30.1203 34.3135L23.3112 39.4995H26.4155C26.7376 39.4995 26.9987 39.7605 26.9987 40.0826V63.2807C26.9987 63.6028 26.7376 63.8639 26.4155 63.8639Z" fill="white"/>
</svg>
