<svg width="121" height="121" viewBox="0 0 121 121" fill="none" xmlns="http://www.w3.org/2000/svg">
<path d="M23.9668 83.543C23.9311 83.543 23.8954 83.5388 23.8597 83.5325C23.5571 83.482 23.3365 83.2194 23.3365 82.9126V75.6955C23.3365 75.5295 23.4037 75.3675 23.5214 75.2501C23.639 75.1322 23.8008 75.0652 23.9668 75.0652H26.5154C26.7192 75.0652 26.9125 75.1658 27.0302 75.332C27.1478 75.5001 27.1772 75.7144 27.11 75.9056L24.5614 83.1206C24.4732 83.3728 24.2336 83.543 23.9668 83.543ZM24.5971 76.3258V79.2358L25.6245 76.3258H24.5971ZM30.6986 64.4842H23.9668C23.8008 64.4842 23.639 64.417 23.5214 64.2993C23.4037 64.1815 23.3365 64.0199 23.3365 63.8539V43.7089C23.3365 43.5429 23.4037 43.3791 23.5214 43.2614C23.639 43.1458 23.8008 43.0786 23.9668 43.0786H77.6909C77.8569 43.0786 78.0187 43.1458 78.1364 43.2635C78.254 43.3791 78.3213 43.5429 78.3213 43.7089V50.966C78.3213 51.1341 78.2559 51.2917 78.1364 51.4114C78.0185 51.5291 77.859 51.5963 77.6909 51.5963H65.135C64.7883 51.5963 64.5047 51.3127 64.5047 50.966C64.5047 50.6172 64.7883 50.3357 65.135 50.3357H77.0606V44.3393H24.5971V63.2236H30.2511L34.657 50.7559C34.7452 50.5038 34.9848 50.3357 35.2516 50.3357H56.7308C57.0793 50.3357 57.3611 50.6172 57.3611 50.966C57.3611 51.3127 57.0793 51.5963 56.7308 51.5963H35.697L31.2932 64.064C31.2029 64.3161 30.9654 64.4842 30.6986 64.4842ZM60.9329 51.5963C60.5862 51.5963 60.3026 51.3127 60.3026 50.966C60.3026 50.6172 60.5862 50.3357 60.9329 50.3357C61.2814 50.3357 61.5632 50.6172 61.5632 50.966C61.5632 51.3127 61.2814 51.5963 60.9329 51.5963Z" fill="white"/>
<path d="M77.6907 83.5432H35.8753C35.5266 83.5432 35.245 83.2596 35.245 82.9129C35.245 82.5641 35.5266 82.2826 35.8753 82.2826H77.2452L79.7686 75.1264H70.9379C68.4798 75.124 66.4775 73.1219 66.4731 70.6616C66.4775 68.1989 68.4798 66.1945 70.9379 66.1924H71.9674C72.3161 66.1924 72.5977 66.4763 72.5977 66.8227C72.5977 67.1694 72.3161 67.4531 71.9674 67.4531H70.9379C69.1751 67.4552 67.7381 68.8965 67.7337 70.6616C67.7381 72.4263 69.1751 73.8634 70.9379 73.8657H80.6597C80.8635 73.8657 81.0568 73.9664 81.1744 74.1325C81.2921 74.2985 81.3213 74.5131 81.2543 74.7061L78.2855 83.1209C78.197 83.373 77.9575 83.5432 77.6907 83.5432ZM31.6732 83.5432C31.3244 83.5432 31.0429 83.2596 31.0429 82.9129C31.0429 82.5641 31.3244 82.2826 31.6732 82.2826C32.0199 82.2826 32.3035 82.5641 32.3035 82.9129C32.3035 83.2596 32.0199 83.5432 31.6732 83.5432ZM27.4711 83.5432H23.9665C23.7627 83.5432 23.5694 83.4426 23.4518 83.2764C23.3341 83.1081 23.3047 82.894 23.3719 82.7028L34.6567 50.7561C34.745 50.504 34.9845 50.3359 35.2513 50.3359H88.9734C89.1772 50.3359 89.3684 50.4347 89.4879 50.6007C89.6058 50.7688 89.635 50.9831 89.5678 51.1764L83.9642 67.0331C83.8739 67.2831 83.6346 67.4533 83.3696 67.4533H80.3714C80.0247 67.4533 79.7411 67.1696 79.7411 66.823C79.7411 66.4765 80.0247 66.1926 80.3714 66.1926H82.9221L88.0804 51.5966H35.6968L24.8574 82.2826H27.4711C27.8178 82.2826 28.1014 82.5641 28.1014 82.9129C28.1014 83.2469 27.8388 83.5243 27.5026 83.5411C27.4921 83.5411 27.4816 83.5432 27.4711 83.5432ZM76.1716 67.4533C75.8228 67.4533 75.5413 67.1696 75.5413 66.823C75.5413 66.4765 75.8228 66.1926 76.1716 66.1926C76.5183 66.1926 76.7998 66.4765 76.7998 66.823C76.7998 67.1696 76.5183 67.4533 76.1716 67.4533Z" fill="white"/>
<path d="M51.4003 44.3395H28.505C28.339 44.3395 28.1772 44.2723 28.0596 44.1546C27.9419 44.037 27.8747 43.8731 27.8747 43.7071V37.5405C27.8747 37.3745 27.9419 37.2106 28.0596 37.0951C28.1772 36.9774 28.339 36.9102 28.505 36.9102H45.8241C46.0005 36.9102 46.1707 36.9858 46.2905 37.1161L51.8667 43.2848C52.0348 43.4697 52.0768 43.7365 51.976 43.9634C51.8751 44.1924 51.6482 44.3395 51.4003 44.3395ZM29.1353 43.0789H49.98L45.5446 38.1708H29.1353V43.0789Z" fill="white"/>
<path d="M72.5242 51.6007H40.5754C40.4094 51.6007 40.2477 51.5335 40.13 51.4158C40.0144 51.2982 39.9472 51.1364 39.9472 50.9704V47.7978C39.9472 47.6318 40.0144 47.47 40.13 47.3524C40.2477 47.2347 40.4115 47.1675 40.5754 47.1675H72.5242C72.6878 47.1675 72.8519 47.2347 72.9694 47.3524C73.0872 47.47 73.1545 47.6318 73.1545 47.7978V50.9704C73.1545 51.1385 73.0872 51.2961 72.9694 51.4158C72.8498 51.5356 72.6922 51.6007 72.5242 51.6007ZM41.2057 50.3401H71.8938V48.4281H41.2057V50.3401Z" fill="#FF4D40"/>
<path d="M79.5138 57.5507H39.2218C38.873 57.5507 38.5894 57.2691 38.5894 56.9204C38.5894 56.5737 38.873 56.29 39.2218 56.29H79.5138C79.8603 56.29 80.142 56.5737 80.142 56.9204C80.142 57.2691 79.8603 57.5507 79.5138 57.5507Z" fill="white"/>
<path d="M84.3314 75.1263H70.9372C68.4791 75.124 66.4768 73.1219 66.4724 70.6616C66.4768 68.1989 68.4791 66.1945 70.9372 66.1924H84.3314C84.4974 66.1924 84.6613 66.2596 84.7769 66.3773C84.8947 66.4951 84.9618 66.6567 84.9618 66.8227V74.496C84.9618 74.6662 84.8966 74.8238 84.7769 74.9435C84.6594 75.0612 84.4997 75.1263 84.3314 75.1263ZM70.9372 67.4532C69.1744 67.4553 67.7375 68.8967 67.733 70.6618C67.7375 72.4264 69.1744 73.8636 70.9372 73.8659H83.7011V67.4532H70.9372Z" fill="#FF4D40"/>
<path d="M98.8439 73.2751C98.7137 73.2751 98.5876 73.2354 98.4805 73.1596C98.3145 73.0398 98.2136 72.8486 98.2136 72.6448V72.5418H86.6032C86.4372 72.5418 86.2752 72.4748 86.1577 72.357C86.0399 72.2414 85.9728 72.0775 85.9728 71.9115V69.4071C85.9728 69.2411 86.0399 69.0793 86.1577 68.9616C86.2754 68.844 86.4372 68.7767 86.6032 68.7767H98.2136V68.6759C98.2136 68.47 98.3143 68.2786 98.4805 68.1611C98.6466 68.0437 98.8649 68.0141 99.054 68.0813L103.58 69.6884C103.83 69.7768 104 70.0164 104 70.283V71.0415C104 71.3085 103.83 71.5457 103.58 71.6361L99.054 73.2371C98.9868 73.2625 98.9154 73.2751 98.8439 73.2751ZM87.2335 71.281H98.8439C99.0099 71.281 99.1717 71.3482 99.2894 71.4661C99.3692 71.5459 99.4257 71.6466 99.4553 71.7582L102.554 70.6614L99.4553 69.5604C99.428 69.6718 99.3713 69.7726 99.2894 69.8525C99.1715 69.9722 99.012 70.0374 98.8439 70.0374H87.2335V71.281Z" fill="#FF4D40"/>
<path d="M84.3314 72.834H68.6451C67.4515 72.8319 66.4768 71.857 66.4724 70.6615C66.4768 69.4679 67.4515 68.4932 68.6451 68.4888H84.3314C84.4974 68.4888 84.6613 68.556 84.7769 68.6739C84.8947 68.7915 84.9618 68.9531 84.9618 69.1191V72.2037C84.9618 72.3717 84.8966 72.5314 84.7769 72.6491C84.6594 72.7686 84.4997 72.834 84.3314 72.834ZM68.6451 69.7494C68.1533 69.7517 67.7354 70.1696 67.733 70.6615C67.7354 71.1552 68.1533 71.5733 68.6451 71.5733H83.7011V69.7494H68.6451Z" fill="#FF4D40"/>
<path d="M86.6009 73.6406H84.3315C84.1655 73.6406 84.0037 73.5734 83.8863 73.4557C83.7684 73.3378 83.7012 73.1763 83.7012 73.0103V68.3144C83.7012 68.1484 83.7684 67.9845 83.8863 67.869C84.0039 67.7511 84.1655 67.6841 84.3315 67.6841H86.6009C86.7668 67.6841 86.9305 67.7511 87.0461 67.869C87.1639 67.9866 87.2312 68.1484 87.2312 68.3144V73.0103C87.2312 73.1784 87.1658 73.3359 87.0461 73.4557C86.9286 73.5752 86.7689 73.6406 86.6009 73.6406ZM84.9618 72.38H85.9705V68.9447H84.9618V72.38Z" fill="#FF4D40"/>
<path d="M36.2563 76.3258H17.0925C16.9265 76.3258 16.7626 76.2586 16.6471 76.143C16.5294 76.0252 16.4622 75.8615 16.4622 75.6955V63.8539C16.4622 63.688 16.5294 63.5262 16.6449 63.4085C16.7647 63.2909 16.9265 63.2236 17.0925 63.2236H36.2563C36.4222 63.2236 36.584 63.2909 36.7017 63.4085C36.8193 63.5262 36.8866 63.688 36.8866 63.8539V75.6955C36.8866 75.8636 36.8214 76.0233 36.7017 76.143C36.5819 76.2607 36.4243 76.3258 36.2563 76.3258ZM17.7228 75.0652H35.6259V64.4843H17.7228V75.0652Z" fill="#FF4D40"/>
<path d="M20.7149 52.5668C20.3682 52.5668 20.0845 52.2852 20.0845 51.9385V40.9521C20.0845 40.7861 20.1518 40.6243 20.2694 40.5067C20.3871 40.389 20.5489 40.3218 20.7149 40.3218H25.1964C25.5431 40.3218 25.8267 40.6054 25.8267 40.9521C25.8267 41.3009 25.5431 41.5824 25.1964 41.5824H21.3452V51.9385C21.3452 52.2852 21.0636 52.5668 20.7149 52.5668Z" fill="#FF4D40"/>
<path d="M86.1164 49.1007H80.4288C80.263 49.1007 80.101 49.0334 79.9836 48.9158C79.8657 48.7981 79.7985 48.6363 79.7985 48.4703V43.329C79.7985 43.3269 79.7985 43.3269 79.7985 43.3248C79.8008 42.9803 80.0823 42.6987 80.4288 42.6987C80.7755 42.6987 81.0591 42.9824 81.0591 43.329V47.84H86.1164C86.463 47.84 86.7467 48.1216 86.7467 48.4703C86.7467 48.817 86.463 49.1007 86.1164 49.1007Z" fill="white"/>
</svg>
