<svg width="121" height="121" viewBox="0 0 121 121" fill="none" xmlns="http://www.w3.org/2000/svg">
<path d="M76.1505 88.3508H20.8131C18.2336 88.3489 16.1311 86.2465 16.1292 83.665V79.5466C16.1292 79.3979 16.1896 79.2525 16.2952 79.1471C16.4008 79.0413 16.5459 78.981 16.6949 78.981H79.5314C79.8027 78.981 80.0368 79.1752 80.0875 79.441C80.1367 79.7088 79.9913 79.9747 79.7386 80.0727L77.0988 81.1098C76.9913 81.2418 76.831 81.3174 76.6613 81.3174C76.3483 81.3174 76.0956 81.0627 76.0956 80.7517V80.6744C76.0956 80.4444 76.2391 80.2332 76.4539 80.1483L76.5442 80.1125H17.2606V83.6652C17.2644 85.6225 18.8596 87.2158 20.8131 87.2196H76.1505C76.4635 87.2196 76.7162 87.4723 76.7162 87.7853C76.7162 87.7947 76.7162 87.8042 76.7162 87.8136C76.7009 88.1151 76.4522 88.3508 76.1505 88.3508ZM76.6615 85.0887C76.3485 85.0887 76.0958 84.8339 76.0958 84.523C76.0958 84.2119 76.3485 83.9573 76.6615 83.9573C76.9726 83.9573 77.2272 84.2119 77.2272 84.523C77.2272 84.8339 76.9726 85.0887 76.6615 85.0887ZM89.8948 81.502C89.7534 81.502 89.6174 81.4494 89.5137 81.3551L89.4119 81.2628C89.2384 81.1044 89.1801 80.8592 89.2648 80.6405C89.3497 80.4199 89.5573 80.2785 89.793 80.2785H90.0021C90.2359 80.2785 90.449 80.4253 90.5321 80.646C90.6132 80.8666 90.5491 81.1174 90.37 81.272L90.2644 81.3644C90.1605 81.4532 90.0306 81.502 89.8948 81.502Z" fill="white"/>
<path d="M79.5301 80.1122H22.3185C22.1695 80.1122 22.0243 80.0521 21.9187 79.9463C21.8131 79.8407 21.7528 79.6955 21.7528 79.5465V74.7684C21.7528 74.4554 22.0073 74.2027 22.3185 74.2027C22.6296 74.2027 22.8842 74.4554 22.8842 74.7684V78.9809H79.4227L83.0525 77.5553C83.1807 77.5044 83.3238 77.5025 83.4541 77.5497L83.4598 77.5536C83.4598 77.5536 83.4617 77.5536 83.4636 77.5536C83.6031 77.6083 83.7125 77.712 83.7747 77.8495C83.7785 77.857 83.7822 77.8666 83.786 77.8742C83.8105 77.9419 83.8237 78.0116 83.8237 78.0816C83.8237 78.3154 83.6823 78.5228 83.4654 78.6077L79.7376 80.0728C79.6716 80.0992 79.6018 80.1122 79.5301 80.1122ZM86.5616 78.3022C86.4163 78.3022 86.2767 78.2457 86.1694 78.1438C85.945 77.927 85.9392 77.5666 86.1562 77.3424C86.3655 77.1256 86.737 77.118 86.9557 77.3274C87.1799 77.5442 87.1858 77.9044 86.9708 78.1287C86.8615 78.24 86.718 78.3022 86.5616 78.3022ZM86.9652 75.4755C86.654 75.4755 86.3995 75.2228 86.3995 74.9098V74.2857C85.3662 73.6521 84.5007 72.7621 83.8991 71.7099C83.2767 70.6257 82.9488 69.3868 82.9488 68.1291C82.9467 66.1228 83.7462 64.273 85.1983 62.9191C85.8772 62.2857 86.6597 61.7896 87.5252 61.4446C88.3982 61.0976 89.3109 60.9204 90.2388 60.9204H90.2426C91.2947 60.9204 92.3111 61.1504 93.2577 61.6048V41.0366H72.3026C71.9895 41.0366 71.7369 40.784 71.7369 40.471C71.7369 40.1598 71.9895 39.9053 72.3026 39.9053H93.8232C93.9721 39.9053 94.119 39.9656 94.2248 40.0712C94.3304 40.1768 94.3907 40.322 94.3907 40.471V62.5759C94.3907 62.7852 94.2757 62.9778 94.0909 63.0756C93.9099 63.1718 93.6799 63.1605 93.5102 63.0473C92.5353 62.397 91.4039 62.0519 90.2386 62.0519H90.2346C88.6752 62.0519 87.1215 62.6685 85.9712 63.745C84.7343 64.9047 84.0802 66.4207 84.0802 68.1291C84.0802 70.3468 85.2888 72.3925 87.2386 73.4654C87.4175 73.5653 87.5309 73.7539 87.5309 73.9615V74.9098C87.5309 75.223 87.2761 75.4755 86.9652 75.4755ZM22.3185 71.5611C22.0073 71.5611 21.7528 71.3084 21.7528 70.9973C21.7528 70.6843 22.0073 70.4316 22.3185 70.4316C22.6296 70.4316 22.8842 70.6843 22.8842 70.9973C22.8842 71.3084 22.6296 71.5611 22.3185 71.5611ZM22.3185 67.7916C22.0073 67.7916 21.7528 67.537 21.7528 67.2259V40.471C21.7528 40.322 21.8131 40.1768 21.9187 40.0712C22.0243 39.9656 22.1695 39.9053 22.3185 39.9053H36.0307C36.1797 39.9053 36.3249 39.9656 36.4305 40.0712C36.5361 40.1768 36.5964 40.322 36.5964 40.471V45.1963C36.6002 46.7086 37.8334 47.9437 39.3475 47.9456H40.1734C40.3224 47.9456 40.4695 48.0059 40.5732 48.1115C40.6788 48.2171 40.7391 48.3623 40.7391 48.5113V51.3133L46.0321 48.0304C46.1207 47.9757 46.2263 47.9456 46.3319 47.9456H55.4262C56.3408 47.9456 57.2232 47.4629 57.7286 46.686L57.078 46.2806C56.9687 46.2146 56.8895 46.1146 56.8461 45.9958C56.8442 45.9921 56.8423 45.9883 56.8423 45.9845C56.8273 45.9449 56.8197 45.9034 56.8141 45.862V45.8488C56.8027 45.7432 56.8254 45.6357 56.8744 45.5414L56.88 45.5282L56.8819 45.5263C56.8838 45.5244 56.8857 45.5207 56.8876 45.5169L56.9027 45.4905C56.9046 45.4905 56.9046 45.4886 56.9046 45.4886C56.9196 45.466 56.9366 45.4452 56.9536 45.4245C56.9611 45.417 56.9668 45.4113 56.9724 45.4056L56.9875 45.3906C56.9875 45.3887 56.9894 45.3887 56.9913 45.3868C56.9932 45.3849 56.9951 45.383 56.997 45.3811C57.0384 45.3434 57.0856 45.3114 57.1365 45.2887L57.1535 45.2812C57.1553 45.2812 57.1553 45.2793 57.1572 45.2793L57.1667 45.2755C57.21 45.2586 57.2534 45.2472 57.2968 45.2416L57.3005 45.2491L57.2987 45.2397C57.4288 45.2227 57.5626 45.251 57.6758 45.3208L62.9668 48.6037V45.8016C62.9668 45.6508 63.0272 45.5056 63.133 45.4C63.2386 45.2963 63.3856 45.2359 63.5325 45.2359H64.366C65.5897 45.2359 66.6779 44.4081 67.0098 43.224C67.0909 42.9317 67.4114 42.7488 67.7075 42.8318C68.0073 42.9166 68.1827 43.2296 68.0976 43.5294C67.8734 44.3289 67.385 45.0511 66.7251 45.5603C66.0406 46.0863 65.2241 46.3654 64.3605 46.3673H64.0982V49.62C64.0982 49.8255 63.987 50.0141 63.8078 50.114C63.6325 50.2121 63.4062 50.2064 63.2346 50.1008L58.6902 47.2818C57.9699 48.4038 56.7481 49.0751 55.4206 49.0769H46.4922L40.4714 52.8105C40.2998 52.918 40.0754 52.9236 39.9 52.8237C39.719 52.7237 39.6077 52.5352 39.6077 52.3296V49.0769H39.3475C37.2092 49.0751 35.4669 47.3346 35.465 45.1963V41.0366H22.8842V67.2261C22.8842 67.5372 22.6296 67.7916 22.3185 67.7916ZM68.5313 41.0366C68.2183 41.0366 67.9656 40.784 67.9656 40.471C67.9656 40.1598 68.2183 39.9053 68.5313 39.9053C68.8423 39.9053 69.097 40.1598 69.097 40.471C69.097 40.784 68.8424 41.0366 68.5313 41.0366Z" fill="white"/>
<path d="M68.6659 80.1127C68.3548 80.1127 68.1002 79.86 68.1002 79.547C68.1002 79.236 68.3548 78.9813 68.6659 78.9813H79.4234L85.6554 76.532C85.859 76.4528 86.0966 76.5 86.255 76.6527L86.4004 76.7923V74.2863C85.3671 73.6527 84.5016 72.7627 83.9001 71.7105C83.2776 70.6263 82.9497 69.3874 82.9497 68.1297C82.9497 67.2682 83.1006 66.4196 83.4004 65.6107L83.4456 65.4898C83.4513 65.471 83.4607 65.4521 83.4701 65.4314L83.5058 65.3446C83.5399 65.2617 83.5756 65.1806 83.6116 65.105L83.6813 64.9541L83.717 64.8825C83.7245 64.8655 83.7321 64.8504 83.7396 64.8372L84.062 64.2734C84.0735 64.2565 84.0847 64.2378 84.0962 64.2225C84.1075 64.2055 84.1226 64.1848 84.1394 64.1584C84.162 64.1226 84.1905 64.0792 84.228 64.0302L84.2751 63.9583C84.2883 63.9338 84.3053 63.9112 84.3223 63.8888L84.4752 63.6927C84.5184 63.634 84.5563 63.5888 84.5845 63.555C84.6015 63.5343 84.6147 63.5192 84.6241 63.506L84.6279 63.502C84.6373 63.4907 84.647 63.4775 84.6581 63.4664L84.8429 63.2571C84.8429 63.2552 84.8448 63.2552 84.8448 63.2533L84.924 63.1703C85.0164 63.0723 85.1106 62.978 85.2125 62.8837L85.418 62.697C85.418 62.697 85.4199 62.697 85.4199 62.6952L85.5519 62.5783C85.5764 62.5592 85.6028 62.5366 85.633 62.5141C85.6631 62.4894 85.6971 62.463 85.7329 62.4348L85.8479 62.348C85.8479 62.3461 85.8479 62.3461 85.8498 62.3461L86.1532 62.1312C86.1532 62.1293 86.1553 62.1274 86.1572 62.1274L86.7624 61.7654H86.7643L86.9097 61.6843L88.043 61.228L88.1693 61.1884C88.1919 61.1827 88.2127 61.177 88.2353 61.1733L88.7369 61.0526L89.4364 60.9489C89.5552 60.9338 89.6608 60.9281 89.7551 60.9244L89.7796 60.9225V44.7212H82.7802C82.4672 44.7212 82.2145 44.4667 82.2145 44.1555C82.2145 43.8425 82.4672 43.5898 82.7802 43.5898H90.3453C90.4943 43.5898 90.6395 43.6502 90.7451 43.7558C90.8507 43.8595 90.911 44.0066 90.911 44.1555V61.4787C90.911 61.6296 90.8525 61.771 90.7451 61.8785C90.6376 61.986 90.4962 62.0444 90.3453 62.0444L89.8324 62.0539C89.7212 62.0576 89.6418 62.0633 89.5684 62.0727L89.0763 62.1406L88.603 62.2443L88.5049 62.2726C88.488 62.2764 88.4729 62.282 88.4578 62.2839L87.9317 62.4649L87.3941 62.7082L87.1735 62.829C87.1735 62.8309 87.1716 62.8309 87.1697 62.8309L86.6154 63.1854L86.4249 63.3306C86.3966 63.3514 86.3683 63.374 86.3363 63.4004C86.3155 63.4175 86.2946 63.4345 86.2701 63.4532L85.9893 63.704C85.9081 63.7794 85.8289 63.8605 85.7461 63.9472L85.5875 64.1188C85.5875 64.1207 85.5875 64.1207 85.5875 64.1207L85.5047 64.2169C85.4783 64.2489 85.4557 64.2772 85.4368 64.2998C85.4123 64.33 85.3954 64.3507 85.3842 64.3675C85.3786 64.3751 85.3727 64.3826 85.3671 64.3901L85.2483 64.5412C85.2428 64.5506 85.237 64.5582 85.2313 64.5657L85.1842 64.6334C85.1729 64.6541 85.1597 64.673 85.1446 64.692C85.1333 64.7071 85.1163 64.7316 85.0956 64.7637C85.0765 64.7918 85.0541 64.824 85.0294 64.8617L84.7637 65.3201C84.758 65.3352 84.7505 65.3503 84.7429 65.3652L84.6637 65.5257C84.6543 65.5462 84.6447 65.5688 84.6355 65.5898L84.626 65.6086C84.6166 65.6277 84.6072 65.6503 84.5959 65.6784C84.5829 65.7067 84.5678 65.7425 84.5487 65.7821C84.5487 65.7821 84.5487 65.7842 84.5487 65.7861L84.5055 65.8936C84.498 65.9105 84.4923 65.9235 84.4848 65.9367L84.4603 66.0065C84.4603 66.0065 84.4603 66.0065 84.4584 66.0065C84.2076 66.691 84.0813 67.4037 84.0813 68.1297C84.0792 70.3474 85.29 72.3931 87.2376 73.466C87.4186 73.566 87.532 73.7545 87.532 73.9621V78.1235C87.532 78.3517 87.3962 78.5553 87.1869 78.6441C86.9795 78.7328 86.7343 78.6856 86.5722 78.5308L85.7312 77.7181L79.7387 80.0731C79.6727 80.0996 79.6029 80.1127 79.5313 80.1127H68.6659ZM64.8947 80.1127C64.5836 80.1127 64.329 79.8581 64.329 79.547C64.329 79.236 64.5836 78.9813 64.8947 78.9813C65.2077 78.9813 65.4604 79.236 65.4604 79.547C65.4604 79.8583 65.2077 80.1127 64.8947 80.1127ZM61.1234 80.1127H25.8001C25.6511 80.1127 25.504 80.0525 25.4003 79.9467C25.2947 79.8411 25.2344 79.6959 25.2344 79.547V48.8756C25.2344 48.5626 25.487 48.3099 25.8001 48.3099C26.1112 48.3099 26.3657 48.5626 26.3657 48.8756V78.9815H61.1234C61.4365 78.9815 61.6891 79.2362 61.6891 79.5472C61.6891 79.8583 61.4365 80.1127 61.1234 80.1127ZM40.1742 52.8958C40.078 52.8958 39.9837 52.8713 39.8989 52.8241C39.7197 52.7242 39.6085 52.5356 39.6085 52.3301V49.0774H39.3483C37.2081 49.0755 35.4677 47.3351 35.4658 45.1968V44.7216H26.2168C26.313 44.8253 26.3657 44.9611 26.3657 45.1044C26.3657 45.4155 26.1112 45.6701 25.8001 45.6701C25.487 45.6701 25.2344 45.4155 25.2344 45.1044C25.2344 44.9102 25.3287 44.7348 25.4908 44.6292C25.3287 44.5236 25.2344 44.3482 25.2344 44.1559C25.2344 43.8429 25.487 43.5902 25.8001 43.5902H36.0315C36.1804 43.5902 36.3256 43.6506 36.4312 43.7562C36.5368 43.8599 36.5971 44.0069 36.5971 44.1559V45.1968C36.599 46.709 37.8341 47.9422 39.3483 47.946H40.1742C40.3231 47.946 40.4702 48.0063 40.5739 48.1119C40.6795 48.2175 40.7399 48.3627 40.7399 48.5117V51.3137L46.0328 48.0309C46.1214 47.9762 46.227 47.946 46.3307 47.946H55.427C56.3415 47.946 57.2221 47.4633 57.7293 46.6864L57.0788 46.281C56.9506 46.2018 56.8619 46.0774 56.8261 45.9303C56.8054 45.8398 56.8072 45.7474 56.8299 45.6606L56.8336 45.6474C56.8336 45.6474 56.8336 45.6455 56.8336 45.6437C56.8355 45.6418 56.8355 45.638 56.8355 45.6361L56.8393 45.6248C56.8412 45.621 56.8412 45.6192 56.8431 45.6173L56.8468 45.6041C56.8487 45.5984 56.8506 45.5946 56.8525 45.5909C56.8525 45.5909 56.8525 45.5909 56.8525 45.589C56.8657 45.5588 56.8789 45.5305 56.8978 45.5022L56.9392 45.4419C56.9411 45.4419 56.9411 45.44 56.943 45.44C56.9788 45.3948 57.0241 45.3552 57.075 45.3231L57.0825 45.3288L57.0769 45.3212L57.092 45.3118L57.0957 45.3099C57.19 45.2571 57.2994 45.2288 57.4069 45.2364C57.5012 45.2401 57.5935 45.2703 57.6765 45.3212L62.9676 48.6041V45.8021C62.9676 45.6512 63.0279 45.506 63.1337 45.4004C63.2393 45.2948 63.3843 45.2345 63.5353 45.2345H64.3612C65.3267 45.2345 66.2354 44.7103 66.7352 43.8674C66.8371 43.6958 67.0237 43.5902 67.2217 43.5902H75.2375C75.5486 43.5902 75.8032 43.8429 75.8032 44.1559C75.8032 44.467 75.5486 44.7216 75.2375 44.7216H67.5291C66.7975 45.7511 65.6133 46.3659 64.3612 46.3659H64.0989V49.6204C64.0989 49.826 63.9877 50.0145 63.8086 50.1145C63.6332 50.2125 63.4069 50.2069 63.2353 50.1013L58.691 47.2823C57.9707 48.4042 56.7488 49.0755 55.4213 49.0774H46.4929L40.474 52.8109C40.3835 52.8675 40.2798 52.8958 40.1742 52.8958ZM79.0086 44.7216C78.6956 44.7216 78.4429 44.467 78.4429 44.1559C78.4429 43.8429 78.6956 43.5902 79.0086 43.5902C79.3197 43.5902 79.5724 43.8429 79.5724 44.1559C79.5724 44.467 79.3197 44.7216 79.0086 44.7216Z" fill="white"/>
<path d="M58.0727 86.0992C56.7339 86.0992 55.6441 85.0076 55.6422 83.665C55.6422 83.0164 55.8967 82.4073 56.3549 81.9489C56.8131 81.4907 57.4222 81.238 58.0727 81.2363C59.4134 81.2382 60.5052 82.3279 60.5052 83.665C60.5052 85.0076 59.4134 86.0992 58.0727 86.0992ZM58.0727 82.3677C57.3562 82.3677 56.7735 82.9504 56.7735 83.665C56.7735 84.3834 57.3562 84.9678 58.0727 84.9678C58.7893 84.9678 59.3719 84.3832 59.3738 83.665C59.3719 82.9504 58.7893 82.3677 58.0727 82.3677Z" fill="#FF4D40"/>
<path d="M40.1738 52.8955C40.0795 52.8955 39.9834 52.871 39.8985 52.8238C39.7194 52.7239 39.6081 52.5353 39.6081 52.3298V49.0771H39.3479C37.2096 49.0752 35.4673 47.3348 35.4654 45.1965V39.9903C35.4654 39.6773 35.72 39.4246 36.0311 39.4246C36.3441 39.4246 36.5968 39.6773 36.5968 39.9903V45.1965C36.6006 46.7088 37.8338 47.9438 39.3479 47.9457H40.1738C40.3228 47.9457 40.4699 48.0061 40.5755 48.1117C40.6792 48.2173 40.7395 48.3624 40.7395 48.5114V51.3134L46.0325 48.0306C46.123 47.9759 46.2248 47.9457 46.3304 47.9457H55.4266C56.3412 47.9457 57.2217 47.463 57.729 46.6861L57.2161 46.3675H48.2877C46.1494 46.3656 44.407 44.6233 44.4052 42.485V33.647C44.4052 33.6338 44.4052 33.6206 44.4052 33.6074H39.3479C38.984 33.6074 38.6314 33.6772 38.2995 33.8168C38.2297 33.845 38.1581 33.8601 38.0827 33.8601C37.8545 33.8601 37.649 33.7225 37.5604 33.5113C37.5321 33.4396 37.517 33.3661 37.517 33.2907C37.5189 33.0625 37.6565 32.8589 37.8658 32.7721C38.3372 32.576 38.8331 32.4761 39.3441 32.4761H45.0293C45.199 32.4761 45.3574 32.5515 45.4649 32.6835C45.5742 32.8136 45.6176 32.9833 45.5837 33.1511C45.5535 33.3133 45.5365 33.4755 45.5365 33.647V42.485C45.5403 43.9991 46.7735 45.2323 48.2877 45.2361H57.3764C57.482 45.2361 57.5875 45.2663 57.6762 45.3209L58.7736 46.0035C59.0093 46.1487 59.1036 46.4504 58.9961 46.705C58.702 47.397 58.2155 47.9872 57.5875 48.4115C56.9464 48.8452 56.196 49.0771 55.421 49.0771H46.4925L40.4718 52.8106C40.3831 52.8672 40.2794 52.8955 40.1738 52.8955ZM36.0349 36.7847C36.0273 36.7847 36.0179 36.7847 36.0104 36.7847C35.6992 36.7715 35.456 36.5075 35.4692 36.1964C35.4824 35.8834 35.7445 35.6401 36.0575 35.6533C36.2084 35.6609 36.3479 35.725 36.4497 35.8363C36.5515 35.9456 36.6043 36.0889 36.5987 36.2398C36.6006 36.2398 36.6006 36.2417 36.6006 36.2417C36.5874 36.5471 36.3385 36.7847 36.0349 36.7847Z" fill="#FF4D40"/>
<path d="M63.5346 50.186C63.4309 50.186 63.3271 50.1558 63.2366 50.1012L57.2179 46.3657H48.2876C46.1493 46.3639 44.4089 44.6234 44.407 42.4851V33.6472C44.4089 31.5089 46.1493 29.7685 48.2876 29.7666H64.3625C65.162 29.7666 65.9312 30.008 66.5857 30.4681C66.5876 30.4699 66.5876 30.4699 66.5876 30.4699C66.7365 30.5755 66.8252 30.7471 66.827 30.9281C66.827 31.0469 66.7914 31.1601 66.7233 31.2562C66.5517 31.5033 66.1822 31.5693 65.937 31.3958C65.4732 31.0696 64.9282 30.898 64.3625 30.898H48.2876C46.7753 30.8999 45.5421 32.1331 45.5384 33.6472V42.4851C45.5421 43.9993 46.7753 45.2325 48.2876 45.2362H57.3782C57.4838 45.2362 57.5875 45.2645 57.678 45.3211L62.9691 48.604V45.8019C62.9691 45.653 63.0294 45.5059 63.1352 45.4003C63.2408 45.2966 63.3858 45.2362 63.5347 45.2362H64.3627C65.8767 45.2325 67.1099 43.9993 67.1139 42.4851V38.0049C67.1139 37.6938 67.3665 37.4392 67.6795 37.4392C67.9907 37.4392 68.2452 37.6938 68.2452 38.0049V42.4851C68.2433 44.6234 66.501 46.3639 64.3627 46.3657H64.1004V49.6203C64.1004 49.8259 63.9892 50.0144 63.8101 50.1144C63.7271 50.1615 63.6309 50.186 63.5346 50.186ZM67.6794 34.7993C67.3663 34.7993 67.1137 34.5467 67.1137 34.2336C67.1137 33.9225 67.3663 33.668 67.6794 33.668C67.9905 33.668 68.245 33.9225 68.245 34.2336C68.245 34.5467 67.9905 34.7993 67.6794 34.7993Z" fill="#FF4D40"/>
<path d="M61.903 35.291H50.7514C50.4403 35.291 50.1858 35.0384 50.1858 34.7254C50.1858 34.4142 50.4403 34.1597 50.7514 34.1597H61.903C62.216 34.1597 62.4687 34.4142 62.4687 34.7254C62.4687 35.0384 62.216 35.291 61.903 35.291Z" fill="#FF4D40"/>
<path d="M61.903 39.813H50.7514C50.4403 39.813 50.1858 39.5585 50.1858 39.2473C50.1858 38.9343 50.4403 38.6816 50.7514 38.6816H61.903C62.216 38.6816 62.4687 38.9343 62.4687 39.2473C62.4687 39.5585 62.216 39.813 61.903 39.813Z" fill="#FF4D40"/>
<path d="M56.491 59.2124H31.7102C31.3971 59.2124 31.1445 58.9598 31.1445 58.6467C31.1445 58.3356 31.3971 58.0811 31.7102 58.0811H56.491C56.804 58.0811 57.0567 58.3356 57.0567 58.6467C57.0567 58.9598 56.804 59.2124 56.491 59.2124Z" fill="#FF4D40"/>
<path d="M56.4903 61.9805H44.0999C43.7888 61.9805 43.5342 61.7278 43.5342 61.4148C43.5342 61.1037 43.7888 60.8491 44.0999 60.8491H56.4903C56.8033 60.8491 57.056 61.1037 57.056 61.4148C57.056 61.7278 56.8033 61.9805 56.4903 61.9805Z" fill="#FF4D40"/>
<path d="M47.9925 64.7447H31.7102C31.3971 64.7447 31.1445 64.4901 31.1445 64.179C31.1445 63.868 31.3971 63.6133 31.7102 63.6133H47.9925C48.3055 63.6133 48.5582 63.868 48.5582 64.179C48.5582 64.4903 48.3055 64.7447 47.9925 64.7447Z" fill="white"/>
<path d="M56.491 67.5088H31.7102C31.3971 67.5088 31.1445 67.2543 31.1445 66.9431C31.1445 66.6301 31.3971 66.3774 31.7102 66.3774H56.491C56.804 66.3774 57.0567 66.6301 57.0567 66.9431C57.0567 67.2544 56.804 67.5088 56.491 67.5088Z" fill="white"/>
<path d="M56.4897 70.2774H35.0879C34.7749 70.2774 34.5222 70.0226 34.5222 69.7117C34.5222 69.4006 34.7749 69.146 35.0879 69.146H56.4897C56.8027 69.146 57.0554 69.4006 57.0554 69.7117C57.0554 70.0228 56.8027 70.2774 56.4897 70.2774Z" fill="#FF4D40"/>
<path d="M47.9925 73.041H31.7102C31.3971 73.041 31.1445 72.7865 31.1445 72.4754C31.1445 72.1625 31.3971 71.9097 31.7102 71.9097H47.9925C48.3055 71.9097 48.5582 72.1625 48.5582 72.4754C48.5582 72.7867 48.3055 73.041 47.9925 73.041Z" fill="white"/>
<path d="M56.491 75.8042H31.7102C31.3971 75.8042 31.1445 75.5516 31.1445 75.2404C31.1445 74.9274 31.3971 74.6729 31.7102 74.6729H56.491C56.804 74.6729 57.0567 74.9274 57.0567 75.2404C57.0567 75.5516 56.804 75.8042 56.491 75.8042Z" fill="white"/>
<path d="M90.1665 75.3438C88.2377 75.3438 86.4255 74.5933 85.0621 73.2319C83.7007 71.8686 82.9504 70.0565 82.9504 68.1292C82.9504 66.2004 83.7007 64.3881 85.0621 63.025C86.4255 61.6636 88.2377 60.9131 90.1665 60.9131C92.0936 60.9131 93.9057 61.6636 95.2692 63.025C96.6323 64.3881 97.383 66.2004 97.383 68.1292C97.383 70.0565 96.6325 71.8684 95.2692 73.2319C93.9057 74.5933 92.0934 75.3438 90.1665 75.3438ZM90.1665 62.0445C86.8177 62.0501 84.0873 64.7805 84.0797 68.1294C84.0873 71.4784 86.8179 74.2067 90.1665 74.2126C93.5154 74.2069 96.2458 71.4784 96.2516 68.1294C96.2458 64.7805 93.5152 62.0501 90.1665 62.0445Z" fill="white"/>
<path d="M96.3854 67.0151H96.3833C95.3858 67.0151 94.4206 66.8135 93.5117 66.4173C92.633 66.0364 91.8503 65.4917 91.1867 64.7976C90.9793 64.5826 90.9755 64.2413 91.1792 64.0228C91.7449 63.4118 92.1731 62.7028 92.4501 61.9146C92.501 61.7657 92.616 61.6431 92.7631 61.5809C92.91 61.5205 93.078 61.5243 93.223 61.5903C94.1698 62.0334 95.0276 62.6915 95.7009 63.4967C96.389 64.3186 96.8774 65.2614 97.1508 66.3004C97.196 66.472 97.1602 66.6494 97.0508 66.789C96.9435 66.9304 96.7812 67.0096 96.6041 67.0096H96.5985C96.5777 67.0096 96.5532 67.0115 96.523 67.0115C96.4851 67.0134 96.438 67.0151 96.3854 67.0151ZM92.3709 64.3676C93.3418 65.2237 94.5337 65.7387 95.814 65.8573C95.3162 64.6241 94.4149 63.5738 93.2722 62.895C93.0328 63.4212 92.729 63.9172 92.3709 64.3676Z" fill="white"/>
<path d="M86.7046 67.1168C85.6484 67.1168 84.6208 66.8886 83.6499 66.4398C83.384 66.3175 83.2576 66.0156 83.3538 65.7384C84.3683 62.8534 87.1043 60.9131 90.1666 60.9131C91.2357 60.9131 92.2653 61.1412 93.2232 61.59C93.4871 61.7145 93.6135 62.0143 93.5154 62.2896C93.0252 63.6887 92.1295 64.8861 90.9227 65.7573C89.6893 66.6454 88.2319 67.1168 86.7046 67.1168ZM84.6208 65.6179C85.2939 65.8612 85.9954 65.9854 86.7046 65.9854C89.0897 65.9854 91.264 64.5827 92.25 62.4103C91.5846 62.167 90.885 62.0446 90.1664 62.0446C87.7831 62.0446 85.6071 63.4457 84.6208 65.6179Z" fill="white"/>
<path d="M103.435 91.0852H76.6628C76.5138 91.0852 76.3669 91.0248 76.263 90.9192C76.1574 90.8134 76.0971 90.6684 76.0971 90.5195V82.4377C76.0971 82.1267 76.3498 81.872 76.6628 81.872C76.9739 81.872 77.2285 82.1267 77.2285 82.4377V89.9538H102.869V81.0593L94.3462 77.7123L90.2732 81.3572C90.06 81.5477 89.7094 81.5418 89.5039 81.344L85.7326 77.7182L82.248 79.089C82.182 79.1135 82.1122 79.1267 82.0406 79.1267C81.8068 79.1267 81.5994 78.9872 81.5145 78.7685C81.4879 78.7025 81.4749 78.6327 81.4749 78.561C81.4749 78.3272 81.6163 78.1198 81.8351 78.0349L85.6572 76.5321C85.8609 76.4529 86.0985 76.5 86.2568 76.6509L89.9093 80.1638L93.8503 76.6377C94.0068 76.4982 94.2387 76.4567 94.4348 76.5321L103.64 80.1487C103.855 80.2317 104.001 80.4448 104.001 80.6748V90.5196C104.001 90.6724 103.94 90.8138 103.835 90.9194C103.727 91.0267 103.586 91.0852 103.435 91.0852ZM78.5314 80.5068C78.2976 80.5068 78.0902 80.3654 78.0035 80.1467C77.9488 80.0071 77.9524 79.8523 78.0129 79.7148C78.0732 79.5753 78.1826 79.4697 78.324 79.413C78.39 79.3884 78.4598 79.3754 78.5314 79.3754C78.7653 79.3754 78.9727 79.5148 79.0575 79.7335C79.1707 80.0239 79.0274 80.352 78.737 80.4672C78.671 80.4936 78.6012 80.5068 78.5314 80.5068Z" fill="white"/>
<path d="M98.9192 91.0661H81.1736C81.0246 91.0661 80.8794 91.0057 80.7738 90.9001C80.6682 90.7943 80.6079 90.6493 80.6079 90.5004V84.325C80.6079 84.012 80.8626 83.7593 81.1736 83.7593C81.4866 83.7593 81.7393 84.012 81.7393 84.325V89.9347H98.3535V84.325C98.3535 84.012 98.6061 83.7593 98.9192 83.7593C99.2303 83.7593 99.4848 84.012 99.4848 84.325V90.5004C99.4848 90.6512 99.4245 90.7926 99.3189 90.9001C99.2114 91.0076 99.07 91.0661 98.9192 91.0661Z" fill="white"/>
<path d="M94.4725 82.3491H85.6158C85.4612 82.3491 85.3103 82.2849 85.2047 82.172C85.0972 82.0606 85.0426 81.908 85.0501 81.7532L85.2971 77.0297C85.3143 76.7186 85.5762 76.4755 85.8911 76.4942C86.2022 76.5111 86.4436 76.777 86.4266 77.0881L86.2116 81.2175H93.888L93.7485 77.1125C93.7485 77.1104 93.7485 77.1104 93.7485 77.1085C93.7428 76.9595 93.7975 76.8162 93.8993 76.7069C94.0032 76.5956 94.1426 76.5315 94.2936 76.5277C94.301 76.5277 94.3066 76.5277 94.3142 76.5277C94.6196 76.5277 94.8685 76.7674 94.8798 77.0729L95.0382 81.7643C95.0439 81.9171 94.9856 82.066 94.8798 82.1754C94.7744 82.2868 94.6255 82.3491 94.4725 82.3491Z" fill="#FF4D40"/>
<path d="M91.3771 85.4317H88.7146C88.5657 85.4317 88.4188 85.3713 88.313 85.2655C88.2093 85.16 88.1489 85.0148 88.1489 84.866V81.783C88.1489 81.634 88.2093 81.4888 88.313 81.3832C88.4188 81.2776 88.5657 81.2173 88.7146 81.2173H91.3771C91.5242 81.2173 91.6715 81.2776 91.7769 81.3832C91.8806 81.489 91.9409 81.634 91.9409 81.783V84.8662C91.9409 85.017 91.8825 85.1584 91.7769 85.2657C91.6692 85.3732 91.5261 85.4317 91.3771 85.4317ZM89.2784 84.3003H90.8114V82.3487H89.2784V84.3003Z" fill="#FF4D40"/>
<path d="M92.4581 91.0848H87.3518C87.1784 91.0848 87.0162 91.0075 86.9087 90.8698C86.7994 90.7322 86.7616 90.5568 86.8029 90.3869L88.1625 84.734C88.2228 84.4792 88.4493 84.3003 88.7131 84.3003H91.3737C91.6452 84.3003 91.879 84.4943 91.9299 84.7602L93.0142 90.4133C93.0462 90.5772 93.001 90.7508 92.8954 90.8791C92.7881 91.0075 92.6257 91.0848 92.4581 91.0848ZM88.0703 89.9534H91.7753L90.9079 85.4319H89.1581L88.0703 89.9534Z" fill="white"/>
<path d="M90.0006 81.4039H89.7932C89.6461 81.4039 89.5064 81.3492 89.401 81.2474L86.5745 78.5265C86.4632 78.4207 86.401 78.2717 86.401 78.1192V73.9557C86.401 73.7557 86.5066 73.5692 86.6782 73.4692C86.8479 73.3693 87.0685 73.3655 87.2401 73.4598C88.1261 73.9501 89.1387 74.2084 90.1666 74.2084C91.1284 74.2084 92.0522 73.9897 92.9139 73.556C93.0855 73.4711 93.3005 73.4805 93.4645 73.5805C93.6323 73.6842 93.7323 73.8652 93.7323 74.0634V78.0081C93.7323 78.1684 93.6644 78.3209 93.5437 78.4284L90.3796 81.2608C90.2741 81.3528 90.1402 81.4039 90.0006 81.4039ZM87.5324 77.8778L89.9082 80.1632L92.6009 77.7534V74.9193C91.8203 75.1982 91.0019 75.3396 90.1685 75.3396H90.163C89.2558 75.3396 88.3696 75.1736 87.5325 74.8455V77.8778H87.5324Z" fill="white"/>
</svg>
