<svg width="121" height="121" viewBox="0 0 121 121" fill="none" xmlns="http://www.w3.org/2000/svg">
<path d="M85.2249 86.6137H81.8461C81.5436 86.6137 81.2983 86.3683 81.2983 86.0659V69.0194C81.2983 68.7169 81.5436 68.4717 81.8461 68.4717H85.2249C85.5274 68.4717 85.7727 68.7169 85.7727 69.0194V86.0659C85.7727 86.3683 85.5274 86.6137 85.2249 86.6137ZM82.3939 85.5181H84.6771V69.5672H82.3939V85.5181Z" fill="white"/>
<path d="M78.6555 86.6138H75.2758C74.9732 86.6138 74.728 86.3684 74.728 86.066V74.08C74.728 73.7773 74.9732 73.5322 75.2758 73.5322H78.6555C78.9581 73.5322 79.2033 73.7773 79.2033 74.08V86.066C79.2033 86.3684 78.9581 86.6138 78.6555 86.6138ZM75.8236 85.5182H78.1077V74.6278H75.8236V85.5182Z" fill="#141517"/>
<path d="M72.0792 86.6129H68.7055C68.4029 86.6129 68.1577 86.3675 68.1577 86.0651V61.8271C68.1577 61.5245 68.4029 61.2793 68.7055 61.2793H72.0792C72.3817 61.2793 72.6269 61.5245 72.6269 61.8271V86.0651C72.6269 86.3675 72.3817 86.6129 72.0792 86.6129ZM69.2532 85.5174H71.5314V62.3748H69.2532V85.5174Z" fill="#141517"/>
<path d="M65.5117 86.6137H62.1376C61.8351 86.6137 61.5898 86.3683 61.5898 86.0659V70.0849C61.5898 69.7825 61.8351 69.5371 62.1376 69.5371H65.5117C65.8144 69.5371 66.0594 69.7825 66.0594 70.0849V86.0659C66.0594 86.3683 65.8144 86.6137 65.5117 86.6137ZM62.685 85.5182H64.9637V70.6326H62.685V85.5182Z" fill="white"/>
<path d="M58.9421 86.6129H55.5683C55.2657 86.6129 55.0205 86.3675 55.0205 86.0651V75.3222C55.0205 75.0196 55.2657 74.7744 55.5683 74.7744H58.9421C59.2447 74.7744 59.4899 75.0196 59.4899 75.3222V86.0651C59.4899 86.3675 59.2447 86.6129 58.9421 86.6129ZM56.1162 85.5174H58.3946V75.8699H56.1162V85.5174Z" fill="#141517"/>
<path d="M95.7706 95.2917H45.1311C44.8286 95.2917 44.5834 95.0463 44.5834 94.7439V88.6067C44.5834 88.3042 44.8286 88.059 45.1311 88.059H48.9666V83.0175H40.7472C40.4446 83.0175 40.1994 82.7723 40.1994 82.4698V76.8747H33.289C32.9864 76.8747 32.7412 76.6293 32.7412 76.3269V75.5166C32.7412 75.3236 32.8427 75.145 33.0083 75.0463C33.22 74.9203 33.4237 74.7775 33.6143 74.6228C33.849 74.4319 34.1939 74.4675 34.3849 74.7024C34.5757 74.9373 34.5401 75.2825 34.3053 75.4733C34.1733 75.5803 34.0361 75.6826 33.895 75.7795H40.7472C41.0497 75.7795 41.2949 76.0248 41.2949 76.3273V81.9224H49.5143C49.8169 81.9224 50.0621 82.1676 50.0621 82.4701V88.6071C50.0621 88.9097 49.8169 89.1549 49.5143 89.1549H45.6789V94.1965H95.2228V42.8296C95.2228 42.5271 95.468 42.2819 95.7706 42.2819C96.0731 42.2819 96.3183 42.5271 96.3183 42.8296V94.7439C96.3183 95.0466 96.0733 95.2917 95.7706 95.2917ZM34.6819 67.4411C34.528 67.4411 34.3752 67.3765 34.2669 67.251C33.9052 66.8312 33.4818 66.4757 33.0083 66.1935C32.8427 66.0945 32.7412 65.9157 32.7412 65.7229V33.5057C32.7412 33.2032 32.9864 32.958 33.289 32.958H74.0256V28.5486H64.1126C63.8103 28.5486 63.5649 28.3034 63.5649 28.0009C63.5649 27.6983 63.8103 27.4531 64.1126 27.4531H74.5733C74.8757 27.4531 75.1211 27.6983 75.1211 28.0009V33.5056C75.1211 33.8081 74.8757 34.0533 74.5733 34.0533H33.8367V65.4209C34.3044 65.7333 34.727 66.1071 35.0966 66.5354C35.2942 66.7646 35.2686 67.1104 35.0395 67.308C34.9359 67.3974 34.8087 67.4411 34.6819 67.4411ZM92.1257 35.7578C91.9853 35.7578 91.8455 35.7043 91.7385 35.5973L79.1906 23.0496H33.8367V27.4531H54.9834C55.286 27.4531 55.5312 27.6983 55.5312 28.0009C55.5312 28.3034 55.286 28.5486 54.9834 28.5486H33.289C32.9864 28.5486 32.7412 28.3034 32.7412 28.0009V22.5019C32.7412 22.1993 32.9864 21.9541 33.289 21.9541H79.4178C79.5631 21.9541 79.7026 22.0118 79.805 22.1146L92.5134 34.8228C92.7274 35.0366 92.7274 35.3835 92.5134 35.5973C92.4062 35.7043 92.266 35.7578 92.1257 35.7578Z" fill="white"/>
<path d="M74.5741 34.0535H35.6676C35.365 34.0535 35.1198 33.8083 35.1198 33.5058C35.1198 33.2032 35.365 32.958 35.6676 32.958H74.0263V28.5487H28.2386V32.3531C28.2386 32.6556 27.9934 32.9008 27.6908 32.9008C27.3883 32.9008 27.1431 32.6556 27.1431 32.3531V28.0009C27.1431 27.6983 27.3883 27.4531 27.6908 27.4531H74.5741C74.8766 27.4531 75.1218 27.6983 75.1218 28.0009V33.5056C75.1218 33.8083 74.8766 34.0535 74.5741 34.0535Z" fill="white"/>
<path d="M61.699 38.1375H39.7641C39.4615 38.1375 39.2163 37.8923 39.2163 37.5898C39.2163 37.2872 39.4615 37.042 39.7641 37.042H61.699C62.0015 37.042 62.2467 37.2872 62.2467 37.5898C62.2467 37.8923 62.0015 38.1375 61.699 38.1375Z" fill="#141517"/>
<path d="M72.1755 41.6883H39.7641C39.4615 41.6883 39.2163 41.4431 39.2163 41.1405C39.2163 40.838 39.4615 40.5928 39.7641 40.5928H72.1755C72.4781 40.5928 72.7233 40.838 72.7233 41.1405C72.7233 41.4431 72.4781 41.6883 72.1755 41.6883Z" fill="#141517"/>
<path d="M85.5819 45.2401H39.7641C39.4615 45.2401 39.2163 44.9948 39.2163 44.6923C39.2163 44.3897 39.4615 44.1445 39.7641 44.1445H85.5823C85.8846 44.1445 86.13 44.3897 86.13 44.6923C86.1299 44.9948 85.8846 45.2401 85.5819 45.2401Z" fill="white"/>
<path d="M85.5819 48.786H39.7641C39.4615 48.786 39.2163 48.5407 39.2163 48.2382C39.2163 47.9356 39.4615 47.6904 39.7641 47.6904H85.5823C85.8846 47.6904 86.13 47.9356 86.13 48.2382C86.1299 48.5407 85.8846 48.786 85.5819 48.786Z" fill="white"/>
<path d="M85.5819 52.3367H39.7641C39.4615 52.3367 39.2163 52.0915 39.2163 51.789C39.2163 51.4864 39.4615 51.2412 39.7641 51.2412H85.5823C85.8846 51.2412 86.13 51.4864 86.13 51.789C86.1299 52.0915 85.8846 52.3367 85.5819 52.3367Z" fill="white"/>
<path d="M85.5819 55.8885H39.7641C39.4615 55.8885 39.2163 55.6433 39.2163 55.3407C39.2163 55.0382 39.4615 54.793 39.7641 54.793H85.5823C85.8846 54.793 86.13 55.0382 86.13 55.3407C86.1299 55.6433 85.8846 55.8885 85.5819 55.8885Z" fill="white"/>
<path d="M34.9399 87.1738C34.6373 87.1738 34.3921 86.9288 34.3921 86.6261V84.4511C34.3921 84.1487 34.6373 83.9033 34.9399 83.9033C35.2424 83.9033 35.4876 84.1487 35.4876 84.4511V86.6261C35.4876 86.9286 35.2422 87.1738 34.9399 87.1738Z" fill="#141517"/>
<path d="M38.2719 87.1738C37.9693 87.1738 37.7241 86.9288 37.7241 86.6261V84.4511C37.7241 84.1487 37.9693 83.9033 38.2719 83.9033C38.5744 83.9033 38.8197 84.1487 38.8197 84.4511V86.6261C38.8197 86.9286 38.5744 87.1738 38.2719 87.1738Z" fill="#141517"/>
<path d="M41.6029 87.1738C41.3004 87.1738 41.0552 86.9288 41.0552 86.6261V84.4511C41.0552 84.1487 41.3004 83.9033 41.6029 83.9033C41.9055 83.9033 42.1507 84.1487 42.1507 84.4511V86.6261C42.1507 86.9286 41.9055 87.1738 41.6029 87.1738Z" fill="#141517"/>
<path d="M44.9316 87.1738C44.629 87.1738 44.3838 86.9288 44.3838 86.6261V84.4511C44.3838 84.1487 44.629 83.9033 44.9316 83.9033C45.2341 83.9033 45.4793 84.1487 45.4793 84.4511V86.6261C45.4793 86.9286 45.2341 87.1738 44.9316 87.1738Z" fill="#141517"/>
<path d="M30.5776 93.3106C30.275 93.3106 30.0298 93.0654 30.0298 92.7628V90.5878C30.0298 90.2851 30.275 90.04 30.5776 90.04C30.8801 90.04 31.1253 90.2851 31.1253 90.5878V92.7628C31.1253 93.0654 30.8799 93.3106 30.5776 93.3106Z" fill="#141517"/>
<path d="M33.9047 93.3106C33.6021 93.3106 33.3569 93.0654 33.3569 92.7628V90.5878C33.3569 90.2851 33.6021 90.04 33.9047 90.04C34.2072 90.04 34.4525 90.2851 34.4525 90.5878V92.7628C34.4525 93.0654 34.2072 93.3106 33.9047 93.3106Z" fill="#141517"/>
<path d="M37.2353 93.3106C36.9327 93.3106 36.6875 93.0654 36.6875 92.7628V90.5878C36.6875 90.2851 36.9327 90.04 37.2353 90.04C37.5378 90.04 37.783 90.2851 37.783 90.5878V92.7628C37.783 93.0654 37.5376 93.3106 37.2353 93.3106Z" fill="#141517"/>
<path d="M40.5614 93.3106C40.2589 93.3106 40.0137 93.0654 40.0137 92.7628V90.5878C40.0137 90.2851 40.2589 90.04 40.5614 90.04C40.864 90.04 41.1092 90.2851 41.1092 90.5878V92.7628C41.1092 93.0654 40.864 93.3106 40.5614 93.3106Z" fill="#141517"/>
<path d="M26.3017 81.0315C25.9991 81.0315 25.7539 80.7862 25.7539 80.4837V78.3085C25.7539 78.0061 25.9991 77.7607 26.3017 77.7607C26.6042 77.7607 26.8494 78.0061 26.8494 78.3085V80.4837C26.8494 80.7862 26.6042 81.0315 26.3017 81.0315Z" fill="#141517"/>
<path d="M29.6308 81.0315C29.3282 81.0315 29.083 80.7862 29.083 80.4837V78.3085C29.083 78.0061 29.3282 77.7607 29.6308 77.7607C29.9333 77.7607 30.1785 78.0061 30.1785 78.3085V80.4837C30.1785 80.7862 29.9331 81.0315 29.6308 81.0315Z" fill="#141517"/>
<path d="M32.9613 81.0315C32.6588 81.0315 32.4136 80.7862 32.4136 80.4837V78.3085C32.4136 78.0061 32.6588 77.7607 32.9613 77.7607C33.2639 77.7607 33.5091 78.0061 33.5091 78.3085V80.4837C33.5091 80.7862 33.2639 81.0315 32.9613 81.0315Z" fill="#141517"/>
<path d="M36.2919 81.0315C35.9894 81.0315 35.7441 80.7862 35.7441 80.4837V78.3085C35.7441 78.0061 35.9894 77.7607 36.2919 77.7607C36.5945 77.7607 36.8397 78.0061 36.8397 78.3085V80.4837C36.8397 80.7862 36.5945 81.0315 36.2919 81.0315Z" fill="#141517"/>
<path d="M87.0973 89.3875H54.6025C54.2999 89.3875 54.0547 89.1425 54.0547 88.8398C54.0547 88.5374 54.2999 88.292 54.6025 88.292H87.0973C87.3999 88.292 87.6451 88.5374 87.6451 88.8398C87.6451 89.1425 87.3999 89.3875 87.0973 89.3875Z" fill="white"/>
<path d="M100.453 70.8041C100.151 70.8041 99.9053 70.5589 99.9053 70.2563V26.1737H82.5351C82.2325 26.1737 81.9873 25.9284 81.9873 25.6259C81.9873 25.3233 82.2325 25.0781 82.5351 25.0781H100.453C100.756 25.0781 101.001 25.3233 101.001 25.6259V70.2565C101.001 70.5589 100.756 70.8041 100.453 70.8041Z" fill="#141517"/>
<path d="M80.8037 98.2882H30.225C29.9225 98.2882 29.6772 98.043 29.6772 97.7405V94.7438C29.6772 94.4413 29.9225 94.1961 30.225 94.1961C30.5276 94.1961 30.7728 94.4413 30.7728 94.7438V97.1925H80.8037C81.1062 97.1925 81.3514 97.4378 81.3514 97.7403C81.3514 98.0429 81.1064 98.2882 80.8037 98.2882ZM98.8268 98.2881H88.3504C88.0479 98.2881 87.8026 98.0429 87.8026 97.7403C87.8026 97.4378 88.0479 97.1925 88.3504 97.1925H98.279V82.6806C98.279 82.378 98.5242 82.1328 98.8268 82.1328C99.1293 82.1328 99.3745 82.378 99.3745 82.6806V97.7403C99.3745 98.0429 99.1295 98.2881 98.8268 98.2881Z" fill="white"/>
<path d="M40.7466 83.0176H21.5473C21.2447 83.0176 20.9995 82.7724 20.9995 82.4699V76.3271C20.9995 76.0245 21.2447 75.7793 21.5473 75.7793H40.7465C41.049 75.7793 41.2942 76.0245 41.2942 76.3271V82.4699C41.2944 82.7724 41.049 83.0176 40.7466 83.0176ZM22.095 81.9221H40.1987V76.8748H22.095V81.9221Z" fill="#141517"/>
<path d="M49.5155 89.1544H30.3163C30.0138 89.1544 29.7686 88.909 29.7686 88.6066V82.4696C29.7686 82.1673 30.0138 81.9219 30.3163 81.9219H49.5155C49.818 81.9219 50.0633 82.1673 50.0633 82.4696V88.6066C50.0633 88.909 49.818 89.1544 49.5155 89.1544ZM30.8641 88.0589H48.9677V83.0174H30.8641V88.0589Z" fill="#141517"/>
<path d="M45.1302 95.2923H25.9301C25.6275 95.2923 25.3823 95.0469 25.3823 94.7445V88.6073C25.3823 88.3048 25.6275 88.0596 25.9301 88.0596H45.13C45.4326 88.0596 45.6778 88.3048 45.6778 88.6073V94.7445C45.6779 95.0472 45.4326 95.2923 45.1302 95.2923ZM26.4779 94.1967H44.5822V89.1551H26.4779V94.1967Z" fill="#141517"/>
</svg>
