<svg width="121" height="121" viewBox="0 0 121 121" fill="none" xmlns="http://www.w3.org/2000/svg">
<path d="M71.5884 79.2365H47.7799C47.423 79.2365 47.1337 78.9473 47.1337 78.5904C47.1337 72.0432 46.8537 66.6744 46.6067 61.9375C46.4154 58.2679 46.25 55.0989 46.25 52.0972C46.25 41.5771 48.2372 33.6097 59.0984 19.2563C59.2201 19.0954 59.4101 19.0006 59.6117 19C59.6123 19 59.613 19 59.6136 19C59.8148 19 60.0044 19.0937 60.1267 19.2533C65.8481 26.7234 69.2351 32.5403 71.1079 38.1143C71.2214 38.4527 71.0396 38.8189 70.701 38.9326C70.3629 39.0463 69.9965 38.8641 69.8828 38.5259C68.1136 33.261 64.9361 27.744 59.6167 20.7169C49.4255 34.3508 47.5423 42.031 47.5423 52.0972C47.5423 55.0651 47.7069 58.2186 47.8973 61.8703C48.137 66.4665 48.4078 71.6552 48.4252 77.9442H70.9431C70.9608 71.6195 71.235 66.4127 71.4777 61.8005C71.6699 58.1516 71.8357 55.0002 71.8357 52.0393C71.8359 50.9177 71.8122 49.8925 71.7631 48.9049C71.7455 48.5485 72.0199 48.2452 72.3766 48.2275C72.7244 48.2068 73.0363 48.4843 73.054 48.8407C73.1041 49.8503 73.1285 50.8964 73.1283 52.0395C73.1283 55.0343 72.9616 58.2014 72.7684 61.8686C72.5183 66.6207 72.2346 72.007 72.2346 78.5904C72.2346 78.9473 71.9453 79.2365 71.5884 79.2365Z" fill="white"/>
<path d="M59.6875 31.2275C57.3197 31.2275 55.0342 30.5177 53.0784 29.1748C52.7967 28.9814 52.7142 28.6021 52.8902 28.3091C54.5795 25.4987 56.6098 22.5373 59.0971 19.2559C59.2188 19.095 59.4087 19.0004 59.6104 19C59.6108 19 59.6114 19 59.6119 19C59.813 19 60.0026 19.0937 60.1249 19.2533C62.6902 22.6039 64.7519 25.5769 66.4281 28.3423C66.6062 28.6361 66.5231 29.018 66.2392 29.2114C64.3028 30.5305 62.0374 31.2275 59.6875 31.2275ZM54.3225 28.4401C55.9433 29.4201 57.7856 29.9351 59.6875 29.9351C61.5706 29.9351 63.3924 29.432 64.9938 28.4743C63.5199 26.0906 61.7518 23.5408 59.6149 20.7164C57.5413 23.4861 55.8018 26.0247 54.3225 28.4401Z" fill="#FF4D40"/>
<path d="M77.119 76.7553H71.6037C71.4312 76.7553 71.2658 76.6864 71.1443 76.5636C71.023 76.4408 70.9556 76.2748 70.9576 76.102C71.0161 70.5891 71.2617 65.9208 71.4784 61.8019C71.6535 58.4705 71.8051 55.5931 71.8316 52.8664C71.8342 52.6112 71.9867 52.3816 72.2208 52.2799C72.4554 52.1783 72.727 52.2244 72.9148 52.3967L77.556 56.6562C77.6894 56.7786 77.7654 56.9513 77.7654 57.1322V76.1089C77.7652 76.466 77.4759 76.7553 77.119 76.7553ZM72.2577 75.463H76.4726V57.4166L73.0992 54.3203C73.0436 56.6457 72.9146 59.1015 72.769 61.8699C72.5616 65.8122 72.3277 70.2594 72.2577 75.463Z" fill="white"/>
<path d="M69.6988 83.0644H49.6672C49.3103 83.0644 49.021 82.7751 49.021 82.4182V78.5905C49.021 78.2336 49.3103 77.9443 49.6672 77.9443H69.6988C70.0557 77.9443 70.345 78.2336 70.345 78.5905V82.4182C70.345 82.7751 70.0557 83.0644 69.6988 83.0644ZM50.3133 81.772H69.0527V79.2367H50.3133V81.772Z" fill="white"/>
<path d="M59.6813 51.2937C56.9792 51.2937 54.7808 49.0952 54.7808 46.3932C54.7808 43.6937 56.9792 41.4976 59.6813 41.4976C62.3834 41.4976 64.5819 43.6937 64.5819 46.3932C64.5819 49.0954 62.3836 51.2937 59.6813 51.2937ZM59.6813 42.7899C57.6918 42.7899 56.0731 44.4064 56.0731 46.3932C56.0731 48.3827 57.6918 50.0014 59.6813 50.0014C61.6709 50.0014 63.2895 48.3827 63.2895 46.3932C63.2895 44.4064 61.6711 42.7899 59.6813 42.7899Z" fill="#FF4D40"/>
<path d="M66.7765 101.784C66.4196 101.784 66.1304 101.495 66.1304 101.138V92.3984C66.1304 92.0415 66.4196 91.7522 66.7765 91.7522C67.1334 91.7522 67.4227 92.0415 67.4227 92.3984V101.138C67.4227 101.495 67.1334 101.784 66.7765 101.784Z" fill="#FF4D40"/>
<path d="M63.2282 95.5264C62.8713 95.5264 62.582 95.2371 62.582 94.8802V82.4184C62.582 82.0615 62.8713 81.7722 63.2282 81.7722C63.5851 81.7722 63.8744 82.0615 63.8744 82.4184V94.8802C63.8744 95.2371 63.5851 95.5264 63.2282 95.5264Z" fill="#FF4D40"/>
<path d="M59.6823 103.04C59.3254 103.04 59.0361 102.751 59.0361 102.394V89.9323C59.0361 89.5754 59.3254 89.2861 59.6823 89.2861C60.0392 89.2861 60.3285 89.5754 60.3285 89.9323V102.394C60.3285 102.751 60.0392 103.04 59.6823 103.04Z" fill="#FF4D40"/>
<path d="M56.1345 100.534C55.7775 100.534 55.4883 100.245 55.4883 99.8878V87.426C55.4883 87.0691 55.7775 86.7798 56.1345 86.7798C56.4914 86.7798 56.7806 87.0691 56.7806 87.426V99.8878C56.7806 100.245 56.4914 100.534 56.1345 100.534Z" fill="#FF4D40"/>
<path d="M52.5905 95.5266C52.2336 95.5266 51.9443 95.2373 51.9443 94.8804V82.4186C51.9443 82.0617 52.2336 81.7725 52.5905 81.7725C52.9474 81.7725 53.2367 82.0617 53.2367 82.4186V94.8804C53.2367 95.2373 52.9472 95.5266 52.5905 95.5266Z" fill="#FF4D40"/>
<path d="M59.6823 88.7149C59.3254 88.7149 59.0361 88.4256 59.0361 88.0687V85.1254C59.0361 84.7685 59.3254 84.4792 59.6823 84.4792C60.0392 84.4792 60.3285 84.7685 60.3285 85.1254V88.0687C60.3285 88.4256 60.0392 88.7149 59.6823 88.7149Z" fill="#FF4D40"/>
<path d="M66.7765 90.4178C66.4196 90.4178 66.1304 90.1285 66.1304 89.7716V85.1254C66.1304 84.7685 66.4196 84.4792 66.7765 84.4792C67.1334 84.4792 67.4227 84.7685 67.4227 85.1254V89.7716C67.4227 90.1285 67.1334 90.4178 66.7765 90.4178Z" fill="#FF4D40"/>
<path d="M63.5554 79.2366H55.8097C55.4528 79.2366 55.1636 78.9474 55.1636 78.5905V70.0414C55.1636 69.6845 55.4528 69.3953 55.8097 69.3953H63.5554C63.9123 69.3953 64.2015 69.6845 64.2015 70.0414V78.5905C64.2015 78.9474 63.9123 79.2366 63.5554 79.2366ZM56.4559 77.9443H62.9092V70.6876H56.4559V77.9443Z" fill="white"/>
<path d="M81.7059 85.4147C81.7055 85.4147 81.705 85.4147 81.7046 85.4147C81.4597 85.4143 81.2364 85.2755 81.1274 85.0563L76.5818 75.9197C76.5372 75.8303 76.5142 75.7318 76.5142 75.6319V64.6065C76.5142 64.3414 76.6761 64.1032 76.9225 64.0056L81.5435 62.1772C81.6977 62.1162 81.8696 62.1166 82.0236 62.1791L86.539 64.0075C86.7831 64.1064 86.9427 64.3433 86.9427 64.6065V75.6319C86.9427 75.7327 86.9192 75.832 86.874 75.922L82.2834 85.0586C82.1735 85.2771 81.95 85.4147 81.7059 85.4147ZM77.8063 75.48L81.7087 83.3237L85.6503 75.4788V65.042L81.7783 63.474L77.8063 65.0457V75.48Z" fill="#FF4D40"/>
<path d="M47.763 76.7551H42.2477C41.8908 76.7551 41.6016 76.4659 41.6016 76.109V57.1323C41.6016 56.9513 41.6774 56.7788 41.8105 56.6565L46.4567 52.387C46.6447 52.2145 46.9167 52.1686 47.1509 52.2701C47.385 52.3715 47.5375 52.6013 47.5401 52.8566C47.5668 55.5937 47.7173 58.4778 47.8918 61.8174C48.1068 65.9331 48.3504 70.598 48.4092 76.1021C48.4109 76.2748 48.3437 76.4407 48.2224 76.5637C48.1012 76.6862 47.9357 76.7551 47.763 76.7551ZM42.8939 75.4628H47.1091C47.0391 70.2674 46.8071 65.8239 46.6012 61.8846C46.4562 59.1085 46.3274 56.6455 46.2723 54.3115L42.8939 57.4159V75.4628Z" fill="white"/>
<path d="M37.6647 85.4146C37.4204 85.4146 37.1971 85.2768 37.0872 85.0586L32.496 75.9219C32.4507 75.8319 32.4272 75.7326 32.4272 75.6318V64.6065C32.4272 64.3432 32.5869 64.1063 32.8309 64.0075L37.347 62.179C37.5008 62.1168 37.6728 62.1161 37.8273 62.1771L42.448 64.0055C42.6944 64.1031 42.8564 64.3413 42.8564 64.6065V75.6318C42.8564 75.7318 42.8334 75.8302 42.7888 75.9196L38.2432 85.0562C38.1342 85.2755 37.9106 85.4142 37.666 85.4146C37.6655 85.4146 37.6651 85.4146 37.6647 85.4146ZM33.7196 75.4787L37.6619 83.3236L41.5641 75.48V65.0458L37.5923 63.4741L33.7198 65.0422V75.4787H33.7196Z" fill="#FF4D40"/>
<path d="M64.5859 70.6873H54.7809C54.424 70.6873 54.1348 70.3981 54.1348 70.0412V56.9362C54.1348 56.5793 54.424 56.29 54.7809 56.29H64.5859C64.9428 56.29 65.2321 56.5793 65.2321 56.9362V70.0412C65.2321 70.3983 64.9428 70.6873 64.5859 70.6873ZM55.4271 69.395H63.9397V57.5824H55.4271V69.395Z" fill="white"/>
<path d="M81.7297 74.4194C81.3728 74.4194 81.0835 74.1301 81.0835 73.7732V62.778C81.0835 62.4211 81.3728 62.1318 81.7297 62.1318C82.0866 62.1318 82.3758 62.4211 82.3758 62.778V73.7732C82.3758 74.1303 82.0866 74.4194 81.7297 74.4194Z" fill="#FF4D40"/>
<path d="M37.6359 74.4199C37.279 74.4199 36.9897 74.1306 36.9897 73.7737V62.7785C36.9897 62.4216 37.279 62.1323 37.6359 62.1323C37.9928 62.1323 38.2821 62.4216 38.2821 62.7785V73.7737C38.2821 74.1308 37.9928 74.4199 37.6359 74.4199Z" fill="#FF4D40"/>
</svg>
