<svg width="121" height="121" viewBox="0 0 121 121" fill="none" xmlns="http://www.w3.org/2000/svg">
<path d="M94.6604 93.0705H33.3907C33.2369 93.0705 33.085 93.0101 32.978 92.901C32.8689 92.7918 32.8066 92.642 32.8066 92.4881V85.6119C32.8066 85.2904 33.0695 85.0273 33.3907 85.0273C33.7119 85.0273 33.9747 85.2904 33.9747 85.6119V91.9035H94.0764V65.3573V65.3554C94.0784 65.0339 94.3392 64.7728 94.6604 64.7728C94.9815 64.7728 95.2445 65.0358 95.2445 65.3573V92.4881C95.2445 92.644 95.1822 92.7901 95.0732 92.901C94.9622 93.0103 94.8162 93.0705 94.6604 93.0705ZM33.3907 82.2994C33.0695 82.2994 32.8066 82.0381 32.8066 81.7149C32.8066 81.3934 33.0695 81.1303 33.3907 81.1303C33.7119 81.1303 33.9747 81.3934 33.9747 81.7149C33.9747 82.0381 33.7119 82.2994 33.3907 82.2994ZM33.3907 78.4025C33.0695 78.4025 32.8066 78.1412 32.8066 77.8179V21.5845C32.8066 21.4306 32.8689 21.2786 32.978 21.1695C33.087 21.0624 33.2369 21 33.3907 21H45.3421C45.6633 21 45.9261 21.2611 45.9261 21.5845C45.9261 21.906 45.6633 22.1691 45.3421 22.1691H33.9747V77.8179C33.9747 78.1412 33.7119 78.4025 33.3907 78.4025ZM94.6604 62.0566C94.3373 62.0566 94.0764 61.7935 94.0764 61.472C94.0764 61.4701 94.0764 61.4701 94.0764 61.4681C94.0784 61.1466 94.3392 60.8875 94.6604 60.8875C94.9815 60.8875 95.2445 61.1486 95.2445 61.472C95.2445 61.7935 94.9815 62.0566 94.6604 62.0566ZM94.6604 58.1694C94.3373 58.1694 94.0764 57.9063 94.0764 57.5848V37.8798L78.3832 22.1691H53.1293C52.8081 22.1691 52.5453 21.906 52.5453 21.5845C52.5453 21.2611 52.8081 21 53.1293 21H78.6266C78.7804 21 78.9305 21.0624 79.0393 21.1715L95.0732 37.2231C95.1822 37.3342 95.2445 37.4803 95.2445 37.6362V57.5848C95.2445 57.9063 94.9815 58.1694 94.6604 58.1694ZM49.2357 22.1691C48.9145 22.1691 48.6517 21.906 48.6517 21.5845C48.6517 21.2611 48.9145 21 49.2357 21C49.5589 21 49.8197 21.2611 49.8197 21.5845C49.8197 21.906 49.5589 22.1691 49.2357 22.1691Z" fill="white"/>
<path d="M94.6604 38.2207H78.6265C78.4727 38.2207 78.3211 38.1584 78.2138 38.0512C78.1048 37.9421 78.0425 37.7901 78.0425 37.6362V21.5845C78.0425 21.3468 78.1826 21.1344 78.4028 21.0448C78.617 20.9552 78.874 21.0058 79.0394 21.1714L95.0733 37.2231C95.2405 37.3907 95.2892 37.642 95.1997 37.8602C95.1082 38.0804 94.896 38.2207 94.6604 38.2207ZM79.2106 37.0516H93.2509L79.2106 22.9952V37.0516Z" fill="white"/>
<path d="M90.3523 96.5743H29.0845C28.9307 96.5743 28.7789 96.512 28.6699 96.4029C28.5628 96.2957 28.5005 96.1437 28.5005 95.9898V89.1155C28.5005 88.7921 28.7614 88.531 29.0845 88.531C29.4058 88.531 29.6686 88.7921 29.6686 89.1155V95.4052H89.7683V93.0729H57.4047C57.0834 93.0729 56.8206 92.8097 56.8206 92.4883C56.8206 92.1649 57.0834 91.9038 57.4047 91.9038H90.3523C90.5061 91.9038 90.6578 91.966 90.7651 92.0753C90.8741 92.1824 90.9364 92.3323 90.9364 92.4883V95.9898C90.9364 96.1476 90.8758 96.2937 90.7651 96.4029C90.6541 96.5137 90.5081 96.5743 90.3523 96.5743ZM53.5111 93.0729C53.1898 93.0729 52.927 92.8097 52.927 92.4883C52.927 92.1649 53.1898 91.9038 53.5111 91.9038C53.8342 91.9038 54.0951 92.1649 54.0951 92.4883C54.0951 92.8099 53.8342 93.0729 53.5111 93.0729ZM49.6175 93.0729H33.3909C33.2371 93.0729 33.0872 93.0105 32.9781 92.9012C32.8691 92.7921 32.8068 92.6423 32.8068 92.4883V40.5319C32.8068 40.2085 33.0696 39.9474 33.3909 39.9474C33.7121 39.9474 33.9749 40.2085 33.9749 40.5319V91.9038H49.6175C49.9387 91.9038 50.2015 92.1649 50.2015 92.4883C50.2015 92.8099 49.9387 93.0729 49.6175 93.0729ZM29.0845 85.8031C28.7614 85.8031 28.5005 85.54 28.5005 85.2185C28.5005 84.8951 28.7614 84.634 29.0845 84.634C29.4058 84.634 29.6686 84.8951 29.6686 85.2185C29.6686 85.54 29.4058 85.8031 29.0845 85.8031ZM29.0845 81.9061C28.7614 81.9061 28.5005 81.6431 28.5005 81.3216V25.0863C28.5005 24.9323 28.5628 24.7823 28.6699 24.6732C28.7789 24.5641 28.9307 24.5017 29.0845 24.5017H33.3909C33.5447 24.5017 33.6946 24.5641 33.8036 24.6732C33.9126 24.7823 33.9749 24.9323 33.9749 25.0863V32.738C33.9749 33.0595 33.7121 33.3225 33.3909 33.3225C33.0696 33.3225 32.8068 33.0595 32.8068 32.738V25.6708H29.6686V81.3196C29.6686 81.3196 29.6686 81.3196 29.6686 81.3216C29.6686 81.6431 29.4058 81.9061 29.0845 81.9061ZM33.3909 37.2195C33.0696 37.2195 32.8068 36.9564 32.8068 36.6349C32.8068 36.3134 33.0696 36.0504 33.3909 36.0504C33.7121 36.0504 33.9749 36.3134 33.9749 36.6349C33.9749 36.9564 33.7121 37.2195 33.3909 37.2195Z" fill="white"/>
<path d="M86.8536 99.5377H25.584C25.4302 99.5377 25.2803 99.4754 25.1713 99.3682C25.0623 99.2591 25 99.1071 25 98.9532V92.0789C25 91.7576 25.2628 91.4944 25.584 91.4944C25.9053 91.4944 26.1681 91.7576 26.1681 92.0789V98.3686H86.2698V96.5741H53.3649C53.0437 96.5741 52.7828 96.313 52.7828 95.9895C52.7828 95.668 53.0437 95.405 53.3649 95.405H86.8538C87.0076 95.405 87.1577 95.4673 87.2665 95.5764C87.3757 95.6855 87.4378 95.8356 87.4378 95.9895V98.9532C87.4378 99.109 87.3775 99.2571 87.2665 99.3682C87.1556 99.4771 87.0095 99.5377 86.8536 99.5377ZM49.4713 96.5741C49.1501 96.5741 48.8892 96.313 48.8892 95.9895C48.8892 95.668 49.1501 95.405 49.4713 95.405C49.7945 95.405 50.0573 95.668 50.0573 95.9895C50.0573 96.313 49.7945 96.5741 49.4713 96.5741ZM45.5777 96.5741H29.0844C28.9306 96.5741 28.7787 96.5117 28.6717 96.4026C28.5626 96.2933 28.5004 96.1434 28.5004 95.9895V44.302C28.5004 43.9805 28.7612 43.7174 29.0844 43.7174C29.4056 43.7174 29.6684 43.9805 29.6684 44.302V95.405L45.5777 95.4069C45.9009 95.4069 46.1617 95.668 46.1617 95.9895C46.1617 96.313 45.9009 96.5741 45.5777 96.5741ZM25.584 88.7665C25.2628 88.7665 25 88.5034 25 88.1819C25 87.8606 25.2628 87.5974 25.584 87.5974C25.9053 87.5974 26.1681 87.8606 26.1681 88.1819C26.1681 88.5034 25.9053 88.7665 25.584 88.7665ZM25.584 84.8695C25.2628 84.8695 25 84.6084 25 84.2849V28.0496C25 27.8957 25.0623 27.7457 25.1713 27.6366C25.2803 27.5274 25.4302 27.4651 25.584 27.4651H29.0844C29.2362 27.4651 29.3881 27.5274 29.4971 27.6366C29.6061 27.7457 29.6684 27.8957 29.6684 28.0496V36.508C29.6684 36.8315 29.4056 37.0926 29.0844 37.0926C28.7612 37.0926 28.5004 36.8315 28.5004 36.508V28.6342H26.1681V84.283V84.2849C26.1681 84.6084 25.9053 84.8695 25.584 84.8695ZM29.0844 40.9895C28.7612 40.9895 28.5004 40.7284 28.5004 40.405C28.5004 40.0835 28.7612 39.8204 29.0844 39.8204C29.4056 39.8204 29.6684 40.0835 29.6684 40.405C29.6684 40.7284 29.4056 40.9895 29.0844 40.9895Z" fill="white"/>
<path d="M64.0275 85.1906H64.0256C61.3176 85.1906 58.6933 84.6528 56.2228 83.5909C55.9269 83.4642 55.7887 83.1194 55.9172 82.8232C56.0087 82.6071 56.2189 82.4688 56.4545 82.4688C56.5324 82.4688 56.6102 82.4841 56.6842 82.5175C59.0067 83.5149 61.4772 84.0217 64.0275 84.0217C68.9997 84.0217 73.6761 82.083 77.194 78.564C80.7099 75.0448 82.647 70.3646 82.647 65.3881C82.647 60.4115 80.7099 55.7314 77.194 52.2105C73.6761 48.6915 68.9997 46.7528 64.0275 46.7528C59.0554 46.7528 54.3813 48.6915 50.8633 52.2105C47.3454 55.7314 45.4103 60.4117 45.4103 65.3881C45.4103 70.1872 47.2286 74.7465 50.5323 78.2248C50.6374 78.3339 50.6939 78.4781 50.6939 78.6279C50.6939 78.7896 50.6296 78.9398 50.5109 79.0509C50.2851 79.267 49.9015 79.2575 49.6854 79.0312C46.1754 75.335 44.2402 70.4891 44.2422 65.3879C44.2422 62.7146 44.7639 60.1212 45.7957 57.6797C46.7925 55.3201 48.2195 53.2021 50.0378 51.3841C51.8542 49.5662 53.9704 48.138 56.326 47.1403C58.7653 46.1076 61.3565 45.5835 64.0275 45.5835C66.6988 45.5835 69.2898 46.1076 71.7293 47.1403C74.0869 48.138 76.2028 49.5662 78.0194 51.3841C79.8358 53.2021 81.2628 55.3201 82.2595 57.6797C83.2914 60.1212 83.815 62.7146 83.815 65.3879C83.815 68.0612 83.2914 70.6545 82.2595 73.0961C81.2628 75.454 79.8358 77.5718 78.0194 79.3898C76.203 81.2096 74.0871 82.6379 71.7293 83.6336C69.2899 84.6665 66.6988 85.1906 64.0275 85.1906ZM53.0575 81.7476C52.9368 81.7476 52.8219 81.7106 52.7227 81.6424C52.5961 81.5528 52.5105 81.4201 52.4832 81.2644C52.454 81.1124 52.489 80.9565 52.5786 80.8279C52.6876 80.6721 52.8667 80.5787 53.0575 80.5787C53.1782 80.5787 53.2931 80.6155 53.3904 80.6839C53.6552 80.8669 53.7214 81.2332 53.5364 81.4984C53.4274 81.6541 53.2483 81.7476 53.0575 81.7476Z" fill="#FF4D40"/>
<path d="M69.0308 73.5568C68.9278 73.5568 68.8264 73.5294 68.7368 73.477C68.5558 73.3698 68.4468 73.1806 68.4468 72.9723V70.0983C68.4468 69.8878 68.5597 69.693 68.7429 69.5897L76.1563 65.3888L68.7429 61.1878C68.5599 61.0846 68.4468 60.8897 68.4468 60.6793V57.8053C68.4468 57.5948 68.5538 57.4058 68.7368 57.3006C68.914 57.1973 69.1398 57.1954 69.317 57.2967L80.1704 63.4422C80.3532 63.5455 80.4663 63.7423 80.4663 63.9508V66.8248C80.4663 67.0351 80.3534 67.2299 80.1704 67.3332L69.317 73.4807C69.2294 73.5294 69.1299 73.5568 69.0308 73.5568ZM69.6149 70.4393V71.9688L79.2983 66.484V64.292L69.6149 58.807V60.3385L77.6298 64.8804C77.8128 64.9837 77.926 65.1785 77.926 65.389C77.926 65.5973 77.813 65.7921 77.6298 65.8973L69.6149 70.4393Z" fill="#FF4D40"/>
<path d="M59.0263 73.5568C58.9251 73.5568 58.8258 73.5294 58.7382 73.4807L47.8867 67.3332C47.7037 67.2299 47.5889 67.0351 47.5889 66.8248V63.9508C47.5889 63.7402 47.7037 63.5453 47.8867 63.4422L58.7382 57.2967C58.9154 57.1954 59.1431 57.1973 59.3203 57.3006C59.5013 57.4058 59.6104 57.5948 59.6104 57.8053V60.6793C59.6104 60.8878 59.4955 61.0846 59.3145 61.1878L51.8991 65.3888L59.3145 69.5897C59.4955 69.693 59.6104 69.8878 59.6104 70.0983V72.9723C59.6104 73.1806 59.5013 73.3698 59.3203 73.477C59.2307 73.5294 59.1276 73.5568 59.0263 73.5568ZM48.7569 66.4838L58.4423 71.9686V70.4391L50.4273 65.8969C50.2443 65.7917 50.1314 65.5969 50.1314 65.3886C50.1314 65.1782 50.2443 64.9833 50.4273 64.88L58.4423 60.3381V58.8085L48.7569 64.2918V66.4838Z" fill="#FF4D40"/>
<path d="M60.1925 76.6159C60.1244 76.6159 60.0582 76.6041 59.994 76.5807C59.8479 76.5281 59.7292 76.4211 59.663 76.2787C59.5968 76.1384 59.589 75.9786 59.6435 75.8325L67.3139 54.5472C67.3976 54.3153 67.6176 54.1614 67.8647 54.1614C67.9311 54.1614 67.9972 54.1731 68.0615 54.1965C68.3652 54.3056 68.5229 54.6407 68.4139 54.9447L60.7415 76.228C60.6578 76.4599 60.4378 76.6159 60.1925 76.6159Z" fill="#FF4D40"/>
</svg>
