<svg width="121" height="121" viewBox="0 0 121 121" fill="none" xmlns="http://www.w3.org/2000/svg">
<path d="M97.9842 85.4925H23.7561C21.0115 85.4925 18.5117 83.0151 18.5117 80.2951V27.3214C18.5117 24.6014 21.0115 22.124 23.7561 22.124H97.9842C100.729 22.124 103.229 24.6014 103.229 27.3214V80.2951C103.229 83.0151 100.729 85.4925 97.9842 85.4925ZM23.7561 23.3234C21.6826 23.3234 19.722 25.2665 19.722 27.3214V80.2951C19.722 82.35 21.6826 84.2931 23.7561 84.2931H97.9842C100.058 84.2931 102.018 82.35 102.018 80.2951V27.3214C102.018 25.2665 100.058 23.3234 97.9842 23.3234H23.7561Z" fill="white"/>
<path d="M97.7824 71.2993H23.756C23.4218 71.2993 23.1509 71.0308 23.1509 70.6996V27.5211C23.1509 27.1899 23.4218 26.9214 23.756 26.9214H97.7824C98.1166 26.9214 98.3875 27.1899 98.3875 27.5211V70.6996C98.3875 71.0308 98.1166 71.2993 97.7824 71.2993ZM24.3611 70.0999H97.1773V28.1208H24.3611V70.0999Z" fill="white"/>
<path d="M74.3884 100.285C74.3874 100.285 74.386 100.285 74.3843 100.285H47.3556C47.1672 100.285 46.9897 100.198 46.8752 100.05C46.7606 99.9016 46.7223 99.7091 46.7715 99.5288L50.8056 84.7361C50.877 84.4747 51.1165 84.293 51.3898 84.293H70.3502C70.6235 84.293 70.863 84.4747 70.9344 84.7361L74.9503 99.463C74.9782 99.5318 74.9933 99.6067 74.9933 99.6853C74.9935 100.017 74.7228 100.285 74.3884 100.285ZM48.1463 99.0856H73.5943L69.8871 85.4924H51.8533L48.1463 99.0856Z" fill="white"/>
<path d="M86.2853 103.883H35.4552C35.121 103.883 34.8501 103.615 34.8501 103.284V99.6854C34.8501 99.3542 35.121 99.0857 35.4552 99.0857H86.2853C86.6196 99.0857 86.8905 99.3542 86.8905 99.6854V103.284C86.8905 103.615 86.6196 103.883 86.2853 103.883ZM36.0603 102.684H85.6802V100.285H36.0603V102.684Z" fill="white"/>
<path d="M60.8702 82.294C59.4677 82.294 58.4497 81.3693 58.4497 80.0951C58.4497 78.7724 59.5355 77.6963 60.8702 77.6963C62.2049 77.6963 63.2907 78.7724 63.2907 80.0951C63.2907 81.3693 62.2726 82.294 60.8702 82.294ZM60.8702 78.8957C60.1916 78.8957 59.6599 79.4226 59.6599 80.0951C59.6599 80.8327 60.3119 81.0946 60.8702 81.0946C61.4285 81.0946 62.0804 80.8327 62.0804 80.0951C62.0804 79.4226 61.5487 78.8957 60.8702 78.8957Z" fill="#FF4D40"/>
<path d="M39.2878 33.7182H28.3956C28.0614 33.7182 27.7905 33.4497 27.7905 33.1185C27.7905 32.7873 28.0614 32.5188 28.3956 32.5188H39.2878C39.622 32.5188 39.8929 32.7873 39.8929 33.1185C39.8929 33.4497 39.622 33.7182 39.2878 33.7182Z" fill="#FF4D40"/>
<path d="M50.3817 37.916H28.3956C28.0614 37.916 27.7905 37.6475 27.7905 37.3163C27.7905 36.985 28.0614 36.7166 28.3956 36.7166H50.3817C50.7159 36.7166 50.9868 36.985 50.9868 37.3163C50.9868 37.6475 50.7159 37.916 50.3817 37.916Z" fill="#FF4D40"/>
<path d="M50.3817 41.914H28.3956C28.0614 41.914 27.7905 41.6455 27.7905 41.3143C27.7905 40.9831 28.0614 40.7146 28.3956 40.7146H50.3817C50.7159 40.7146 50.9868 40.9831 50.9868 41.3143C50.9868 41.6455 50.7159 41.914 50.3817 41.914Z" fill="#FF4D40"/>
<path d="M14.4777 46.7116C14.1435 46.7116 13.8726 46.4432 13.8726 46.1119V23.5232C13.8726 20.2724 16.4419 17.7261 19.7221 17.7261H32.833C33.1672 17.7261 33.4381 17.9945 33.4381 18.3258C33.4381 18.657 33.1672 18.9255 32.833 18.9255H19.7221C17.1206 18.9255 15.0828 20.9451 15.0828 23.5232V46.1119C15.0828 46.4432 14.8119 46.7116 14.4777 46.7116Z" fill="white"/>
<path d="M107.263 33.7181C106.928 33.7181 106.657 33.4496 106.657 33.1184V23.5232C106.657 20.9451 104.62 18.9255 102.018 18.9255C101.684 18.9255 101.413 18.657 101.413 18.3258C101.413 17.9945 101.684 17.7261 102.018 17.7261C105.298 17.7261 107.868 20.2724 107.868 23.5232V33.1184C107.868 33.4496 107.597 33.7181 107.263 33.7181Z" fill="white"/>
<path d="M78.9996 67.2155H77.2471C76.9482 67.2155 76.6938 66.999 76.6489 66.706L76.2005 63.783C75.8322 63.7097 75.4651 63.6125 75.1022 63.4924L73.2392 65.8054C73.0518 66.0379 72.721 66.0993 72.4618 65.9493L70.947 65.0748C70.6888 64.9259 70.5791 64.6124 70.6886 64.3369L71.7811 61.5879C71.4949 61.3376 71.2252 61.0706 70.9743 60.7889L68.1935 61.8718C67.9148 61.9805 67.5977 61.8704 67.448 61.6131L66.5714 60.1057C66.4219 59.8486 66.4847 59.5219 66.7188 59.337L69.052 57.4962C68.9314 57.1383 68.8323 56.7729 68.7557 56.4037L65.8049 55.9651C65.5088 55.9211 65.2896 55.6689 65.2896 55.372V53.6355C65.2896 53.3386 65.5086 53.0863 65.8049 53.0424L68.7557 52.6036C68.8323 52.234 68.9312 51.8688 69.052 51.5107L66.7188 49.6698C66.4845 49.4849 66.4217 49.1581 66.5716 48.901L67.4482 47.3942C67.5977 47.1371 67.915 47.0272 68.1935 47.1357L70.9741 48.2184C71.225 47.9365 71.4949 47.6692 71.7813 47.4188L70.6884 44.6629C70.5789 44.3869 70.6896 44.073 70.9486 43.9245L72.4635 43.0561C72.7233 42.9072 73.0528 42.9694 73.2394 43.2011L75.1024 45.5139C75.4655 45.3938 75.8324 45.2968 76.2007 45.2233L76.6491 42.3003C76.6941 42.0073 76.9482 41.7908 77.2473 41.7908H78.9998C79.2993 41.7908 79.5538 42.0079 79.5982 42.3015L80.0402 45.2231C80.4071 45.296 80.7756 45.3934 81.1423 45.5143L83.0006 43.2015C83.1872 42.9692 83.5166 42.9074 83.7762 43.0553L85.2968 43.9237C85.5564 44.072 85.6674 44.3861 85.5579 44.6625L84.4646 47.421C84.748 47.6708 85.0173 47.9377 85.2696 48.2188L88.0461 47.1355C88.3241 47.0268 88.6421 47.1365 88.792 47.394L89.6682 48.9008C89.8175 49.1579 89.755 49.4845 89.5208 49.6694L87.1895 51.5089C87.3087 51.8596 87.4073 52.2256 87.4848 52.6034L90.4357 53.0422C90.732 53.0861 90.9511 53.3384 90.9511 53.6353V55.3718C90.9511 55.6687 90.7318 55.9209 90.4357 55.9649L87.4848 56.4035C87.4073 56.7813 87.3087 57.1471 87.1895 57.4977L89.5208 59.337C89.755 59.5217 89.8177 59.8486 89.6682 60.1057L88.792 61.6131C88.6421 61.8706 88.3241 61.9805 88.0461 61.8718L85.2694 60.7883C85.0171 61.0692 84.748 61.3356 84.4648 61.5857L85.5579 64.3375C85.6674 64.6134 85.557 64.9271 85.2985 65.0758L83.7778 65.9503C83.5182 66.0997 83.1874 66.0379 83.0006 65.8052L81.1423 63.4924C80.7758 63.6131 80.4071 63.7105 80.0402 63.7836L79.5982 66.7052C79.5536 66.9982 79.2991 67.2155 78.9996 67.2155ZM77.7671 66.0161H78.4781L78.9076 63.1777C78.9471 62.9165 79.1545 62.7118 79.4179 62.6734C79.9837 62.591 80.5594 62.4395 81.129 62.223C81.3757 62.129 81.6546 62.2048 81.819 62.4095L83.6217 64.6528L84.2405 64.2968L83.1797 61.6261C83.0831 61.3828 83.1567 61.1056 83.3615 60.9408C83.8216 60.5706 84.2445 60.1516 84.6183 59.6953C84.7845 59.4924 85.0645 59.4198 85.3098 59.5151L88.0031 60.566L88.3592 59.9537L86.094 58.1664C85.8852 58.0017 85.81 57.721 85.9086 57.4754C86.1178 56.9546 86.2723 56.3845 86.3677 55.781C86.4086 55.5223 86.6144 55.3196 86.8758 55.2809L89.7402 54.8553V54.1516L86.8758 53.7258C86.6144 53.687 86.4088 53.4843 86.3677 53.2257C86.2723 52.6224 86.1178 52.0521 85.9086 51.5309C85.81 51.2852 85.8852 51.0046 86.094 50.8399L88.359 49.0526L88.0033 48.4409L85.3098 49.4917C85.0645 49.5877 84.7845 49.5147 84.6181 49.3114C84.2443 48.8547 83.8218 48.4359 83.3617 48.066C83.1567 47.9015 83.0831 47.6243 83.1797 47.381L84.2403 44.7049L83.6225 44.3521L81.819 46.5968C81.655 46.8013 81.3761 46.877 81.129 46.7833C80.5594 46.5668 79.9835 46.4153 79.4179 46.3329C79.1543 46.2945 78.9471 46.0896 78.9076 45.8286L78.4781 42.9902H77.7671L77.3316 45.8298C77.2917 46.0902 77.085 46.2941 76.8223 46.3329C76.2509 46.4169 75.6775 46.5684 75.1179 46.7827C74.8712 46.8772 74.5917 46.8023 74.4267 46.5976L72.6184 44.3527L72.0052 44.7043L73.0668 47.3812C73.1638 47.6261 73.0885 47.9049 72.8812 48.069C72.4167 48.4367 71.9961 48.8535 71.6312 49.3076C71.4658 49.5135 71.1838 49.5889 70.9367 49.4921L68.2363 48.4407L67.8801 49.0528L70.145 50.8399C70.352 51.0032 70.428 51.281 70.3326 51.5255C70.1184 52.0739 69.9633 52.6458 69.8717 53.2255C69.8308 53.4843 69.625 53.6868 69.3636 53.7256L66.5 54.1514V54.8551L69.3636 55.2807C69.625 55.3194 69.8306 55.5221 69.8717 55.7808C69.9635 56.3607 70.1186 56.9326 70.3326 57.4804C70.4282 57.725 70.3524 58.0027 70.145 58.1662L67.8801 59.9533L68.2363 60.566L70.9367 59.5145C71.1836 59.418 71.4654 59.493 71.631 59.6987C71.9963 60.1526 72.4169 60.5694 72.8814 60.9374C73.0887 61.1018 73.1638 61.3808 73.0666 61.6255L72.0048 64.297L72.6194 64.6518L74.4267 62.4083C74.5915 62.2036 74.8712 62.1282 75.1179 62.2232C75.6775 62.4377 76.2509 62.589 76.8223 62.673C77.0852 62.7116 77.2917 62.9157 77.3316 63.1761L77.7671 66.0161ZM78.1229 59.5499C75.315 59.5499 73.0307 57.2861 73.0307 54.5034C73.0307 51.7206 75.315 49.4568 78.1229 49.4568C80.9309 49.4568 83.2152 51.7206 83.2152 54.5034C83.2152 57.2861 80.9309 59.5499 78.1229 59.5499ZM78.1229 50.656C75.9824 50.656 74.2409 52.3819 74.2409 54.5032C74.2409 56.6246 75.9824 58.3503 78.1229 58.3503C80.2635 58.3503 82.005 56.6246 82.005 54.5032C82.005 52.3819 80.2635 50.656 78.1229 50.656Z" fill="#FF4D40"/>
<path d="M60.0634 64.9025H59.0549C58.7207 64.9025 58.4498 64.634 58.4498 64.3028C58.4498 63.9715 58.7207 63.7031 59.0549 63.7031H60.0634C60.3977 63.7031 60.6686 63.9715 60.6686 64.3028C60.6686 64.634 60.3977 64.9025 60.0634 64.9025ZM55.4242 64.9025H54.4157C54.0814 64.9025 53.8105 64.634 53.8105 64.3028C53.8105 63.9715 54.0814 63.7031 54.4157 63.7031H55.4242C55.7584 63.7031 56.0293 63.9715 56.0293 64.3028C56.0293 64.634 55.7584 64.9025 55.4242 64.9025ZM50.7849 64.9025H49.7764C49.4422 64.9025 49.1713 64.634 49.1713 64.3028C49.1713 63.9715 49.4422 63.7031 49.7764 63.7031H50.7849C51.1192 63.7031 51.3901 63.9715 51.3901 64.3028C51.3901 64.634 51.1192 64.9025 50.7849 64.9025ZM46.1457 64.9025H45.1371C44.8029 64.9025 44.532 64.634 44.532 64.3028C44.532 63.9715 44.8029 63.7031 45.1371 63.7031H46.1457C46.4799 63.7031 46.7508 63.9715 46.7508 64.3028C46.7508 64.634 46.4799 64.9025 46.1457 64.9025ZM41.5064 64.9025H40.4979C40.1637 64.9025 39.8928 64.634 39.8928 64.3028C39.8928 63.9715 40.1637 63.7031 40.4979 63.7031H41.5064C41.8407 63.7031 42.1115 63.9715 42.1115 64.3028C42.1115 64.634 41.8407 64.9025 41.5064 64.9025ZM36.8672 64.9025H35.8586C35.5244 64.9025 35.2535 64.634 35.2535 64.3028C35.2535 63.9715 35.5244 63.7031 35.8586 63.7031H36.8672C37.2014 63.7031 37.4723 63.9715 37.4723 64.3028C37.4723 64.634 37.2014 64.9025 36.8672 64.9025ZM32.2279 64.9025H31.2194C30.8852 64.9025 30.6143 64.634 30.6143 64.3028C30.6143 63.9715 30.8852 63.7031 31.2194 63.7031H32.2279C32.5621 63.7031 32.833 63.9715 32.833 64.3028C32.833 64.634 32.5621 64.9025 32.2279 64.9025ZM60.2652 61.5042C59.9309 61.5042 59.66 61.2357 59.66 60.9045V59.905C59.66 59.5737 59.9309 59.3053 60.2652 59.3053C60.5994 59.3053 60.8703 59.5737 60.8703 59.905V60.9045C60.8703 61.2357 60.5994 61.5042 60.2652 61.5042ZM60.2652 56.9065C59.9309 56.9065 59.66 56.638 59.66 56.3068V55.3073C59.66 54.976 59.9309 54.7076 60.2652 54.7076C60.5994 54.7076 60.8703 54.976 60.8703 55.3073V56.3068C60.8703 56.638 60.5994 56.9065 60.2652 56.9065ZM60.2652 52.3087C59.9309 52.3087 59.66 52.0403 59.66 51.709V50.7095C59.66 50.3783 59.9309 50.1098 60.2652 50.1098C60.5994 50.1098 60.8703 50.3783 60.8703 50.7095V51.709C60.8703 52.0403 60.5994 52.3087 60.2652 52.3087ZM60.2652 47.711C59.9309 47.711 59.66 47.4426 59.66 47.1113V46.1118C59.66 45.7806 59.9309 45.5121 60.2652 45.5121C60.5994 45.5121 60.8703 45.7806 60.8703 46.1118V47.1113C60.8703 47.4426 60.5994 47.711 60.2652 47.711ZM60.2652 43.1133C59.9309 43.1133 59.66 42.8449 59.66 42.5136V41.5141C59.66 41.1829 59.9309 40.9144 60.2652 40.9144C60.5994 40.9144 60.8703 41.1829 60.8703 41.5141V42.5136C60.8703 42.8449 60.5994 43.1133 60.2652 43.1133ZM60.2652 38.5156C59.9309 38.5156 59.66 38.2471 59.66 37.9159V36.9164C59.66 36.5852 59.9309 36.3167 60.2652 36.3167C60.5994 36.3167 60.8703 36.5852 60.8703 36.9164V37.9159C60.8703 38.2471 60.5994 38.5156 60.2652 38.5156ZM60.2652 33.9179C59.9309 33.9179 59.66 33.6494 59.66 33.3182V32.3187C59.66 31.9875 59.9309 31.719 60.2652 31.719C60.5994 31.719 60.8703 31.9875 60.8703 32.3187V33.3182C60.8703 33.6494 60.5994 33.9179 60.2652 33.9179ZM88.1007 32.9184H87.0922C86.7579 32.9184 86.487 32.6499 86.487 32.3187C86.487 31.9875 86.7579 31.719 87.0922 31.719H88.1007C88.4349 31.719 88.7058 31.9875 88.7058 32.3187C88.7058 32.6499 88.4349 32.9184 88.1007 32.9184ZM83.4614 32.9184H82.4529C82.1187 32.9184 81.8478 32.6499 81.8478 32.3187C81.8478 31.9875 82.1187 31.719 82.4529 31.719H83.4614C83.7957 31.719 84.0666 31.9875 84.0666 32.3187C84.0666 32.6499 83.7957 32.9184 83.4614 32.9184ZM78.8222 32.9184H77.8136C77.4794 32.9184 77.2085 32.6499 77.2085 32.3187C77.2085 31.9875 77.4794 31.719 77.8136 31.719H78.8222C79.1564 31.719 79.4273 31.9875 79.4273 32.3187C79.4273 32.6499 79.1564 32.9184 78.8222 32.9184ZM74.1829 32.9184H73.1744C72.8402 32.9184 72.5693 32.6499 72.5693 32.3187C72.5693 31.9875 72.8402 31.719 73.1744 31.719H74.1829C74.5172 31.719 74.788 31.9875 74.788 32.3187C74.788 32.6499 74.5172 32.9184 74.1829 32.9184ZM69.5437 32.9184H68.5351C68.2009 32.9184 67.93 32.6499 67.93 32.3187C67.93 31.9875 68.2009 31.719 68.5351 31.719H69.5437C69.8779 31.719 70.1488 31.9875 70.1488 32.3187C70.1488 32.6499 69.8779 32.9184 69.5437 32.9184ZM64.9044 32.9184H63.8959C63.5616 32.9184 63.2908 32.6499 63.2908 32.3187C63.2908 31.9875 63.5616 31.719 63.8959 31.719H64.9044C65.2386 31.719 65.5095 31.9875 65.5095 32.3187C65.5095 32.6499 65.2386 32.9184 64.9044 32.9184Z" fill="white"/>
</svg>
