<svg width="121" height="121" viewBox="0 0 121 121" fill="none" xmlns="http://www.w3.org/2000/svg">
<path d="M96.7209 84.7188H23.6007C20.897 84.7188 18.4346 82.2415 18.4346 79.5214V26.5478C18.4346 23.8855 20.8485 21.5503 23.6007 21.5503H96.7209C99.473 21.5503 101.887 23.8855 101.887 26.5478V79.5214C101.887 82.2415 99.4246 84.7188 96.7209 84.7188ZM23.6007 22.7497C21.4838 22.7497 19.6267 24.5244 19.6267 26.5478V79.5214C19.6267 81.5764 21.5581 83.5194 23.6007 83.5194H96.7209C98.7635 83.5194 100.695 81.5764 100.695 79.5214V26.5478C100.695 24.5244 98.8378 22.7497 96.7209 22.7497H23.6007Z" fill="white"/>
<path d="M96.521 70.5315H23.5995C23.2703 70.5315 23.0034 70.263 23.0034 69.9318V26.7533C23.0034 26.422 23.2703 26.1536 23.5995 26.1536H96.521C96.8503 26.1536 97.1171 26.422 97.1171 26.7533V69.9318C97.1171 70.263 96.8503 70.5315 96.521 70.5315ZM24.1956 69.3321H95.9249V27.353H24.1956V69.3321Z" fill="white"/>
<path d="M73.468 99.5143C73.467 99.5143 73.4656 99.5143 73.4641 99.5143H46.8388C46.6532 99.5143 46.4784 99.4273 46.3655 99.279C46.2526 99.1309 46.2149 98.9383 46.2634 98.758L50.2373 83.9654C50.3076 83.7039 50.5435 83.5222 50.8127 83.5222H69.4901C69.7594 83.5222 69.9952 83.7039 70.0656 83.9654L74.0216 98.6923C74.049 98.761 74.0639 98.836 74.0639 98.9146C74.0641 99.2458 73.7975 99.5143 73.468 99.5143ZM47.6177 98.3149H72.6858L69.0339 84.7216H51.2693L47.6177 98.3149Z" fill="white"/>
<path d="M85.1925 103.315H35.121C34.7918 103.315 34.5249 103.046 34.5249 102.715V98.9171C34.5249 98.5858 34.7918 98.3174 35.121 98.3174H85.1925C85.5218 98.3174 85.7886 98.5858 85.7886 98.9171V102.715C85.7886 103.046 85.5218 103.315 85.1925 103.315ZM35.7171 102.115H84.5964V99.5168H35.7171V102.115Z" fill="white"/>
<path d="M60.1666 80.7231C58.8518 80.7231 57.7822 79.6471 57.7822 78.3243C57.7822 77.0016 58.8518 75.9255 60.1666 75.9255C61.4814 75.9255 62.551 77.0016 62.551 78.3243C62.551 79.6471 61.4814 80.7231 60.1666 80.7231ZM60.1666 77.1249C59.4982 77.1249 58.9744 77.6519 58.9744 78.3243C58.9744 78.9968 59.4982 79.5237 60.1666 79.5237C60.835 79.5237 61.3588 78.9968 61.3588 78.3243C61.3588 77.6519 60.835 77.1249 60.1666 77.1249Z" fill="#FF4D40"/>
<path d="M14.4613 45.9422C14.1321 45.9422 13.8652 45.6737 13.8652 45.3424V22.7537C13.8652 19.5029 16.3962 16.9565 19.6274 16.9565H32.5427C32.8719 16.9565 33.1388 17.225 33.1388 17.5562C33.1388 17.8875 32.8719 18.1559 32.5427 18.1559H19.6274C17.0648 18.1559 15.0574 20.1755 15.0574 22.7537V45.3424C15.0574 45.6737 14.7906 45.9422 14.4613 45.9422Z" fill="white"/>
<path d="M105.867 32.9486C105.537 32.9486 105.271 32.6801 105.271 32.3489V22.7537C105.271 20.1755 103.263 18.1559 100.701 18.1559C100.371 18.1559 100.104 17.8875 100.104 17.5562C100.104 17.225 100.371 16.9565 100.701 16.9565C103.932 16.9565 106.463 19.5029 106.463 22.7537V32.3489C106.463 32.6801 106.196 32.9486 105.867 32.9486Z" fill="white"/>
<path d="M60.1533 65.9309C60.0997 65.9309 60.0456 65.9237 59.993 65.9089L46.4816 62.1108C46.2241 62.0384 46.0459 61.8023 46.0459 61.5332V44.5417C46.0459 44.3556 46.1317 44.1799 46.2784 44.0665C46.425 43.9532 46.616 43.9144 46.7946 43.9622L60.3059 47.5604C60.5674 47.63 60.7496 47.868 60.7496 48.1401V65.3316C60.7496 65.5191 60.6624 65.6958 60.5138 65.8093C60.4089 65.8889 60.2821 65.9309 60.1533 65.9309ZM47.2381 61.0779L59.5573 64.541V48.6013L47.2381 45.3205V61.0779Z" fill="#FF4D40"/>
<path d="M60.1703 65.9314C60.0417 65.9314 59.9148 65.8894 59.8101 65.8094C59.6614 65.6961 59.5742 65.5194 59.5742 65.3317V48.1402C59.5742 47.8682 59.7564 47.6301 60.0177 47.5605L73.529 43.9623C73.7073 43.9143 73.8982 43.9531 74.0453 44.0666C74.1917 44.1802 74.2777 44.3557 74.2777 44.5418V61.5333C74.2777 61.8024 74.0997 62.0385 73.8422 62.1109L60.3309 65.909C60.278 65.9242 60.224 65.9314 60.1703 65.9314ZM60.7666 48.6018V64.5415L73.0856 61.0784V45.321L60.7666 48.6018Z" fill="#FF4D40"/>
<path d="M60.1534 48.7397C60.1021 48.7397 60.0508 48.7331 60.0008 48.7197L46.4894 45.1215C46.2299 45.0525 46.0485 44.8174 46.0459 44.5476C46.0433 44.2777 46.2202 44.0392 46.4783 43.9651L50.6509 42.7657C50.7544 42.7361 50.8641 42.7351 50.9682 42.7629L56.7688 44.3191L62.339 42.6921V41.5433C62.339 41.3558 62.426 41.1793 62.5745 41.0659C62.7229 40.9526 62.9154 40.9158 63.0947 40.9656L73.8243 43.9641C74.0838 44.0366 74.2624 44.2749 74.2608 44.5456C74.2592 44.8162 74.0774 45.0525 73.8173 45.1217L60.306 48.7199C60.2559 48.7331 60.2046 48.7397 60.1534 48.7397ZM48.8887 44.5198L60.1534 47.5197L71.3876 44.528L63.5312 42.3325V43.1427C63.5312 43.4093 63.3559 43.6442 63.1014 43.7186L56.9418 45.5177C56.8377 45.5483 56.7268 45.5493 56.6221 45.5213L50.8202 43.9647L48.8887 44.5198Z" fill="#FF4D40"/>
<path d="M56.7796 45.54C56.724 45.54 56.6679 45.5322 56.6135 45.5162L50.4539 43.7171C50.1992 43.6428 50.0239 43.4081 50.0239 43.1412V35.3451C50.0239 35.1564 50.1121 34.9789 50.2622 34.8655C50.4122 34.7522 50.6063 34.7166 50.7863 34.7692L56.9459 36.5683C57.2006 36.6426 57.3759 36.8773 57.3759 37.1442V44.9403C57.3759 45.129 57.2877 45.3065 57.1376 45.4199C57.0331 45.4986 56.9072 45.54 56.7796 45.54ZM51.2161 42.6908L56.1835 44.1417V37.5946L51.2161 36.1437V42.6908Z" fill="#FF4D40"/>
<path d="M56.7836 45.5446C56.656 45.5446 56.53 45.5032 56.4257 45.4244C56.2757 45.3111 56.1875 45.1336 56.1875 44.9449V37.1488C56.1875 36.8821 56.3627 36.6472 56.6175 36.5729L62.7768 34.7738C62.957 34.7212 63.151 34.757 63.3012 34.8701C63.451 34.9835 63.5392 35.161 63.5392 35.3497V43.1458C63.5392 43.4124 63.364 43.6473 63.1094 43.7217L56.9499 45.5208C56.8952 45.5368 56.8392 45.5446 56.7836 45.5446ZM57.3797 37.5991V44.1463L62.347 42.6954V36.1481L57.3797 37.5991Z" fill="#FF4D40"/>
<path d="M56.7795 37.7477C56.7235 37.7477 56.6676 37.7397 56.6134 37.7239L50.4538 35.9248C50.1959 35.8496 50.0198 35.6099 50.024 35.3399C50.028 35.0696 50.211 34.8357 50.4711 34.7682L56.6307 33.1689C56.7282 33.1436 56.831 33.1436 56.9285 33.1689L63.0881 34.7682C63.3482 34.8355 63.531 35.0696 63.5352 35.3399C63.5391 35.6099 63.3631 35.8494 63.1054 35.9248L56.9458 37.7239C56.8916 37.7397 56.8355 37.7477 56.7795 37.7477ZM52.8743 35.3829L56.7795 36.5235L60.6847 35.3829L56.7795 34.369L52.8743 35.3829Z" fill="#FF4D40"/>
<path d="M79.4308 58.9326H78.4374C78.1081 58.9326 77.8413 58.6641 77.8413 58.3329C77.8413 58.0016 78.1081 57.7332 78.4374 57.7332H79.4308C79.7601 57.7332 80.0269 58.0016 80.0269 58.3329C80.0269 58.6641 79.7601 58.9326 79.4308 58.9326ZM74.8608 58.9326H73.8673C73.5381 58.9326 73.2712 58.6641 73.2712 58.3329C73.2712 58.0016 73.5381 57.7332 73.8673 57.7332H74.8608C75.1901 57.7332 75.4569 58.0016 75.4569 58.3329C75.4569 58.6641 75.1901 58.9326 74.8608 58.9326ZM70.2908 58.9326H69.2973C68.9681 58.9326 68.7012 58.6641 68.7012 58.3329C68.7012 58.0016 68.9681 57.7332 69.2973 57.7332H70.2908C70.62 57.7332 70.8869 58.0016 70.8869 58.3329C70.8869 58.6641 70.62 58.9326 70.2908 58.9326ZM65.7208 58.9326H64.7273C64.3981 58.9326 64.1312 58.6641 64.1312 58.3329C64.1312 58.0016 64.3981 57.7332 64.7273 57.7332H65.7208C66.05 57.7332 66.3169 58.0016 66.3169 58.3329C66.3169 58.6641 66.05 58.9326 65.7208 58.9326ZM61.1508 58.9326H60.1573C59.8281 58.9326 59.5612 58.6641 59.5612 58.3329C59.5612 58.0016 59.8281 57.7332 60.1573 57.7332H61.1508C61.48 57.7332 61.7469 58.0016 61.7469 58.3329C61.7469 58.6641 61.48 58.9326 61.1508 58.9326ZM56.5806 58.9326H55.5871C55.2578 58.9326 54.991 58.6641 54.991 58.3329C54.991 58.0016 55.2578 57.7332 55.5871 57.7332H56.5806C56.9098 57.7332 57.1767 58.0016 57.1767 58.3329C57.1767 58.6641 56.9098 58.9326 56.5806 58.9326ZM52.0106 58.9326H51.0171C50.6878 58.9326 50.421 58.6641 50.421 58.3329C50.421 58.0016 50.6878 57.7332 51.0171 57.7332H52.0106C52.3398 57.7332 52.6066 58.0016 52.6066 58.3329C52.6066 58.6641 52.3398 58.9326 52.0106 58.9326ZM47.4405 58.9326H46.4471C46.1178 58.9326 45.851 58.6641 45.851 58.3329C45.851 58.0016 46.1178 57.7332 46.4471 57.7332H47.4405C47.7698 57.7332 48.0366 58.0016 48.0366 58.3329C48.0366 58.6641 47.7698 58.9326 47.4405 58.9326ZM42.8705 58.9326H41.877C41.5478 58.9326 41.281 58.6641 41.281 58.3329C41.281 58.0016 41.5478 57.7332 41.877 57.7332H42.8705C43.1998 57.7332 43.4666 58.0016 43.4666 58.3329C43.4666 58.6641 43.1998 58.9326 42.8705 58.9326ZM38.3005 58.9326H37.307C36.9778 58.9326 36.7109 58.6641 36.7109 58.3329C36.7109 58.0016 36.9778 57.7332 37.307 57.7332H38.3005C38.6297 57.7332 38.8966 58.0016 38.8966 58.3329C38.8966 58.6641 38.6297 58.9326 38.3005 58.9326Z" fill="white"/>
<path d="M79.4308 54.5404H78.4374C78.1081 54.5404 77.8413 54.272 77.8413 53.9407C77.8413 53.6095 78.1081 53.3411 78.4374 53.3411H79.4308C79.7601 53.3411 80.0269 53.6095 80.0269 53.9407C80.0269 54.272 79.7601 54.5404 79.4308 54.5404ZM74.8608 54.5404H73.8673C73.5381 54.5404 73.2712 54.272 73.2712 53.9407C73.2712 53.6095 73.5381 53.3411 73.8673 53.3411H74.8608C75.1901 53.3411 75.4569 53.6095 75.4569 53.9407C75.4569 54.272 75.1901 54.5404 74.8608 54.5404ZM70.2908 54.5404H69.2973C68.9681 54.5404 68.7012 54.272 68.7012 53.9407C68.7012 53.6095 68.9681 53.3411 69.2973 53.3411H70.2908C70.62 53.3411 70.8869 53.6095 70.8869 53.9407C70.8869 54.272 70.62 54.5404 70.2908 54.5404ZM65.7208 54.5404H64.7273C64.3981 54.5404 64.1312 54.272 64.1312 53.9407C64.1312 53.6095 64.3981 53.3411 64.7273 53.3411H65.7208C66.05 53.3411 66.3169 53.6095 66.3169 53.9407C66.3169 54.272 66.05 54.5404 65.7208 54.5404ZM61.1508 54.5404H60.1573C59.8281 54.5404 59.5612 54.272 59.5612 53.9407C59.5612 53.6095 59.8281 53.3411 60.1573 53.3411H61.1508C61.48 53.3411 61.7469 53.6095 61.7469 53.9407C61.7469 54.272 61.48 54.5404 61.1508 54.5404ZM56.5806 54.5404H55.5871C55.2578 54.5404 54.991 54.272 54.991 53.9407C54.991 53.6095 55.2578 53.3411 55.5871 53.3411H56.5806C56.9098 53.3411 57.1767 53.6095 57.1767 53.9407C57.1767 54.272 56.9098 54.5404 56.5806 54.5404ZM52.0106 54.5404H51.0171C50.6878 54.5404 50.421 54.272 50.421 53.9407C50.421 53.6095 50.6878 53.3411 51.0171 53.3411H52.0106C52.3398 53.3411 52.6066 53.6095 52.6066 53.9407C52.6066 54.272 52.3398 54.5404 52.0106 54.5404ZM47.4405 54.5404H46.4471C46.1178 54.5404 45.851 54.272 45.851 53.9407C45.851 53.6095 46.1178 53.3411 46.4471 53.3411H47.4405C47.7698 53.3411 48.0366 53.6095 48.0366 53.9407C48.0366 54.272 47.7698 54.5404 47.4405 54.5404ZM42.8705 54.5404H41.877C41.5478 54.5404 41.281 54.272 41.281 53.9407C41.281 53.6095 41.5478 53.3411 41.877 53.3411H42.8705C43.1998 53.3411 43.4666 53.6095 43.4666 53.9407C43.4666 54.272 43.1998 54.5404 42.8705 54.5404ZM38.3005 54.5404H37.307C36.9778 54.5404 36.7109 54.272 36.7109 53.9407C36.7109 53.6095 36.9778 53.3411 37.307 53.3411H38.3005C38.6297 53.3411 38.8966 53.6095 38.8966 53.9407C38.8966 54.272 38.6297 54.5404 38.3005 54.5404Z" fill="white"/>
</svg>
