<svg width="121" height="121" viewBox="0 0 121 121" fill="none" xmlns="http://www.w3.org/2000/svg">
<path d="M83.1331 106.293C82.9737 106.293 82.8182 106.229 82.7055 106.117L74.7199 98.2026C74.6049 98.0907 74.5422 97.939 74.5422 97.7791C74.5422 97.6189 74.6049 97.469 74.7199 97.3553C74.9478 97.1294 75.347 97.1294 75.5749 97.3553L83.1331 104.846L104.883 83.2883L85.981 64.5576C85.9044 64.4836 85.8501 64.3877 85.8239 64.2857C85.7874 64.1518 85.8017 64.0079 85.8602 63.8839C85.8884 63.82 85.9308 63.76 85.9812 63.71C86.0639 63.6281 86.167 63.5723 86.2797 63.5481C86.4794 63.5061 86.6912 63.5661 86.8364 63.71L106.166 82.8645C106.281 82.9784 106.343 83.1283 106.343 83.2883C106.343 83.4502 106.281 83.6001 106.168 83.7141L83.5607 106.117C83.4478 106.229 83.2924 106.293 83.1331 106.293ZM72.2954 95.5522C72.132 95.5522 71.9807 95.4902 71.8678 95.3763C71.6318 95.1424 71.6318 94.7626 71.8678 94.5287C72.0957 94.3028 72.4933 94.3008 72.723 94.5287C72.959 94.7626 72.959 95.1424 72.723 95.3763C72.608 95.4902 72.4568 95.5522 72.2954 95.5522ZM69.441 92.7256C69.2797 92.7256 69.1284 92.6634 69.0136 92.5497L50.5232 74.2268C48.5848 74.6106 46.5939 74.8063 44.6091 74.8063H44.6051C42.6889 74.8063 40.7626 74.6246 38.8827 74.2626C36.9846 73.8987 35.1168 73.351 33.3297 72.6336C29.6122 71.1383 26.278 68.9454 23.4198 66.1106C21.5863 64.2957 20.0029 62.2605 18.7079 60.0616C17.4533 57.9287 16.471 55.6418 15.7872 53.263C15.6965 52.9432 15.882 52.6113 16.2048 52.5214C16.5194 52.4334 16.8623 52.6233 16.9511 52.9332C18.2823 57.5709 20.8138 61.8327 24.2751 65.263C29.705 70.6424 36.9241 73.6067 44.6091 73.6067C46.6201 73.6067 48.6332 73.3988 50.5958 72.987C50.7914 72.945 51.0052 73.007 51.1484 73.1489L69.8689 91.7019C69.9838 91.8138 70.0464 91.9658 70.0464 92.1257C70.0464 92.2856 69.9838 92.4355 69.8689 92.5495C69.7559 92.6634 69.6046 92.7256 69.441 92.7256ZM83.5567 61.9069C83.3953 61.9069 83.242 61.8449 83.1291 61.731C83.0141 61.6191 82.9516 61.4671 82.9516 61.3072C82.9516 61.1473 83.0141 60.9974 83.1291 60.8834C83.357 60.6575 83.7564 60.6575 83.9843 60.8834C84.2203 61.1173 84.2203 61.4971 83.9843 61.731C83.8693 61.8449 83.718 61.9069 83.5567 61.9069ZM38.209 59.714C38.0476 59.714 37.8943 59.652 37.7813 59.5401L16.6183 38.5665C16.11 40.7075 15.8538 42.9084 15.8538 45.1113C15.8538 45.1413 15.8538 45.1732 15.8538 45.2032C15.8538 45.5351 15.5835 45.8049 15.2507 45.8049C14.9159 45.8049 14.6436 45.5371 14.6436 45.2072V45.1113C14.6436 42.4466 15.0026 39.7979 15.7106 37.2392C15.7671 37.0333 15.9304 36.8714 16.1382 36.8174C16.346 36.7634 16.5699 36.8234 16.7211 36.9733L38.209 58.2667L57.8814 38.7664L56.4715 37.3711C56.2355 37.1372 56.2355 36.7554 56.4715 36.5216C56.7014 36.2957 57.0988 36.2957 57.3287 36.5216L59.1663 38.3426C59.2793 38.4546 59.3438 38.6085 59.3438 38.7664C59.3438 38.9244 59.2793 39.0803 59.1663 39.1922L38.6366 59.5401C38.5216 59.652 38.3703 59.714 38.209 59.714ZM80.7023 59.0803C80.541 59.0803 80.3897 59.0184 80.2747 58.9044L72.8985 51.5941C72.7533 51.4501 72.6907 51.2442 72.7349 51.0463C73.1506 49.0973 73.3622 47.1003 73.3622 45.1093C73.3602 37.4951 70.3709 30.3406 64.941 24.9613C59.5112 19.58 52.2881 16.6155 44.6031 16.6135C42.3823 16.6135 40.1615 16.8693 38.0032 17.3711L51.6225 30.8684C51.7374 30.9823 51.8 31.1322 51.8 31.2922C51.8 31.4521 51.7374 31.602 51.6225 31.7159C51.3945 31.9438 50.9952 31.9438 50.7672 31.7159L36.3956 17.473C36.2423 17.3231 36.1838 17.1012 36.2383 16.8953C36.2927 16.6894 36.4561 16.5275 36.6639 16.4715C39.2477 15.7699 41.9183 15.4141 44.6031 15.4141C46.5213 15.4141 48.4456 15.598 50.3275 15.9578C52.2256 16.3216 54.0954 16.8713 55.8825 17.589C59.602 19.0822 62.9382 21.2791 65.7964 24.1137C68.6566 26.9463 70.8713 30.2507 72.3781 33.9368C73.1042 35.706 73.6569 37.557 74.024 39.4381C74.3871 41.3012 74.5727 43.2102 74.5727 45.1093C74.5727 47.0723 74.375 49.0453 73.9837 50.9744L81.132 58.0568C81.3659 58.2907 81.3659 58.6705 81.132 58.9044C81.0172 59.0184 80.8659 59.0803 80.7023 59.0803ZM15.5351 49.789C15.2366 49.789 14.9784 49.5671 14.936 49.2732C14.9138 49.1153 14.9542 48.9574 15.053 48.8294C15.1498 48.7015 15.291 48.6175 15.4524 48.5955C15.7771 48.5496 16.0898 48.7835 16.1342 49.1073C16.1584 49.2652 16.116 49.4231 16.0192 49.5511C15.9224 49.679 15.7792 49.761 15.6198 49.783C15.5916 49.7869 15.5633 49.789 15.5351 49.789ZM54.047 34.7185C53.8856 34.7185 53.7343 34.6565 53.6194 34.5425C53.3834 34.3087 53.3834 33.9288 53.6194 33.695C53.8473 33.4691 54.2467 33.4691 54.4746 33.695C54.7106 33.9288 54.7106 34.3087 54.4746 34.5425C54.3616 34.6565 54.2083 34.7185 54.047 34.7185Z" fill="white"/>
<path d="M90.6285 98.8626C90.4671 98.8626 90.3158 98.8004 90.201 98.6865L81.1119 89.6789C80.997 89.567 80.9344 89.4151 80.9344 89.2552C80.9344 89.0952 80.997 88.9453 81.1119 88.8314C81.3399 88.6035 81.7392 88.6035 81.9672 88.8314L90.6283 97.4151L97.3854 90.7204L72.6384 66.1908L65.8813 72.8875L76.2631 83.1764C76.3095 83.2244 76.3478 83.2763 76.3781 83.3365C76.4928 83.5662 76.4467 83.8441 76.2631 84.026C76.0332 84.2519 75.6358 84.2519 75.4079 84.026L64.5964 73.3133C64.3624 73.0794 64.3624 72.6976 64.5964 72.4637L72.2108 64.9195C72.4347 64.6958 72.8401 64.6958 73.066 64.9195L98.6707 90.2968C98.7857 90.4108 98.8482 90.5607 98.8482 90.7206C98.8482 90.8805 98.7857 91.0327 98.6707 91.1464L91.0563 98.6867C90.9433 98.8006 90.79 98.8626 90.6285 98.8626ZM78.6876 87.0285C78.5261 87.0285 78.3728 86.9663 78.26 86.8526C78.024 86.6187 78.024 86.2389 78.26 86.005C78.4879 85.7771 78.8871 85.7771 79.115 86.005C79.3512 86.2389 79.3512 86.6187 79.115 86.8526C79.0003 86.9663 78.849 87.0285 78.6876 87.0285Z" fill="#FF4D40"/>
<path d="M35.2659 40.5594L35.2619 40.5495V40.5594C33.9932 40.5594 32.8011 40.0697 31.9035 39.1801C31.0059 38.2906 30.5117 37.1072 30.5117 35.8498C30.5117 34.5924 31.0059 33.409 31.9035 32.5195C31.9035 32.5175 31.9035 32.5175 31.9035 32.5175C32.7991 31.6299 33.9932 31.1401 35.2599 31.1401H35.2659C36.5347 31.1401 37.7268 31.6299 38.6244 32.5195C39.522 33.409 40.0161 34.5924 40.0161 35.8498C40.0161 37.1072 39.522 38.2906 38.6244 39.1801C37.7268 40.0697 36.5347 40.5594 35.2659 40.5594ZM35.2639 32.3395C34.3159 32.3395 33.4264 32.7054 32.7587 33.367C32.0911 34.0307 31.722 34.9123 31.722 35.8498C31.722 36.7873 32.0911 37.6689 32.7587 38.3306C33.4264 38.9942 34.3159 39.358 35.2639 39.36C36.2099 39.358 37.0995 38.9942 37.7691 38.3306C38.4368 37.6689 38.8039 36.7873 38.8059 35.8498C38.8039 34.9123 38.4368 34.0307 37.7691 33.367C37.0995 32.7054 36.2099 32.3395 35.2639 32.3395Z" fill="#FF4D40"/>
<path d="M32.9584 47.8258C32.7971 47.8258 32.6458 47.7639 32.5328 47.6499L23.3572 38.5565C23.2442 38.4445 23.1797 38.2906 23.1797 38.1327V38.1307C23.1797 38.0287 23.2059 37.9268 23.2543 37.8388L28.178 29.0632C28.2324 28.9672 28.3151 28.8833 28.414 28.8293L37.2265 23.9757C37.3254 23.9098 37.4464 23.8738 37.5654 23.8738H37.5674C37.7268 23.8738 37.8841 23.9377 37.995 24.0477L47.1707 33.1452C47.3603 33.3331 47.4027 33.6269 47.2715 33.8588L42.3499 42.6384C42.2954 42.7344 42.2107 42.8183 42.1139 42.8723L33.2529 47.7499C33.1642 47.7999 33.0613 47.8258 32.9584 47.8258ZM24.5331 38.0287L33.0633 46.4825L41.3757 41.9068L45.9927 33.6729L37.4646 25.2171L29.1522 29.7948L24.5331 38.0287Z" fill="#FF4D40"/>
<path d="M97.4407 83.712C97.2793 83.712 97.128 83.6481 97.0131 83.5361L58.947 45.8149C58.713 45.579 58.713 45.1992 58.947 44.9653C59.1769 44.7394 59.5743 44.7394 59.8042 44.9653L97.8683 82.6865C98.1043 82.9204 98.1043 83.302 97.8683 83.5361C97.7552 83.6481 97.6021 83.712 97.4407 83.712Z" fill="white"/>
<path d="M82.3464 98.7686C82.1831 98.7686 82.0318 98.7066 81.9188 98.5927L43.8547 60.8716C43.6187 60.6378 43.6187 60.2579 43.8547 60.0221C43.9697 59.9101 44.121 59.8481 44.2824 59.8481C44.4457 59.8481 44.597 59.9101 44.712 60.0221L82.7741 97.7451C83.0101 97.9792 83.0101 98.3588 82.7741 98.5927C82.6591 98.7068 82.5078 98.7686 82.3464 98.7686Z" fill="white"/>
<path d="M44.0646 103.854H42.1686C41.8701 103.854 41.6139 103.634 41.5695 103.344L41.0834 100.146C40.6598 100.062 40.2383 99.9501 39.8308 99.8142L37.7996 102.341C37.6181 102.567 37.2772 102.631 37.0231 102.487L35.3812 101.547C35.1189 101.397 35.01 101.085 35.1189 100.808L36.313 97.7992C35.9923 97.5173 35.6837 97.2135 35.3953 96.8916L32.3576 98.075C32.0853 98.1792 31.7565 98.0651 31.6113 97.8152L30.6673 96.186C30.516 95.9281 30.5785 95.6043 30.8145 95.4184L33.3661 93.4054C33.2269 93.0016 33.116 92.5858 33.0293 92.164L29.8019 91.6862C29.5034 91.6402 29.2876 91.3924 29.2876 91.0925V89.2095C29.2876 88.9154 29.5095 88.6597 29.8019 88.6156L33.0293 88.1378C33.114 87.716 33.2269 87.2982 33.3641 86.8944L30.8145 84.8832C30.5785 84.6955 30.516 84.3735 30.6673 84.1136L31.6113 82.4864C31.7565 82.2343 32.0853 82.1206 32.3576 82.2263L35.3973 83.4098C35.6817 83.0899 35.9903 82.7841 36.313 82.5002L35.1189 79.4897C35.01 79.2098 35.1189 78.9 35.3812 78.7501L37.0231 77.8105C37.2752 77.6648 37.6181 77.7308 37.7996 77.9565L39.8308 80.485C40.2362 80.3491 40.6578 80.2373 41.0834 80.1532L41.5695 76.957C41.6139 76.6611 41.866 76.447 42.1686 76.447H44.0646C44.3672 76.447 44.6193 76.6609 44.6637 76.957L45.1458 80.1512C45.5714 80.2373 45.993 80.3491 46.4004 80.485L48.4296 77.9565C48.6131 77.7306 48.954 77.6646 49.2061 77.8105L50.8501 78.7501C51.1103 78.9 51.2212 79.2118 51.1103 79.4897L49.9162 82.5002C50.2409 82.7863 50.5495 83.0919 50.8319 83.4098L53.8696 82.2263C54.1419 82.1206 54.4667 82.2343 54.6139 82.4842L55.4893 83.9835H55.4913C55.6587 84.2695 55.5599 84.6373 55.2694 84.8033C55.1787 84.8572 55.0738 84.8852 54.9669 84.8852C54.7551 84.8852 54.5615 84.7773 54.4505 84.5974L54.4445 84.5854L53.8272 83.5317L50.8702 84.6831C50.6282 84.7773 50.3397 84.7033 50.1764 84.5012C49.775 84.0057 49.3171 83.5497 48.8128 83.1479C48.6071 82.982 48.5345 82.7061 48.6313 82.4602L49.7931 79.5319L49.0528 79.1081L47.0761 81.5689C46.9127 81.771 46.6283 81.8469 46.3843 81.755C45.7892 81.5251 45.1619 81.3592 44.5205 81.2592C44.2563 81.2192 44.0525 81.0173 44.0142 80.7555L43.5442 77.6448H42.689L42.215 80.7573C42.1767 81.0171 41.9729 81.219 41.7107 81.259C41.0693 81.359 40.442 81.5269 39.8449 81.7548C39.6009 81.8467 39.3165 81.7708 39.1531 81.5687L37.1763 79.1079L36.4361 79.5317L37.5979 82.4622C37.6947 82.7061 37.6221 82.982 37.4164 83.1479C36.9161 83.5477 36.4563 84.0035 36.0488 84.5032C35.8854 84.7009 35.599 84.7771 35.357 84.6829L32.3999 83.5315L31.9743 84.2651L34.4594 86.2242C34.6671 86.3881 34.7417 86.6639 34.6469 86.91C34.415 87.5037 34.2476 88.1254 34.1467 88.7569C34.1064 89.019 33.9026 89.2207 33.6384 89.2588L30.4978 89.7246V90.5742L33.6384 91.0419C33.9026 91.0797 34.1064 91.2818 34.1467 91.5417C34.2476 92.1754 34.415 92.7969 34.6469 93.3908C34.7417 93.6365 34.6671 93.9123 34.4594 94.0764L31.9743 96.0355L32.3999 96.7691L35.357 95.6177C35.597 95.5219 35.8854 95.5977 36.0488 95.7976C36.4563 96.2973 36.9161 96.7529 37.4144 97.1489C37.6221 97.3148 37.6947 97.5907 37.5979 97.8364L36.4361 100.765L37.1763 101.189L39.1531 98.7319C39.3144 98.53 39.6009 98.4521 39.8429 98.544C40.446 98.7721 41.0733 98.938 41.7107 99.038C41.9729 99.0779 42.1767 99.2798 42.215 99.5417L42.689 102.654H43.5442L44.0142 99.5417C44.0546 99.2798 44.2563 99.0781 44.5205 99.038C45.1539 98.94 45.7832 98.7741 46.3863 98.544C46.6303 98.4521 46.9148 98.5302 47.0761 98.7319L49.0528 101.189L49.7931 100.765L48.6313 97.8364C48.5345 97.5907 48.6071 97.3148 48.8148 97.1489C49.3171 96.7491 49.775 96.2951 50.1764 95.7996C50.3397 95.5977 50.6262 95.5217 50.8702 95.6177L53.8272 96.7691L54.2569 96.0355L51.7739 94.0764C51.5661 93.9125 51.4915 93.6367 51.5863 93.3908C51.8162 92.7991 51.9857 92.1774 52.0865 91.5417C52.1269 91.2858 52.3346 91.0797 52.5928 91.0419L55.7293 90.572V89.7246L54.7309 89.5767C54.5695 89.5527 54.4283 89.4687 54.3335 89.3388C54.2367 89.2109 54.1964 89.0529 54.2206 88.895C54.269 88.5732 54.5836 88.3411 54.9104 88.3893L56.4252 88.6152C56.7177 88.6593 56.9396 88.915 56.9396 89.2091V91.0879C56.9396 91.3878 56.7238 91.6377 56.4252 91.6818L53.202 92.1634C53.1172 92.5834 53.0043 93.001 52.8671 93.4048L55.4187 95.4178C55.6527 95.6017 55.7152 95.9335 55.566 96.1874L54.6139 97.8166C54.4687 98.0665 54.1419 98.1804 53.8696 98.0744L50.8319 96.891C50.5475 97.2109 50.2389 97.5147 49.9162 97.7986L51.1103 100.807C51.2212 101.085 51.1103 101.397 50.8501 101.547L49.2061 102.486C48.954 102.63 48.6111 102.566 48.4316 102.34L46.3984 99.8136C45.9889 99.9495 45.5694 100.061 45.1478 100.145L44.6637 103.344C44.6193 103.634 44.3632 103.854 44.0646 103.854ZM43.1126 95.5583C41.6542 95.5583 40.2847 94.9964 39.2539 93.9751C38.2212 92.9536 37.6544 91.5943 37.6544 90.1488C37.6544 88.7055 38.2232 87.3462 39.2539 86.3247C40.2847 85.3034 41.6542 84.7395 43.1126 84.7395C44.5709 84.7395 45.9425 85.3032 46.9732 86.3247C48.004 87.3462 48.5728 88.7055 48.5728 90.1488C48.5728 91.5941 48.004 92.9534 46.9732 93.9751C45.9425 94.9964 44.5729 95.5583 43.1126 95.5583ZM43.1126 85.9391C40.7748 85.9431 38.8687 87.8321 38.8646 90.149C38.8687 92.468 40.7748 94.3549 43.1126 94.3609C45.4524 94.3549 47.3585 92.4678 47.3625 90.149C47.3585 87.8321 45.4524 85.9429 43.1126 85.9391ZM52.2176 87.4703C51.9635 87.4703 51.7355 87.3104 51.6488 87.0745C51.5944 86.9246 51.6004 86.7609 51.669 86.6168C51.7376 86.471 51.8586 86.3611 52.0099 86.3069C52.0784 86.2829 52.147 86.2709 52.2176 86.2709C52.4718 86.2709 52.6997 86.4288 52.7864 86.6647C52.8409 86.8147 52.8349 86.9786 52.7663 87.1245C52.6977 87.2686 52.5767 87.3786 52.4254 87.4323C52.3588 87.4581 52.2882 87.4703 52.2176 87.4703Z" fill="#FF4D40"/>
</svg>
