<svg width="121" height="121" viewBox="0 0 121 121" fill="none" xmlns="http://www.w3.org/2000/svg">
<path d="M91.1024 101.746H75.5352C75.201 101.746 74.9312 101.477 74.9312 101.149C74.9312 100.818 75.201 100.551 75.5352 100.551H91.1024C93.0939 100.551 94.9723 99.7763 96.3936 98.3723C97.811 96.9659 98.5922 95.1059 98.5922 93.134V51.4053C98.5922 51.0747 98.8642 50.8078 99.1962 50.8078C99.5304 50.8078 99.8002 51.0747 99.8002 51.4053V93.134C99.7984 97.8803 95.8965 101.744 91.1024 101.746ZM71.5084 101.746C71.1742 101.746 70.9044 101.477 70.9044 101.149C70.9044 100.818 71.1742 100.551 71.5084 100.551C71.8404 100.551 72.1124 100.818 72.1124 101.149C72.1124 101.477 71.8404 101.746 71.5084 101.746ZM67.4817 101.746H30.1697C28.9979 101.744 27.8604 101.517 26.7893 101.065C25.7524 100.631 24.8222 100.009 24.0209 99.2168C23.2195 98.4259 22.5914 97.5037 22.1524 96.4801C21.6954 95.4186 21.4639 94.2932 21.4639 93.134V72.92C21.4639 72.5913 21.7357 72.3225 22.0679 72.3225C22.4021 72.3225 22.6719 72.5913 22.6719 72.92V93.134C22.6719 95.1057 23.4551 96.9659 24.8745 98.3723C26.296 99.7765 28.1765 100.551 30.1697 100.551H67.4817C67.8137 100.551 68.0857 100.818 68.0857 101.149C68.0857 101.459 67.8398 101.72 67.5278 101.744C67.5117 101.744 67.4978 101.746 67.4817 101.746ZM22.0679 69.534C21.7357 69.534 21.4639 69.2649 21.4639 68.9365C21.4639 68.6079 21.7357 68.339 22.0679 68.339C22.4021 68.339 22.6719 68.6079 22.6719 68.9365C22.6719 69.2649 22.4021 69.534 22.0679 69.534ZM22.0679 65.5506C21.7357 65.5506 21.4639 65.2815 21.4639 64.953V53.652C21.4639 53.4946 21.5283 53.3393 21.641 53.2297L45.709 29.4166L50.7606 24.4233C50.8733 24.3118 51.0283 24.248 51.1874 24.248H91.1026C95.8967 24.25 99.7984 28.112 99.8004 32.8583V43.4384C99.8004 43.767 99.5306 44.0359 99.1964 44.0359C98.8644 44.0359 98.5924 43.767 98.5924 43.4384V32.8583C98.5924 30.8865 97.8112 29.0262 96.3938 27.62C94.9724 26.2159 93.0939 25.4431 91.1026 25.4431H51.437L22.6719 53.8989V64.953C22.6719 65.2815 22.4021 65.5506 22.0679 65.5506ZM99.1964 48.0194C98.8644 48.0194 98.5924 47.7505 98.5924 47.4218C98.5924 47.0912 98.8644 46.8243 99.1964 46.8243C99.5306 46.8243 99.8004 47.0912 99.8004 47.4218C99.8004 47.7505 99.5306 48.0194 99.1964 48.0194Z" fill="white"/>
<path d="M22.0679 44.7131C21.9873 44.7131 21.9108 44.6991 21.8363 44.6673C21.6108 44.5757 21.4639 44.3586 21.4639 44.1156V32.8583C21.4639 31.7011 21.6954 30.5738 22.1524 29.5122C22.5914 28.4884 23.2195 27.5683 24.0209 26.7756C24.8222 25.9848 25.7524 25.3614 26.7872 24.9272C27.8604 24.4771 28.9979 24.248 30.1697 24.248H41.5494C41.795 24.248 42.0124 24.3915 42.1071 24.6165C42.2017 24.8396 42.1493 25.0965 41.9762 25.2678L41.7809 25.461C41.7708 25.473 41.7587 25.4849 41.7467 25.4969L22.4947 44.5378C22.382 44.6513 22.229 44.7131 22.0679 44.7131ZM30.1697 25.4411C28.1765 25.4431 26.296 26.2159 24.8745 27.62C23.4551 29.0262 22.6719 30.8865 22.6719 32.8583V42.6735L40.0937 25.4411H30.1697Z" fill="white"/>
<path d="M60.6368 82.9521C60.4757 82.9521 60.3225 82.8902 60.2099 82.7768L49.5128 72.1926C49.3981 72.0792 49.3357 71.9299 49.3357 71.7703C49.3357 71.611 49.3981 71.4596 49.5128 71.3483C49.7404 71.121 50.137 71.121 50.3665 71.3483L60.6368 81.5081L79.3451 62.9969L60.6368 44.4858L41.9264 62.9969L44.6727 65.7139C44.7854 65.8272 44.8499 65.9766 44.8499 66.1359C44.8499 66.2954 44.7854 66.4448 44.6727 66.5582C44.4432 66.7832 44.0465 66.7854 43.817 66.5582L40.6459 63.4192C40.5312 63.3077 40.4688 63.1563 40.4688 62.9969C40.4688 62.8376 40.5312 62.6882 40.6459 62.5747L60.2099 43.2191C60.4334 42.996 60.8381 42.996 61.0636 43.2191L80.6276 62.5747C80.8632 62.8077 80.8632 63.1862 80.6276 63.4192L61.0636 82.7768C60.9488 82.8902 60.7978 82.9521 60.6368 82.9521ZM47.0928 69.5497C46.9297 69.5497 46.7787 69.4878 46.6659 69.3765C46.4304 69.1434 46.4304 68.763 46.6659 68.53C46.8934 68.3049 47.2901 68.3049 47.5196 68.53C47.7552 68.763 47.7552 69.1434 47.5196 69.3765C47.4048 69.4878 47.2538 69.5497 47.0928 69.5497Z" fill="#FF4D40"/>
<path d="M50.8495 80.3595C50.7448 80.3595 50.6422 80.3317 50.5495 80.2801C50.4106 80.2004 50.3099 80.0707 50.2677 79.9176L46.3537 65.4636C46.3134 65.3102 46.3335 65.1489 46.4141 65.0115C46.4946 64.872 46.6255 64.7744 46.7805 64.7326C46.8328 64.7189 46.8852 64.7127 46.9375 64.7127C47.2114 64.7127 47.4509 64.8939 47.5214 65.1549L51.2784 79.0293L76.8423 72.2532L69.9948 46.9662L44.4309 53.742L45.4376 57.4586C45.4496 57.5084 45.4577 57.5582 45.4577 57.608C45.4597 57.8809 45.2765 58.1199 45.0107 58.1916C44.9584 58.2055 44.906 58.2115 44.8537 58.2115C44.5799 58.2115 44.3403 58.0302 44.2698 57.7693L43.1061 53.4732C43.0658 53.3198 43.0859 53.1585 43.1665 53.019C43.247 52.8816 43.3779 52.782 43.5349 52.7422L70.2646 45.6576C70.3171 45.6437 70.3695 45.6377 70.4216 45.6377C70.6936 45.6377 70.933 45.8189 71.0037 46.0799L78.1651 72.5201C78.2073 72.6734 78.1854 72.8348 78.1047 72.974C78.0241 73.1114 77.8933 73.211 77.7382 73.251L51.0086 80.3396C50.9562 80.3514 50.9039 80.3595 50.8495 80.3595ZM45.8966 62.0595C45.6228 62.0595 45.3832 61.8783 45.3127 61.6174C45.2262 61.2987 45.4174 60.97 45.7396 60.8844C46.0557 60.8007 46.3939 60.9959 46.4785 61.3066C46.5651 61.6253 46.3738 61.954 46.0516 62.0396C46.0013 62.0535 45.949 62.0595 45.8966 62.0595Z" fill="#FF4D40"/>
<path d="M60.6366 70.5749C60.4755 70.5749 60.3223 70.5132 60.2097 70.3996L53.1508 63.4186C53.036 63.3071 52.9736 63.1577 52.9736 62.9964C52.9736 62.837 53.036 62.6877 53.1508 62.5741L60.2097 55.5951C60.4372 55.368 60.8359 55.368 61.0634 55.5951L68.1161 62.5741C68.229 62.6877 68.2932 62.837 68.2932 62.9964C68.2932 63.1557 68.229 63.3073 68.1161 63.4186L61.0634 70.3996C60.9486 70.5134 60.7976 70.5749 60.6366 70.5749ZM54.4313 62.9966L60.6366 69.1333L66.8335 62.9966L60.6366 56.862L54.4313 62.9966Z" fill="#FF4D40"/>
<path d="M19.7105 51.8163C19.5494 51.8163 19.3984 51.7546 19.2836 51.641C19.1689 51.5295 19.1064 51.3801 19.1064 51.2188C19.1064 51.0594 19.1689 50.9101 19.2836 50.7965L40.6637 29.6463C40.8932 29.4213 41.2899 29.4213 41.5194 29.6463C41.755 29.8794 41.755 30.2578 41.5194 30.4908L20.1373 51.641C20.0245 51.7546 19.8715 51.8163 19.7105 51.8163Z" fill="#FF4D40"/>
<path d="M11.6028 59.8357C11.4417 59.8357 11.2907 59.7739 11.1759 59.6604C11.0129 59.4991 10.9565 59.2541 11.035 59.039L13.6967 51.6337C13.7269 51.5521 13.7772 51.4724 13.8376 51.4126L17.2382 48.0486C17.4295 47.8594 17.7416 47.8216 17.9711 47.957C18.0154 47.9829 18.0557 48.0128 18.0919 48.0486C18.2067 48.1621 18.2691 48.3115 18.2691 48.4709C18.2691 48.6302 18.2067 48.7816 18.0919 48.8931L14.788 52.1615L12.5994 58.2542L18.7583 56.0813L45.2826 29.8382L41.3203 25.9145L23.7878 43.2605C23.5582 43.4856 23.1616 43.4856 22.9321 43.2605C22.6965 43.0275 22.6965 42.649 22.9321 42.416L40.8934 24.6478C41.1189 24.4247 41.5236 24.4247 41.7471 24.6478L46.5651 29.416C46.6779 29.5295 46.7403 29.6789 46.7403 29.8382C46.7403 29.9976 46.6779 30.1469 46.5631 30.2605L19.5154 57.0214C19.453 57.0831 19.3744 57.1309 19.2919 57.1608L11.8061 59.8018C11.7417 59.8237 11.6733 59.8357 11.6028 59.8357ZM20.512 46.2521C20.3509 46.2521 20.1999 46.1903 20.0852 46.0768C19.8496 45.8438 19.8496 45.4653 20.0852 45.2323C20.3127 45.0053 20.7113 45.0072 20.9388 45.2323C21.1744 45.4653 21.1744 45.8438 20.9388 46.0768C20.8261 46.1903 20.6731 46.2521 20.512 46.2521Z" fill="#FF4D40"/>
<path d="M46.1358 30.4363C45.9748 30.4363 45.8238 30.3746 45.709 30.261L40.893 25.4928C40.7782 25.3793 40.7158 25.2299 40.7158 25.0706C40.7158 24.9113 40.7802 24.7599 40.893 24.6483L42.8883 22.6805C43.1178 22.4555 43.5144 22.4555 43.7419 22.6805L48.5579 27.4447C48.6727 27.5583 48.7351 27.7076 48.7351 27.869C48.7351 28.0283 48.6727 28.1777 48.5579 28.2912L46.5627 30.261C46.4499 30.3746 46.2969 30.4363 46.1358 30.4363ZM42.1755 25.0726L46.1379 28.9943L47.2774 27.867L43.3151 23.9473L42.1755 25.0726Z" fill="#FF4D40"/>
<path d="M48.1314 28.4646C47.9704 28.4646 47.8194 28.4028 47.7046 28.2913L42.8886 23.5271C42.653 23.294 42.653 22.9136 42.8886 22.6806L47.2033 18.4063C47.463 18.1494 47.8234 18 48.1938 18H48.1979C48.5663 18 48.9267 18.1494 49.1885 18.4063L52.5689 21.7524C52.9132 22.095 53.1025 22.5511 53.1025 23.0371C53.1025 23.5231 52.9132 23.9812 52.5669 24.3257L48.5583 28.2913C48.4455 28.4028 48.2925 28.4646 48.1314 28.4646ZM44.1691 23.1028L48.1314 27.0225L51.7112 23.4812C51.83 23.3637 51.8944 23.2064 51.8944 23.0371C51.8944 22.8678 51.83 22.7104 51.7132 22.5949L48.3328 19.2528C48.2965 19.215 48.2502 19.197 48.1959 19.197C48.1415 19.197 48.0932 19.215 48.0569 19.2508L44.1691 23.1028Z" fill="#FF4D40"/>
<path d="M11.6048 59.8348C11.4457 59.8348 11.2887 59.771 11.1759 59.6595C11.0129 59.4962 10.9565 59.2532 11.035 59.0361L13.6967 51.6348C13.7249 51.5532 13.7772 51.4735 13.8396 51.4137L16.602 48.6791C16.8315 48.452 17.2282 48.452 17.4557 48.6791L22.2797 53.4453C22.3925 53.5588 22.4569 53.7082 22.4569 53.8695C22.4569 54.0289 22.3925 54.1783 22.2797 54.2918L19.5154 57.0224C19.453 57.0842 19.3744 57.132 19.2919 57.1619L11.8061 59.7989C11.7417 59.8228 11.6733 59.8348 11.6048 59.8348ZM14.79 52.1626L12.5994 58.2513L18.7583 56.0823L20.9972 53.8695L17.0288 49.9458L14.79 52.1626Z" fill="#FF4D40"/>
<path d="M93.4166 88.6853H27.8569C27.5227 88.6853 27.2529 88.4164 27.2529 88.0878C27.2529 87.7573 27.5227 87.4902 27.8569 87.4902H93.4166C93.7488 87.4902 94.0206 87.7573 94.0206 88.0878C94.0206 88.4166 93.7488 88.6853 93.4166 88.6853Z" fill="white"/>
<path d="M93.4166 93.4538H27.8569C27.5227 93.4538 27.2529 93.1869 27.2529 92.8563C27.2529 92.5279 27.5227 92.2588 27.8569 92.2588H93.4166C93.7488 92.2588 94.0206 92.5279 94.0206 92.8563C94.0206 93.1869 93.7488 93.4538 93.4166 93.4538Z" fill="white"/>
<path d="M97.8704 98.1214C97.6711 98.1214 97.4859 98.0258 97.3731 97.8645C97.2322 97.6631 97.2302 97.4004 97.3651 97.1971C98.1684 95.9861 98.5932 94.5799 98.5932 93.1341V78.4292C98.5932 78.0986 98.8652 77.8317 99.1972 77.8317C99.5315 77.8317 99.8012 78.0986 99.8012 78.4292V93.1341C99.8012 94.2973 99.5699 95.4286 99.1107 96.4962C101.849 95.3051 103.617 92.6402 103.615 89.7024V50.1785C103.615 49.8499 103.884 49.581 104.219 49.581C104.551 49.581 104.821 49.8499 104.821 50.1785V89.7024C104.821 90.7042 104.645 91.6881 104.301 92.6243C103.969 93.5285 103.488 94.369 102.87 95.1199C101.629 96.6276 99.9019 97.6872 98.0013 98.1075C97.959 98.1175 97.9145 98.1214 97.8704 98.1214ZM99.1972 75.0411C98.8652 75.0411 98.5932 74.7742 98.5932 74.4436C98.5932 74.1151 98.8652 73.846 99.1972 73.846C99.5315 73.846 99.8012 74.1151 99.8012 74.4436C99.8012 74.7742 99.5315 75.0411 99.1972 75.0411ZM99.1972 71.0598C98.8652 71.0598 98.5932 70.7907 98.5932 70.4601V32.8584C98.5932 30.8866 97.812 29.0263 96.3946 27.6202C94.9752 26.216 93.0967 25.4432 91.1034 25.4432H71.3643C71.0323 25.4432 70.7603 25.1743 70.7603 24.8457C70.7603 24.5151 71.0323 24.2482 71.3643 24.2482H91.1034C95.8975 24.2501 99.7992 28.1121 99.8012 32.8584V70.4583C99.8012 70.4603 99.8012 70.4603 99.8012 70.4603C99.8012 70.7907 99.5315 71.0598 99.1972 71.0598ZM104.219 46.7926C103.884 46.7926 103.615 46.5257 103.615 46.195C103.615 45.8664 103.884 45.5975 104.219 45.5975C104.551 45.5975 104.821 45.8664 104.821 46.195C104.821 46.5257 104.551 46.7926 104.219 46.7926ZM104.219 42.8091C103.884 42.8091 103.615 42.5422 103.615 42.2116V29.4247C103.613 27.4529 102.831 25.5946 101.41 24.1884C99.9885 22.7842 98.108 22.0114 96.1168 22.0095H56.4512L54.1901 24.2482H63.3105C63.6427 24.2482 63.9146 24.5151 63.9146 24.8457C63.9146 25.1743 63.6427 25.4432 63.3105 25.4432H52.7322C52.4866 25.4432 52.2672 25.2978 52.1745 25.0727C52.0799 24.8497 52.1323 24.5947 52.3054 24.4214L55.7745 20.9897C55.8852 20.8781 56.0422 20.8164 56.2013 20.8164H96.1166C97.2863 20.8164 98.4239 21.0455 99.497 21.4956C100.532 21.9298 101.464 22.5512 102.265 23.3439C103.065 24.1346 103.695 25.0548 104.134 26.0806C104.589 27.1402 104.82 28.2655 104.82 29.4247L104.822 42.2116C104.823 42.5422 104.551 42.8091 104.219 42.8091ZM67.3373 25.4432C67.0053 25.4432 66.7333 25.1743 66.7333 24.8457C66.7333 24.5151 67.0053 24.2482 67.3373 24.2482C67.6695 24.2482 67.9413 24.5151 67.9413 24.8457C67.9413 25.1743 67.6697 25.4432 67.3373 25.4432Z" fill="white"/>
</svg>
