<svg width="121" height="121" viewBox="0 0 121 121" fill="none" xmlns="http://www.w3.org/2000/svg">
<path d="M94.6604 93.0705H33.3907C33.2369 93.0705 33.085 93.0101 32.978 92.901C32.8689 92.7918 32.8066 92.642 32.8066 92.4881V85.6119C32.8066 85.2904 33.0695 85.0273 33.3907 85.0273C33.7119 85.0273 33.9747 85.2904 33.9747 85.6119V91.9035H94.0764V65.3573V65.3554C94.0784 65.0339 94.3392 64.7728 94.6604 64.7728C94.9815 64.7728 95.2445 65.0358 95.2445 65.3573V92.4881C95.2445 92.644 95.1822 92.7901 95.0732 92.901C94.9622 93.0103 94.8162 93.0705 94.6604 93.0705ZM33.3907 82.2994C33.0695 82.2994 32.8066 82.0381 32.8066 81.7149C32.8066 81.3934 33.0695 81.1303 33.3907 81.1303C33.7119 81.1303 33.9747 81.3934 33.9747 81.7149C33.9747 82.0381 33.7119 82.2994 33.3907 82.2994ZM33.3907 78.4025C33.0695 78.4025 32.8066 78.1412 32.8066 77.8179V21.5845C32.8066 21.4306 32.8689 21.2786 32.978 21.1695C33.087 21.0624 33.2369 21 33.3907 21H45.3421C45.6633 21 45.9261 21.2611 45.9261 21.5845C45.9261 21.906 45.6633 22.1691 45.3421 22.1691H33.9747V77.8179C33.9747 78.1412 33.7119 78.4025 33.3907 78.4025ZM94.6604 62.0566C94.3373 62.0566 94.0764 61.7935 94.0764 61.472C94.0764 61.4701 94.0764 61.4701 94.0764 61.4681C94.0784 61.1466 94.3392 60.8875 94.6604 60.8875C94.9815 60.8875 95.2445 61.1486 95.2445 61.472C95.2445 61.7935 94.9815 62.0566 94.6604 62.0566ZM94.6604 58.1694C94.3373 58.1694 94.0764 57.9063 94.0764 57.5848V37.8798L78.3832 22.1691H53.1293C52.8081 22.1691 52.5453 21.906 52.5453 21.5845C52.5453 21.2611 52.8081 21 53.1293 21H78.6266C78.7804 21 78.9305 21.0624 79.0393 21.1715L95.0732 37.2231C95.1822 37.3342 95.2445 37.4803 95.2445 37.6362V57.5848C95.2445 57.9063 94.9815 58.1694 94.6604 58.1694ZM49.2357 22.1691C48.9145 22.1691 48.6517 21.906 48.6517 21.5845C48.6517 21.2611 48.9145 21 49.2357 21C49.5589 21 49.8197 21.2611 49.8197 21.5845C49.8197 21.906 49.5589 22.1691 49.2357 22.1691Z" fill="white"/>
<path d="M94.6609 38.2207H78.627C78.4732 38.2207 78.3216 38.1584 78.2143 38.0512C78.1053 37.9421 78.043 37.7901 78.043 37.6362V21.5845C78.043 21.3468 78.1831 21.1344 78.4033 21.0448C78.6175 20.9552 78.8744 21.0058 79.0399 21.1714L95.0738 37.2231C95.241 37.3907 95.2897 37.642 95.2001 37.8602C95.1086 38.0804 94.8964 38.2207 94.6609 38.2207ZM79.2111 37.0516H93.2514L79.2111 22.9952V37.0516Z" fill="white"/>
<path d="M90.3519 96.5746H29.084C28.9302 96.5746 28.7784 96.5122 28.6694 96.4031C28.5623 96.2959 28.5 96.144 28.5 95.99V89.1158C28.5 88.7923 28.7609 88.5312 29.084 88.5312C29.4053 88.5312 29.6681 88.7923 29.6681 89.1158V95.4055H89.7678V93.0731H57.4042C57.083 93.0731 56.8201 92.8099 56.8201 92.4886C56.8201 92.1651 57.083 91.9041 57.4042 91.9041H90.3519C90.5056 91.9041 90.6573 91.9662 90.7646 92.0755C90.8736 92.1827 90.9359 92.3325 90.9359 92.4886V95.99C90.9359 96.1479 90.8754 96.294 90.7646 96.4031C90.6536 96.514 90.5076 96.5746 90.3519 96.5746ZM53.5106 93.0731C53.1893 93.0731 52.9265 92.8099 52.9265 92.4886C52.9265 92.1651 53.1893 91.9041 53.5106 91.9041C53.8337 91.9041 54.0946 92.1651 54.0946 92.4886C54.0946 92.8101 53.8337 93.0731 53.5106 93.0731ZM49.617 93.0731H33.3904C33.2366 93.0731 33.0867 93.0108 32.9776 92.9015C32.8686 92.7924 32.8063 92.6425 32.8063 92.4886V40.5322C32.8063 40.2087 33.0691 39.9476 33.3904 39.9476C33.7116 39.9476 33.9744 40.2087 33.9744 40.5322V91.9041H49.617C49.9382 91.9041 50.201 92.1651 50.201 92.4886C50.201 92.8101 49.9382 93.0731 49.617 93.0731ZM29.084 85.8033C28.7609 85.8033 28.5 85.5403 28.5 85.2188C28.5 84.8953 28.7609 84.6342 29.084 84.6342C29.4053 84.6342 29.6681 84.8953 29.6681 85.2188C29.6681 85.5403 29.4053 85.8033 29.084 85.8033ZM29.084 81.9064C28.7609 81.9064 28.5 81.6433 28.5 81.3218V25.0865C28.5 24.9326 28.5623 24.7825 28.6694 24.6734C28.7784 24.5643 28.9302 24.502 29.084 24.502H33.3904C33.5442 24.502 33.6941 24.5643 33.8031 24.6734C33.9121 24.7825 33.9744 24.9326 33.9744 25.0865V32.7382C33.9744 33.0597 33.7116 33.3228 33.3904 33.3228C33.0691 33.3228 32.8063 33.0597 32.8063 32.7382V25.671H29.6681V81.3199C29.6681 81.3199 29.6681 81.3199 29.6681 81.3218C29.6681 81.6433 29.4053 81.9064 29.084 81.9064ZM33.3904 37.2197C33.0691 37.2197 32.8063 36.9567 32.8063 36.6352C32.8063 36.3137 33.0691 36.0506 33.3904 36.0506C33.7116 36.0506 33.9744 36.3137 33.9744 36.6352C33.9744 36.9567 33.7116 37.2197 33.3904 37.2197Z" fill="white"/>
<path d="M86.8536 99.5375H25.584C25.4302 99.5375 25.2803 99.4751 25.1713 99.368C25.0623 99.2588 25 99.1068 25 98.9529V92.0787C25 91.7573 25.2628 91.4941 25.584 91.4941C25.9053 91.4941 26.1681 91.7573 26.1681 92.0787V98.3684H86.2698V96.5738H53.3649C53.0437 96.5738 52.7828 96.3127 52.7828 95.9893C52.7828 95.6678 53.0437 95.4047 53.3649 95.4047H86.8538C87.0076 95.4047 87.1577 95.4671 87.2665 95.5762C87.3757 95.6853 87.4378 95.8353 87.4378 95.9893V98.9529C87.4378 99.1088 87.3775 99.2569 87.2665 99.368C87.1556 99.4769 87.0095 99.5375 86.8536 99.5375ZM49.4713 96.5738C49.1501 96.5738 48.8892 96.3127 48.8892 95.9893C48.8892 95.6678 49.1501 95.4047 49.4713 95.4047C49.7945 95.4047 50.0573 95.6678 50.0573 95.9893C50.0573 96.3127 49.7945 96.5738 49.4713 96.5738ZM45.5777 96.5738H29.0844C28.9306 96.5738 28.7787 96.5115 28.6717 96.4024C28.5626 96.293 28.5004 96.1432 28.5004 95.9893V44.3017C28.5004 43.9802 28.7612 43.7172 29.0844 43.7172C29.4056 43.7172 29.6684 43.9802 29.6684 44.3017V95.4047L45.5777 95.4067C45.9009 95.4067 46.1617 95.6678 46.1617 95.9893C46.1617 96.3127 45.9009 96.5738 45.5777 96.5738ZM25.584 88.7662C25.2628 88.7662 25 88.5032 25 88.1817C25 87.8604 25.2628 87.5971 25.584 87.5971C25.9053 87.5971 26.1681 87.8604 26.1681 88.1817C26.1681 88.5032 25.9053 88.7662 25.584 88.7662ZM25.584 84.8692C25.2628 84.8692 25 84.6082 25 84.2847V28.0494C25 27.8955 25.0623 27.7454 25.1713 27.6363C25.2803 27.5272 25.4302 27.4648 25.584 27.4648H29.0844C29.2362 27.4648 29.3881 27.5272 29.4971 27.6363C29.6061 27.7454 29.6684 27.8955 29.6684 28.0494V36.5078C29.6684 36.8312 29.4056 37.0923 29.0844 37.0923C28.7612 37.0923 28.5004 36.8312 28.5004 36.5078V28.6339H26.1681V84.2828V84.2847C26.1681 84.6082 25.9053 84.8692 25.584 84.8692ZM29.0844 40.9893C28.7612 40.9893 28.5004 40.7282 28.5004 40.4048C28.5004 40.0833 28.7612 39.8202 29.0844 39.8202C29.4056 39.8202 29.6684 40.0833 29.6684 40.4048C29.6684 40.7282 29.4056 40.9893 29.0844 40.9893Z" fill="white"/>
<path d="M64.0275 85.1911H64.0256C61.3176 85.1911 58.6933 84.6533 56.2228 83.5914C55.9269 83.4647 55.7887 83.1198 55.9172 82.8237C56.0087 82.6076 56.2189 82.4692 56.4545 82.4692C56.5324 82.4692 56.6102 82.4846 56.6842 82.518C59.0067 83.5154 61.4772 84.0222 64.0275 84.0222C68.9997 84.0222 73.6761 82.0834 77.194 78.5645C80.7099 75.0453 82.647 70.365 82.647 65.3886C82.647 60.412 80.7099 55.7319 77.194 52.211C73.6761 48.692 68.9997 46.7533 64.0275 46.7533C59.0554 46.7533 54.3813 48.692 50.8633 52.211C47.3454 55.7319 45.4103 60.4122 45.4103 65.3886C45.4103 70.1877 47.2286 74.747 50.5323 78.2252C50.6374 78.3344 50.6939 78.4785 50.6939 78.6284C50.6939 78.7901 50.6296 78.9403 50.5109 79.0514C50.2851 79.2675 49.9015 79.2579 49.6854 79.0317C46.1754 75.3354 44.2402 70.4895 44.2422 65.3884C44.2422 62.7151 44.7639 60.1216 45.7957 57.6802C46.7925 55.3206 48.2195 53.2026 50.0378 51.3846C51.8542 49.5667 53.9704 48.1384 56.326 47.1408C58.7653 46.1081 61.3565 45.584 64.0275 45.584C66.6988 45.584 69.2898 46.1081 71.7293 47.1408C74.0869 48.1384 76.2028 49.5667 78.0194 51.3846C79.8358 53.2026 81.2628 55.3206 82.2595 57.6802C83.2914 60.1216 83.815 62.7151 83.815 65.3884C83.815 68.0617 83.2914 70.655 82.2595 73.0966C81.2628 75.4545 79.8358 77.5723 78.0194 79.3902C76.203 81.2101 74.0871 82.6384 71.7293 83.634C69.2899 84.6669 66.6988 85.1911 64.0275 85.1911ZM53.0575 81.7481C52.9368 81.7481 52.8219 81.7111 52.7227 81.6429C52.5961 81.5533 52.5105 81.4206 52.4832 81.2649C52.454 81.1129 52.489 80.957 52.5786 80.8284C52.6876 80.6725 52.8667 80.5792 53.0575 80.5792C53.1782 80.5792 53.2931 80.616 53.3904 80.6844C53.6552 80.8674 53.7214 81.2337 53.5364 81.4989C53.4274 81.6546 53.2483 81.7481 53.0575 81.7481Z" fill="#141517"/>
<path d="M69.0303 73.5566C68.9273 73.5566 68.8259 73.5291 68.7364 73.4767C68.5553 73.3695 68.4463 73.1804 68.4463 72.9721V70.098C68.4463 69.8876 68.5592 69.6927 68.7424 69.5895L76.1558 65.3885L68.7424 61.1876C68.5594 61.0843 68.4463 60.8895 68.4463 60.679V57.805C68.4463 57.5946 68.5534 57.4056 68.7364 57.3004C68.9135 57.1971 69.1394 57.1951 69.3165 57.2965L80.1699 63.442C80.3527 63.5453 80.4658 63.7421 80.4658 63.9506V66.8246C80.4658 67.0348 80.3529 67.2297 80.1699 67.3329L69.3165 73.4804C69.2289 73.5291 69.1294 73.5566 69.0303 73.5566ZM69.6144 70.439V71.9686L79.2978 66.4838V64.2917L69.6144 58.8067V60.3383L77.6294 64.8802C77.8124 64.9834 77.9255 65.1783 77.9255 65.3887C77.9255 65.597 77.8126 65.7919 77.6294 65.8971L69.6144 70.439Z" fill="#141517"/>
<path d="M59.0263 73.5566C58.9251 73.5566 58.8258 73.5291 58.7382 73.4804L47.8867 67.3329C47.7037 67.2297 47.5889 67.0348 47.5889 66.8246V63.9506C47.5889 63.7399 47.7037 63.5451 47.8867 63.442L58.7382 57.2965C58.9154 57.1951 59.1431 57.1971 59.3203 57.3004C59.5013 57.4056 59.6104 57.5946 59.6104 57.805V60.679C59.6104 60.8875 59.4955 61.0843 59.3145 61.1876L51.8991 65.3885L59.3145 69.5895C59.4955 69.6927 59.6104 69.8876 59.6104 70.098V72.9721C59.6104 73.1804 59.5013 73.3695 59.3203 73.4767C59.2307 73.5291 59.1276 73.5566 59.0263 73.5566ZM48.7569 66.4836L58.4423 71.9684V70.4388L50.4273 65.8967C50.2443 65.7915 50.1314 65.5966 50.1314 65.3883C50.1314 65.1779 50.2443 64.9831 50.4273 64.8798L58.4423 60.3379V58.8083L48.7569 64.2915V66.4836Z" fill="#141517"/>
<path d="M60.1925 76.6157C60.1244 76.6157 60.0582 76.6038 59.994 76.5804C59.8479 76.5278 59.7292 76.4209 59.663 76.2784C59.5968 76.1381 59.589 75.9784 59.6435 75.8322L67.3139 54.5469C67.3976 54.3151 67.6176 54.1611 67.8647 54.1611C67.9311 54.1611 67.9972 54.1728 68.0615 54.1962C68.3652 54.3053 68.5229 54.6405 68.4139 54.9444L60.7415 76.2278C60.6578 76.4596 60.4378 76.6157 60.1925 76.6157Z" fill="#141517"/>
</svg>
