<svg width="108" height="106" viewBox="0 0 108 106" fill="none" xmlns="http://www.w3.org/2000/svg">
<path d="M93.5694 105.906H83.9485C83.5472 105.906 83.2219 105.578 83.2219 105.174C83.2219 104.77 83.5472 104.443 83.9485 104.443H93.5694C96.045 104.443 98.0588 102.415 98.0588 99.9213V95.4H1.45288V99.9213C1.45288 102.415 3.46982 104.443 5.94885 104.443H71.8389C72.2402 104.443 72.5654 104.77 72.5654 105.174C72.5654 105.578 72.2402 105.906 71.8389 105.906H5.9491C2.66867 105.906 0 103.221 0 99.9213V94.6688C0 94.2649 0.325258 93.9375 0.726563 93.9375H98.7854C99.1867 93.9375 99.5119 94.2649 99.5119 94.6688V99.9213C99.5119 103.221 96.8462 105.906 93.5694 105.906Z" fill="white"/>
<path d="M91.6635 95.4H7.85547C7.45416 95.4 7.12891 95.0726 7.12891 94.6687V94.5505C7.12891 94.1466 7.45416 93.8193 7.85547 93.8193C8.00175 93.8193 8.13786 93.8629 8.25193 93.9375H90.9372V82.9656L80.1267 82.9658L72.5077 87.724C72.2839 87.8642 72.0022 87.8708 71.7712 87.7418C71.5409 87.6126 71.398 87.3682 71.398 87.1027V83.1886C71.398 82.7847 71.7232 82.4573 72.1245 82.4573C72.5258 82.4573 72.8511 82.7847 72.8511 83.1886V85.7882L79.5364 81.613C79.6517 81.5411 79.7842 81.5031 79.9196 81.5031H91.4354L91.6427 81.4967C91.8376 81.4906 92.029 81.5655 92.1702 81.7034C92.3109 81.8409 92.3903 82.0303 92.3903 82.2277V94.6685C92.3901 95.0726 92.065 95.4 91.6635 95.4ZM7.85547 83.094C7.45416 83.094 7.12891 82.7667 7.12891 82.3628V44.8367C7.12891 44.4328 7.45416 44.1055 7.85547 44.1055H91.6635C92.0648 44.1055 92.3901 44.4328 92.3901 44.8367V59.0478C92.3901 59.4517 92.0648 59.7791 91.6635 59.7791H82.3998C80.7285 59.7791 79.2909 60.9832 78.9816 62.6424C78.9172 62.9881 78.6171 63.2386 78.2676 63.2386H71.0734C69.156 63.2386 67.5964 64.8072 67.5964 66.735V74.4728C67.5964 74.8767 67.2711 75.2041 66.8698 75.2041C66.4685 75.2041 66.1432 74.8767 66.1432 74.4728V66.735C66.1432 64.0006 68.3549 61.7761 71.0734 61.7761H77.7028C78.3478 59.7391 80.2354 58.3166 82.4001 58.3166H90.9372V45.568H8.58203V82.363C8.58203 82.7667 8.25677 83.094 7.85547 83.094Z" fill="white"/>
<path d="M87.2505 95.4002H25.648C25.2467 95.4002 24.9214 95.0728 24.9214 94.6689C24.9214 94.265 25.2467 93.9377 25.648 93.9377H86.524V82.966H80.1268L72.5078 87.7242C72.2841 87.8644 72.0024 87.8712 71.7714 87.7418C71.541 87.6129 71.3981 87.3684 71.3981 87.1029V82.9658H71.0736C68.3548 82.9658 66.1434 80.7411 66.1434 78.0064V66.7349C66.1434 64.0006 68.3551 61.7761 71.0736 61.7761H71.4204C71.8217 61.7761 72.147 62.1034 72.147 62.5073C72.147 62.9112 71.8217 63.2386 71.4204 63.2386H71.0736C69.1562 63.2386 67.5965 64.8071 67.5965 66.7349V78.0064C67.5965 79.9345 69.1562 81.5033 71.0736 81.5033H72.1247C72.526 81.5033 72.8513 81.8306 72.8513 82.2345V85.7884L79.5366 81.6132C79.6519 81.5413 79.7844 81.5033 79.9197 81.5033H87.2508C87.6521 81.5033 87.9773 81.8306 87.9773 82.2345V94.6687C87.9771 95.0728 87.6518 95.4002 87.2505 95.4002ZM13.5386 95.4002H12.2686C11.8672 95.4002 11.542 95.0728 11.542 94.6689V49.5379C11.542 49.134 11.8672 48.8066 12.2686 48.8066H87.2505C87.6518 48.8066 87.9771 49.134 87.9771 49.5379V59.048C87.9771 59.4519 87.6518 59.7793 87.2505 59.7793H82.4C82.244 59.7795 82.0864 59.7903 81.9326 59.8112C81.5356 59.8656 81.169 59.585 81.1149 59.185C81.0609 58.7845 81.3397 58.4165 81.7371 58.3621C81.9549 58.3324 82.1774 58.317 82.3988 58.3168H86.5235V50.2691H12.9951V93.9377H13.5386C13.9399 93.9377 14.2651 94.265 14.2651 94.6689C14.2651 95.0728 13.9399 95.4002 13.5386 95.4002Z" fill="white"/>
<path d="M51.1559 68.7477H19.749C19.3477 68.7477 19.0225 68.4203 19.0225 68.0164C19.0225 67.6125 19.3477 67.2852 19.749 67.2852H51.1559C51.5572 67.2852 51.8825 67.6125 51.8825 68.0164C51.8825 68.4203 51.5572 68.7477 51.1559 68.7477Z" fill="white"/>
<path d="M51.1561 72.277H35.4492C35.0479 72.277 34.7227 71.9496 34.7227 71.5457C34.7227 71.1418 35.0479 70.8145 35.4492 70.8145H51.1561C51.5574 70.8145 51.8826 71.1418 51.8826 71.5457C51.8826 71.9496 51.5574 72.277 51.1561 72.277Z" fill="white"/>
<path d="M40.3844 75.8014H19.749C19.3477 75.8014 19.0225 75.474 19.0225 75.0701C19.0225 74.6662 19.3477 74.3389 19.749 74.3389H40.3844C40.7857 74.3389 41.1109 74.6662 41.1109 75.0701C41.1109 75.474 40.7857 75.8014 40.3844 75.8014Z" fill="white"/>
<path d="M51.1559 79.3268H19.749C19.3477 79.3268 19.0225 78.9994 19.0225 78.5955C19.0225 78.1916 19.3477 77.8643 19.749 77.8643H51.1559C51.5572 77.8643 51.8825 78.1916 51.8825 78.5955C51.8825 78.9994 51.5572 79.3268 51.1559 79.3268Z" fill="white"/>
<path d="M51.1558 82.8541H24.0313C23.6299 82.8541 23.3047 82.5267 23.3047 82.1228C23.3047 81.719 23.6299 81.3916 24.0313 81.3916H51.1558C51.5571 81.3916 51.8823 81.719 51.8823 82.1228C51.8823 82.5267 51.5571 82.8541 51.1558 82.8541Z" fill="white"/>
<path d="M40.3844 86.3795H19.749C19.3477 86.3795 19.0225 86.0521 19.0225 85.6482C19.0225 85.2443 19.3477 84.917 19.749 84.917H40.3844C40.7857 84.917 41.1109 85.2443 41.1109 85.6482C41.1109 86.0521 40.7857 86.3795 40.3844 86.3795Z" fill="white"/>
<path d="M51.1559 89.9078H19.749C19.3477 89.9078 19.0225 89.5805 19.0225 89.1766C19.0225 88.7727 19.3477 88.4453 19.749 88.4453H51.1559C51.5572 88.4453 51.8825 88.7727 51.8825 89.1766C51.8825 89.5805 51.5572 89.9078 51.1559 89.9078Z" fill="white"/>
<path d="M49.0088 30.4373C42.1324 30.4373 36.5381 24.8055 36.5381 17.8827C36.5381 10.96 42.1324 5.32812 49.0088 5.32812C55.8886 5.32812 61.4858 10.96 61.4858 17.8827C61.4858 24.8055 55.8886 30.4373 49.0088 30.4373ZM49.0088 6.79087C42.9338 6.79087 37.9912 11.7668 37.9912 17.883C37.9912 23.9991 42.9338 28.975 49.0088 28.975C55.0875 28.975 60.0327 23.9991 60.0327 17.883C60.0327 11.7668 55.0875 6.79087 49.0088 6.79087Z" fill="#FF4D40"/>
<path d="M59.9955 15.628C56.5754 15.628 53.3848 14.2604 51.0116 11.777C50.7444 11.4977 50.7406 11.0572 51.0024 10.773C52.0297 9.65787 52.804 8.36526 53.3041 6.93128C53.3722 6.73628 53.5189 6.57931 53.7083 6.49936C53.898 6.41941 54.1118 6.42379 54.2981 6.5113C57.6664 8.09982 60.1396 11.085 61.0839 14.7013C61.1396 14.9146 61.0968 15.1418 60.9674 15.3194C60.8379 15.4971 60.6356 15.6068 60.4169 15.6176C60.2733 15.6244 60.1379 15.628 59.9955 15.628ZM52.534 11.232C54.4257 12.9924 56.8224 14.0117 59.3947 14.1494C58.4947 11.6164 56.7175 9.50528 54.3753 8.19293C53.9089 9.29224 53.2923 10.3099 52.534 11.232Z" fill="#FF4D40"/>
<path d="M42.9048 15.8091C41.0577 15.8091 39.2783 15.4123 37.6162 14.6299C37.2781 14.4707 37.1148 14.0797 37.2384 13.7256C38.9894 8.70333 43.7195 5.3291 49.0087 5.3291C50.851 5.3291 52.6304 5.7269 54.2971 6.51178C54.6352 6.67095 54.7984 7.06192 54.6749 7.41633C52.9234 12.4361 48.1935 15.8091 42.9048 15.8091ZM38.8528 13.5747C40.14 14.0873 41.5001 14.3466 42.9048 14.3466C47.3507 14.3466 51.3499 11.6486 53.0605 7.56648C51.7696 7.05193 50.41 6.79136 49.0089 6.79136C44.5621 6.79136 40.5629 9.49016 38.8528 13.5747Z" fill="#FF4D40"/>
<path d="M72.4378 45.5692H25.1611C24.7598 45.5692 24.4346 45.2418 24.4346 44.8379V40.1862C24.4346 39.8856 24.6174 39.6156 24.8955 39.5056L41.1438 33.0831C41.4083 32.9788 41.7086 33.0387 41.9128 33.2364L48.5494 39.6556L55.6983 33.2186C55.9025 33.0348 56.1921 32.9817 56.4484 33.0828L72.7033 39.5054C72.9813 39.6153 73.1641 39.8854 73.1641 40.186V44.8377C73.1644 45.2416 72.8391 45.5692 72.4378 45.5692ZM25.8877 44.1067H71.7113V40.6847L56.3338 34.609L49.0164 41.1978C48.733 41.4527 48.3024 41.4449 48.0285 41.18L41.2419 34.6155L25.8879 40.6844V44.1067H25.8877Z" fill="#FF4D40"/>
<path d="M56.6144 42.8881H40.9795C40.7804 42.8881 40.5898 42.8057 40.4527 42.6604C40.3156 42.5152 40.2437 42.3194 40.2539 42.1191L40.6845 33.7255C40.7053 33.3221 41.0478 33.0143 41.4476 33.033C41.8484 33.0538 42.1565 33.3977 42.1357 33.8011L41.7443 41.4256H55.8626L55.6071 33.8474C55.5933 33.4438 55.9074 33.1057 56.3085 33.0918C56.7023 33.0716 57.0457 33.394 57.0593 33.7977L57.3402 42.1317C57.3467 42.3299 57.2736 42.5222 57.1365 42.6648C56.9997 42.8074 56.8113 42.8881 56.6144 42.8881Z" fill="#FF4D40"/>
<path d="M51.1496 45.5681H46.4492C46.0479 45.5681 45.7227 45.2407 45.7227 44.8368V42.1561C45.7227 41.7522 46.0479 41.4248 46.4492 41.4248H51.1493C51.5507 41.4248 51.8759 41.7522 51.8759 42.1561V44.8368C51.8762 45.2405 51.5507 45.5681 51.1496 45.5681ZM47.1758 44.1056H50.4228V42.8873H47.1758V44.1056Z" fill="#FF4D40"/>
<path d="M48.7151 41.2089H48.3562C48.1685 41.2089 47.9878 41.1357 47.8527 41.0048L42.8588 36.1727C42.7164 36.035 42.6357 35.8444 42.6357 35.6455V28.244C42.6357 27.9854 42.7716 27.746 42.9927 27.6144C43.2138 27.4828 43.4875 27.4787 43.713 27.6035C45.3235 28.4963 47.155 28.9682 49.0091 28.9682C50.7577 28.9682 52.4313 28.5689 53.983 27.7816C54.2084 27.6673 54.4761 27.679 54.6911 27.8119C54.9059 27.9449 55.0367 28.1807 55.0367 28.4346V35.4454C55.0367 35.6535 54.9486 35.8517 54.7943 35.9906L49.1998 41.0231C49.0661 41.1426 48.8939 41.2089 48.7151 41.2089ZM44.0886 35.334L48.5471 39.6479L53.5831 35.1178V29.5627C52.1309 30.1389 50.5972 30.4305 49.0089 30.4305C47.3131 30.4305 45.6335 30.0814 44.0889 29.414V35.334H44.0886Z" fill="#FF4D40"/>
<path d="M65.9555 21.8596H60.3087C60.0808 21.8596 59.8657 21.7519 59.7284 21.5686C59.5911 21.3853 59.5473 21.1476 59.6102 20.927C59.8902 19.9432 60.0324 18.9192 60.0324 17.8828C60.0324 16.863 59.8921 15.8443 59.6153 14.8552C59.5536 14.6349 59.5981 14.3982 59.7354 14.2156C59.8728 14.033 60.0871 13.9258 60.3147 13.9258H65.9555C66.3568 13.9258 66.6821 14.2531 66.6821 14.657V21.1286C66.6821 21.5322 66.3568 21.8596 65.9555 21.8596ZM61.2341 20.3971H65.229V15.388H61.2372C61.4022 16.2107 61.4855 17.0463 61.4855 17.8826C61.4855 18.7316 61.401 19.574 61.2341 20.3971Z" fill="#FF4D40"/>
<path d="M37.7259 21.8598C37.7242 21.8598 37.7228 21.8598 37.7211 21.8598H32.0742C31.6729 21.8598 31.3477 21.5325 31.3477 21.1286V14.657C31.3477 14.2531 31.6729 13.9258 32.0742 13.9258H37.7145C37.9419 13.9258 38.1563 14.033 38.2936 14.2154C38.4309 14.3979 38.4755 14.6346 38.414 14.855C38.1374 15.8456 37.9972 16.8644 37.9972 17.8831C37.9972 18.8917 38.1321 19.8894 38.3977 20.8497C38.4331 20.9358 38.4525 21.0299 38.4525 21.1286C38.4525 21.5325 38.1272 21.8598 37.7259 21.8598ZM32.8008 20.3973H36.7957C36.6286 19.574 36.544 18.7316 36.544 17.8831C36.544 17.0472 36.6273 16.2117 36.7925 15.3885H32.8008V20.3973Z" fill="#FF4D40"/>
<path d="M34.1776 15.3884C34.1221 15.3884 34.0659 15.3821 34.0095 15.3684C33.6191 15.2753 33.3774 14.8812 33.4699 14.4885C34.4067 10.5088 36.3803 6.88715 39.0267 4.29024C41.8872 1.48371 45.3388 0 49.0087 0C52.7343 0 56.2087 1.46591 59.0563 4.23905C61.7155 6.8289 63.6714 10.4722 64.5627 14.4978C64.6501 14.8919 64.4033 15.2829 64.0117 15.3706C63.6203 15.4584 63.2319 15.2102 63.1447 14.8161C61.3755 6.8289 55.6948 1.4625 49.0087 1.4625C42.5445 1.4625 36.7361 6.9576 34.8838 14.8254C34.8049 15.1617 34.5067 15.3884 34.1776 15.3884Z" fill="#FF4D40"/>
<path d="M72.1249 87.8344C72.0033 87.8344 71.8817 87.8037 71.7715 87.7423C71.5412 87.6131 71.3983 87.3686 71.3983 87.1032V82.966H71.0738C68.355 82.966 66.1436 80.7413 66.1436 78.0067V66.7352C66.1436 64.0008 68.3552 61.7764 71.0738 61.7764H78.268C78.484 61.7764 78.6884 61.8729 78.8267 62.0399C78.9645 62.2071 79.0219 62.4272 78.9826 62.6407C78.947 62.8352 78.9294 63.0429 78.9294 63.2759V74.5474C78.9294 76.4752 80.4866 78.0437 82.4004 78.0437H93.9157C94.0516 78.0437 94.1843 78.082 94.2995 78.1542L95.6902 79.0248C95.9939 79.215 96.115 79.5994 95.9752 79.9311C95.1986 81.7746 93.4168 82.9658 91.4357 82.9658H80.1272L72.5082 87.724C72.3908 87.7979 72.2578 87.8344 72.1249 87.8344ZM71.0738 63.2391C69.1564 63.2391 67.5967 64.8076 67.5967 66.7355V78.0069C67.5967 79.935 69.1564 81.5038 71.0738 81.5038H72.1249C72.5262 81.5038 72.8514 81.8311 72.8514 82.235V85.7889L79.5368 81.6137C79.652 81.5418 79.7845 81.5038 79.9199 81.5038H91.4357C92.6251 81.5038 93.7135 80.8934 94.3487 79.9077L93.7079 79.5065H82.4002C79.685 79.5065 77.476 77.282 77.476 74.5476V63.2762C77.476 63.2637 77.476 63.2513 77.476 63.2391H71.0738Z" fill="white"/>
<path d="M101.71 84.3757C101.577 84.3757 101.444 84.3392 101.327 84.2658L93.708 79.5071H82.3997C79.6846 79.5071 77.4756 77.2826 77.4756 74.5482V63.2767C77.4756 60.5421 79.6846 58.3174 82.3997 58.3174H102.761C105.48 58.3174 107.692 60.5421 107.692 63.2767V74.5482C107.692 77.2826 105.48 79.5071 102.761 79.5071H102.436V83.6447C102.436 83.9102 102.293 84.1546 102.063 84.2838C101.953 84.345 101.832 84.3757 101.71 84.3757ZM82.3997 59.7799C80.486 59.7799 78.9287 61.3487 78.9287 63.2767V74.5482C78.9287 76.476 80.486 78.0446 82.3997 78.0446H93.915C94.0504 78.0446 94.1829 78.0826 94.2982 78.1545L100.984 82.3302V78.7758C100.984 78.3719 101.309 78.0446 101.71 78.0446H102.761C104.679 78.0446 106.239 76.476 106.239 74.5482V63.2767C106.239 61.3487 104.679 59.7799 102.761 59.7799H82.3997Z" fill="#FF4D40"/>
<path d="M99.6468 65.3873H85.5195C85.1182 65.3873 84.793 65.06 84.793 64.6561C84.793 64.2522 85.1182 63.9248 85.5195 63.9248H99.6468C100.048 63.9248 100.373 64.2522 100.373 64.6561C100.373 65.06 100.048 65.3873 99.6468 65.3873Z" fill="#FF4D40"/>
<path d="M99.6468 71.15H85.5195C85.1182 71.15 84.793 70.8227 84.793 70.4188C84.793 70.0149 85.1182 69.6875 85.5195 69.6875H99.6468C100.048 69.6875 100.373 70.0149 100.373 70.4188C100.373 70.8227 100.048 71.15 99.6468 71.15Z" fill="#FF4D40"/>
<path d="M49.759 102.822C48.1705 102.822 46.8779 101.521 46.8779 99.9224C46.8779 98.3238 48.1702 97.0234 49.759 97.0234C51.3477 97.0234 52.6401 98.3238 52.6401 99.9224C52.6401 101.521 51.3477 102.822 49.759 102.822ZM49.759 98.4859C48.9716 98.4859 48.3311 99.1304 48.3311 99.9224C48.3311 100.715 48.9716 101.36 49.759 101.36C50.5463 101.36 51.1869 100.715 51.1869 99.9224C51.1869 99.1302 50.5463 98.4859 49.759 98.4859Z" fill="white"/>
</svg>
