<svg width="121" height="121" viewBox="0 0 121 121" fill="none" xmlns="http://www.w3.org/2000/svg">
<path d="M91.3816 101.66H83.9667C83.6575 101.66 83.4068 101.408 83.4068 101.096C83.4068 100.785 83.6575 100.533 83.9667 100.533H91.3816C93.2896 100.533 94.8416 98.9694 94.8416 97.0478V93.5632H20.3873V97.0478C20.3873 98.9694 21.9418 100.533 23.8524 100.533H74.6338C74.9431 100.533 75.1938 100.785 75.1938 101.096C75.1938 101.408 74.9431 101.66 74.6338 101.66H23.8525C21.3243 101.66 19.2676 99.5908 19.2676 97.0478V92.9996C19.2676 92.6883 19.5183 92.436 19.8275 92.436H95.4015C95.7108 92.436 95.9615 92.6883 95.9615 92.9996V97.0478C95.9615 99.5908 93.907 101.66 91.3816 101.66Z" fill="white"/>
<path d="M89.9126 93.5635H25.3217C25.0124 93.5635 24.7617 93.3112 24.7617 92.9999V92.9088C24.7617 92.5975 25.0124 92.3452 25.3217 92.3452C25.4344 92.3452 25.5393 92.3788 25.6272 92.4363H89.3528V83.9803L81.0211 83.9804L75.1492 87.6476C74.9767 87.7556 74.7596 87.7607 74.5816 87.6613C74.4041 87.5618 74.2939 87.3734 74.2939 87.1688V84.1521C74.2939 83.8409 74.5446 83.5886 74.8539 83.5886C75.1632 83.5886 75.4138 83.8409 75.4138 84.1521V86.1557L80.5662 82.9378C80.6551 82.8824 80.7572 82.8531 80.8615 82.8531H89.7368L89.8965 82.8482C90.0468 82.8435 90.1942 82.9012 90.3031 83.0075C90.4115 83.1135 90.4727 83.2594 90.4727 83.4116V92.9997C90.4725 93.3112 90.2221 93.5635 89.9126 93.5635ZM25.3217 84.0793C25.0124 84.0793 24.7617 83.827 24.7617 83.5157V54.5943C24.7617 54.2831 25.0124 54.0308 25.3217 54.0308H89.9126C90.2219 54.0308 90.4725 54.2831 90.4725 54.5943V65.5469C90.4725 65.8581 90.2219 66.1104 89.9126 66.1104H82.7731C81.485 66.1104 80.377 67.0384 80.1386 68.3172C80.089 68.5836 79.8577 68.7767 79.5884 68.7767H74.0438C72.5661 68.7767 71.364 69.9856 71.364 71.4713V77.4349C71.364 77.7462 71.1133 77.9985 70.8041 77.9985C70.4948 77.9985 70.2441 77.7462 70.2441 77.4349V71.4713C70.2441 69.3639 71.9486 67.6495 74.0438 67.6495H79.1531C79.6502 66.0796 81.1049 64.9833 82.7733 64.9833H89.3528V55.1579H25.8816V83.5159C25.8816 83.827 25.631 84.0793 25.3217 84.0793Z" fill="white"/>
<path d="M86.5117 93.5635H39.0346C38.7253 93.5635 38.4746 93.3112 38.4746 92.9999C38.4746 92.6886 38.7253 92.4363 39.0346 92.4363H85.9517V83.9804H81.0215L75.1495 87.6476C74.977 87.7556 74.76 87.7609 74.5819 87.6612C74.4044 87.5618 74.2943 87.3734 74.2943 87.1688V83.9803H74.0441C71.9488 83.9803 70.2444 82.2657 70.2444 80.1581V71.4712C70.2444 69.3638 71.949 67.6494 74.0441 67.6494H74.3114C74.6207 67.6494 74.8714 67.9017 74.8714 68.2129C74.8714 68.5242 74.6207 68.7765 74.3114 68.7765H74.0441C72.5664 68.7765 71.3644 69.9854 71.3644 71.4712V80.1581C71.3644 81.6441 72.5664 82.8531 74.0441 82.8531H74.8542C75.1635 82.8531 75.4142 83.1054 75.4142 83.4167V86.1557L80.5666 82.9378C80.6554 82.8824 80.7575 82.8531 80.8619 82.8531H86.5119C86.8212 82.8531 87.0718 83.1054 87.0718 83.4167V92.9997C87.0717 93.3112 86.821 93.5635 86.5117 93.5635ZM29.7019 93.5635H28.723C28.4138 93.5635 28.1631 93.3112 28.1631 92.9999V58.2174C28.1631 57.9061 28.4138 57.6538 28.723 57.6538H86.5117C86.821 57.6538 87.0717 57.9061 87.0717 58.2174V65.5469C87.0717 65.8581 86.821 66.1104 86.5117 66.1104H82.7734C82.6532 66.1106 82.5317 66.1189 82.4132 66.135C82.1072 66.1769 81.8246 65.9607 81.783 65.6524C81.7414 65.3438 81.9562 65.0601 82.2625 65.0182C82.4303 64.9953 82.6019 64.9835 82.7725 64.9833H85.9514V58.781H29.283V92.4363H29.7019C30.0111 92.4363 30.2618 92.6886 30.2618 92.9999C30.2618 93.3112 30.0111 93.5635 29.7019 93.5635Z" fill="white"/>
<path d="M58.694 73.0222H34.4887C34.1794 73.0222 33.9287 72.7699 33.9287 72.4586C33.9287 72.1473 34.1794 71.895 34.4887 71.895H58.694C59.0032 71.895 59.2539 72.1473 59.2539 72.4586C59.2539 72.7699 59.0032 73.0222 58.694 73.0222Z" fill="white"/>
<path d="M58.6935 75.7414H46.5883C46.279 75.7414 46.0283 75.4891 46.0283 75.1778C46.0283 74.8666 46.279 74.6143 46.5883 74.6143H58.6935C59.0028 74.6143 59.2535 74.8666 59.2535 75.1778C59.2535 75.4891 59.0028 75.7414 58.6935 75.7414Z" fill="white"/>
<path d="M50.3923 78.4582H34.4887C34.1794 78.4582 33.9287 78.2059 33.9287 77.8946C33.9287 77.5833 34.1794 77.3311 34.4887 77.3311H50.3923C50.7016 77.3311 50.9523 77.5833 50.9523 77.8946C50.9523 78.2059 50.7016 78.4582 50.3923 78.4582Z" fill="white"/>
<path d="M58.694 81.175H34.4887C34.1794 81.175 33.9287 80.9227 33.9287 80.6114C33.9287 80.3002 34.1794 80.0479 34.4887 80.0479H58.694C59.0032 80.0479 59.2539 80.3002 59.2539 80.6114C59.2539 80.9227 59.0032 81.175 58.694 81.175Z" fill="white"/>
<path d="M58.6934 83.8942H37.7885C37.4792 83.8942 37.2285 83.6419 37.2285 83.3307C37.2285 83.0194 37.4792 82.7671 37.7885 82.7671H58.6934C59.0026 82.7671 59.2533 83.0194 59.2533 83.3307C59.2533 83.6419 59.0026 83.8942 58.6934 83.8942Z" fill="white"/>
<path d="M50.3923 86.6105H34.4887C34.1794 86.6105 33.9287 86.3582 33.9287 86.047C33.9287 85.7357 34.1794 85.4834 34.4887 85.4834H50.3923C50.7016 85.4834 50.9523 85.7357 50.9523 86.047C50.9523 86.3582 50.7016 86.6105 50.3923 86.6105Z" fill="white"/>
<path d="M58.694 89.3298H34.4887C34.1794 89.3298 33.9287 89.0775 33.9287 88.7662C33.9287 88.4549 34.1794 88.2026 34.4887 88.2026H58.694C59.0032 88.2026 59.2539 88.4549 59.2539 88.7662C59.2539 89.0775 59.0032 89.3298 58.694 89.3298Z" fill="white"/>
<path d="M57.0389 43.4962C51.7393 43.4962 47.4277 39.1557 47.4277 33.8204C47.4277 28.485 51.7393 24.1445 57.0389 24.1445C62.3412 24.1445 66.655 28.485 66.655 33.8204C66.655 39.1557 62.3412 43.4962 57.0389 43.4962ZM57.0389 25.2719C52.3569 25.2719 48.5477 29.1068 48.5477 33.8205C48.5477 38.5343 52.3569 42.3692 57.0389 42.3692C61.7238 42.3692 65.535 38.5343 65.535 33.8205C65.535 29.1068 61.7238 25.2719 57.0389 25.2719Z" fill="#141517"/>
<path d="M65.5062 32.0828C62.8702 32.0828 60.4112 31.0287 58.5822 29.1148C58.3763 28.8995 58.3734 28.5601 58.5751 28.341C59.3669 27.4816 59.9636 26.4854 60.3491 25.3802C60.4015 25.2299 60.5147 25.1089 60.6606 25.0473C60.8068 24.9857 60.9716 24.9891 61.1151 25.0565C63.7111 26.2808 65.6172 28.5815 66.345 31.3686C66.3879 31.5329 66.3549 31.708 66.2552 31.845C66.1553 31.9819 65.9995 32.0665 65.8309 32.0747C65.7203 32.08 65.6159 32.0828 65.5062 32.0828ZM59.7555 28.6948C61.2135 30.0515 63.0606 30.8371 65.0431 30.9433C64.3495 28.991 62.9798 27.364 61.1747 26.3526C60.8152 27.1998 60.3399 27.9841 59.7555 28.6948Z" fill="#141517"/>
<path d="M52.3344 32.222C50.9108 32.222 49.5394 31.9162 48.2584 31.3131C47.9978 31.1905 47.872 30.8891 47.9672 30.6162C49.3167 26.7455 52.9623 24.145 57.0386 24.145C58.4585 24.145 59.8298 24.4516 61.1144 25.0565C61.375 25.1792 61.5008 25.4805 61.4056 25.7536C60.0557 29.6224 56.4103 32.222 52.3344 32.222ZM49.2115 30.4999C50.2035 30.895 51.2518 31.0948 52.3344 31.0948C55.7608 31.0948 58.843 29.0154 60.1613 25.8694C59.1665 25.4728 58.1186 25.272 57.0388 25.272C53.6116 25.272 50.5294 27.3519 49.2115 30.4999Z" fill="#141517"/>
<path d="M75.0957 55.1578H38.6596C38.3503 55.1578 38.0996 54.9055 38.0996 54.5943V51.0092C38.0996 50.7775 38.2405 50.5694 38.4548 50.4847L50.9774 45.5348C51.1813 45.4544 51.4127 45.5006 51.5701 45.653L56.6849 50.6002L62.1946 45.6392C62.3519 45.4976 62.5752 45.4566 62.7727 45.5346L75.3003 50.4845C75.5146 50.5692 75.6555 50.7774 75.6555 51.009V54.5941C75.6557 54.9054 75.405 55.1578 75.0957 55.1578ZM39.2195 54.0307H74.5358V51.3933L62.6844 46.7108L57.0448 51.7888C56.8264 51.9853 56.4945 51.9793 56.2834 51.7751L51.053 46.7159L39.2197 51.3932V54.0307H39.2195Z" fill="#141517"/>
<path d="M62.8998 53.0915H50.85C50.6966 53.0915 50.5497 53.028 50.444 52.9161C50.3384 52.8041 50.2829 52.6533 50.2908 52.4988L50.6226 46.0299C50.6387 45.719 50.9026 45.4818 51.2108 45.4962C51.5197 45.5122 51.7571 45.7773 51.7411 46.0882L51.4394 51.9644H62.3204L62.1235 46.1239C62.1129 45.8128 62.355 45.5522 62.6641 45.5415C62.9676 45.5259 63.2322 45.7745 63.2427 46.0855L63.4592 52.5086C63.4643 52.6613 63.4079 52.8096 63.3022 52.9195C63.1968 53.0293 63.0516 53.0915 62.8998 53.0915Z" fill="#141517"/>
<path d="M58.6884 55.1581H55.0658C54.7565 55.1581 54.5059 54.9058 54.5059 54.5945V52.5284C54.5059 52.2171 54.7565 51.9648 55.0658 51.9648H58.6882C58.9975 51.9648 59.2482 52.2171 59.2482 52.5284V54.5945C59.2484 54.9056 58.9975 55.1581 58.6884 55.1581ZM55.6258 54.0309H58.1282V53.092H55.6258V54.0309Z" fill="#141517"/>
<path d="M56.8123 51.7983H56.5357C56.3911 51.7983 56.2518 51.742 56.1477 51.6411L52.2989 47.917C52.1891 47.8108 52.127 47.6639 52.127 47.5106V41.8063C52.127 41.607 52.2317 41.4225 52.4021 41.3211C52.5725 41.2196 52.7834 41.2164 52.9572 41.3126C54.1984 42.0007 55.6099 42.3644 57.0389 42.3644C58.3866 42.3644 59.6764 42.0567 60.8723 41.4499C61.046 41.3618 61.2523 41.3709 61.418 41.4732C61.5836 41.5758 61.6844 41.7575 61.6844 41.9532V47.3564C61.6844 47.5168 61.6164 47.6696 61.4975 47.7766L57.1858 51.6552C57.0828 51.7472 56.9501 51.7983 56.8123 51.7983ZM53.2467 47.2706L56.6828 50.5953L60.5641 47.1039V42.8226C59.4449 43.2667 58.2628 43.4914 57.0388 43.4914C55.7318 43.4914 54.4374 43.2224 53.2469 42.708V47.2706H53.2467Z" fill="#141517"/>
<path d="M70.0996 36.8856H65.7475C65.5719 36.8856 65.4062 36.8026 65.3003 36.6613C65.1945 36.52 65.1607 36.3369 65.2092 36.1668C65.425 35.4086 65.5346 34.6195 65.5346 33.8207C65.5346 33.0347 65.4265 32.2496 65.2131 31.4873C65.1656 31.3175 65.1999 31.1351 65.3057 30.9944C65.4116 30.8537 65.5767 30.771 65.7522 30.771H70.0996C70.4088 30.771 70.6595 31.0233 70.6595 31.3346V36.3222C70.6595 36.6333 70.4088 36.8856 70.0996 36.8856ZM66.4607 35.7584H69.5396V31.898H66.4632C66.5903 32.532 66.6545 33.176 66.6545 33.8205C66.6545 34.4748 66.5893 35.124 66.4607 35.7584Z" fill="#141517"/>
<path d="M48.3435 36.8853C48.3422 36.8853 48.341 36.8853 48.3397 36.8853H43.9877C43.6784 36.8853 43.4277 36.633 43.4277 36.3217V31.3341C43.4277 31.0228 43.6784 30.7705 43.9877 30.7705H48.3347C48.51 30.7705 48.6751 30.8532 48.781 30.9937C48.8868 31.1344 48.9212 31.3168 48.8737 31.4866C48.6606 32.2501 48.5525 33.0353 48.5525 33.8204C48.5525 34.5977 48.6565 35.3666 48.8612 36.1068C48.8885 36.1731 48.9034 36.2456 48.9034 36.3217C48.9034 36.633 48.6527 36.8853 48.3435 36.8853ZM44.5477 35.7581H47.6265C47.4977 35.1236 47.4326 34.4743 47.4326 33.8204C47.4326 33.1762 47.4968 32.5322 47.6241 31.8978H44.5477V35.7581Z" fill="#141517"/>
<path d="M45.6085 31.898C45.5657 31.898 45.5224 31.8931 45.4789 31.8825C45.178 31.8108 44.9918 31.507 45.0631 31.2044C45.785 28.1372 47.3061 25.346 49.3457 23.3446C51.5502 21.1816 54.2104 20.0381 57.0388 20.0381C59.9101 20.0381 62.5878 21.1679 64.7825 23.3051C66.832 25.3011 68.3394 28.109 69.0263 31.2115C69.0937 31.5153 68.9035 31.8166 68.6016 31.8842C68.3 31.9519 68.0006 31.7606 67.9334 31.4569C66.5699 25.3011 62.1918 21.1652 57.0388 21.1652C52.0568 21.1652 47.5803 25.4003 46.1527 31.464C46.0919 31.7232 45.8621 31.898 45.6085 31.898Z" fill="#141517"/>
<path d="M74.8539 87.7324C74.7602 87.7324 74.6665 87.7087 74.5816 87.6614C74.4041 87.5618 74.294 87.3734 74.294 87.1688V83.9803H74.0439C71.9485 83.9803 70.2441 82.2657 70.2441 80.1581V71.4712C70.2441 69.3638 71.9487 67.6494 74.0439 67.6494H79.5884C79.7549 67.6494 79.9124 67.7238 80.019 67.8525C80.1252 67.9814 80.1695 68.151 80.1392 68.3156C80.1118 68.4655 80.0982 68.6255 80.0982 68.8051V77.492C80.0982 78.9778 81.2984 80.1867 82.7733 80.1867H91.6481C91.7529 80.1867 91.8551 80.2162 91.944 80.2718L93.0158 80.9428C93.2498 81.0893 93.3431 81.3856 93.2354 81.6413C92.6368 83.062 91.2636 83.9801 89.7368 83.9801H81.0214L75.1494 87.6473C75.0589 87.7042 74.9564 87.7324 74.8539 87.7324ZM74.0439 68.7767C72.5661 68.7767 71.3641 69.9856 71.3641 71.4714V80.1583C71.3641 81.6443 72.5661 82.8533 74.0439 82.8533H74.8539C75.1632 82.8533 75.4139 83.1056 75.4139 83.4169V86.1559L80.5663 82.9381C80.6551 82.8826 80.7572 82.8533 80.8616 82.8533H89.7368C90.6535 82.8533 91.4923 82.3829 91.9819 81.6232L91.488 81.314H82.7731C80.6805 81.314 78.9781 79.5996 78.9781 77.4922V68.8053C78.9781 68.7957 78.9781 68.7861 78.9781 68.7767H74.0439Z" fill="white"/>
<path d="M97.6561 85.0661C97.5534 85.0661 97.4509 85.0379 97.3608 84.9814L91.4888 81.3138H82.7736C80.681 81.3138 78.9785 79.5994 78.9785 77.492V68.8051C78.9785 66.6975 80.681 64.9829 82.7736 64.9829H98.4659C100.562 64.9829 102.266 66.6975 102.266 68.8051V77.492C102.266 79.5994 100.561 81.3138 98.4659 81.3138H98.2158V84.5027C98.2158 84.7073 98.1057 84.8957 97.928 84.9953C97.8435 85.0424 97.7498 85.0661 97.6561 85.0661ZM82.7736 66.1101C81.2986 66.1101 80.0984 67.3191 80.0984 68.8051V77.492C80.0984 78.9778 81.2986 80.1867 82.7736 80.1867H91.6484C91.7527 80.1867 91.8548 80.216 91.9437 80.2714L97.0961 83.4896V80.7502C97.0961 80.4389 97.3468 80.1867 97.6561 80.1867H98.4661C99.9441 80.1867 101.146 78.9778 101.146 77.492V68.8051C101.146 67.3191 99.9441 66.1101 98.4661 66.1101H82.7736Z" fill="#141517"/>
<path d="M96.066 70.4323H85.1781C84.8688 70.4323 84.6182 70.18 84.6182 69.8688C84.6182 69.5575 84.8688 69.3052 85.1781 69.3052H96.066C96.3753 69.3052 96.626 69.5575 96.626 69.8688C96.626 70.18 96.3753 70.4323 96.066 70.4323Z" fill="#141517"/>
<path d="M96.066 74.8733H85.1781C84.8688 74.8733 84.6182 74.621 84.6182 74.3097C84.6182 73.9984 84.8688 73.7461 85.1781 73.7461H96.066C96.3753 73.7461 96.626 73.9984 96.626 74.3097C96.626 74.621 96.3753 74.8733 96.066 74.8733Z" fill="#141517"/>
<path d="M57.6169 99.2824C56.3927 99.2824 55.3965 98.2798 55.3965 97.0477C55.3965 95.8157 56.3925 94.8135 57.6169 94.8135C58.8414 94.8135 59.8374 95.8157 59.8374 97.0477C59.8374 98.2798 58.8414 99.2824 57.6169 99.2824ZM57.6169 95.9406C57.0101 95.9406 56.5164 96.4373 56.5164 97.0477C56.5164 97.6584 57.0101 98.1553 57.6169 98.1553C58.2237 98.1553 58.7174 97.6582 58.7174 97.0477C58.7174 96.4371 58.2237 95.9406 57.6169 95.9406Z" fill="white"/>
</svg>
