<svg width="121" height="121" viewBox="0 0 121 121" fill="none" xmlns="http://www.w3.org/2000/svg">
<path d="M94.6604 93.0705H33.3907C33.2369 93.0705 33.085 93.0101 32.978 92.901C32.8689 92.7918 32.8066 92.642 32.8066 92.4881V85.6119C32.8066 85.2904 33.0695 85.0273 33.3907 85.0273C33.7119 85.0273 33.9747 85.2904 33.9747 85.6119V91.9035H94.0764V65.3573V65.3554C94.0784 65.0339 94.3392 64.7728 94.6604 64.7728C94.9815 64.7728 95.2445 65.0358 95.2445 65.3573V92.4881C95.2445 92.644 95.1822 92.7901 95.0732 92.901C94.9622 93.0103 94.8162 93.0705 94.6604 93.0705ZM33.3907 82.2994C33.0695 82.2994 32.8066 82.0381 32.8066 81.7149C32.8066 81.3934 33.0695 81.1303 33.3907 81.1303C33.7119 81.1303 33.9747 81.3934 33.9747 81.7149C33.9747 82.0381 33.7119 82.2994 33.3907 82.2994ZM33.3907 78.4025C33.0695 78.4025 32.8066 78.1412 32.8066 77.8179V21.5845C32.8066 21.4306 32.8689 21.2786 32.978 21.1695C33.087 21.0624 33.2369 21 33.3907 21H45.3421C45.6633 21 45.9261 21.2611 45.9261 21.5845C45.9261 21.906 45.6633 22.1691 45.3421 22.1691H33.9747V77.8179C33.9747 78.1412 33.7119 78.4025 33.3907 78.4025ZM94.6604 62.0566C94.3373 62.0566 94.0764 61.7935 94.0764 61.472C94.0764 61.4701 94.0764 61.4701 94.0764 61.4681C94.0784 61.1466 94.3392 60.8875 94.6604 60.8875C94.9815 60.8875 95.2445 61.1486 95.2445 61.472C95.2445 61.7935 94.9815 62.0566 94.6604 62.0566ZM94.6604 58.1694C94.3373 58.1694 94.0764 57.9063 94.0764 57.5848V37.8798L78.3832 22.1691H53.1293C52.8081 22.1691 52.5453 21.906 52.5453 21.5845C52.5453 21.2611 52.8081 21 53.1293 21H78.6266C78.7804 21 78.9305 21.0624 79.0393 21.1715L95.0732 37.2231C95.1822 37.3342 95.2445 37.4803 95.2445 37.6362V57.5848C95.2445 57.9063 94.9815 58.1694 94.6604 58.1694ZM49.2357 22.1691C48.9145 22.1691 48.6517 21.906 48.6517 21.5845C48.6517 21.2611 48.9145 21 49.2357 21C49.5589 21 49.8197 21.2611 49.8197 21.5845C49.8197 21.906 49.5589 22.1691 49.2357 22.1691Z" fill="white"/>
<path d="M94.6609 38.2207H78.627C78.4732 38.2207 78.3216 38.1584 78.2143 38.0512C78.1053 37.9421 78.043 37.7901 78.043 37.6362V21.5845C78.043 21.3468 78.1831 21.1344 78.4033 21.0448C78.6175 20.9552 78.8744 21.0058 79.0399 21.1714L95.0738 37.2231C95.241 37.3907 95.2897 37.642 95.2001 37.8602C95.1086 38.0804 94.8964 38.2207 94.6609 38.2207ZM79.2111 37.0516H93.2514L79.2111 22.9952V37.0516Z" fill="white"/>
<path d="M90.3519 96.5741H29.084C28.9302 96.5741 28.7784 96.5117 28.6694 96.4026C28.5623 96.2955 28.5 96.1435 28.5 95.9895V89.1153C28.5 88.7918 28.7609 88.5307 29.084 88.5307C29.4053 88.5307 29.6681 88.7918 29.6681 89.1153V95.405H89.7678V93.0727H57.4042C57.083 93.0727 56.8201 92.8094 56.8201 92.4881C56.8201 92.1647 57.083 91.9036 57.4042 91.9036H90.3519C90.5056 91.9036 90.6573 91.9657 90.7646 92.075C90.8736 92.1822 90.9359 92.332 90.9359 92.4881V95.9895C90.9359 96.1474 90.8754 96.2935 90.7646 96.4026C90.6536 96.5135 90.5076 96.5741 90.3519 96.5741ZM53.5106 93.0727C53.1893 93.0727 52.9265 92.8094 52.9265 92.4881C52.9265 92.1647 53.1893 91.9036 53.5106 91.9036C53.8337 91.9036 54.0946 92.1647 54.0946 92.4881C54.0946 92.8096 53.8337 93.0727 53.5106 93.0727ZM49.617 93.0727H33.3904C33.2366 93.0727 33.0867 93.0103 32.9776 92.901C32.8686 92.7919 32.8063 92.642 32.8063 92.4881V40.5317C32.8063 40.2082 33.0691 39.9471 33.3904 39.9471C33.7116 39.9471 33.9744 40.2082 33.9744 40.5317V91.9036H49.617C49.9382 91.9036 50.201 92.1647 50.201 92.4881C50.201 92.8096 49.9382 93.0727 49.617 93.0727ZM29.084 85.8028C28.7609 85.8028 28.5 85.5398 28.5 85.2183C28.5 84.8949 28.7609 84.6338 29.084 84.6338C29.4053 84.6338 29.6681 84.8949 29.6681 85.2183C29.6681 85.5398 29.4053 85.8028 29.084 85.8028ZM29.084 81.9059C28.7609 81.9059 28.5 81.6428 28.5 81.3213V25.086C28.5 24.9321 28.5623 24.782 28.6694 24.6729C28.7784 24.5638 28.9302 24.5015 29.084 24.5015H33.3904C33.5442 24.5015 33.6941 24.5638 33.8031 24.6729C33.9121 24.782 33.9744 24.9321 33.9744 25.086V32.7377C33.9744 33.0592 33.7116 33.3223 33.3904 33.3223C33.0691 33.3223 32.8063 33.0592 32.8063 32.7377V25.6706H29.6681V81.3194C29.6681 81.3194 29.6681 81.3194 29.6681 81.3213C29.6681 81.6428 29.4053 81.9059 29.084 81.9059ZM33.3904 37.2192C33.0691 37.2192 32.8063 36.9562 32.8063 36.6347C32.8063 36.3132 33.0691 36.0502 33.3904 36.0502C33.7116 36.0502 33.9744 36.3132 33.9744 36.6347C33.9744 36.9562 33.7116 37.2192 33.3904 37.2192Z" fill="white"/>
<path d="M86.8536 99.538H25.584C25.4302 99.538 25.2803 99.4756 25.1713 99.3684C25.0623 99.2593 25 99.1073 25 98.9534V92.0791C25 91.7578 25.2628 91.4946 25.584 91.4946C25.9053 91.4946 26.1681 91.7578 26.1681 92.0791V98.3689H86.2698V96.5743H53.3649C53.0437 96.5743 52.7828 96.3132 52.7828 95.9898C52.7828 95.6683 53.0437 95.4052 53.3649 95.4052H86.8538C87.0076 95.4052 87.1577 95.4676 87.2665 95.5767C87.3757 95.6858 87.4378 95.8358 87.4378 95.9898V98.9534C87.4378 99.1093 87.3775 99.2574 87.2665 99.3684C87.1556 99.4774 87.0095 99.538 86.8536 99.538ZM49.4713 96.5743C49.1501 96.5743 48.8892 96.3132 48.8892 95.9898C48.8892 95.6683 49.1501 95.4052 49.4713 95.4052C49.7945 95.4052 50.0573 95.6683 50.0573 95.9898C50.0573 96.3132 49.7945 96.5743 49.4713 96.5743ZM45.5777 96.5743H29.0844C28.9306 96.5743 28.7787 96.512 28.6717 96.4028C28.5626 96.2935 28.5004 96.1437 28.5004 95.9898V44.3022C28.5004 43.9807 28.7612 43.7177 29.0844 43.7177C29.4056 43.7177 29.6684 43.9807 29.6684 44.3022V95.4052L45.5777 95.4072C45.9009 95.4072 46.1617 95.6683 46.1617 95.9898C46.1617 96.3132 45.9009 96.5743 45.5777 96.5743ZM25.584 88.7667C25.2628 88.7667 25 88.5037 25 88.1822C25 87.8609 25.2628 87.5976 25.584 87.5976C25.9053 87.5976 26.1681 87.8609 26.1681 88.1822C26.1681 88.5037 25.9053 88.7667 25.584 88.7667ZM25.584 84.8697C25.2628 84.8697 25 84.6086 25 84.2852V28.0499C25 27.8959 25.0623 27.7459 25.1713 27.6368C25.2803 27.5277 25.4302 27.4653 25.584 27.4653H29.0844C29.2362 27.4653 29.3881 27.5277 29.4971 27.6368C29.6061 27.7459 29.6684 27.8959 29.6684 28.0499V36.5083C29.6684 36.8317 29.4056 37.0928 29.0844 37.0928C28.7612 37.0928 28.5004 36.8317 28.5004 36.5083V28.6344H26.1681V84.2832V84.2852C26.1681 84.6086 25.9053 84.8697 25.584 84.8697ZM29.0844 40.9898C28.7612 40.9898 28.5004 40.7287 28.5004 40.4052C28.5004 40.0837 28.7612 39.8207 29.0844 39.8207C29.4056 39.8207 29.6684 40.0837 29.6684 40.4052C29.6684 40.7287 29.4056 40.9898 29.0844 40.9898Z" fill="white"/>
<path d="M64.0275 85.1906H64.0256C61.3176 85.1906 58.6933 84.6528 56.2228 83.5909C55.9269 83.4642 55.7887 83.1194 55.9172 82.8232C56.0087 82.6071 56.2189 82.4688 56.4545 82.4688C56.5324 82.4688 56.6102 82.4841 56.6842 82.5175C59.0067 83.5149 61.4772 84.0217 64.0275 84.0217C68.9997 84.0217 73.6761 82.083 77.194 78.564C80.7099 75.0448 82.647 70.3646 82.647 65.3881C82.647 60.4115 80.7099 55.7314 77.194 52.2105C73.6761 48.6915 68.9997 46.7528 64.0275 46.7528C59.0554 46.7528 54.3813 48.6915 50.8633 52.2105C47.3454 55.7314 45.4103 60.4117 45.4103 65.3881C45.4103 70.1872 47.2286 74.7465 50.5323 78.2248C50.6374 78.3339 50.6939 78.4781 50.6939 78.6279C50.6939 78.7896 50.6296 78.9398 50.5109 79.0509C50.2851 79.267 49.9015 79.2575 49.6854 79.0312C46.1754 75.335 44.2402 70.4891 44.2422 65.3879C44.2422 62.7146 44.7639 60.1212 45.7957 57.6797C46.7925 55.3201 48.2195 53.2021 50.0378 51.3841C51.8542 49.5662 53.9704 48.138 56.326 47.1403C58.7653 46.1076 61.3565 45.5835 64.0275 45.5835C66.6988 45.5835 69.2898 46.1076 71.7293 47.1403C74.0869 48.138 76.2028 49.5662 78.0194 51.3841C79.8358 53.2021 81.2628 55.3201 82.2595 57.6797C83.2914 60.1212 83.815 62.7146 83.815 65.3879C83.815 68.0612 83.2914 70.6545 82.2595 73.0961C81.2628 75.454 79.8358 77.5718 78.0194 79.3898C76.203 81.2096 74.0871 82.6379 71.7293 83.6336C69.2899 84.6665 66.6988 85.1906 64.0275 85.1906ZM53.0575 81.7476C52.9368 81.7476 52.8219 81.7106 52.7227 81.6424C52.5961 81.5528 52.5105 81.4201 52.4832 81.2644C52.454 81.1124 52.489 80.9565 52.5786 80.8279C52.6876 80.6721 52.8667 80.5787 53.0575 80.5787C53.1782 80.5787 53.2931 80.6155 53.3904 80.6839C53.6552 80.8669 53.7214 81.2332 53.5364 81.4984C53.4274 81.6541 53.2483 81.7476 53.0575 81.7476Z" fill="#141517"/>
<path d="M69.0303 73.5571C68.9273 73.5571 68.8259 73.5296 68.7364 73.4772C68.5553 73.37 68.4463 73.1808 68.4463 72.9725V70.0985C68.4463 69.8881 68.5592 69.6932 68.7424 69.59L76.1558 65.389L68.7424 61.1881C68.5594 61.0848 68.4463 60.89 68.4463 60.6795V57.8055C68.4463 57.5951 68.5534 57.4061 68.7364 57.3009C68.9135 57.1976 69.1394 57.1956 69.3165 57.297L80.1699 63.4425C80.3527 63.5458 80.4658 63.7426 80.4658 63.951V66.8251C80.4658 67.0353 80.3529 67.2302 80.1699 67.3334L69.3165 73.4809C69.2289 73.5296 69.1294 73.5571 69.0303 73.5571ZM69.6144 70.4395V71.9691L79.2978 66.4843V64.2922L69.6144 58.8072V60.3387L77.6294 64.8807C77.8124 64.9839 77.9255 65.1788 77.9255 65.3892C77.9255 65.5975 77.8126 65.7924 77.6294 65.8976L69.6144 70.4395Z" fill="#141517"/>
<path d="M59.0263 73.5571C58.9251 73.5571 58.8258 73.5296 58.7382 73.4809L47.8867 67.3334C47.7037 67.2302 47.5889 67.0353 47.5889 66.8251V63.951C47.5889 63.7404 47.7037 63.5456 47.8867 63.4425L58.7382 57.297C58.9154 57.1956 59.1431 57.1976 59.3203 57.3009C59.5013 57.4061 59.6104 57.5951 59.6104 57.8055V60.6795C59.6104 60.888 59.4955 61.0848 59.3145 61.1881L51.8991 65.389L59.3145 69.59C59.4955 69.6932 59.6104 69.8881 59.6104 70.0985V72.9725C59.6104 73.1808 59.5013 73.37 59.3203 73.4772C59.2307 73.5296 59.1276 73.5571 59.0263 73.5571ZM48.7569 66.4841L58.4423 71.9689V70.4393L50.4273 65.8972C50.2443 65.792 50.1314 65.5971 50.1314 65.3888C50.1314 65.1784 50.2443 64.9835 50.4273 64.8803L58.4423 60.3384V58.8088L48.7569 64.292V66.4841Z" fill="#141517"/>
<path d="M60.1925 76.6162C60.1244 76.6162 60.0582 76.6043 59.994 76.5809C59.8479 76.5283 59.7292 76.4213 59.663 76.2789C59.5968 76.1386 59.589 75.9788 59.6435 75.8327L67.3139 54.5474C67.3976 54.3156 67.6176 54.1616 67.8647 54.1616C67.9311 54.1616 67.9972 54.1733 68.0615 54.1967C68.3652 54.3058 68.5229 54.6409 68.4139 54.9449L60.7415 76.2282C60.6578 76.4601 60.4378 76.6162 60.1925 76.6162Z" fill="#141517"/>
</svg>
