<svg width="122" height="122" viewBox="0 0 122 122" fill="none" xmlns="http://www.w3.org/2000/svg">
<path d="M33.4741 82.1715C31.2255 82.1715 29.0423 81.7239 26.9899 80.8422C25.0071 79.9902 23.2247 78.772 21.6954 77.2179C20.1661 75.6659 18.9637 73.8571 18.1263 71.8449C17.2573 69.7599 16.8164 67.5444 16.8164 65.2604C16.8164 65.0912 16.8839 64.9262 17.002 64.8065C17.1202 64.6864 17.2826 64.6182 17.4492 64.6182H40.9055C41.2556 64.6182 41.5383 64.9071 41.5383 65.2604C41.5383 65.6155 41.2556 65.9025 40.9055 65.9025H18.0947C18.2508 69.8306 19.8476 73.5251 22.5898 76.31C25.4986 79.2598 29.363 80.8846 33.4741 80.8869C37.5853 80.8846 41.4497 79.2598 44.3564 76.31C47.1577 73.4675 48.7566 69.6891 48.8599 65.6754C48.7629 65.5598 48.7102 65.4123 48.7102 65.2604C48.7102 64.9071 48.9949 64.6182 49.343 64.6182H49.4991C49.6657 64.6182 49.8281 64.6864 49.9462 64.8065C50.0623 64.9264 50.1298 65.0912 50.1298 65.2604C50.1298 67.5444 49.691 69.7599 48.8219 71.8449C47.9824 73.8569 46.7822 75.6659 45.2529 77.2179C43.7236 78.772 41.9412 79.99 39.9584 80.8422C37.9038 81.7239 35.7227 82.1715 33.4741 82.1715ZM45.1242 65.9027C44.7762 65.9027 44.4914 65.6157 44.4914 65.2606C44.4914 64.9074 44.7762 64.6184 45.1242 64.6184C45.4744 64.6184 45.757 64.9074 45.757 65.2606C45.757 65.6157 45.4744 65.9027 45.1242 65.9027Z" fill="#FF4D40"/>
<path d="M23.406 65.9023C23.3301 65.9023 23.2542 65.8893 23.1824 65.8617C23.0242 65.8017 22.8998 65.6819 22.8302 65.5256C22.7606 65.3695 22.7542 65.1938 22.8154 65.0333L32.8814 38.0378C32.9742 37.7895 33.2125 37.6226 33.4741 37.6226C33.7357 37.6226 33.974 37.7917 34.0668 38.04L44.0294 65.0354C44.0885 65.1959 44.0821 65.3715 44.0125 65.528C43.9429 65.684 43.8164 65.8017 43.6582 65.8619C43.5864 65.8897 43.5126 65.9026 43.4367 65.9026C43.1751 65.9026 42.9368 65.7356 42.8439 65.4873L33.4699 40.0866L23.9988 65.4894C23.906 65.7375 23.6676 65.9023 23.406 65.9023Z" fill="#FF4D40"/>
<path d="M88.814 82.1692C86.5633 82.1692 84.3822 81.7239 82.3298 80.8422C80.3451 79.9902 78.5645 78.772 77.0352 77.2179C75.5059 75.6659 74.3036 73.8571 73.4641 71.8449C72.5971 69.7599 72.1562 67.5444 72.1562 65.2604C72.1562 65.0912 72.2238 64.9262 72.3419 64.8065C72.46 64.6864 72.6224 64.6182 72.7891 64.6182H96.2453C96.5931 64.6182 96.8781 64.9071 96.8781 65.2604C96.8781 65.6155 96.5931 65.9025 96.2453 65.9025H73.4345C73.5906 69.8306 75.1876 73.5251 77.9298 76.31C80.8363 79.2598 84.7028 80.8846 88.8142 80.8869C92.9233 80.8846 96.79 79.2598 99.6965 76.31C102.498 73.4675 104.097 69.6891 104.2 65.6754C104.103 65.5598 104.05 65.4123 104.05 65.2604C104.05 64.9071 104.335 64.6182 104.683 64.6182H104.837C105.004 64.6182 105.166 64.6864 105.284 64.8065C105.402 64.9264 105.47 65.0912 105.47 65.2604C105.47 67.5444 105.029 69.7599 104.162 71.8449C103.323 73.8569 102.122 75.6659 100.591 77.2179C99.0615 78.772 97.2812 79.99 95.2963 80.8422C93.2437 81.7239 91.0626 82.1692 88.814 82.1692ZM100.464 65.9027C100.116 65.9027 99.8313 65.6157 99.8313 65.2606C99.8313 64.9074 100.116 64.6184 100.464 64.6184C100.812 64.6184 101.097 64.9074 101.097 65.2606C101.097 65.6157 100.812 65.9027 100.464 65.9027Z" fill="#FF4D40"/>
<path d="M78.7455 65.9023C78.6695 65.9023 78.5934 65.8893 78.5217 65.8617C78.3635 65.8017 78.2369 65.6819 78.1694 65.5256C78.0998 65.3696 78.0934 65.1938 78.1525 65.0333L88.2206 38.0378C88.3132 37.7895 88.5515 37.6226 88.8133 37.6226C89.0751 37.6226 89.3132 37.7917 89.4039 38.04L99.3686 65.0354C99.491 65.3674 99.3243 65.7375 98.9974 65.8617C98.6765 65.9837 98.3013 65.8082 98.1831 65.4871L88.8093 40.0886L79.3382 65.4849C79.3382 65.4871 79.3382 65.4871 79.3382 65.4892C79.2452 65.7375 79.0068 65.9023 78.7455 65.9023Z" fill="#FF4D40"/>
<path d="M95.2809 38.9069H70.8077C70.4599 38.9069 70.1749 38.6179 70.1749 38.2647C70.1749 37.9115 70.4599 37.6226 70.8077 37.6226H95.2809C95.6289 37.6226 95.9137 37.9115 95.9137 38.2647C95.9137 38.6179 95.6289 38.9069 95.2809 38.9069ZM52.4015 38.9069H27.918C27.5678 38.9069 27.2852 38.6179 27.2852 38.2647C27.2852 37.9115 27.5678 37.6226 27.918 37.6226H52.4015C52.7495 37.6226 53.0343 37.9115 53.0343 38.2647C53.0343 38.6179 52.7495 38.9069 52.4015 38.9069Z" fill="white"/>
<path d="M66.9859 91.6755H56.2196C56.0382 91.6755 55.8652 91.5963 55.745 91.4593C55.6248 91.3202 55.5678 91.1361 55.591 90.9541L58.078 70.8796C58.1202 70.5328 58.4408 70.2778 58.7846 70.3228C59.1306 70.3656 59.3774 70.6888 59.3331 71.0401L56.9368 90.3911H66.2687L61.5964 52.7568L60.3856 62.5416V62.5437C60.3688 62.6807 60.3097 62.8049 60.2169 62.9055L60.2085 62.8991L60.2148 62.9077L60.2127 62.9098C60.1768 62.9483 60.1367 62.9804 60.0967 63.0061L60.0924 63.0083L60.0735 63.019C59.9532 63.0896 59.8161 63.1196 59.679 63.1003C59.5567 63.0853 59.4427 63.034 59.3478 62.9526C59.2065 62.8306 59.1242 62.6529 59.1242 62.4645C59.1242 62.4389 59.1263 62.411 59.1306 62.3832L60.9678 47.5337C61.0079 47.2126 61.2779 46.9707 61.5962 46.9707C61.9149 46.9707 62.1847 47.2126 62.2248 47.5337L67.6143 90.9541C67.6356 91.1363 67.5805 91.3202 67.4605 91.4593C67.3403 91.5963 67.1673 91.6755 66.9859 91.6755ZM59.2318 67.3537C59.2065 67.3537 59.1791 67.3516 59.1517 67.3494C58.8057 67.3045 58.561 66.9834 58.6032 66.6321C58.6454 66.2832 58.9639 66.0306 59.3099 66.0736C59.6558 66.1186 59.9026 66.4397 59.8583 66.7907C59.8203 67.1118 59.5503 67.3537 59.2318 67.3537Z" fill="white"/>
<path d="M57.6224 95.8449C57.2722 95.8449 56.9875 95.558 56.9875 95.2027C56.9875 94.8495 57.2722 94.5605 57.6224 94.5605H80.6082V89.6069H67.4055L67.6103 90.9319C67.6398 91.1181 67.5871 91.3065 67.4666 91.4499C67.3466 91.5934 67.1715 91.6747 66.9859 91.6747H56.2133C56.0277 91.6747 55.8526 91.5934 55.7303 91.4499C55.61 91.3044 55.5573 91.116 55.5889 90.9298L55.7978 89.6066H42.5889V94.5603H49.1828C49.5329 94.5603 49.8156 94.8492 49.8156 95.2025C49.8156 95.2087 49.8156 95.2132 49.8156 95.2196C49.8072 95.5706 49.5287 95.8446 49.1828 95.8446H41.9561C41.7894 95.8446 41.627 95.7761 41.5089 95.6563C41.3907 95.5383 41.3232 95.3716 41.3232 95.2025V88.9645C41.3232 88.7953 41.3907 88.6305 41.5089 88.5106C41.627 88.3908 41.7894 88.3223 41.9561 88.3223H56.5403C56.7259 88.3223 56.901 88.406 57.0212 88.5494C57.1414 88.6907 57.1942 88.8812 57.1647 89.0674L56.9558 90.3903H66.2455L66.039 89.0655C66.0093 88.8793 66.062 88.6909 66.1824 88.5475C66.3048 88.4038 66.4799 88.3225 66.6655 88.3225H81.2415C81.4079 88.3225 81.5724 88.391 81.6908 88.5109C81.8068 88.6309 81.8743 88.7956 81.8743 88.9647V95.2027C81.8743 95.3739 81.8087 95.5366 81.6908 95.6565C81.5705 95.7783 81.4123 95.8449 81.2415 95.8449H57.6224ZM53.4015 95.8449C53.0535 95.8449 52.7687 95.558 52.7687 95.2027C52.7687 94.8495 53.0535 94.5605 53.4015 94.5605C53.7517 94.5605 54.0364 94.8495 54.0364 95.2027C54.0364 95.558 53.7517 95.8449 53.4015 95.8449Z" fill="white"/>
<path d="M26.3281 75.8498C26.2121 75.8498 26.0982 75.8177 25.9991 75.7556C24.6069 74.8887 23.4805 73.7265 22.6494 72.3007C22.0735 71.3138 21.8288 70.5175 21.7508 70.22C21.7487 70.2136 21.7487 70.2091 21.7487 70.2069C21.7466 70.2048 21.7466 70.2048 21.7466 70.2026C21.7086 70.0376 21.7339 69.8666 21.8225 69.721C21.909 69.5733 22.0482 69.4705 22.2127 69.4299C22.5481 69.3485 22.8962 69.5626 22.9763 69.9008C22.9785 69.903 22.9785 69.9072 22.9827 69.9201C22.9869 69.9393 22.9953 69.9672 23.008 70.0078C23.0396 70.117 23.0797 70.2326 23.124 70.3546C23.2274 70.6308 23.4088 71.0651 23.6935 71.5662C24.4255 72.8527 25.4232 73.8929 26.6593 74.6616C26.8027 74.7491 26.904 74.8904 26.9441 75.0576C26.9842 75.2245 26.9567 75.3979 26.8681 75.5437C26.7521 75.7364 26.5496 75.8498 26.3281 75.8498Z" fill="#FF4D40"/>
<path d="M33.4746 38.9068C33.1245 38.9068 32.8418 38.62 32.8418 38.2646V30.3443C32.8418 29.989 33.1245 29.7021 33.4746 29.7021C33.8227 29.7021 34.1074 29.989 34.1074 30.3443V38.2646C34.1074 38.62 33.8227 38.9068 33.4746 38.9068Z" fill="white"/>
<path d="M88.8135 38.9068C88.4633 38.9068 88.1807 38.62 88.1807 38.2646V30.3443C88.1807 29.989 88.4633 29.7021 88.8135 29.7021C89.1615 29.7021 89.4463 29.989 89.4463 30.3443V38.2646C89.4463 38.62 89.1615 38.9068 88.8135 38.9068Z" fill="white"/>
<path d="M61.603 44.5456C59.9492 44.5456 58.3946 43.8927 57.226 42.7068C56.0574 41.5209 55.4141 39.9432 55.4141 38.265C55.4141 36.5889 56.0574 35.0112 57.226 33.8253C58.3946 32.6394 59.9492 31.9844 61.603 31.9844C65.0138 31.9865 67.7898 34.8036 67.7919 38.265C67.7898 39.9432 67.1464 41.5209 65.9778 42.7068C64.8092 43.8927 63.2546 44.5456 61.603 44.5456ZM61.603 33.2688C58.8924 33.273 56.6839 35.5143 56.6797 38.265C56.6839 41.0157 58.8924 43.2569 61.603 43.2612C64.3114 43.2569 66.5201 41.0157 66.5263 38.265C66.5199 35.5143 64.3114 33.273 61.603 33.2688Z" fill="white"/>
<path d="M88.8141 87.8844C84.2325 87.8844 79.7902 86.5529 75.9659 84.0358C72.2386 81.5826 69.2771 78.1341 67.3955 74.0602C67.3238 73.9042 67.3153 73.7306 67.3725 73.57C67.4295 73.4073 67.5453 73.2791 67.6995 73.2061C67.7836 73.1657 67.8745 73.144 67.9674 73.144C68.212 73.144 68.4377 73.2898 68.5411 73.5144C72.2135 81.4625 80.1703 86.6 88.8124 86.6C97.4545 86.6 105.413 81.4647 109.086 73.5144C109.086 73.5144 109.086 73.5144 109.086 73.5122C109.191 73.2896 109.415 73.1462 109.659 73.1462C109.752 73.1462 109.843 73.1654 109.927 73.2059C110.244 73.3558 110.379 73.7389 110.231 74.06C108.349 78.1336 105.386 81.5824 101.661 84.0355C97.8359 86.5529 93.3935 87.8844 88.8141 87.8844Z" fill="white"/>
<path d="M33.4743 87.8851C28.8927 87.8851 24.4504 86.5536 20.6261 84.0365C16.9009 81.5833 13.9373 78.1348 12.0557 74.0609C11.984 73.9068 11.9755 73.7313 12.0325 73.5707C12.0916 73.408 12.2055 73.2798 12.3594 73.2068C12.4438 73.1664 12.5345 73.1447 12.6273 73.1447C12.872 73.1447 13.0977 73.2905 13.2011 73.5151C16.8756 81.4632 24.8322 86.6007 33.4722 86.6007C42.1164 86.6007 50.073 81.4653 53.7454 73.5151C53.7454 73.5151 53.7475 73.5151 53.7475 73.5129C53.8509 73.2903 54.0744 73.1445 54.3191 73.1445C54.4119 73.1445 54.5027 73.1662 54.587 73.2066C54.741 73.2796 54.857 73.4078 54.914 73.5705C54.9709 73.7311 54.9646 73.9047 54.8929 74.0607C53.0113 78.1343 50.0477 81.5831 46.3225 84.0362C42.4982 86.5536 38.0537 87.8851 33.4743 87.8851Z" fill="white"/>
<path d="M61.6032 48.2545C60.2743 48.2545 58.9834 47.9912 57.7705 47.4711C56.5977 46.968 55.5451 46.2466 54.6402 45.3304C53.7374 44.4121 53.0265 43.3439 52.5308 42.1537C52.0182 40.9229 51.7588 39.615 51.7588 38.2642C51.7588 36.9156 52.0182 35.6077 52.5308 34.3768C53.0265 33.1867 53.7374 32.1185 54.6402 31.2002C55.5451 30.284 56.5977 29.5626 57.7705 29.0595C58.9834 28.5372 60.2743 28.2739 61.6032 28.2739C62.9321 28.2739 64.221 28.5372 65.4339 29.0595C66.6046 29.5626 67.6571 30.284 68.56 31.2002C69.4626 32.1185 70.1734 33.1867 70.6693 34.3768C71.1819 35.6077 71.4412 36.9156 71.4412 38.2642C71.4412 39.615 71.1819 40.9229 70.6693 42.1537C70.1734 43.3439 69.4626 44.4121 68.56 45.3304C67.6571 46.2466 66.6044 46.9659 65.4339 47.4689C64.221 47.9912 62.9319 48.2545 61.6032 48.2545ZM61.6032 29.5583C59.3103 29.5583 57.1567 30.4638 55.5346 32.1099C53.9167 33.7539 53.0244 35.9416 53.0244 38.2642C53.0244 40.5911 53.9167 42.7767 55.5346 44.4207C57.1546 46.0647 59.3103 46.9701 61.6032 46.9701C63.894 46.9701 66.0458 46.0647 67.6656 44.4207C69.2835 42.7767 70.1755 40.5911 70.1755 38.2642C70.1755 35.9395 69.2835 33.7539 67.6656 32.1099C66.0456 30.4638 63.8919 29.5583 61.6032 29.5583Z" fill="white"/>
<path d="M61.6025 38.9069C61.2545 38.9069 60.9697 38.6179 60.9697 38.2647V21.6471C60.9697 21.2939 61.2545 21.0049 61.6025 21.0049C61.9506 21.0049 62.2354 21.2939 62.2354 21.6471V38.2647C62.2354 38.6179 61.9506 38.9069 61.6025 38.9069Z" fill="#FF4D40"/>
<path d="M92.113 99.3922H82.851C82.5029 99.3922 82.2182 99.1054 82.2182 98.75C82.2182 98.397 82.5029 98.1078 82.851 98.1078H91.4802V95.8454H31.7197V98.1078H74.4135C74.7634 98.1078 75.0463 98.397 75.0463 98.75V98.7671C75.0379 99.1184 74.7594 99.3922 74.4135 99.3922H31.0869C30.9203 99.3922 30.7579 99.3239 30.6397 99.2038C30.5216 99.0861 30.4541 98.9191 30.4541 98.75V95.2032C30.4541 95.0341 30.5216 94.8691 30.6397 94.7494C30.7579 94.6293 30.9203 94.561 31.0869 94.561H92.1133C92.2799 94.561 92.4444 94.6293 92.5604 94.7494C92.6788 94.8693 92.7461 95.0341 92.7461 95.2032V98.75C92.7461 98.9215 92.6807 99.0842 92.5604 99.2038C92.4423 99.3261 92.282 99.3922 92.113 99.3922ZM78.6322 99.3922C78.2842 99.3922 77.9994 99.1054 77.9994 98.75C77.9994 98.397 78.2842 98.1078 78.6322 98.1078C78.9822 98.1078 79.265 98.397 79.265 98.75C79.265 99.1056 78.9822 99.3922 78.6322 99.3922Z" fill="white"/>
</svg>
