<svg width="122" height="122" viewBox="0 0 122 122" fill="none" xmlns="http://www.w3.org/2000/svg">
<path d="M102.797 106.064H29.125C28.9553 106.064 28.7898 105.996 28.6695 105.877C28.5492 105.758 28.4805 105.595 28.4805 105.427V103.92C28.4805 103.57 28.7705 103.283 29.125 103.283C29.4795 103.283 29.7695 103.57 29.7695 103.92V104.789H102.153V50.9715C102.153 50.6188 102.443 50.334 102.797 50.334C103.152 50.334 103.442 50.6188 103.442 50.9673C103.442 50.9694 103.442 50.9694 103.442 50.9715C103.442 50.9779 103.442 50.9864 103.442 50.9949V105.427C103.442 105.597 103.375 105.756 103.255 105.877C103.132 105.998 102.969 106.064 102.797 106.064ZM29.125 100.308C28.7705 100.308 28.4805 100.023 28.4805 99.6702C28.4805 99.3195 28.7705 99.0327 29.125 99.0327C29.4795 99.0327 29.7695 99.3195 29.7695 99.6702C29.7695 100.023 29.4795 100.308 29.125 100.308ZM29.125 96.0577C28.7705 96.0577 28.4805 95.7729 28.4805 95.4202V21.1727C28.4805 21.0048 28.5492 20.8412 28.6695 20.7222C28.7898 20.6032 28.9553 20.5352 29.125 20.5352H29.2539C29.6084 20.5352 29.8984 20.822 29.8984 21.1727C29.8984 21.3108 29.8533 21.4425 29.7695 21.553V95.4202C29.7695 95.7729 29.4795 96.0577 29.125 96.0577ZM102.797 47.3654C102.443 47.3654 102.153 47.0785 102.153 46.7279C102.153 46.3752 102.443 46.0904 102.797 46.0904C103.152 46.0904 103.442 46.3752 103.442 46.7237C103.442 46.7258 103.442 46.7258 103.442 46.7279C103.442 47.0785 103.154 47.3654 102.797 47.3654ZM102.797 43.1197C102.443 43.1197 102.153 42.8349 102.153 42.4822V40.5123L83.2463 21.8165L37.8477 21.8102C37.491 21.8102 37.2031 21.5254 37.2031 21.1727C37.2031 20.822 37.491 20.5352 37.8477 20.5352L83.5127 20.5415C83.6824 20.5415 83.8478 20.6095 83.9682 20.7285L103.253 39.7962C103.375 39.9173 103.442 40.0767 103.442 40.2467C103.442 41.0053 103.442 41.749 103.442 42.4822C103.442 42.8349 103.154 43.1197 102.797 43.1197ZM33.5508 21.8102C33.1941 21.8102 32.9062 21.5254 32.9062 21.1727C32.9062 20.822 33.1941 20.5352 33.5508 20.5352C33.9053 20.5352 34.1953 20.822 34.1953 21.1727C34.1953 21.5254 33.9053 21.8102 33.5508 21.8102Z" fill="white"/>
<path d="M102.79 40.885H83.5127C83.343 40.885 83.1754 40.817 83.0572 40.698C82.9367 40.5811 82.8682 40.4154 82.8682 40.2475V21.1799C82.8682 20.9206 83.0229 20.6911 83.2656 20.5912C83.5041 20.4935 83.7855 20.5487 83.9684 20.7294L103.246 39.797C103.431 39.9797 103.487 40.2517 103.386 40.4919C103.285 40.732 103.053 40.885 102.79 40.885ZM84.1572 39.61H101.233L84.1572 22.7184V39.61Z" fill="white"/>
<path d="M29.1246 100.94H24.1639C23.9963 100.94 23.8287 100.873 23.7084 100.753C23.5902 100.634 23.5215 100.471 23.5215 100.303V30.8347C23.5215 30.4819 23.8094 30.1972 24.1639 30.1972C24.5205 30.1972 24.8084 30.4819 24.8084 30.8347V99.6655H28.4801V69.3397C28.4801 68.9892 28.7701 68.7022 29.1246 68.7022C29.4791 68.7022 29.7691 68.9892 29.7691 69.3397V100.303C29.7691 100.473 29.7025 100.633 29.5801 100.754C29.4576 100.875 29.2965 100.94 29.1246 100.94ZM29.1246 65.7269C28.7701 65.7269 28.4801 65.4401 28.4801 65.0894C28.4801 64.739 28.7701 64.4519 29.1246 64.4519C29.4791 64.4519 29.7691 64.739 29.7691 65.0894C29.7691 65.4403 29.4791 65.7269 29.1246 65.7269ZM29.1246 61.4772C28.7701 61.4772 28.4801 61.1903 28.4801 60.8397V21.1723C28.4801 21.0044 28.5488 20.8387 28.6691 20.7218C28.7895 20.6028 28.9549 20.5348 29.1246 20.5348L64.215 20.539C64.5695 20.539 64.8596 20.8259 64.8596 21.1765V21.1808C64.8574 21.5187 64.5889 21.797 64.2473 21.814C64.2365 21.814 64.2256 21.814 64.215 21.814L29.7691 21.8098V60.8397C29.7691 61.1903 29.4791 61.4772 29.1246 61.4772ZM24.1639 27.22C23.8094 27.22 23.5215 26.9353 23.5215 26.5825C23.5215 26.2319 23.8094 25.9472 24.1639 25.9472C24.5205 25.9472 24.8084 26.2319 24.8084 26.5825C24.8084 26.9353 24.5205 27.22 24.1639 27.22ZM24.1639 22.9722C23.8094 22.9722 23.5215 22.6853 23.5215 22.3347V17.6937C23.5215 17.5258 23.5902 17.36 23.7084 17.2432C23.8287 17.1242 23.9941 17.0562 24.1639 17.0562H81.8709C82.2104 17.0562 82.4939 17.3197 82.5133 17.6554L82.7195 21.1425C82.7303 21.3168 82.6658 21.4889 82.5455 21.6164C82.423 21.7439 82.2533 21.8162 82.0769 21.8162H72.8086C72.4519 21.8162 72.164 21.5293 72.164 21.1787C72.164 20.8259 72.4519 20.5412 72.8086 20.5412H81.3937L81.2629 18.3312H24.8084V22.3347C24.8084 22.6853 24.5205 22.9722 24.1639 22.9722ZM68.5119 21.814C68.34 21.814 68.1768 21.7482 68.0564 21.627C67.9342 21.508 67.8674 21.3465 67.8674 21.1765C67.8674 20.8259 68.1553 20.539 68.5098 20.539C68.6838 20.539 68.8449 20.607 68.9674 20.726C69.0898 20.8472 69.1564 21.0065 69.1564 21.1765C69.1564 21.5293 68.8664 21.814 68.5119 21.814Z" fill="white"/>
<path d="M24.1643 97.8893H19.6375C19.4699 97.8893 19.3023 97.8232 19.182 97.7044C19.0639 97.5852 18.9951 97.4196 18.9951 97.2539V27.3541C18.9951 27.0035 19.283 26.7188 19.6375 26.7188C19.9941 26.7188 20.2842 27.0035 20.2842 27.3541L20.282 96.6143H23.5197V63.0563C23.5197 62.7056 23.8098 62.4188 24.1643 62.4188C24.5209 62.4188 24.8109 62.7056 24.8109 63.0563V97.2539C24.8109 97.4239 24.7422 97.5833 24.6197 97.7044C24.4994 97.8232 24.3361 97.8893 24.1643 97.8893ZM24.1643 59.4438C23.8098 59.4438 23.5197 59.1569 23.5197 58.8063C23.5197 58.4556 23.8098 58.1688 24.1643 58.1688C24.5209 58.1688 24.8109 58.4556 24.8109 58.8063C24.8109 59.1569 24.5209 59.4438 24.1643 59.4438ZM24.1643 55.1938C23.8098 55.1938 23.5197 54.909 23.5197 54.5563V17.6939C23.5197 17.526 23.5885 17.3603 23.7088 17.2434C23.8291 17.1244 23.9945 17.0564 24.1643 17.0564H62.0906C62.4449 17.0564 62.7352 17.3411 62.7352 17.6939C62.7352 18.0445 62.4449 18.3314 62.0906 18.3314H24.8109V54.5563C24.8109 54.909 24.5209 55.1938 24.1643 55.1938ZM19.6375 23.7416C19.283 23.7416 18.9951 23.4569 18.9951 23.1041C18.9951 22.7535 19.283 22.4666 19.6375 22.4666C19.9941 22.4666 20.2842 22.7535 20.2842 23.1041C20.2842 23.4569 19.9941 23.7416 19.6375 23.7416ZM19.6375 19.4938C19.283 19.4938 18.9951 19.2069 18.9951 18.8541V14.6424C18.9951 14.4745 19.0639 14.3109 19.182 14.1919C19.3023 14.0729 19.4678 14.0049 19.6375 14.0049H78.9924C79.334 14.0049 79.6152 14.2684 79.6369 14.6041L79.8215 17.6556C79.8324 17.8299 79.7677 18.0041 79.6474 18.1295C79.525 18.257 79.3553 18.3314 79.1769 18.3314H70.6844C70.3299 18.3314 70.0398 18.0445 70.0398 17.6939C70.0398 17.3411 70.3299 17.0564 70.6844 17.0564H78.4939L78.3865 15.2799H20.2842V18.8541C20.2842 19.2069 19.9941 19.4938 19.6375 19.4938ZM66.3875 18.3314C66.033 18.3314 65.743 18.0445 65.743 17.6939C65.743 17.3411 66.033 17.0564 66.3875 17.0564C66.7418 17.0564 67.032 17.3411 67.032 17.6939C67.032 18.0445 66.7418 18.3314 66.3875 18.3314Z" fill="white"/>
<path d="M55.1471 31.6852H37.2119C36.8574 31.6852 36.5674 31.3983 36.5674 31.0477C36.5674 30.6949 36.8574 30.4102 37.2119 30.4102H55.1471C55.5016 30.4102 55.7916 30.6949 55.7916 31.0477C55.7916 31.3983 55.5016 31.6852 55.1471 31.6852Z" fill="#FF4D40"/>
<path d="M72.4912 31.6852H64.7031C64.3486 31.6852 64.0586 31.3983 64.0586 31.0477C64.0586 30.6949 64.3486 30.4102 64.7031 30.4102H72.4912C72.8455 30.4102 73.1357 30.6949 73.1357 31.0477C73.1357 31.3983 72.8457 31.6852 72.4912 31.6852Z" fill="#FF4D40"/>
<path d="M55.1471 37.2862H37.2119C36.8574 37.2862 36.5674 36.9994 36.5674 36.6487C36.5674 36.296 36.8574 36.0112 37.2119 36.0112H55.1471C55.5016 36.0112 55.7916 36.296 55.7916 36.6487C55.7916 36.9994 55.5016 37.2862 55.1471 37.2862Z" fill="#FF4D40"/>
<path d="M72.4916 37.2862H60.2197C59.8652 37.2862 59.5752 36.9994 59.5752 36.6487C59.5752 36.296 59.8652 36.0112 60.2197 36.0112H72.4916C72.8459 36.0112 73.1361 36.296 73.1361 36.6487C73.1361 36.9994 72.8461 37.2862 72.4916 37.2862Z" fill="#FF4D40"/>
<path d="M55.1471 46.7389H37.2119C36.8574 46.7389 36.5674 46.4541 36.5674 46.1014C36.5674 45.7507 36.8574 45.4639 37.2119 45.4639H55.1471C55.5016 45.4639 55.7916 45.7507 55.7916 46.1014C55.7916 46.4541 55.5016 46.7389 55.1471 46.7389Z" fill="#FF4D40"/>
<path d="M86.8813 46.7389H68.1211C67.7647 46.7389 67.4766 46.4541 67.4766 46.1014C67.4766 45.7507 67.7647 45.4639 68.1211 45.4639H86.8813C87.2357 45.4639 87.5258 45.7507 87.5258 46.1014C87.5258 46.4541 87.2357 46.7389 86.8813 46.7389Z" fill="#FF4D40"/>
<path d="M55.1471 54.2091H37.2119C36.8574 54.2091 36.5674 53.9222 36.5674 53.5716C36.5674 53.2188 36.8574 52.9341 37.2119 52.9341H55.1471C55.5016 52.9341 55.7916 53.2188 55.7916 53.5716C55.7916 53.9222 55.5016 54.2091 55.1471 54.2091Z" fill="#FF4D40"/>
<path d="M75.5617 54.2091H60.2197C59.8652 54.2091 59.5752 53.9222 59.5752 53.5716C59.5752 53.2188 59.8652 52.9341 60.2197 52.9341H75.5617C75.916 52.9341 76.2062 53.2188 76.2062 53.5716C76.2062 53.9222 75.9162 54.2091 75.5617 54.2091Z" fill="#FF4D40"/>
<path d="M86.8818 61.6817H68.9531C68.5965 61.6817 68.3086 61.3949 68.3086 61.0442C68.3086 60.6915 68.5965 60.4067 68.9531 60.4067H86.8818C87.2363 60.4067 87.5264 60.6915 87.5264 61.0442C87.5264 61.3949 87.2363 61.6817 86.8818 61.6817Z" fill="#FF4D40"/>
<path d="M49.8383 61.6817H37.2119C36.8574 61.6817 36.5674 61.3949 36.5674 61.0442C36.5674 60.6915 36.8574 60.4067 37.2119 60.4067H49.8383C50.1949 60.4067 50.4828 60.6915 50.4828 61.0442C50.4828 61.3949 50.1949 61.6817 49.8383 61.6817Z" fill="#FF4D40"/>
<path d="M55.1471 69.1503H37.2119C36.8574 69.1503 36.5674 68.8656 36.5674 68.5149C36.5674 68.1622 36.8574 67.8774 37.2119 67.8774H55.1471C55.5016 67.8774 55.7916 68.1622 55.7916 68.5149C55.7916 68.8656 55.5016 69.1503 55.1471 69.1503Z" fill="white"/>
<path d="M72.1371 69.1524H60.2197C59.8652 69.1524 59.5752 68.8656 59.5752 68.5149C59.5752 68.1622 59.8652 67.8774 60.2197 67.8774H72.1371C72.4916 67.8774 72.7816 68.1622 72.7816 68.5149C72.7816 68.8656 72.4916 69.1524 72.1371 69.1524Z" fill="white"/>
<path d="M95.1441 76.6217H77.209C76.8545 76.6217 76.5645 76.3369 76.5645 75.9842C76.5645 75.6336 76.8545 75.3467 77.209 75.3467H95.1439C95.4984 75.3467 95.7884 75.6336 95.7884 75.9842C95.7887 76.3369 95.4986 76.6217 95.1441 76.6217Z" fill="white"/>
<path d="M72.1365 76.6217H54.4355C54.0789 76.6217 53.791 76.3369 53.791 75.9842C53.791 75.6336 54.0789 75.3467 54.4355 75.3467H72.1365C72.491 75.3467 72.7811 75.6336 72.7811 75.9842C72.7811 76.3369 72.491 76.6217 72.1365 76.6217Z" fill="white"/>
<path d="M47.9477 76.6217H37.2119C36.8574 76.6217 36.5674 76.3369 36.5674 75.9842C36.5674 75.6336 36.8574 75.3467 37.2119 75.3467H47.9477C48.3043 75.3467 48.5922 75.6336 48.5922 75.9842C48.5922 76.3369 48.3043 76.6217 47.9477 76.6217Z" fill="white"/>
<path d="M63.7582 61.6817H57.4482C57.0937 61.6817 56.8037 61.3949 56.8037 61.0442C56.8037 60.6915 57.0937 60.4067 57.4482 60.4067H63.7582C64.1127 60.4067 64.4027 60.6915 64.4027 61.0442C64.4027 61.3949 64.1127 61.6817 63.7582 61.6817Z" fill="#FF4D40"/>
<path d="M86.8818 99.5074H68.9531C68.5965 99.5074 68.3086 99.2227 68.3086 98.8699C68.3086 98.5195 68.5965 98.2324 68.9531 98.2324H86.8818C87.2363 98.2324 87.5242 98.5195 87.5242 98.8699C87.5242 99.2229 87.2363 99.5074 86.8818 99.5074Z" fill="white"/>
<path d="M45.7025 99.5074H37.2119C36.8574 99.5074 36.5674 99.2227 36.5674 98.8699C36.5674 98.5195 36.8574 98.2324 37.2119 98.2324H45.7025C46.0592 98.2324 46.3471 98.5195 46.3471 98.8699C46.3471 99.2229 46.0592 99.5074 45.7025 99.5074Z" fill="white"/>
<path d="M55.1471 92.0357H37.2119C36.8574 92.0357 36.5674 91.7508 36.5674 91.3982C36.5674 91.0476 36.8574 90.7607 37.2119 90.7607H55.1471C55.5016 90.7607 55.7916 91.0476 55.7916 91.3982C55.7916 91.7508 55.5016 92.0357 55.1471 92.0357Z" fill="white"/>
<path d="M72.1371 92.0357H60.2197C59.8652 92.0357 59.5752 91.7508 59.5752 91.3982C59.5752 91.0476 59.8652 90.7607 60.2197 90.7607H72.1371C72.4916 90.7607 72.7816 91.0476 72.7816 91.3982C72.7816 91.7508 72.4916 92.0357 72.1371 92.0357Z" fill="white"/>
<path d="M55.1471 84.5655H37.2119C36.8574 84.5655 36.5674 84.2787 36.5674 83.928C36.5674 83.5753 36.8574 83.2905 37.2119 83.2905H55.1471C55.5016 83.2905 55.7916 83.5753 55.7916 83.928C55.7916 84.2787 55.5016 84.5655 55.1471 84.5655Z" fill="white"/>
<path d="M77.9207 84.5655H60.2197C59.8652 84.5655 59.5752 84.2787 59.5752 83.928C59.5752 83.5753 59.8652 83.2905 60.2197 83.2905H77.9207C78.2752 83.2905 78.5652 83.5753 78.5652 83.928C78.5652 84.2787 78.2752 84.5655 77.9207 84.5655Z" fill="white"/>
<path d="M95.144 84.5655H84.4082C84.0516 84.5655 83.7637 84.2787 83.7637 83.928C83.7637 83.5753 84.0516 83.2905 84.4082 83.2905H95.144C95.4984 83.2905 95.7885 83.5753 95.7885 83.928C95.7885 84.2787 95.4984 84.5655 95.144 84.5655Z" fill="white"/>
<path d="M63.7582 99.5074H57.4482C57.0937 99.5074 56.8037 99.2227 56.8037 98.8699C56.8037 98.5195 57.0937 98.2324 57.4482 98.2324H63.7582C64.1127 98.2324 64.4027 98.5195 64.4027 98.8699C64.4027 99.2229 64.1127 99.5074 63.7582 99.5074Z" fill="white"/>
</svg>
