<svg width="122" height="122" viewBox="0 0 122 122" fill="none" xmlns="http://www.w3.org/2000/svg">
<path d="M68.3864 99.3871H54.0555C53.8822 99.3871 53.7154 99.3165 53.5956 99.1945C51.8221 97.3826 50.1663 95.7182 48.7074 94.2509C43.3592 88.8726 39.8273 85.3195 37.395 81.6441C35.8226 79.2676 34.7594 76.8585 34.047 74.0627C33.3561 71.3395 32.9539 68.1434 32.7464 63.7023C32.7464 63.6895 32.7464 63.6788 32.7464 63.6681C32.7485 63.3258 33.0159 63.0455 33.3582 63.0306C33.7133 63.0113 34.0128 63.2873 34.0299 63.6403C34.4364 72.1588 35.5552 76.5229 38.4646 80.9362C40.7943 84.4681 44.3433 88.0385 49.7171 93.4444C51.0948 94.8328 52.6564 96.4051 54.3251 98.1037H68.1126C70.2349 95.8939 72.1517 93.9386 73.8415 92.2122C76.5712 89.429 78.7254 87.2299 80.5139 85.2275C80.7406 84.9732 81.1663 84.9494 81.4186 85.1764C81.5471 85.2919 81.6239 85.4481 81.6325 85.619C81.6432 85.7901 81.5854 85.9549 81.4699 86.0832C79.6515 88.1179 77.4909 90.3232 74.7569 93.1128C73.0155 94.8906 71.041 96.9036 68.8504 99.1883C68.7287 99.3143 68.5597 99.3871 68.3864 99.3871ZM83.7097 83.0087C83.5709 83.0087 83.438 82.9638 83.3268 82.8825C83.0422 82.6709 82.9845 82.2664 83.1965 81.984C83.1965 81.9818 83.1965 81.9818 83.1965 81.9818C83.4019 81.7102 83.8212 81.6481 84.0926 81.8535C84.3771 82.0629 84.4351 82.4675 84.2253 82.7496C84.2231 82.752 84.2231 82.752 84.2231 82.752C84.1033 82.9126 83.911 83.0087 83.7097 83.0087ZM85.9861 79.4107C85.8853 79.4107 85.785 79.3871 85.693 79.3401C85.4769 79.2286 85.3443 79.0085 85.3443 78.7667C85.3443 78.666 85.3676 78.5676 85.4149 78.4758C88.1724 73.1362 88.4569 66.7291 88.4524 53.3802C88.4524 51.4891 88.4482 49.4375 88.4417 47.2662C88.4332 44.8638 88.427 42.3801 88.4246 39.6418C85.6971 40.0077 83.0829 40.1938 80.6551 40.1938H80.6401C76.7402 40.1938 73.1591 39.7103 69.9928 38.7562C66.6662 37.755 63.695 36.2019 61.1598 34.1418C58.0536 36.1656 54.7698 37.7058 51.4005 38.7241C48.0119 39.7467 44.45 40.2644 40.8176 40.2644H40.8047C38.5393 40.2644 36.1904 40.0633 33.8243 39.6675C33.8243 41.4132 33.8222 43.0668 33.8201 44.6648C33.8179 46.3099 33.8158 47.8652 33.8158 49.3477C33.8158 51.7008 33.8222 53.5363 33.8329 55.1258C33.8372 55.4788 33.5505 55.7697 33.1975 55.7719H33.1911C32.8403 55.7719 32.5536 55.4873 32.5493 55.1365C32.5386 53.5406 32.5322 51.703 32.5322 49.3477C32.5322 47.8652 32.5344 46.3121 32.5365 44.667C32.5386 42.8293 32.5429 40.9297 32.5429 38.9038C32.5429 38.7113 32.6264 38.5316 32.774 38.4096C32.9173 38.2898 33.1141 38.2385 33.3002 38.2727C35.8524 38.7434 38.3767 38.983 40.8047 38.983C47.9648 38.9808 54.7078 36.9036 60.8474 32.8112C61.0806 32.655 61.4058 32.6743 61.6197 32.854C66.433 36.9271 72.6604 38.9081 80.6548 38.9102C83.2367 38.9102 86.0349 38.6942 88.9744 38.2684C89.1584 38.2406 89.3466 38.2963 89.4878 38.4182C89.6288 38.5401 89.708 38.7177 89.708 38.9038C89.708 41.9244 89.7165 44.7611 89.7251 47.264C89.7315 49.4354 89.7358 51.4869 89.7358 53.3802C89.7336 60.4633 89.6504 65.3301 89.2245 69.2535C89.0041 71.2922 88.6897 73.0444 88.2682 74.608C87.8359 76.2018 87.2778 77.6586 86.5568 79.062C86.446 79.278 86.2278 79.4107 85.9861 79.4107ZM33.2491 60.044C32.9025 60.044 32.6159 59.7616 32.6073 59.415C32.6052 59.2439 32.6672 59.0813 32.787 58.9572C32.9047 58.8331 33.0651 58.7647 33.2363 58.7604C33.5892 58.754 33.8845 59.0364 33.8909 59.3893C33.8951 59.5605 33.831 59.7231 33.7133 59.845C33.5935 59.9691 33.4331 60.0397 33.2619 60.044C33.2576 60.044 33.2534 60.044 33.2491 60.044Z" fill="white"/>
<path d="M28.5912 46.1083H18.0383C17.6831 46.1083 17.3965 45.8195 17.3965 45.4665C17.3965 45.1135 17.6831 44.8247 18.0383 44.8247H28.5912C28.9442 44.8247 29.233 45.1135 29.233 45.4665C29.233 45.8195 28.9442 46.1083 28.5912 46.1083Z" fill="white"/>
<path d="M28.5915 52.9764H12.6369C12.2839 52.9764 11.9951 52.6898 11.9951 52.3346C11.9951 51.9817 12.2839 51.6929 12.6369 51.6929H28.5915C28.9445 51.6929 29.2333 51.9817 29.2333 52.3346C29.2333 52.6898 28.9445 52.9764 28.5915 52.9764Z" fill="white"/>
<path d="M28.5912 59.8465H18.0383C17.6831 59.8465 17.3965 59.5599 17.3965 59.2048C17.3965 58.8518 17.6831 58.563 18.0383 58.563H28.5912C28.9442 58.563 29.233 58.8518 29.233 59.2048C29.233 59.5599 28.9442 59.8465 28.5912 59.8465Z" fill="white"/>
<path d="M28.5915 66.716H12.6369C12.2839 66.716 11.9951 66.4291 11.9951 66.0742C11.9951 65.7212 12.2839 65.4346 12.6369 65.4346H28.5915C28.9445 65.4346 29.2333 65.7212 29.2333 66.0742C29.2333 66.4291 28.9445 66.716 28.5915 66.716Z" fill="white"/>
<path d="M28.5912 73.5863H18.0383C17.6831 73.5863 17.3965 73.2975 17.3965 72.9445C17.3965 72.5896 17.6831 72.3027 18.0383 72.3027H28.5912C28.9442 72.3027 29.233 72.5896 29.233 72.9445C29.233 73.2977 28.9442 73.5863 28.5912 73.5863Z" fill="white"/>
<path d="M105.641 46.1083H95.09C94.7373 46.1083 94.4482 45.8195 94.4482 45.4665C94.4482 45.1135 94.7373 44.8247 95.09 44.8247H105.641C105.996 44.8247 106.283 45.1135 106.283 45.4665C106.283 45.8195 105.996 46.1083 105.641 46.1083Z" fill="white"/>
<path d="M111.042 52.9764H95.09C94.7373 52.9764 94.4482 52.6898 94.4482 52.3346C94.4482 51.9817 94.7373 51.6929 95.09 51.6929H111.042C111.395 51.6929 111.684 51.9817 111.684 52.3346C111.684 52.6898 111.395 52.9764 111.042 52.9764Z" fill="white"/>
<path d="M105.641 59.8465H95.09C94.7373 59.8465 94.4482 59.5599 94.4482 59.2048C94.4482 58.8518 94.7373 58.563 95.09 58.563H105.641C105.996 58.563 106.283 58.8518 106.283 59.2048C106.283 59.5599 105.996 59.8465 105.641 59.8465Z" fill="white"/>
<path d="M111.042 66.7147H95.09C94.7373 66.7147 94.4482 66.4278 94.4482 66.0751C94.4482 65.7199 94.7373 65.4312 95.09 65.4312H111.042C111.395 65.4312 111.684 65.7199 111.684 66.0751C111.684 66.4278 111.395 66.7147 111.042 66.7147Z" fill="white"/>
<path d="M105.641 73.5863H95.09C94.7373 73.5863 94.4482 73.2975 94.4482 72.9445C94.4482 72.5896 94.7373 72.3027 95.09 72.3027H105.641C105.996 72.3027 106.283 72.5896 106.283 72.9445C106.283 73.2977 105.996 73.5863 105.641 73.5863Z" fill="white"/>
<path d="M65.2261 60.5645C63.8741 60.5645 62.6032 60.0383 61.6493 59.082C60.6952 58.1279 60.1689 56.8572 60.1689 55.5052C60.1689 53.9136 60.5219 52.752 61.245 51.9519C61.8996 51.2267 62.8751 50.8438 64.0667 50.8438H64.09C66.5138 50.8587 69.4553 52.2065 72.2727 53.659C73.2182 54.1532 74.1253 54.6474 75.0002 55.1265C76.6177 56.0122 78.0123 56.7759 78.7912 57.0305C79.0864 57.1289 79.2702 57.4348 79.2212 57.7407C79.172 58.0488 78.8982 58.2798 78.588 58.2798C74.2196 58.2798 70.527 59.2895 68.084 59.957C67.7847 60.0383 67.5021 60.1153 67.2368 60.1859C66.3726 60.4105 65.7672 60.5581 65.2261 60.5645ZM64.1264 52.1273C64.1157 52.1273 64.103 52.1273 64.09 52.1273C63.2215 52.1316 62.6182 52.3498 62.1948 52.814C61.7028 53.351 61.4525 54.2559 61.4525 55.5052C61.4568 57.5824 63.1489 59.2767 65.2261 59.281C65.2324 59.281 65.2368 59.281 65.2433 59.281C65.5169 59.281 66.0926 59.1655 66.9098 58.9451C67.1707 58.8767 67.4553 58.7975 67.7569 58.7162C68.3816 58.5451 69.0875 58.3525 69.8705 58.1579C72.0865 57.6081 74.0228 57.2744 75.9588 57.1096C75.4668 56.8465 74.9427 56.5598 74.3886 56.2561C73.5198 55.779 72.6237 55.287 71.6824 54.7992C68.2979 53.0258 65.7567 52.1273 64.1264 52.1273Z" fill="#FF4D40"/>
<path d="M56.2966 60.5645C55.7575 60.5581 55.15 60.4105 54.2857 60.1859C54.0141 60.1132 53.7231 60.034 53.4172 59.9506C52.8011 59.7837 52.1037 59.5912 51.3421 59.4029C49.4018 58.9216 46.4175 58.2798 42.9348 58.2798C42.6182 58.2798 42.353 58.053 42.3016 57.7407C42.2503 57.4284 42.4321 57.131 42.7316 57.0305C43.5081 56.7759 44.9051 56.0122 46.5202 55.1287C47.3973 54.6495 48.3022 54.1532 49.2499 53.659C52.0673 52.2065 55.0109 50.8587 57.4326 50.8438H57.4583C58.6477 50.8438 59.6253 51.2267 60.2799 51.9497C61.0051 52.752 61.356 53.9136 61.356 55.5052C61.356 56.8572 60.8297 58.1279 59.8735 59.082C58.9194 60.0383 57.6486 60.5645 56.2966 60.5645ZM45.564 57.1096C48.9376 57.3963 51.7143 58.1557 53.7445 58.7098C54.0526 58.7954 54.3456 58.8745 54.613 58.9451C55.4474 59.1697 56.0335 59.2853 56.2966 59.281C58.376 59.2767 60.0703 57.5824 60.0724 55.5052C60.0724 54.2559 59.8221 53.351 59.3301 52.814C58.9065 52.3498 58.3033 52.1316 57.4326 52.1273C57.4219 52.1273 57.4091 52.1273 57.3984 52.1273C55.7661 52.1273 53.2247 53.0258 49.8404 54.7992C48.8969 55.287 47.9985 55.7812 47.1299 56.2582C46.578 56.562 46.0539 56.8486 45.564 57.1096Z" fill="#FF4D40"/>
<path d="M69.4103 88.0991C69.2266 88.0991 69.0509 88.0199 68.929 87.8828C68.8156 87.7525 68.7579 87.5876 68.7686 87.4165C68.7793 87.2453 68.8563 87.0892 68.9846 86.9758C74.705 81.9269 78.3184 78.6196 80.2478 75.2569C82.2031 71.8576 82.5732 68.1417 82.5753 62.4727C82.5753 60.2629 82.5133 57.6936 82.4427 54.72C82.3849 52.2428 82.3165 49.4382 82.2716 46.2742C81.7175 46.2892 81.1613 46.2978 80.6222 46.2978C76.9641 46.2978 73.5113 45.9255 70.358 45.1896C66.871 44.3767 63.6514 43.0974 60.7913 41.386C59.4093 42.1155 57.9846 42.7744 56.5577 43.3435C56.4807 43.3756 56.3994 43.3905 56.3181 43.3905C56.0549 43.3905 55.8196 43.2322 55.7234 42.9862C55.5907 42.6568 55.7533 42.2824 56.0806 42.1519C57.5781 41.555 59.067 40.8598 60.5067 40.0832C60.7057 39.9763 60.956 39.9848 61.1464 40.1025C66.4475 43.3606 73 45.0142 80.6222 45.0142C81.3624 45.0142 82.1218 44.9992 82.8791 44.9672C83.0545 44.9607 83.2192 45.0249 83.3457 45.1426C83.474 45.2645 83.5446 45.4271 83.5465 45.6004C83.5915 49.0275 83.6621 52.0331 83.7262 54.6858C83.7968 57.6658 83.8589 60.2393 83.8589 62.4727C83.8589 68.3621 83.461 72.2448 81.3602 75.8966C79.2809 79.4969 75.627 82.8171 69.836 87.9361C69.836 87.9361 69.836 87.9384 69.8339 87.9384C69.716 88.0413 69.5665 88.0991 69.4103 88.0991ZM39.1441 64.8518C38.7954 64.8518 38.513 64.578 38.5023 64.2271C38.4382 62.0322 38.4082 59.6512 38.4082 56.9451C38.4082 53.9009 38.4467 50.8033 38.4852 47.8062C38.4959 47.1024 38.5045 46.3985 38.513 45.6947C38.5152 45.5236 38.5879 45.3567 38.7098 45.2391C38.8339 45.1214 39.0051 45.0572 39.1762 45.0615C39.6768 45.0765 40.171 45.085 40.6416 45.085C43.1274 45.085 45.6004 44.8732 47.9921 44.4518C48.3386 44.3898 48.6745 44.6272 48.7344 44.9716C48.7408 45.0102 48.7451 45.0487 48.7451 45.085C48.743 45.3974 48.5205 45.6626 48.2146 45.7161C45.7523 46.1482 43.2044 46.3686 40.6416 46.3686C40.3635 46.3686 40.0768 46.3664 39.788 46.36C39.7816 46.8328 39.7773 47.3077 39.7709 47.7805C39.7324 50.7883 39.6918 53.8988 39.6918 56.9451C39.6918 59.6277 39.7217 61.998 39.7859 64.1907C39.7966 64.5437 39.5163 64.8411 39.1634 64.8518C39.1569 64.8518 39.1505 64.8518 39.1441 64.8518ZM52.2706 44.7684C51.9861 44.7684 51.7315 44.578 51.6545 44.3021C51.5561 43.9619 51.755 43.6068 52.0952 43.5105C52.431 43.4143 52.7947 43.6196 52.8888 43.9512C52.9851 44.2914 52.7862 44.6486 52.446 44.7449C52.3883 44.762 52.3284 44.7684 52.2706 44.7684Z" fill="white"/>
<path d="M60.6867 93.0599C60.3337 93.0599 60.0449 92.7711 60.0449 92.416V46.6273C60.0449 46.2722 60.3337 45.9834 60.6867 45.9834C61.0397 45.9834 61.3285 46.2722 61.3285 46.6273V92.416C61.3285 92.7711 61.0397 93.0599 60.6867 93.0599Z" fill="#FF4D40"/>
<path d="M60.6864 83.3498C60.0703 83.3498 59.4799 83.1659 58.9301 82.8065C58.4252 82.477 57.9632 81.9957 57.5909 81.4138C56.8465 80.252 56.4336 78.7181 56.4336 77.0989C56.4336 75.8689 56.6732 74.6752 57.1289 73.6481C56.6732 72.6234 56.4336 71.4275 56.4336 70.1934C56.4336 68.574 56.8465 67.0444 57.5909 65.8828C57.9632 65.3031 58.4252 64.8217 58.9301 64.4923C59.4799 64.1329 60.0703 63.9489 60.6864 63.9468C61.3025 63.9489 61.893 64.1329 62.4426 64.4923C62.9455 64.8217 63.4097 65.3031 63.7819 65.8828C64.5283 67.0446 64.9393 68.5761 64.9414 70.1934C64.9393 71.432 64.6997 72.6279 64.2483 73.6481C64.6997 74.6707 64.9393 75.8644 64.9414 77.0989C64.9393 78.7181 64.5283 80.252 63.7819 81.4138C63.4097 81.9957 62.9476 82.477 62.4426 82.8065C61.893 83.1659 61.3025 83.3498 60.6864 83.3498ZM60.6864 82.0663H60.6929C61.4245 82.0663 62.139 81.5892 62.7018 80.7186C63.3115 79.7792 63.6581 78.4593 63.6581 77.0989C63.6581 75.9523 63.4121 74.8292 62.965 73.935C62.8751 73.7551 62.8751 73.5411 62.965 73.3614C63.4121 72.4694 63.6581 71.3422 63.6581 70.1932C63.6581 68.8346 63.3115 67.517 62.7018 66.5779C62.1369 65.7093 61.4247 65.2301 60.6929 65.2301H60.6864H60.68C59.9484 65.2301 59.2339 65.7093 58.6713 66.5779C58.0616 67.5172 57.715 68.8348 57.715 70.1932C57.715 71.3377 57.9632 72.4627 58.4124 73.3614C58.5023 73.5411 58.5023 73.7551 58.4124 73.935C57.9632 74.8356 57.715 75.9587 57.715 77.0989C57.715 78.4593 58.0616 79.7773 58.6713 80.7186C59.2339 81.589 59.9484 82.0663 60.68 82.0663H60.6864Z" fill="#FF4D40"/>
<path d="M79.4219 40.1734C79.4176 40.1734 79.4112 40.1734 79.4071 40.1734C75.7766 40.0771 72.4329 39.5445 69.4638 38.5882C66.3533 37.5849 63.5595 36.0896 61.1592 34.1407C58.6007 35.8072 55.9202 37.1506 53.1926 38.1326C53.0258 38.1925 52.8461 38.1818 52.6899 38.1047C52.5316 38.0256 52.4139 37.8887 52.3626 37.7197C52.2257 37.2854 52.1572 36.8383 52.1572 36.3933C52.1572 35.3365 52.5402 34.3161 53.2333 33.5182C53.9178 32.7331 54.8591 32.2132 55.886 32.0592C55.886 32.0485 55.886 32.0421 55.886 32.0335C55.886 30.9917 56.256 29.9841 56.9278 29.1947C57.146 28.9359 57.5717 28.8995 57.8305 29.1199C58.1001 29.3488 58.1343 29.7552 57.9054 30.0248C57.4241 30.5938 57.1695 31.2869 57.1695 32.0335C57.1695 32.2004 57.1823 32.3694 57.2123 32.5491C57.2422 32.7352 57.1888 32.9235 57.0668 33.0668C56.9427 33.2101 56.7652 33.2914 56.5791 33.2914H56.5491C54.8377 33.2957 53.4451 34.6862 53.4408 36.3933C53.4408 36.4832 53.4451 36.5752 53.4536 36.6672C55.9822 35.6938 58.4702 34.3953 60.8469 32.8101C61.0801 32.6539 61.4052 32.6732 61.6192 32.8529C66.1416 36.6779 71.9026 38.6503 79.2295 38.8834C80.0211 38.293 80.4744 37.386 80.4767 36.3933C80.4744 35.5547 80.1428 34.7675 79.5397 34.1771C79.3814 34.0209 79.3128 33.7984 79.3598 33.5824C79.4157 33.3235 79.4435 33.0625 79.4435 32.7887C79.439 30.7264 77.762 29.0471 75.704 29.0428C75.2184 29.0428 74.7392 29.1391 74.2817 29.3252C74.072 29.4129 73.8174 29.3766 73.6375 29.2332C73.4578 29.0899 73.368 28.8567 73.4043 28.6278C73.4386 28.4203 73.4557 28.2171 73.4557 28.0267C73.4535 25.9687 71.7742 24.2916 69.7141 24.2894C68.4199 24.2894 67.2347 24.944 66.5416 26.0415C66.4239 26.2297 66.2207 26.341 65.9982 26.341C65.8806 26.341 65.765 26.3089 65.6626 26.2468C65.1812 25.9495 64.6208 25.7933 64.0432 25.7933H64.0389C62.5369 25.7933 61.2215 26.91 60.9774 28.3925C60.926 28.7048 60.6586 28.9316 60.3442 28.9316H60.2736C59.9206 28.9316 59.6318 28.6428 59.6318 28.2898C59.6318 28.1444 59.6789 28.0074 59.7687 27.8941C59.9912 26.9464 60.5346 26.0885 61.2983 25.4746C62.0727 24.8542 63.0482 24.5098 64.0429 24.5098C64.6569 24.5098 65.2473 24.6317 65.8014 24.8734C66.7598 23.6861 68.1848 23.0059 69.7141 23.0059C71.0298 23.0059 72.2727 23.5086 73.2139 24.422C74.1531 25.3334 74.6922 26.5506 74.7371 27.8534C75.0535 27.7914 75.3789 27.7593 75.7019 27.7593H75.704C77.0475 27.7593 78.3075 28.2834 79.2574 29.2332C80.205 30.1831 80.727 31.4452 80.727 32.7887C80.727 33.0326 80.7099 33.2764 80.6757 33.5118C81.3752 34.3118 81.7603 35.3344 81.7581 36.3933C81.7605 37.8823 81.018 39.2557 79.7751 40.0686C79.6702 40.137 79.5483 40.1734 79.4219 40.1734Z" fill="#FF4D40"/>
</svg>
