<svg width="122" height="122" viewBox="0 0 122 122" fill="none" xmlns="http://www.w3.org/2000/svg">
<path d="M64.0062 105.026C60.6786 105.024 57.9698 102.295 57.9678 98.9427V74.0988C57.9678 73.7538 58.2442 73.4753 58.5867 73.4753C58.9271 73.4753 59.2056 73.7538 59.2056 74.0988V95.2602C59.7544 94.5348 60.4702 93.9342 61.2727 93.5206C62.1268 93.0821 63.0449 92.8597 64.0062 92.8578H103.039C103.379 92.8578 103.658 93.1384 103.658 93.4813C103.658 93.8261 103.379 94.1048 103.039 94.1048H64.0062C62.7313 94.1048 61.5265 94.6099 60.6167 95.5264C59.7069 96.4429 59.2056 97.6567 59.2056 98.9429C59.2056 100.228 59.7069 101.441 60.6167 102.358C61.5265 103.274 62.7313 103.779 64.0062 103.779C64.3466 103.779 64.6252 104.06 64.6252 104.403C64.6252 104.745 64.3466 105.026 64.0062 105.026ZM103.059 89.9688C102.719 89.9688 102.44 89.6882 102.44 89.3453C102.44 89.0024 102.719 88.7218 103.059 88.7218C103.4 88.7218 103.678 89.0024 103.678 89.3453C103.678 89.6882 103.4 89.9688 103.059 89.9688ZM103.059 85.8122C102.719 85.8122 102.44 85.5337 102.44 85.1887V44.5328H72.1531C71.6002 45.3164 70.9401 46.129 70.1912 46.9478C69.372 47.8373 69.2154 49.0511 69.0318 50.456L69.0274 50.4851C68.8562 51.7653 68.6231 53.5153 67.2636 54.9867C66.3826 55.9407 65.1386 56.6868 63.4593 57.2687L63.3211 57.8486C63.3232 57.8527 63.3252 57.8548 63.3294 57.8569C63.4428 57.9732 63.5089 58.1333 63.5089 58.2975V69.8258C63.5089 69.9921 63.4449 70.148 63.3273 70.2664C63.2118 70.3847 63.055 70.4493 62.8899 70.4493H62.597C62.2545 70.4493 61.9781 70.1685 61.9781 69.8258C61.9781 69.6076 62.0874 69.4102 62.271 69.2936V58.8397C62.203 58.8002 62.1411 58.7483 62.0916 58.6838C61.974 58.5321 61.9306 58.3388 61.976 58.1518L62.335 56.6408C62.3866 56.4309 62.5434 56.2584 62.7476 56.194C65.7452 55.2131 66.6735 53.9515 67.1482 52.9643C67.5608 52.1039 67.6887 51.1479 67.8247 50.1378C67.8806 49.7305 67.9361 49.3107 68.0124 48.8908C68.1672 48.072 68.4498 47.012 69.2793 46.1038C70.0775 45.2309 70.7645 44.3747 71.3197 43.5558C71.4352 43.3875 71.6248 43.2856 71.8292 43.2856H103.059C103.222 43.2856 103.381 43.3522 103.497 43.4685C103.612 43.5828 103.678 43.745 103.678 43.9091V85.1885C103.678 85.5337 103.402 85.8122 103.059 85.8122ZM58.5867 70.5657C58.2442 70.5657 57.9678 70.2851 57.9678 69.9422C57.9678 69.5972 58.2442 69.3187 58.5867 69.3187C58.9271 69.3187 59.2056 69.5972 59.2056 69.9422C59.2056 70.2851 58.9271 70.5657 58.5867 70.5657ZM62.5766 46.9603C62.525 46.9603 62.4714 46.952 62.4198 46.9374C62.1475 46.8668 61.9597 46.6195 61.9597 46.3368V44.3853C61.9597 44.1317 62.1145 43.899 62.3476 43.8054C62.8138 43.6184 63.2924 43.4791 63.7711 43.3918C64.0062 43.3482 64.2517 43.448 64.3879 43.6433C64.5261 43.8408 64.5385 44.1047 64.4209 44.3146C64.1857 44.7282 63.9485 45.1522 63.7195 45.5637C63.5214 45.9191 63.3172 46.289 63.115 46.6444C63.0057 46.8398 62.7994 46.9603 62.5766 46.9603Z" fill="white"/>
<path d="M103.058 105.026H80.7447C80.4045 105.026 80.1258 104.745 80.1258 104.402C80.1258 104.059 80.4045 103.779 80.7447 103.779H102.439V94.1044H64.0053C62.7303 94.1044 61.5255 94.6094 60.6157 95.526C59.7059 96.4446 59.2046 97.6562 59.2046 98.9425C59.2046 100.227 59.7059 101.441 60.6157 102.357C61.5255 103.274 62.7303 103.779 64.0053 103.779H72.4926C72.835 103.779 73.1115 104.059 73.1115 104.402C73.1115 104.745 72.835 105.026 72.4926 105.026H64.0053C60.6776 105.024 57.9689 102.295 57.9668 98.9425C57.9689 95.5902 60.6776 92.8593 64.0053 92.8574H103.058C103.221 92.8574 103.38 92.9237 103.496 93.0403C103.611 93.1567 103.677 93.3167 103.677 93.4809V104.402C103.677 104.569 103.613 104.725 103.496 104.843C103.378 104.961 103.224 105.026 103.058 105.026ZM76.6186 105.026C76.2784 105.026 75.9997 104.745 75.9997 104.402C75.9997 104.059 76.2784 103.779 76.6186 103.779C76.9611 103.779 77.2375 104.059 77.2375 104.402C77.2375 104.745 76.9611 105.026 76.6186 105.026Z" fill="white"/>
<path d="M68.1997 97.7338C68.1914 97.7338 68.1832 97.7338 68.177 97.7338H65.7158C65.7137 97.7338 65.7137 97.7338 65.7117 97.7338C65.3713 97.7338 65.0928 97.4551 65.0928 97.1103C65.0928 96.7674 65.3713 96.4868 65.7117 96.4868H103.058C103.221 96.4868 103.38 96.5531 103.496 96.6697C103.612 96.7861 103.677 96.9461 103.677 97.1103C103.677 97.2766 103.613 97.4345 103.496 97.5507C103.378 97.6692 103.224 97.7338 103.058 97.7338H68.1997Z" fill="white"/>
<path d="M68.1997 101.445C68.1914 101.445 68.1832 101.445 68.177 101.445H65.7158C65.7137 101.445 65.7137 101.445 65.7117 101.445C65.3713 101.445 65.0928 101.167 65.0928 100.822C65.0928 100.479 65.3713 100.198 65.7117 100.198H103.058C103.221 100.198 103.38 100.265 103.496 100.381C103.612 100.498 103.677 100.658 103.677 100.822C103.677 100.988 103.613 101.146 103.496 101.262C103.378 101.381 103.224 101.445 103.058 101.445H68.1997Z" fill="white"/>
<path d="M95.8962 63.2515H68.9304C68.7675 63.2515 68.6086 63.185 68.4931 63.0686C68.3775 62.9523 68.3115 62.7922 68.3115 62.628V53.8056C68.3115 53.6414 68.3775 53.4814 68.4931 53.365C68.6088 53.2486 68.7675 53.1821 68.9304 53.1821H95.8962C96.0592 53.1821 96.2201 53.2486 96.3336 53.365C96.4491 53.4814 96.5152 53.6414 96.5152 53.8056V62.628C96.5152 62.7943 96.4512 62.9502 96.3336 63.0686C96.2179 63.1871 96.0631 63.2515 95.8962 63.2515ZM69.5493 62.0045H95.2773V54.4291H69.5493V62.0045Z" fill="#FF4D40"/>
<path d="M91.6565 66.475H73.1697C73.0046 66.475 72.8499 66.4106 72.7323 66.2921C72.6149 66.1737 72.5508 66.0178 72.5508 65.8515C72.5508 65.6873 72.6168 65.5273 72.7323 65.4109C72.8481 65.2945 73.0067 65.228 73.1697 65.228H91.6565C91.8194 65.228 91.9804 65.2945 92.0959 65.4109C92.2114 65.5275 92.2774 65.6873 92.2774 65.8515C92.2774 66.0178 92.2114 66.1737 92.0959 66.2921C91.9783 66.4106 91.8236 66.475 91.6565 66.475Z" fill="#FF4D40"/>
<path d="M91.6565 70.2514H73.1697C73.0046 70.2514 72.8499 70.187 72.7323 70.0706C72.6149 69.9521 72.5508 69.7942 72.5508 69.6279C72.5508 69.4637 72.6168 69.3037 72.7323 69.1873C72.8481 69.0709 73.0067 69.0044 73.1697 69.0044H91.6565C91.8194 69.0044 91.9804 69.0709 92.0959 69.1873C92.2114 69.3039 92.2774 69.4637 92.2774 69.6279C92.2774 69.7942 92.2114 69.9521 92.0959 70.0706C91.9783 70.187 91.8236 70.2514 91.6565 70.2514Z" fill="#FF4D40"/>
<path d="M91.6565 74.0356H73.1697C73.0046 74.0356 72.8499 73.969 72.7323 73.8527C72.6149 73.7342 72.5508 73.5783 72.5508 73.4121C72.5508 73.2479 72.6168 73.0858 72.7323 72.9715C72.8481 72.8551 73.0067 72.7886 73.1697 72.7886H91.6565C91.8194 72.7886 91.9804 72.8551 92.0959 72.9715C92.2114 73.0858 92.2774 73.2479 92.2774 73.4121C92.2774 73.5783 92.2114 73.7342 92.0959 73.8527C91.9783 73.9688 91.8236 74.0356 91.6565 74.0356Z" fill="#FF4D40"/>
<path d="M71.8889 34.5755H62.5785C62.4155 34.5755 62.2546 34.509 62.1411 34.3927C62.0256 34.2763 61.9595 34.1162 61.9595 33.9521V25.8383C61.9595 25.6741 62.0256 25.512 62.1411 25.3977C62.2546 25.2814 62.4155 25.2148 62.5785 25.2148H71.8889C72.0065 25.2148 72.1179 25.246 72.2169 25.3104L78.6432 29.3673C78.8248 29.4816 78.9321 29.679 78.9321 29.8952C78.9321 30.1113 78.8246 30.3088 78.6432 30.4231L72.2169 34.4799C72.1179 34.5423 72.0065 34.5755 71.8889 34.5755ZM63.1974 33.3286H71.7117L77.1478 29.8952L71.7117 26.4618H63.1974V33.3286ZM43.0395 33.6299C42.7074 33.6299 42.4289 33.3577 42.4206 33.023C42.3835 31.5952 41.2014 30.4356 39.7841 30.4356H39.78C39.1549 30.4356 38.5421 30.6642 38.0573 31.0819C37.8758 31.2378 37.6117 31.2752 37.3951 31.1754C37.1764 31.0736 37.0361 30.8512 37.0361 30.6081V25.8383C37.0361 25.6741 37.1022 25.512 37.2177 25.3977C37.3311 25.2814 37.4921 25.2148 37.655 25.2148H44.0793C44.3351 25.2148 44.56 25.3686 44.6549 25.6097C44.7477 25.8487 44.6879 26.1168 44.5022 26.2935C43.9658 26.7985 43.6584 27.5072 43.6584 28.2346V33.0064C43.6584 33.3452 43.3841 33.6258 43.0478 33.6299C43.0457 33.6299 43.0416 33.6299 43.0395 33.6299ZM39.78 29.1886C40.764 29.1886 41.7006 29.5606 42.4206 30.236V28.2346C42.4206 27.6215 42.5671 27.0084 42.8477 26.4618H38.2739V29.4962C38.7526 29.2925 39.2601 29.1886 39.78 29.1886ZM49.5608 28.775H49.5525C49.2204 28.775 48.9419 28.5027 48.9336 28.1681C48.915 27.4532 48.6159 26.7881 48.0898 26.2935C47.9042 26.1168 47.8443 25.8487 47.9372 25.6097C48.0321 25.3686 48.2569 25.2148 48.5127 25.2148H49.5525C49.7155 25.2148 49.8743 25.2814 49.9899 25.3977C50.1054 25.5141 50.1714 25.6741 50.1714 25.8383V28.1515C50.1714 28.4903 49.897 28.7708 49.5608 28.775Z" fill="#FF4D40"/>
<path d="M36.5267 34.5755H35.1404C34.9774 34.5755 34.8165 34.509 34.703 34.3927C34.5875 34.2763 34.5215 34.1162 34.5215 33.9521V25.8383C34.5215 25.6741 34.5875 25.512 34.703 25.3977C34.8165 25.2814 34.9753 25.2148 35.1404 25.2148H37.6552C37.8182 25.2148 37.9771 25.2814 38.0926 25.3977C38.2081 25.5141 38.2741 25.6741 38.2741 25.8383V30.6081C38.2741 30.7889 38.1957 30.9593 38.0616 31.0778C37.4716 31.5973 37.1457 32.3123 37.1457 33.0896V33.9521C37.1457 34.1162 37.0796 34.2763 36.9641 34.3927C36.8486 34.509 36.6897 34.5755 36.5267 34.5755ZM35.7572 33.3286H35.9078V33.0896C35.9078 32.0546 36.3081 31.0778 37.0363 30.3379V26.4618H35.7593L35.7572 33.3286Z" fill="#FF4D40"/>
<path d="M35.1397 34.5755H32.0451C30.0028 34.5735 28.34 32.8983 28.3379 30.8408V28.9496C28.34 26.892 30.0028 25.2169 32.0451 25.2148H35.1397C35.3006 25.2148 35.4615 25.2814 35.577 25.3977C35.6926 25.512 35.7586 25.6741 35.7586 25.8383V33.9521C35.7586 34.1162 35.6926 34.2763 35.577 34.3927C35.4615 34.509 35.3027 34.5755 35.1397 34.5755ZM32.0451 26.4618C30.6856 26.4639 29.5778 27.58 29.5757 28.9496V30.8408C29.5778 32.2104 30.6856 33.3265 32.0451 33.3286H34.5208V26.4618H32.0451Z" fill="#FF4D40"/>
<path d="M66.0095 34.5757C65.8445 34.5757 65.6856 34.5092 65.5701 34.3928C65.4566 34.2764 65.3906 34.1164 65.3906 33.9522V27.7297C65.3906 27.5655 65.4566 27.4055 65.5701 27.2891C65.8012 27.0564 66.2117 27.0543 66.4469 27.2891C66.5624 27.4076 66.6264 27.5635 66.6264 27.7297V33.9522C66.6264 34.1184 66.5622 34.2743 66.4469 34.3928C66.3291 34.5112 66.1744 34.5757 66.0095 34.5757Z" fill="#FF4D40"/>
<path d="M62.578 58.9208H45.2404C44.8979 58.9208 44.6214 58.6423 44.6214 58.2973C44.6214 57.9544 44.8979 57.6738 45.2404 57.6738H62.0891L62.3367 56.6409C62.3862 56.431 62.545 56.2606 62.7493 56.1941C65.7448 55.2131 66.6731 53.9516 67.1476 52.9644C67.5602 52.104 67.6881 51.1479 67.8241 50.1379C67.88 49.7326 67.9355 49.3107 68.0118 48.8909C68.1666 48.0721 68.4492 47.0142 69.2765 46.1039C70.5599 44.7031 71.5355 43.3688 72.1791 42.1385C72.7217 41.0993 73.0044 40.1703 72.9961 39.4512C72.994 38.8963 72.8476 38.489 72.5505 38.2022C72.2658 37.9299 71.8532 37.7907 71.3271 37.7886C70.995 37.7886 70.6339 37.8468 70.2543 37.9632C68.9154 38.3664 67.6366 39.4325 66.3472 41.224C65.4229 42.5022 64.5728 44.0318 63.7498 45.5116C63.5415 45.8836 63.3269 46.2702 63.1144 46.6443C62.9783 46.8853 62.6853 47.01 62.4192 46.9394C62.1469 46.8666 61.9591 46.6172 61.9591 46.3367V31.0985C61.9591 30.7556 62.2356 30.475 62.578 30.475C62.9184 30.475 63.1969 30.7556 63.1969 31.0985V43.9591C63.8427 42.8077 64.5503 41.594 65.3466 40.4904C66.8196 38.4516 68.2679 37.269 69.8979 36.7681C70.3928 36.6185 70.8735 36.5416 71.3275 36.5416H71.3358C72.1692 36.5416 72.8851 36.8035 73.4009 37.296C73.9434 37.8073 74.2387 38.5721 74.2343 39.4512C74.2178 41.4817 72.8562 44.0048 70.1908 46.9477C69.3716 47.8372 69.215 49.0509 69.0314 50.458L69.027 50.485C68.8581 51.7631 68.6227 53.5151 67.2632 54.9866C66.3843 55.9405 65.1382 56.6866 63.4589 57.2686L63.1784 58.4428C63.1124 58.7255 62.8648 58.9208 62.578 58.9208ZM41.1143 58.9208C40.7718 58.9208 40.4954 58.6423 40.4954 58.2973C40.4954 57.9544 40.7718 57.6738 41.1143 57.6738C41.4547 57.6738 41.7332 57.9544 41.7332 58.2973C41.7332 58.6423 41.4547 58.9208 41.1143 58.9208ZM37.8857 57.3725C37.6629 57.3725 37.4566 57.2519 37.3452 57.0566L35.9877 54.6312C35.934 54.5356 35.9072 54.4338 35.9072 54.3236V33.0895C35.9093 30.9406 37.6464 29.1906 39.7795 29.1886C40.7636 29.1886 41.7002 29.5606 42.4202 30.236V28.2346C42.4223 26.0856 44.1593 24.3357 46.2925 24.3336C47.2766 24.3357 48.2132 24.7077 48.9332 25.3832V24.4272C48.9352 22.2803 50.6723 20.5303 52.8055 20.5283C53.7895 20.5283 54.7262 20.9003 55.4461 21.5757V19.9068C55.4503 17.762 57.1873 16.0121 59.3184 16.0059C61.4537 16.0079 63.1949 17.7579 63.1969 19.9068V22.7832V22.7853C63.1969 23.1282 62.9184 23.4088 62.578 23.4088C62.2356 23.4088 61.9591 23.1282 61.9591 22.7853V19.9068C61.955 18.4458 60.7708 17.257 59.3184 17.2528C58.6232 17.2528 57.963 17.5334 57.4597 18.0426C56.9583 18.5476 56.684 19.2106 56.684 19.9068V24.3461C56.684 24.6849 56.4096 24.9634 56.0733 24.9675H56.0651C55.7329 24.9675 55.4544 24.6953 55.4461 24.3627C55.409 22.9349 54.2269 21.7752 52.8096 21.7752H52.8055C51.3552 21.7773 50.1731 22.9682 50.171 24.4272V28.1515C50.171 28.4902 49.8966 28.7708 49.5603 28.775H49.5521C49.2199 28.775 48.9414 28.5027 48.9332 28.1681C48.896 26.7424 47.7139 25.5806 46.2966 25.5806H46.2925C44.8422 25.5827 43.6601 26.7736 43.658 28.2346V33.0064C43.658 33.3452 43.3836 33.6257 43.0474 33.6299H43.0391C42.707 33.6299 42.4285 33.3576 42.4202 33.023C42.3851 31.5952 41.201 30.4355 39.7837 30.4355H39.7795C38.3292 30.4376 37.1492 31.6285 37.145 33.0895V54.1594L38.4241 56.4435C38.5912 56.7428 38.486 57.1231 38.1889 57.2935C38.0961 57.3455 37.9909 57.3725 37.8857 57.3725ZM62.578 27.5654C62.2356 27.5654 61.9591 27.2848 61.9591 26.9419C61.9591 26.5969 62.2356 26.3184 62.578 26.3184C62.9184 26.3184 63.1969 26.5969 63.1969 26.9419C63.1969 27.2848 62.9184 27.5654 62.578 27.5654Z" fill="white"/>
<path d="M62.8895 70.4487H36.5261C36.3632 70.4487 36.2043 70.3822 36.0888 70.2658C35.9732 70.1492 35.9072 69.9894 35.9072 69.8252V61.7302C35.9072 61.3852 36.1857 61.1067 36.5261 61.1067C36.8686 61.1067 37.145 61.3852 37.145 61.7302V69.2017H62.2706V58.9203H36.5261C36.1857 58.9203 35.9072 58.6418 35.9072 58.2968C35.9072 57.9539 36.1857 57.6733 36.5261 57.6733H62.8895C63.0525 57.6733 63.2134 57.7398 63.329 57.8562C63.4424 57.9726 63.5084 58.1347 63.5084 58.2968V69.8252C63.5084 69.9915 63.4445 70.1473 63.329 70.2658C63.2114 70.3841 63.0546 70.4487 62.8895 70.4487Z" fill="white"/>
<path d="M42.4265 66.5288C41.0752 66.5267 39.9776 65.421 39.9756 64.0618C39.9776 62.7005 41.0752 61.5949 42.4265 61.5928C43.7757 61.5949 44.8732 62.7005 44.8753 64.0618C44.8732 65.421 43.7757 66.5267 42.4265 66.5288ZM42.4265 62.8398C41.758 62.8418 41.2155 63.3884 41.2134 64.0618C41.2155 64.7331 41.758 65.2797 42.4265 65.2818C43.0928 65.2797 43.6354 64.7331 43.6354 64.0618C43.6354 63.3884 43.0928 62.8418 42.4265 62.8398Z" fill="white"/>
<path d="M34.0649 65.239C33.7224 65.239 33.446 64.9585 33.446 64.6155V55.9158L32.0204 54.4796C31.9049 54.3633 31.8389 54.2032 31.8389 54.039V40.0791C31.8389 39.7341 32.1174 39.4556 32.4578 39.4556C32.8002 39.4556 33.0767 39.7341 33.0767 40.0791V53.7813L34.5022 55.2154C34.6178 55.3338 34.6838 55.4897 34.6838 55.656V64.6155C34.6838 64.9585 34.4053 65.239 34.0649 65.239Z" fill="white"/>
<path d="M36.3675 83.4821H22.9641C21.2951 83.48 19.9376 82.1102 19.9355 80.4249C19.9355 79.7201 20.179 79.0345 20.6225 78.4898C20.606 78.3549 20.5978 78.2175 20.5978 78.0868C20.5978 76.1768 22.1409 74.6202 24.0389 74.6202H24.043C24.1833 74.6202 24.3277 74.6306 24.4701 74.6493C24.5567 73.7993 24.9487 73.0157 25.5759 72.438C26.2113 71.8538 27.0344 71.5337 27.8947 71.5337C28.8788 71.5337 29.8174 71.962 30.4735 72.7121C30.8159 72.5812 31.1749 72.5147 31.5401 72.5147H31.5421C32.8418 72.5147 33.993 73.3418 34.4118 74.5763C35.8353 74.7865 36.9204 75.9875 36.9947 77.4402C37.6611 77.5818 38.2697 77.9536 38.705 78.4877C39.1506 79.0322 39.394 79.7202 39.394 80.4247C39.394 82.1102 38.0365 83.48 36.3675 83.4821ZM24.0389 75.8672C22.8258 75.8693 21.8377 76.8648 21.8356 78.0868C21.8356 78.2383 21.8521 78.3965 21.8872 78.5586C21.9305 78.7708 21.8665 78.9848 21.7118 79.1345C21.3652 79.4772 21.1734 79.9346 21.1734 80.4251C21.1754 81.4206 21.9779 82.2332 22.9641 82.2353H36.3675C37.3537 82.2332 38.1562 81.4206 38.1583 80.4251C38.1562 79.4336 37.3537 78.6232 36.3675 78.6211H36.349C36.1716 78.6211 36.0003 78.5442 35.8827 78.4089C35.7651 78.2718 35.7115 78.093 35.7363 77.9143C35.7507 77.8021 35.761 77.6898 35.761 77.6005C35.759 76.6027 34.9564 75.7924 33.9703 75.7903H33.9229C33.6175 75.7903 33.3617 75.5698 33.3122 75.2684C33.1678 74.3957 32.4251 73.7616 31.5442 73.7616C31.2141 73.7616 30.8902 73.8531 30.6096 74.0258C30.5127 74.0861 30.4013 74.117 30.2857 74.117C30.0712 74.117 29.8752 74.009 29.7617 73.8281C29.3512 73.1714 28.6539 72.7807 27.8947 72.7807C26.6816 72.7828 25.6935 73.7783 25.6914 75.0003C25.6914 75.1231 25.6996 75.2476 25.7182 75.358C25.7533 75.5802 25.6687 75.8069 25.4933 75.9462C25.32 76.0854 25.0766 76.1186 24.8724 76.0355C24.6042 75.9233 24.3236 75.8672 24.0389 75.8672Z" fill="#FF4D40"/>
</svg>
