<svg width="122" height="121" viewBox="0 0 122 121" fill="none" xmlns="http://www.w3.org/2000/svg">
<path d="M88.3226 91.4252H40.1293C36.873 91.4252 34.1527 88.6977 33.802 85.0808C33.7855 84.9108 33.8415 84.742 33.9563 84.6155C34.0708 84.4893 34.2336 84.4173 34.4042 84.4173H39.7748C40.1089 84.4173 40.3798 84.6881 40.3798 85.0223C40.3798 85.3564 40.1089 85.6273 39.7748 85.6273H35.1038C35.6307 88.285 37.6972 90.2152 40.1293 90.2152H88.3226C91.1627 90.2152 93.4734 87.5673 93.4734 84.3124V55.6116C93.4734 55.2775 93.7442 55.0066 94.0784 55.0066C94.4125 55.0066 94.6834 55.2775 94.6834 55.6116V84.3126C94.6834 88.2344 91.83 91.4252 88.3226 91.4252ZM41.0759 79.9869C40.7418 79.9869 40.4709 79.716 40.4709 79.3819V57.4186H34.38C34.046 57.4186 33.7754 57.1481 33.775 56.8142L33.7627 45.2423C33.7625 45.0818 33.8262 44.9277 33.9396 44.8142C34.0531 44.7006 34.207 44.6367 34.3677 44.6367H94.0784C94.4125 44.6367 94.6834 44.9076 94.6834 45.2417V45.5283C94.6834 45.8624 94.4125 46.1333 94.0784 46.1333C93.8612 46.1333 93.6706 46.0187 93.5639 45.8467H34.9735L34.9844 56.2086H41.0759C41.4101 56.2086 41.6809 56.4794 41.6809 56.8136V79.3819C41.6809 79.716 41.4101 79.9869 41.0759 79.9869Z" fill="white"/>
<path d="M83.1682 45.847H45.2857C44.9515 45.847 44.6807 45.5762 44.6807 45.242V35.477C44.6807 30.7322 46.4186 26.1493 49.5747 22.5724C49.7955 22.3217 50.1781 22.2979 50.4286 22.519C50.679 22.74 50.703 23.1223 50.482 23.3728C47.5213 26.7285 45.8907 31.0272 45.8907 35.477V44.637H82.5632V35.477C82.5632 25.3667 74.3374 17.1411 64.2266 17.1411C64.2264 17.1411 64.226 17.1411 64.2256 17.1411C62.2809 17.1411 60.3639 17.4479 58.5275 18.0529C58.2103 18.1579 57.8683 17.9851 57.7636 17.6675C57.6591 17.3503 57.8316 17.008 58.149 16.9036C60.1076 16.2583 62.1523 15.9312 64.2256 15.9312C64.226 15.9312 64.2262 15.9312 64.2266 15.9312C75.0045 15.9312 83.7732 24.6994 83.7732 35.477V45.242C83.7732 45.576 83.5023 45.847 83.1682 45.847Z" fill="white"/>
<path d="M77.4661 40.5829H50.9859C50.6517 40.5829 50.3809 40.3121 50.3809 39.9779V35.047C50.3809 27.4129 56.5916 21.2021 64.2257 21.2021C71.86 21.2021 78.0709 27.4129 78.0709 35.047V39.9779C78.0711 40.3121 77.8003 40.5829 77.4661 40.5829ZM51.5909 39.3729H76.8611V35.047C76.8611 28.0802 71.1931 22.4121 64.2259 22.4121C57.2591 22.4121 51.5911 28.0802 51.5911 35.047V39.3729H51.5909Z" fill="white"/>
<path d="M74.3122 52.4331H34.3677C34.0335 52.4331 33.7627 52.1623 33.7627 51.8281C33.7627 51.494 34.0335 51.2231 34.3677 51.2231H74.3122C74.6464 51.2231 74.9172 51.494 74.9172 51.8281C74.9172 52.1623 74.6466 52.4331 74.3122 52.4331Z" fill="white"/>
<path d="M41.0763 63.0652H31.2446C30.9105 63.0652 30.6396 62.7943 30.6396 62.4602V56.8135C30.6396 56.4793 30.9105 56.2085 31.2446 56.2085H41.0763C41.4105 56.2085 41.6813 56.4793 41.6813 56.8135V62.4602C41.6813 62.7941 41.4105 63.0652 41.0763 63.0652ZM31.8496 61.8552H40.4713V57.4185H31.8496V61.8552Z" fill="#FF4D40"/>
<path d="M41.0763 68.7063H31.2446C30.9105 68.7063 30.6396 68.4355 30.6396 68.1013V62.4605C30.6396 62.1263 30.9105 61.8555 31.2446 61.8555H41.0763C41.4105 61.8555 41.6813 62.1263 41.6813 62.4605V68.1013C41.6813 68.4355 41.4105 68.7063 41.0763 68.7063ZM31.8496 67.4963H40.4713V63.0655H31.8496V67.4963Z" fill="#FF4D40"/>
<path d="M41.0763 74.3465H31.2446C30.9105 74.3465 30.6396 74.0757 30.6396 73.7415V68.1011C30.6396 67.7669 30.9105 67.4961 31.2446 67.4961H41.0763C41.4105 67.4961 41.6813 67.7669 41.6813 68.1011V73.7415C41.6813 74.0757 41.4105 74.3465 41.0763 74.3465ZM31.8496 73.1365H40.4713V68.7061H31.8496V73.1365Z" fill="#FF4D40"/>
<path d="M41.0763 79.9869H31.2446C30.9105 79.9869 30.6396 79.716 30.6396 79.3819V73.7412C30.6396 73.4071 30.9105 73.1362 31.2446 73.1362H41.0763C41.4105 73.1362 41.6813 73.4071 41.6813 73.7412V79.3819C41.6813 79.716 41.4105 79.9869 41.0763 79.9869ZM31.8496 78.7769H40.4713V74.3462H31.8496V78.7769Z" fill="#FF4D40"/>
<path d="M41.0763 85.628H31.2446C30.9105 85.628 30.6396 85.3571 30.6396 85.023V79.3823C30.6396 79.0482 30.9105 78.7773 31.2446 78.7773H41.0763C41.4105 78.7773 41.6813 79.0482 41.6813 79.3823V85.023C41.6813 85.3573 41.4105 85.628 41.0763 85.628ZM31.8496 84.418H40.4713V79.9873H31.8496V84.418Z" fill="#FF4D40"/>
<path d="M66.4284 78.1067H62.0252C61.6911 78.1067 61.4202 77.8358 61.4202 77.5017V70.6008C59.9674 69.6538 59.0791 68.0324 59.0791 66.2872C59.0791 63.4487 61.3884 61.1396 64.2266 61.1396C67.0653 61.1396 69.3746 63.4487 69.3746 66.2872C69.3746 68.0322 68.4862 69.6536 67.0334 70.6008V77.5017C67.0334 77.836 66.7626 78.1067 66.4284 78.1067ZM62.6302 76.8967H65.8234V70.2598C65.8234 70.0402 65.9424 69.8379 66.1344 69.7311C67.3868 69.0345 68.1646 67.7148 68.1646 66.2874C68.1646 64.116 66.398 62.3499 64.2266 62.3499C62.0555 62.3499 60.2891 64.1163 60.2891 66.2874C60.2891 67.7148 61.0671 69.0345 62.3195 69.7311C62.5115 69.8379 62.6305 70.0402 62.6305 70.2598V76.8967H62.6302Z" fill="#FF4D40"/>
<path d="M89.3295 45.8471H38.7954C38.4613 45.8471 38.1904 45.5762 38.1904 45.2421V44.5614C38.1904 44.2273 38.4613 43.9564 38.7954 43.9564C39.1296 43.9564 39.4004 44.2273 39.4004 44.5614V44.6371H88.7245V40.5826H44.2949C43.9607 40.5826 43.6899 40.3117 43.6899 39.9776C43.6899 39.6434 43.9607 39.3726 44.2949 39.3726H89.3297C89.6638 39.3726 89.9347 39.6434 89.9347 39.9776V45.2421C89.9345 45.576 89.6638 45.8471 89.3295 45.8471Z" fill="white"/>
<path d="M46.5777 106.722C46.2435 106.722 45.9727 106.451 45.9727 106.117V96.0062C45.9727 95.8459 46.0362 95.692 46.1495 95.5787L51.3293 90.3926C51.5655 90.1562 51.9486 90.1562 52.1848 90.3926C52.4212 90.6287 52.4212 91.0119 52.1848 91.2481L47.1825 96.2565V106.117C47.1827 106.451 46.9118 106.722 46.5777 106.722Z" fill="white"/>
<path d="M51.4478 99.8195C51.1136 99.8195 50.8428 99.5487 50.8428 99.2145V97.286C50.8428 97.1254 50.9065 96.9716 51.0198 96.8582L57.4851 90.3926C57.7214 90.1562 58.1046 90.1562 58.3407 90.3926C58.5771 90.6287 58.5771 91.0117 58.3407 91.2481L52.0528 97.5364V99.2145C52.0528 99.5489 51.7817 99.8195 51.4478 99.8195Z" fill="white"/>
<path d="M56.9967 103.81C56.6625 103.81 56.3917 103.54 56.3917 103.205V99.0284L53.0513 95.688C52.8149 95.4519 52.8149 95.0687 53.0513 94.8325C53.2874 94.5962 53.6706 94.5962 53.9068 94.8325L57.4244 98.3502C57.538 98.4638 57.6017 98.6174 57.6017 98.7779V103.205C57.6017 103.54 57.3309 103.81 56.9967 103.81Z" fill="white"/>
<path d="M64.1655 106.043C63.8314 106.043 63.5605 105.772 63.5605 105.438V90.8208C63.5605 90.4867 63.8314 90.2158 64.1655 90.2158C64.4997 90.2158 64.7705 90.4867 64.7705 90.8208V105.438C64.7705 105.772 64.4997 106.043 64.1655 106.043Z" fill="white"/>
<path d="M60.648 102.9C60.3138 102.9 60.043 102.63 60.043 102.295V95.1931C60.043 95.0328 60.1065 94.8791 60.2198 94.7658L63.8042 91.1753C64.04 90.9387 64.4234 90.9381 64.6597 91.1745C64.8963 91.4106 64.8967 91.7936 64.6605 92.03L61.253 95.4434V102.295C61.253 102.63 60.9819 102.9 60.648 102.9Z" fill="white"/>
<path d="M46.5771 109.906C45.3639 109.906 44.377 108.919 44.377 107.706C44.377 106.496 45.3639 105.512 46.5771 105.512C47.7869 105.512 48.7711 106.496 48.7711 107.706C48.7711 108.919 47.7869 109.906 46.5771 109.906ZM46.5771 106.722C46.031 106.722 45.587 107.163 45.587 107.706C45.587 108.252 46.0312 108.696 46.5771 108.696C47.1196 108.696 47.5611 108.252 47.5611 107.706C47.5611 107.163 47.1198 106.722 46.5771 106.722Z" fill="#FF4D40"/>
<path d="M51.4473 103.004C50.2373 103.004 49.2529 102.02 49.2529 100.81C49.2529 99.5968 50.2373 98.6099 51.4473 98.6099C52.6571 98.6099 53.6412 99.597 53.6412 100.81C53.641 102.02 52.6569 103.004 51.4473 103.004ZM51.4473 99.8197C50.9046 99.8197 50.4629 100.264 50.4629 100.81C50.4629 101.352 50.9044 101.794 51.4473 101.794C51.9897 101.794 52.4312 101.353 52.4312 100.81C52.431 100.264 51.9897 99.8197 51.4473 99.8197Z" fill="#FF4D40"/>
<path d="M64.1656 109.226C62.9558 109.226 61.9717 108.242 61.9717 107.032C61.9717 105.819 62.9558 104.832 64.1656 104.832C65.3788 104.832 66.3658 105.819 66.3658 107.032C66.3658 108.242 65.3788 109.226 64.1656 109.226ZM64.1656 106.042C63.6231 106.042 63.1817 106.486 63.1817 107.032C63.1817 107.574 63.6229 108.016 64.1656 108.016C64.7115 108.016 65.1558 107.575 65.1558 107.032C65.1558 106.486 64.7115 106.042 64.1656 106.042Z" fill="#FF4D40"/>
<path d="M81.8754 106.721C81.5412 106.721 81.2704 106.451 81.2704 106.116V96.2566L76.26 91.24C76.0283 90.9994 76.0355 90.6162 76.2761 90.3845C76.5167 90.1528 76.8999 90.16 77.1316 90.4006L77.2953 90.5706L82.3031 95.5784C82.4167 95.6919 82.4804 95.8456 82.4804 96.0061V106.116C82.4804 106.451 82.2098 106.721 81.8754 106.721Z" fill="white"/>
<path d="M77.0059 99.8195C76.6717 99.8195 76.4009 99.5487 76.4009 99.2145V97.5366L70.1071 91.2483C69.8707 91.0121 69.8705 90.6292 70.1067 90.3928C70.3428 90.1562 70.7256 90.1562 70.9621 90.3924L77.4334 96.858C77.547 96.9716 77.6109 97.1254 77.6109 97.286V99.2145C77.6109 99.5489 77.3401 99.8195 77.0059 99.8195Z" fill="white"/>
<path d="M71.4556 103.81C71.1214 103.81 70.8506 103.54 70.8506 103.205V98.7779C70.8506 98.6174 70.9143 98.4636 71.0279 98.3502L74.5455 94.8325C74.7819 94.5962 75.1646 94.5962 75.401 94.8325C75.6373 95.0687 75.6373 95.4519 75.401 95.688L72.0606 99.0284V103.205C72.0606 103.54 71.7899 103.81 71.4556 103.81Z" fill="white"/>
<path d="M81.8758 109.906C80.666 109.906 79.6816 108.919 79.6816 107.706C79.6816 106.496 80.666 105.512 81.8758 105.512C83.0856 105.512 84.0699 106.496 84.0699 107.706C84.0699 108.919 83.0856 109.906 81.8758 109.906ZM81.8758 106.722C81.3333 106.722 80.8916 107.163 80.8916 107.706C80.8916 108.252 81.3331 108.696 81.8758 108.696C82.4185 108.696 82.8599 108.252 82.8599 107.706C82.8599 107.163 82.4185 106.722 81.8758 106.722Z" fill="#FF4D40"/>
<path d="M77.0056 103.004C75.7924 103.004 74.8057 102.02 74.8057 100.81C74.8057 99.5968 75.7926 98.6099 77.0056 98.6099C78.2154 98.6099 79.1998 99.597 79.1998 100.81C79.1998 102.02 78.2154 103.004 77.0056 103.004ZM77.0056 99.8197C76.4597 99.8197 76.0157 100.264 76.0157 100.81C76.0157 101.352 76.4597 101.794 77.0056 101.794C77.5481 101.794 77.9898 101.353 77.9898 100.81C77.9898 100.264 77.5481 99.8197 77.0056 99.8197Z" fill="#FF4D40"/>
<path d="M94.0791 84.5909H50.0405C49.7064 84.5909 49.4355 84.32 49.4355 83.9859C49.4355 83.6517 49.7064 83.3809 50.0405 83.3809H94.0791C94.4133 83.3809 94.6841 83.6517 94.6841 83.9859C94.6841 84.32 94.4133 84.5909 94.0791 84.5909Z" fill="white"/>
</svg>
