<svg width="122" height="121" viewBox="0 0 122 121" fill="none" xmlns="http://www.w3.org/2000/svg">
<path d="M60.0806 102.376C60.0718 102.376 60.063 102.376 60.0542 102.376C50.3384 101.988 41.2649 97.9321 34.5059 90.9544C27.7279 83.9575 23.9951 74.7527 23.9951 65.036C23.9951 56.4041 27.0254 47.9842 32.5278 41.3272C37.9553 34.7608 45.5261 30.1907 53.8455 28.4591C54.1927 28.388 54.5326 28.6079 54.6051 28.9528C54.6777 29.2977 54.4554 29.6355 54.1084 29.7078C37.4036 33.185 25.2789 48.0427 25.2789 65.0362C25.2789 84.4801 40.5767 100.322 60.106 101.101C60.4601 101.115 60.7356 101.412 60.7215 101.764C60.7076 102.108 60.4233 102.376 60.0806 102.376ZM70.6791 101.287C70.392 101.287 70.1308 101.095 70.0574 100.806C69.9706 100.464 70.1785 100.117 70.5223 100.031C86.644 95.9778 97.9035 81.5877 97.9035 65.036C97.9035 45.1332 81.6126 28.9413 61.5885 28.9413C61.234 28.9413 60.9467 28.6557 60.9467 28.3034C60.9467 27.9511 61.234 27.6655 61.5885 27.6655C82.3205 27.6655 99.1871 44.4299 99.1871 65.036C99.1871 82.1724 87.5292 97.0714 70.837 101.267C70.7843 101.281 70.7311 101.287 70.6791 101.287Z" fill="white"/>
<path d="M61.5886 93.8814C55.435 93.8814 49.5559 91.991 44.5868 88.4147C44.2997 88.2081 44.2355 87.8094 44.4435 87.524C44.6512 87.2389 45.0525 87.1749 45.3396 87.3816C50.0886 90.7992 55.7073 92.6057 61.5888 92.6057C76.8836 92.6057 89.3268 80.2381 89.3268 65.0361C89.3268 49.834 76.8836 37.466 61.5888 37.466C46.2939 37.466 33.8509 49.834 33.8509 65.0361C33.8509 70.3149 35.3565 75.4448 38.2052 79.8709C38.3962 80.1677 38.3089 80.5619 38.0103 80.752C37.7117 80.9419 37.3146 80.8549 37.1238 80.5583C34.1427 75.9268 32.5672 70.5594 32.5674 65.0364C32.5674 49.1306 45.5863 36.1904 61.5888 36.1904C77.5913 36.1904 90.6104 49.1306 90.6104 65.0364C90.61 80.9417 77.5911 93.8814 61.5886 93.8814Z" fill="white"/>
<path d="M52.1138 30.1629C51.9247 30.1629 51.7418 30.0795 51.6181 29.93C49.7351 27.6538 48.6982 24.7706 48.6982 21.8108C48.6982 14.7464 54.4807 8.99902 61.5883 8.99902C68.699 8.99902 74.484 14.7464 74.484 21.8108C74.484 24.7702 73.4469 27.6536 71.5641 29.93C71.4048 30.1227 71.1472 30.205 70.9044 30.1416C64.8471 28.5497 58.3427 28.5477 52.2781 30.1416C52.2233 30.1559 52.1683 30.1629 52.1138 30.1629ZM61.5881 10.2748C55.1883 10.2748 49.9816 15.4498 49.9816 21.8108C49.9816 24.3402 50.8225 26.8076 52.3572 28.8035C58.382 27.2922 64.8073 27.2941 70.8244 28.8035C72.3593 26.8074 73.2 24.34 73.2 21.8108C73.2 15.45 67.9909 10.2748 61.5881 10.2748Z" fill="white"/>
<path d="M63.4211 28.9898C63.4096 28.9898 63.398 28.9896 63.3862 28.989C62.2257 28.9264 60.9723 28.9258 59.7897 28.989C59.6139 28.997 59.4417 28.9356 59.3137 28.815C59.1858 28.6945 59.1133 28.5271 59.1133 28.3519V24.195C59.1133 23.8427 59.4006 23.5571 59.7551 23.5571H63.4209C63.7754 23.5571 64.0627 23.8427 64.0627 24.195V28.3519C64.0627 28.5271 63.9902 28.6945 63.862 28.815C63.7426 28.9275 63.5848 28.9898 63.4211 28.9898ZM60.3968 24.8329V27.6855C61.1877 27.659 61.9968 27.659 62.7791 27.6855V24.8329H60.3968Z" fill="#FF4D40"/>
<path d="M66.9456 24.8332H56.2365C55.882 24.8332 55.5947 24.5477 55.5947 24.1954V19.173C55.5947 18.8207 55.882 18.5352 56.2365 18.5352H66.9456C67.3001 18.5352 67.5874 18.8207 67.5874 19.173V24.1954C67.5874 24.5477 67.3001 24.8332 66.9456 24.8332ZM56.8783 23.5575H66.3038V19.8109H56.8783V23.5575Z" fill="#FF4D40"/>
<path d="M62.3829 68.4088C60.0738 68.4088 58.1953 66.5415 58.1953 64.2459C58.1953 61.9508 60.0738 60.0835 62.3829 60.0835C64.692 60.0835 66.5709 61.9508 66.5709 64.2459C66.5707 66.5415 64.692 68.4088 62.3829 68.4088ZM62.3829 61.3593C60.7817 61.3593 59.4789 62.6542 59.4789 64.2459C59.4789 65.8379 60.7817 67.133 62.3829 67.133C63.9844 67.133 65.2874 65.8379 65.2874 64.2459C65.2872 62.6542 63.9841 61.3593 62.3829 61.3593Z" fill="#FF4D40"/>
<path d="M65.602 63.3987C65.3534 63.3987 65.1271 63.2561 65.0212 63.0324C64.7642 62.4895 64.3537 62.0445 63.8337 61.7455C63.3183 61.451 62.7037 61.3207 62.1274 61.3745C61.8773 61.3981 61.6341 61.2735 61.5089 61.0551C61.384 60.8372 61.3992 60.5663 61.5481 60.3637L74.1008 43.2591C74.2957 42.9935 74.6617 42.9187 74.946 43.086C75.2306 43.2534 75.3407 43.6083 75.2004 43.9057L66.183 63.0315C66.0773 63.2554 65.851 63.3985 65.6022 63.3987C65.6024 63.3987 65.6022 63.3987 65.602 63.3987ZM63.2715 60.1802C63.6923 60.2707 64.0987 60.4253 64.4748 60.6405C64.8629 60.8636 65.2086 61.1427 65.5025 61.4685L71.2098 49.3635L63.2715 60.1802Z" fill="#FF4D40"/>
<path d="M61.6128 86.3812C60.0625 86.3812 58.5019 86.2115 56.9741 85.8772C52.1682 84.8277 47.8388 82.1441 44.7833 78.321C41.7718 74.5528 40.1133 69.8431 40.1133 65.0589C40.1133 63.519 40.2838 61.9686 40.6203 60.4504C42.518 51.8857 49.3662 45.4205 58.0666 43.9799C58.4174 43.9223 58.7471 44.1568 58.805 44.5042C58.8632 44.8517 58.6271 45.1804 58.2775 45.2382C50.097 46.5929 43.658 52.6718 41.8737 60.7249C41.5573 62.1529 41.3968 63.6111 41.3968 65.0589C41.3968 74.3938 48.064 82.6251 57.2498 84.6314C58.6874 84.9459 60.1551 85.1054 61.6128 85.1054C71.0016 85.1054 79.2846 78.4809 81.3081 69.3538C81.623 67.9277 81.7826 66.4708 81.7826 65.024C81.7826 61.0751 80.6161 57.2422 78.409 53.9401C78.2128 53.6467 78.2933 53.2508 78.5885 53.0558C78.8839 52.861 79.282 52.9407 79.4782 53.2342C81.8254 56.7464 83.0659 60.8233 83.0659 65.0243C83.0659 66.5628 82.8963 68.1118 82.5617 69.6279C81.503 74.4038 78.802 78.7052 74.9564 81.7407C71.1652 84.7331 66.4264 86.3812 61.6128 86.3812Z" fill="#FF4D40"/>
</svg>
