<svg width="122" height="121" viewBox="0 0 122 121" fill="none" xmlns="http://www.w3.org/2000/svg">
<path d="M46.9833 105.331C46.9044 105.331 46.825 105.315 46.7499 105.283L30.8 98.5221C30.5745 98.4264 30.4277 98.2027 30.4277 97.9548V37.7176C30.4277 37.5115 30.5295 37.3191 30.6989 37.2054C30.8681 37.0915 31.0825 37.0712 31.2694 37.1517L36.5188 39.4055C36.6676 39.4694 36.7851 39.5909 36.8452 39.7432C38.7899 44.6769 43.1315 49.3305 47.4115 53.6741C47.5252 53.7895 47.589 53.9456 47.589 54.1087V104.716C47.589 104.922 47.4876 105.114 47.3191 105.228C47.2181 105.296 47.101 105.331 46.9833 105.331ZM31.6391 97.5454L46.3776 103.793V54.3632C42.1339 50.0494 37.8592 45.4272 35.8164 40.4388L31.6391 38.6454V97.5454Z" fill="white"/>
<path d="M46.9826 105.332C46.8645 105.332 46.747 105.296 46.6459 105.228C46.4779 105.114 46.377 104.922 46.377 104.717V54.1096C46.377 53.861 46.5245 53.6369 46.7509 53.5418C46.977 53.4464 47.2376 53.4992 47.4109 53.675C49.0204 55.3082 50.6788 56.9913 52.0331 58.5151C53.3911 57.0057 54.8877 55.5088 56.4629 53.9332C58.5469 51.8488 60.7022 49.6934 62.6745 47.3583C62.8392 47.163 63.1067 47.0924 63.3444 47.1819C63.5822 47.2712 63.7399 47.5011 63.7399 47.7582V97.9559C63.7399 98.2048 63.5921 98.4291 63.3652 98.524L47.2136 105.285C47.1393 105.316 47.061 105.332 46.9826 105.332ZM47.5883 55.595V103.799L62.5287 97.5444V49.3855C60.8314 51.2903 59.048 53.0739 57.3135 54.8089C55.5746 56.5482 53.9319 58.191 52.4829 59.8454C52.368 59.9768 52.2033 60.0517 52.0303 60.0517C52.0295 60.0517 52.0287 60.0517 52.0278 60.0517C51.854 60.0511 51.6889 59.9747 51.5744 59.8419C50.4446 58.5311 49.0283 57.0622 47.5883 55.595Z" fill="white"/>
<path d="M79.0849 105.331C79.0057 105.331 78.9266 105.315 78.8515 105.283L62.9016 98.5221C62.6761 98.4264 62.5293 98.2027 62.5293 97.9548V47.7572C62.5293 47.6133 62.579 47.4742 62.6696 47.3638C65.0504 44.4646 66.5567 41.9848 67.41 39.56C67.4663 39.3996 67.5858 39.2701 67.7401 39.2025C67.8941 39.1346 68.0688 39.1351 68.2228 39.2033L79.3271 44.1206C79.5478 44.2183 79.6906 44.4396 79.6906 44.684V104.716C79.6906 104.922 79.5892 105.114 79.4206 105.228C79.3197 105.296 79.2026 105.331 79.0849 105.331ZM63.7407 97.5454L78.4792 103.793V45.0862L68.3217 40.5883C67.4104 42.9068 65.9397 45.2774 63.7407 47.9791V97.5454Z" fill="white"/>
<path d="M79.0842 105.331C78.9665 105.331 78.8494 105.296 78.7485 105.228C78.5799 105.114 78.4785 104.922 78.4785 104.716V44.6839C78.4785 44.4384 78.6225 44.2163 78.8448 44.1192L94.7946 37.153C94.9816 37.0715 95.1968 37.0905 95.367 37.2042C95.5372 37.3179 95.6398 37.5109 95.6398 37.7177V97.9548C95.6398 98.2027 95.493 98.4265 95.2675 98.5221L79.3176 105.283C79.2425 105.315 79.1631 105.331 79.0842 105.331ZM79.6899 45.0885V103.793L94.4284 97.5454V38.6514L79.6899 45.0885Z" fill="white"/>
<path d="M52.0306 60.0502C51.8606 60.0502 51.6983 59.9777 51.5836 59.8502C50.3006 58.426 48.8608 56.965 47.3365 55.4183C41.2087 49.1997 34.2637 42.1516 34.2637 34.0292C34.2637 24.0874 42.234 15.999 52.0306 15.999C61.8273 15.999 69.7976 24.0874 69.7976 34.0292C69.7976 42.1516 62.8523 49.1997 56.7247 55.4183C55.2004 56.9652 53.7609 58.426 52.4778 59.8502C52.3629 59.9777 52.2008 60.0502 52.0306 60.0502ZM52.0306 17.2286C42.9018 17.2286 35.4751 24.7654 35.4751 34.0294C35.4751 41.6424 42.2317 48.4994 48.1932 54.5491C49.5537 55.9299 50.8475 57.2428 52.0306 58.5297C53.2135 57.2428 54.5073 55.9299 55.8679 54.5491C61.8291 48.4994 68.586 41.6426 68.586 34.0294C68.5862 24.7654 61.1594 17.2286 52.0306 17.2286Z" fill="#FF4D40"/>
<path d="M52.0302 43.2495C46.8864 43.2495 42.541 38.8397 42.541 33.6198C42.541 28.197 46.7978 23.7852 52.0302 23.7852C54.6332 23.7852 57.0707 24.8041 58.8939 26.6544C60.7172 28.5046 61.7212 30.9784 61.7212 33.6198C61.7214 38.9297 57.374 43.2495 52.0302 43.2495ZM52.0302 25.0145C47.4659 25.0145 43.7524 28.8748 43.7524 33.6198C43.7524 38.1732 47.5432 42.0202 52.0302 42.0202C56.7059 42.0202 60.5099 38.2517 60.5099 33.6198C60.5099 28.8748 56.7059 25.0145 52.0302 25.0145Z" fill="#FF4D40"/>
<path d="M80.6996 38.1271C80.5934 38.1271 80.4872 38.0989 80.3926 38.0423L73.5281 33.9446C73.2398 33.7725 73.1437 33.3957 73.3132 33.1031C73.483 32.8107 73.8537 32.713 74.1424 32.8849L80.7033 36.8015L89.8872 31.4476C90.1773 31.2783 90.5476 31.38 90.7141 31.6744C90.8807 31.9688 90.7806 32.3444 90.4906 32.5134L81.0015 38.0454C80.9078 38.0999 80.8036 38.1271 80.6996 38.1271Z" fill="white"/>
<path d="M34.6668 103.69C34.578 103.69 34.4877 103.67 34.4025 103.628L27.3361 100.145C27.1274 100.042 26.9951 99.8277 26.9951 99.5925V63.5321C26.9951 63.1926 27.2663 62.9175 27.6008 62.9175C27.9354 62.9175 28.2065 63.1926 28.2065 63.5321V99.2077L34.9319 102.523C35.2329 102.671 35.3583 103.039 35.2121 103.344C35.1073 103.563 34.8915 103.69 34.6668 103.69Z" fill="white"/>
<path d="M40.9599 64.9528C41.655 64.8093 41.4953 63.6099 40.652 63.7785C40.2644 63.8785 39.8705 63.991 39.4891 64.1096C38.627 64.4596 39.2244 65.5148 39.8212 65.2714C40.1969 65.1587 40.5783 65.0525 40.9599 64.9528ZM45.5629 64.0346C46.443 63.8597 46.0863 62.6984 45.4156 62.8354C45.0217 62.8791 44.6092 62.9416 44.2153 63.0104C43.3907 63.1788 43.6861 64.3532 44.4061 64.2094C44.7873 64.141 45.1816 64.0785 45.5629 64.0346ZM54.7634 64.6653C55.422 64.9341 55.9326 63.8412 55.1325 63.5163C54.7323 63.3849 54.3386 63.2663 53.9389 63.1665C53.1139 62.9981 52.9417 64.1969 53.6616 64.3471C54.0311 64.4342 54.4004 64.5528 54.7634 64.6653ZM58.7822 66.8262C59.4343 67.3196 60.1177 66.3331 59.5144 65.8706C59.1884 65.6084 58.85 65.365 58.4987 65.1337C57.785 64.6966 57.2191 65.7643 57.8528 66.1518C58.1728 66.364 58.4805 66.5828 58.7822 66.8262ZM61.7789 70.2923C62.1728 70.9607 63.2005 70.3485 62.7884 69.649C62.5667 69.2931 62.3452 68.9434 62.0991 68.6061C61.6188 67.9564 60.6713 68.6936 61.1391 69.3242C61.3606 69.6428 61.5758 69.9614 61.7789 70.2923ZM64.0006 74.5016C64.2588 75.1636 65.4036 74.8015 65.0775 73.9832L64.5605 72.8844C64.4559 72.6219 64.1112 72.4783 63.8282 72.5783C63.4773 72.7156 63.342 73.0405 63.4898 73.4214L64.0006 74.5016ZM65.8591 78.9294C65.9699 79.2169 66.3083 79.3978 66.6343 79.2667C66.9174 79.1482 67.0961 78.8046 66.9608 78.4735L66.5112 77.3497C66.2344 76.65 65.1082 77.0559 65.4036 77.8117L65.8591 78.9294ZM67.816 83.4074C68.2158 84.0819 69.1825 83.6322 68.8807 82.8514L68.3636 81.7898C68.2836 81.6024 68.0557 81.4399 67.8407 81.4399C67.3789 81.4399 67.108 81.8646 67.2804 82.3019C67.453 82.6705 67.6315 83.0391 67.816 83.4074ZM70.6285 87.5167C71.2069 88.11 72.0256 87.2233 71.4902 86.6863C71.2255 86.4052 70.9854 86.1179 70.7393 85.8179C70.2838 85.2062 69.3054 85.8993 69.7977 86.5674C70.0626 86.8985 70.3331 87.2106 70.6285 87.5167ZM74.7024 90.4085C75.5025 90.733 75.8657 89.5777 75.2012 89.3092C74.8566 89.1468 74.5178 88.972 74.1794 88.7845C73.5269 88.385 72.8994 89.4154 73.5947 89.8399C73.9578 90.046 74.3268 90.2333 74.7024 90.4085ZM84.2598 92.2818C85.0906 92.2818 85.0351 91.0703 84.2969 91.0703C83.903 91.0641 83.5091 91.0453 83.1215 91.0203C82.2414 91.0203 82.3458 92.232 83.0478 92.232L84.2598 92.2818ZM89.0847 92.2006C89.7984 92.2006 89.8786 90.9953 89.0169 90.9953L87.8354 91.0516C87.072 91.0516 87.1031 92.2629 87.8784 92.2629L89.0847 92.2006ZM34.91 65.7709C34.227 66.0458 34.6395 67.1758 35.4025 66.8762L35.3843 66.8826C35.7471 66.7263 36.1099 66.5705 36.4794 66.4204C37.2179 66.1206 36.7685 64.9966 36.0429 65.2963C35.6797 65.44 35.2672 65.5961 34.9163 65.7645L34.9411 65.7584L34.91 65.7709Z" fill="#FF4D40"/>
</svg>
