<svg width="122" height="121" viewBox="0 0 122 121" fill="none" xmlns="http://www.w3.org/2000/svg">
<path d="M71.0418 104.973H30.0074C29.6667 104.973 29.3906 104.698 29.3906 104.359V44.0911C29.3906 43.7516 29.6667 43.4765 30.0074 43.4765C30.3481 43.4765 30.6242 43.7516 30.6242 44.0911V103.744H70.425V103.085C70.425 102.746 70.7011 102.471 71.0418 102.471C71.3825 102.471 71.6586 102.746 71.6586 103.085V104.359C71.6586 104.698 71.3825 104.973 71.0418 104.973ZM71.0418 93.457C70.7011 93.457 70.425 93.1819 70.425 92.8424V31.9156H30.6242V33.8484C30.6242 34.1879 30.3481 34.463 30.0074 34.463C29.6667 34.463 29.3906 34.1879 29.3906 33.8484V31.3011C29.3906 30.9616 29.6667 30.6865 30.0074 30.6865H71.0418C71.3825 30.6865 71.6586 30.9616 71.6586 31.3011V92.8424C71.6586 93.1819 71.3825 93.457 71.0418 93.457Z" fill="white"/>
<path d="M94.4175 104.974H81.7887C81.448 104.974 81.1719 104.699 81.1719 104.36V85.7208C81.1719 85.3814 81.448 85.1062 81.7887 85.1062C82.1294 85.1062 82.4055 85.3814 82.4055 85.7208V103.745H93.8007V59.2298L82.4055 49.1965V75.4779C82.4055 75.8174 82.1294 76.0925 81.7887 76.0925C81.448 76.0925 81.1719 75.8174 81.1719 75.4779V47.8332C81.1719 47.5915 81.3139 47.3723 81.5352 47.273C81.7566 47.1738 82.0157 47.2127 82.1972 47.3727L94.826 58.4921C94.9586 58.6087 95.0345 58.7765 95.0345 58.9527V104.36C95.0343 104.699 94.7582 104.974 94.4175 104.974Z" fill="white"/>
<path d="M81.7891 104.974H71.0417C70.701 104.974 70.4249 104.699 70.4249 104.359V31.9165H61.1986C60.8579 31.9165 60.5818 31.6414 60.5818 31.3019V28.0153H58.1639C57.8232 28.0153 57.5471 27.7401 57.5471 27.4007C57.5471 27.0613 57.8232 26.7861 58.1639 26.7861H61.1986C61.5393 26.7861 61.8154 27.0613 61.8154 27.4007V30.6874H71.0419C71.3826 30.6874 71.6587 30.9625 71.6587 31.3019V103.745H81.1725V102.431C81.1725 102.092 81.4486 101.816 81.7893 101.816C82.13 101.816 82.4061 102.092 82.4061 102.431V104.359C82.4059 104.699 82.13 104.974 81.7891 104.974ZM81.7891 92.8029C81.4484 92.8029 81.1723 92.5278 81.1723 92.1884V23.5382H49.1233V26.7804C49.1233 27.1199 48.8471 27.395 48.5065 27.395C48.1658 27.395 47.8896 27.1199 47.8896 26.7804V22.9236C47.8896 22.5842 48.1658 22.3091 48.5065 22.3091H81.7891C82.1298 22.3091 82.4059 22.5842 82.4059 22.9236V92.1884C82.4059 92.5278 82.13 92.8029 81.7891 92.8029Z" fill="white"/>
<path d="M35.5514 104.973C35.2107 104.973 34.9346 104.698 34.9346 104.359V42.5174C34.9346 42.1779 35.2107 41.9028 35.5514 41.9028C35.892 41.9028 36.1682 42.1779 36.1682 42.5174V104.359C36.1682 104.698 35.892 104.973 35.5514 104.973Z" fill="#FF4D40"/>
<path d="M41.5953 104.973C41.2546 104.973 40.9785 104.698 40.9785 104.359V42.5174C40.9785 42.1779 41.2546 41.9028 41.5953 41.9028C41.936 41.9028 42.2121 42.1779 42.2121 42.5174V104.359C42.2121 104.698 41.936 104.973 41.5953 104.973Z" fill="#FF4D40"/>
<path d="M47.6393 104.973C47.2986 104.973 47.0225 104.698 47.0225 104.359V42.5174C47.0225 42.1779 47.2986 41.9028 47.6393 41.9028C47.9799 41.9028 48.2561 42.1779 48.2561 42.5174V104.359C48.2561 104.698 47.9799 104.973 47.6393 104.973Z" fill="#FF4D40"/>
<path d="M53.6832 104.973C53.3425 104.973 53.0664 104.698 53.0664 104.359V42.5174C53.0664 42.1779 53.3425 41.9028 53.6832 41.9028C54.0239 41.9028 54.3 42.1779 54.3 42.5174V104.359C54.3 104.698 54.0239 104.973 53.6832 104.973Z" fill="#FF4D40"/>
<path d="M59.7272 104.973C59.3865 104.973 59.1104 104.698 59.1104 104.359V42.5174C59.1104 42.1779 59.3865 41.9028 59.7272 41.9028C60.0678 41.9028 60.344 42.1779 60.344 42.5174V104.359C60.344 104.698 60.0678 104.973 59.7272 104.973Z" fill="#FF4D40"/>
<path d="M65.7711 104.973C65.4304 104.973 65.1543 104.698 65.1543 104.359V42.5174C65.1543 42.1779 65.4304 41.9028 65.7711 41.9028C66.1118 41.9028 66.3879 42.1779 66.3879 42.5174V104.359C66.3879 104.698 66.112 104.973 65.7711 104.973Z" fill="#FF4D40"/>
<path d="M85.857 64.918C85.5164 64.918 85.2402 64.6429 85.2402 64.3035V59.4441C85.2402 59.1047 85.5164 58.8296 85.857 58.8296C86.1977 58.8296 86.4738 59.1047 86.4738 59.4441V64.3035C86.4738 64.6429 86.1977 64.918 85.857 64.918Z" fill="white"/>
<path d="M90.3502 64.918C90.0095 64.918 89.7334 64.6429 89.7334 64.3035V59.4441C89.7334 59.1047 90.0095 58.8296 90.3502 58.8296C90.6909 58.8296 90.967 59.1047 90.967 59.4441V64.3035C90.967 64.6429 90.6909 64.918 90.3502 64.918Z" fill="white"/>
<path d="M85.857 74.8033C85.5164 74.8033 85.2402 74.5282 85.2402 74.1887V69.3294C85.2402 68.99 85.5164 68.7148 85.857 68.7148C86.1977 68.7148 86.4738 68.99 86.4738 69.3294V74.1887C86.4738 74.5284 86.1977 74.8033 85.857 74.8033Z" fill="white"/>
<path d="M90.3502 74.8033C90.0095 74.8033 89.7334 74.5282 89.7334 74.1887V69.3294C89.7334 68.99 90.0095 68.7148 90.3502 68.7148C90.6909 68.7148 90.967 68.99 90.967 69.3294V74.1887C90.967 74.5284 90.6909 74.8033 90.3502 74.8033Z" fill="white"/>
<path d="M85.857 84.691C85.5164 84.691 85.2402 84.4158 85.2402 84.0764V79.2171C85.2402 78.8777 85.5164 78.6025 85.857 78.6025C86.1977 78.6025 86.4738 78.8777 86.4738 79.2171V84.0764C86.4738 84.4158 86.1977 84.691 85.857 84.691Z" fill="white"/>
<path d="M90.3502 84.691C90.0095 84.691 89.7334 84.4158 89.7334 84.0764V79.2171C89.7334 78.8777 90.0095 78.6025 90.3502 78.6025C90.6909 78.6025 90.967 78.8777 90.967 79.2171V84.0764C90.967 84.4158 90.6909 84.691 90.3502 84.691Z" fill="white"/>
<path d="M85.857 94.5769C85.5164 94.5769 85.2402 94.3018 85.2402 93.9624V89.1028C85.2402 88.7634 85.5164 88.4883 85.857 88.4883C86.1977 88.4883 86.4738 88.7634 86.4738 89.1028V93.9624C86.4738 94.3018 86.1977 94.5769 85.857 94.5769Z" fill="white"/>
<path d="M90.3502 94.5769C90.0095 94.5769 89.7334 94.3018 89.7334 93.9624V89.1028C89.7334 88.7634 90.0095 88.4883 90.3502 88.4883C90.6909 88.4883 90.967 88.7634 90.967 89.1028V93.9624C90.967 94.3018 90.6909 94.5769 90.3502 94.5769Z" fill="white"/>
<path d="M85.857 104.463C85.5164 104.463 85.2402 104.188 85.2402 103.848V98.9886C85.2402 98.6491 85.5164 98.374 85.857 98.374C86.1977 98.374 86.4738 98.6491 86.4738 98.9886V103.848C86.4738 104.188 86.1977 104.463 85.857 104.463Z" fill="white"/>
<path d="M90.3502 104.463C90.0095 104.463 89.7334 104.188 89.7334 103.848V98.9886C89.7334 98.6491 90.0095 98.374 90.3502 98.374C90.6909 98.374 90.967 98.6491 90.967 98.9886V103.848C90.967 104.188 90.6909 104.463 90.3502 104.463Z" fill="white"/>
<path d="M61.1984 31.916H39.8453C39.5046 31.916 39.2285 31.6409 39.2285 31.3014V27.4002C39.2285 27.0608 39.5046 26.7856 39.8453 26.7856H61.1982C61.5389 26.7856 61.815 27.0608 61.815 27.4002V31.3014C61.815 31.6409 61.5389 31.916 61.1984 31.916ZM40.4621 30.6869H60.5814V28.0148H40.4621V30.6869Z" fill="white"/>
<path d="M26.097 67.652H18.1822C17.8416 67.652 17.5654 67.3768 17.5654 67.0374C17.5654 66.698 17.8416 66.4228 18.1822 66.4228H25.8417L29.5711 62.7119C29.8122 62.4721 30.2027 62.4725 30.4434 62.7123C30.6842 62.9524 30.684 63.3417 30.443 63.5815L26.5329 67.4723C26.4174 67.5874 26.2605 67.652 26.097 67.652Z" fill="white"/>
<path d="M25.0929 63.8531H23.5846C23.2439 63.8531 22.9678 63.578 22.9678 63.2386C22.9678 62.8991 23.2439 62.624 23.5846 62.624H24.8375L29.5708 57.9104C29.8116 57.6705 30.2022 57.6705 30.4432 57.9106C30.684 58.1506 30.6838 58.5397 30.443 58.7798L25.5291 63.6733C25.4132 63.7884 25.2565 63.8531 25.0929 63.8531Z" fill="white"/>
<path d="M26.6801 62.2678C26.5222 62.2678 26.3643 62.2078 26.2438 62.0878L23.671 59.524H20.4576C20.1169 59.524 19.8408 59.2489 19.8408 58.9095C19.8408 58.57 20.1169 58.2949 20.4576 58.2949H23.9263C24.09 58.2949 24.2468 58.3597 24.3626 58.475L27.1164 61.219C27.3572 61.4589 27.3572 61.8481 27.1164 62.0882C26.9957 62.2078 26.8378 62.2678 26.6801 62.2678Z" fill="white"/>
<path d="M30.0075 53.9298H18.7135C18.3728 53.9298 18.0967 53.6547 18.0967 53.3152C18.0967 52.9758 18.3728 52.7007 18.7135 52.7007H30.0075C30.3482 52.7007 30.6243 52.9758 30.6243 53.3152C30.6243 53.6547 30.348 53.9298 30.0075 53.9298Z" fill="white"/>
<path d="M26.7325 56.674H21.1725C20.8318 56.674 20.5557 56.3989 20.5557 56.0594C20.5557 55.72 20.8318 55.4449 21.1725 55.4449H26.4774L29.1086 52.8281C29.3496 52.5882 29.7403 52.5886 29.981 52.8289C30.2216 53.069 30.2212 53.4582 29.9802 53.6981L27.1682 56.4943C27.0524 56.6093 26.8958 56.674 26.7325 56.674Z" fill="white"/>
<path d="M16.9368 68.8937C15.9098 68.8937 15.0742 68.0614 15.0742 67.0382C15.0742 66.0149 15.9096 65.1826 16.9368 65.1826C17.9637 65.1826 18.7991 66.0149 18.7991 67.0382C18.7991 68.0614 17.9637 68.8937 16.9368 68.8937ZM16.9368 66.4119C16.5899 66.4119 16.3078 66.693 16.3078 67.0384C16.3078 67.3838 16.5899 67.6648 16.9368 67.6648C17.2834 67.6648 17.5655 67.3838 17.5655 67.0384C17.5655 66.693 17.2834 66.4119 16.9368 66.4119Z" fill="#FF4D40"/>
<path d="M19.2119 60.7655C18.185 60.7655 17.3496 59.9332 17.3496 58.9098C17.3496 57.8888 18.1841 57.0552 19.2097 57.0518C20.2397 57.0554 21.0743 57.8878 21.0743 58.9073C21.0743 59.932 20.2389 60.7655 19.2119 60.7655ZM19.2097 58.2809C18.8663 58.2821 18.5832 58.5642 18.5832 58.9098C18.5832 59.2554 18.8653 59.5364 19.2119 59.5364C19.5588 59.5364 19.8409 59.2541 19.8409 58.9073C19.8407 58.5632 19.5576 58.2821 19.2097 58.2809Z" fill="#FF4D40"/>
<path d="M30.0071 44.0038C29.8495 44.0038 29.6918 43.9439 29.5713 43.8241L25.8419 40.1134H18.1822C17.8416 40.1134 17.5654 39.8383 17.5654 39.4988C17.5654 39.1594 17.8416 38.8843 18.1822 38.8843H26.097C26.2605 38.8843 26.4172 38.9488 26.5329 39.0639L30.443 42.9543C30.684 43.194 30.6844 43.5832 30.4436 43.8233C30.3232 43.9435 30.165 44.0038 30.0071 44.0038Z" fill="white"/>
<path d="M30.0069 48.8072C29.849 48.8072 29.6913 48.7474 29.5708 48.6274L24.8371 43.9135L23.5835 43.9112C23.2429 43.9106 22.9672 43.6351 22.9678 43.2957C22.9684 42.9566 23.2445 42.6821 23.5846 42.6821C23.5848 42.6821 23.5852 42.6821 23.5856 42.6821L25.0939 42.6848C25.2569 42.685 25.4134 42.7497 25.5287 42.8647L30.4426 47.758C30.6836 47.9979 30.6836 48.3871 30.4428 48.6272C30.3227 48.7472 30.1648 48.8072 30.0069 48.8072Z" fill="white"/>
<path d="M23.9263 48.2421H20.4576C20.1169 48.2421 19.8408 47.967 19.8408 47.6275C19.8408 47.2881 20.1169 47.013 20.4576 47.013H23.671L26.244 44.449C26.485 44.2089 26.8757 44.2091 27.1164 44.449C27.3574 44.6891 27.3574 45.0781 27.1164 45.3182L24.3626 48.0622C24.2468 48.1774 24.09 48.2421 23.9263 48.2421Z" fill="white"/>
<path d="M16.9368 41.3569C15.9098 41.3569 15.0742 40.5233 15.0742 39.4988C15.0742 38.4756 15.9096 37.6431 16.9368 37.6431C17.9637 37.6431 18.7991 38.4754 18.7991 39.4988C18.7991 40.5233 17.9637 41.3569 16.9368 41.3569ZM16.9368 38.8722C16.5899 38.8722 16.3078 39.1532 16.3078 39.4988C16.3078 39.8456 16.5899 40.1277 16.9368 40.1277C17.2834 40.1277 17.5655 39.8456 17.5655 39.4988C17.5655 39.1532 17.2834 38.8722 16.9368 38.8722Z" fill="#FF4D40"/>
<path d="M19.2119 49.4835C18.185 49.4835 17.3496 48.6512 17.3496 47.6277C17.3496 46.6043 18.185 45.772 19.2119 45.772C20.2389 45.772 21.0745 46.6043 21.0745 47.6277C21.0745 48.6512 20.2389 49.4835 19.2119 49.4835ZM19.2119 47.0013C18.8653 47.0013 18.5832 47.2824 18.5832 47.6279C18.5832 47.9735 18.8653 48.2546 19.2119 48.2546C19.5588 48.2546 19.8409 47.9735 19.8409 47.6279C19.8409 47.2824 19.5586 47.0013 19.2119 47.0013Z" fill="#FF4D40"/>
<path d="M88.2118 47.001H86.7035C86.5401 47.001 86.383 46.9362 86.2675 46.8211L81.3536 41.9278C81.1126 41.6879 81.1126 41.2987 81.3534 41.0586C81.5944 40.8183 81.9848 40.8185 82.2258 41.0584L86.9589 45.7718H88.2118C88.5525 45.7718 88.8286 46.047 88.8286 46.3864C88.8286 46.7259 88.5525 47.001 88.2118 47.001Z" fill="white"/>
<path d="M85.1109 45.4178C84.9528 45.4178 84.7949 45.3577 84.6745 45.2373C84.4337 44.997 84.4341 44.608 84.6753 44.3681L87.4344 41.6243C87.5502 41.5094 87.7067 41.4448 87.8701 41.4448H91.3388C91.6795 41.4448 91.9556 41.7199 91.9556 42.0594C91.9556 42.3988 91.6795 42.6739 91.3388 42.6739H88.1253L85.5466 45.2381C85.4261 45.3579 85.2684 45.4178 85.1109 45.4178Z" fill="white"/>
<path d="M93.0827 37.0797H81.7887C81.448 37.0797 81.1719 36.8046 81.1719 36.4651C81.1719 36.1257 81.448 35.8506 81.7887 35.8506H93.0827C93.4234 35.8506 93.6995 36.1257 93.6995 36.4651C93.6995 36.8046 93.4234 37.0797 93.0827 37.0797Z" fill="white"/>
<path d="M90.6232 39.8234H85.058C84.8944 39.8234 84.7375 39.7587 84.6219 39.6436L81.8155 36.8475C81.5745 36.6074 81.5745 36.2184 81.8155 35.9783C82.0565 35.7382 82.4467 35.7384 82.6876 35.9783L85.3134 38.5945H90.6232C90.9639 38.5945 91.24 38.8696 91.24 39.2091C91.24 39.5485 90.9639 39.8234 90.6232 39.8234Z" fill="white"/>
<path d="M92.5838 43.9142C91.557 43.9142 90.7217 43.0806 90.7217 42.056C90.7217 41.0368 91.556 40.2045 92.5811 40.2002C93.6118 40.2045 94.4461 41.038 94.4461 42.0584C94.4463 43.0819 93.6108 43.9142 92.5838 43.9142ZM92.5813 41.4293C92.2386 41.4307 91.9555 41.7118 91.9555 42.056C91.9555 42.4028 92.2374 42.6851 92.584 42.6851C92.9309 42.6851 93.2129 42.404 93.2129 42.0584C93.2129 41.7128 92.9294 41.4307 92.5813 41.4293Z" fill="#FF4D40"/>
<path d="M81.7887 31.9584C81.6306 31.9584 81.4729 31.8984 81.3524 31.7783C81.1117 31.5382 81.1117 31.1492 81.3526 30.9091L86.2665 26.0158C86.3822 25.9007 86.5391 25.8359 86.7026 25.8359H88.2108C88.5515 25.8359 88.8277 26.1111 88.8277 26.4505C88.8277 26.7899 88.5515 27.0651 88.2108 27.0651H86.9579L82.2248 31.7785C82.1045 31.8984 81.9466 31.9584 81.7887 31.9584Z" fill="white"/>
<path d="M91.3385 31.3923H87.8698C87.7062 31.3923 87.5493 31.3275 87.4338 31.2124L84.6797 28.4686C84.4388 28.2285 84.4388 27.8395 84.6797 27.5994C84.9207 27.3593 85.3109 27.3595 85.5519 27.5994L88.1252 30.1632H91.3385C91.6792 30.1632 91.9553 30.4383 91.9553 30.7777C91.9553 31.1172 91.6792 31.3923 91.3385 31.3923Z" fill="white"/>
<path d="M92.5838 32.633C91.557 32.633 90.7217 31.8007 90.7217 30.7774C90.7217 29.7542 91.557 28.9219 92.5838 28.9219C93.6108 28.9219 94.4464 29.7542 94.4464 30.7774C94.4464 31.8007 93.6108 32.633 92.5838 32.633ZM92.5838 30.1512C92.2372 30.1512 91.9553 30.4323 91.9553 30.7776C91.9553 31.123 92.2372 31.4041 92.5838 31.4041C92.9307 31.4041 93.2127 31.123 93.2127 30.7776C93.2127 30.4323 92.9307 30.1512 92.5838 30.1512Z" fill="#FF4D40"/>
<path d="M75.9553 23.5383H55.191C54.8503 23.5383 54.5742 23.2632 54.5742 22.9238V19.0228C54.5742 18.6833 54.8503 18.4082 55.191 18.4082H75.9553C76.2959 18.4082 76.5721 18.6833 76.5721 19.0228V22.9238C76.5721 23.263 76.2962 23.5383 75.9553 23.5383ZM55.8078 22.3092H75.3387V19.6373H55.8078V22.3092Z" fill="white"/>
<path d="M70.879 19.6368H60.2682C59.9275 19.6368 59.6514 19.3617 59.6514 19.0222V16.6136C59.6514 16.2741 59.9275 15.999 60.2682 15.999H70.879C71.2197 15.999 71.4958 16.2741 71.4958 16.6136V19.0222C71.4958 19.3615 71.2197 19.6368 70.879 19.6368ZM60.885 18.4077H70.2622V17.2281H60.885V18.4077Z" fill="white"/>
<path d="M100.068 73.5216H94.4176C94.0769 73.5216 93.8008 73.2465 93.8008 72.907C93.8008 72.5676 94.0769 72.2925 94.4176 72.2925H100.068C100.408 72.2925 100.684 72.5676 100.684 72.907C100.684 73.2465 100.408 73.5216 100.068 73.5216Z" fill="white"/>
<path d="M30.0078 73.5216H23.5484C23.2078 73.5216 22.9316 73.2465 22.9316 72.907C22.9316 72.5676 23.2078 72.2925 23.5484 72.2925H30.0076C30.3483 72.2925 30.6244 72.5676 30.6244 72.907C30.6244 73.2465 30.3483 73.5216 30.0078 73.5216Z" fill="white"/>
<path d="M100.068 83.6598H94.4176C94.0769 83.6598 93.8008 83.3847 93.8008 83.0452C93.8008 82.7058 94.0769 82.4307 94.4176 82.4307H100.068C100.408 82.4307 100.684 82.7058 100.684 83.0452C100.684 83.3847 100.408 83.6598 100.068 83.6598Z" fill="white"/>
<path d="M30.0078 83.6598H23.5484C23.2078 83.6598 22.9316 83.3847 22.9316 83.0452C22.9316 82.7058 23.2078 82.4307 23.5484 82.4307H30.0076C30.3483 82.4307 30.6244 82.7058 30.6244 83.0452C30.6244 83.3847 30.3483 83.6598 30.0078 83.6598Z" fill="white"/>
<path d="M106.963 90.0255H94.4176C94.0769 90.0255 93.8008 89.7504 93.8008 89.4109C93.8008 89.0715 94.0769 88.7964 94.4176 88.7964H106.963C107.303 88.7964 107.579 89.0715 107.579 89.4109C107.579 89.7504 107.303 90.0255 106.963 90.0255Z" fill="white"/>
<path d="M30.0071 90.0255H16.6529C16.3123 90.0255 16.0361 89.7504 16.0361 89.4109C16.0361 89.0715 16.3123 88.7964 16.6529 88.7964H30.0069C30.3476 88.7964 30.6237 89.0715 30.6237 89.4109C30.6237 89.7504 30.3476 90.0255 30.0071 90.0255Z" fill="white"/>
</svg>
