<svg width="122" height="121" viewBox="0 0 122 121" fill="none" xmlns="http://www.w3.org/2000/svg">
<path d="M73.0203 77.829C69.3 77.829 64.6246 76.5681 62.6281 76.0298C62.427 75.9755 62.2548 75.9288 62.1152 75.8924C61.804 75.811 61.618 75.4932 61.6996 75.1826C61.7813 74.8721 62.0995 74.6859 62.4107 74.7677C62.5522 74.8047 62.7275 74.8522 62.932 74.9072C64.8838 75.4337 69.4546 76.6663 73.0203 76.6663C77.3849 76.6663 77.3849 74.8289 77.3849 74.2249C77.3849 74.0457 77.3687 73.8525 77.3369 73.6501C76.6423 69.2453 65.2857 66.899 57.3542 66.899C55.8592 66.899 54.6128 66.9895 53.7503 67.1606C49.456 68.0096 42.3172 72.1179 39.9712 73.468C39.6922 73.6284 39.3362 73.5333 39.1756 73.2546C39.0149 72.9766 39.1106 72.621 39.3894 72.4607C41.7765 71.0868 49.0407 66.9062 53.5235 66.0202C54.4595 65.8348 55.7842 65.7363 57.354 65.7363C57.354 65.7363 57.354 65.7363 57.3542 65.7363C63.8514 65.7363 77.566 67.6267 78.4876 73.4695C78.5287 73.7317 78.5493 73.9854 78.5493 74.2245C78.5501 75.8691 77.5906 77.829 73.0203 77.829Z" fill="white"/>
<path d="M71.5867 88.3808C68.2256 88.3808 65.7733 87.5935 63.4013 86.8317C61.2349 86.136 59.1885 85.4789 56.5865 85.4789C54.1738 85.4789 51.504 86.0612 48.4248 87.2594C48.1255 87.376 47.7877 87.228 47.6708 86.929C47.5539 86.6296 47.7023 86.2928 48.002 86.1762C51.2185 84.9245 54.0266 84.3161 56.5867 84.3161C59.3716 84.3161 61.6017 85.0321 63.7581 85.725C66.0443 86.4593 68.4085 87.2185 71.5867 87.2185C72.1046 87.2185 72.6372 87.1984 73.1693 87.1582C75.8726 86.9567 82.0922 84.2446 87.9582 80.709C94.2184 76.9361 98.2634 73.3461 98.2634 71.5628C98.2634 71.5397 98.2626 71.5168 98.2609 71.4942C98.149 69.9887 96.9363 69.2266 94.6559 69.2266C94.1935 69.2266 93.7109 69.261 93.2215 69.3291C88.8183 69.9375 81.4822 73.0795 78.1258 75.7942C77.8757 75.9963 77.5086 75.9577 77.3063 75.7085C77.1039 75.4591 77.1423 75.0929 77.3922 74.8908C80.9416 72.0201 88.41 68.82 93.0609 68.177C93.6029 68.1017 94.1397 68.0635 94.6556 68.0635C97.5692 68.0635 99.2622 69.2508 99.4224 71.4066C99.4263 71.4572 99.4278 71.5093 99.4278 71.5624C99.4278 74.8041 91.828 79.7349 88.5602 81.7045C82.4593 85.3815 76.166 88.101 73.2563 88.3176C72.6954 88.3593 72.1334 88.3808 71.5867 88.3808Z" fill="white"/>
<path d="M32.9511 99.0027C32.0511 99.0027 31.7463 98.1045 31.6462 97.8094C30.8052 95.3476 30.7935 92.2116 30.7815 88.8916C30.7706 85.945 30.7595 82.8976 30.1247 80.3614C30.0412 80.0298 29.9478 79.6998 29.8576 79.3803C29.6048 78.4863 29.3662 77.6419 29.3662 76.8667C29.3662 76.409 29.4481 76.0141 29.6166 75.6597C30.1431 74.5524 32.46 73.386 34.9927 72.1879C35.2988 72.0431 35.5695 71.9152 35.7848 71.8092C36.2565 71.5748 36.8191 71.3242 37.5095 71.3242C38.3823 71.3242 39.2241 71.7234 40.0833 72.5443C42.4442 74.8092 47.4687 83.5012 48.7478 86.4872C49.2182 87.5853 49.4469 88.4878 49.4469 89.246C49.4469 89.701 49.3635 90.1153 49.1992 90.4787C48.6587 91.6712 44.8931 93.4797 39.2099 96.1031C37.1781 97.041 35.4235 97.8512 34.597 98.3336C33.9581 98.7076 33.4534 99.0027 32.9511 99.0027ZM37.5093 72.4873C37.0713 72.4873 36.6727 72.6671 36.3019 72.8514C36.0804 72.9605 35.8042 73.0911 35.4912 73.239C34.1655 73.866 31.0606 75.3343 30.6687 76.1583C30.5759 76.3536 30.5308 76.5854 30.5308 76.8669C30.5308 77.4814 30.7483 78.2505 30.9785 79.0648C31.0711 79.3919 31.1668 79.7306 31.2546 80.0786C31.9238 82.7526 31.9352 85.8713 31.9463 88.8873C31.9581 92.1093 31.9692 95.1523 32.749 97.4348C32.849 97.7292 32.9302 97.8189 32.9525 97.8396C33.1395 97.8382 33.6011 97.5687 34.0084 97.3304C34.8834 96.8194 36.6617 95.9987 38.7207 95.0482C41.8702 93.5945 47.7325 90.8883 48.1375 89.9998C48.2346 89.7855 48.2819 89.5388 48.2819 89.246C48.2819 88.648 48.0839 87.8948 47.6768 86.9441C46.2856 83.6963 41.3454 75.3673 39.2769 73.3833C38.6458 72.7805 38.0674 72.4873 37.5093 72.4873Z" fill="#FF4D40"/>
<path d="M40.8754 89.4912C39.725 89.4912 38.7642 88.6331 38.6403 87.4954C38.631 87.4141 38.626 87.3274 38.626 87.2416C38.626 86.0979 39.4846 85.1422 40.6236 85.0185C40.7056 85.009 40.7925 85.0044 40.8784 85.0044C42.0185 85.0044 42.9766 85.8584 43.1072 86.9914C43.1169 87.0775 43.122 87.1641 43.122 87.2488C43.122 88.3888 42.2637 89.3464 41.1255 89.4772C41.0387 89.4863 40.956 89.4912 40.8754 89.4912ZM40.8782 86.1673C40.8366 86.1673 40.7949 86.1698 40.7527 86.1744C40.2028 86.2343 39.7908 86.693 39.7908 87.2418C39.7908 87.2831 39.7931 87.3249 39.798 87.3668C39.862 87.9566 40.3932 88.3876 40.9966 88.3225C41.5425 88.2597 41.9572 87.7983 41.9572 87.2495C41.9572 87.2083 41.9548 87.1662 41.95 87.1244C41.8871 86.5791 41.4264 86.1673 40.8782 86.1673Z" fill="#FF4D40"/>
<path d="M85.1744 99.7335H19.6449C19.3232 99.7335 19.0625 99.4732 19.0625 99.1521C19.0625 98.8312 19.3232 98.5708 19.6449 98.5708H85.1742C85.4959 98.5708 85.7566 98.8312 85.7566 99.1521C85.7566 99.4732 85.4961 99.7335 85.1744 99.7335Z" fill="white"/>
<path d="M40.5822 68.5794C40.3784 68.5794 40.1808 68.4725 40.0738 68.2825C39.9162 68.0029 40.0159 67.6483 40.2965 67.491C40.7106 67.2592 50.4908 61.7936 55.1095 60.641C55.6082 60.5166 56.218 60.4536 56.9219 60.4536C62.5327 60.4536 73.2083 64.3746 73.66 64.5414C73.9617 64.6528 74.1157 64.9873 74.0038 65.2883C73.8922 65.5896 73.5564 65.7429 73.2556 65.6314C73.1465 65.5913 62.3242 61.6159 56.9219 61.6159C56.3131 61.6159 55.7983 61.6673 55.392 61.7688C50.9245 62.8834 40.9668 68.4484 40.8668 68.5046C40.7766 68.5554 40.6787 68.5794 40.5822 68.5794Z" fill="white"/>
<path d="M62.3486 58.0139H59.7577C59.4694 58.0139 59.2244 57.8034 59.1817 57.5188L58.4952 52.9543C57.8052 52.8239 57.1328 52.6438 56.4869 52.4169L53.6035 56.0302C53.4238 56.2555 53.1054 56.315 52.8559 56.171L50.6162 54.8752C50.3671 54.7311 50.2609 54.427 50.3661 54.1596L52.0578 49.8625C51.5321 49.41 51.0394 48.9184 50.5869 48.3946L46.2792 50.0832C46.0109 50.1883 45.7061 50.0819 45.5618 49.8329L44.2665 47.5941C44.1225 47.3449 44.1825 47.0281 44.4081 46.8486L48.0243 43.972C47.795 43.3147 47.6156 42.643 47.4882 41.9656L42.9144 41.2837C42.6292 41.241 42.418 40.9967 42.418 40.7087V38.1167C42.418 37.8287 42.629 37.5842 42.9144 37.5418L47.4882 36.8596C47.6156 36.1826 47.795 35.5107 48.0243 34.8534L44.4081 31.9768C44.1827 31.7975 44.1225 31.4805 44.2665 31.2313L45.5618 28.9925C45.7061 28.7435 46.0111 28.6373 46.2792 28.7422L50.5869 30.4308C51.0394 29.907 51.5319 29.4154 52.0578 28.9627L50.3661 24.6658C50.2609 24.3984 50.3671 24.0944 50.6162 23.9504L52.8559 22.6544C53.1052 22.5094 53.4236 22.5695 53.6035 22.7951L56.4869 26.4085C57.1328 26.1814 57.8052 26.0014 58.4952 25.8711L59.1817 21.3066C59.2244 21.0222 59.4694 20.8115 59.7577 20.8115H62.3486C62.6367 20.8115 62.8817 21.0218 62.9246 21.3062L63.6132 25.8711C64.3026 26.0014 64.9761 26.1814 65.6243 26.4089L68.5049 22.7953C68.6847 22.5699 69.0025 22.5098 69.2525 22.6542L71.4958 23.9502C71.745 24.0944 71.8514 24.3986 71.746 24.6662L70.0514 28.9631C70.5781 29.4165 71.07 29.908 71.52 30.4308L75.8295 28.7424C76.097 28.6373 76.4022 28.7435 76.5464 28.9927L77.8423 31.2315C77.9865 31.4809 77.9263 31.7979 77.7008 31.9772L77.3538 32.2529C77.1024 32.4529 76.7357 32.4114 76.5356 32.1601C76.3474 31.9244 76.3725 31.5879 76.5843 31.3819L75.7885 30.0074L71.5542 31.6663C71.3177 31.7592 71.0481 31.6878 70.8881 31.4902C70.328 30.7972 69.6891 30.1585 68.9887 29.5915C68.7914 29.4318 68.7206 29.1631 68.8136 28.927L70.4781 24.7057L69.1034 23.9114L66.2733 27.4617C66.1145 27.6609 65.8444 27.7339 65.6064 27.6417C64.7835 27.3225 63.9093 27.0885 63.0085 26.946C62.7577 26.9065 62.5614 26.709 62.5237 26.4585L61.8472 21.974H60.2589L59.5845 26.4581C59.5468 26.7088 59.3506 26.9063 59.0996 26.946C58.1972 27.0887 57.3242 27.3227 56.5053 27.6413C56.2673 27.7341 55.9971 27.6611 55.8381 27.4619L53.005 23.9114L51.6331 24.7053L53.2951 28.9272C53.3881 29.1631 53.317 29.4318 53.1198 29.5915C52.4213 30.1568 51.781 30.7957 51.2168 31.491C51.0571 31.688 50.788 31.759 50.5513 31.6661L46.3195 30.0072L45.5257 31.3793L49.0776 34.2049C49.276 34.3628 49.3492 34.6306 49.2586 34.8672C48.9355 35.7101 48.7026 36.5829 48.5663 37.4613C48.5273 37.7127 48.3288 37.9096 48.0769 37.9473L43.5826 38.6174V40.2078L48.0769 40.8779C48.3288 40.9155 48.5273 41.1124 48.5663 41.3639C48.7026 42.2425 48.9355 43.1153 49.2586 43.9582C49.3492 44.1948 49.276 44.4626 49.0776 44.6206L45.5257 47.4461L46.3195 48.8182L50.5513 47.1593C50.7878 47.0665 51.0571 47.1376 51.2168 47.3345C51.7812 48.0297 52.4214 48.6688 53.1198 49.2337C53.317 49.3932 53.3881 49.662 53.2951 49.898L51.6331 54.1199L53.005 54.9138L55.8381 51.3635C55.9969 51.1643 56.2671 51.0913 56.5051 51.1841C57.3242 51.5027 58.197 51.7368 59.0996 51.8794C59.3504 51.9191 59.5467 52.1166 59.5845 52.3673L60.2589 56.8514H61.8472L62.5237 52.3669C62.5614 52.1164 62.7577 51.9189 63.0085 51.8794C63.9091 51.7371 64.7833 51.5031 65.6066 51.1839C65.8444 51.0911 66.1143 51.1647 66.2733 51.3637L69.1034 54.9138L70.4781 54.1197L68.8136 49.8982C68.7206 49.6621 68.7916 49.3934 68.9889 49.2337C69.6885 48.6675 70.3276 48.0288 70.8881 47.3354C71.0477 47.1378 71.3174 47.0663 71.5542 47.1593L75.7885 48.8182L76.5827 47.4461L73.0283 44.6206C72.8299 44.4628 72.7567 44.1948 72.847 43.9584C73.1727 43.1079 73.4063 42.2349 73.5414 41.3639C73.5804 41.1125 73.7788 40.9157 74.0308 40.8779L78.5255 40.2078V38.6174L76.2921 38.2845C75.9739 38.237 75.7545 37.9411 75.8023 37.6235C75.8497 37.3059 76.1461 37.087 76.4643 37.1344L79.1941 37.5416C79.4794 37.5842 79.6905 37.8286 79.6905 38.1165V40.7085C79.6905 40.9965 79.4792 41.241 79.1941 41.2835L74.6196 41.9654C74.4927 42.639 74.3125 43.3106 74.0817 43.9716L77.7006 46.8483C77.9262 47.0275 77.9863 47.3447 77.8421 47.5939L76.5462 49.8327C76.4022 50.0817 76.097 50.1879 75.8293 50.083L71.5198 48.3946C71.0694 48.9176 70.5775 49.4091 70.0514 49.8621L71.7458 54.1592C71.8512 54.4268 71.7448 54.7313 71.4956 54.8752L69.2523 56.171C69.0025 56.3152 68.6845 56.2553 68.5047 56.0298L65.6241 52.4165C64.9759 52.6438 64.3022 52.8241 63.613 52.9541L62.9244 57.519C62.8817 57.8034 62.6367 58.0139 62.3486 58.0139ZM61.0561 46.6107C57.0798 46.6107 53.8447 43.3815 53.8447 39.4125C53.8447 35.4435 57.0798 32.2143 61.0561 32.2143C65.0308 32.2143 68.2644 35.4435 68.2644 39.4125C68.2644 43.3815 65.0308 46.6107 61.0561 46.6107ZM61.0561 33.377C57.722 33.377 55.0095 36.0845 55.0095 39.4125C55.0095 42.7405 57.722 45.448 61.0561 45.448C64.3886 45.448 67.0995 42.7405 67.0995 39.4125C67.0995 36.0845 64.3884 33.377 61.0561 33.377Z" fill="white"/>
<path d="M91.5961 45.3646C91.3332 45.3646 91.0993 45.1873 91.0325 44.9284L90.3408 42.2479C89.9925 42.2124 89.6489 42.1576 89.3125 42.0837L87.8166 44.4132C87.6611 44.6552 87.3515 44.7473 87.0886 44.6302L85.5944 43.9634C85.3313 43.846 85.1938 43.5542 85.2709 43.2769L86.0152 40.6069C85.7339 40.405 85.4645 40.1857 85.209 39.9506L82.7471 41.2249C82.4915 41.3577 82.1768 41.283 82.0075 41.0501L81.0463 39.7266C80.877 39.4935 80.9042 39.1718 81.11 38.9703L83.0896 37.0329C82.9479 36.7158 82.8244 36.3905 82.7204 36.0595L79.9494 35.9301C79.6615 35.9167 79.4266 35.6948 79.3973 35.4084L79.2315 33.7812C79.2024 33.495 79.3874 33.2307 79.6666 33.1596L82.3499 32.474C82.3845 32.1292 82.439 31.7857 82.5136 31.446L80.182 29.955C79.9393 29.8 79.8467 29.4911 79.9644 29.2285L80.6326 27.7343C80.7501 27.4713 81.0428 27.3345 81.3208 27.4113L81.4571 27.4492C81.7669 27.5355 81.9481 27.8562 81.8617 28.1653C81.8145 28.3342 81.6973 28.4647 81.5503 28.5344L81.2321 29.2458L83.4919 30.691C83.7058 30.8278 83.8062 31.0869 83.74 31.3318C83.5957 31.8661 83.5085 32.4151 83.4806 32.9633C83.4678 33.2177 83.2905 33.434 83.0432 33.4969L80.4406 34.1614L80.5049 34.7916L83.1913 34.917C83.4458 34.9288 83.6631 35.1044 83.7275 35.3505C83.8673 35.8834 84.0644 36.4033 84.3136 36.8953C84.428 37.1214 84.3826 37.3952 84.2016 37.5725L82.2837 39.4495L82.6559 39.962L85.0448 38.7255C85.2715 38.6077 85.5495 38.6521 85.7285 38.8346C86.1143 39.2272 86.5431 39.5764 87.0034 39.8723C87.2177 40.0103 87.3173 40.2715 87.2492 40.5168L86.5274 43.1059L87.1061 43.3643L88.5565 41.1059C88.6937 40.892 88.9552 40.792 89.2001 40.8589C89.7229 41.0013 90.2723 41.0893 90.8329 41.1203C91.0863 41.1342 91.3014 41.3104 91.3647 41.5557L92.0348 44.1524L92.6648 44.0861L92.7904 41.4088C92.8025 41.1555 92.9774 40.9393 93.2228 40.8742C93.7526 40.7337 94.2725 40.5351 94.7687 40.2835C94.9954 40.1686 95.2703 40.214 95.4482 40.3948L97.3299 42.3103L97.8438 41.9413L96.606 39.5588C96.4887 39.333 96.532 39.0575 96.7128 38.8784C97.1094 38.4856 97.4602 38.0547 97.7551 37.5977C97.8933 37.3836 98.1554 37.2844 98.4008 37.3526L100.992 38.0731L101.251 37.4974L98.9902 36.0475C98.7768 35.9105 98.6768 35.6518 98.7428 35.4072C98.8879 34.8693 98.9752 34.3221 99.0028 33.7808C99.0156 33.5268 99.1925 33.3107 99.4392 33.2474L102.042 32.578L101.976 31.9469L99.2917 31.8213C99.0372 31.8093 98.8199 31.6337 98.7555 31.3876C98.6172 30.86 98.4196 30.3428 98.1678 29.8508C98.0519 29.6244 98.097 29.3493 98.2787 29.1714L100.197 27.2942L99.8261 26.7819L97.4404 28.0131C97.2148 28.1292 96.9405 28.0868 96.7609 27.9077C96.3734 27.5208 95.9399 27.1694 95.4726 26.8638C95.2604 26.7251 95.1628 26.4652 95.2309 26.2215L95.9525 23.6376L95.3761 23.3799L93.9259 25.6382C93.7887 25.8521 93.5274 25.9521 93.2824 25.8852C92.7363 25.7364 92.189 25.6486 91.6553 25.6242C91.4 25.6124 91.182 25.4357 91.1179 25.1884L90.4472 22.59L89.8149 22.6543L89.6893 25.3353C89.6772 25.5901 89.5002 25.8075 89.2527 25.8711C88.7269 26.0062 88.2098 26.2025 87.7151 26.4546C87.4883 26.5699 87.2127 26.5251 87.0345 26.3439L84.8409 24.111C84.6157 23.8817 84.6192 23.5136 84.8489 23.2888C85.0787 23.0642 85.4476 23.0677 85.6724 23.2969L87.5742 25.2328C87.8918 25.09 88.2164 24.9667 88.5452 24.864L88.6747 22.0997C88.6883 21.8122 88.9106 21.5777 89.1975 21.5486L90.8273 21.3831C91.1148 21.3527 91.3783 21.5382 91.4503 21.8164L92.1416 24.4945C92.4829 24.5284 92.8267 24.5838 93.1707 24.6604L94.6664 22.3311C94.8219 22.0889 95.1319 21.9968 95.3948 22.1143L96.8863 22.7815C97.1492 22.8991 97.2866 23.1909 97.2092 23.468L96.4647 26.1344C96.7477 26.3387 97.0183 26.5579 97.2742 26.7904L99.7368 25.5194C99.9931 25.3872 100.308 25.4622 100.476 25.6953L101.435 27.0189C101.604 27.252 101.577 27.5731 101.371 27.7744L99.3924 29.7105C99.5353 30.0267 99.6594 30.3509 99.7632 30.6798L102.531 30.8092C102.819 30.8226 103.053 31.0435 103.083 31.3293L103.252 32.9575C103.281 33.2435 103.097 33.5078 102.818 33.5795L100.134 34.2697C100.099 34.6116 100.045 34.9538 99.9698 35.2939L102.303 36.7901C102.545 36.9455 102.637 37.2545 102.519 37.5169L101.851 39.0055C101.733 39.2681 101.439 39.4049 101.163 39.3278L98.4912 38.585C98.2893 38.8654 98.0692 39.1358 97.8325 39.3937L99.1102 41.8526C99.2433 42.1087 99.168 42.4236 98.9333 42.5922L97.6046 43.5462C97.3709 43.7138 97.05 43.6861 96.8487 43.4813L94.9083 41.5063C94.5903 41.6491 94.2651 41.7735 93.9349 41.8783L93.8052 44.6399C93.7918 44.9267 93.5705 45.1608 93.2843 45.1908L91.6572 45.3619C91.6369 45.3637 91.6163 45.3646 91.5961 45.3646ZM91.2342 38.1308C88.7848 38.1308 86.7475 36.2946 86.4955 33.8595C86.4786 33.6948 86.4701 33.5287 86.4701 33.3656C86.4701 30.9197 88.3109 28.8854 90.7522 28.6336H90.7524C90.9168 28.6168 91.0832 28.6082 91.2472 28.6082C93.6998 28.6082 95.7364 30.4474 95.9847 32.8865C96.0016 33.0491 96.0104 33.2156 96.0104 33.3797C96.0104 35.8223 94.1705 37.8541 91.7306 38.1056C91.5668 38.1223 91.3994 38.1308 91.2342 38.1308ZM90.8718 29.7901C89.0263 29.9804 87.6347 31.5177 87.6347 33.3656C87.6347 33.4894 87.6411 33.6155 87.6541 33.7405C87.8444 35.5805 89.3835 36.9681 91.234 36.9681C91.3594 36.9681 91.4864 36.9615 91.6107 36.9488C93.4548 36.7587 94.8452 35.2243 94.8452 33.3795C94.8452 33.2551 94.8386 33.1291 94.8256 33.0049C94.6378 31.1605 93.0991 29.7707 91.2466 29.7707C91.1228 29.7707 90.9966 29.7773 90.8718 29.7901Z" fill="#FF4D40"/>
</svg>
