<svg width="121" height="121" viewBox="0 0 121 121" fill="none" xmlns="http://www.w3.org/2000/svg">
<path d="M59.5325 91.9581C59.2002 91.9581 58.9319 91.688 58.9319 91.3584C58.9319 91.0265 59.2002 90.7565 59.5325 90.7565H84.5137V46.9365C84.5137 46.6046 84.784 46.3368 85.1143 46.3368C85.4444 46.3368 85.7149 46.6046 85.7149 46.9365V91.3584C85.7149 91.5183 85.6526 91.6682 85.5387 91.7819C85.4246 91.8941 85.2744 91.9559 85.1143 91.9559L59.5325 91.9581ZM55.5285 91.9559C55.1962 91.9559 54.9279 91.688 54.9279 91.3584C54.9279 91.0265 55.1962 90.7565 55.5285 90.7565C55.8588 90.7565 56.1291 91.0265 56.1291 91.3584C56.1291 91.6882 55.8588 91.9559 55.5285 91.9559ZM51.5245 91.9559H50.4594C50.2992 91.9559 50.1471 91.8939 50.035 91.7819L32.6635 74.4306C32.5514 74.3186 32.4873 74.1647 32.4873 74.0068V29.6391C32.4873 29.3073 32.7556 29.0394 33.0879 29.0394C33.4182 29.0394 33.6885 29.3073 33.6885 29.6391V73.7571L50.7076 90.7567H51.5245C51.8548 90.7567 52.1251 91.0267 52.1251 91.3586C52.1251 91.6864 51.8668 91.9481 51.5385 91.9561C51.5345 91.9559 51.5285 91.9559 51.5245 91.9559ZM85.1143 43.5382C84.784 43.5382 84.5137 43.2683 84.5137 42.9385C84.5137 42.6066 84.784 42.3388 85.1143 42.3388C85.4444 42.3388 85.7149 42.6066 85.7149 42.9385C85.7149 43.2683 85.4444 43.5382 85.1143 43.5382ZM85.1143 39.5402C84.784 39.5402 84.5137 39.2703 84.5137 38.9405V21.5231H33.6885V21.6391C33.6885 21.6411 33.6885 21.6411 33.6885 21.6431C33.6885 21.9729 33.4182 22.2428 33.0879 22.2428C32.7556 22.2428 32.4873 21.9729 32.4873 21.6431V20.9234C32.4873 20.7655 32.5514 20.6116 32.6635 20.4996C32.7756 20.3877 32.9298 20.3237 33.0879 20.3237H85.1143C85.2724 20.3237 85.4266 20.3877 85.5387 20.4996C85.6508 20.6116 85.7149 20.7655 85.7149 20.9234V38.9405C85.7149 39.2703 85.4444 39.5402 85.1143 39.5402ZM33.0879 26.2408C32.7556 26.2408 32.4873 25.9709 32.4873 25.6411C32.4873 25.3092 32.7556 25.0414 33.0879 25.0414C33.4182 25.0414 33.6885 25.3092 33.6885 25.6411C33.6885 25.9709 33.4182 26.2408 33.0879 26.2408Z" fill="white"/>
<path d="M62.0245 103.505C62.0145 103.505 62.0065 103.505 61.9965 103.505L23.8541 101.801C23.5398 101.788 23.2935 101.542 23.2795 101.228L21.5798 63.1467C21.5678 62.8988 21.7079 62.6729 21.9362 62.573C22.1604 62.473 22.4307 62.523 22.6028 62.6969L45.1555 85.2157C45.2697 85.3296 45.3317 85.4796 45.3317 85.6395C45.3317 85.7994 45.2697 85.9513 45.1555 86.0633C44.9293 86.2912 44.5349 86.2912 44.3067 86.0633L22.8471 64.6361L24.4547 100.626L60.505 102.238L49.9704 91.7186C49.8563 91.6047 49.7942 91.4548 49.7942 91.2949C49.7942 91.1327 49.8563 90.9828 49.9704 90.8691C50.1966 90.6432 50.591 90.6432 50.8192 90.8691L62.4489 102.481C62.6251 102.657 62.6752 102.919 62.5731 103.147C62.477 103.365 62.2626 103.505 62.0245 103.505ZM47.562 89.0658C47.4018 89.0658 47.2517 89.0038 47.1375 88.8899C46.9033 88.658 46.9033 88.2764 47.1375 88.0423C47.3658 87.8164 47.7602 87.8164 47.9884 88.0423C48.2226 88.2764 48.2226 88.658 47.9884 88.8899C47.8743 89.004 47.7241 89.0658 47.562 89.0658Z" fill="#141517"/>
<path d="M45.09 94.5366C45.082 94.5366 45.074 94.5366 45.064 94.5346L31.7225 93.9429C31.4102 93.9289 31.164 93.683 31.15 93.3692L30.5574 80.0538C30.5453 79.8062 30.6855 79.5803 30.9137 79.4781C31.1379 79.3804 31.4082 79.4304 31.5804 79.6041L45.5164 93.5131C45.6926 93.689 45.7426 93.9509 45.6405 94.1788C45.5444 94.3947 45.3302 94.5366 45.09 94.5366ZM32.3251 92.7695L43.5725 93.2693L31.8246 81.5431L32.3251 92.7695Z" fill="#141517"/>
<path d="M98.1431 89.1199C97.8127 89.1199 97.5425 88.8498 97.5425 88.5202C97.5425 88.1883 97.8127 87.9205 98.1431 87.9205C98.4732 87.9205 98.7437 88.1883 98.7437 88.5202C98.7437 88.8498 98.4732 89.1199 98.1431 89.1199ZM94.139 89.1199H88.0547C87.8965 89.1199 87.7406 89.0559 87.6303 88.944C87.5182 88.8318 87.4541 88.6761 87.4541 88.5202V26.2892C87.4541 26.1312 87.5182 25.9773 87.6303 25.8654C87.7426 25.7534 87.8965 25.6895 88.0547 25.6895H98.9737C99.1319 25.6895 99.2862 25.7534 99.3981 25.8654C99.5104 25.9773 99.5743 26.1312 99.5743 26.2892V85.3515C99.5743 85.6814 99.306 85.9512 98.9737 85.9512C98.6436 85.9512 98.3731 85.6814 98.3731 85.3515V26.8889H88.6553V87.9205H94.139C94.4692 87.9205 94.7396 88.1883 94.7396 88.5202C94.7396 88.8498 94.4692 89.1199 94.139 89.1199Z" fill="white"/>
<path d="M98.9738 31.1364H94.3213C93.9909 31.1364 93.7227 30.8686 93.7227 30.5367C93.7227 30.2069 93.9909 29.937 94.3213 29.937H98.9738C99.3061 29.937 99.5744 30.2069 99.5744 30.5367C99.5744 30.8686 99.3063 31.1364 98.9738 31.1364Z" fill="white"/>
<path d="M98.9737 34.8049H92.2871C91.9548 34.8049 91.6865 34.535 91.6865 34.2052C91.6865 33.8733 91.9548 33.6055 92.2871 33.6055H98.9737C99.306 33.6055 99.5743 33.8733 99.5743 34.2052C99.5743 34.535 99.3062 34.8049 98.9737 34.8049Z" fill="white"/>
<path d="M98.9738 38.3268H94.3213C93.9909 38.3268 93.7227 38.059 93.7227 37.7271C93.7227 37.3973 93.9909 37.1274 94.3213 37.1274H98.9738C99.3061 37.1274 99.5744 37.3973 99.5744 37.7271C99.5744 38.059 99.3063 38.3268 98.9738 38.3268Z" fill="white"/>
<path d="M98.9737 41.9953H92.2871C91.9548 41.9953 91.6865 41.7254 91.6865 41.3956C91.6865 41.0638 91.9548 40.7959 92.2871 40.7959H98.9737C99.306 40.7959 99.5743 41.0638 99.5743 41.3956C99.5743 41.7254 99.3062 41.9953 98.9737 41.9953Z" fill="white"/>
<path d="M98.9738 45.5173H94.3213C93.9909 45.5173 93.7227 45.2494 93.7227 44.9176C93.7227 44.5877 93.9909 44.3179 94.3213 44.3179H98.9738C99.3061 44.3179 99.5744 44.5877 99.5744 44.9176C99.5744 45.2494 99.3063 45.5173 98.9738 45.5173Z" fill="white"/>
<path d="M98.9737 49.1852H92.2871C91.9548 49.1852 91.6865 48.9154 91.6865 48.5855C91.6865 48.2537 91.9548 47.9858 92.2871 47.9858H98.9737C99.306 47.9858 99.5743 48.2537 99.5743 48.5855C99.5743 48.9154 99.3062 49.1852 98.9737 49.1852Z" fill="white"/>
<path d="M98.9738 52.7136H94.3213C93.9909 52.7136 93.7227 52.4437 93.7227 52.1139C93.7227 51.784 93.9909 51.5142 94.3213 51.5142H98.9738C99.3061 51.5142 99.5744 51.784 99.5744 52.1139C99.5744 52.4437 99.3063 52.7136 98.9738 52.7136Z" fill="white"/>
<path d="M98.9737 56.3742H92.2871C91.9548 56.3742 91.6865 56.1063 91.6865 55.7765C91.6865 55.4446 91.9548 55.1768 92.2871 55.1768H98.9737C99.306 55.1768 99.5743 55.4446 99.5743 55.7765C99.5743 56.1063 99.3062 56.3742 98.9737 56.3742Z" fill="white"/>
<path d="M98.9738 59.9045H94.3213C93.9909 59.9045 93.7227 59.6346 93.7227 59.3048C93.7227 58.9729 93.9909 58.7051 94.3213 58.7051H98.9738C99.3061 58.7051 99.5744 58.9729 99.5744 59.3048C99.5744 59.6346 99.3063 59.9045 98.9738 59.9045Z" fill="white"/>
<path d="M98.9737 63.5642H92.2871C91.9548 63.5642 91.6865 63.2963 91.6865 62.9644C91.6865 62.6346 91.9548 62.3647 92.2871 62.3647H98.9737C99.306 62.3647 99.5743 62.6346 99.5743 62.9644C99.5743 63.2963 99.3062 63.5642 98.9737 63.5642Z" fill="white"/>
<path d="M98.9738 67.0929H94.3213C93.9909 67.0929 93.7227 66.825 93.7227 66.4952C93.7227 66.1636 93.9909 65.8955 94.3213 65.8955H98.9738C99.3061 65.8955 99.5744 66.1636 99.5744 66.4952C99.5744 66.825 99.3063 67.0929 98.9738 67.0929Z" fill="white"/>
<path d="M98.9737 70.7546H92.2871C91.9548 70.7546 91.6865 70.4867 91.6865 70.1549C91.6865 69.825 91.9548 69.5552 92.2871 69.5552H98.9737C99.306 69.5552 99.5743 69.825 99.5743 70.1549C99.5743 70.4867 99.3062 70.7546 98.9737 70.7546Z" fill="white"/>
<path d="M98.9738 74.2849H94.3213C93.9909 74.2849 93.7227 74.0148 93.7227 73.6852C93.7227 73.3533 93.9909 73.0854 94.3213 73.0854H98.9738C99.3061 73.0854 99.5744 73.3533 99.5744 73.6852C99.5744 74.0148 99.3063 74.2849 98.9738 74.2849Z" fill="white"/>
<path d="M98.9737 77.9455H92.2871C91.9548 77.9455 91.6865 77.6776 91.6865 77.3458C91.6865 77.0162 91.9548 76.7461 92.2871 76.7461H98.9737C99.306 76.7461 99.5743 77.0162 99.5743 77.3458C99.5743 77.6776 99.3062 77.9455 98.9737 77.9455Z" fill="white"/>
<path d="M98.9738 81.4733H94.3213C93.9909 81.4733 93.7227 81.2054 93.7227 80.8736C93.7227 80.5437 93.9909 80.2759 94.3213 80.2759H98.9738C99.3061 80.2759 99.5744 80.5437 99.5744 80.8736C99.5744 81.2054 99.3063 81.4733 98.9738 81.4733Z" fill="white"/>
<path d="M98.9737 85.1355H92.2871C91.9548 85.1355 91.6865 84.8656 91.6865 84.5357C91.6865 84.2061 91.9548 83.936 92.2871 83.936H98.9737C99.306 83.936 99.5743 84.2061 99.5743 84.5357C99.5743 84.8658 99.3062 85.1355 98.9737 85.1355Z" fill="white"/>
<path d="M55.6946 54.6068C54.3973 54.6068 53.138 54.3529 51.9548 53.8531C50.8097 53.3714 49.7826 52.6797 48.8997 51.7982C48.0189 50.9186 47.3262 49.8931 46.8417 48.7497C46.3412 47.5683 46.0869 46.3109 46.0869 45.0155C46.0869 43.7222 46.3412 42.4668 46.8417 41.2834C47.3262 40.142 48.0189 39.1165 48.8997 38.2349C49.7826 37.3534 50.8097 36.6617 51.9528 36.1779C53.138 35.6782 54.3973 35.4243 55.6946 35.4243C56.9919 35.4243 58.2492 35.6782 59.4344 36.1779C60.5775 36.6617 61.6043 37.3534 62.4874 38.2349C63.3683 39.1165 64.061 40.142 64.5455 41.2834C65.046 42.4668 65.3005 43.7222 65.3005 45.0155C65.3005 46.3109 65.046 47.5683 64.5455 48.7497C64.061 49.8931 63.3683 50.9186 62.4874 51.7982C61.6045 52.6797 60.5775 53.3714 59.4344 53.8531C58.2492 54.3529 56.9919 54.6068 55.6946 54.6068ZM55.6946 36.6237C53.4503 36.6237 51.3382 37.4973 49.7506 39.0825C48.163 40.6677 47.2881 42.7767 47.2881 45.0155C47.2881 47.2584 48.163 49.3654 49.7486 50.9506C51.3382 52.5358 53.4483 53.4074 55.6946 53.4074C57.9388 53.4074 60.049 52.5358 61.6366 50.9506C63.2244 49.3654 64.097 47.2584 64.0993 45.0155C64.097 42.7767 63.2244 40.6697 61.6366 39.0825C60.049 37.4973 57.9388 36.6237 55.6946 36.6237Z" fill="#141517"/>
<path d="M71.5137 45.6154H56.1885C56.0303 45.6154 55.8762 45.5515 55.7641 45.4395C55.652 45.3276 55.5879 45.1736 55.5879 45.0157V29.7193C55.5879 29.5614 55.652 29.4075 55.7641 29.2955C55.8762 29.1836 56.0303 29.1196 56.1885 29.1196H71.5137C71.6719 29.1196 71.8262 29.1836 71.9381 29.2955C72.0505 29.4075 72.1143 29.5614 72.1143 29.7193V45.0157C72.1143 45.1756 72.0523 45.3276 71.9381 45.4395C71.8242 45.5535 71.6741 45.6154 71.5137 45.6154ZM56.7891 44.416H70.9131V30.319H56.7891V44.416Z" fill="#141517"/>
<path d="M60.8076 86.8164C60.4773 86.8164 60.207 86.5465 60.207 86.2167C60.207 85.8849 60.4773 85.617 60.8076 85.617H78.7137V66.6085C78.7137 66.2789 78.9839 66.0088 79.3143 66.0088C79.6464 66.0088 79.9149 66.2789 79.9149 66.6085V86.2167C79.9149 86.3768 79.8526 86.5267 79.7385 86.6405C79.6264 86.7544 79.4744 86.8164 79.3143 86.8164H60.8096H60.8076Z" fill="white"/>
<path d="M29.708 42.7307C29.3777 42.7307 29.1074 42.4629 29.1074 42.131V17.5553C29.1074 17.3973 29.1715 17.2434 29.2836 17.1315C29.3957 17.0195 29.5499 16.9556 29.708 16.9556H62.2488C62.5789 16.9556 62.8494 17.2254 62.8494 17.5553C62.8494 17.8871 62.5789 18.155 62.2488 18.155H30.3086V42.129V42.131C30.3086 42.4629 30.0404 42.7307 29.708 42.7307Z" fill="white"/>
</svg>
