<svg width="121" height="121" viewBox="0 0 121 121" fill="none" xmlns="http://www.w3.org/2000/svg">
<path d="M91.3816 101.66H83.9667C83.6575 101.66 83.4068 101.408 83.4068 101.096C83.4068 100.785 83.6575 100.533 83.9667 100.533H91.3816C93.2896 100.533 94.8416 98.9694 94.8416 97.0478V93.5632H20.3873V97.0478C20.3873 98.9694 21.9418 100.533 23.8524 100.533H74.6338C74.9431 100.533 75.1938 100.785 75.1938 101.096C75.1938 101.408 74.9431 101.66 74.6338 101.66H23.8525C21.3243 101.66 19.2676 99.5909 19.2676 97.0478V92.9997C19.2676 92.6884 19.5183 92.4361 19.8275 92.4361H95.4015C95.7108 92.4361 95.9615 92.6884 95.9615 92.9997V97.0478C95.9615 99.5909 93.907 101.66 91.3816 101.66Z" fill="white"/>
<path d="M89.9126 93.5635H25.3217C25.0124 93.5635 24.7617 93.3112 24.7617 93V92.9089C24.7617 92.5976 25.0124 92.3453 25.3217 92.3453C25.4344 92.3453 25.5393 92.3789 25.6272 92.4364H89.3528V83.9803L81.0211 83.9805L75.1492 87.6477C74.9767 87.7557 74.7596 87.7608 74.5816 87.6614C74.4041 87.5618 74.2939 87.3734 74.2939 87.1688V84.1522C74.2939 83.8409 74.5446 83.5886 74.8539 83.5886C75.1632 83.5886 75.4138 83.8409 75.4138 84.1522V86.1557L80.5662 82.9379C80.6551 82.8825 80.7572 82.8532 80.8615 82.8532H89.7368L89.8965 82.8483C90.0468 82.8436 90.1942 82.9013 90.3031 83.0076C90.4115 83.1135 90.4727 83.2595 90.4727 83.4117V92.9998C90.4725 93.3112 90.2221 93.5635 89.9126 93.5635ZM25.3217 84.0793C25.0124 84.0793 24.7617 83.827 24.7617 83.5157V54.5944C24.7617 54.2831 25.0124 54.0308 25.3217 54.0308H89.9126C90.2219 54.0308 90.4725 54.2831 90.4725 54.5944V65.5469C90.4725 65.8582 90.2219 66.1105 89.9126 66.1105H82.7731C81.485 66.1105 80.377 67.0385 80.1386 68.3173C80.089 68.5836 79.8577 68.7768 79.5884 68.7768H74.0438C72.5661 68.7768 71.364 69.9856 71.364 71.4714V77.435C71.364 77.7462 71.1133 77.9985 70.8041 77.9985C70.4948 77.9985 70.2441 77.7462 70.2441 77.435V71.4714C70.2441 69.364 71.9486 67.6496 74.0438 67.6496H79.1531C79.6502 66.0797 81.1049 64.9833 82.7733 64.9833H89.3528V55.158H25.8816V83.5159C25.8816 83.827 25.631 84.0793 25.3217 84.0793Z" fill="white"/>
<path d="M86.5117 93.5637H39.0346C38.7253 93.5637 38.4746 93.3114 38.4746 93.0001C38.4746 92.6888 38.7253 92.4365 39.0346 92.4365H85.9517V83.9806H81.0215L75.1495 87.6478C74.977 87.7558 74.76 87.7611 74.5819 87.6613C74.4044 87.562 74.2943 87.3735 74.2943 87.169V83.9804H74.0441C71.9488 83.9804 70.2444 82.2659 70.2444 80.1583V71.4713C70.2444 69.3639 71.949 67.6496 74.0441 67.6496H74.3114C74.6207 67.6496 74.8714 67.9018 74.8714 68.2131C74.8714 68.5244 74.6207 68.7767 74.3114 68.7767H74.0441C72.5664 68.7767 71.3644 69.9856 71.3644 71.4713V80.1583C71.3644 81.6442 72.5664 82.8533 74.0441 82.8533H74.8542C75.1635 82.8533 75.4142 83.1056 75.4142 83.4169V86.1558L80.5666 82.938C80.6554 82.8826 80.7575 82.8533 80.8619 82.8533H86.5119C86.8212 82.8533 87.0718 83.1056 87.0718 83.4169V92.9999C87.0717 93.3114 86.821 93.5637 86.5117 93.5637ZM29.7019 93.5637H28.723C28.4138 93.5637 28.1631 93.3114 28.1631 93.0001V58.2176C28.1631 57.9063 28.4138 57.654 28.723 57.654H86.5117C86.821 57.654 87.0717 57.9063 87.0717 58.2176V65.547C87.0717 65.8583 86.821 66.1106 86.5117 66.1106H82.7734C82.6532 66.1108 82.5317 66.1191 82.4132 66.1352C82.1072 66.1771 81.8246 65.9609 81.783 65.6526C81.7414 65.344 81.9562 65.0603 82.2625 65.0184C82.4303 64.9955 82.6019 64.9837 82.7725 64.9835H85.9514V58.7811H29.283V92.4365H29.7019C30.0111 92.4365 30.2618 92.6888 30.2618 93.0001C30.2618 93.3114 30.0111 93.5637 29.7019 93.5637Z" fill="white"/>
<path d="M58.694 73.0224H34.4887C34.1794 73.0224 33.9287 72.7701 33.9287 72.4588C33.9287 72.1476 34.1794 71.8953 34.4887 71.8953H58.694C59.0032 71.8953 59.2539 72.1476 59.2539 72.4588C59.2539 72.7701 59.0032 73.0224 58.694 73.0224Z" fill="white"/>
<path d="M58.6935 75.7417H46.5883C46.279 75.7417 46.0283 75.4894 46.0283 75.1781C46.0283 74.8668 46.279 74.6145 46.5883 74.6145H58.6935C59.0028 74.6145 59.2535 74.8668 59.2535 75.1781C59.2535 75.4894 59.0028 75.7417 58.6935 75.7417Z" fill="white"/>
<path d="M50.3923 78.4584H34.4887C34.1794 78.4584 33.9287 78.2061 33.9287 77.8948C33.9287 77.5835 34.1794 77.3312 34.4887 77.3312H50.3923C50.7016 77.3312 50.9523 77.5835 50.9523 77.8948C50.9523 78.2061 50.7016 78.4584 50.3923 78.4584Z" fill="white"/>
<path d="M58.694 81.1749H34.4887C34.1794 81.1749 33.9287 80.9226 33.9287 80.6113C33.9287 80.3 34.1794 80.0477 34.4887 80.0477H58.694C59.0032 80.0477 59.2539 80.3 59.2539 80.6113C59.2539 80.9226 59.0032 81.1749 58.694 81.1749Z" fill="white"/>
<path d="M58.6934 83.8943H37.7885C37.4792 83.8943 37.2285 83.6421 37.2285 83.3308C37.2285 83.0195 37.4792 82.7672 37.7885 82.7672H58.6934C59.0026 82.7672 59.2533 83.0195 59.2533 83.3308C59.2533 83.6421 59.0026 83.8943 58.6934 83.8943Z" fill="white"/>
<path d="M50.3923 86.6109H34.4887C34.1794 86.6109 33.9287 86.3586 33.9287 86.0473C33.9287 85.7361 34.1794 85.4838 34.4887 85.4838H50.3923C50.7016 85.4838 50.9523 85.7361 50.9523 86.0473C50.9523 86.3586 50.7016 86.6109 50.3923 86.6109Z" fill="white"/>
<path d="M58.694 89.3298H34.4887C34.1794 89.3298 33.9287 89.0775 33.9287 88.7662C33.9287 88.4549 34.1794 88.2026 34.4887 88.2026H58.694C59.0032 88.2026 59.2539 88.4549 59.2539 88.7662C59.2539 89.0775 59.0032 89.3298 58.694 89.3298Z" fill="white"/>
<path d="M57.0389 43.4963C51.7393 43.4963 47.4277 39.1558 47.4277 33.8205C47.4277 28.4851 51.7393 24.1447 57.0389 24.1447C62.3412 24.1447 66.655 28.4851 66.655 33.8205C66.655 39.1558 62.3412 43.4963 57.0389 43.4963ZM57.0389 25.272C52.3569 25.272 48.5477 29.1069 48.5477 33.8207C48.5477 38.5344 52.3569 42.3693 57.0389 42.3693C61.7238 42.3693 65.535 38.5344 65.535 33.8207C65.535 29.1069 61.7238 25.272 57.0389 25.272Z" fill="#141517"/>
<path d="M65.5062 32.0828C62.8702 32.0828 60.4112 31.0287 58.5822 29.1148C58.3763 28.8995 58.3734 28.5601 58.5751 28.341C59.3669 27.4816 59.9636 26.4854 60.3491 25.3802C60.4015 25.2299 60.5147 25.1089 60.6606 25.0473C60.8068 24.9857 60.9716 24.9891 61.1151 25.0565C63.7111 26.2808 65.6172 28.5815 66.345 31.3686C66.3879 31.5329 66.3549 31.708 66.2552 31.845C66.1553 31.9819 65.9995 32.0665 65.8309 32.0747C65.7203 32.08 65.6159 32.0828 65.5062 32.0828ZM59.7555 28.6948C61.2135 30.0515 63.0606 30.8371 65.0431 30.9433C64.3495 28.991 62.9798 27.364 61.1747 26.3526C60.8152 27.1998 60.3399 27.9841 59.7555 28.6948Z" fill="#141517"/>
<path d="M52.3344 32.2219C50.9108 32.2219 49.5394 31.916 48.2584 31.313C47.9978 31.1903 47.872 30.889 47.9672 30.6161C49.3167 26.7454 52.9623 24.1449 57.0386 24.1449C58.4585 24.1449 59.8298 24.4515 61.1144 25.0564C61.375 25.1791 61.5008 25.4804 61.4056 25.7535C60.0557 29.6223 56.4103 32.2219 52.3344 32.2219ZM49.2115 30.4998C50.2035 30.8948 51.2518 31.0947 52.3344 31.0947C55.7608 31.0947 58.843 29.0153 60.1613 25.8692C59.1665 25.4727 58.1186 25.2719 57.0388 25.2719C53.6116 25.2719 50.5294 27.3518 49.2115 30.4998Z" fill="#141517"/>
<path d="M75.0957 55.1579H38.6596C38.3503 55.1579 38.0996 54.9056 38.0996 54.5943V51.0092C38.0996 50.7776 38.2405 50.5695 38.4548 50.4847L50.9774 45.5349C51.1813 45.4545 51.4127 45.5007 51.5701 45.653L56.6849 50.6003L62.1946 45.6393C62.3519 45.4977 62.5752 45.4567 62.7727 45.5347L75.3003 50.4845C75.5146 50.5693 75.6555 50.7774 75.6555 51.009V54.5941C75.6557 54.9054 75.405 55.1579 75.0957 55.1579ZM39.2195 54.0307H74.5358V51.3934L62.6844 46.7108L57.0448 51.7888C56.8264 51.9853 56.4945 51.9793 56.2834 51.7751L51.053 46.7159L39.2197 51.3932V54.0307H39.2195Z" fill="#141517"/>
<path d="M62.8998 53.0918H50.85C50.6966 53.0918 50.5497 53.0283 50.444 52.9163C50.3384 52.8043 50.2829 52.6535 50.2908 52.4991L50.6226 46.0302C50.6387 45.7193 50.9026 45.482 51.2108 45.4965C51.5197 45.5124 51.7571 45.7775 51.7411 46.0884L51.4394 51.9646H62.3204L62.1235 46.1241C62.1129 45.813 62.355 45.5525 62.6641 45.5418C62.9676 45.5262 63.2322 45.7747 63.2427 46.0858L63.4592 52.5088C63.4643 52.6616 63.4079 52.8098 63.3022 52.9197C63.1968 53.0296 63.0516 53.0918 62.8998 53.0918Z" fill="#141517"/>
<path d="M58.6884 55.158H55.0658C54.7565 55.158 54.5059 54.9057 54.5059 54.5944V52.5284C54.5059 52.2171 54.7565 51.9648 55.0658 51.9648H58.6882C58.9975 51.9648 59.2482 52.2171 59.2482 52.5284V54.5944C59.2484 54.9055 58.9975 55.158 58.6884 55.158ZM55.6258 54.0308H58.1282V53.0919H55.6258V54.0308Z" fill="#141517"/>
<path d="M56.8123 51.7983H56.5357C56.3911 51.7983 56.2518 51.7419 56.1477 51.641L52.2989 47.9169C52.1891 47.8108 52.127 47.6639 52.127 47.5106V41.8063C52.127 41.6069 52.2317 41.4225 52.4021 41.321C52.5725 41.2196 52.7834 41.2164 52.9572 41.3126C54.1984 42.0007 55.6099 42.3644 57.0389 42.3644C58.3866 42.3644 59.6764 42.0567 60.8723 41.4499C61.046 41.3618 61.2523 41.3708 61.418 41.4732C61.5836 41.5758 61.6844 41.7574 61.6844 41.9532V47.3563C61.6844 47.5168 61.6164 47.6695 61.4975 47.7766L57.1858 51.6551C57.0828 51.7472 56.9501 51.7983 56.8123 51.7983ZM53.2467 47.2705L56.6828 50.5952L60.5641 47.1039V42.8226C59.4449 43.2667 58.2628 43.4913 57.0388 43.4913C55.7318 43.4913 54.4374 43.2223 53.2469 42.708V47.2705H53.2467Z" fill="#141517"/>
<path d="M70.0996 36.8856H65.7475C65.5719 36.8856 65.4062 36.8026 65.3003 36.6613C65.1945 36.52 65.1607 36.3369 65.2092 36.1668C65.425 35.4086 65.5346 34.6195 65.5346 33.8207C65.5346 33.0347 65.4265 32.2496 65.2131 31.4873C65.1656 31.3175 65.1999 31.1351 65.3057 30.9944C65.4116 30.8537 65.5767 30.771 65.7522 30.771H70.0996C70.4088 30.771 70.6595 31.0233 70.6595 31.3346V36.3222C70.6595 36.6333 70.4088 36.8856 70.0996 36.8856ZM66.4607 35.7584H69.5396V31.898H66.4632C66.5903 32.532 66.6545 33.176 66.6545 33.8205C66.6545 34.4748 66.5893 35.124 66.4607 35.7584Z" fill="#141517"/>
<path d="M48.3435 36.8855C48.3422 36.8855 48.341 36.8855 48.3397 36.8855H43.9877C43.6784 36.8855 43.4277 36.6332 43.4277 36.322V31.3343C43.4277 31.023 43.6784 30.7708 43.9877 30.7708H48.3347C48.51 30.7708 48.6751 30.8534 48.781 30.9939C48.8868 31.1346 48.9212 31.317 48.8737 31.4869C48.6606 32.2503 48.5525 33.0356 48.5525 33.8206C48.5525 34.598 48.6565 35.3669 48.8612 36.1071C48.8885 36.1734 48.9034 36.2459 48.9034 36.322C48.9034 36.6332 48.6527 36.8855 48.3435 36.8855ZM44.5477 35.7584H47.6265C47.4977 35.1238 47.4326 34.4746 47.4326 33.8206C47.4326 33.1765 47.4968 32.5325 47.6241 31.8981H44.5477V35.7584Z" fill="#141517"/>
<path d="M45.6085 31.8981C45.5657 31.8981 45.5224 31.8932 45.4789 31.8827C45.178 31.8109 44.9918 31.5071 45.0631 31.2045C45.785 28.1373 47.3061 25.3461 49.3457 23.3447C51.5502 21.1817 54.2104 20.0382 57.0388 20.0382C59.9101 20.0382 62.5878 21.168 64.7825 23.3053C66.832 25.3012 68.3394 28.1092 69.0263 31.2116C69.0937 31.5154 68.9035 31.8167 68.6016 31.8844C68.3 31.952 68.0006 31.7607 67.9334 31.457C66.5699 25.3012 62.1918 21.1654 57.0388 21.1654C52.0568 21.1654 47.5803 25.4004 46.1527 31.4641C46.0919 31.7234 45.8621 31.8981 45.6085 31.8981Z" fill="#141517"/>
<path d="M74.8539 87.7324C74.7602 87.7324 74.6665 87.7088 74.5816 87.6614C74.4041 87.5619 74.294 87.3734 74.294 87.1689V83.9804H74.0439C71.9485 83.9804 70.2441 82.2658 70.2441 80.1582V71.4713C70.2441 69.3639 71.9487 67.6495 74.0439 67.6495H79.5884C79.7549 67.6495 79.9124 67.7239 80.019 67.8525C80.1252 67.9814 80.1695 68.1511 80.1392 68.3156C80.1118 68.4655 80.0982 68.6256 80.0982 68.8052V77.4921C80.0982 78.9779 81.2984 80.1867 82.7733 80.1867H91.6481C91.7529 80.1867 91.8551 80.2162 91.944 80.2718L93.0158 80.9429C93.2498 81.0894 93.3431 81.3857 93.2354 81.6413C92.6368 83.0621 91.2636 83.9802 89.7368 83.9802H81.0214L75.1494 87.6473C75.0589 87.7043 74.9564 87.7324 74.8539 87.7324ZM74.0439 68.7768C72.5661 68.7768 71.3641 69.9857 71.3641 71.4714V80.1584C71.3641 81.6443 72.5661 82.8534 74.0439 82.8534H74.8539C75.1632 82.8534 75.4139 83.1057 75.4139 83.417V86.1559L80.5663 82.9381C80.6551 82.8827 80.7572 82.8534 80.8616 82.8534H89.7368C90.6535 82.8534 91.4923 82.383 91.9819 81.6233L91.488 81.3141H82.7731C80.6805 81.3141 78.9781 79.5997 78.9781 77.4923V68.8054C78.9781 68.7958 78.9781 68.7862 78.9781 68.7768H74.0439Z" fill="white"/>
<path d="M97.6561 85.0665C97.5534 85.0665 97.4509 85.0383 97.3608 84.9817L91.4888 81.3142H82.7736C80.681 81.3142 78.9785 79.5998 78.9785 77.4924V68.8054C78.9785 66.6979 80.681 64.9833 82.7736 64.9833H98.4659C100.562 64.9833 102.266 66.6979 102.266 68.8054V77.4924C102.266 79.5998 100.561 81.3142 98.4659 81.3142H98.2158V84.5031C98.2158 84.7076 98.1057 84.8961 97.928 84.9956C97.8435 85.0428 97.7498 85.0665 97.6561 85.0665ZM82.7736 66.1104C81.2986 66.1104 80.0984 67.3195 80.0984 68.8054V77.4924C80.0984 78.9782 81.2986 80.187 82.7736 80.187H91.6484C91.7527 80.187 91.8548 80.2163 91.9437 80.2717L97.0961 83.4899V80.7506C97.0961 80.4393 97.3468 80.187 97.6561 80.187H98.4661C99.9441 80.187 101.146 78.9782 101.146 77.4924V68.8054C101.146 67.3195 99.9441 66.1104 98.4661 66.1104H82.7736Z" fill="#141517"/>
<path d="M96.066 70.4324H85.1781C84.8688 70.4324 84.6182 70.1802 84.6182 69.8689C84.6182 69.5576 84.8688 69.3053 85.1781 69.3053H96.066C96.3753 69.3053 96.626 69.5576 96.626 69.8689C96.626 70.1802 96.3753 70.4324 96.066 70.4324Z" fill="#141517"/>
<path d="M96.066 74.8732H85.1781C84.8688 74.8732 84.6182 74.6209 84.6182 74.3096C84.6182 73.9983 84.8688 73.746 85.1781 73.746H96.066C96.3753 73.746 96.626 73.9983 96.626 74.3096C96.626 74.6209 96.3753 74.8732 96.066 74.8732Z" fill="#141517"/>
<path d="M57.6169 99.2828C56.3927 99.2828 55.3965 98.2802 55.3965 97.048C55.3965 95.8161 56.3925 94.8138 57.6169 94.8138C58.8414 94.8138 59.8374 95.8161 59.8374 97.048C59.8374 98.2802 58.8414 99.2828 57.6169 99.2828ZM57.6169 95.941C57.0101 95.941 56.5164 96.4377 56.5164 97.048C56.5164 97.6588 57.0101 98.1557 57.6169 98.1557C58.2237 98.1557 58.7174 97.6586 58.7174 97.048C58.7174 96.4375 58.2237 95.941 57.6169 95.941Z" fill="white"/>
</svg>
