<svg width="121" height="121" viewBox="0 0 121 121" fill="none" xmlns="http://www.w3.org/2000/svg">
<path d="M90.6816 100.879H30.902C30.5678 100.879 30.2969 100.611 30.2969 100.28V59.5738C30.2969 59.2425 30.5678 58.9741 30.902 58.9741C31.2362 58.9741 31.5071 59.2425 31.5071 59.5738V99.68H90.0765V54.5351C90.0765 54.2038 90.3474 53.9354 90.6816 53.9354C91.0159 53.9354 91.2868 54.2038 91.2868 54.5351V100.28C91.2868 100.611 91.0159 100.879 90.6816 100.879ZM30.902 50.1784C30.5678 50.1784 30.2969 49.91 30.2969 49.5787V21.6001C30.2969 21.2688 30.5678 21.0004 30.902 21.0004H73.0533C73.2138 21.0004 73.3677 21.0635 73.4811 21.1761L91.1095 38.6466C91.223 38.7591 91.2868 38.9116 91.2868 39.0708V44.5538C91.2868 44.8851 91.0159 45.1535 90.6816 45.1535C90.3474 45.1535 90.0765 44.8851 90.0765 44.5538V39.319L72.8026 22.1998H31.5071V49.5787C31.5071 49.91 31.2362 50.1784 30.902 50.1784Z" fill="white"/>
<path d="M90.6848 39.6706C90.6836 39.6706 90.682 39.6706 90.6808 39.6706H73.0524C72.7182 39.6706 72.4473 39.4021 72.4473 39.0709V21.6002C72.4473 21.3577 72.5945 21.139 72.8208 21.0462C73.0471 20.9533 73.3077 21.0047 73.4804 21.1762L91.0692 38.6075C91.2042 38.7174 91.2901 38.8841 91.2901 39.0707C91.2899 39.4019 91.0192 39.6706 90.6848 39.6706ZM73.6575 38.4712H89.22L73.6575 23.048V38.4712Z" fill="white"/>
<path d="M27.1512 100.879H15.6051C15.2709 100.879 15 100.611 15 100.28V36.7822C15 36.451 15.2709 36.1825 15.6051 36.1825H27.1512C27.4854 36.1825 27.7563 36.451 27.7563 36.7822V76.7171C27.7563 77.0484 27.4854 77.3168 27.1512 77.3168C26.817 77.3168 26.5461 77.0484 26.5461 76.7171V37.3819H16.2102V99.6799H26.5461V86.7121C26.5461 86.3809 26.817 86.1124 27.1512 86.1124C27.4854 86.1124 27.7563 86.3809 27.7563 86.7121V100.28C27.7563 100.611 27.4854 100.879 27.1512 100.879Z" fill="white"/>
<path d="M22.8256 42.2714H15.6051C15.2709 42.2714 15 42.003 15 41.6717C15 41.3405 15.2709 41.072 15.6051 41.072H22.8256C23.1599 41.072 23.4307 41.3405 23.4307 41.6717C23.4307 42.003 23.1596 42.2714 22.8256 42.2714Z" fill="white"/>
<path d="M20.8937 47.1611H15.6051C15.2709 47.1611 15 46.8926 15 46.5614C15 46.2301 15.2709 45.9617 15.6051 45.9617H20.8937C21.2279 45.9617 21.4988 46.2301 21.4988 46.5614C21.4988 46.8926 21.2277 47.1611 20.8937 47.1611Z" fill="white"/>
<path d="M22.8256 52.0505H15.6051C15.2709 52.0505 15 51.782 15 51.4508C15 51.1195 15.2709 50.8511 15.6051 50.8511H22.8256C23.1599 50.8511 23.4307 51.1195 23.4307 51.4508C23.4307 51.782 23.1596 52.0505 22.8256 52.0505Z" fill="white"/>
<path d="M20.8937 56.9398H15.6051C15.2709 56.9398 15 56.6713 15 56.3401C15 56.0088 15.2709 55.7404 15.6051 55.7404H20.8937C21.2279 55.7404 21.4988 56.0088 21.4988 56.3401C21.4988 56.6713 21.2277 56.9398 20.8937 56.9398Z" fill="white"/>
<path d="M22.8256 61.8298H15.6051C15.2709 61.8298 15 61.5613 15 61.2301C15 60.8988 15.2709 60.6304 15.6051 60.6304H22.8256C23.1599 60.6304 23.4307 60.8988 23.4307 61.2301C23.4307 61.5613 23.1596 61.8298 22.8256 61.8298Z" fill="white"/>
<path d="M20.8937 66.7193H15.6051C15.2709 66.7193 15 66.4508 15 66.1196C15 65.7884 15.2709 65.5199 15.6051 65.5199H20.8937C21.2279 65.5199 21.4988 65.7884 21.4988 66.1196C21.4988 66.4508 21.2277 66.7193 20.8937 66.7193Z" fill="white"/>
<path d="M22.8256 71.6091H15.6051C15.2709 71.6091 15 71.3406 15 71.0094C15 70.6781 15.2709 70.4097 15.6051 70.4097H22.8256C23.1599 70.4097 23.4307 70.6781 23.4307 71.0094C23.4307 71.3406 23.1596 71.6091 22.8256 71.6091Z" fill="white"/>
<path d="M20.8937 76.4985H15.6051C15.2709 76.4985 15 76.23 15 75.8988C15 75.5675 15.2709 75.2991 15.6051 75.2991H20.8937C21.2279 75.2991 21.4988 75.5675 21.4988 75.8988C21.4988 76.23 21.2277 76.4985 20.8937 76.4985Z" fill="white"/>
<path d="M22.8256 81.3879H15.6051C15.2709 81.3879 15 81.1194 15 80.7882C15 80.4569 15.2709 80.1885 15.6051 80.1885H22.8256C23.1599 80.1885 23.4307 80.4569 23.4307 80.7882C23.4307 81.1194 23.1596 81.3879 22.8256 81.3879Z" fill="white"/>
<path d="M20.8937 86.2774H15.6051C15.2709 86.2774 15 86.0089 15 85.6777C15 85.3465 15.2709 85.078 15.6051 85.078H20.8937C21.2279 85.078 21.4988 85.3465 21.4988 85.6777C21.4988 86.0089 21.2277 86.2774 20.8937 86.2774Z" fill="white"/>
<path d="M22.8256 91.1672H15.6051C15.2709 91.1672 15 90.8987 15 90.5675C15 90.2362 15.2709 89.9678 15.6051 89.9678H22.8256C23.1599 89.9678 23.4307 90.2362 23.4307 90.5675C23.4307 90.8987 23.1596 91.1672 22.8256 91.1672Z" fill="white"/>
<path d="M20.8937 96.0563H15.6051C15.2709 96.0563 15 95.7879 15 95.4566C15 95.1254 15.2709 94.8569 15.6051 94.8569H20.8937C21.2279 94.8569 21.4988 95.1254 21.4988 95.4566C21.4988 95.7879 21.2277 96.0563 20.8937 96.0563Z" fill="white"/>
<path d="M97.153 89.2524C96.8187 89.2524 96.5479 88.984 96.5479 88.6527V57.9984C96.5479 57.6671 96.8187 57.3987 97.153 57.3987C97.4872 57.3987 97.7581 57.6671 97.7581 57.9984V88.6527C97.7581 88.984 97.4872 89.2524 97.153 89.2524Z" fill="#FF4D40"/>
<path d="M97.1529 100.879C96.9194 100.879 96.7064 100.746 96.6063 100.537L93.12 93.2581C93.0815 93.1779 93.0615 93.09 93.0615 93.001V54.2137C93.0615 53.8825 93.3324 53.614 93.6666 53.614H100.639C100.973 53.614 101.244 53.8825 101.244 54.2137V93.001C101.244 93.2159 101.13 93.4046 100.959 93.5104C100.973 93.6207 100.957 93.7362 100.905 93.8442L97.6994 100.537C97.5995 100.746 97.3865 100.879 97.1529 100.879ZM94.2718 92.8659L97.1529 98.8813L99.8118 93.3298C99.8635 93.2219 99.9436 93.1361 100.039 93.0776C100.036 93.0524 100.034 93.0268 100.034 93.0008V54.8134H94.272V92.8659H94.2718Z" fill="#FF4D40"/>
<path d="M100.639 54.8134H93.6666C93.3324 54.8134 93.0615 54.5449 93.0615 54.2137V51.3559C93.0615 51.0247 93.3324 50.7562 93.6666 50.7562H100.639C100.973 50.7562 101.244 51.0247 101.244 51.3559V54.2137C101.244 54.5449 100.973 54.8134 100.639 54.8134ZM94.2718 53.614H100.034V51.9556H94.2718V53.614Z" fill="#FF4D40"/>
<path d="M100.639 51.9557H93.6666C93.3324 51.9557 93.0615 51.6873 93.0615 51.356V45.1657C93.0615 44.3857 93.6993 43.7512 94.4834 43.7512H99.3776C100.407 43.7512 101.244 44.5838 101.244 45.6069V51.356C101.244 51.6871 100.973 51.9557 100.639 51.9557ZM94.2718 50.7563H100.034V45.6069C100.034 45.2449 99.7394 44.9506 99.3774 44.9506H94.4834C94.3688 44.9506 94.2718 45.0492 94.2718 45.1657V50.7563Z" fill="#FF4D40"/>
<path d="M97.1529 100.879C96.9194 100.879 96.7064 100.746 96.6063 100.537L93.12 93.2581C93.0815 93.1779 93.0615 93.09 93.0615 93.001V89.0382C93.0615 88.7069 93.3324 88.4385 93.6666 88.4385H100.639C100.973 88.4385 101.244 88.7069 101.244 89.0382V93.001C101.244 93.09 101.224 93.1779 101.186 93.2581L97.6996 100.537C97.5995 100.746 97.3865 100.879 97.1529 100.879ZM94.2718 92.8659L97.1529 98.8813L100.034 92.8659V89.6379H94.2718V92.8659Z" fill="#FF4D40"/>
<path d="M104.547 66.3677C104.213 66.3677 103.942 66.0992 103.942 65.768V51.6038H100.638C100.304 51.6038 100.033 51.3354 100.033 51.0041C100.033 50.6729 100.304 50.4044 100.638 50.4044H104.547C104.881 50.4044 105.152 50.6729 105.152 51.0041V65.768C105.152 66.0992 104.881 66.3677 104.547 66.3677Z" fill="#FF4D40"/>
<path d="M53.8976 56.4434H46.7955C46.4613 56.4434 46.1904 56.1749 46.1904 55.8437V48.8054C46.1904 48.4742 46.4613 48.2057 46.7955 48.2057H53.8976C54.2319 48.2057 54.5028 48.4742 54.5028 48.8054V55.8437C54.5028 56.1749 54.2317 56.4434 53.8976 56.4434ZM47.4007 55.244H53.2925V49.4051H47.4007V55.244Z" fill="#FF4D40"/>
<path d="M74.6639 51.1632H57.1539C56.8197 51.1632 56.5488 50.8947 56.5488 50.5634C56.5488 50.2322 56.8197 49.9637 57.1539 49.9637H74.6639C74.9981 49.9637 75.269 50.2322 75.269 50.5634C75.269 50.8947 74.9981 51.1632 74.6639 51.1632Z" fill="#FF4D40"/>
<path d="M74.788 54.6854H57.1539C56.8197 54.6854 56.5488 54.4169 56.5488 54.0857C56.5488 53.7544 56.8197 53.486 57.1539 53.486H74.788C75.1222 53.486 75.3931 53.7544 75.3931 54.0857C75.3931 54.4169 75.1222 54.6854 74.788 54.6854Z" fill="#FF4D40"/>
<path d="M53.8976 67.5902H46.7955C46.4613 67.5902 46.1904 67.3218 46.1904 66.9905V59.9519C46.1904 59.6206 46.4613 59.3522 46.7955 59.3522H53.8976C54.2319 59.3522 54.5028 59.6206 54.5028 59.9519V66.9905C54.5028 67.3218 54.2317 67.5902 53.8976 67.5902ZM47.4007 66.3908H53.2925V60.5516H47.4007V66.3908Z" fill="#FF4D40"/>
<path d="M74.6639 62.3098H57.1539C56.8197 62.3098 56.5488 62.0413 56.5488 61.7101C56.5488 61.3788 56.8197 61.1104 57.1539 61.1104H74.6639C74.9981 61.1104 75.269 61.3788 75.269 61.7101C75.269 62.0413 74.9981 62.3098 74.6639 62.3098Z" fill="#FF4D40"/>
<path d="M74.788 65.8316H57.1539C56.8197 65.8316 56.5488 65.5631 56.5488 65.2319C56.5488 64.9007 56.8197 64.6322 57.1539 64.6322H74.788C75.1222 64.6322 75.3931 64.9007 75.3931 65.2319C75.3931 65.5631 75.1222 65.8316 74.788 65.8316Z" fill="#FF4D40"/>
<path d="M53.8976 78.7365H46.7955C46.4613 78.7365 46.1904 78.468 46.1904 78.1368V71.0985C46.1904 70.7672 46.4613 70.4988 46.7955 70.4988H53.8976C54.2319 70.4988 54.5028 70.7672 54.5028 71.0985V78.1368C54.5028 78.468 54.2317 78.7365 53.8976 78.7365ZM47.4007 77.5371H53.2925V71.6982H47.4007V77.5371Z" fill="#FF4D40"/>
<path d="M74.6639 73.4564H57.1539C56.8197 73.4564 56.5488 73.1879 56.5488 72.8567C56.5488 72.5254 56.8197 72.257 57.1539 72.257H74.6639C74.9981 72.257 75.269 72.5254 75.269 72.8567C75.269 73.1879 74.9981 73.4564 74.6639 73.4564Z" fill="#FF4D40"/>
<path d="M74.788 76.9732H57.1539C56.8197 76.9732 56.5488 76.7047 56.5488 76.3735C56.5488 76.0423 56.8197 75.7738 57.1539 75.7738H74.788C75.1222 75.7738 75.3931 76.0423 75.3931 76.3735C75.3931 76.7047 75.1222 76.9732 74.788 76.9732Z" fill="#FF4D40"/>
<path d="M53.8976 89.8775H46.7955C46.4613 89.8775 46.1904 89.609 46.1904 89.2778V82.2395C46.1904 81.9082 46.4613 81.6398 46.7955 81.6398H53.8976C54.2319 81.6398 54.5028 81.9082 54.5028 82.2395V89.2778C54.5028 89.609 54.2317 89.8775 53.8976 89.8775ZM47.4007 88.6781H53.2925V82.8392H47.4007V88.6781Z" fill="#FF4D40"/>
<path d="M74.6639 84.5974H57.1539C56.8197 84.5974 56.5488 84.3289 56.5488 83.9977C56.5488 83.6664 56.8197 83.3979 57.1539 83.3979H74.6639C74.9981 83.3979 75.269 83.6664 75.269 83.9977C75.269 84.3289 74.9981 84.5974 74.6639 84.5974Z" fill="#FF4D40"/>
<path d="M74.788 88.1192H57.1539C56.8197 88.1192 56.5488 87.8507 56.5488 87.5195C56.5488 87.1883 56.8197 86.9198 57.1539 86.9198H74.788C75.1222 86.9198 75.3931 87.1883 75.3931 87.5195C75.3931 87.8507 75.1222 88.1192 74.788 88.1192Z" fill="#FF4D40"/>
<path d="M67.5272 41.1942H35.1764C34.8422 41.1942 34.5713 40.9257 34.5713 40.5945V27.6953C34.5713 27.364 34.8422 27.0956 35.1764 27.0956H67.5272C67.8614 27.0956 68.1323 27.364 68.1323 27.6953V40.5943C68.1323 40.9255 67.8614 41.1942 67.5272 41.1942ZM35.7815 39.9948H66.922V28.295H35.7815V39.9948Z" fill="white"/>
</svg>
