<svg width="121" height="121" viewBox="0 0 121 121" fill="none" xmlns="http://www.w3.org/2000/svg">
<path d="M91.1024 101.746H75.5352C75.201 101.746 74.9312 101.477 74.9312 101.148C74.9312 100.818 75.201 100.551 75.5352 100.551H91.1024C93.0939 100.551 94.9723 99.7761 96.3936 98.3722C97.811 96.9658 98.5922 95.1057 98.5922 93.1339V51.4052C98.5922 51.0745 98.8642 50.8077 99.1962 50.8077C99.5304 50.8077 99.8002 51.0745 99.8002 51.4052V93.1339C99.7984 97.8802 95.8965 101.744 91.1024 101.746ZM71.5084 101.746C71.1742 101.746 70.9044 101.477 70.9044 101.148C70.9044 100.818 71.1742 100.551 71.5084 100.551C71.8404 100.551 72.1124 100.818 72.1124 101.148C72.1124 101.477 71.8404 101.746 71.5084 101.746ZM67.4817 101.746H30.1697C28.9979 101.744 27.8604 101.517 26.7893 101.065C25.7524 100.631 24.8222 100.009 24.0209 99.2167C23.2195 98.4258 22.5914 97.5036 22.1524 96.48C21.6954 95.4184 21.4639 94.2931 21.4639 93.1339V72.9198C21.4639 72.5912 21.7357 72.3223 22.0679 72.3223C22.4021 72.3223 22.6719 72.5912 22.6719 72.9198V93.1339C22.6719 95.1055 23.4551 96.9658 24.8745 98.3722C26.296 99.7763 28.1765 100.551 30.1697 100.551H67.4817C67.8137 100.551 68.0857 100.818 68.0857 101.148C68.0857 101.459 67.8398 101.72 67.5278 101.744C67.5117 101.744 67.4978 101.746 67.4817 101.746ZM22.0679 69.5339C21.7357 69.5339 21.4639 69.2648 21.4639 68.9364C21.4639 68.6077 21.7357 68.3389 22.0679 68.3389C22.4021 68.3389 22.6719 68.6077 22.6719 68.9364C22.6719 69.2648 22.4021 69.5339 22.0679 69.5339ZM22.0679 65.5504C21.7357 65.5504 21.4639 65.2814 21.4639 64.9529V53.6518C21.4639 53.4945 21.5283 53.3391 21.641 53.2296L45.709 29.4165L50.7606 24.4232C50.8733 24.3117 51.0283 24.2479 51.1874 24.2479H91.1026C95.8967 24.2499 99.7984 28.1119 99.8004 32.8582V43.4382C99.8004 43.7669 99.5306 44.0358 99.1964 44.0358C98.8644 44.0358 98.5924 43.7669 98.5924 43.4382V32.8582C98.5924 30.8864 97.8112 29.0261 96.3938 27.6199C94.9724 26.2158 93.0939 25.443 91.1026 25.443H51.437L22.6719 53.8988V64.9529C22.6719 65.2814 22.4021 65.5504 22.0679 65.5504ZM99.1964 48.0192C98.8644 48.0192 98.5924 47.7503 98.5924 47.4217C98.5924 47.0911 98.8644 46.8242 99.1964 46.8242C99.5306 46.8242 99.8004 47.0911 99.8004 47.4217C99.8004 47.7503 99.5306 48.0192 99.1964 48.0192Z" fill="white"/>
<path d="M22.0679 44.713C21.9873 44.713 21.9108 44.699 21.8363 44.6672C21.6108 44.5755 21.4639 44.3584 21.4639 44.1154V32.8582C21.4639 31.701 21.6954 30.5737 22.1524 29.5121C22.5914 28.4883 23.2195 27.5681 24.0209 26.7754C24.8222 25.9847 25.7524 25.3613 26.7872 24.9271C27.8604 24.477 28.9979 24.2479 30.1697 24.2479H41.5494C41.795 24.2479 42.0124 24.3913 42.1071 24.6164C42.2017 24.8395 42.1493 25.0964 41.9762 25.2677L41.7809 25.4609C41.7708 25.4728 41.7587 25.4848 41.7467 25.4967L22.4947 44.5377C22.382 44.6512 22.229 44.713 22.0679 44.713ZM30.1697 25.441C28.1765 25.443 26.296 26.2158 24.8745 27.6199C23.4551 29.0261 22.6719 30.8864 22.6719 32.8582V42.6734L40.0937 25.441H30.1697Z" fill="white"/>
<path d="M60.6368 82.9517C60.4757 82.9517 60.3225 82.8898 60.2099 82.7765L49.5128 72.1922C49.3981 72.0789 49.3357 71.9295 49.3357 71.77C49.3357 71.6106 49.3981 71.4592 49.5128 71.3479C49.7404 71.1207 50.137 71.1207 50.3665 71.3479L60.6368 81.5077L79.3451 62.9966L60.6368 44.4854L41.9264 62.9966L44.6727 65.7135C44.7854 65.8268 44.8499 65.9762 44.8499 66.1355C44.8499 66.2951 44.7854 66.4445 44.6727 66.5578C44.4432 66.7829 44.0465 66.7851 43.817 66.5578L40.6459 63.4188C40.5312 63.3073 40.4688 63.1559 40.4688 62.9966C40.4688 62.8372 40.5312 62.6879 40.6459 62.5743L60.2099 43.2187C60.4334 42.9956 60.8381 42.9956 61.0636 43.2187L80.6276 62.5743C80.8632 62.8074 80.8632 63.1858 80.6276 63.4188L61.0636 82.7765C60.9488 82.8898 60.7978 82.9517 60.6368 82.9517ZM47.0928 69.5494C46.9297 69.5494 46.7787 69.4874 46.6659 69.3761C46.4304 69.1431 46.4304 68.7626 46.6659 68.5296C46.8934 68.3045 47.2901 68.3045 47.5196 68.5296C47.7552 68.7626 47.7552 69.1431 47.5196 69.3761C47.4048 69.4874 47.2538 69.5494 47.0928 69.5494Z" fill="#FF4D40"/>
<path d="M50.8495 80.3593C50.7448 80.3593 50.6422 80.3314 50.5495 80.2798C50.4106 80.2002 50.3099 80.0705 50.2677 79.9173L46.3537 65.4633C46.3134 65.31 46.3335 65.1486 46.4141 65.0112C46.4946 64.8718 46.6255 64.7742 46.7805 64.7324C46.8328 64.7186 46.8852 64.7125 46.9375 64.7125C47.2114 64.7125 47.4509 64.8937 47.5214 65.1546L51.2784 79.029L76.8423 72.253L69.9948 46.9659L44.4309 53.7418L45.4376 57.4584C45.4496 57.5082 45.4577 57.558 45.4577 57.6078C45.4597 57.8806 45.2765 58.1196 45.0107 58.1913C44.9584 58.2053 44.906 58.2112 44.8537 58.2112C44.5799 58.2112 44.3403 58.03 44.2698 57.7691L43.1061 53.4729C43.0658 53.3196 43.0859 53.1582 43.1665 53.0188C43.247 52.8814 43.3779 52.7818 43.5349 52.742L70.2646 45.6574C70.3171 45.6434 70.3695 45.6375 70.4216 45.6375C70.6936 45.6375 70.933 45.8187 71.0037 46.0796L78.1651 72.5198C78.2073 72.6732 78.1854 72.8345 78.1047 72.9738C78.0241 73.1112 77.8933 73.2108 77.7382 73.2508L51.0086 80.3394C50.9562 80.3511 50.9039 80.3593 50.8495 80.3593ZM45.8966 62.0593C45.6228 62.0593 45.3832 61.878 45.3127 61.6171C45.2262 61.2984 45.4174 60.9698 45.7396 60.8842C46.0557 60.8005 46.3939 60.9957 46.4785 61.3064C46.5651 61.6251 46.3738 61.9537 46.0516 62.0394C46.0013 62.0533 45.949 62.0593 45.8966 62.0593Z" fill="#FF4D40"/>
<path d="M60.6366 70.5751C60.4755 70.5751 60.3223 70.5134 60.2097 70.3999L53.1508 63.4189C53.036 63.3073 52.9736 63.1579 52.9736 62.9966C52.9736 62.8373 53.036 62.6879 53.1508 62.5744L60.2097 55.5953C60.4372 55.3683 60.8359 55.3683 61.0634 55.5953L68.1161 62.5744C68.229 62.6879 68.2932 62.8373 68.2932 62.9966C68.2932 63.156 68.229 63.3075 68.1161 63.4189L61.0634 70.3999C60.9486 70.5136 60.7976 70.5751 60.6366 70.5751ZM54.4313 62.9968L60.6366 69.1335L66.8335 62.9968L60.6366 56.8623L54.4313 62.9968Z" fill="#FF4D40"/>
<path d="M19.7105 51.8161C19.5494 51.8161 19.3984 51.7543 19.2836 51.6408C19.1689 51.5293 19.1064 51.3799 19.1064 51.2185C19.1064 51.0592 19.1689 50.9098 19.2836 50.7963L40.6637 29.6461C40.8932 29.421 41.2899 29.421 41.5194 29.6461C41.755 29.8791 41.755 30.2576 41.5194 30.4906L20.1373 51.6408C20.0245 51.7543 19.8715 51.8161 19.7105 51.8161Z" fill="#FF4D40"/>
<path d="M11.6028 59.8359C11.4417 59.8359 11.2907 59.7742 11.1759 59.6606C11.0129 59.4993 10.9565 59.2543 11.035 59.0392L13.6967 51.634C13.7269 51.5523 13.7772 51.4726 13.8376 51.4129L17.2382 48.0489C17.4295 47.8596 17.7416 47.8218 17.9711 47.9572C18.0154 47.9831 18.0557 48.013 18.0919 48.0489C18.2067 48.1624 18.2691 48.3118 18.2691 48.4711C18.2691 48.6304 18.2067 48.7818 18.0919 48.8934L14.788 52.1618L12.5994 58.2545L18.7583 56.0815L45.2826 29.8385L41.3203 25.9148L23.7878 43.2607C23.5582 43.4858 23.1616 43.4858 22.9321 43.2607C22.6965 43.0277 22.6965 42.6493 22.9321 42.4162L40.8934 24.648C41.1189 24.4249 41.5236 24.4249 41.7471 24.648L46.5651 29.4162C46.6779 29.5297 46.7403 29.6791 46.7403 29.8385C46.7403 29.9978 46.6779 30.1472 46.5631 30.2607L19.5154 57.0216C19.453 57.0834 19.3744 57.1311 19.2919 57.161L11.8061 59.8021C11.7417 59.824 11.6733 59.8359 11.6028 59.8359ZM20.512 46.2523C20.3509 46.2523 20.1999 46.1906 20.0852 46.077C19.8496 45.844 19.8496 45.4656 20.0852 45.2326C20.3127 45.0055 20.7113 45.0075 20.9388 45.2326C21.1744 45.4656 21.1744 45.844 20.9388 46.077C20.8261 46.1906 20.6731 46.2523 20.512 46.2523Z" fill="#FF4D40"/>
<path d="M46.1358 30.4363C45.9748 30.4363 45.8238 30.3746 45.709 30.261L40.893 25.4928C40.7782 25.3793 40.7158 25.2299 40.7158 25.0706C40.7158 24.9113 40.7802 24.7599 40.893 24.6483L42.8883 22.6805C43.1178 22.4555 43.5144 22.4555 43.7419 22.6805L48.5579 27.4447C48.6727 27.5583 48.7351 27.7076 48.7351 27.869C48.7351 28.0283 48.6727 28.1777 48.5579 28.2912L46.5627 30.261C46.4499 30.3746 46.2969 30.4363 46.1358 30.4363ZM42.1755 25.0726L46.1379 28.9943L47.2774 27.867L43.3151 23.9473L42.1755 25.0726Z" fill="#FF4D40"/>
<path d="M48.1314 28.4646C47.9704 28.4646 47.8194 28.4028 47.7046 28.2913L42.8886 23.5271C42.653 23.294 42.653 22.9136 42.8886 22.6806L47.2033 18.4063C47.463 18.1494 47.8234 18 48.1938 18H48.1979C48.5663 18 48.9267 18.1494 49.1885 18.4063L52.5689 21.7524C52.9132 22.095 53.1025 22.5511 53.1025 23.0371C53.1025 23.5231 52.9132 23.9812 52.5669 24.3257L48.5583 28.2913C48.4455 28.4028 48.2925 28.4646 48.1314 28.4646ZM44.1691 23.1028L48.1314 27.0225L51.7112 23.4812C51.83 23.3637 51.8944 23.2064 51.8944 23.0371C51.8944 22.8678 51.83 22.7104 51.7132 22.5949L48.3328 19.2528C48.2965 19.215 48.2502 19.197 48.1959 19.197C48.1415 19.197 48.0932 19.215 48.0569 19.2508L44.1691 23.1028Z" fill="#FF4D40"/>
<path d="M11.6048 59.8351C11.4457 59.8351 11.2887 59.7714 11.1759 59.6599C11.0129 59.4965 10.9565 59.2536 11.035 59.0365L13.6967 51.6352C13.7249 51.5535 13.7772 51.4738 13.8396 51.4141L16.602 48.6794C16.8315 48.4524 17.2282 48.4524 17.4557 48.6794L22.2797 53.4457C22.3925 53.5592 22.4569 53.7086 22.4569 53.8699C22.4569 54.0292 22.3925 54.1786 22.2797 54.2921L19.5154 57.0228C19.453 57.0846 19.3744 57.1324 19.2919 57.1622L11.8061 59.7993C11.7417 59.8232 11.6733 59.8351 11.6048 59.8351ZM14.79 52.163L12.5994 58.2517L18.7583 56.0827L20.9972 53.8699L17.0288 49.9462L14.79 52.163Z" fill="#FF4D40"/>
<path d="M93.4166 88.6848H27.8569C27.5227 88.6848 27.2529 88.4159 27.2529 88.0873C27.2529 87.7568 27.5227 87.4897 27.8569 87.4897H93.4166C93.7488 87.4897 94.0206 87.7568 94.0206 88.0873C94.0206 88.4161 93.7488 88.6848 93.4166 88.6848Z" fill="white"/>
<path d="M93.4166 93.4541H27.8569C27.5227 93.4541 27.2529 93.1872 27.2529 92.8566C27.2529 92.5281 27.5227 92.259 27.8569 92.259H93.4166C93.7488 92.259 94.0206 92.5281 94.0206 92.8566C94.0206 93.1872 93.7488 93.4541 93.4166 93.4541Z" fill="white"/>
<path d="M97.8704 98.1216C97.6711 98.1216 97.4859 98.026 97.3731 97.8646C97.2322 97.6633 97.2302 97.4006 97.3651 97.1972C98.1684 95.9862 98.5932 94.5801 98.5932 93.1343V78.4293C98.5932 78.0987 98.8652 77.8318 99.1972 77.8318C99.5315 77.8318 99.8012 78.0987 99.8012 78.4293V93.1343C99.8012 94.2974 99.5699 95.4287 99.1107 96.4963C101.849 95.3053 103.617 92.6403 103.615 89.7025V50.1786C103.615 49.85 103.884 49.5811 104.219 49.5811C104.551 49.5811 104.821 49.85 104.821 50.1786V89.7025C104.821 90.7044 104.645 91.6883 104.301 92.6244C103.969 93.5286 103.488 94.3691 102.87 95.12C101.629 96.6278 99.9019 97.6874 98.0013 98.1076C97.959 98.1176 97.9145 98.1216 97.8704 98.1216ZM99.1972 75.0412C98.8652 75.0412 98.5932 74.7743 98.5932 74.4437C98.5932 74.1152 98.8652 73.8462 99.1972 73.8462C99.5315 73.8462 99.8012 74.1152 99.8012 74.4437C99.8012 74.7743 99.5315 75.0412 99.1972 75.0412ZM99.1972 71.0599C98.8652 71.0599 98.5932 70.7908 98.5932 70.4602V32.8585C98.5932 30.8867 97.812 29.0264 96.3946 27.6203C94.9752 26.2161 93.0967 25.4433 91.1034 25.4433H71.3643C71.0323 25.4433 70.7603 25.1744 70.7603 24.8458C70.7603 24.5152 71.0323 24.2483 71.3643 24.2483H91.1034C95.8975 24.2503 99.7992 28.1122 99.8012 32.8585V70.4584C99.8012 70.4604 99.8012 70.4604 99.8012 70.4604C99.8012 70.7908 99.5315 71.0599 99.1972 71.0599ZM104.219 46.7927C103.884 46.7927 103.615 46.5258 103.615 46.1952C103.615 45.8665 103.884 45.5976 104.219 45.5976C104.551 45.5976 104.821 45.8665 104.821 46.1952C104.821 46.5258 104.551 46.7927 104.219 46.7927ZM104.219 42.8092C103.884 42.8092 103.615 42.5423 103.615 42.2117V29.4248C103.613 27.453 102.831 25.5947 101.41 24.1885C99.9885 22.7844 98.108 22.0116 96.1168 22.0096H56.4512L54.1901 24.2483H63.3105C63.6427 24.2483 63.9146 24.5152 63.9146 24.8458C63.9146 25.1744 63.6427 25.4433 63.3105 25.4433H52.7322C52.4866 25.4433 52.2672 25.2979 52.1745 25.0729C52.0799 24.8498 52.1323 24.5948 52.3054 24.4216L55.7745 20.9898C55.8852 20.8783 56.0422 20.8165 56.2013 20.8165H96.1166C97.2863 20.8165 98.4239 21.0456 99.497 21.4957C100.532 21.9299 101.464 22.5513 102.265 23.344C103.065 24.1348 103.695 25.0549 104.134 26.0807C104.589 27.1403 104.82 28.2656 104.82 29.4248L104.822 42.2117C104.823 42.5423 104.551 42.8092 104.219 42.8092ZM67.3373 25.4433C67.0053 25.4433 66.7333 25.1744 66.7333 24.8458C66.7333 24.5152 67.0053 24.2483 67.3373 24.2483C67.6695 24.2483 67.9413 24.5152 67.9413 24.8458C67.9413 25.1744 67.6697 25.4433 67.3373 25.4433Z" fill="white"/>
</svg>
