<svg width="121" height="121" viewBox="0 0 121 121" fill="none" xmlns="http://www.w3.org/2000/svg">
<path d="M94.6604 93.0704H33.3907C33.2369 93.0704 33.085 93.0099 32.978 92.9008C32.8689 92.7917 32.8066 92.6419 32.8066 92.488V85.6117C32.8066 85.2902 33.0695 85.0272 33.3907 85.0272C33.7119 85.0272 33.9747 85.2902 33.9747 85.6117V91.9034H94.0764V65.3572V65.3553C94.0784 65.0338 94.3392 64.7727 94.6604 64.7727C94.9815 64.7727 95.2445 65.0357 95.2445 65.3572V92.488C95.2445 92.6438 95.1822 92.79 95.0732 92.9008C94.9622 93.0101 94.8162 93.0704 94.6604 93.0704ZM33.3907 82.2993C33.0695 82.2993 32.8066 82.038 32.8066 81.7148C32.8066 81.3933 33.0695 81.1302 33.3907 81.1302C33.7119 81.1302 33.9747 81.3933 33.9747 81.7148C33.9747 82.038 33.7119 82.2993 33.3907 82.2993ZM33.3907 78.4023C33.0695 78.4023 32.8066 78.141 32.8066 77.8178V21.5844C32.8066 21.4305 32.8689 21.2785 32.978 21.1694C33.087 21.0622 33.2369 20.9999 33.3907 20.9999H45.3421C45.6633 20.9999 45.9261 21.261 45.9261 21.5844C45.9261 21.9059 45.6633 22.169 45.3421 22.169H33.9747V77.8178C33.9747 78.141 33.7119 78.4023 33.3907 78.4023ZM94.6604 62.0565C94.3373 62.0565 94.0764 61.7934 94.0764 61.4719C94.0764 61.47 94.0764 61.47 94.0764 61.468C94.0784 61.1465 94.3392 60.8874 94.6604 60.8874C94.9815 60.8874 95.2445 61.1485 95.2445 61.4719C95.2445 61.7934 94.9815 62.0565 94.6604 62.0565ZM94.6604 58.1692C94.3373 58.1692 94.0764 57.9062 94.0764 57.5847V37.8796L78.3832 22.169H53.1293C52.8081 22.169 52.5453 21.9059 52.5453 21.5844C52.5453 21.261 52.8081 20.9999 53.1293 20.9999H78.6266C78.7804 20.9999 78.9305 21.0622 79.0393 21.1713L95.0732 37.223C95.1822 37.3341 95.2445 37.4802 95.2445 37.6361V57.5847C95.2445 57.9062 94.9815 58.1692 94.6604 58.1692ZM49.2357 22.169C48.9145 22.169 48.6517 21.9059 48.6517 21.5844C48.6517 21.261 48.9145 20.9999 49.2357 20.9999C49.5589 20.9999 49.8197 21.261 49.8197 21.5844C49.8197 21.9059 49.5589 22.169 49.2357 22.169Z" fill="white"/>
<path d="M94.6609 38.2206H78.627C78.4732 38.2206 78.3216 38.1582 78.2143 38.0511C78.1053 37.942 78.043 37.79 78.043 37.636V21.5844C78.043 21.3467 78.1831 21.1343 78.4033 21.0447C78.6175 20.955 78.8744 21.0057 79.0399 21.1713L95.0738 37.223C95.241 37.3905 95.2897 37.6419 95.2001 37.8601C95.1086 38.0803 94.8964 38.2206 94.6609 38.2206ZM79.2111 37.0515H93.2514L79.2111 22.9951V37.0515Z" fill="white"/>
<path d="M90.3519 96.5741H29.084C28.9302 96.5741 28.7784 96.5117 28.6694 96.4026C28.5623 96.2955 28.5 96.1435 28.5 95.9895V89.1153C28.5 88.7918 28.7609 88.5307 29.084 88.5307C29.4053 88.5307 29.6681 88.7918 29.6681 89.1153V95.405H89.7678V93.0727H57.4042C57.083 93.0727 56.8201 92.8094 56.8201 92.4881C56.8201 92.1647 57.083 91.9036 57.4042 91.9036H90.3519C90.5056 91.9036 90.6573 91.9657 90.7646 92.075C90.8736 92.1822 90.9359 92.332 90.9359 92.4881V95.9895C90.9359 96.1474 90.8754 96.2935 90.7646 96.4026C90.6536 96.5135 90.5076 96.5741 90.3519 96.5741ZM53.5106 93.0727C53.1893 93.0727 52.9265 92.8094 52.9265 92.4881C52.9265 92.1647 53.1893 91.9036 53.5106 91.9036C53.8337 91.9036 54.0946 92.1647 54.0946 92.4881C54.0946 92.8096 53.8337 93.0727 53.5106 93.0727ZM49.617 93.0727H33.3904C33.2366 93.0727 33.0867 93.0103 32.9776 92.901C32.8686 92.7919 32.8063 92.642 32.8063 92.4881V40.5317C32.8063 40.2082 33.0691 39.9471 33.3904 39.9471C33.7116 39.9471 33.9744 40.2082 33.9744 40.5317V91.9036H49.617C49.9382 91.9036 50.201 92.1647 50.201 92.4881C50.201 92.8096 49.9382 93.0727 49.617 93.0727ZM29.084 85.8028C28.7609 85.8028 28.5 85.5398 28.5 85.2183C28.5 84.8949 28.7609 84.6338 29.084 84.6338C29.4053 84.6338 29.6681 84.8949 29.6681 85.2183C29.6681 85.5398 29.4053 85.8028 29.084 85.8028ZM29.084 81.9059C28.7609 81.9059 28.5 81.6428 28.5 81.3213V25.086C28.5 24.9321 28.5623 24.782 28.6694 24.6729C28.7784 24.5638 28.9302 24.5015 29.084 24.5015H33.3904C33.5442 24.5015 33.6941 24.5638 33.8031 24.6729C33.9121 24.782 33.9744 24.9321 33.9744 25.086V32.7377C33.9744 33.0592 33.7116 33.3223 33.3904 33.3223C33.0691 33.3223 32.8063 33.0592 32.8063 32.7377V25.6706H29.6681V81.3194C29.6681 81.3194 29.6681 81.3194 29.6681 81.3213C29.6681 81.6428 29.4053 81.9059 29.084 81.9059ZM33.3904 37.2192C33.0691 37.2192 32.8063 36.9562 32.8063 36.6347C32.8063 36.3132 33.0691 36.0502 33.3904 36.0502C33.7116 36.0502 33.9744 36.3132 33.9744 36.6347C33.9744 36.9562 33.7116 37.2192 33.3904 37.2192Z" fill="white"/>
<path d="M86.8536 99.5376H25.584C25.4302 99.5376 25.2803 99.4752 25.1713 99.3681C25.0623 99.259 25 99.107 25 98.953V92.0788C25 91.7575 25.2628 91.4942 25.584 91.4942C25.9053 91.4942 26.1681 91.7575 26.1681 92.0788V98.3685H86.2698V96.5739H53.3649C53.0437 96.5739 52.7828 96.3128 52.7828 95.9894C52.7828 95.6679 53.0437 95.4048 53.3649 95.4048H86.8538C87.0076 95.4048 87.1577 95.4672 87.2665 95.5763C87.3757 95.6854 87.4378 95.8355 87.4378 95.9894V98.953C87.4378 99.1089 87.3775 99.257 87.2665 99.3681C87.1556 99.477 87.0095 99.5376 86.8536 99.5376ZM49.4713 96.5739C49.1501 96.5739 48.8892 96.3128 48.8892 95.9894C48.8892 95.6679 49.1501 95.4048 49.4713 95.4048C49.7945 95.4048 50.0573 95.6679 50.0573 95.9894C50.0573 96.3128 49.7945 96.5739 49.4713 96.5739ZM45.5777 96.5739H29.0844C28.9306 96.5739 28.7787 96.5116 28.6717 96.4025C28.5626 96.2932 28.5004 96.1433 28.5004 95.9894V44.3018C28.5004 43.9803 28.7612 43.7173 29.0844 43.7173C29.4056 43.7173 29.6684 43.9803 29.6684 44.3018V95.4048L45.5777 95.4068C45.9009 95.4068 46.1617 95.6679 46.1617 95.9894C46.1617 96.3128 45.9009 96.5739 45.5777 96.5739ZM25.584 88.7663C25.2628 88.7663 25 88.5033 25 88.1818C25 87.8605 25.2628 87.5973 25.584 87.5973C25.9053 87.5973 26.1681 87.8605 26.1681 88.1818C26.1681 88.5033 25.9053 88.7663 25.584 88.7663ZM25.584 84.8694C25.2628 84.8694 25 84.6083 25 84.2848V28.0495C25 27.8956 25.0623 27.7455 25.1713 27.6364C25.2803 27.5273 25.4302 27.465 25.584 27.465H29.0844C29.2362 27.465 29.3881 27.5273 29.4971 27.6364C29.6061 27.7455 29.6684 27.8956 29.6684 28.0495V36.5079C29.6684 36.8313 29.4056 37.0924 29.0844 37.0924C28.7612 37.0924 28.5004 36.8313 28.5004 36.5079V28.6341H26.1681V84.2829V84.2848C26.1681 84.6083 25.9053 84.8694 25.584 84.8694ZM29.0844 40.9894C28.7612 40.9894 28.5004 40.7283 28.5004 40.4049C28.5004 40.0834 28.7612 39.8203 29.0844 39.8203C29.4056 39.8203 29.6684 40.0834 29.6684 40.4049C29.6684 40.7283 29.4056 40.9894 29.0844 40.9894Z" fill="white"/>
<path d="M64.0275 85.1905H64.0256C61.3176 85.1905 58.6933 84.6527 56.2228 83.5908C55.9269 83.4641 55.7887 83.1192 55.9172 82.8231C56.0087 82.607 56.2189 82.4686 56.4545 82.4686C56.5324 82.4686 56.6102 82.484 56.6842 82.5173C59.0067 83.5148 61.4772 84.0216 64.0275 84.0216C68.9997 84.0216 73.6761 82.0828 77.194 78.5639C80.7099 75.0447 82.647 70.3644 82.647 65.388C82.647 60.4114 80.7099 55.7313 77.194 52.2104C73.6761 48.6914 68.9997 46.7527 64.0275 46.7527C59.0554 46.7527 54.3813 48.6914 50.8633 52.2104C47.3454 55.7313 45.4103 60.4116 45.4103 65.388C45.4103 70.1871 47.2286 74.7464 50.5323 78.2246C50.6374 78.3337 50.6939 78.4779 50.6939 78.6278C50.6939 78.7895 50.6296 78.9397 50.5109 79.0508C50.2851 79.2669 49.9015 79.2573 49.6854 79.0311C46.1754 75.3348 44.2402 70.4889 44.2422 65.3878C44.2422 62.7145 44.7639 60.121 45.7957 57.6796C46.7925 55.32 48.2195 53.202 50.0378 51.384C51.8542 49.5661 53.9704 48.1378 56.326 47.1402C58.7653 46.1075 61.3565 45.5834 64.0275 45.5834C66.6988 45.5834 69.2898 46.1075 71.7293 47.1402C74.0869 48.1378 76.2028 49.5661 78.0194 51.384C79.8358 53.202 81.2628 55.32 82.2595 57.6796C83.2914 60.121 83.815 62.7145 83.815 65.3878C83.815 68.0611 83.2914 70.6544 82.2595 73.096C81.2628 75.4539 79.8358 77.5717 78.0194 79.3896C76.203 81.2095 74.0871 82.6378 71.7293 83.6334C69.2899 84.6663 66.6988 85.1905 64.0275 85.1905ZM53.0575 81.7475C52.9368 81.7475 52.8219 81.7105 52.7227 81.6423C52.5961 81.5526 52.5105 81.42 52.4832 81.2643C52.454 81.1123 52.489 80.9564 52.5786 80.8278C52.6876 80.6719 52.8667 80.5786 53.0575 80.5786C53.1782 80.5786 53.2931 80.6154 53.3904 80.6838C53.6552 80.8668 53.7214 81.2331 53.5364 81.4983C53.4274 81.654 53.2483 81.7475 53.0575 81.7475Z" fill="#141517"/>
<path d="M69.0303 73.5567C68.9273 73.5567 68.8259 73.5293 68.7364 73.4768C68.5553 73.3697 68.4463 73.1805 68.4463 72.9722V70.0982C68.4463 69.8877 68.5592 69.6929 68.7424 69.5896L76.1558 65.3887L68.7424 61.1877C68.5594 61.0845 68.4463 60.8896 68.4463 60.6792V57.8051C68.4463 57.5947 68.5534 57.4057 68.7364 57.3005C68.9135 57.1972 69.1394 57.1953 69.3165 57.2966L80.1699 63.4421C80.3527 63.5454 80.4658 63.7422 80.4658 63.9507V66.8247C80.4658 67.0349 80.3529 67.2298 80.1699 67.3331L69.3165 73.4805C69.2289 73.5292 69.1294 73.5567 69.0303 73.5567ZM69.6144 70.4391V71.9687L79.2978 66.4839V64.2919L69.6144 58.8069V60.3384L77.6294 64.8803C77.8124 64.9836 77.9255 65.1784 77.9255 65.3889C77.9255 65.5972 77.8126 65.792 77.6294 65.8972L69.6144 70.4391Z" fill="#141517"/>
<path d="M59.0263 73.5567C58.9251 73.5567 58.8258 73.5292 58.7382 73.4805L47.8867 67.3331C47.7037 67.2298 47.5889 67.0349 47.5889 66.8247V63.9507C47.5889 63.74 47.7037 63.5452 47.8867 63.4421L58.7382 57.2966C58.9154 57.1953 59.1431 57.1972 59.3203 57.3005C59.5013 57.4057 59.6104 57.5947 59.6104 57.8051V60.6792C59.6104 60.8877 59.4955 61.0845 59.3145 61.1877L51.8991 65.3887L59.3145 69.5896C59.4955 69.6929 59.6104 69.8877 59.6104 70.0982V72.9722C59.6104 73.1805 59.5013 73.3697 59.3203 73.4768C59.2307 73.5293 59.1276 73.5567 59.0263 73.5567ZM48.7569 66.4837L58.4423 71.9685V70.4389L50.4273 65.8968C50.2443 65.7916 50.1314 65.5968 50.1314 65.3885C50.1314 65.178 50.2443 64.9832 50.4273 64.8799L58.4423 60.338V58.8084L48.7569 64.2917V66.4837Z" fill="#141517"/>
<path d="M60.1925 76.6159C60.1244 76.6159 60.0582 76.6041 59.994 76.5807C59.8479 76.5281 59.7292 76.4211 59.663 76.2787C59.5968 76.1384 59.589 75.9786 59.6435 75.8325L67.3139 54.5472C67.3976 54.3153 67.6176 54.1614 67.8647 54.1614C67.9311 54.1614 67.9972 54.1731 68.0615 54.1965C68.3652 54.3056 68.5229 54.6407 68.4139 54.9447L60.7415 76.228C60.6578 76.4599 60.4378 76.6159 60.1925 76.6159Z" fill="#141517"/>
</svg>
