<svg width="157" height="157" viewBox="0 0 157 157" fill="none" xmlns="http://www.w3.org/2000/svg">
<path d="M118.198 130.645H40.6328C40.1991 130.645 39.8477 130.296 39.8477 129.867V77.0498C39.8477 76.62 40.1991 76.2716 40.6328 76.2716C41.0665 76.2716 41.418 76.62 41.418 77.0498V129.088H117.413V70.512C117.413 70.0822 117.764 69.7338 118.198 69.7338C118.632 69.7338 118.983 70.0822 118.983 70.512V129.867C118.983 130.297 118.632 130.645 118.198 130.645ZM40.6328 64.8591C40.1991 64.8591 39.8477 64.5108 39.8477 64.081V27.7781C39.8477 27.3483 40.1991 27 40.6328 27H95.325C95.5333 27 95.733 27.082 95.8801 27.228L118.753 49.8963C118.901 50.0424 118.983 50.2403 118.983 50.4467V57.5611C118.983 57.9909 118.632 58.3392 118.198 58.3392C117.764 58.3392 117.413 57.9909 117.413 57.5611V50.7689L94.9997 28.5562H41.418V64.081C41.418 64.5108 41.0665 64.8591 40.6328 64.8591Z" fill="white"/>
<path d="M118.203 51.2248C118.201 51.2248 118.199 51.2248 118.197 51.2248H95.3242C94.8906 51.2248 94.5391 50.8765 94.5391 50.4467V27.7781C94.5391 27.4635 94.7301 27.1797 95.0238 27.0594C95.3174 26.9387 95.6555 27.0054 95.8796 27.2279L118.701 49.8454C118.877 49.9881 118.988 50.2044 118.988 50.4464C118.988 50.8762 118.637 51.2248 118.203 51.2248ZM96.1094 49.6686H116.302L96.1094 29.6567V49.6686Z" fill="white"/>
<path d="M35.7665 130.645H20.7852C20.3515 130.645 20 130.296 20 129.867V47.4773C20 47.0476 20.3515 46.6992 20.7852 46.6992H35.7665C36.2001 46.6992 36.5516 47.0476 36.5516 47.4773V99.2937C36.5516 99.7235 36.2001 100.072 35.7665 100.072C35.3328 100.072 34.9813 99.7235 34.9813 99.2937V48.2555H21.5703V129.088H34.9813V112.262C34.9813 111.833 35.3328 111.484 35.7665 111.484C36.2001 111.484 36.5516 111.833 36.5516 112.262V129.867C36.5516 130.297 36.2001 130.645 35.7665 130.645Z" fill="white"/>
<path d="M30.1539 54.5992H20.7852C20.3515 54.5992 20 54.2509 20 53.8211C20 53.3913 20.3515 53.043 20.7852 53.043H30.1539C30.5876 53.043 30.9391 53.3913 30.9391 53.8211C30.9391 54.2509 30.5873 54.5992 30.1539 54.5992Z" fill="white"/>
<path d="M27.6472 60.944H20.7852C20.3515 60.944 20 60.5956 20 60.1658C20 59.736 20.3515 59.3877 20.7852 59.3877H27.6472C28.0808 59.3877 28.4323 59.736 28.4323 60.1658C28.4323 60.5956 28.0806 60.944 27.6472 60.944Z" fill="white"/>
<path d="M30.1539 67.2877H20.7852C20.3515 67.2877 20 66.9393 20 66.5096C20 66.0798 20.3515 65.7314 20.7852 65.7314H30.1539C30.5876 65.7314 30.9391 66.0798 30.9391 66.5096C30.9391 66.9393 30.5873 67.2877 30.1539 67.2877Z" fill="white"/>
<path d="M27.6472 73.6324H20.7852C20.3515 73.6324 20 73.2841 20 72.8543C20 72.4245 20.3515 72.0762 20.7852 72.0762H27.6472C28.0808 72.0762 28.4323 72.4245 28.4323 72.8543C28.4323 73.2841 28.0806 73.6324 27.6472 73.6324Z" fill="white"/>
<path d="M30.1539 79.9771H20.7852C20.3515 79.9771 20 79.6288 20 79.199C20 78.7692 20.3515 78.4209 20.7852 78.4209H30.1539C30.5876 78.4209 30.9391 78.7692 30.9391 79.199C30.9391 79.6288 30.5873 79.9771 30.1539 79.9771Z" fill="white"/>
<path d="M27.6472 86.3209H20.7852C20.3515 86.3209 20 85.9726 20 85.5428C20 85.113 20.3515 84.7646 20.7852 84.7646H27.6472C28.0808 84.7646 28.4323 85.113 28.4323 85.5428C28.4323 85.9726 28.0806 86.3209 27.6472 86.3209Z" fill="white"/>
<path d="M30.1539 92.6656H20.7852C20.3515 92.6656 20 92.3173 20 91.8875C20 91.4577 20.3515 91.1094 20.7852 91.1094H30.1539C30.5876 91.1094 30.9391 91.4577 30.9391 91.8875C30.9391 92.3173 30.5873 92.6656 30.1539 92.6656Z" fill="white"/>
<path d="M27.6472 99.0103H20.7852C20.3515 99.0103 20 98.662 20 98.2322C20 97.8024 20.3515 97.4541 20.7852 97.4541H27.6472C28.0808 97.4541 28.4323 97.8024 28.4323 98.2322C28.4323 98.662 28.0806 99.0103 27.6472 99.0103Z" fill="white"/>
<path d="M30.1539 105.354H20.7852C20.3515 105.354 20 105.006 20 104.576C20 104.146 20.3515 103.798 20.7852 103.798H30.1539C30.5876 103.798 30.9391 104.146 30.9391 104.576C30.9391 105.006 30.5873 105.354 30.1539 105.354Z" fill="white"/>
<path d="M27.6472 111.698H20.7852C20.3515 111.698 20 111.35 20 110.92C20 110.49 20.3515 110.142 20.7852 110.142H27.6472C28.0808 110.142 28.4323 110.49 28.4323 110.92C28.4323 111.35 28.0806 111.698 27.6472 111.698Z" fill="white"/>
<path d="M30.1539 118.043H20.7852C20.3515 118.043 20 117.694 20 117.264C20 116.835 20.3515 116.486 20.7852 116.486H30.1539C30.5876 116.486 30.9391 116.835 30.9391 117.264C30.9391 117.694 30.5873 118.043 30.1539 118.043Z" fill="white"/>
<path d="M27.6472 124.387H20.7852C20.3515 124.387 20 124.039 20 123.609C20 123.179 20.3515 122.831 20.7852 122.831H27.6472C28.0808 122.831 28.4323 123.179 28.4323 123.609C28.4323 124.039 28.0806 124.387 27.6472 124.387Z" fill="white"/>
<path d="M126.595 115.558C126.161 115.558 125.81 115.21 125.81 114.78V75.0057C125.81 74.5759 126.161 74.2275 126.595 74.2275C127.028 74.2275 127.38 74.5759 127.38 75.0057V114.78C127.38 115.21 127.028 115.558 126.595 115.558Z" fill="#FF4D40"/>
<path d="M126.595 130.644C126.292 130.644 126.015 130.471 125.886 130.2L121.362 120.755C121.312 120.651 121.286 120.537 121.286 120.422V70.0945C121.286 69.6647 121.638 69.3164 122.071 69.3164H131.118C131.552 69.3164 131.903 69.6647 131.903 70.0945V120.422C131.903 120.701 131.755 120.946 131.533 121.083C131.552 121.226 131.53 121.376 131.463 121.516L127.304 130.2C127.174 130.471 126.898 130.644 126.595 130.644ZM122.856 120.247L126.595 128.052L130.045 120.849C130.112 120.708 130.216 120.597 130.34 120.521C130.335 120.488 130.333 120.455 130.333 120.422V70.8727H122.857V120.247H122.856Z" fill="#FF4D40"/>
<path d="M131.118 70.8727H122.071C121.638 70.8727 121.286 70.5243 121.286 70.0946V66.3865C121.286 65.9567 121.638 65.6084 122.071 65.6084H131.118C131.552 65.6084 131.903 65.9567 131.903 66.3865V70.0946C131.903 70.5243 131.552 70.8727 131.118 70.8727ZM122.856 69.3164H130.333V67.1646H122.856V69.3164Z" fill="#FF4D40"/>
<path d="M131.118 67.1651H122.071C121.638 67.1651 121.286 66.8167 121.286 66.3869V58.3549C121.286 57.3428 122.114 56.5195 123.131 56.5195H129.481C130.817 56.5195 131.904 57.5998 131.904 58.9273V66.3869C131.903 66.8165 131.552 67.1651 131.118 67.1651ZM122.856 65.6088H130.333V58.9273C130.333 58.4576 129.951 58.0758 129.481 58.0758H123.131C122.982 58.0758 122.856 58.2037 122.856 58.3549V65.6088Z" fill="#FF4D40"/>
<path d="M126.595 130.644C126.292 130.644 126.015 130.471 125.886 130.2L121.362 120.755C121.312 120.651 121.286 120.537 121.286 120.422V115.28C121.286 114.85 121.638 114.502 122.071 114.502H131.118C131.552 114.502 131.903 114.85 131.903 115.28V120.422C131.903 120.537 131.877 120.651 131.827 120.755L127.304 130.2C127.174 130.471 126.898 130.644 126.595 130.644ZM122.856 120.247L126.595 128.052L130.333 120.247V116.058H122.856V120.247Z" fill="#FF4D40"/>
<path d="M136.19 85.865C135.756 85.865 135.405 85.5167 135.405 85.0869V66.7086H131.118C130.684 66.7086 130.333 66.3603 130.333 65.9305C130.333 65.5007 130.684 65.1523 131.118 65.1523H136.19C136.623 65.1523 136.975 65.5007 136.975 65.9305V85.0869C136.975 85.5167 136.623 85.865 136.19 85.865Z" fill="#FF4D40"/>
<path d="M70.471 72.9874H61.2559C60.8222 72.9874 60.4707 72.6391 60.4707 72.2093V63.077C60.4707 62.6472 60.8222 62.2988 61.2559 62.2988H70.471C70.9046 62.2988 71.2561 62.6472 71.2561 63.077V72.2093C71.2561 72.6391 70.9044 72.9874 70.471 72.9874ZM62.041 71.4312H69.6858V63.8551H62.041V71.4312Z" fill="#FF4D40"/>
<path d="M97.4148 66.1363H74.6953C74.2616 66.1363 73.9102 65.788 73.9102 65.3582C73.9102 64.9284 74.2616 64.5801 74.6953 64.5801H97.4148C97.8485 64.5801 98.2 64.9284 98.2 65.3582C98.2 65.788 97.8485 66.1363 97.4148 66.1363Z" fill="#FF4D40"/>
<path d="M97.5758 70.7066H74.6953C74.2616 70.7066 73.9102 70.3583 73.9102 69.9285C73.9102 69.4987 74.2616 69.1504 74.6953 69.1504H97.5758C98.0095 69.1504 98.361 69.4987 98.361 69.9285C98.361 70.3583 98.0095 70.7066 97.5758 70.7066Z" fill="#FF4D40"/>
<path d="M70.471 87.4508H61.2559C60.8222 87.4508 60.4707 87.1025 60.4707 86.6727V77.5398C60.4707 77.1101 60.8222 76.7617 61.2559 76.7617H70.471C70.9046 76.7617 71.2561 77.1101 71.2561 77.5398V86.6727C71.2561 87.1025 70.9044 87.4508 70.471 87.4508ZM62.041 85.8946H69.6858V78.318H62.041V85.8946Z" fill="#FF4D40"/>
<path d="M97.4148 80.6002H74.6953C74.2616 80.6002 73.9102 80.2519 73.9102 79.8221C73.9102 79.3923 74.2616 79.0439 74.6953 79.0439H97.4148C97.8485 79.0439 98.2 79.3923 98.2 79.8221C98.2 80.2519 97.8485 80.6002 97.4148 80.6002Z" fill="#FF4D40"/>
<path d="M97.5758 85.1695H74.6953C74.2616 85.1695 73.9102 84.8212 73.9102 84.3914C73.9102 83.9616 74.2616 83.6133 74.6953 83.6133H97.5758C98.0095 83.6133 98.361 83.9616 98.361 84.3914C98.361 84.8212 98.0095 85.1695 97.5758 85.1695Z" fill="#FF4D40"/>
<path d="M70.471 101.914H61.2559C60.8222 101.914 60.4707 101.566 60.4707 101.136V92.0037C60.4707 91.5739 60.8222 91.2256 61.2559 91.2256H70.471C70.9046 91.2256 71.2561 91.5739 71.2561 92.0037V101.136C71.2561 101.566 70.9044 101.914 70.471 101.914ZM62.041 100.358H69.6858V92.7818H62.041V100.358Z" fill="#FF4D40"/>
<path d="M97.4148 95.0631H74.6953C74.2616 95.0631 73.9102 94.7147 73.9102 94.285C73.9102 93.8552 74.2616 93.5068 74.6953 93.5068H97.4148C97.8485 93.5068 98.2 93.8552 98.2 94.285C98.2 94.7147 97.8485 95.0631 97.4148 95.0631Z" fill="#FF4D40"/>
<path d="M97.5758 99.6256H74.6953C74.2616 99.6256 73.9102 99.2772 73.9102 98.8475C73.9102 98.4177 74.2616 98.0693 74.6953 98.0693H97.5758C98.0095 98.0693 98.361 98.4177 98.361 98.8475C98.361 99.2772 98.0095 99.6256 97.5758 99.6256Z" fill="#FF4D40"/>
<path d="M70.471 116.369H61.2559C60.8222 116.369 60.4707 116.021 60.4707 115.591V106.459C60.4707 106.029 60.8222 105.681 61.2559 105.681H70.471C70.9046 105.681 71.2561 106.029 71.2561 106.459V115.591C71.2561 116.021 70.9044 116.369 70.471 116.369ZM62.041 114.813H69.6858V107.237H62.041V114.813Z" fill="#FF4D40"/>
<path d="M97.4148 109.518H74.6953C74.2616 109.518 73.9102 109.17 73.9102 108.74C73.9102 108.31 74.2616 107.962 74.6953 107.962H97.4148C97.8485 107.962 98.2 108.31 98.2 108.74C98.2 109.17 97.8485 109.518 97.4148 109.518Z" fill="#FF4D40"/>
<path d="M97.5758 114.088H74.6953C74.2616 114.088 73.9102 113.74 73.9102 113.31C73.9102 112.881 74.2616 112.532 74.6953 112.532H97.5758C98.0095 112.532 98.361 112.881 98.361 113.31C98.361 113.74 98.0095 114.088 97.5758 114.088Z" fill="#FF4D40"/>
<path d="M88.1555 53.2024H46.1797C45.746 53.2024 45.3945 52.854 45.3945 52.4243V35.6873C45.3945 35.2575 45.746 34.9092 46.1797 34.9092H88.1555C88.5891 34.9092 88.9406 35.2575 88.9406 35.6873V52.424C88.9406 52.8538 88.5891 53.2024 88.1555 53.2024ZM46.9648 51.6461H87.3703V36.4654H46.9648V51.6461Z" fill="white"/>
</svg>
