<svg width="157" height="157" viewBox="0 0 157 157" fill="none" xmlns="http://www.w3.org/2000/svg">
<path d="M77.2451 119.318C76.8138 119.318 76.4658 118.967 76.4658 118.54C76.4658 118.109 76.8138 117.759 77.2451 117.759H109.659V60.9012C109.659 60.4706 110.009 60.1231 110.438 60.1231C110.866 60.1231 111.217 60.4706 111.217 60.9012V118.54C111.217 118.747 111.136 118.942 110.989 119.089C110.841 119.235 110.646 119.315 110.438 119.315L77.2451 119.318ZM72.0497 119.315C71.6185 119.315 71.2705 118.967 71.2705 118.54C71.2705 118.109 71.6185 117.759 72.0497 117.759C72.4784 117.759 72.829 118.109 72.829 118.54C72.829 118.967 72.4784 119.315 72.0497 119.315ZM66.8544 119.315H65.4725C65.2647 119.315 65.0672 119.234 64.9218 119.089L42.3819 96.5754C42.2364 96.4301 42.1533 96.2304 42.1533 96.0255V38.4575C42.1533 38.0269 42.5014 37.6794 42.9326 37.6794C43.3612 37.6794 43.7119 38.0269 43.7119 38.4575V95.7015L65.7946 117.759H66.8544C67.283 117.759 67.6337 118.109 67.6337 118.54C67.6337 118.965 67.2986 119.305 66.8726 119.315C66.8674 119.315 66.8596 119.315 66.8544 119.315ZM110.438 56.4918C110.009 56.4918 109.659 56.1417 109.659 55.7137C109.659 55.2831 110.009 54.9356 110.438 54.9356C110.866 54.9356 111.217 55.2831 111.217 55.7137C111.217 56.1417 110.866 56.4918 110.438 56.4918ZM110.438 51.3043C110.009 51.3043 109.659 50.9542 109.659 50.5262V27.9269H43.7119V28.0773C43.7119 28.0799 43.7119 28.0799 43.7119 28.0825C43.7119 28.5104 43.3612 28.8606 42.9326 28.8606C42.5014 28.8606 42.1533 28.5104 42.1533 28.0825V27.1487C42.1533 26.9438 42.2364 26.7441 42.3819 26.5989C42.5274 26.4536 42.7274 26.3706 42.9326 26.3706H110.438C110.643 26.3706 110.843 26.4536 110.989 26.5989C111.134 26.7441 111.217 26.9438 111.217 27.1487V50.5262C111.217 50.9542 110.866 51.3043 110.438 51.3043ZM42.9326 34.0481C42.5014 34.0481 42.1533 33.6979 42.1533 33.27C42.1533 32.8394 42.5014 32.4919 42.9326 32.4919C43.3612 32.4919 43.7119 32.8394 43.7119 33.27C43.7119 33.6979 43.3612 34.0481 42.9326 34.0481Z" fill="white"/>
<path d="M80.4788 134.299C80.4658 134.299 80.4554 134.299 80.4424 134.299L30.9519 132.089C30.544 132.071 30.2245 131.752 30.2063 131.345L28.0009 81.9336C27.9853 81.612 28.1672 81.3189 28.4633 81.1892C28.7542 81.0595 29.1049 81.1244 29.3283 81.35L58.5909 110.569C58.739 110.716 58.8195 110.911 58.8195 111.118C58.8195 111.326 58.739 111.523 58.5909 111.668C58.2974 111.964 57.7857 111.964 57.4895 111.668L29.6452 83.8662L31.7312 130.564L78.5072 132.655L64.8383 119.006C64.6902 118.859 64.6097 118.664 64.6097 118.456C64.6097 118.246 64.6902 118.052 64.8383 117.904C65.1318 117.611 65.6436 117.611 65.9397 117.904L81.0295 132.971C81.2581 133.199 81.323 133.539 81.1905 133.835C81.0658 134.118 80.7876 134.299 80.4788 134.299ZM61.7133 115.564C61.5055 115.564 61.3107 115.484 61.1626 115.336C60.8587 115.035 60.8587 114.54 61.1626 114.236C61.4587 113.943 61.9705 113.943 62.2666 114.236C62.5705 114.54 62.5705 115.035 62.2666 115.336C62.1185 115.484 61.9237 115.564 61.7133 115.564Z" fill="#FF4D40"/>
<path d="M58.5058 122.663C58.4954 122.663 58.485 122.663 58.472 122.661L41.1612 121.893C40.756 121.875 40.4365 121.556 40.4183 121.149L39.6494 103.872C39.6338 103.55 39.8156 103.257 40.1117 103.125C40.4027 102.998 40.7534 103.063 40.9768 103.288L59.0591 121.335C59.2877 121.564 59.3526 121.903 59.2201 122.199C59.0954 122.479 58.8175 122.663 58.5058 122.663ZM41.9431 120.371L56.5367 121.019L41.2937 105.804L41.9431 120.371Z" fill="#FF4D40"/>
<path d="M127.343 115.634C126.914 115.634 126.563 115.284 126.563 114.856C126.563 114.426 126.914 114.078 127.343 114.078C127.771 114.078 128.122 114.426 128.122 114.856C128.122 115.284 127.771 115.634 127.343 115.634ZM122.147 115.634H114.253C114.048 115.634 113.845 115.551 113.702 115.406C113.557 115.261 113.474 115.058 113.474 114.856V34.1102C113.474 33.9052 113.557 33.7055 113.702 33.5603C113.848 33.415 114.048 33.332 114.253 33.332H128.421C128.626 33.332 128.826 33.415 128.971 33.5603C129.117 33.7055 129.2 33.9052 129.2 34.1102V110.745C129.2 111.173 128.852 111.523 128.421 111.523C127.992 111.523 127.641 111.173 127.641 110.745V34.8883H115.032V114.078H122.147C122.576 114.078 122.927 114.426 122.927 114.856C122.927 115.284 122.576 115.634 122.147 115.634Z" fill="white"/>
<path d="M128.421 40.4H122.384C121.956 40.4 121.607 40.0524 121.607 39.6219C121.607 39.1939 121.956 38.8438 122.384 38.8438H128.421C128.852 38.8438 129.2 39.1939 129.2 39.6219C129.2 40.0524 128.852 40.4 128.421 40.4Z" fill="white"/>
<path d="M128.421 45.1598H119.745C119.314 45.1598 118.966 44.8096 118.966 44.3816C118.966 43.9511 119.314 43.6035 119.745 43.6035H128.421C128.852 43.6035 129.2 43.9511 129.2 44.3816C129.2 44.8096 128.852 45.1598 128.421 45.1598Z" fill="white"/>
<path d="M128.421 49.7296H122.384C121.956 49.7296 121.607 49.382 121.607 48.9515C121.607 48.5235 121.956 48.1733 122.384 48.1733H128.421C128.852 48.1733 129.2 48.5235 129.2 48.9515C129.2 49.382 128.852 49.7296 128.421 49.7296Z" fill="white"/>
<path d="M128.421 54.4894H119.745C119.314 54.4894 118.966 54.1392 118.966 53.7112C118.966 53.2807 119.314 52.9331 119.745 52.9331H128.421C128.852 52.9331 129.2 53.2807 129.2 53.7112C129.2 54.1392 128.852 54.4894 128.421 54.4894Z" fill="white"/>
<path d="M128.421 59.0597H122.384C121.956 59.0597 121.607 58.7121 121.607 58.2815C121.607 57.8536 121.956 57.5034 122.384 57.5034H128.421C128.852 57.5034 129.2 57.8536 129.2 58.2815C129.2 58.7121 128.852 59.0597 128.421 59.0597Z" fill="white"/>
<path d="M128.421 63.8189H119.745C119.314 63.8189 118.966 63.4688 118.966 63.0408C118.966 62.6103 119.314 62.2627 119.745 62.2627H128.421C128.852 62.2627 129.2 62.6103 129.2 63.0408C129.2 63.4688 128.852 63.8189 128.421 63.8189Z" fill="white"/>
<path d="M128.421 68.3971H122.384C121.956 68.3971 121.607 68.0469 121.607 67.6189C121.607 67.191 121.956 66.8408 122.384 66.8408H128.421C128.852 66.8408 129.2 67.191 129.2 67.6189C129.2 68.0469 128.852 68.3971 128.421 68.3971Z" fill="white"/>
<path d="M128.421 73.1459H119.745C119.314 73.1459 118.966 72.7984 118.966 72.3704C118.966 71.9398 119.314 71.5923 119.745 71.5923H128.421C128.852 71.5923 129.2 71.9398 129.2 72.3704C129.2 72.7984 128.852 73.1459 128.421 73.1459Z" fill="white"/>
<path d="M128.421 77.7267H122.384C121.956 77.7267 121.607 77.3765 121.607 76.9485C121.607 76.518 121.956 76.1704 122.384 76.1704H128.421C128.852 76.1704 129.2 76.518 129.2 76.9485C129.2 77.3765 128.852 77.7267 128.421 77.7267Z" fill="white"/>
<path d="M128.421 82.4757H119.745C119.314 82.4757 118.966 82.1281 118.966 81.6976C118.966 81.2696 119.314 80.9194 119.745 80.9194H128.421C128.852 80.9194 129.2 81.2696 129.2 81.6976C129.2 82.1281 128.852 82.4757 128.421 82.4757Z" fill="white"/>
<path d="M128.421 87.0541H122.384C121.956 87.0541 121.607 86.7066 121.607 86.2786C121.607 85.8483 121.956 85.5005 122.384 85.5005H128.421C128.852 85.5005 129.2 85.8483 129.2 86.2786C129.2 86.7066 128.852 87.0541 128.421 87.0541Z" fill="white"/>
<path d="M128.421 91.8058H119.745C119.314 91.8058 118.966 91.4582 118.966 91.0276C118.966 90.5997 119.314 90.2495 119.745 90.2495H128.421C128.852 90.2495 129.2 90.5997 129.2 91.0276C129.2 91.4582 128.852 91.8058 128.421 91.8058Z" fill="white"/>
<path d="M128.421 96.3863H122.384C121.956 96.3863 121.607 96.0359 121.607 95.6082C121.607 95.1776 121.956 94.8301 122.384 94.8301H128.421C128.852 94.8301 129.2 95.1776 129.2 95.6082C129.2 96.0359 128.852 96.3863 128.421 96.3863Z" fill="white"/>
<path d="M128.421 101.135H119.745C119.314 101.135 118.966 100.788 118.966 100.357C118.966 99.9295 119.314 99.5791 119.745 99.5791H128.421C128.852 99.5791 129.2 99.9295 129.2 100.357C129.2 100.788 128.852 101.135 128.421 101.135Z" fill="white"/>
<path d="M128.421 105.713H122.384C121.956 105.713 121.607 105.366 121.607 104.935C121.607 104.507 121.956 104.16 122.384 104.16H128.421C128.852 104.16 129.2 104.507 129.2 104.935C129.2 105.366 128.852 105.713 128.421 105.713Z" fill="white"/>
<path d="M128.421 110.465H119.745C119.314 110.465 118.966 110.115 118.966 109.687C118.966 109.259 119.314 108.909 119.745 108.909H128.421C128.852 108.909 129.2 109.259 129.2 109.687C129.2 110.115 128.852 110.465 128.421 110.465Z" fill="white"/>
<path d="M72.265 70.853C70.5817 70.853 68.9478 70.5236 67.4126 69.8752C65.9267 69.2501 64.5941 68.3526 63.4485 67.2088C62.3056 66.0675 61.4068 64.737 60.7781 63.2533C60.1287 61.7204 59.7988 60.0889 59.7988 58.4082C59.7988 56.73 60.1287 55.1012 60.7781 53.5657C61.4068 52.0846 62.3056 50.754 63.4485 49.6102C64.5941 48.4663 65.9267 47.5689 67.41 46.9412C68.9478 46.2928 70.5817 45.9634 72.265 45.9634C73.9483 45.9634 75.5796 46.2928 77.1174 46.9412C78.6007 47.5689 79.933 48.4663 81.0788 49.6102C82.2218 50.754 83.1206 52.0846 83.7492 53.5657C84.3986 55.1012 84.7288 56.73 84.7288 58.4082C84.7288 60.0889 84.3986 61.7204 83.7492 63.2533C83.1206 64.737 82.2218 66.0675 81.0788 67.2088C79.9333 68.3526 78.6007 69.2501 77.1174 69.8752C75.5796 70.5236 73.9483 70.853 72.265 70.853ZM72.265 47.5196C69.353 47.5196 66.6125 48.6531 64.5525 50.7099C62.4926 52.7668 61.3574 55.5032 61.3574 58.4082C61.3574 61.3184 62.4926 64.0522 64.5499 66.109C66.6125 68.1659 69.3504 69.2968 72.265 69.2968C75.177 69.2968 77.9149 68.1659 79.9748 66.109C82.035 64.0522 83.1674 61.3184 83.1702 58.4082C83.1674 55.5032 82.035 52.7694 79.9748 50.7099C77.9149 48.6531 75.177 47.5196 72.265 47.5196Z" fill="#FF4D40"/>
<path d="M92.791 59.1863H72.9062C72.701 59.1863 72.501 59.1034 72.3555 58.9581C72.2101 58.8129 72.127 58.6131 72.127 58.4082V38.5608C72.127 38.3559 72.2101 38.1562 72.3555 38.011C72.501 37.8657 72.701 37.7827 72.9062 37.7827H92.791C92.9963 37.7827 93.1965 37.8657 93.3417 38.011C93.4875 38.1562 93.5703 38.3559 93.5703 38.5608V58.4082C93.5703 58.6157 93.4898 58.8129 93.3417 58.9581C93.1939 59.1059 92.9991 59.1863 92.791 59.1863ZM73.6855 57.6301H92.0117V39.339H73.6855V57.6301Z" fill="#FF4D40"/>
<path d="M78.8994 112.646C78.4708 112.646 78.1201 112.296 78.1201 111.868C78.1201 111.437 78.4708 111.09 78.8994 111.09H102.133V86.4256C102.133 85.9979 102.484 85.6475 102.912 85.6475C103.343 85.6475 103.691 85.9979 103.691 86.4256V111.868C103.691 112.075 103.611 112.27 103.463 112.418C103.317 112.565 103.12 112.646 102.912 112.646H78.902H78.8994Z" fill="white"/>
<path d="M38.5479 55.4438C38.1192 55.4438 37.7686 55.0963 37.7686 54.6657V22.7781C37.7686 22.5732 37.8517 22.3735 37.9971 22.2282C38.1426 22.083 38.3426 22 38.5479 22H80.7702C81.1985 22 81.5495 22.3502 81.5495 22.7781C81.5495 23.2087 81.1985 23.5563 80.7702 23.5563H39.3271V54.6631V54.6657C39.3271 55.0963 38.9791 55.4438 38.5479 55.4438Z" fill="white"/>
</svg>
