<svg width="157" height="157" viewBox="0 0 157 157" fill="none" xmlns="http://www.w3.org/2000/svg">
<path d="M103.301 108.361H52.7803C52.5766 108.361 52.3781 108.278 52.2337 108.133C52.0893 107.988 52.0068 107.788 52.0068 107.584V68.1777C52.0068 67.7478 52.3549 67.4007 52.7803 67.4007C53.2057 67.4007 53.5537 67.7478 53.5537 68.1777V106.807H102.582C102.698 106.514 102.986 106.317 103.301 106.317C103.729 106.317 104.074 106.664 104.074 107.094V107.584C104.074 107.791 103.994 107.985 103.848 108.133C103.703 108.281 103.507 108.361 103.301 108.361ZM103.301 102.688C102.876 102.688 102.528 102.341 102.528 101.914C102.528 101.484 102.876 101.137 103.301 101.137C103.729 101.137 104.074 101.484 104.074 101.914C104.074 102.341 103.729 102.688 103.301 102.688ZM103.301 97.5082C102.876 97.5082 102.528 97.1612 102.528 96.7338V57.6127H53.5537V57.8173C53.5537 58.2447 53.2057 58.5943 52.7803 58.5943C52.3549 58.5943 52.0068 58.2447 52.0068 57.8173V56.8356C52.0068 56.631 52.0893 56.4316 52.2337 56.2865C52.3781 56.1415 52.5766 56.0586 52.7803 56.0586H103.301C103.505 56.0586 103.706 56.1415 103.848 56.2865C103.992 56.429 104.074 56.631 104.074 56.8356V96.7338C104.074 97.1612 103.729 97.5082 103.301 97.5082ZM52.7803 63.7745C52.3549 63.7745 52.0068 63.4249 52.0068 62.9975C52.0068 62.5676 52.3549 62.2205 52.7803 62.2205C53.2057 62.2205 53.5537 62.5676 53.5537 62.9975C53.5537 63.4249 53.2057 63.7745 52.7803 63.7745Z" fill="white"/>
<path d="M65.697 70.542H60.3887C60.185 70.542 59.9839 70.4592 59.8395 70.3141C59.6977 70.1691 59.6152 69.9696 59.6152 69.765V64.4294C59.6152 64.2248 59.6977 64.0253 59.8395 63.8803C59.9839 63.7352 60.1824 63.6523 60.3887 63.6523H65.697C65.9007 63.6523 66.1018 63.7352 66.2462 63.8803C66.388 64.0253 66.4705 64.2248 66.4705 64.4294V69.765C66.4705 69.9696 66.388 70.1691 66.2462 70.3141C66.1018 70.4592 65.9007 70.542 65.697 70.542ZM61.1595 68.988H64.9236V65.2064H61.1595V68.988Z" fill="white"/>
<path d="M65.6996 85.6529H60.3861C60.1824 85.6529 59.9839 85.5703 59.8395 85.425C59.6977 85.2825 59.6152 85.0805 59.6152 84.8759V79.5402C59.6152 79.3356 59.6977 79.1362 59.8395 78.9911C59.9839 78.8461 60.185 78.7632 60.3861 78.7632H65.6996C65.9007 78.7632 66.1018 78.8461 66.2462 78.9911C66.388 79.1362 66.4705 79.3356 66.4705 79.5402V84.8759C66.4705 85.0859 66.3906 85.2802 66.2436 85.425C66.0992 85.5729 65.9059 85.6529 65.6996 85.6529ZM61.1621 84.0991H64.9236V80.3175H61.1621V84.0991Z" fill="white"/>
<path d="M65.6967 100.766H60.3883C60.1847 100.766 59.9836 100.684 59.8418 100.538C59.6974 100.393 59.6123 100.194 59.6123 99.9894V94.6535C59.6123 94.4489 59.6948 94.2494 59.8392 94.1018C59.9836 93.9593 60.1847 93.8765 60.3883 93.8765H65.6967C65.9004 93.8765 66.1014 93.9593 66.2458 94.1046C66.3876 94.2471 66.4701 94.4489 66.4701 94.6535V99.9894C66.4701 100.197 66.3902 100.391 66.2458 100.538C66.0989 100.686 65.9055 100.766 65.6967 100.766ZM61.1618 99.2124H64.9232V95.4305H61.1618V99.2124Z" fill="white"/>
<path d="M95.6984 70.542H90.3926C90.1889 70.542 89.9901 70.4592 89.846 70.3141C89.7014 70.1691 89.6191 69.9696 89.6191 69.765V64.4294C89.6191 64.2248 89.7014 64.0253 89.846 63.8803C89.9904 63.7352 90.1889 63.6523 90.3926 63.6523H95.6984C95.902 63.6523 96.1029 63.7352 96.2449 63.8803C96.3893 64.0253 96.4718 64.2248 96.4718 64.4294V69.765C96.4718 69.9722 96.3916 70.1665 96.2449 70.3141C96.1005 70.4618 95.9046 70.542 95.6984 70.542ZM91.166 68.988H94.9249V65.2064H91.166V68.988Z" fill="white"/>
<path d="M95.6984 85.6529H90.3926C90.1889 85.6529 89.9901 85.5703 89.846 85.425C89.7014 85.2825 89.6191 85.0805 89.6191 84.8759V79.5402C89.6191 79.3356 89.7014 79.1362 89.846 78.9911C89.9904 78.8461 90.1889 78.7632 90.3926 78.7632H95.6984C95.902 78.7632 96.1029 78.8461 96.2449 78.9911C96.3893 79.1362 96.4718 79.3356 96.4718 79.5402V84.8759C96.4718 85.0833 96.3916 85.2802 96.2449 85.425C96.1005 85.5729 95.9046 85.6529 95.6984 85.6529ZM91.166 84.0991H94.9249V80.3175H91.166V84.0991Z" fill="white"/>
<path d="M95.6984 100.766H90.3926C90.1889 100.766 89.9878 100.684 89.846 100.538C89.7014 100.393 89.6191 100.191 89.6191 99.9894V94.6535C89.6191 94.4489 89.7014 94.2494 89.846 94.1046C89.9904 93.9593 90.1889 93.8765 90.3926 93.8765H95.6984C95.902 93.8765 96.1005 93.9593 96.2449 94.1046C96.3893 94.2471 96.4718 94.4489 96.4718 94.6535V99.9894C96.4718 100.197 96.3916 100.391 96.2449 100.538C96.1005 100.684 95.9046 100.766 95.6984 100.766ZM91.166 99.2124H94.9249V95.4305H91.166V99.2124Z" fill="white"/>
<path d="M78.0405 91.2316C75.6429 91.2316 73.3896 90.2914 71.6932 88.5871C69.9968 86.8828 69.0635 84.6165 69.0635 82.2079C69.0635 79.8017 69.9968 77.5354 71.6932 75.8337C73.3896 74.132 75.6429 73.1943 78.0405 73.1943C80.4407 73.1943 82.694 74.132 84.3904 75.8337C86.0843 77.5354 87.0176 79.7991 87.0176 82.2079C87.0176 84.6193 86.0843 86.8828 84.3904 88.5871C82.694 90.2917 80.4405 91.2316 78.0405 91.2316ZM78.0405 74.7484C73.9516 74.7562 70.6181 78.1026 70.6104 82.2079C70.6181 86.3208 73.9516 89.6701 78.0405 89.6776C82.1294 89.6701 85.4629 86.3208 85.4707 82.2079C85.4629 78.1026 82.1294 74.7562 78.0405 74.7484Z" fill="white"/>
<path d="M78.041 101.331C77.6156 101.331 77.2676 100.981 77.2676 100.554V82.2082C77.2676 81.7808 77.6156 81.4312 78.041 81.4312C78.469 81.4312 78.8144 81.7808 78.8144 82.2082V100.554C78.8144 100.981 78.469 101.331 78.041 101.331Z" fill="white"/>
<path d="M78.041 82.9852C77.6156 82.9852 77.2676 82.6381 77.2676 82.2107V63.8649C77.2676 63.4376 77.6156 63.0879 78.041 63.0879C78.469 63.0879 78.8144 63.4376 78.8144 63.8649V82.2107C78.8144 82.6381 78.469 82.9852 78.041 82.9852Z" fill="white"/>
<path d="M92.2775 57.6123H63.8047C63.601 57.6123 63.3999 57.5294 63.2581 57.3844C63.1137 57.2394 63.0312 57.0399 63.0312 56.8353V54.2504C63.0312 53.8204 63.3767 53.4733 63.8047 53.4733C64.2301 53.4733 64.5781 53.8204 64.5781 54.2504V56.0583H91.5041V34.4178H64.5781V43.8899C64.5781 44.3173 64.2301 44.6643 63.8047 44.6643C63.3767 44.6643 63.0312 44.3173 63.0312 43.8899V33.6408C63.0312 33.4362 63.1137 33.2367 63.2555 33.0917C63.3999 32.9467 63.601 32.8638 63.8047 32.8638H92.2775C92.4812 32.8638 92.6799 32.9467 92.8241 33.0917C92.9687 33.2367 93.0509 33.4362 93.0509 33.6408V56.8353C93.0509 57.0425 92.971 57.2368 92.8241 57.3844C92.6797 57.532 92.4863 57.6123 92.2775 57.6123ZM63.8047 49.8472C63.3767 49.8472 63.0312 49.4975 63.0312 49.0701C63.0312 48.6402 63.3767 48.2931 63.8047 48.2931C64.2301 48.2931 64.5781 48.6402 64.5781 49.0701C64.5781 49.4975 64.2301 49.8472 63.8047 49.8472Z" fill="#FF4D40"/>
<path d="M75.6323 40.5614H68.5527C68.1248 40.5614 67.7793 40.2143 67.7793 39.7844C67.7793 39.357 68.1248 39.0073 68.5527 39.0073H75.6323C76.0577 39.0073 76.4031 39.357 76.4031 39.7844C76.4031 40.2143 76.0577 40.5614 75.6323 40.5614Z" fill="#FF4D40"/>
<path d="M87.3782 44.9232H68.5527C68.1248 44.9232 67.7793 44.5761 67.7793 44.1488C67.7793 43.7188 68.1248 43.3691 68.5527 43.3691H87.3782C87.8036 43.3691 88.1516 43.7188 88.1516 44.1488C88.1516 44.5761 87.8036 44.9232 87.3782 44.9232Z" fill="#FF4D40"/>
<path d="M87.3782 49.2875H68.5527C68.1248 49.2875 67.7793 48.9378 67.7793 48.5104C67.7793 48.0805 68.1248 47.7334 68.5527 47.7334H87.3782C87.8036 47.7334 88.1516 48.0805 88.1516 48.5104C88.1516 48.9378 87.8036 49.2875 87.3782 49.2875Z" fill="#FF4D40"/>
<path d="M87.3782 53.6576H68.5527C68.1248 53.6576 67.7793 53.3079 67.7793 52.8806C67.7793 52.4532 68.1248 52.1035 68.5527 52.1035H87.3782C87.8036 52.1035 88.1516 52.4532 88.1516 52.8806C88.1516 53.3079 87.8036 53.6576 87.3782 53.6576Z" fill="#FF4D40"/>
<path d="M92.2775 131.552H63.8047C63.601 131.552 63.3999 131.469 63.2581 131.327C63.1137 131.182 63.0312 130.98 63.0312 130.775V120.529C63.0312 120.101 63.3767 119.752 63.8047 119.752C64.2301 119.752 64.5781 120.101 64.5781 120.529V129.998H91.5041V108.36H64.5781V110.166C64.5781 110.166 64.5781 110.166 64.5781 110.168C64.5781 110.596 64.2301 110.945 63.8047 110.945C63.3767 110.945 63.0312 110.596 63.0312 110.168V107.584C63.0312 107.379 63.1137 107.177 63.2581 107.035C63.3999 106.889 63.601 106.807 63.8047 106.807H92.2775C92.4812 106.807 92.6823 106.889 92.8241 107.035C92.9687 107.18 93.0509 107.379 93.0509 107.584V130.775C93.0509 130.983 92.971 131.18 92.8241 131.327C92.6797 131.472 92.4835 131.552 92.2775 131.552ZM63.8047 116.126C63.3767 116.126 63.0312 115.776 63.0312 115.349C63.0312 114.921 63.3767 114.572 63.8047 114.572C64.2301 114.572 64.5781 114.921 64.5781 115.349C64.5781 115.776 64.2301 116.126 63.8047 116.126Z" fill="white"/>
<path d="M75.6323 125.409H68.5527C68.1248 125.409 67.7793 125.062 67.7793 124.634C67.7793 124.205 68.1248 123.857 68.5527 123.857H75.6323C76.0577 123.857 76.4057 124.205 76.4057 124.634C76.4057 125.062 76.0577 125.409 75.6323 125.409Z" fill="white"/>
<path d="M87.3782 121.047H68.5527C68.1248 121.047 67.7793 120.7 67.7793 120.27C67.7793 119.842 68.1248 119.493 68.5527 119.493H87.3782C87.8036 119.493 88.1491 119.842 88.1491 120.27C88.1491 120.7 87.8036 121.047 87.3782 121.047Z" fill="white"/>
<path d="M87.3782 116.685H68.5527C68.1248 116.685 67.7793 116.335 67.7793 115.908C67.7793 115.481 68.1248 115.131 68.5527 115.131H87.3782C87.8036 115.131 88.1516 115.481 88.1516 115.908C88.1516 116.335 87.8036 116.685 87.3782 116.685Z" fill="white"/>
<path d="M87.3756 112.324H68.5527C68.1248 112.324 67.7793 111.974 67.7793 111.547C67.7793 111.117 68.1248 110.77 68.5527 110.77H87.3756C87.8036 110.77 88.1516 111.117 88.1516 111.547C88.1516 111.974 87.8036 112.324 87.3756 112.324Z" fill="white"/>
<path d="M109.081 68.1181H103.301C102.876 68.1181 102.527 67.7684 102.527 67.341C102.527 66.9111 102.876 66.564 103.301 66.564H108.661L114.062 58.1927C114.207 57.9726 114.449 57.8379 114.712 57.8379C114.861 57.8379 115.008 57.8819 115.132 57.9648C115.49 58.1979 115.594 58.6797 115.362 59.0397L109.731 67.7632C109.587 67.986 109.344 68.1181 109.081 68.1181Z" fill="#FF4D40"/>
<path d="M119.218 83.9592C119.082 83.9592 118.95 83.9229 118.832 83.8556L111.77 79.7606H103.301C102.876 79.7606 102.527 79.4135 102.527 78.9836C102.527 78.5562 102.876 78.2065 103.301 78.2065H111.979C112.113 78.2065 112.247 78.2428 112.365 78.3101L119.602 82.5087H119.605C119.974 82.7237 120.1 83.2003 119.889 83.5707C119.749 83.8116 119.494 83.9592 119.218 83.9592Z" fill="#FF4D40"/>
<path d="M119.621 100.851C119.414 100.851 119.221 100.771 119.074 100.624L113.103 94.6298H103.301C102.876 94.6298 102.527 94.2801 102.527 93.8527C102.527 93.4228 102.876 93.0757 103.301 93.0757H113.423C113.626 93.0757 113.825 93.1586 113.969 93.3036L120.167 99.5253C120.314 99.6704 120.394 99.8672 120.394 100.074C120.394 100.282 120.314 100.478 120.167 100.624C120.02 100.771 119.827 100.851 119.621 100.851Z" fill="#FF4D40"/>
<path d="M116.398 59.3142C115.351 59.3142 114.369 58.9024 113.629 58.1616C112.891 57.4183 112.484 56.4288 112.481 55.3747C112.481 53.2093 114.237 51.4455 116.398 51.4429C118.556 51.4455 120.311 53.2093 120.311 55.3747C120.309 56.4288 119.901 57.4183 119.164 58.1616C118.427 58.905 117.444 59.3142 116.398 59.3142ZM116.398 52.9969C115.093 52.9995 114.031 54.0667 114.028 55.3747C114.028 56.6904 115.091 57.7602 116.398 57.7602C117.702 57.7576 118.764 56.6879 118.764 55.3747C118.762 54.0667 117.7 52.9995 116.398 52.9969Z" fill="#FF4D40"/>
<path d="M122.157 89.1364C119.999 89.1364 118.241 87.3725 118.241 85.2072C118.241 83.0393 119.999 81.2754 122.157 81.2754C124.318 81.2754 126.073 83.0393 126.076 85.2072C126.073 87.3725 124.318 89.1364 122.157 89.1364ZM122.157 82.8295C120.853 82.8321 119.79 83.8966 119.788 85.2072C119.791 86.5152 120.853 87.5797 122.157 87.5823C123.462 87.5797 124.526 86.5152 124.529 85.2072C124.526 83.8966 123.462 82.8321 122.157 82.8295Z" fill="#FF4D40"/>
<path d="M122.17 106.03C120.013 106.03 118.259 104.266 118.257 102.098C118.257 99.9326 120.013 98.1685 122.17 98.1685C124.328 98.1685 126.081 99.9326 126.084 102.098C126.081 104.266 124.328 106.03 122.17 106.03ZM122.17 99.7228C120.868 99.7254 119.806 100.79 119.804 102.098C119.806 103.409 120.868 104.473 122.17 104.476C123.472 104.473 124.535 103.409 124.537 102.098C124.535 100.79 123.472 99.7251 122.17 99.7228Z" fill="#FF4D40"/>
<path d="M52.78 68.1181H46.9999C46.7421 68.1181 46.492 67.9808 46.3502 67.7632L40.7247 59.0397C40.4927 58.6797 40.5958 58.1979 40.9516 57.9648C41.0779 57.8819 41.2249 57.8379 41.3718 57.8379C41.6374 57.8379 41.8797 57.9726 42.0215 58.1927L47.4201 66.564H52.78C53.208 66.564 53.5535 66.9137 53.5535 67.341C53.5535 67.7684 53.208 68.1181 52.78 68.1181Z" fill="#FF4D40"/>
<path d="M36.866 83.9592C36.5901 83.9592 36.3323 83.8116 36.1957 83.5707C36.09 83.392 36.0642 83.1822 36.1183 82.9801C36.1699 82.7807 36.2988 82.6123 36.4767 82.5087L43.7161 78.3127C43.8347 78.2428 43.9687 78.2065 44.1028 78.2065H52.7807C53.2061 78.2065 53.5542 78.5562 53.5542 78.9836C53.5542 79.4135 53.2061 79.7606 52.7807 79.7606H44.3116L37.2527 83.853C37.2527 83.8556 37.2527 83.8556 37.2501 83.8556C37.1341 83.9229 37 83.9592 36.866 83.9592Z" fill="#FF4D40"/>
<path d="M36.4609 100.851C36.2547 100.851 36.0613 100.771 35.9144 100.624C35.77 100.476 35.6875 100.282 35.6875 100.074C35.6875 99.8672 35.77 99.6701 35.9144 99.5253L42.1122 93.3036C42.2566 93.1586 42.4551 93.0757 42.6588 93.0757H52.7805C53.2059 93.0757 53.5539 93.4228 53.5539 93.8527C53.5539 94.2801 53.2059 94.6298 52.7805 94.6298H42.9784L37.0101 100.621C37.0101 100.624 37.0101 100.624 37.0075 100.624C36.8631 100.771 36.6672 100.851 36.4609 100.851Z" fill="#FF4D40"/>
<path d="M39.689 59.3141C38.6397 59.3115 37.6574 58.9023 36.9201 58.1589C36.1827 57.4181 35.7754 56.4287 35.7754 55.3745C35.7754 54.3255 36.1827 53.3387 36.9201 52.5979C37.6574 51.8546 38.6423 51.4453 39.689 51.4453C40.7331 51.4453 41.7154 51.852 42.4553 52.5953C43.1901 53.3387 43.5974 54.3255 43.6 55.3745C43.5974 56.4287 43.1927 57.4181 42.4553 58.1589C41.718 58.9023 40.7357 59.3115 39.689 59.3141ZM39.689 52.9968C38.3845 52.9994 37.3223 54.0639 37.3223 55.3745C37.3223 56.6903 38.3845 57.76 39.689 57.76C40.9909 57.76 42.0531 56.6903 42.0531 55.3745C42.0531 54.0665 40.9909 52.9994 39.689 52.9968Z" fill="#FF4D40"/>
<path d="M33.9234 89.1364C31.7655 89.1364 30.0098 87.3725 30.0098 85.2072C30.0098 83.0393 31.7655 81.2754 33.9234 81.2754C36.0838 81.2754 37.8395 83.0393 37.8395 85.2072C37.8395 87.3725 36.0838 89.1364 33.9234 89.1364ZM33.9234 82.8295C32.6214 82.8321 31.5592 83.8966 31.5566 85.2072C31.5592 86.5152 32.6214 87.5797 33.9234 87.5823C35.2279 87.5797 36.2901 86.5152 36.2927 85.2072C36.2901 83.8966 35.2279 82.8321 33.9234 82.8295Z" fill="#FF4D40"/>
<path d="M33.911 106.03C31.7557 106.03 30 104.266 30 102.1C30 99.9326 31.7557 98.1685 33.911 98.1685C36.0689 98.1685 37.8246 99.9326 37.8246 102.1C37.8246 104.266 36.0689 106.03 33.911 106.03ZM33.911 99.7228C32.6091 99.7254 31.5469 100.79 31.5443 102.101C31.5469 103.409 32.6091 104.473 33.911 104.476C35.2155 104.473 36.2752 103.409 36.2777 102.101C36.2752 100.79 35.2155 99.7251 33.911 99.7228Z" fill="#FF4D40"/>
<path d="M63.8041 50.7382H57.8486C57.645 50.7382 57.4464 50.6553 57.3021 50.5103C57.1577 50.3652 57.0752 50.1658 57.0752 49.9612V47.3918C57.0752 46.9618 57.4207 46.6147 57.8486 46.6147C58.274 46.6147 58.6221 46.9618 58.6221 47.3918V49.1841H63.0307V33.6408C63.0307 33.4362 63.1132 33.2368 63.2575 33.0917C63.4019 32.9467 63.6004 32.8638 63.8041 32.8638H85.5506V27.5541H58.6221V37.0313C58.6221 37.4587 58.274 37.8083 57.8486 37.8083C57.4207 37.8083 57.0752 37.4587 57.0752 37.0313V26.777C57.0752 26.5724 57.1577 26.3704 57.3021 26.2279C57.4439 26.0829 57.645 26 57.8486 26H86.324C86.5277 26 86.7262 26.0829 86.8706 26.2279C87.015 26.3704 87.0975 26.5724 87.0975 26.777V33.6408C87.0975 33.8481 87.015 34.0449 86.8706 34.1899C86.7236 34.3376 86.5303 34.4179 86.324 34.4179H64.5775V49.9612C64.5775 50.1658 64.495 50.3652 64.3507 50.5103C64.2063 50.6553 64.0078 50.7382 63.8041 50.7382ZM57.8486 42.9886C57.4207 42.9886 57.0752 42.6389 57.0752 42.2115C57.0752 41.7816 57.4207 41.4345 57.8486 41.4345C58.274 41.4345 58.6221 41.7816 58.6221 42.2115C58.6221 42.6389 58.274 42.9886 57.8486 42.9886Z" fill="#FF4D40"/>
</svg>
