<svg width="157" height="157" viewBox="0 0 157 157" fill="none" xmlns="http://www.w3.org/2000/svg">
<path d="M105.769 78.9068H88.9748C88.5462 78.9068 88.1955 78.5567 88.1955 78.1287C88.1955 77.7007 88.5462 77.3506 88.9748 77.3506H105.769C106.197 77.3506 106.548 77.7007 106.548 78.1287C106.548 78.5567 106.197 78.9068 105.769 78.9068ZM73.22 78.9068H52.9531C52.5219 78.9068 52.1738 78.5567 52.1738 78.1287C52.1738 77.7007 52.5219 77.3506 52.9531 77.3506H73.22C73.6512 77.3506 73.9993 77.7007 73.9993 78.1287C73.9993 78.5567 73.6512 78.9068 73.22 78.9068Z" fill="white"/>
<path d="M112.291 87.9901H88.9748C88.7696 87.9901 88.5696 87.9071 88.4241 87.7645C88.2787 87.619 88.1955 87.4169 88.1955 87.212V69.0428C88.1955 68.8379 88.2787 68.6381 88.4241 68.4929C88.5699 68.3476 88.7696 68.2646 88.9748 68.2646H112.291C112.497 68.2646 112.699 68.3476 112.842 68.4929C112.988 68.6381 113.071 68.8405 113.071 69.0428V87.212C113.071 87.4195 112.99 87.6166 112.842 87.7645C112.697 87.9095 112.499 87.9901 112.291 87.9901ZM89.7544 86.4339H111.512V69.8209H89.7544V86.4339ZM73.2203 87.9901H45.467C45.3423 87.9901 45.2176 87.9616 45.1085 87.9045L34.2815 82.3435C34.0191 82.2086 33.858 81.9441 33.858 81.6484C33.858 81.5265 33.8866 81.4072 33.9438 81.2956C34.0788 81.0337 34.3438 80.8729 34.6373 80.8729C34.762 80.8729 34.8841 80.904 34.9932 80.9585L45.654 86.4339H72.441V69.8209H45.654L30.5175 77.597C30.4058 77.654 30.2837 77.6851 30.1616 77.6851C29.868 77.6851 29.6005 77.5217 29.468 77.2624C29.3719 77.0756 29.3537 76.8655 29.4187 76.6684C29.481 76.4687 29.6187 76.3079 29.8031 76.2145L45.1085 68.3528C45.2176 68.2958 45.3423 68.2646 45.467 68.2646H73.2203C73.4255 68.2646 73.6282 68.3476 73.771 68.4929C73.9165 68.6381 73.9996 68.8405 73.9996 69.0428V87.212C73.9996 87.4195 73.9191 87.6166 73.771 87.7645C73.6256 87.9095 73.4281 87.9901 73.2203 87.9901ZM30.0161 80.0558C29.894 80.0558 29.7719 80.0273 29.6602 79.9702C29.2784 79.7731 29.1277 79.3036 29.3251 78.9224C29.4576 78.663 29.7252 78.4996 30.0187 78.4996C30.1434 78.4996 30.2629 78.5281 30.3746 78.5878C30.559 78.6811 30.6967 78.842 30.759 79.0417C30.824 79.2388 30.8058 79.4489 30.7097 79.6331C30.5772 79.895 30.3096 80.0558 30.0161 80.0558Z" fill="white"/>
<path d="M117.211 87.9901H112.294C112.086 87.9901 111.886 87.9071 111.74 87.7619C111.598 87.6164 111.515 87.4169 111.515 87.212V69.0428C111.515 68.8405 111.598 68.6381 111.74 68.4929C111.886 68.3476 112.086 68.2646 112.294 68.2646H117.211C117.417 68.2646 117.619 68.3476 117.762 68.4929C117.907 68.6381 117.991 68.8379 117.991 69.0428V87.212C117.991 87.4195 117.91 87.6166 117.762 87.7619C117.616 87.9095 117.419 87.9901 117.211 87.9901ZM113.07 86.4339H116.432V69.8209H113.07V86.4339Z" fill="white"/>
<path d="M127.086 87.99H117.212C117.007 87.99 116.806 87.907 116.661 87.7617C116.516 87.6188 116.433 87.4167 116.433 87.2118V69.0426C116.433 68.8377 116.516 68.638 116.661 68.4927C116.807 68.3475 117.007 68.2671 117.212 68.2671H127.86C129.07 68.2671 130.054 69.2501 130.054 70.4588V85.0331C130.052 86.662 128.72 87.9874 127.086 87.99ZM117.991 86.4337H127.086C127.862 86.4337 128.496 85.8032 128.496 85.0331V70.4588C128.496 70.1087 128.21 69.8233 127.86 69.8207H117.991V86.4337H117.991Z" fill="white"/>
<path d="M52.2908 87.9901H45.4667C45.342 87.9901 45.22 87.9616 45.1083 87.9045L27.4234 78.8212C27.1663 78.6889 27 78.4166 27 78.1287C27 77.8408 27.1663 77.5684 27.4234 77.4362L45.1083 68.3528C45.2174 68.2958 45.342 68.2646 45.4667 68.2646H52.2908C52.4934 68.2646 52.696 68.3476 52.8415 68.4929C52.9869 68.6381 53.0701 68.8405 53.0701 69.0428V87.212C53.0701 87.4195 52.9869 87.6166 52.8415 87.7619C52.6934 87.9095 52.4986 87.9901 52.2908 87.9901ZM29.4834 78.1287L45.6538 86.4339H51.5089V69.8209H45.6538L29.4834 78.1287Z" fill="white"/>
<path d="M81.0983 64.9315C79.1529 64.9263 77.5684 63.3493 77.5684 61.4144C77.571 60.4729 77.9372 59.5884 78.6048 58.9244C79.2698 58.2604 80.1556 57.8947 81.0986 57.8921C82.0418 57.8947 82.9273 58.2604 83.5926 58.9244C84.2576 59.5884 84.6239 60.4729 84.6262 61.4144C84.6259 63.3493 83.0442 64.9263 81.0983 64.9315ZM81.0983 59.4483C80.0125 59.4483 79.1267 60.3302 79.1267 61.4144C79.1293 62.496 80.0125 63.3753 81.0983 63.3753C82.1815 63.3753 83.0647 62.496 83.0673 61.4144C83.0673 60.3302 82.1844 59.4483 81.0983 59.4483Z" fill="#FF4D40"/>
<path d="M81.0983 99.1588C79.1529 99.1562 77.5707 97.5766 77.5684 95.6365C77.571 94.6923 77.9372 93.8079 78.6048 93.1441C79.2698 92.4799 80.1556 92.1142 81.0986 92.1118C82.0418 92.1144 82.9273 92.4801 83.5926 93.1441C84.2576 93.8081 84.6239 94.6926 84.6262 95.6365C84.6259 97.5766 83.0442 99.1562 81.0983 99.1588ZM81.0983 93.6678C80.0125 93.6704 79.1267 94.5523 79.1267 95.6365C79.1293 96.7181 80.0125 97.5999 81.0983 97.6025C82.1815 97.5999 83.0647 96.7181 83.0673 95.6365C83.0673 94.5523 82.1844 93.6701 81.0983 93.6678Z" fill="#FF4D40"/>
<path d="M66.864 110.729H49.2285C49.0207 110.729 48.8207 110.646 48.6752 110.501C48.5323 110.355 48.4492 110.156 48.4492 109.951V87.2117C48.4492 87.0068 48.5323 86.8068 48.6752 86.6618C48.8207 86.5163 49.0233 86.4336 49.2285 86.4336H73.2205C73.6517 86.4336 73.9998 86.7838 73.9998 87.2117C73.9998 87.6423 73.6517 87.9898 73.2205 87.9898H50.0052V109.173H66.864C67.2952 109.173 67.6433 109.523 67.6433 109.951C67.6433 110.379 67.2952 110.729 66.864 110.729Z" fill="white"/>
<path d="M95.3311 110.729C94.9027 110.729 94.5518 110.382 94.5518 109.951C94.5518 109.523 94.9027 109.173 95.3311 109.173H112.19V87.9898H88.9772C88.9772 87.9898 88.9772 87.9898 88.9746 87.9898C88.546 87.9898 88.1953 87.6423 88.1953 87.2117C88.1953 86.7838 88.546 86.4336 88.9746 86.4336H112.969C113.174 86.4336 113.377 86.5163 113.52 86.6618C113.665 86.8071 113.748 87.0068 113.748 87.2117V109.951C113.748 110.159 113.668 110.356 113.52 110.501C113.374 110.649 113.179 110.729 112.969 110.729H95.3311Z" fill="white"/>
<path d="M112.969 69.8211H88.9746C88.7694 69.8211 88.5694 69.7381 88.4239 69.5954C88.2784 69.4502 88.1953 69.2479 88.1953 69.0455V51.9605C88.1953 51.67 88.3564 51.4055 88.6161 51.2706C91.0553 50.01 93.1516 48.1451 94.6869 45.8782C94.8297 45.6629 95.071 45.5332 95.3308 45.5332H112.969C113.174 45.5332 113.374 45.6162 113.52 45.7615C113.665 45.9067 113.748 46.1064 113.748 46.3113V69.0455C113.748 69.253 113.668 69.4476 113.52 69.5954C113.374 69.7407 113.177 69.8211 112.969 69.8211ZM89.7539 68.2648H112.19V47.0895H95.7389C94.1829 49.2812 92.1126 51.1279 89.7539 52.4274V68.2648Z" fill="white"/>
<path d="M73.2205 69.8211H49.2259C49.0233 69.8211 48.8207 69.7381 48.6752 69.5954C48.5297 69.4502 48.4492 69.2479 48.4492 69.0429V46.3113C48.4492 46.1064 48.5297 45.9067 48.6752 45.7615C48.8207 45.6162 49.0207 45.5332 49.2259 45.5332H66.864C67.1238 45.5332 67.3653 45.6603 67.5108 45.8756C69.0434 48.1399 71.1423 50.0048 73.5815 51.2706C73.8413 51.4055 73.9998 51.67 73.9998 51.9605V69.0429C73.9998 69.2479 73.9166 69.4502 73.7738 69.5954C73.6283 69.7381 73.4257 69.8211 73.2205 69.8211ZM50.0052 68.2674L72.4412 68.2648V52.4274C70.0825 51.1201 68.0148 49.276 66.4562 47.0895H50.0052V68.2674Z" fill="white"/>
<path d="M39.7314 85.0721C39.3002 85.0721 38.9521 84.7217 38.9521 84.294V75.1458C38.9521 74.7178 39.3002 74.3677 39.7314 74.3677C40.1601 74.3677 40.5107 74.7178 40.5107 75.1458V84.294C40.5107 84.7217 40.1601 85.0721 39.7314 85.0721Z" fill="white"/>
<path d="M81.0987 54.6475C78.6776 54.6475 76.3268 54.1754 74.1164 53.2417C71.9812 52.339 70.0641 51.0473 68.4172 49.4029C66.7677 47.7559 65.474 45.8417 64.5726 43.707C63.6375 41.4971 63.1621 39.1524 63.1621 36.7324C63.1621 33.4902 64.0401 30.3129 65.7 27.5454C67.3132 24.8556 69.6147 22.625 72.3526 21.0973C72.5864 20.965 72.8929 20.9676 73.1267 21.1051C73.3657 21.2426 73.5112 21.4993 73.5112 21.7743V22.3216C73.5112 22.7521 73.1631 23.0997 72.7319 23.0997C72.5682 23.0997 72.4124 23.0504 72.2773 22.9544C67.5444 25.9813 64.7207 31.1325 64.7207 36.7324C64.7207 41.1029 66.4248 45.2114 69.5186 48.3006C72.6124 51.3897 76.7245 53.0912 81.0989 53.0912C85.4736 53.0912 89.5855 51.3897 92.6821 48.3006C95.7785 45.2114 97.4823 41.1029 97.4823 36.7324C97.4823 31.2907 94.7782 26.2226 90.2427 23.1671V37.9178C90.2427 38.1253 90.1621 38.3198 90.0141 38.4676C89.8686 38.6129 89.6712 38.6959 89.4634 38.6959H72.7319C72.5267 38.6959 72.3266 38.6129 72.1812 38.4676C72.0357 38.3224 71.9526 38.1227 71.9526 37.9178V32.6966C71.9526 32.2686 72.3033 31.9184 72.7319 31.9184C73.1631 31.9184 73.5112 32.2686 73.5112 32.6966V37.1396H88.6841V21.7743C88.6841 21.4993 88.8321 21.2426 89.0685 21.1051C89.3021 20.9676 89.606 20.965 89.845 21.0973C92.5829 22.6276 94.8844 24.8556 96.5002 27.5454C98.1627 30.3129 99.0407 33.4902 99.0407 36.7324C99.0407 39.1524 98.5653 41.4971 97.6301 43.707C96.7262 45.8417 95.4325 47.7559 93.7828 49.4029C92.1358 51.0473 90.2164 52.339 88.0812 53.2417C85.8682 54.1754 83.5199 54.6475 81.0987 54.6475ZM72.7319 28.2872C72.3033 28.2872 71.9526 27.9396 71.9526 27.5091C71.9526 27.0811 72.3033 26.7309 72.7319 26.7309C73.1631 26.7309 73.5112 27.0811 73.5112 27.5091C73.5112 27.9396 73.1631 28.2872 72.7319 28.2872Z" fill="#FF4D40"/>
<path d="M88.9745 105.08C88.8501 105.08 88.7277 105.049 88.616 104.992C86.2781 103.783 83.748 103.171 81.0984 103.171C78.4488 103.171 75.919 103.783 73.5782 104.992C73.3418 105.114 73.0431 105.104 72.8171 104.966C72.5859 104.826 72.4404 104.572 72.4404 104.302V82.2031C72.4404 81.7754 72.7911 81.425 73.2197 81.425C73.6509 81.425 73.999 81.7752 73.999 82.2031V103.072C76.246 102.105 78.6306 101.615 81.0958 101.615H81.1013C83.5636 101.615 85.9511 102.105 88.1955 103.072V53.1923C85.9511 54.1572 83.5639 54.6474 81.0987 54.6474C78.6335 54.6474 76.2463 54.1572 73.9993 53.1897V71.8258V71.8284C73.9993 72.2589 73.6512 72.6065 73.22 72.6065C72.7914 72.6065 72.4407 72.2589 72.4407 71.8284V51.9629C72.4407 51.6905 72.5862 51.4363 72.8173 51.2963C73.0433 51.1588 73.3447 51.1484 73.5785 51.2703C75.919 52.479 78.4491 53.0911 81.0987 53.0911C83.7483 53.0911 86.2784 52.479 88.6163 51.2703C88.8527 51.1484 89.1514 51.1588 89.38 51.2963C89.6112 51.4363 89.7538 51.6905 89.7538 51.9629V104.302C89.7538 104.574 89.6135 104.823 89.38 104.966C89.2577 105.041 89.1174 105.08 88.9745 105.08ZM73.2197 77.794C72.7911 77.794 72.4404 77.4464 72.4404 77.0159C72.4404 76.5879 72.7911 76.2378 73.2197 76.2378C73.6509 76.2378 73.999 76.5879 73.999 77.0159C73.999 77.4464 73.6509 77.794 73.2197 77.794Z" fill="#FF4D40"/>
<path d="M72.7319 135.267C72.5994 135.267 72.4669 135.233 72.3526 135.168C69.6147 133.638 67.3132 131.407 65.7 128.717C64.0401 125.947 63.1621 122.77 63.1621 119.525C63.1621 117.108 63.6375 114.761 64.5726 112.553C65.4766 110.421 66.7677 108.507 68.4172 106.86C70.0641 105.216 71.9812 103.926 74.1164 103.024C76.327 102.09 78.6779 101.615 81.0987 101.615C83.5197 101.615 85.868 102.09 88.0814 103.024C90.2167 103.926 92.1361 105.216 93.783 106.86C95.4328 108.507 96.7262 110.421 97.6304 112.553C98.5656 114.761 99.0409 117.108 99.0409 119.525C99.0409 122.77 98.1629 125.947 96.5004 128.717C94.8847 131.407 92.5832 133.638 89.8452 135.168C89.6091 135.3 89.3023 135.298 89.0688 135.16C88.8324 135.02 88.6843 134.764 88.6843 134.488V119.118H73.5114V123.566C73.5114 123.996 73.1633 124.344 72.7321 124.344C72.3035 124.344 71.9528 123.996 71.9528 123.566V118.34C71.9528 118.135 72.036 117.935 72.1814 117.79C72.3269 117.645 72.5269 117.562 72.7321 117.562H89.4636C89.6689 117.562 89.8691 117.645 90.0143 117.79C90.1601 117.935 90.2429 118.135 90.2429 118.34V133.096C94.7784 130.043 97.4826 124.972 97.4826 119.525C97.4826 115.157 95.7785 111.052 92.6824 107.962C89.5857 104.873 85.4739 103.171 81.0992 103.171C76.725 103.171 72.6129 104.873 69.5188 107.962C66.4248 111.052 64.721 115.157 64.721 119.525C64.721 125.13 67.5472 130.282 72.2775 133.311C72.4126 133.215 72.5685 133.163 72.7321 133.163C73.1633 133.163 73.5114 133.513 73.5114 133.941V134.488C73.5114 134.764 73.3634 135.02 73.127 135.16C73.0072 135.23 72.8721 135.267 72.7319 135.267ZM72.7319 129.532C72.3033 129.532 71.9526 129.184 71.9526 128.754C71.9526 128.326 72.3033 127.976 72.7319 127.976C73.1631 127.976 73.5112 128.326 73.5112 128.754C73.5112 129.184 73.1631 129.532 72.7319 129.532Z" fill="#FF4D40"/>
</svg>
