<svg width="157" height="157" viewBox="0 0 157 157" fill="none" xmlns="http://www.w3.org/2000/svg">
<path d="M127.137 110.928H30.8242C27.263 110.928 24.0195 107.713 24.0195 104.184V35.4498C24.0195 31.9205 27.263 28.7061 30.8242 28.7061H127.137C130.698 28.7061 133.941 31.9205 133.941 35.4498V104.184C133.941 107.713 130.698 110.928 127.137 110.928ZM30.8242 30.2623C28.1338 30.2623 25.5898 32.7834 25.5898 35.4498V104.184C25.5898 106.851 28.1338 109.372 30.8242 109.372H127.137C129.827 109.372 132.371 106.851 132.371 104.184V35.4498C132.371 32.7834 129.827 30.2623 127.137 30.2623H30.8242Z" fill="white"/>
<path d="M126.875 92.5124H30.8242C30.3906 92.5124 30.0391 92.1641 30.0391 91.7343V35.7093C30.0391 35.2795 30.3906 34.9312 30.8242 34.9312H126.875C127.309 34.9312 127.66 35.2795 127.66 35.7093V91.7343C127.66 92.1641 127.309 92.5124 126.875 92.5124ZM31.6094 90.9562H126.09V36.4874H31.6094V90.9562Z" fill="white"/>
<path d="M96.5209 130.122C96.5196 130.122 96.5177 130.122 96.5157 130.122H61.4454C61.2009 130.122 60.9706 130.009 60.8219 129.817C60.6733 129.625 60.6236 129.375 60.6874 129.141L65.9218 109.947C66.0144 109.608 66.3251 109.372 66.6797 109.372H91.2813C91.6359 109.372 91.9466 109.608 92.0392 109.947L97.25 129.056C97.2862 129.145 97.3058 129.242 97.3058 129.344C97.306 129.774 96.9548 130.122 96.5209 130.122ZM62.4713 128.566H95.4905L90.6804 110.928H67.2812L62.4713 128.566Z" fill="white"/>
<path d="M111.957 134.79H46.0039C45.5702 134.79 45.2188 134.442 45.2188 134.012V129.344C45.2188 128.914 45.5702 128.565 46.0039 128.565H111.957C112.391 128.565 112.742 128.914 112.742 129.344V134.012C112.742 134.442 112.391 134.79 111.957 134.79ZM46.7891 133.234H111.172V130.122H46.7891V133.234Z" fill="white"/>
<path d="M78.9805 106.778C77.1607 106.778 75.8398 105.578 75.8398 103.925C75.8398 102.209 77.2487 100.812 78.9805 100.812C80.7122 100.812 82.1211 102.209 82.1211 103.925C82.1211 105.578 80.8002 106.778 78.9805 106.778ZM78.9805 102.369C78.1 102.369 77.4102 103.052 77.4102 103.925C77.4102 104.882 78.256 105.222 78.9805 105.222C79.7049 105.222 80.5508 104.882 80.5508 103.925C80.5508 103.052 79.8609 102.369 78.9805 102.369Z" fill="#FF4D40"/>
<path d="M50.9766 43.7501H36.8438C36.4101 43.7501 36.0586 43.4018 36.0586 42.972C36.0586 42.5422 36.4101 42.1938 36.8438 42.1938H50.9766C51.4102 42.1938 51.7617 42.5422 51.7617 42.972C51.7617 43.4018 51.4102 43.7501 50.9766 43.7501Z" fill="#FF4D40"/>
<path d="M65.3711 49.1969H36.8438C36.4101 49.1969 36.0586 48.8485 36.0586 48.4188C36.0586 47.989 36.4101 47.6406 36.8438 47.6406H65.3711C65.8048 47.6406 66.1563 47.989 66.1563 48.4188C66.1563 48.8485 65.8048 49.1969 65.3711 49.1969Z" fill="#FF4D40"/>
<path d="M65.3711 54.3844H36.8438C36.4101 54.3844 36.0586 54.036 36.0586 53.6063C36.0586 53.1765 36.4101 52.8281 36.8438 52.8281H65.3711C65.8048 52.8281 66.1563 53.1765 66.1563 53.6063C66.1563 54.036 65.8048 54.3844 65.3711 54.3844Z" fill="#FF4D40"/>
<path d="M18.7852 60.6094C18.3515 60.6094 18 60.261 18 59.8313V30.5219C18 26.3039 21.3338 23 25.5898 23H42.6016C43.0352 23 43.3867 23.3483 43.3867 23.7781C43.3867 24.2079 43.0352 24.5563 42.6016 24.5563H25.5898C22.2145 24.5563 19.5703 27.1767 19.5703 30.5219V59.8313C19.5703 60.261 19.2188 60.6094 18.7852 60.6094Z" fill="white"/>
<path d="M139.176 43.75C138.742 43.75 138.391 43.4017 138.391 42.9719V30.5219C138.391 27.1767 135.746 24.5562 132.371 24.5562C131.937 24.5562 131.586 24.2079 131.586 23.7781C131.586 23.3483 131.937 23 132.371 23C136.627 23 139.961 26.3039 139.961 30.5219V42.9719C139.961 43.4017 139.609 43.75 139.176 43.75Z" fill="white"/>
<path d="M102.504 87.2137H100.23C99.8422 87.2137 99.5122 86.9328 99.4538 86.5526L98.872 82.76C98.3941 82.6648 97.9178 82.5388 97.4469 82.3829L95.0297 85.3841C94.7866 85.6858 94.3573 85.7654 94.021 85.5709L92.0555 84.4361C91.7205 84.2429 91.5782 83.8362 91.7203 83.4787L93.1377 79.9118C92.7664 79.5871 92.4164 79.2405 92.0909 78.8751L88.4828 80.2801C88.1211 80.4212 87.7097 80.2783 87.5155 79.9445L86.3781 77.9885C86.1841 77.655 86.2655 77.2312 86.5694 76.9912L89.5967 74.6027C89.4402 74.1384 89.3117 73.6642 89.2122 73.1852L85.3835 72.6161C84.9993 72.559 84.7148 72.2317 84.7148 71.8465V69.5934C84.7148 69.2082 84.9991 68.8809 85.3835 68.8238L89.2122 68.2545C89.3117 67.7749 89.4399 67.301 89.5967 66.8365L86.5694 64.4479C86.2653 64.208 86.1839 63.7839 86.3783 63.4503L87.5158 61.4951C87.7097 61.1616 88.1214 61.0189 88.4828 61.1598L92.0906 62.5646C92.4162 62.1988 92.7664 61.852 93.138 61.5271L91.72 57.9513C91.5779 57.5931 91.7216 57.1859 92.0576 56.9932L94.0231 55.8664C94.3602 55.6732 94.7879 55.7539 95.03 56.0545L97.4472 59.0555C97.9183 58.8996 98.3944 58.7738 98.8723 58.6783L99.4541 54.8858C99.5124 54.5055 99.8422 54.2246 100.23 54.2246H102.504C102.893 54.2246 103.223 54.5063 103.281 54.8873L103.854 58.6781C104.33 58.7727 104.808 58.8991 105.284 59.056L107.695 56.055C107.937 55.7536 108.365 55.6735 108.702 55.8654L110.675 56.9921C111.012 57.1846 111.156 57.5921 111.013 57.9508L109.595 61.5299C109.963 61.8541 110.312 62.2004 110.639 62.5651L114.242 61.1595C114.603 61.0184 115.015 61.1608 115.21 61.4949L116.347 63.4501C116.54 63.7836 116.459 64.2074 116.155 64.4474L113.13 66.8341C113.285 67.2891 113.413 67.764 113.514 68.2542L117.343 68.8235C117.727 68.8806 118.011 69.2079 118.011 69.5931V71.8463C118.011 72.2315 117.727 72.5588 117.343 72.6159L113.514 73.1849C113.413 73.6751 113.285 74.1498 113.13 74.6047L116.155 76.9912C116.459 77.2309 116.541 77.655 116.347 77.9885L115.21 79.9445C115.015 80.2786 114.603 80.4212 114.242 80.2801L110.639 78.8743C110.312 79.2387 109.963 79.5845 109.595 79.909L111.013 83.4795C111.156 83.8374 111.012 84.2444 110.677 84.4374L108.704 85.5722C108.367 85.7659 107.938 85.6858 107.695 85.3838L105.284 82.3829C104.809 82.5395 104.33 82.6659 103.854 82.7608L103.281 86.5516C103.223 86.9318 102.893 87.2137 102.504 87.2137ZM100.905 85.6575H101.827L102.385 81.9746C102.436 81.6356 102.705 81.37 103.047 81.3202C103.781 81.2134 104.528 81.0167 105.267 80.7358C105.587 80.6139 105.949 80.7122 106.162 80.9778L108.501 83.8886L109.304 83.4266L107.928 79.9614C107.802 79.6457 107.898 79.2859 108.164 79.0722C108.761 78.5919 109.309 78.0482 109.794 77.456C110.01 77.1928 110.373 77.0986 110.691 77.2223L114.186 78.5859L114.648 77.7914L111.709 75.4723C111.438 75.2586 111.341 74.8945 111.469 74.5757C111.74 73.9 111.94 73.1603 112.064 72.3772C112.117 72.0416 112.384 71.7786 112.723 71.7283L116.44 71.1761V70.2631L112.723 69.7106C112.384 69.6603 112.118 69.3973 112.064 69.0616C111.94 68.2788 111.74 67.5388 111.469 66.8627C111.341 66.5439 111.438 66.1797 111.709 65.966L114.648 63.6469L114.186 62.8532L110.691 64.2168C110.373 64.3413 110.01 64.2466 109.794 63.9828C109.309 63.3901 108.761 62.8468 108.164 62.3669C107.898 62.1534 107.802 61.7937 107.928 61.478L109.304 58.0058L108.502 57.548L106.162 60.4605C105.949 60.7258 105.587 60.8241 105.267 60.7025C104.528 60.4216 103.781 60.225 103.047 60.1181C102.705 60.0683 102.436 59.8025 102.385 59.4637L101.827 55.7809H100.905L100.34 59.4653C100.288 59.8032 100.02 60.0678 99.6789 60.1181C98.9374 60.2271 98.1934 60.4237 97.4674 60.7017C97.1473 60.8244 96.7845 60.7271 96.5704 60.4615L94.2241 57.5488L93.4285 58.005L94.8059 61.4783C94.9318 61.796 94.8342 62.1579 94.5651 62.3708C93.9624 62.8478 93.4167 63.3886 92.9433 63.9779C92.7287 64.245 92.3628 64.3428 92.0422 64.2173L88.5383 62.853L88.0761 63.6472L91.0149 65.966C91.2835 66.1779 91.3821 66.5384 91.2583 66.8557C90.9804 67.5671 90.7791 68.3092 90.6603 69.0614C90.6072 69.3973 90.3402 69.66 90.001 69.7103L86.2854 70.2628V71.1758L90.001 71.728C90.3402 71.7783 90.6069 72.0413 90.6603 72.377C90.7794 73.1294 90.9807 73.8715 91.2583 74.5822C91.3824 74.8997 91.284 75.2599 91.0149 75.4721L88.0761 77.7909L88.5383 78.5859L92.0422 77.2216C92.3625 77.0963 92.7281 77.1936 92.943 77.4605C93.417 78.0495 93.9627 78.5903 94.5654 79.0678C94.8345 79.281 94.9318 79.6431 94.8057 79.9606L93.428 83.4269L94.2254 83.8873L96.5704 80.9763C96.7843 80.7107 97.1473 80.6129 97.4674 80.7361C98.1934 81.0144 98.9374 81.2108 99.6789 81.3197C100.02 81.3698 100.288 81.6346 100.34 81.9725L100.905 85.6575ZM101.366 77.2675C97.723 77.2675 94.7591 74.3301 94.7591 70.7196C94.7591 67.1088 97.723 64.1714 101.366 64.1714C105.01 64.1714 107.974 67.1088 107.974 70.7196C107.974 74.3301 105.01 77.2675 101.366 77.2675ZM101.366 65.7274C98.5891 65.7274 96.3294 67.9668 96.3294 70.7193C96.3294 73.4718 98.5891 75.711 101.366 75.711C104.144 75.711 106.403 73.4718 106.403 70.7193C106.403 67.9668 104.144 65.7274 101.366 65.7274Z" fill="#FF4D40"/>
<path d="M77.9336 84.2125H76.625C76.1913 84.2125 75.8398 83.8642 75.8398 83.4344C75.8398 83.0046 76.1913 82.6563 76.625 82.6563H77.9336C78.3673 82.6563 78.7188 83.0046 78.7188 83.4344C78.7188 83.8642 78.3673 84.2125 77.9336 84.2125ZM71.9141 84.2125H70.6055C70.1718 84.2125 69.8203 83.8642 69.8203 83.4344C69.8203 83.0046 70.1718 82.6563 70.6055 82.6563H71.9141C72.3477 82.6563 72.6992 83.0046 72.6992 83.4344C72.6992 83.8642 72.3477 84.2125 71.9141 84.2125ZM65.8945 84.2125H64.5859C64.1523 84.2125 63.8008 83.8642 63.8008 83.4344C63.8008 83.0046 64.1523 82.6563 64.5859 82.6563H65.8945C66.3282 82.6563 66.6797 83.0046 66.6797 83.4344C66.6797 83.8642 66.3282 84.2125 65.8945 84.2125ZM59.875 84.2125H58.5664C58.1327 84.2125 57.7812 83.8642 57.7812 83.4344C57.7812 83.0046 58.1327 82.6563 58.5664 82.6563H59.875C60.3087 82.6563 60.6602 83.0046 60.6602 83.4344C60.6602 83.8642 60.3087 84.2125 59.875 84.2125ZM53.8555 84.2125H52.5469C52.1132 84.2125 51.7617 83.8642 51.7617 83.4344C51.7617 83.0046 52.1132 82.6563 52.5469 82.6563H53.8555C54.2891 82.6563 54.6406 83.0046 54.6406 83.4344C54.6406 83.8642 54.2891 84.2125 53.8555 84.2125ZM47.8359 84.2125H46.5273C46.0937 84.2125 45.7422 83.8642 45.7422 83.4344C45.7422 83.0046 46.0937 82.6563 46.5273 82.6563H47.8359C48.2696 82.6563 48.6211 83.0046 48.6211 83.4344C48.6211 83.8642 48.2696 84.2125 47.8359 84.2125ZM41.8164 84.2125H40.5078C40.0741 84.2125 39.7227 83.8642 39.7227 83.4344C39.7227 83.0046 40.0741 82.6563 40.5078 82.6563H41.8164C42.2501 82.6563 42.6016 83.0046 42.6016 83.4344C42.6016 83.8642 42.2501 84.2125 41.8164 84.2125ZM78.1953 79.8031C77.7616 79.8031 77.4102 79.4548 77.4102 79.025V77.7281C77.4102 77.2983 77.7616 76.95 78.1953 76.95C78.629 76.95 78.9805 77.2983 78.9805 77.7281V79.025C78.9805 79.4548 78.629 79.8031 78.1953 79.8031ZM78.1953 73.8375C77.7616 73.8375 77.4102 73.4892 77.4102 73.0594V71.7625C77.4102 71.3327 77.7616 70.9844 78.1953 70.9844C78.629 70.9844 78.9805 71.3327 78.9805 71.7625V73.0594C78.9805 73.4892 78.629 73.8375 78.1953 73.8375ZM78.1953 67.8719C77.7616 67.8719 77.4102 67.5235 77.4102 67.0938V65.7969C77.4102 65.3671 77.7616 65.0188 78.1953 65.0188C78.629 65.0188 78.9805 65.3671 78.9805 65.7969V67.0938C78.9805 67.5235 78.629 67.8719 78.1953 67.8719ZM78.1953 61.9063C77.7616 61.9063 77.4102 61.5579 77.4102 61.1281V59.8313C77.4102 59.4015 77.7616 59.0531 78.1953 59.0531C78.629 59.0531 78.9805 59.4015 78.9805 59.8313V61.1281C78.9805 61.5579 78.629 61.9063 78.1953 61.9063ZM78.1953 55.9406C77.7616 55.9406 77.4102 55.5923 77.4102 55.1625V53.8656C77.4102 53.4358 77.7616 53.0875 78.1953 53.0875C78.629 53.0875 78.9805 53.4358 78.9805 53.8656V55.1625C78.9805 55.5923 78.629 55.9406 78.1953 55.9406ZM78.1953 49.975C77.7616 49.975 77.4102 49.6267 77.4102 49.1969V47.9C77.4102 47.4702 77.7616 47.1219 78.1953 47.1219C78.629 47.1219 78.9805 47.4702 78.9805 47.9V49.1969C78.9805 49.6267 78.629 49.975 78.1953 49.975ZM78.1953 44.0094C77.7616 44.0094 77.4102 43.661 77.4102 43.2313V41.9344C77.4102 41.5046 77.7616 41.1562 78.1953 41.1562C78.629 41.1562 78.9805 41.5046 78.9805 41.9344V43.2313C78.9805 43.661 78.629 44.0094 78.1953 44.0094ZM114.312 42.7125H113.004C112.57 42.7125 112.219 42.3642 112.219 41.9344C112.219 41.5046 112.57 41.1562 113.004 41.1562H114.312C114.746 41.1562 115.098 41.5046 115.098 41.9344C115.098 42.3642 114.746 42.7125 114.312 42.7125ZM108.293 42.7125H106.984C106.551 42.7125 106.199 42.3642 106.199 41.9344C106.199 41.5046 106.551 41.1562 106.984 41.1562H108.293C108.727 41.1562 109.078 41.5046 109.078 41.9344C109.078 42.3642 108.727 42.7125 108.293 42.7125ZM102.273 42.7125H100.965C100.531 42.7125 100.18 42.3642 100.18 41.9344C100.18 41.5046 100.531 41.1562 100.965 41.1562H102.273C102.707 41.1562 103.059 41.5046 103.059 41.9344C103.059 42.3642 102.707 42.7125 102.273 42.7125ZM96.2539 42.7125H94.9453C94.5116 42.7125 94.1602 42.3642 94.1602 41.9344C94.1602 41.5046 94.5116 41.1562 94.9453 41.1562H96.2539C96.6876 41.1562 97.0391 41.5046 97.0391 41.9344C97.0391 42.3642 96.6876 42.7125 96.2539 42.7125ZM90.2344 42.7125H88.9258C88.4921 42.7125 88.1406 42.3642 88.1406 41.9344C88.1406 41.5046 88.4921 41.1562 88.9258 41.1562H90.2344C90.668 41.1562 91.0195 41.5046 91.0195 41.9344C91.0195 42.3642 90.668 42.7125 90.2344 42.7125ZM84.2148 42.7125H82.9062C82.4726 42.7125 82.1211 42.3642 82.1211 41.9344C82.1211 41.5046 82.4726 41.1562 82.9062 41.1562H84.2148C84.6485 41.1562 85 41.5046 85 41.9344C85 42.3642 84.6485 42.7125 84.2148 42.7125Z" fill="white"/>
</svg>
