<svg width="157" height="157" viewBox="0 0 157 157" fill="none" xmlns="http://www.w3.org/2000/svg">
<path d="M125.508 109.928H30.6328C27.1248 109.928 23.9297 106.714 23.9297 103.185V34.4502C23.9297 30.9958 27.0619 27.9658 30.6328 27.9658H125.508C129.079 27.9658 132.211 30.9958 132.211 34.4502V103.185C132.211 106.714 129.016 109.928 125.508 109.928ZM30.6328 29.5221C27.8861 29.5221 25.4766 31.8248 25.4766 34.4502V103.185C25.4766 105.851 27.9825 108.372 30.6328 108.372H125.508C128.158 108.372 130.664 105.851 130.664 103.185V34.4502C130.664 31.8248 128.255 29.5221 125.508 29.5221H30.6328Z" fill="white"/>
<path d="M125.25 91.5124H30.6328C30.2056 91.5124 29.8594 91.1641 29.8594 90.7343V34.7093C29.8594 34.2795 30.2056 33.9312 30.6328 33.9312H125.25C125.677 33.9312 126.023 34.2795 126.023 34.7093V90.7343C126.023 91.1641 125.677 91.5124 125.25 91.5124ZM31.4062 89.9562H124.477V35.4874H31.4062V89.9562Z" fill="white"/>
<path d="M95.3489 129.122C95.3477 129.122 95.3459 129.122 95.3438 129.122H60.7969C60.5561 129.122 60.3292 129.009 60.1828 128.817C60.0364 128.625 59.9874 128.375 60.0503 128.141L65.2065 108.947C65.2978 108.608 65.6038 108.372 65.9532 108.372H90.1875C90.5369 108.372 90.8429 108.608 90.9342 108.947L96.0672 128.056C96.1028 128.145 96.1221 128.242 96.1221 128.344C96.1224 128.774 95.7764 129.122 95.3489 129.122ZM61.8075 127.566H94.3339L89.5956 109.928H66.5456L61.8075 127.566Z" fill="white"/>
<path d="M110.555 134.05H45.5859C45.1587 134.05 44.8125 133.701 44.8125 133.272V128.344C44.8125 127.914 45.1587 127.565 45.5859 127.565H110.555C110.982 127.565 111.328 127.914 111.328 128.344V133.272C111.328 133.701 110.982 134.05 110.555 134.05ZM46.3594 132.494H109.781V129.122H46.3594V132.494Z" fill="white"/>
<path d="M78.0703 104.741C76.3644 104.741 74.9766 103.344 74.9766 101.628C74.9766 99.9118 76.3644 98.5156 78.0703 98.5156C79.7762 98.5156 81.164 99.9118 81.164 101.628C81.164 103.344 79.7762 104.741 78.0703 104.741ZM78.0703 100.072C77.203 100.072 76.5234 100.756 76.5234 101.628C76.5234 102.501 77.203 103.184 78.0703 103.184C78.9376 103.184 79.6172 102.501 79.6172 101.628C79.6172 100.756 78.9376 100.072 78.0703 100.072Z" fill="#FF4D40"/>
<path d="M18.7734 59.6094C18.3462 59.6094 18 59.261 18 58.8312V29.5219C18 25.3039 21.284 22 25.4766 22H42.2344C42.6616 22 43.0078 22.3483 43.0078 22.7781C43.0078 23.2079 42.6616 23.5563 42.2344 23.5563H25.4766C22.1516 23.5563 19.5469 26.1767 19.5469 29.5219V58.8312C19.5469 59.261 19.2006 59.6094 18.7734 59.6094Z" fill="white"/>
<path d="M137.367 42.75C136.94 42.75 136.594 42.4017 136.594 41.9719V29.5219C136.594 26.1767 133.989 23.5562 130.664 23.5562C130.237 23.5562 129.891 23.2079 129.891 22.7781C129.891 22.3483 130.237 22 130.664 22C134.857 22 138.141 25.3039 138.141 29.5219V41.9719C138.141 42.4017 137.794 42.75 137.367 42.75Z" fill="white"/>
<path d="M78.0703 85.5469C78.0007 85.5469 77.9306 85.5375 77.8623 85.5184L60.331 80.5902C59.9969 80.4963 59.7656 80.19 59.7656 79.8409V57.794C59.7656 57.5526 59.877 57.3246 60.0673 57.1775C60.2575 57.0304 60.5053 56.9801 60.7371 57.0421L78.2683 61.7109C78.6076 61.8011 78.844 62.11 78.844 62.463V84.7693C78.844 85.0126 78.7308 85.2419 78.538 85.3892C78.4019 85.4924 78.2374 85.5469 78.0703 85.5469ZM61.3125 79.25L77.2969 83.7435V63.0614L61.3125 58.8046V79.25Z" fill="#FF4D40"/>
<path d="M78.0703 85.5471C77.9035 85.5471 77.7388 85.4926 77.6029 85.3889C77.4101 85.2418 77.2969 85.0125 77.2969 84.769V62.4627C77.2969 62.1097 77.5333 61.8008 77.8723 61.7105L95.4036 57.0418C95.6348 56.9795 95.8826 57.0299 96.0733 57.1772C96.2634 57.3245 96.375 57.5522 96.375 57.7937V79.8406C96.375 80.1897 96.144 80.496 95.8099 80.5899L78.2786 85.5181C78.21 85.5378 78.1399 85.5471 78.0703 85.5471ZM78.844 63.0616V83.7437L94.8281 79.2503V58.8048L78.844 63.0616Z" fill="#FF4D40"/>
<path d="M78.0703 63.2408C78.0038 63.2408 77.9373 63.2322 77.8723 63.2148L60.3411 58.5461C60.0044 58.4566 59.769 58.1516 59.7657 57.8014C59.7623 57.4513 59.9918 57.1418 60.3267 57.0456L65.7407 55.4893C65.875 55.4509 66.0174 55.4496 66.1524 55.4857L73.6788 57.5049L80.9063 55.3939V53.9033C80.9063 53.66 81.0192 53.4309 81.2118 53.2839C81.4044 53.1368 81.6542 53.0891 81.8867 53.1537L95.8086 57.0443C96.1453 57.1384 96.3771 57.4476 96.375 57.7988C96.373 58.15 96.1371 58.4566 95.7996 58.5463L78.2683 63.2151C78.2034 63.2322 78.1369 63.2408 78.0703 63.2408ZM63.4542 57.7654L78.0703 61.6578L92.6471 57.776L82.4532 54.9273V55.9785C82.4532 56.3245 82.2258 56.6293 81.8955 56.7258L73.9033 59.0602C73.7682 59.0998 73.6244 59.1011 73.4885 59.0648L65.9604 57.0451L63.4542 57.7654Z" fill="#FF4D40"/>
<path d="M73.6875 59.0907C73.6153 59.0907 73.5426 59.0806 73.472 59.0599L65.4798 56.7255C65.1493 56.629 64.9219 56.3245 64.9219 55.9782V45.8626C64.9219 45.6178 65.0363 45.3874 65.231 45.2404C65.4256 45.0933 65.6775 45.0471 65.9111 45.1154L73.9033 47.4497C74.2338 47.5462 74.4612 47.8507 74.4612 48.197V58.3126C74.4612 58.5575 74.3467 58.7878 74.1521 58.9349C74.0165 59.037 73.853 59.0907 73.6875 59.0907ZM66.4687 55.3939L72.9141 57.2764V48.7814L66.4687 46.8988V55.3939Z" fill="#FF4D40"/>
<path d="M73.6875 59.0907C73.522 59.0907 73.3585 59.037 73.2232 58.9348C73.0285 58.7877 72.9141 58.5574 72.9141 58.3126V48.1969C72.9141 47.8509 73.1415 47.5462 73.472 47.4497L81.4639 45.1153C81.6977 45.0471 81.9493 45.0935 82.1442 45.2403C82.3386 45.3874 82.4531 45.6177 82.4531 45.8626V55.9782C82.4531 56.3242 82.2257 56.629 81.8955 56.7254L73.9033 59.0598C73.8324 59.0806 73.7597 59.0907 73.6875 59.0907ZM74.4609 48.7813V57.2764L80.9062 55.3938V46.8985L74.4609 48.7813Z" fill="#FF4D40"/>
<path d="M73.6873 48.975C73.6146 48.975 73.5422 48.9646 73.4718 48.9441L65.4796 46.6097C65.145 46.5122 64.9166 46.2012 64.922 45.8508C64.9271 45.5001 65.1646 45.1967 65.502 45.109L73.4942 43.034C73.6208 43.001 73.7541 43.001 73.8807 43.034L81.8729 45.109C82.2104 45.1964 82.4475 45.5001 82.453 45.8508C82.4581 46.2012 82.2297 46.5119 81.8953 46.6097L73.9031 48.9441C73.8327 48.9646 73.76 48.975 73.6873 48.975ZM68.6203 45.9066L73.6873 47.3866L78.7544 45.9066L73.6873 44.591L68.6203 45.9066Z" fill="#FF4D40"/>
<path d="M103.078 76.4688H101.789C101.362 76.4688 101.016 76.1205 101.016 75.6907C101.016 75.2609 101.362 74.9126 101.789 74.9126H103.078C103.506 74.9126 103.852 75.2609 103.852 75.6907C103.852 76.1205 103.506 76.4688 103.078 76.4688ZM97.1487 76.4688H95.8596C95.4324 76.4688 95.0862 76.1205 95.0862 75.6907C95.0862 75.2609 95.4324 74.9126 95.8596 74.9126H97.1487C97.5759 74.9126 97.9221 75.2609 97.9221 75.6907C97.9221 76.1205 97.5759 76.4688 97.1487 76.4688ZM91.219 76.4688H89.93C89.5028 76.4688 89.1565 76.1205 89.1565 75.6907C89.1565 75.2609 89.5028 74.9126 89.93 74.9126H91.219C91.6462 74.9126 91.9925 75.2609 91.9925 75.6907C91.9925 76.1205 91.6462 76.4688 91.219 76.4688ZM85.2893 76.4688H84.0003C83.5731 76.4688 83.2268 76.1205 83.2268 75.6907C83.2268 75.2609 83.5731 74.9126 84.0003 74.9126H85.2893C85.7165 74.9126 86.0628 75.2609 86.0628 75.6907C86.0628 76.1205 85.7165 76.4688 85.2893 76.4688ZM79.3596 76.4688H78.0706C77.6434 76.4688 77.2971 76.1205 77.2971 75.6907C77.2971 75.2609 77.6434 74.9126 78.0706 74.9126H79.3596C79.7868 74.9126 80.1331 75.2609 80.1331 75.6907C80.1331 76.1205 79.7868 76.4688 79.3596 76.4688ZM73.4297 76.4688H72.1406C71.7134 76.4688 71.3672 76.1205 71.3672 75.6907C71.3672 75.2609 71.7134 74.9126 72.1406 74.9126H73.4297C73.8569 74.9126 74.2031 75.2609 74.2031 75.6907C74.2031 76.1205 73.8569 76.4688 73.4297 76.4688ZM67.5 76.4688H66.2109C65.7837 76.4688 65.4375 76.1205 65.4375 75.6907C65.4375 75.2609 65.7837 74.9126 66.2109 74.9126H67.5C67.9272 74.9126 68.2734 75.2609 68.2734 75.6907C68.2734 76.1205 67.9272 76.4688 67.5 76.4688ZM61.5703 76.4688H60.2813C59.8541 76.4688 59.5078 76.1205 59.5078 75.6907C59.5078 75.2609 59.8541 74.9126 60.2813 74.9126H61.5703C61.9975 74.9126 62.3438 75.2609 62.3438 75.6907C62.3438 76.1205 61.9975 76.4688 61.5703 76.4688ZM55.6406 76.4688H54.3516C53.9244 76.4688 53.5781 76.1205 53.5781 75.6907C53.5781 75.2609 53.9244 74.9126 54.3516 74.9126H55.6406C56.0678 74.9126 56.4141 75.2609 56.4141 75.6907C56.4141 76.1205 56.0678 76.4688 55.6406 76.4688ZM49.7109 76.4688H48.4219C47.9947 76.4688 47.6484 76.1205 47.6484 75.6907C47.6484 75.2609 47.9947 74.9126 48.4219 74.9126H49.7109C50.1381 74.9126 50.4844 75.2609 50.4844 75.6907C50.4844 76.1205 50.1381 76.4688 49.7109 76.4688Z" fill="white"/>
<path d="M103.078 70.7623H101.789C101.362 70.7623 101.016 70.414 101.016 69.9842C101.016 69.5544 101.362 69.2061 101.789 69.2061H103.078C103.506 69.2061 103.852 69.5544 103.852 69.9842C103.852 70.414 103.506 70.7623 103.078 70.7623ZM97.1487 70.7623H95.8596C95.4324 70.7623 95.0862 70.414 95.0862 69.9842C95.0862 69.5544 95.4324 69.2061 95.8596 69.2061H97.1487C97.5759 69.2061 97.9221 69.5544 97.9221 69.9842C97.9221 70.414 97.5759 70.7623 97.1487 70.7623ZM91.219 70.7623H89.93C89.5028 70.7623 89.1565 70.414 89.1565 69.9842C89.1565 69.5544 89.5028 69.2061 89.93 69.2061H91.219C91.6462 69.2061 91.9925 69.5544 91.9925 69.9842C91.9925 70.414 91.6462 70.7623 91.219 70.7623ZM85.2893 70.7623H84.0003C83.5731 70.7623 83.2268 70.414 83.2268 69.9842C83.2268 69.5544 83.5731 69.2061 84.0003 69.2061H85.2893C85.7165 69.2061 86.0628 69.5544 86.0628 69.9842C86.0628 70.414 85.7165 70.7623 85.2893 70.7623ZM79.3596 70.7623H78.0706C77.6434 70.7623 77.2971 70.414 77.2971 69.9842C77.2971 69.5544 77.6434 69.2061 78.0706 69.2061H79.3596C79.7868 69.2061 80.1331 69.5544 80.1331 69.9842C80.1331 70.414 79.7868 70.7623 79.3596 70.7623ZM73.4297 70.7623H72.1406C71.7134 70.7623 71.3672 70.414 71.3672 69.9842C71.3672 69.5544 71.7134 69.2061 72.1406 69.2061H73.4297C73.8569 69.2061 74.2031 69.5544 74.2031 69.9842C74.2031 70.414 73.8569 70.7623 73.4297 70.7623ZM67.5 70.7623H66.2109C65.7837 70.7623 65.4375 70.414 65.4375 69.9842C65.4375 69.5544 65.7837 69.2061 66.2109 69.2061H67.5C67.9272 69.2061 68.2734 69.5544 68.2734 69.9842C68.2734 70.414 67.9272 70.7623 67.5 70.7623ZM61.5703 70.7623H60.2813C59.8541 70.7623 59.5078 70.414 59.5078 69.9842C59.5078 69.5544 59.8541 69.2061 60.2813 69.2061H61.5703C61.9975 69.2061 62.3438 69.5544 62.3438 69.9842C62.3438 70.414 61.9975 70.7623 61.5703 70.7623ZM55.6406 70.7623H54.3516C53.9244 70.7623 53.5781 70.414 53.5781 69.9842C53.5781 69.5544 53.9244 69.2061 54.3516 69.2061H55.6406C56.0678 69.2061 56.4141 69.5544 56.4141 69.9842C56.4141 70.414 56.0678 70.7623 55.6406 70.7623ZM49.7109 70.7623H48.4219C47.9947 70.7623 47.6484 70.414 47.6484 69.9842C47.6484 69.5544 47.9947 69.2061 48.4219 69.2061H49.7109C50.1381 69.2061 50.4844 69.5544 50.4844 69.9842C50.4844 70.414 50.1381 70.7623 49.7109 70.7623Z" fill="white"/>
</svg>
