<svg width="157" height="157" viewBox="0 0 157 157" fill="none" xmlns="http://www.w3.org/2000/svg">
<path d="M118.569 131.906H108.948C108.547 131.906 108.222 131.578 108.222 131.174C108.222 130.77 108.547 130.443 108.948 130.443H118.569C121.045 130.443 123.059 128.415 123.059 125.921V121.4H26.4529V125.921C26.4529 128.415 28.4698 130.443 30.9489 130.443H96.8389C97.2402 130.443 97.5654 130.77 97.5654 131.174C97.5654 131.578 97.2402 131.906 96.8389 131.906H30.9491C27.6687 131.906 25 129.221 25 125.921V120.669C25 120.265 25.3253 119.938 25.7266 119.938H123.785C124.187 119.938 124.512 120.265 124.512 120.669V125.921C124.512 129.221 121.846 131.906 118.569 131.906Z" fill="white"/>
<path d="M116.663 121.4H32.8555C32.4542 121.4 32.1289 121.073 32.1289 120.669V120.551C32.1289 120.147 32.4542 119.82 32.8555 119.82C33.0017 119.82 33.1379 119.863 33.2519 119.938H115.937V108.966L105.127 108.966L97.5077 113.725C97.2839 113.865 97.0022 113.871 96.7712 113.742C96.5409 113.613 96.398 113.369 96.398 113.103V109.189C96.398 108.785 96.7232 108.458 97.1245 108.458C97.5258 108.458 97.8511 108.785 97.8511 109.189V111.789L104.536 107.613C104.652 107.542 104.784 107.504 104.92 107.504H116.435L116.643 107.497C116.838 107.491 117.029 107.566 117.17 107.704C117.311 107.841 117.39 108.031 117.39 108.228V120.669C117.39 121.073 117.065 121.4 116.663 121.4ZM32.8555 109.095C32.4542 109.095 32.1289 108.767 32.1289 108.363V70.8372C32.1289 70.4333 32.4542 70.106 32.8555 70.106H116.663C117.065 70.106 117.39 70.4333 117.39 70.8372V85.0483C117.39 85.4522 117.065 85.7796 116.663 85.7796H107.4C105.728 85.7796 104.291 86.9837 103.982 88.6429C103.917 88.9885 103.617 89.2391 103.268 89.2391H96.0734C94.156 89.2391 92.5964 90.8076 92.5964 92.7355V100.473C92.5964 100.877 92.2711 101.205 91.8698 101.205C91.4685 101.205 91.1432 100.877 91.1432 100.473V92.7355C91.1432 90.0011 93.3549 87.7766 96.0734 87.7766H102.703C103.348 85.7396 105.235 84.3171 107.4 84.3171H115.937V71.5685H33.582V108.363C33.582 108.767 33.2568 109.095 32.8555 109.095Z" fill="white"/>
<path d="M112.251 121.401H50.648C50.2467 121.401 49.9214 121.073 49.9214 120.669C49.9214 120.266 50.2467 119.938 50.648 119.938H111.524V108.966H105.127L97.5078 113.725C97.2841 113.865 97.0024 113.872 96.7714 113.742C96.541 113.613 96.3981 113.369 96.3981 113.103V108.966H96.0736C93.3548 108.966 91.1434 106.742 91.1434 104.007V92.7354C91.1434 90.001 93.3551 87.7766 96.0736 87.7766H96.4204C96.8217 87.7766 97.147 88.1039 97.147 88.5078C97.147 88.9117 96.8217 89.2391 96.4204 89.2391H96.0736C94.1562 89.2391 92.5965 90.8076 92.5965 92.7354V104.007C92.5965 105.935 94.1562 107.504 96.0736 107.504H97.1247C97.526 107.504 97.8513 107.831 97.8513 108.235V111.789L104.537 107.614C104.652 107.542 104.784 107.504 104.92 107.504H112.251C112.652 107.504 112.977 107.831 112.977 108.235V120.669C112.977 121.073 112.652 121.401 112.251 121.401ZM38.5386 121.401H37.2686C36.8672 121.401 36.542 121.073 36.542 120.669V75.5384C36.542 75.1345 36.8672 74.8071 37.2686 74.8071H112.251C112.652 74.8071 112.977 75.1345 112.977 75.5384V85.0485C112.977 85.4524 112.652 85.7798 112.251 85.7798H107.4C107.244 85.78 107.086 85.7907 106.933 85.8117C106.536 85.8661 106.169 85.5855 106.115 85.1855C106.061 84.785 106.34 84.417 106.737 84.3626C106.955 84.3329 107.177 84.3175 107.399 84.3173H111.523V76.2696H37.9951V119.938H38.5386C38.9399 119.938 39.2651 120.266 39.2651 120.669C39.2651 121.073 38.9399 121.401 38.5386 121.401Z" fill="white"/>
<path d="M76.1559 94.7481H44.749C44.3477 94.7481 44.0225 94.4208 44.0225 94.0169C44.0225 93.613 44.3477 93.2856 44.749 93.2856H76.1559C76.5572 93.2856 76.8825 93.613 76.8825 94.0169C76.8825 94.4208 76.5572 94.7481 76.1559 94.7481Z" fill="white"/>
<path d="M76.1561 98.2765H60.4492C60.0479 98.2765 59.7227 97.9491 59.7227 97.5452C59.7227 97.1413 60.0479 96.814 60.4492 96.814H76.1561C76.5574 96.814 76.8826 97.1413 76.8826 97.5452C76.8826 97.9491 76.5574 98.2765 76.1561 98.2765Z" fill="white"/>
<path d="M65.3844 101.801H44.749C44.3477 101.801 44.0225 101.474 44.0225 101.07C44.0225 100.666 44.3477 100.339 44.749 100.339H65.3844C65.7857 100.339 66.1109 100.666 66.1109 101.07C66.1109 101.474 65.7857 101.801 65.3844 101.801Z" fill="white"/>
<path d="M76.1559 105.326H44.749C44.3477 105.326 44.0225 104.999 44.0225 104.595C44.0225 104.191 44.3477 103.864 44.749 103.864H76.1559C76.5572 103.864 76.8825 104.191 76.8825 104.595C76.8825 104.999 76.5572 105.326 76.1559 105.326Z" fill="white"/>
<path d="M76.1558 108.855H49.0313C48.6299 108.855 48.3047 108.527 48.3047 108.123C48.3047 107.719 48.6299 107.392 49.0313 107.392H76.1558C76.5571 107.392 76.8823 107.719 76.8823 108.123C76.8823 108.527 76.5571 108.855 76.1558 108.855Z" fill="white"/>
<path d="M65.3844 112.379H44.749C44.3477 112.379 44.0225 112.052 44.0225 111.648C44.0225 111.244 44.3477 110.917 44.749 110.917H65.3844C65.7857 110.917 66.1109 111.244 66.1109 111.648C66.1109 112.052 65.7857 112.379 65.3844 112.379Z" fill="white"/>
<path d="M76.1559 115.907H44.749C44.3477 115.907 44.0225 115.58 44.0225 115.176C44.0225 114.772 44.3477 114.445 44.749 114.445H76.1559C76.5572 114.445 76.8825 114.772 76.8825 115.176C76.8825 115.58 76.5572 115.907 76.1559 115.907Z" fill="white"/>
<path d="M74.0088 56.4373C67.1324 56.4373 61.5381 50.8055 61.5381 43.8827C61.5381 36.96 67.1324 31.3281 74.0088 31.3281C80.8886 31.3281 86.4858 36.96 86.4858 43.8827C86.4858 50.8055 80.8886 56.4373 74.0088 56.4373ZM74.0088 32.7909C67.9338 32.7909 62.9912 37.7668 62.9912 43.883C62.9912 49.9991 67.9338 54.975 74.0088 54.975C80.0875 54.975 85.0327 49.9991 85.0327 43.883C85.0327 37.7668 80.0875 32.7909 74.0088 32.7909Z" fill="#FF4D40"/>
<path d="M84.9955 41.628C81.5754 41.628 78.3848 40.2604 76.0116 37.777C75.7444 37.4977 75.7406 37.0572 76.0024 36.773C77.0297 35.6579 77.804 34.3653 78.3041 32.9313C78.3722 32.7363 78.5189 32.5793 78.7083 32.4994C78.898 32.4194 79.1118 32.4238 79.2981 32.5113C82.6664 34.0998 85.1396 37.085 86.0839 40.7013C86.1396 40.9146 86.0968 41.1418 85.9674 41.3194C85.8379 41.4971 85.6356 41.6068 85.4169 41.6176C85.2733 41.6244 85.1379 41.628 84.9955 41.628ZM77.534 37.232C79.4257 38.9924 81.8224 40.0117 84.3947 40.1494C83.4947 37.6164 81.7175 35.5053 79.3753 34.1929C78.9089 35.2922 78.2923 36.3099 77.534 37.232Z" fill="#FF4D40"/>
<path d="M67.9048 41.8086C66.0577 41.8086 64.2783 41.4118 62.6162 40.6294C62.2781 40.4702 62.1148 40.0792 62.2384 39.7251C63.9894 34.7028 68.7195 31.3286 74.0087 31.3286C75.851 31.3286 77.6304 31.7264 79.2971 32.5113C79.6352 32.6705 79.7984 33.0614 79.6749 33.4158C77.9234 38.4356 73.1935 41.8086 67.9048 41.8086ZM63.8528 39.5742C65.14 40.0868 66.5001 40.3461 67.9048 40.3461C72.3507 40.3461 76.3499 37.6481 78.0605 33.566C76.7696 33.0514 75.41 32.7909 74.0089 32.7909C69.5621 32.7909 65.5629 35.4897 63.8528 39.5742Z" fill="#FF4D40"/>
<path d="M97.4378 71.5687H50.1611C49.7598 71.5687 49.4346 71.2413 49.4346 70.8374V66.1857C49.4346 65.8852 49.6174 65.6151 49.8955 65.5052L66.1438 59.0826C66.4083 58.9783 66.7086 59.0382 66.9128 59.2359L73.5494 65.6551L80.6983 59.2181C80.9025 59.0343 81.1921 58.9812 81.4484 59.0823L97.7033 65.5049C97.9813 65.6148 98.1641 65.8849 98.1641 66.1855V70.8372C98.1644 71.2411 97.8391 71.5687 97.4378 71.5687ZM50.8877 70.1062H96.7113V66.6842L81.3338 60.6085L74.0164 67.1973C73.733 67.4522 73.3024 67.4444 73.0285 67.1795L66.2419 60.615L50.8879 66.6839V70.1062H50.8877Z" fill="#FF4D40"/>
<path d="M81.6144 68.8876H65.9795C65.7804 68.8876 65.5898 68.8052 65.4527 68.6599C65.3156 68.5147 65.2437 68.3189 65.2539 68.1186L65.6845 59.725C65.7053 59.3216 66.0478 59.0138 66.4476 59.0326C66.8484 59.0533 67.1565 59.3972 67.1357 59.8006L66.7443 67.4251H80.8626L80.6071 59.8469C80.5933 59.4433 80.9074 59.1052 81.3085 59.0913C81.7023 59.0711 82.0457 59.3935 82.0593 59.7972L82.3402 68.1312C82.3467 68.3294 82.2736 68.5217 82.1365 68.6643C81.9997 68.8069 81.8113 68.8876 81.6144 68.8876Z" fill="#FF4D40"/>
<path d="M76.1496 71.5686H71.4492C71.0479 71.5686 70.7227 71.2412 70.7227 70.8373V68.1565C70.7227 67.7526 71.0479 67.4253 71.4492 67.4253H76.1493C76.5507 67.4253 76.8759 67.7526 76.8759 68.1565V70.8373C76.8762 71.241 76.5507 71.5686 76.1496 71.5686ZM72.1758 70.1061H75.4228V68.8878H72.1758V70.1061Z" fill="#FF4D40"/>
<path d="M73.7151 67.2093H73.3562C73.1685 67.2093 72.9878 67.1362 72.8527 67.0053L67.8588 62.1732C67.7164 62.0355 67.6357 61.8449 67.6357 61.646V54.2445C67.6357 53.9859 67.7716 53.7465 67.9927 53.6149C68.2138 53.4833 68.4875 53.4791 68.713 53.6039C70.3235 54.4968 72.155 54.9687 74.0091 54.9687C75.7577 54.9687 77.4313 54.5694 78.983 53.7821C79.2084 53.6678 79.4761 53.6795 79.6911 53.8123C79.9059 53.9454 80.0367 54.1811 80.0367 54.4351V61.4459C80.0367 61.654 79.9486 61.8522 79.7943 61.9911L74.1998 67.0236C74.0661 67.143 73.8939 67.2093 73.7151 67.2093ZM69.0886 61.3345L73.5471 65.6484L78.5831 61.1183V55.5632C77.1309 56.1394 75.5972 56.431 74.0089 56.431C72.3131 56.431 70.6335 56.0819 69.0889 55.4145V61.3345H69.0886Z" fill="#FF4D40"/>
<path d="M90.9555 47.8596H85.3087C85.0808 47.8596 84.8657 47.7519 84.7284 47.5686C84.5911 47.3853 84.5473 47.1476 84.6102 46.927C84.8902 45.9432 85.0324 44.9192 85.0324 43.8828C85.0324 42.863 84.8921 41.8443 84.6153 40.8552C84.5536 40.6349 84.5981 40.3982 84.7354 40.2156C84.8728 40.033 85.0871 39.9258 85.3147 39.9258H90.9555C91.3568 39.9258 91.6821 40.2531 91.6821 40.657V47.1286C91.6821 47.5322 91.3568 47.8596 90.9555 47.8596ZM86.2341 46.3971H90.229V41.388H86.2372C86.4022 42.2107 86.4855 43.0463 86.4855 43.8826C86.4855 44.7316 86.401 45.574 86.2341 46.3971Z" fill="#FF4D40"/>
<path d="M62.7259 47.8598C62.7242 47.8598 62.7228 47.8598 62.7211 47.8598H57.0742C56.6729 47.8598 56.3477 47.5325 56.3477 47.1286V40.657C56.3477 40.2531 56.6729 39.9258 57.0742 39.9258H62.7145C62.9419 39.9258 63.1563 40.033 63.2936 40.2154C63.4309 40.3979 63.4755 40.6346 63.414 40.855C63.1374 41.8456 62.9972 42.8644 62.9972 43.8831C62.9972 44.8917 63.1321 45.8894 63.3977 46.8497C63.4331 46.9358 63.4525 47.0299 63.4525 47.1286C63.4525 47.5325 63.1272 47.8598 62.7259 47.8598ZM57.8008 46.3973H61.7957C61.6286 45.574 61.544 44.7316 61.544 43.8831C61.544 43.0472 61.6273 42.2117 61.7925 41.3885H57.8008V46.3973Z" fill="#FF4D40"/>
<path d="M59.1776 41.3884C59.1221 41.3884 59.0659 41.3821 59.0095 41.3684C58.6191 41.2753 58.3774 40.8812 58.4699 40.4885C59.4067 36.5088 61.3803 32.8872 64.0267 30.2902C66.8872 27.4837 70.3388 26 74.0087 26C77.7343 26 81.2087 27.4659 84.0563 30.2391C86.7155 32.8289 88.6714 36.4722 89.5627 40.4978C89.6501 40.8919 89.4033 41.2829 89.0117 41.3706C88.6203 41.4584 88.2319 41.2102 88.1447 40.8161C86.3755 32.8289 80.6948 27.4625 74.0087 27.4625C67.5445 27.4625 61.7361 32.9576 59.8838 40.8254C59.8049 41.1617 59.5067 41.3884 59.1776 41.3884Z" fill="#FF4D40"/>
<path d="M97.1249 113.834C97.0033 113.834 96.8817 113.804 96.7715 113.742C96.5412 113.613 96.3983 113.369 96.3983 113.103V108.966H96.0738C93.355 108.966 91.1436 106.741 91.1436 104.007V92.7352C91.1436 90.0008 93.3552 87.7764 96.0738 87.7764H103.268C103.484 87.7764 103.688 87.8729 103.827 88.0399C103.964 88.2071 104.022 88.4272 103.983 88.6407C103.947 88.8352 103.929 89.0429 103.929 89.2759V100.547C103.929 102.475 105.487 104.044 107.4 104.044H118.916C119.052 104.044 119.184 104.082 119.3 104.154L120.69 105.025C120.994 105.215 121.115 105.599 120.975 105.931C120.199 107.775 118.417 108.966 116.436 108.966H105.127L97.5082 113.724C97.3908 113.798 97.2578 113.834 97.1249 113.834ZM96.0738 89.2391C94.1564 89.2391 92.5967 90.8076 92.5967 92.7355V104.007C92.5967 105.935 94.1564 107.504 96.0738 107.504H97.1249C97.5262 107.504 97.8514 107.831 97.8514 108.235V111.789L104.537 107.614C104.652 107.542 104.785 107.504 104.92 107.504H116.436C117.625 107.504 118.713 106.893 119.349 105.908L118.708 105.506H107.4C104.685 105.506 102.476 103.282 102.476 100.548V89.2762C102.476 89.2637 102.476 89.2513 102.476 89.2391H96.0738Z" fill="white"/>
<path d="M126.71 110.376C126.577 110.376 126.444 110.339 126.327 110.266L118.708 105.507H107.4C104.685 105.507 102.476 103.283 102.476 100.548V89.2767C102.476 86.5421 104.685 84.3174 107.4 84.3174H127.761C130.48 84.3174 132.692 86.5421 132.692 89.2767V100.548C132.692 103.283 130.48 105.507 127.761 105.507H127.436V109.645C127.436 109.91 127.293 110.155 127.063 110.284C126.953 110.345 126.832 110.376 126.71 110.376ZM107.4 85.7799C105.486 85.7799 103.929 87.3487 103.929 89.2767V100.548C103.929 102.476 105.486 104.045 107.4 104.045H118.915C119.05 104.045 119.183 104.083 119.298 104.154L125.984 108.33V104.776C125.984 104.372 126.309 104.045 126.71 104.045H127.761C129.679 104.045 131.239 102.476 131.239 100.548V89.2767C131.239 87.3487 129.679 85.7799 127.761 85.7799H107.4Z" fill="#FF4D40"/>
<path d="M124.647 91.3873H110.52C110.118 91.3873 109.793 91.06 109.793 90.6561C109.793 90.2522 110.118 89.9248 110.52 89.9248H124.647C125.048 89.9248 125.373 90.2522 125.373 90.6561C125.373 91.06 125.048 91.3873 124.647 91.3873Z" fill="#FF4D40"/>
<path d="M124.647 97.1495H110.52C110.118 97.1495 109.793 96.8222 109.793 96.4183C109.793 96.0144 110.118 95.687 110.52 95.687H124.647C125.048 95.687 125.373 96.0144 125.373 96.4183C125.373 96.8222 125.048 97.1495 124.647 97.1495Z" fill="#FF4D40"/>
<path d="M74.759 128.822C73.1705 128.822 71.8779 127.521 71.8779 125.922C71.8779 124.323 73.1702 123.023 74.759 123.023C76.3477 123.023 77.6401 124.323 77.6401 125.922C77.6401 127.521 76.3477 128.822 74.759 128.822ZM74.759 124.485C73.9716 124.485 73.3311 125.13 73.3311 125.922C73.3311 126.714 73.9716 127.359 74.759 127.359C75.5463 127.359 76.1869 126.714 76.1869 125.922C76.1869 125.13 75.5463 124.485 74.759 124.485Z" fill="white"/>
</svg>
