<svg width="157" height="157" viewBox="0 0 157 157" fill="none" xmlns="http://www.w3.org/2000/svg">
<path d="M110.771 31.4932C110.771 28.4658 108.329 26 105.302 26H51.4932C48.4658 26 46.0244 28.4658 46 31.4932V92.8213C46.4883 92.8213 46.9766 92.8457 47.4648 92.8457V31.4932C47.4648 29.2715 49.2715 27.4893 51.4932 27.4648H105.302C107.523 27.4648 109.306 29.2715 109.33 31.4932V55.6875C109.33 56.1025 109.647 56.4199 110.062 56.4199C110.478 56.4199 110.795 56.1025 110.795 55.6875L110.771 31.4932Z" fill="white"/>
<path d="M81.7178 128.759C81.3027 128.759 80.9854 129.076 80.9854 129.491C80.9854 129.882 81.3027 130.224 81.7178 130.224C82.1328 130.224 82.4502 129.882 82.4502 129.491C82.4502 129.076 82.1328 128.759 81.7178 128.759Z" fill="white"/>
<path d="M76.835 128.759H51.4932C49.2715 128.759 47.4893 126.952 47.4648 124.73V89.8428C46.9766 89.5254 46.4883 89.1836 46 88.8906V124.73C46 127.758 48.4658 130.199 51.4932 130.224H76.835C77.2256 130.224 77.5674 129.906 77.5674 129.516V129.491C77.5674 129.076 77.25 128.759 76.835 128.759Z" fill="white"/>
<path d="M110.038 64.6963C109.623 64.6963 109.306 65.0381 109.306 65.4287V124.73C109.306 126.952 107.499 128.734 105.277 128.759H86.6006C86.1855 128.759 85.8682 129.076 85.8682 129.491C85.8682 129.882 86.1855 130.224 86.6006 130.224H105.302C108.329 130.224 110.795 127.758 110.771 124.73V65.4287C110.771 65.0381 110.453 64.6963 110.038 64.6963Z" fill="white"/>
<path d="M110.038 59.8135C109.623 59.8135 109.306 60.1553 109.306 60.5459C109.306 60.9609 109.623 61.2783 110.038 61.2783C110.453 61.2783 110.771 60.9609 110.771 60.5459C110.771 60.1553 110.453 59.8135 110.038 59.8135Z" fill="white"/>
<path d="M105.302 130.224H51.4932C48.4658 130.224 46.0244 127.758 46 124.73V121.508C46 121.093 46.3174 120.775 46.7324 120.775C47.1475 120.775 47.4648 121.093 47.4648 121.508V124.73C47.4648 126.952 49.2715 128.734 51.4932 128.759H105.302C107.523 128.759 109.306 126.952 109.33 124.73V111.962H47.4404C47.3428 112.255 47.0498 112.45 46.7568 112.45C46.3418 112.45 46.0244 112.108 46.0244 111.718V111.229C46.0244 111.034 46.0977 110.839 46.2441 110.717C46.3906 110.595 46.5615 110.497 46.7568 110.497H110.038C110.233 110.497 110.429 110.57 110.551 110.717C110.697 110.863 110.771 111.034 110.771 111.229V124.73C110.771 127.758 108.329 130.224 105.302 130.224ZM46.7568 117.357C46.3418 117.357 46.0244 117.016 46.0244 116.625C46.0244 116.21 46.3418 115.893 46.7568 115.893C47.1719 115.893 47.4893 116.21 47.4893 116.625C47.4893 117.016 47.1475 117.357 46.7568 117.357Z" fill="white"/>
<path d="M78.3975 124.56C77.2744 124.56 76.2002 124.12 75.4189 123.314C74.6133 122.509 74.1738 121.459 74.1738 120.336C74.1738 119.213 74.6133 118.139 75.4189 117.357C76.2246 116.552 77.2744 116.112 78.3975 116.112C80.7168 116.112 82.6211 118.017 82.6211 120.336C82.6211 121.459 82.1816 122.533 81.376 123.314C80.5947 124.12 79.5449 124.56 78.3975 124.56ZM78.3975 117.553C76.8838 117.553 75.6387 118.798 75.6387 120.312C75.6387 121.825 76.8838 123.07 78.3975 123.07C79.9111 123.07 81.1562 121.825 81.1562 120.312C81.1562 118.798 79.9111 117.577 78.3975 117.553Z" fill="#2E3138"/>
<path d="M100.956 39.5742H46.7568C46.3418 39.5742 46.0244 39.2568 46.0244 38.8418C46.0244 38.4268 46.3418 38.1094 46.7568 38.1094H100.956C101.347 38.1094 101.688 38.4268 101.688 38.8418C101.688 39.2568 101.347 39.5742 100.956 39.5742Z" fill="white"/>
<path d="M77.9529 71.2702C73.9846 71.2702 70.7559 68.0466 70.7559 64.0847C70.7559 60.124 73.9844 56.9019 77.9529 56.9019C81.918 56.9019 85.144 60.124 85.144 64.0847C85.144 68.0466 81.918 71.2702 77.9529 71.2702ZM77.9529 58.3641C74.7922 58.3641 72.2207 60.9303 72.2207 64.0844C72.2207 67.2403 74.792 69.8074 77.9529 69.8074C81.1103 69.8074 83.6792 67.24 83.6792 64.0844C83.6792 60.9303 81.1103 58.3641 77.9529 58.3641Z" fill="#2E3138"/>
<path d="M79.2441 82.7843H76.6609C76.2986 82.7843 75.9905 82.5196 75.9365 82.1615L75.2664 77.7158C74.6499 77.5951 74.0422 77.4328 73.4504 77.2302L70.6404 80.7468C70.4143 81.0293 70.0151 81.1044 69.7017 80.9245L67.4685 79.6377C67.1545 79.4569 67.0203 79.0737 67.1531 78.7371L68.8015 74.5495C68.3284 74.138 67.8833 73.6934 67.4712 73.2215L63.2742 74.8675C62.9373 74.9994 62.5532 74.8658 62.3723 74.5526L61.0811 72.3204C60.8997 72.0069 60.9753 71.6081 61.259 71.3827L64.7817 68.5815C64.5818 67.9926 64.4207 67.3856 64.3 66.767L59.8418 66.1008C59.4832 66.0472 59.2178 65.7398 59.2178 65.3776V62.7951C59.2178 62.4331 59.4829 62.1258 59.8416 62.0719L64.3 61.4033C64.4207 60.7839 64.5815 60.1777 64.7813 59.5908L61.259 56.7898C60.9756 56.5644 60.8999 56.1658 61.0811 55.8524L62.3723 53.6174C62.5535 53.3037 62.9375 53.1701 63.2749 53.3023L67.4719 54.9505C67.8838 54.4788 68.3289 54.0347 68.802 53.623L67.1536 49.4354C67.021 49.0988 67.1548 48.7161 67.4685 48.535L69.7017 47.2453C70.0154 47.064 70.4148 47.139 70.6409 47.4223L73.4512 50.9386C74.0435 50.7361 74.6511 50.5735 75.2671 50.4531L75.9373 46.0073C75.9912 45.6495 76.2991 45.3848 76.6616 45.3848H79.2451C79.6074 45.3848 79.9158 45.6497 79.9695 46.008L80.4888 49.4812C80.5483 49.8807 80.2727 50.2529 79.8728 50.3124C79.4727 50.3724 79.0999 50.0965 79.0403 49.6972L78.6145 46.8473H77.2925L76.6377 51.1909C76.5901 51.507 76.3423 51.7557 76.0259 51.8047C75.1521 51.9402 74.293 52.17 73.4724 52.4876C73.1736 52.6034 72.835 52.5118 72.635 52.2619L69.8897 48.8268L68.7478 49.4863L70.3586 53.5784C70.4758 53.876 70.3855 54.2153 70.136 54.4157C69.4473 54.9685 68.8181 55.5964 68.2659 56.2821C68.0652 56.5315 67.7258 56.6216 67.427 56.5044L63.3264 54.8939L62.6655 56.0379L66.106 58.7737C66.3562 58.9726 66.448 59.3109 66.333 59.6088C66.0205 60.4178 65.7922 61.276 65.6548 62.1599C65.6057 62.476 65.3567 62.7234 65.0398 62.771L60.6831 63.4242V64.747L65.0393 65.3979C65.3562 65.4451 65.6055 65.6926 65.6548 66.0087C65.792 66.8908 66.0203 67.7503 66.3333 68.5634C66.448 68.8613 66.356 69.1989 66.106 69.3978L62.6658 72.1334L63.3264 73.2754L67.4275 71.6669C67.7261 71.5501 68.0654 71.6403 68.2661 71.8894C68.8191 72.5761 69.4482 73.2042 70.1362 73.7563C70.3857 73.9567 70.4761 74.296 70.3589 74.5936L68.7483 78.6854L69.8897 79.3426L72.6355 75.9067C72.8352 75.6571 73.1743 75.5654 73.4729 75.6809C74.2925 75.9983 75.1516 76.2282 76.0261 76.3637C76.3425 76.4127 76.5903 76.6613 76.6379 76.9774L77.2927 81.3213H78.6145L79.2637 76.9782C79.3108 76.6618 79.5588 76.4127 79.8757 76.3637C80.7485 76.2282 81.6101 75.9983 82.4363 75.6802C82.7349 75.5656 83.0732 75.6571 83.2727 75.9071L86.0127 79.3421L87.1538 78.6849L85.543 74.5933C85.426 74.2957 85.5164 73.9564 85.7656 73.756C86.4504 73.2069 87.0818 72.5778 87.6428 71.8867C87.844 71.6391 88.1826 71.5508 88.4797 71.6669L92.5754 73.2751L93.2361 72.1332L89.7949 69.3946C89.5449 69.1955 89.4531 68.8569 89.5684 68.5588C89.8867 67.7381 90.1167 66.8801 90.2524 66.0085C90.3018 65.6926 90.551 65.4451 90.8677 65.3976L95.218 64.7441V63.4237L90.8677 62.7707C90.551 62.7232 90.3023 62.4758 90.2524 62.1599C90.1167 61.2877 89.8865 60.4297 89.5684 59.6093C89.4526 59.3112 89.5444 58.9726 89.7952 58.7732L93.2358 56.0376L92.5754 54.8959L88.4797 56.5037C88.1814 56.6209 87.8428 56.5307 87.6419 56.2826C87.0881 55.5981 86.4568 54.9697 85.7654 54.4147C85.5159 54.2144 85.4251 53.8751 85.5427 53.5774L87.2837 49.1546C87.4312 48.7787 87.8572 48.5935 88.2334 48.7414C88.6099 48.8892 88.7952 49.3135 88.647 49.6894L87.0986 53.6221C87.5735 54.0345 88.02 54.4791 88.4334 54.95L92.6262 53.3042C92.9631 53.1716 93.3469 53.3057 93.5281 53.6191L94.8196 55.8511C95.001 56.1646 94.9255 56.5634 94.6416 56.7889L91.1199 59.5891C91.3228 60.1806 91.4854 60.7873 91.606 61.4021L96.0586 62.0704C96.4172 62.1243 96.6824 62.4317 96.6824 62.7936V65.373C96.6824 65.7347 96.4172 66.0423 96.0586 66.0962L91.606 66.7651C91.4854 67.3795 91.3228 67.9865 91.1199 68.5781L94.6419 71.3812C94.9253 71.6067 95.001 72.0054 94.8196 72.3187L93.5281 74.5509C93.3472 74.8644 92.9634 74.9984 92.6262 74.8658L88.4326 73.2193C88.0166 73.6932 87.5708 74.1375 87.0986 74.548L88.7471 78.7354C88.8796 79.0725 88.7456 79.4554 88.4316 79.6363L86.1987 80.9228C85.8838 81.1036 85.4851 81.0283 85.2595 80.7451L82.4548 77.2285C81.8596 77.4313 81.2502 77.5939 80.6345 77.7146L79.9695 82.1598C79.915 82.5191 79.6067 82.7843 79.2441 82.7843Z" fill="#2E3138"/>
<path d="M83.1826 34.0322H73.6123C73.1973 34.0322 72.8799 33.7148 72.8799 33.2998C72.8799 32.8848 73.1973 32.5674 73.6123 32.5674H83.1826C83.5732 32.5674 83.915 32.8848 83.915 33.2998C83.915 33.7148 83.5976 34.0322 83.1826 34.0322Z" fill="white"/>
<path d="M99.9307 91.3975H56.9375C56.5225 91.3975 56.2051 91.0801 56.2051 90.665C56.2051 90.2744 56.5225 89.9326 56.9375 89.9326H99.9307C100.346 89.9326 100.663 90.2744 100.663 90.665C100.663 91.0801 100.321 91.3975 99.9307 91.3975Z" fill="white"/>
<path d="M99.9307 98.0625H56.9375C56.5225 98.0625 56.2051 97.7207 56.2051 97.3301C56.2051 96.9395 56.5225 96.5977 56.9375 96.5977H99.9307C100.346 96.5977 100.663 96.9395 100.663 97.3301C100.663 97.7207 100.321 98.0625 99.9307 98.0625Z" fill="white"/>
<path d="M99.9307 104.703H56.9375C56.5225 104.703 56.2051 104.361 56.2051 103.971C56.2051 103.58 56.5225 103.238 56.9375 103.238H99.9307C100.346 103.238 100.663 103.58 100.663 103.971C100.663 104.361 100.321 104.703 99.9307 104.703Z" fill="white"/>
</svg>
