<svg width="157" height="157" viewBox="0 0 157 157" fill="none" xmlns="http://www.w3.org/2000/svg">
<path d="M107.867 137.917C107.66 137.917 107.458 137.834 107.312 137.689L96.9503 127.42C96.8011 127.275 96.7197 127.078 96.7197 126.87C96.7197 126.663 96.8011 126.468 96.9503 126.32C97.2461 126.027 97.764 126.027 98.0597 126.32L107.867 136.039L136.087 108.068L111.562 83.7648C111.462 83.6688 111.392 83.5443 111.358 83.412C111.311 83.2382 111.329 83.0515 111.405 82.8907C111.442 82.8077 111.497 82.7299 111.562 82.665C111.669 82.5587 111.803 82.4863 111.949 82.4549C112.209 82.4004 112.483 82.4783 112.672 82.665L137.752 107.518C137.901 107.666 137.983 107.861 137.983 108.068C137.983 108.278 137.901 108.473 137.755 108.621L108.421 137.689C108.275 137.834 108.073 137.917 107.867 137.917ZM93.8045 123.981C93.5925 123.981 93.3962 123.9 93.2496 123.753C92.9434 123.449 92.9434 122.956 93.2496 122.653C93.5454 122.36 94.0612 122.357 94.3593 122.653C94.6655 122.956 94.6655 123.449 94.3593 123.753C94.2101 123.9 94.0138 123.981 93.8045 123.981ZM90.1009 120.313C89.8915 120.313 89.6952 120.233 89.5463 120.085L65.5545 96.3107C63.0394 96.8087 60.4562 97.0627 57.8809 97.0627H57.8757C55.3894 97.0627 52.89 96.8269 50.4507 96.3572C47.988 95.8851 45.5645 95.1744 43.2456 94.2435C38.4221 92.3034 34.0959 89.458 30.3874 85.7798C28.0084 83.425 25.9539 80.7843 24.2736 77.9312C22.6457 75.1636 21.3712 72.1964 20.4839 69.1098C20.3662 68.6948 20.607 68.2642 21.0257 68.1475C21.434 68.0334 21.8789 68.2798 21.9941 68.6818C23.7214 74.6993 27.006 80.2292 31.4971 84.6801C38.5425 91.6599 47.9095 95.5061 57.8809 95.5061C60.4903 95.5061 63.1022 95.2364 65.6487 94.7021C65.9026 94.6476 66.18 94.728 66.3659 94.9122L90.656 118.985C90.8052 119.13 90.8863 119.327 90.8863 119.535C90.8863 119.742 90.8052 119.937 90.656 120.085C90.5094 120.233 90.3131 120.313 90.1009 120.313ZM108.416 80.3254C108.207 80.3254 108.008 80.245 107.861 80.0972C107.712 79.9519 107.631 79.7548 107.631 79.5473C107.631 79.3398 107.712 79.1453 107.861 78.9974C108.157 78.7044 108.675 78.7044 108.971 78.9974C109.277 79.3009 109.277 79.7937 108.971 80.0972C108.822 80.245 108.626 80.3254 108.416 80.3254ZM49.5766 77.4801C49.3672 77.4801 49.1683 77.3997 49.0218 77.2544L21.5622 50.0408C20.9027 52.8187 20.5703 55.6744 20.5703 58.5328C20.5703 58.5717 20.5703 58.6132 20.5703 58.6521C20.5703 59.0826 20.2196 59.4328 19.7878 59.4328C19.3533 59.4328 19 59.0852 19 58.6573V58.5328C19 55.0753 19.4659 51.6386 20.3845 48.3186C20.4578 48.0514 20.6698 47.8413 20.9393 47.7713C21.2089 47.7013 21.4994 47.7791 21.6957 47.9736L49.5766 75.6022L75.102 50.3002L73.2726 48.4898C72.9664 48.1863 72.9664 47.6909 73.2726 47.3874C73.571 47.0943 74.0866 47.0943 74.3849 47.3874L76.7692 49.7503C76.9157 49.8956 76.9995 50.0953 76.9995 50.3002C76.9995 50.5051 76.9157 50.7074 76.7692 50.8527L50.1314 77.2544C49.9823 77.3997 49.786 77.4801 49.5766 77.4801ZM104.713 76.6579C104.503 76.6579 104.307 76.5775 104.158 76.4296L94.587 66.9443C94.3986 66.7575 94.3174 66.4904 94.3747 66.2336C94.9141 63.7047 95.1887 61.1135 95.1887 58.5302C95.1861 48.6506 91.3074 39.3675 84.2619 32.3878C77.2167 25.4054 67.8446 21.5588 57.8731 21.5563C54.9916 21.5563 52.11 21.8883 49.3096 22.5393L66.9809 40.0523C67.1301 40.2001 67.2112 40.3947 67.2112 40.6022C67.2112 40.8097 67.1301 41.0042 66.9809 41.152C66.6852 41.4477 66.167 41.4477 65.8712 41.152L47.2237 22.6716C47.0248 22.477 46.9489 22.1891 47.0196 21.922C47.0903 21.6548 47.3023 21.4447 47.5718 21.3721C50.9245 20.4617 54.3896 20 57.8731 20C60.362 20 62.8588 20.2386 65.3007 20.7055C67.7634 21.1776 70.1896 21.8908 72.5084 22.822C77.3345 24.7595 81.6633 27.6101 85.3719 31.288C89.083 34.9633 91.9567 39.2508 93.9118 44.0337C94.854 46.3292 95.5711 48.731 96.0474 51.1717C96.5185 53.5891 96.7593 56.0661 96.7593 58.5302C96.7593 61.0772 96.5028 63.6373 95.995 66.1402L105.27 75.3299C105.574 75.6334 105.574 76.1262 105.27 76.4296C105.121 76.5775 104.925 76.6579 104.713 76.6579ZM20.1568 64.6021C19.7695 64.6021 19.4345 64.3142 19.3795 63.9329C19.3507 63.728 19.403 63.5231 19.5313 63.3571C19.6569 63.1911 19.8401 63.0822 20.0495 63.0537C20.4709 62.994 20.8765 63.2975 20.9341 63.7177C20.9655 63.9226 20.9105 64.1275 20.7849 64.2935C20.6593 64.4595 20.4735 64.5658 20.2667 64.5943C20.2301 64.5995 20.1934 64.6021 20.1568 64.6021ZM70.1268 45.0478C69.9174 45.0478 69.7211 44.9674 69.5719 44.8196C69.2657 44.5161 69.2657 44.0233 69.5719 43.7198C69.8677 43.4268 70.3859 43.4268 70.6816 43.7198C70.9878 44.0233 70.9878 44.5161 70.6816 44.8196C70.535 44.9674 70.3361 45.0478 70.1268 45.0478Z" fill="white"/>
<path d="M117.592 128.276C117.382 128.276 117.186 128.195 117.037 128.048L105.244 116.36C105.095 116.215 105.014 116.018 105.014 115.81C105.014 115.603 105.095 115.408 105.244 115.26C105.54 114.965 106.058 114.965 106.354 115.26L117.592 126.398L126.359 117.712L94.2493 85.8839L85.4818 94.573L98.9524 107.923C99.0126 107.985 99.0623 108.053 99.1016 108.131C99.2505 108.429 99.1906 108.789 98.9524 109.025C98.6541 109.318 98.1385 109.318 97.8427 109.025L83.8146 95.1254C83.511 94.822 83.511 94.3266 83.8146 94.0231L93.6945 84.2343C93.985 83.944 94.5111 83.944 94.8042 84.2343L128.027 117.162C128.176 117.31 128.257 117.504 128.257 117.712C128.257 117.919 128.176 118.117 128.027 118.264L118.147 128.048C118 128.196 117.801 128.276 117.592 128.276ZM102.098 112.921C101.889 112.921 101.69 112.84 101.543 112.693C101.237 112.389 101.237 111.897 101.543 111.593C101.839 111.297 102.357 111.297 102.653 111.593C102.959 111.897 102.959 112.389 102.653 112.693C102.504 112.84 102.308 112.921 102.098 112.921Z" fill="#FF4D40"/>
<path d="M45.7586 52.627L45.7533 52.6141V52.627C44.1071 52.627 42.5604 51.9916 41.3957 50.8373C40.2311 49.6831 39.5898 48.1476 39.5898 46.5162C39.5898 44.8847 40.2311 43.3492 41.3957 42.195C41.3957 42.1924 41.3957 42.1924 41.3957 42.1924C42.5577 41.0407 44.1071 40.4053 45.7507 40.4053H45.7586C47.4048 40.4053 48.9515 41.0407 50.1162 42.195C51.2808 43.3492 51.922 44.8847 51.922 46.5162C51.922 48.1476 51.2808 49.6831 50.1162 50.8373C48.9515 51.9916 47.4048 52.627 45.7586 52.627ZM45.7559 41.9615C44.5259 41.9615 43.3717 42.4362 42.5054 43.2947C41.6391 44.1558 41.1602 45.2997 41.1602 46.5162C41.1602 47.7326 41.6391 48.8765 42.5054 49.735C43.3717 50.5961 44.5259 51.0682 45.7559 51.0708C46.9834 51.0682 48.1376 50.5961 49.0065 49.735C49.8728 48.8765 50.3491 47.7326 50.3517 46.5162C50.3491 45.2997 49.8728 44.1558 49.0065 43.2947C48.1376 42.4362 46.9834 41.9615 45.7559 41.9615Z" fill="#FF4D40"/>
<path d="M42.7643 62.0554C42.5549 62.0554 42.3586 61.9749 42.2121 61.8271L30.3065 50.0281C30.1599 49.8829 30.0762 49.6832 30.0762 49.4783V49.4757C30.0762 49.3434 30.1102 49.2111 30.173 49.097L36.5616 37.7104C36.6322 37.5859 36.7395 37.477 36.8678 37.407L48.3023 31.1093C48.4305 31.0237 48.5875 30.9771 48.7419 30.9771H48.7446C48.9513 30.9771 49.1555 31.0601 49.2994 31.2027L61.205 43.0069C61.451 43.2507 61.506 43.632 61.3359 43.9328L54.9499 55.3246C54.8793 55.4491 54.7693 55.558 54.6437 55.628L43.1464 61.9568C43.0312 62.0216 42.8978 62.0554 42.7643 62.0554ZM31.8323 49.3434L42.9004 60.3124L53.6858 54.3753L59.6766 43.6916L48.6111 32.7201L37.8257 38.6597L31.8323 49.3434Z" fill="#FF4D40"/>
<path d="M126.431 108.618C126.222 108.618 126.025 108.535 125.876 108.39L76.4845 59.4457C76.1809 59.1396 76.1809 58.6468 76.4845 58.3434C76.7829 58.0503 77.2985 58.0503 77.5968 58.3434L126.986 107.287C127.292 107.591 127.292 108.086 126.986 108.39C126.839 108.535 126.64 108.618 126.431 108.618Z" fill="white"/>
<path d="M106.846 128.154C106.634 128.154 106.438 128.073 106.291 127.926L56.9025 78.9818C56.5963 78.6783 56.5963 78.1855 56.9025 77.8795C57.0517 77.7342 57.248 77.6538 57.4574 77.6538C57.6693 77.6538 57.8656 77.7342 58.0148 77.8795L107.401 126.826C107.707 127.13 107.707 127.622 107.401 127.926C107.252 128.074 107.056 128.154 106.846 128.154Z" fill="white"/>
<path d="M57.1745 134.753H54.7143C54.327 134.753 53.9946 134.467 53.937 134.091L53.3063 129.941C52.7567 129.832 52.2097 129.687 51.681 129.511L49.0455 132.789C48.81 133.082 48.3677 133.165 48.0379 132.979L45.9075 131.76C45.5673 131.565 45.4259 131.16 45.5673 130.8L47.1166 126.896C46.7005 126.531 46.3001 126.136 45.9258 125.719L41.9843 127.254C41.631 127.389 41.2044 127.241 41.016 126.917L39.7911 124.803C39.5948 124.469 39.676 124.048 39.9822 123.807L43.2929 121.195C43.1123 120.671 42.9684 120.132 42.8559 119.585L38.6684 118.965C38.281 118.905 38.001 118.583 38.001 118.194V115.751C38.001 115.369 38.2889 115.038 38.6684 114.98L42.8559 114.36C42.9658 113.813 43.1123 113.271 43.2903 112.747L39.9822 110.138C39.676 109.894 39.5948 109.476 39.7911 109.139L41.016 107.028C41.2044 106.701 41.631 106.553 41.9843 106.69L45.9284 108.226C46.2975 107.811 46.6979 107.414 47.1166 107.046L45.5673 103.139C45.4259 102.776 45.5673 102.374 45.9075 102.18L48.0379 100.961C48.365 100.772 48.81 100.857 49.0455 101.15L51.681 104.431C52.2071 104.254 52.7541 104.109 53.3063 104L53.937 99.8531C53.9946 99.4692 54.3218 99.1914 54.7143 99.1914H57.1745C57.5671 99.1914 57.8942 99.4689 57.9518 99.8531L58.5773 103.998C59.1295 104.109 59.6765 104.254 60.2052 104.431L62.8381 101.15C63.0763 100.857 63.5186 100.771 63.8457 100.961L65.9787 102.18C66.3163 102.374 66.4603 102.779 66.3163 103.139L64.767 107.046C65.1883 107.417 65.5888 107.813 65.9552 108.226L69.8966 106.69C70.25 106.553 70.6713 106.701 70.8624 107.025L71.9982 108.97H72.0009C72.2181 109.341 72.0898 109.819 71.713 110.034C71.5952 110.104 71.4591 110.14 71.3204 110.14C71.0456 110.14 70.7943 110 70.6504 109.767L70.6425 109.751L69.8417 108.384L66.0049 109.878C65.6908 110 65.3166 109.904 65.1046 109.642C64.5838 108.999 63.9896 108.407 63.3354 107.886C63.0684 107.671 62.9742 107.313 63.0998 106.994L64.6073 103.194L63.6468 102.644L61.082 105.837C60.87 106.099 60.5009 106.198 60.1843 106.079C59.4122 105.78 58.5982 105.565 57.766 105.435C57.4231 105.383 57.1588 105.121 57.1091 104.782L56.4993 100.746H55.3896L54.7745 104.784C54.7248 105.121 54.4605 105.383 54.1202 105.435C53.288 105.565 52.474 105.783 51.6993 106.078C51.3827 106.198 51.0136 106.099 50.8016 105.837L48.2368 102.644L47.2763 103.194L48.7838 106.996C48.9094 107.313 48.8152 107.671 48.5482 107.886C47.8992 108.405 47.3025 108.996 46.7738 109.644C46.5618 109.901 46.1902 110 45.8761 109.878L42.0393 108.384L41.4871 109.336L44.7114 111.877C44.981 112.09 45.0779 112.448 44.9548 112.767C44.6539 113.538 44.4366 114.344 44.3058 115.164C44.2534 115.504 43.9891 115.765 43.6462 115.815L39.5713 116.419V117.522L43.6462 118.129C43.9891 118.178 44.2534 118.44 44.3058 118.777C44.4366 119.599 44.6539 120.406 44.9548 121.176C45.0779 121.495 44.981 121.853 44.7114 122.066L41.4871 124.608L42.0393 125.56L45.8761 124.066C46.1875 123.941 46.5618 124.04 46.7738 124.299C47.3025 124.948 47.8992 125.539 48.5456 126.053C48.8152 126.268 48.9094 126.626 48.7838 126.945L47.2763 130.744L48.2368 131.294L50.8016 128.107C51.011 127.845 51.3827 127.743 51.6967 127.863C52.4793 128.159 53.2932 128.374 54.1202 128.504C54.4605 128.556 54.7248 128.817 54.7745 129.157L55.3896 133.196H56.4993L57.1091 129.157C57.1614 128.817 57.4231 128.556 57.766 128.504C58.5878 128.377 59.4043 128.161 60.1869 127.863C60.5036 127.743 60.8726 127.845 61.082 128.107L63.6468 131.294L64.6073 130.744L63.0998 126.945C62.9742 126.626 63.0684 126.268 63.338 126.053C63.9897 125.534 64.5838 124.945 65.1046 124.302C65.3166 124.04 65.6882 123.941 66.0049 124.066L69.8417 125.56L70.3991 124.608L67.1774 122.066C66.9078 121.853 66.811 121.495 66.934 121.176C67.2323 120.409 67.4522 119.602 67.583 118.777C67.6354 118.445 67.905 118.178 68.24 118.129L72.3097 117.519V116.419L71.0142 116.227C70.8048 116.196 70.6216 116.087 70.4986 115.919C70.373 115.753 70.3206 115.548 70.352 115.343C70.4148 114.925 70.8231 114.624 71.2471 114.687L73.2126 114.98C73.5921 115.037 73.88 115.369 73.88 115.75V118.188C73.88 118.577 73.6 118.902 73.2126 118.959L69.0304 119.584C68.9204 120.129 68.7739 120.671 68.5959 121.194L71.9066 123.806C72.2102 124.045 72.2914 124.476 72.0977 124.805L70.8624 126.919C70.6739 127.243 70.25 127.391 69.8966 127.253L65.9552 125.718C65.5861 126.133 65.1857 126.527 64.767 126.896L66.3163 130.799C66.4603 131.16 66.3163 131.564 65.9787 131.759L63.8457 132.978C63.5186 133.165 63.0736 133.081 62.8407 132.789L60.2026 129.51C59.6713 129.686 59.1269 129.832 58.5799 129.941L57.9518 134.091C57.8942 134.467 57.5618 134.753 57.1745 134.753ZM55.9392 123.989C54.047 123.989 52.2699 123.26 50.9325 121.934C49.5925 120.609 48.8571 118.845 48.8571 116.97C48.8571 115.097 49.5951 113.333 50.9325 112.008C52.2699 110.683 54.047 109.951 55.9392 109.951C57.8314 109.951 59.6111 110.682 60.9485 112.008C62.2859 113.333 63.0239 115.097 63.0239 116.97C63.0239 118.845 62.2859 120.609 60.9485 121.934C59.6111 123.26 57.834 123.989 55.9392 123.989ZM55.9392 111.508C52.9059 111.513 50.4326 113.964 50.4274 116.97C50.4326 119.979 52.9059 122.427 55.9392 122.435C58.9751 122.427 61.4484 119.979 61.4536 116.97C61.4484 113.964 58.9751 111.512 55.9392 111.508ZM67.7532 113.494C67.4234 113.494 67.1277 113.287 67.0151 112.981C66.9445 112.786 66.9523 112.574 67.0413 112.387C67.1303 112.198 67.2873 112.055 67.4836 111.985C67.5726 111.954 67.6616 111.938 67.7532 111.938C68.0829 111.938 68.3787 112.143 68.4912 112.449C68.5619 112.644 68.554 112.856 68.465 113.046C68.3761 113.233 68.219 113.375 68.0227 113.445C67.9364 113.479 67.8448 113.494 67.7532 113.494Z" fill="#FF4D40"/>
</svg>
